<svg height="24" width="24" xmlns="http://www.w3.org/2000/svg"><path d="m15.516 14.016h1.5v1.5h-1.5zm.468-8.532h-3v1.5h1.5v4.5h1.5zm-4.968 0h-3v1.5h1.5v4.5h1.5zm4.5 13.032v-1.5h1.969q.422 0 .727-.305t.305-.727v-2.484q0-.422-.305-.703t-.727-.281h-3.469v6zm-3.516 0v-5.016q0-.422-.281-.703t-.703-.281h-4.5q-.422 0-.727.281t-.305.703v5.016h1.5v-4.5h1.031v3h1.5v-3h.984v4.5h1.5zm6.984-15.516q.797 0 1.406.609t.609 1.406v13.969q0 .797-.609 1.406t-1.406.609h-13.969q-.797 0-1.406-.609t-.609-1.406v-13.969q0-.797.609-1.406t1.406-.609z"/></svg>