<svg xmlns="http://www.w3.org/2000/svg" width="24" height="24"><path d="M20.016 12.516v-1.031h-1.5v-1.5h-1.031v1.5h-1.5v1.031h1.5v1.5h1.031v-1.5h1.5zM14.25 15h1.734l-2.25-3 2.25-3H14.25l-1.734 2.25V9h-1.5v6h1.5v-2.25zm-4.734-3.516v-1.5q0-.422-.305-.703T8.484 9H5.015v1.5h3v.984H5.999q-.422 0-.703.305t-.281.727V15h4.5v-1.5h-3v-.984h1.969q.422 0 .727-.305t.305-.727zM18.984 3q.797 0 1.406.609t.609 1.406v13.969q0 .797-.609 1.406t-1.406.609H5.015q-.797 0-1.406-.609T3 18.984V5.015q0-.797.609-1.406T5.015 3h13.969z"/></svg>