<svg xmlns="http://www.w3.org/2000/svg" width="24" height="24"><path d="M20.016 12.516v-1.031h-1.5v-1.5h-1.031v1.5h-1.5v1.031h1.5v1.5h1.031v-1.5h1.5zM15.984 15l-2.25-3 2.25-3H14.25l-1.734 2.25V9h-1.5v6h1.5v-2.25L14.25 15h1.734zm-6.468-4.5V9H6q-.422 0-.703.281t-.281.703v4.031q0 .422.281.703t.703.281h2.484q.422 0 .727-.281t.305-.703v-1.5q0-.422-.305-.727t-.727-.305H6.515v-.984h3zM18.984 3q.797 0 1.406.609t.609 1.406v13.969q0 .797-.609 1.406t-1.406.609H5.015q-.797 0-1.406-.609T3 18.984V5.015q0-.797.609-1.406T5.015 3h13.969zM6.516 12.516h1.5v1.5h-1.5v-1.5z"/></svg>