<svg xmlns="http://www.w3.org/2000/svg" width="24" height="24"><path d="M15.516 14.016h1.5v1.5h-1.5v-1.5zm0 4.5v-1.5h1.969q.422 0 .727-.305t.305-.727V13.5q0-.422-.305-.703t-.727-.281h-3.469v6h1.5zm-4.5-7.032H13.5q.422 0 .703-.281t.281-.703V9q0-.422-.281-.703t-.703-.281h-2.016V6.985h3v-1.5h-3.469q-.422 0-.727.305t-.305.727v3.984q0 .422.305.703t.727.281zM12 18.516V13.5q0-.422-.281-.703t-.703-.281h-4.5q-.422 0-.727.281t-.305.703v5.016h1.5v-4.5h1.031v3h1.5v-3h.984v4.5h1.5zM18.984 3q.797 0 1.406.609t.609 1.406v13.969q0 .797-.609 1.406t-1.406.609H5.015q-.797 0-1.406-.609T3 18.984V5.015q0-.797.609-1.406T5.015 3h13.969zm-7.5 6h1.5v1.5h-1.5V9z"/></svg>