<svg height="24" width="24" xmlns="http://www.w3.org/2000/svg"><path d="M15.516 14.016h1.5v1.5h-1.5zm-2.532-2.532l1.453-4.688q.141-.516-.164-.914t-.773-.398H9.984v1.5h2.625l-1.359 4.5zm2.532 7.032v-1.5h1.969q.422 0 .727-.305t.305-.727V13.5q0-.422-.305-.703t-.727-.281h-3.469v6zm-3.516 0V13.5q0-.422-.281-.703t-.703-.281h-4.5q-.422 0-.727.281t-.305.703v5.016h1.5v-4.5h1.031v3h1.5v-3h.984v4.5h1.5zM18.984 3q.797 0 1.406.609t.609 1.406v13.969q0 .797-.609 1.406t-1.406.609H5.015q-.797 0-1.406-.609T3 18.984V5.015q0-.797.609-1.406T5.015 3z"/></svg>