<svg xmlns="http://www.w3.org/2000/svg" width="24" height="24"><path fill="#ff9e0f" d="M24 12.46c0 5.302-4.298 9.6-9.6 9.6s-9.6-4.298-9.6-9.6h1.07a8.53 8.53 0 1 0 8.53-8.53V2.86a9.6 9.6 0 0 1 9.6 9.6zm-9.6-3.2a3.2 3.2 0 1 0 3.2 3.2 3.2 3.2 0 0 0-3.2-3.2zm-2 0l-.6-6.67-2.46 1.92-1.46-1.44a4.647 4.647 0 0 0-3.055-1.138c-.955 0-1.843.287-2.582.778l.017-.011-2.02 1.3a.54.54 0 0 0-.149.742L.09 4.739a.54.54 0 0 0 .742.149l-.002.001 2-1.31a3.605 3.605 0 0 1 1.994-.595c.873 0 1.675.308 2.302.82l-.007-.005 1.37 1.38-2.29 1.82z"/></svg>