<svg xmlns="http://www.w3.org/2000/svg" width="24" height="24"><path fill="#87ec00" d="M0 0v24h24V0zm1 1.026h22v21.948H1zm6.165 6.957H4.394c-.082 0-.115-.033-.099-.132l.198-1.385c.016-.083.049-.116.132-.116h6.926c.099 0 .132.033.149.132l.132 1.369c.016.099-.033.132-.116.132H8.962v9.235c0 .083-.033.132-.132.132H7.296c-.098 0-.131-.033-.131-.132zm7.553 4.766l2.523-3.414c.066-.082.082-.115.165-.115h1.682c.099 0 .132.066.066.148-.396.511-2.21 2.754-2.804 3.48-.008.014-.012.031-.012.049s.004.035.012.05v-.001l3.2 4.271c.033.066.016.132-.083.132h-1.946c-.099 0-.132-.033-.165-.099a109.073 109.073 0 0 1-2.301-3.173l-.337-.505v3.662c0 .082-.017.115-.116.115h-1.55c-.116 0-.132-.033-.132-.132V6.448c0-.049.016-.099.115-.099h1.567c.066 0 .116.033.116.116z"/></svg>