<svg xmlns="http://www.w3.org/2000/svg" width="24" height="24"><path fill="#00e4bb" d="M0 .3v23.4h24V.3zm1 1h22v21.4H1zm5.659 12.5l-.772 2.863c-.017.081-.049.137-.145.137H4.309c-.097 0-.113-.032-.097-.145l2.769-9.641a3.01 3.01 0 0 0 .097-.77v-.05.003c0-.065.032-.097.08-.097h2.045c.064 0 .097.016.113.097l3.107 10.474c.016.081 0 .129-.081.129h-1.61a.147.147 0 0 1-.144-.119v-.001l-.805-2.88zm2.721-1.6c-.274-1.079-.918-3.429-1.159-4.572h-.016c-.209 1.143-.725 3.059-1.127 4.572zm10.02 3.025c0 .112.016.45.048.998 0 .064-.006.096-.07.112a8.091 8.091 0 0 1-3 .66h-.012c-1.465 0-2.866-.563-2.866-2.817V9.029c0-.081.032-.129.113-.129h1.574c.081 0 .113.048.113.129v4.94c0 .95.415 1.465 1.413 1.465h.021c.347 0 .679-.065.985-.183l-.019.006V9.029c0-.081.032-.129.113-.129h1.474c.097 0 .113.048.113.129z"/></svg>