<svg xmlns="http://www.w3.org/2000/svg" width="24" height="24"><path d="M11.908.184a12.012 12.012 0 0 0-8.045 3.172c-4.882 4.475-5.166 12.081-.691 16.963.203.244.447.447.691.691a.315.315 0 0 0 .408-.039l.529-.611a.319.319 0 0 0 0-.447C.528 15.967.243 9.255 4.23 4.983S14.888.428 19.16 4.415c4.271 3.987 4.555 10.656.568 14.928-.203.203-.365.408-.568.57a.319.319 0 0 0 0 .447l.529.611c.122.122.325.12.447.039 4.882-4.515 5.166-12.081.691-16.963a11.981 11.981 0 0 0-8.92-3.863zm.387 3.517A8.607 8.607 0 0 0 6.143 6c-3.458 3.214-3.661 8.624-.447 12.082.122.122.243.284.406.406a.319.319 0 0 0 .447 0l.529-.609a.319.319 0 0 0 0-.447 7.262 7.262 0 0 1-2.277-5.248c0-3.946 3.212-7.16 7.158-7.16s7.16 3.253 7.16 7.199a7.205 7.205 0 0 1-2.238 5.209.319.319 0 0 0 0 .447l.529.609c.122.122.325.163.447.041a8.599 8.599 0 0 0 .408-12.123 8.494 8.494 0 0 0-5.971-2.705zm-.266 3.317a5.197 5.197 0 0 0-3.691 1.463c-2.075 1.993-2.115 5.247-.121 7.322l.121.123a.319.319 0 0 0 .447 0l.529-.611a.319.319 0 0 0 0-.447 3.814 3.814 0 0 1-1.098-2.684v-.01a3.732 3.732 0 0 1 3.732-3.732h.011-.001.01a3.732 3.732 0 0 1 3.732 3.732v.011-.001c0 1.017-.406 1.951-1.139 2.684a.319.319 0 0 0 0 .447l.529.611a.319.319 0 0 0 .447 0c2.034-1.993 2.116-5.248.123-7.322a5.129 5.129 0 0 0-3.633-1.586zm.006 7.744a.597.597 0 0 0-.402.147l-.039.041-7.16 8.055a.505.505 0 0 0 .041.691.439.439 0 0 0 .283.123h14.361a.495.495 0 0 0 .488-.488.464.464 0 0 0-.121-.326l-7.08-8.055a.505.505 0 0 0-.371-.188z"/></svg>