<svg xmlns="http://www.w3.org/2000/svg" width="24" height="24"><path d="M3.412 1.32c-1.178 0-1.584.122-2.031.366-.435.233-.782.58-1.01 1.001L.365 2.7C.122 3.148 0 3.553 0 4.771v9.137c0 1.178.122 1.585.365 2.031.244.447.57.772 1.016 1.016.406.244.813.365 2.031.365h2.72l1.138-1.34H3.006a1.791 1.791 0 0 1-1.016-.164c-.203-.08-.366-.283-.488-.486-.122-.325-.203-.65-.162-1.016V4.406c-.04-.325 0-.69.162-1.015.081-.203.285-.365.488-.487.325-.122.65-.204 1.016-.164h17.867c.325-.04.69.002 1.016.164.203.082.364.284.486.487.122.324.203.65.162 1.015v9.95c.04.324 0 .69-.162 1.015-.081.203-.283.365-.486.486-.325.122-.65.203-1.016.163h-4.264l1.137 1.341 2.803-.04c1.218 0 1.623-.122 2.07-.366a2.47 2.47 0 0 0 1.01-1.003l.006-.013c.243-.406.365-.813.365-2.03V4.77c0-1.218-.122-1.623-.365-2.07a2.474 2.474 0 0 0-1.003-1.009l-.013-.006c-.447-.244-.852-.366-2.07-.366zm8.451 12.198a.499.499 0 0 0-.369.186l-.001.001-7.106 8.162a.464.464 0 0 0-.123.315v.011-.001.017c0 .26.21.47.47.47h.019-.001 14.293c.122 0 .245-.04.326-.121.203-.163.204-.489.041-.692l-7.148-8.202a.593.593 0 0 0-.391-.147h-.01.001z"/></svg>