<svg xmlns="http://www.w3.org/2000/svg" width="24" height="24"><path d="M21.689 12.859c0-5.333-4.296-9.63-9.63-9.63s-9.63 4.297-9.63 9.63a9.592 9.592 0 0 0 3.281 7.239l-2.244 2.244a.717.717 0 0 0 0 1.037c.148.148.296.148.593.148s.444 0 .593-.148l2.336-2.336a9.605 9.605 0 0 0 10.051.056l2.28 2.28c.148.148.296.148.593.148s.444 0 .593-.148a.717.717 0 0 0 0-1.037l-2.174-2.174a9.594 9.594 0 0 0 3.359-7.309zm-17.778 0c0-4.444 3.704-8.149 8.149-8.149s8.149 3.704 8.149 8.149-3.704 8.149-8.149 8.149-8.149-3.704-8.149-8.149zm11.555-.741H13.54c-.444 0-.741-.296-.741-.741V8.71c0-.444-.296-.741-.741-.741s-.741.296-.741.741v2.667c0 1.185 1.037 2.222 2.222 2.222h1.926c.296 0 .741-.296.741-.741s-.295-.741-.741-.741zm8.445-6.666A14.496 14.496 0 0 0 19.17.711c-.444-.148-.889 0-1.037.296-.148.444 0 .889.296 1.037 1.778.889 3.259 2.37 4.296 4.148.148.148.296.296.593.296h.296c.444-.296.444-.741.296-1.037zM5.54 1.895c.444-.296.444-.741.296-1.037C5.54.414 5.095.414 4.799.562A14.492 14.492 0 0 0 .057 5.304c-.148.296 0 .889.296 1.037.148.148.296.148.444.148s.444-.148.444-.444a12.808 12.808 0 0 1 4.297-4.149z"/></svg>