<!-- Generated by IcoMoon.io -->
<svg version="1.1" xmlns="http://www.w3.org/2000/svg" width="24" height="24" viewBox="0 0 24 24">
<title>alarm1</title>
<path d="M21.689 12.859c0-5.333-4.296-9.63-9.63-9.63s-9.63 4.297-9.63 9.63c0 2.894 1.271 5.476 3.281 7.239l-2.244 2.244c-0.296 0.296-0.296 0.741 0 1.037 0.148 0.148 0.296 0.148 0.593 0.148s0.444 0 0.593-0.148l2.336-2.336c1.473 0.913 3.206 1.447 5.071 1.447 1.827 0 3.526-0.514 4.98-1.391l2.28 2.28c0.148 0.148 0.296 0.148 0.593 0.148s0.444 0 0.593-0.148c0.296-0.296 0.296-0.741 0-1.037l-2.174-2.174c2.055-1.763 3.359-4.376 3.359-7.309zM3.911 12.859c0-4.444 3.704-8.149 8.149-8.149s8.149 3.704 8.149 8.149-3.704 8.149-8.149 8.149-8.149-3.704-8.149-8.149zM15.466 12.118h-1.926c-0.444 0-0.741-0.296-0.741-0.741v-2.667c0-0.444-0.296-0.741-0.741-0.741s-0.741 0.296-0.741 0.741v2.667c0 1.185 1.037 2.222 2.222 2.222h1.926c0.296 0 0.741-0.296 0.741-0.741s-0.295-0.741-0.741-0.741zM23.911 5.452c-1.185-1.926-2.815-3.556-4.741-4.741-0.444-0.148-0.889 0-1.037 0.296-0.148 0.444 0 0.889 0.296 1.037 1.778 0.889 3.259 2.37 4.296 4.148 0.148 0.148 0.296 0.296 0.593 0.296h0.296c0.444-0.296 0.444-0.741 0.296-1.037zM5.54 1.895c0.444-0.296 0.444-0.741 0.296-1.037-0.296-0.444-0.741-0.444-1.037-0.296-1.927 1.185-3.556 2.815-4.742 4.742-0.148 0.296 0 0.889 0.296 1.037 0.148 0.148 0.296 0.148 0.444 0.148s0.444-0.148 0.444-0.444c1.037-1.63 2.519-3.112 4.297-4.149z"></path>
</svg>
