<svg xmlns="http://www.w3.org/2000/svg" width="24" height="24"><path fill="#5468ff" d="M3.16 0h-.004A3.156 3.156 0 0 0 0 3.152v17.69A3.162 3.162 0 0 0 3.16 24h17.68c1.747 0 3.16-1.42 3.16-3.16V3.16C24 1.413 22.58 0 20.84 0zm7.87 3.494h2.43c.574 0 1.04.466 1.04 1.04v.827a.14.14 0 0 1-.175.136h.001a7.53 7.53 0 0 0-2.043-.276h-.01a7.57 7.57 0 0 0-2.157.311l.054-.014c-.095.021-.182-.045-.182-.14v-.844c0-.574.466-1.039 1.042-1.04zm-4.35 2.22h.012c.289 0 .55.117.738.306l.414.416c.058.065.051.167-.022.21a7.566 7.566 0 0 0-.941.801 8.016 8.016 0 0 0-.777.909l-.016.023c-.058.065-.153.08-.219.016l-.408-.409a1.036 1.036 0 0 1 0-1.472l.496-.494c.185-.186.44-.302.722-.306h.001zm5.597.35h.013a6.774 6.774 0 0 1 6.774 6.774v.004a6.785 6.785 0 0 1-6.784 6.783h-.003c-3.748 0-6.789-3.028-6.789-6.777a6.786 6.786 0 0 1 6.786-6.784h.003zm0 2.008a4.783 4.783 0 0 0-4.783 4.776 4.783 4.783 0 0 0 4.783 4.775h.007a4.777 4.777 0 0 0 4.777-4.775 4.782 4.782 0 0 0-4.782-4.776h-.002zm.145.838a3.94 3.94 0 0 1 3.271 1.969l.01.019c.036.073.015.16-.057.196l-3.166 1.638c-.093.052-.205-.023-.205-.125V9.05h.002c0-.08.072-.139.145-.14z"/></svg>