<!-- Generated by IcoMoon.io -->
<svg version="1.1" xmlns="http://www.w3.org/2000/svg" width="24" height="24" viewBox="0 0 24 24">
<title>align-center</title>
<path d="M23.284 1.362h-22.538c-0.377 0-0.685-0.308-0.685-0.685s0.308-0.677 0.685-0.677h22.538c0.377 0 0.685 0.308 0.685 0.685s-0.308 0.677-0.685 0.677zM19.004 7.028h-13.978c-0.377 0-0.685-0.308-0.685-0.685s0.308-0.685 0.685-0.685h13.978c0.377 0 0.685 0.308 0.685 0.685s-0.308 0.685-0.685 0.685zM23.284 12.685h-22.538c-0.377 0-0.685-0.308-0.685-0.685s0.308-0.685 0.685-0.685h22.538c0.377 0 0.685 0.308 0.685 0.685s-0.308 0.685-0.685 0.685zM19.004 18.343h-13.978c-0.377 0-0.685-0.308-0.685-0.685s0.308-0.685 0.685-0.685h13.978c0.377 0 0.685 0.308 0.685 0.685s-0.308 0.685-0.685 0.685zM23.253 24h-22.545c-0.377 0-0.685-0.308-0.685-0.685s0.308-0.685 0.685-0.685h22.538c0.377 0 0.685 0.308 0.685 0.685s-0.3 0.685-0.677 0.685z"></path>
</svg>
