<svg xmlns="http://www.w3.org/2000/svg" width="24" height="24"><path d="M23.284 1.362H.746A.68.68 0 1 1 .746 0h22.538a.68.68 0 1 1 0 1.362zm-4.28 5.666H5.026c-.377 0-.685-.308-.685-.685s.308-.685.685-.685h13.978c.377 0 .685.308.685.685s-.308.685-.685.685zm4.28 5.657H.746c-.377 0-.685-.308-.685-.685s.308-.685.685-.685h22.538c.377 0 .685.308.685.685s-.308.685-.685.685zm-4.28 5.658H5.026c-.377 0-.685-.308-.685-.685s.308-.685.685-.685h13.978c.377 0 .685.308.685.685s-.308.685-.685.685zM23.253 24H.708c-.377 0-.685-.308-.685-.685s.308-.685.685-.685h22.538c.377 0 .685.308.685.685s-.3.685-.677.685z"/></svg>