<svg xmlns="http://www.w3.org/2000/svg" width="24" height="24"><path d="M23.269 1.362H.731A.687.687 0 0 1 .046.677C.046.308.354 0 .731 0h22.538a.68.68 0 1 1 0 1.362zm-8.56 5.666H.731c-.377 0-.685-.308-.685-.685s.308-.685.685-.685h13.978c.377 0 .685.308.685.685s-.308.685-.685.685zm8.56 5.657H.731c-.377 0-.685-.308-.685-.685s.308-.685.685-.685h22.538c.377 0 .685.308.685.685s-.308.685-.685.685zm-8.56 5.658H.731c-.377 0-.685-.308-.685-.685s.308-.685.685-.685h13.978c.377 0 .685.308.685.685s-.308.685-.685.685zM23.269 24H.731c-.377 0-.685-.308-.685-.685s.308-.685.685-.685h22.538c.377 0 .685.308.685.685s-.308.685-.685.685z"/></svg>