<svg xmlns="http://www.w3.org/2000/svg" width="24" height="24"><path fill="#1578d3" d="M.602 1.077A.615.615 0 0 0 0 1.692v20.615c0 .34.275.615.615.615h8.309c.34 0 .615-.275.615-.615v-1.744l.647 1.94c.084.246.313.42.583.42h6.771a.615.615 0 0 0 .584-.423l.001-.004.035-.107a.616.616 0 0 0 .61.533h4.616c.34 0 .615-.275.615-.615V8.155a.616.616 0 0 0-.443-.591l-.004-.001-4.307-1.233a.614.614 0 0 0-.742.368l-.001.004-1.887 4.906V6.057a.614.614 0 0 0-.439-.589l-.004-.001-3.385-.98a.615.615 0 0 0-.787.59v6.15l-2.809-7.48a.616.616 0 0 0-.404-.376l-.004-.001-8-2.27a.591.591 0 0 0-.167-.023H.603h.001zm.628 1.43l6.918 1.962 3.891 10.363a.615.615 0 0 0 1.191-.216V5.895l2.155.624v8.407a.615.615 0 0 0 1.189.222l.001-.004 2.874-7.475 3.32.948v13.074h-3.384v-1.23h1.23c.34 0 .615-.275.615-.615v-7.077a.615.615 0 0 0-1.199-.194l-.001.004-2.94 9.112h-5.877L6.738 8.265a.616.616 0 0 0-1.199.193v11.081c0 .34.275.615.615.615H8.31v1.537H1.23zm5.54 9.747l2.224 6.674a.683.683 0 0 0-.069-.006H6.77zM20 16.682v2.549h-.822z"/></svg>