<svg xmlns="http://www.w3.org/2000/svg" width="24" height="24"><path d="M22.425 21.975s-.825.75-.225-.525.825-2.1.525-2.55c-.375-.375-2.475-.225-2.475-.225s-1.05.15-.525-.225c0 0 2.625-1.275 4.275-.525-.075 0 .525 1.875-1.575 4.05zm-8.55-6.525c-1.65 2.175-4.275 2.025-4.275 2.025-5.1 0-4.5-4.575-4.5-4.575 0-6.3 8.55-5.85 8.55-5.85s.375-3.3-2.025-3.3S9.15 6 9.15 6L5.4 5.475s.75-4.8 6.525-4.8 5.775 4.05 5.775 4.05v6.825c0 1.95 1.275 3.3 1.275 3.3l-3 2.55-2.1-1.95zm-.225-4.575v-1.5c-5.325 0-5.625 5.025-2.775 5.025s2.775-3.525 2.775-3.525zm7.275 8.85s.6-.3.75 0-.525.75-.525.75-3.975 2.775-9 2.775-9.6-2.1-12-4.575c0 0-.375-.675.225-.225.675.45 6.375 3 11.775 3 0 0 6.525-.375 8.775-1.725z"/></svg>