<!-- Generated by IcoMoon.io -->
<svg version="1.1" xmlns="http://www.w3.org/2000/svg" width="24" height="24" viewBox="0 0 24 24">
<title>amazon1</title>
<path d="M22.425 21.975s-0.825 0.75-0.225-0.525 0.825-2.1 0.525-2.55c-0.375-0.375-2.475-0.225-2.475-0.225s-1.050 0.15-0.525-0.225c0 0 2.625-1.275 4.275-0.525-0.075 0 0.525 1.875-1.575 4.050zM13.875 15.45c-1.65 2.175-4.275 2.025-4.275 2.025-5.1 0-4.5-4.575-4.5-4.575 0-6.3 8.55-5.85 8.55-5.85s0.375-3.3-2.025-3.3-2.475 2.25-2.475 2.25l-3.75-0.525s0.75-4.8 6.525-4.8 5.775 4.050 5.775 4.050v6.825c0 1.95 1.275 3.3 1.275 3.3l-3 2.55-2.1-1.95zM13.65 10.875v-1.5c-5.325 0-5.625 5.025-2.775 5.025s2.775-3.525 2.775-3.525zM20.925 19.725s0.6-0.3 0.75 0-0.525 0.75-0.525 0.75-3.975 2.775-9 2.775-9.6-2.1-12-4.575c0 0-0.375-0.675 0.225-0.225 0.675 0.45 6.375 3 11.775 3 0 0 6.525-0.375 8.775-1.725z"></path>
</svg>
