<svg xmlns="http://www.w3.org/2000/svg" width="24" height="24"><path fill="#00caff" d="M12 0C5.37 0 0 5.37 0 12c0 6.09 4.53 11.11 10.4 11.9v-2.424c0-.696-.447-1.287-1.069-1.503l-.011-.003c-3.355-1.156-5.722-4.286-5.722-7.969 0-.071.001-.141.003-.211v.01c.095-4.549 3.805-8.201 8.368-8.201l.128.001h-.006a8.401 8.401 0 0 1 8.31 8.726v-.016l-.01.07a9.64 9.64 0 0 1-.033.417l.003-.037c0 .07-.01.14-.02.2 0 .08-.01.16-.02.23l-.02.1c-1.03 6.78-9.85 10.58-9.9 10.61.52.07 1.06.1 1.6.1 6.63 0 12-5.37 12-12s-5.37-12-12-12z"/></svg>