<svg xmlns="http://www.w3.org/2000/svg" width="24" height="24"><path fill="#8940fa" d="M12.335 12.606c-.171.682-.586 1.261-1.139 1.564l-.428.234.78 1.32.41-.226a3.768 3.768 0 0 0 1.425-1.421l.01-.019a4.357 4.357 0 0 0 .565-2.097v-.019a4.396 4.396 0 0 0-.576-2.122l.011.022a3.77 3.77 0 0 0-1.416-1.43l-.018-.01-.41-.225-.78 1.32.427.234c.571.312.995.92 1.155 1.632H7.244a1.403 1.403 0 0 0-1.236-.743h-.004c-.77 0-1.396.617-1.396 1.377 0 .759.626 1.377 1.396 1.377h.003c.543 0 1.013-.309 1.246-.76l.004-.008zM12 24C6.392 24 1.846 18.627 1.846 12S6.392 0 12 0s10.154 5.373 10.154 12S17.608 24 12 24zm5.591-11.164c-.29 2.825-1.867 5.206-4.06 6.377l.829 1.368c2.846-1.526 4.83-4.767 4.896-8.538-.066-3.771-2.05-7.012-4.896-8.539l-.83 1.37c2.194 1.17 3.771 3.55 4.061 6.375l.023.794zm-4.652 5.336l.194-.107c.995-.547 1.841-1.398 2.446-2.46a7.553 7.553 0 0 0 .98-3.643V11.949a7.61 7.61 0 0 0-1-3.685l.02.038c-.605-1.063-1.451-1.914-2.446-2.46l-.194-.108-.79 1.336.203.11a4.93 4.93 0 0 1 1.76 1.681l.012.021a5.91 5.91 0 0 1 .856 2.535l.015.536-.015.535a5.9 5.9 0 0 1-.87 2.561l.014-.025a4.928 4.928 0 0 1-1.748 1.688l-.024.013-.203.111z"/></svg>