<svg xmlns="http://www.w3.org/2000/svg" width="24" height="24"><path d="M21.825 16.8a1.424 1.424 0 0 1-1.425-1.425V9.3a1.424 1.424 0 1 1 2.85 0v6.075c0 .825-.675 1.425-1.425 1.425zM17.4 19.5h-.9v3c0 .825-.675 1.425-1.425 1.425S13.65 23.25 13.65 22.5v-3h-2.475v3c0 .825-.675 1.425-1.425 1.425s-1.5-.6-1.5-1.35v-3h-.9c-.975 0-1.8-.825-1.8-1.8v-9.9H19.2v9.9c0 .975-.825 1.725-1.8 1.725zm-9-17.325L7.725 1.2C7.5.9 7.575.45 7.95.225c.3-.3.75-.225.975.075l.9 1.2a9.377 9.377 0 0 1 2.7-.375c.9 0 1.725.15 2.475.375l.9-1.2a.64.64 0 0 1 .975-.075c.3.225.45.675.225.975l-.675.975c2.7 1.5 2.775 4.575 2.775 4.575H5.55s.15-3 2.85-4.575zm6.675 3c.45 0 .75-.375.75-.75 0-.45-.375-.75-.75-.75s-.75.375-.75.75c-.075.45.3.75.75.75zm-5.4 0c.45 0 .75-.375.75-.75 0-.45-.375-.75-.75-.75s-.75.375-.75.75c0 .45.3.75.75.75zM2.925 16.8A1.424 1.424 0 0 1 1.5 15.375V9.3a1.424 1.424 0 1 1 2.85 0v6.075c.075.825-.6 1.425-1.425 1.425z"/></svg>