<svg xmlns="http://www.w3.org/2000/svg" width="24" height="24"><path fill="#3ddc84" d="M24 19H0a13.567 13.567 0 0 1 2.241-6.118l-.031.048a11.295 11.295 0 0 1 3.61-3.502l.46-.258-2.02-3.41a.51.51 0 0 1 .168-.699l.002-.001a.5.5 0 0 1 .689.177l.001.002 2.08 3.5a12.403 12.403 0 0 1 4.849-.9h-.008l.149-.001c1.659 0 3.24.331 4.682.931l-.081-.03 2.07-3.5a.502.502 0 0 1 .702-.169l-.002-.001a.51.51 0 0 1 .159.702l.001-.002-2.02 3.42.5.28a11.467 11.467 0 0 1 3.602 3.574l.028.046a14.29 14.29 0 0 1 2.162 5.834l.009.076zm-7.5-4.48a1 1 0 0 0 2 0 1 1 0 0 0-2 0zm-11 0a1 1 0 0 0 2 0 1 1 0 0 0-2 0z"/></svg>