<!-- Generated by IcoMoon.io -->
<svg version="1.1" xmlns="http://www.w3.org/2000/svg" width="24" height="24" viewBox="0 0 24 24">
<title>android1</title>
<path d="M21.825 16.8c-0.825 0-1.425-0.675-1.425-1.425v-6.075c0-0.825 0.675-1.425 1.425-1.425 0.825 0 1.425 0.675 1.425 1.425v6.075c0 0.825-0.675 1.425-1.425 1.425zM17.4 19.5h-0.9v3c0 0.825-0.675 1.425-1.425 1.425s-1.425-0.675-1.425-1.425v-3h-2.475v3c0 0.825-0.675 1.425-1.425 1.425s-1.5-0.6-1.5-1.35v-3h-0.9c-0.975 0-1.8-0.825-1.8-1.8v-9.9h13.65v9.9c0 0.975-0.825 1.725-1.8 1.725zM8.4 2.175l-0.675-0.975c-0.225-0.3-0.15-0.75 0.225-0.975 0.3-0.3 0.75-0.225 0.975 0.075l0.9 1.2c0.75-0.225 1.65-0.375 2.7-0.375 0.9 0 1.725 0.15 2.475 0.375l0.9-1.2c0.225-0.3 0.675-0.375 0.975-0.075 0.3 0.225 0.45 0.675 0.225 0.975l-0.675 0.975c2.7 1.5 2.775 4.575 2.775 4.575h-13.65s0.15-3 2.85-4.575zM15.075 5.175c0.45 0 0.75-0.375 0.75-0.75 0-0.45-0.375-0.75-0.75-0.75s-0.75 0.375-0.75 0.75c-0.075 0.45 0.3 0.75 0.75 0.75zM9.675 5.175c0.45 0 0.75-0.375 0.75-0.75 0-0.45-0.375-0.75-0.75-0.75s-0.75 0.375-0.75 0.75c0 0.45 0.3 0.75 0.75 0.75zM2.925 16.8c-0.825 0-1.425-0.675-1.425-1.425v-6.075c0-0.825 0.675-1.425 1.425-1.425 0.825 0 1.425 0.675 1.425 1.425v6.075c0.075 0.825-0.6 1.425-1.425 1.425z"></path>
</svg>
