<svg xmlns="http://www.w3.org/2000/svg" width="24" height="24"><path fill="#1b6ac6" d="M11.988 0l-.005.002a.094.094 0 0 0-.024.006h.001l-.005.002-.005.002-.013.008L1.64 5.958l-.008.004-.004.002-.002.002-.004.002-.002.002-.004.002-.004.004-.003.004-.004.002-.002.003v.001l-.004.004-.002.003v.001l-.002.003v.001l-.004.004-.002.003v.001l-.002.003v.005l-.002.005v.001l-.002.003v.005l-.002.005V17.966l.002.005v.006l.002.005.002.007v-.001l.004.008.002.005.002.005.002.005.004.004.002.005.004.004.002.002a.014.014 0 0 0 .003.004l.003.002h.001l.004.004.003.002h.001l.003.002h.001a.11.11 0 0 0 .011.006h.001l10.304 5.942.002.002.004.002.013.008h.005l.003.002h.001l.003.002H11.986l.005.002h.005a.11.11 0 0 0 .018-.002h-.001l.011-.002h-.001a.196.196 0 0 0 .014-.006l.008-.004.006-.004.006-.004 10.29-5.934.016-.008.004-.002a.014.014 0 0 1 .006-.002h-.001l.002-.002.004-.004.005-.002.004-.004.004-.004.002-.002.004-.004.002-.003v-.001l.002-.003v-.001l.004-.004.002-.003V18l.002-.005v-.001-.002-.002l.002-.003v-.001l.002-.003v-.001-.003-.003l.002-.003v-.001-.002-.002-.003-.003-.002-.008-.004V6.066 6.06v-.006-.003-.003-.002-.002-.003-.003l-.002-.005v-.002-.002l-.002-.005v-.001-.001l-.002-.005-.004-.008-.002-.002-.002-.009v.001l-.002-.002-.004-.004-.002-.005-.004-.004-.002-.005-.003-.002h-.001l-.004-.004-.003-.002h-.001l-.003-.002-.015-.01h-.001L12.058.021l-.006-.004-.003-.002-.007-.004h-.001l-.003-.002h-.001l-.009-.004h-.005L12.02.003h-.001a.008.008 0 0 1-.004-.002H11.986zm-.082.256v4.388L5.675 8.262 1.863 6.046zm.187 0l10.043 5.79-3.812 2.216-6.23-3.618zM12 4.804l6.139 3.565-6.14 3.519-6.138-3.519zM1.77 6.208l3.813 2.216v7.146L1.77 17.787zm20.46 0v11.579l-3.814-2.216V8.424zM5.769 8.53l6.137 3.519v7.084L5.769 15.57zm12.462 0v7.04l-6.138 3.563V12.05zm-12.556 7.2l6.23 3.62v4.388l-10.044-5.79zm12.65 0l3.813 2.218-10.045 5.79V19.35l3.117-1.81z"/></svg>