<svg xmlns="http://www.w3.org/2000/svg" width="24" height="24"><path fill="#007a88" d="M12.033 10.713c-.691 0-1.263.564-1.263 1.255 0 .69.572 1.262 1.263 1.262a1.258 1.258 0 1 0 0-2.517zm0 .797c.258 0 .457.2.457.458s-.2.458-.457.458c-.259 0-.458-.2-.458-.458s.199-.458.458-.458zM.65.001C.577.001.544.013.3.041.053.07-.027.364.03.673c.055.31.072.205.196.384.124.18 4.228 4.144 6.352 6.216l-3.765 3.861c-1.25 1.282-1.91 3.251-2.296 5.433C.13 18.748.03 21.161 0 23.35a.63.63 0 0 0 .551.62h.003l.059.002.062-.002H.672a.61.61 0 0 0 .384-.184h.007l6.209-6.37c4.021 3.721 4.12 5.08 9.294 6.067 2.182.386 4.595.487 6.784.517a.627.627 0 0 0 .62-.543v-.003l.008-.008v-.022a.724.724 0 0 0-.009-.115l.001.004a.621.621 0 0 0-.177-.37v-.008l-6.378-6.208L21.047 13c.046-.043.089-.088.133-.133l.007-.008c1.25-1.281 1.918-3.244 2.304-5.426S23.97 2.838 24 .65a.628.628 0 0 0-.543-.62h-.003l-.008-.01-.027-.001a.662.662 0 0 0-.11.009l.004-.001a.611.611 0 0 0-.369.178h-.007l-6.209 6.37-3.861-3.765C11.586 1.561 9.617.893 7.434.508 5.18.259 2.917.033.65 0zm.48.835c2.039.038 4.213.12 6.164.465 2.105.372 3.927 1.03 5.012 2.089h.008l.103.11c.023.023.049.053.074.082.002.003.005.004.007.008l.023.023c0 .002-.002.008 0 .008.002.003.005.004.007.008.128.176.354.52.42.664.049.101.093.208.134.325.179.519.268 1.166.206 1.985v.008a9.24 9.24 0 0 1-.066.569c-.014.095-.033.2-.052.31-.053.286-.101.503-.156.717l.016-.075c-.028.115-.056.232-.089.347v.008c-.13.468-.3.976-.51 1.52-.052.138-.103.272-.161.414-.046.111-.099.225-.148.34l-.258.051c-.875-1.655-1.831-2.8-2.688-3.455-.432-.33-.837-.54-1.225-.627h-.007c-.387-.084-.8-.027-1.07.251l.038.075.32-.239zm22.036.288c-.038 2.04-.12 4.218-.465 6.17-.372 2.105-1.031 3.928-2.09 5.013l-.11.103c-.03.026-.062.059-.096.088l-.015.016h-.007c-.174.126-.527.36-.672.428-.101.047-.21.1-.325.14h-.007c-.516.177-1.166.26-1.979.2-.183-.016-.375-.031-.576-.06l-.302-.052h-.008a10.867 10.867 0 0 1-.718-.156l.076.016h-.007c-.117-.03-.234-.065-.347-.096a15.641 15.641 0 0 1-1.63-.54l.109.038a16.188 16.188 0 0 1-.421-.17 12.35 12.35 0 0 1-.452-.184l.135.052c.009-.063-.079.096 0 0l.001-.029a.663.663 0 0 0-.054-.264l.002.004c1.638-.87 2.78-1.814 3.433-2.665.331-.433.548-.844.635-1.233.087-.386.027-.806-.251-1.077l.007.008.11.351zM13.9 4.947l2.562 2.496c.038.038.078.11.03.332-.022.095-.146.264-.207.391-.082.166-.116.3-.274.502-.546.7-1.616 1.566-3.137 2.377.046-.107.09-.213.133-.317.06-.147.115-.294.17-.436.218-.568.4-1.103.538-1.602a10.2 10.2 0 0 0 .233-.99l.011-.073V7.62c.019-.107.043-.212.059-.324a8.22 8.22 0 0 0 .065-.599l.002-.029c.05-.677-.07-1.196-.185-1.721zM7.774 7.51c1.592.72 2.634 2.424 3.277 3.617-.108-.047-.217-.089-.324-.133-.147-.06-.294-.115-.436-.17a14.73 14.73 0 0 0-1.473-.508l-.122-.031H8.69c-.125-.034-.244-.067-.362-.096a12.64 12.64 0 0 0-.701-.148c-.108-.018-.22-.034-.332-.051v-.01a8.78 8.78 0 0 0-.592-.065l-.036-.002c-.68-.051-1.202.069-1.727.185l2.503-2.562c.036-.039.11-.08.331-.026zm-1.167 3.203c.18.012.368.038.569.067h.007c.096.015.194.034.303.052.205.038.418.085.642.14l.177.044c.057.015.113.027.17.044h.007c.47.13.974.299 1.521.51.137.053.28.104.42.162.12.049.24.103.363.155l.014.266c-1.64.87-2.787 1.82-3.44 2.672-.332.433-.548.837-.635 1.225v.008c-.087.387-.027.8.251 1.07H6.97l-.188-.335-5.94 6.071c.04-2.037.114-4.208.458-6.156.372-2.105 1.031-3.928 2.09-5.012v-.008c.024-.027.053-.048.08-.074l.03-.03c.028-.027.057-.053.087-.079l.002-.002h.007c.006-.004.01-.012.015-.016.171-.125.533-.367.68-.435.084-.041.194-.085.305-.125l.026-.008c.519-.18 1.166-.269 1.985-.206zm5.153.2c-.415.132-.698.42-.834.834l.44-.49zm.546.03l.18.323.146.095.405.313c-.148-.348-.372-.603-.731-.731zm-.288.517c.312 0 .554.242.554.553v.007a.547.547 0 0 1-.547.547H12.012a.547.547 0 0 1-.547-.547v-.007c0-.31.242-.554.553-.553zm-1.048.863c.14.363.381.61.746.746l-.241-.276-.203-.234zm2.06.038l-.282.116-.062.178-.284.327c.29-.142.498-.324.628-.621zm-.074.51c.106.045.213.096.318.14.147.06.292.115.435.17.566.217 1.098.394 1.595.53.128.039.253.067.369.097.24.059.476.114.701.155.107.019.22.034.332.051.216.03.426.058.628.074.68.052 1.202-.068 1.727-.184l-2.502 2.562c-.037.038-.115.074-.325.03h-.008c-.216-.05-.531-.204-.893-.487-.7-.547-1.567-1.618-2.377-3.138zm-1.83.088l-.134.317c-.06.147-.115.294-.17.436a14.77 14.77 0 0 0-.501 1.474l-.03.12c-.036.128-.067.251-.096.37-.06.24-.114.475-.155.7a5.33 5.33 0 0 0-.044.266l-.008.067a7.893 7.893 0 0 0-.07.591l-.003.037c-.052.68.068 1.202.184 1.727L7.567 16.59l-.015-.023-.015-.008v-.008c-.04-.04-.078-.101-.03-.317.002-.004 0-.002 0-.008.05-.216.206-.532.488-.893.546-.7 1.613-1.567 3.131-2.374zm1.04.258c.866 1.626 1.81 2.776 2.658 3.426.433.332.836.548 1.225.634h.008c.387.085.799.027 1.07-.25l-.035-.071-.304.27 6.09 5.942c-2.04-.04-4.22-.122-6.172-.467-2.105-.372-3.928-1.03-5.012-2.089h-.008l-.022-.023-.03-.03c-.008-.008-.013-.019-.022-.03l-.03-.03c-.023-.027-.053-.057-.08-.089v-.008c-.003-.004-.012-.01-.015-.015a6.442 6.442 0 0 1-.42-.647l-.016-.032a3.194 3.194 0 0 1-.126-.308l-.007-.024c-.18-.519-.269-1.166-.206-1.986a8.02 8.02 0 0 1 .066-.568v-.008c.014-.094.033-.196.052-.303.037-.205.085-.419.14-.642v-.008l.044-.17.045-.17v-.008a16.067 16.067 0 0 1 .679-1.94c.047-.115.097-.231.148-.348z"/></svg>