<svg xmlns="http://www.w3.org/2000/svg" width="24" height="24"><path fill="#0e85cd" d="M12 0C5.373 0 0 5.373 0 12c.002.872.093 1.721.264 2.541L.25 14.46c.99-.282 2.128-.449 3.304-.46h.039c1.854 0 3.613.405 5.194 1.132L8.71 15.1l.76-.5a12.51 12.51 0 0 1 6.551-1.83c1.734 0 3.387.349 4.892.981l-.083-.031a.19.19 0 0 1 .11.17v.005a.16.16 0 0 1-.06.125.193.193 0 0 1-.131-.001h.001-.25a8.688 8.688 0 0 0-.912.001l.022-.001a12.851 12.851 0 0 0-9.121 3.349l.01-.009c-.419.407-.803.844-1.15 1.311l-.02.029-.11.15a.154.154 0 0 1-.121 0h.001a.174.174 0 0 1-.121 0h.001A11.935 11.935 0 0 0 .653 16l.026-.001c1.697 4.701 6.12 8 11.314 8 6.627 0 12-5.373 12-12 0-6.625-5.369-11.996-11.993-12zm9.39 7.18h-.56a7.06 7.06 0 0 0-6.207 2.166l-.004.004c-.06.06-.12.07-.18 0a6.98 6.98 0 0 0-4.775-2.189l-.015-.001a7.538 7.538 0 0 0-2.047.097l.046-.007a.13.13 0 0 1-.13-.13.135.135 0 0 1 .001-.101v.001a7.182 7.182 0 0 1 3.36-.823c1.316 0 2.551.35 3.616.962l-.035-.019a7.25 7.25 0 0 1 3.648-.972 7.31 7.31 0 0 1 3.196.731l-.044-.019.14.08a.11.11 0 0 1 .07.103v.008a.158.158 0 0 1-.001.091v-.001a.11.11 0 0 1-.065.021l-.016-.001h.001z"/></svg>