<svg xmlns="http://www.w3.org/2000/svg" width="24" height="24"><path fill="#d22128" d="M15.826 0a.773.773 0 0 0-.407.116l.003-.002c-.376.222-1.002.851-1.748 1.763l-.156.192a37.295 37.295 0 0 0-2.534 3.599l-.096.165-.066.108A37.164 37.164 0 0 0 9.22 8.789l-.107.233a23.246 23.246 0 0 0-1.042 2.38l-.058.177c-.091.251-.174.493-.25.726-.062.199-.122.398-.178.596-.133.467-.248.934-.342 1.398l.001.002-.013.061a13.083 13.083 0 0 0-.23 1.644l-.003.048-.005.059c-.28-.449-1.029-.886-1.028-.882.537.778.944 1.55 1.004 2.308-.287.059-.681-.026-1.136-.194.474.436.83.556.969.588-.436.027-.889.327-1.346.671.668-.273 1.208-.38 1.595-.293-.382.952-1.01 2.843-1.596 4.754l-.247.934a.537.537 0 0 0 .363-.35l.001-.004c.11-.369.837-2.786 1.977-5.964l.098-.273.028-.076c.12-.333.245-.673.374-1.02l.089-.237.002-.005-.604-1.193.604 1.192c.119-.317.24-.638.365-.963l.052-.136.053-.137.041-.104-.041.105-.053.136-.052.136c-.125.325-.246.646-.365.963l.106.208.094-.01.01-.028c.153-.417.304-.824.454-1.22l.005-.014c.083-.3-.072.108-.224.518l-.234.716-.01.028-.067.183c-.118.325-.237.655-.356.993l-.005.015-.051.143c-.08.228-.15.433-.309.899.263.12.474.436.674.794a1.44 1.44 0 0 0-.465-.988l-.001-.001c1.296.058 2.413-.269 2.991-1.217.052-.085.099-.173.141-.268-.262.333-.588.474-1.2.439.902-.404 1.354-.791 1.754-1.433.084-.132.177-.296.263-.465l.018-.038c-.789.81-1.702 1.04-2.665.865h-.002l-.041-.007c.863-.107 2.01-.752 2.752-1.548.342-.367.652-.8.939-1.306.214-.377.414-.795.605-1.258.167-.404.327-.842.482-1.317a2.588 2.588 0 0 1-.795.259l-.015.002a1.653 1.653 0 0 1-.111.019l-.027.003.002-.001.003-.001c.045-.007.089-.013.133-.021s.09-.016.134-.026l-.133.024-.132.023c.802-.31 1.308-.907 1.676-1.637-.277.191-.6.337-.948.42l-.02.004a2.42 2.42 0 0 1-.153.029l-.018.002-.043.006.001-.001.009-.001.032-.005c.07-.011.123-.021.176-.033l-.019.004.014-.003-.016.003-.194.033c.278-.117.513-.247.717-.401.152-.119.287-.247.408-.387l.003-.004c.08-.095.155-.198.225-.31l.064-.104.077-.152c.114-.221.238-.501.347-.789l.021-.062.031-.088c.028-.085.052-.161.07-.227.027-.099.044-.178.053-.236a.84.84 0 0 1-.09.062l-.003.002c-.243.145-.66.277-.996.339l-.099.011-.001.001-2.267.249-.012.024-.077.158-.235.488c.079-.166.157-.329.235-.488l.077-.158c.004-.009.009-.017.012-.026l-.084.009-.067-.132c.014-.056-.112.195-.236.446l-.142.317-.204.424c-.192.355-.559 1.146-.911 1.945l-.181.461c-.118.197-.482 1.055-.834 1.92l-.247.683.086-.216a68.42 68.42 0 0 1 1.246-3.026l-.251.639a57.642 57.642 0 0 1 1.282-2.843l-.19.436.204-.424c.118-.244.237-.485.358-.724l.02-.038c.191-.378.384-.75.579-1.116.208-.39.42-.771.633-1.141.3-.528.523-.893.752-1.254l-.08.135.04-.064c.224-.354.45-.695.677-1.021.491-.708.991-1.328 1.531-1.909l-.009.01-.058.062c-.16.176-.644.741-1.375 1.863.704-.035 1.785-.179 2.667-.33.262-1.47-.257-2.142-.257-2.142S16.419.007 15.827 0zm-1.648 7.507c.66-.304.956-.579 1.242-.976.076-.11.153-.224.229-.343.233-.363.461-.764.665-1.162.197-.384.371-.765.504-1.109.065-.156.133-.355.19-.559l.01-.041c.041-.157.074-.307.099-.449-.883.15-1.964.295-2.668.329-.168.248-.398.615-.621.986l-.075.136c-.204.345-.422.723-.65 1.137a36.954 36.954 0 0 0-1.062 2.006l-.131.293zm3.628-5.309v.066h.156v.439h.072v-.439h.157v-.066zm.463 0v.506h.066v-.401l.172.348h.046l.172-.348v.401h.066v-.506h-.087l-.174.353-.175-.353zm-4.008 5.301l-.102.016.001-.001zm-.09.012l-.005.002zm-2.74 1.242l-.106.227-.133.287c-.118.204-.428.891-.727 1.582l-.194.503c-.113.194-.45 1.001-.775 1.814l-.224.632c-.148.378-.298.765-.449 1.163l-.005.014a72.983 72.983 0 0 1 2.575-6.182l-.201.473.133-.287z"/></svg>