<!-- Generated by IcoMoon.io -->
<svg version="1.1" xmlns="http://www.w3.org/2000/svg" width="24" height="24" viewBox="0 0 24 24">
<title>archlinux</title>
<path d="M11.39 0.605c-1.015 2.487-1.626 4.113-2.755 6.527 0.693 0.735 1.543 1.589 2.923 2.554-1.484-0.611-2.496-1.224-3.253-1.859-1.445 3.016-3.71 7.312-8.306 15.569 3.612-2.085 6.412-3.37 9.021-3.862-0.109-0.45-0.172-0.966-0.172-1.496 0-0.018 0-0.036 0-0.054l-0 0.003 0.003-0.115c0.058-2.314 1.261-4.094 2.687-3.973 1.426 0.12 2.534 2.096 2.478 4.409-0.011 0.436-0.060 0.855-0.146 1.243 2.581 0.505 5.352 1.787 8.914 3.844-0.702-1.293-1.329-2.459-1.929-3.569-0.944-0.731-1.927-1.683-3.933-2.713 1.379 0.359 2.367 0.771 3.136 1.234-6.090-11.334-6.582-12.841-8.67-17.74zM22.898 21.36v-0.624h-0.234v-0.084h0.562v0.084h-0.234v0.624h-0.094zM23.323 21.36v-0.708h0.142l0.167 0.501c0.016 0.047 0.027 0.082 0.034 0.106 0.016-0.054 0.030-0.092 0.044-0.129l-0.005 0.015 0.169-0.493h0.127v0.708h-0.091v-0.593l-0.206 0.593h-0.084l-0.205-0.603v0.603h-0.091z"></path>
</svg>
