<svg xmlns="http://www.w3.org/2000/svg" width="24" height="24"><path d="M14.197 3.901l4.347-1.165a.75.75 0 0 1 .918.53l4.465 16.662a.75.75 0 0 1-.531.919l-4.346 1.165a.752.752 0 0 1-.919-.53L13.666 4.819a.75.75 0 0 1 .531-.919zm3.968 14.806a2.249 2.249 0 1 0 4.346-1.165 2.249 2.249 0 1 0-4.346 1.165zm-.862-3.214l4.346-1.165-2.329-8.693L14.973 6.8l2.329 8.693zM9.796 17.25a1.125 1.125 0 1 1 0 2.25 1.125 1.125 0 0 1 0-2.25zm6.096-9.92l2.899-.776.194.724-2.898.776-.194-.724zm.583 2.173l-.195-.724 2.898-.776.194.725-2.897.776zm3.584 7.581a1.126 1.126 0 1 1 .582 2.175 1.126 1.126 0 0 1-.582-2.175zM1.546 6.75h3v.75h-3v-.75zm0 3h3v.75h-3v-.75zm0-1.5h3V9h-3v-.75zm1.5 9a1.125 1.125 0 1 1 0 2.25 1.125 1.125 0 0 1 0-2.25zM.796 3h4.5c.415 0 .75.335.75.75V21a.75.75 0 0 1-.75.75h-4.5a.75.75 0 0 1-.75-.75V3.75A.75.75 0 0 1 .796 3zm2.25 17.625a2.25 2.25 0 1 0 0-4.5 2.25 2.25 0 0 0 0 4.5zM.796 15h4.5V6h-4.5v9zm7.5-8.25h3v.75h-3v-.75zm0 3h3v.75h-3v-.75zM7.546 3h4.5c.415 0 .75.335.75.75V21a.75.75 0 0 1-.75.75h-4.5a.75.75 0 0 1-.75-.75V3.75a.75.75 0 0 1 .75-.75zm2.25 17.578a2.25 2.25 0 1 0 0-4.5 2.25 2.25 0 0 0 0 4.5zM7.546 15h4.5V6h-4.5v9zm.75-6.75h3V9h-3v-.75zm11.465 1.925l-2.897.776-.195-.724 2.898-.776.194.724z"/></svg>