<!-- Generated by IcoMoon.io -->
<svg version="1.1" xmlns="http://www.w3.org/2000/svg" width="24" height="24" viewBox="0 0 24 24">
<title>archive</title>
<path d="M14.197 3.901l4.347-1.165c0.4-0.107 0.811 0.131 0.918 0.53l4.465 16.662c0.107 0.401-0.131 0.812-0.531 0.919l-4.346 1.165c-0.4 0.107-0.811-0.131-0.919-0.53l-4.465-16.663c-0.107-0.4 0.13-0.811 0.531-0.919zM18.165 18.707c0.322 1.201 1.555 1.913 2.755 1.591s1.913-1.555 1.591-2.756-1.555-1.913-2.755-1.591c-1.201 0.322-1.913 1.556-1.591 2.756zM17.303 15.493l4.346-1.165-2.329-8.693-4.347 1.165 2.329 8.693zM9.796 17.25c0.622 0 1.125 0.504 1.125 1.125s-0.503 1.125-1.125 1.125c-0.621 0-1.125-0.504-1.125-1.125s0.504-1.125 1.125-1.125zM15.892 7.33l2.899-0.776 0.194 0.724-2.898 0.776-0.194-0.724zM16.475 9.503l-0.195-0.724 2.898-0.776 0.194 0.725-2.897 0.776zM20.059 17.084c0.6-0.161 1.217 0.196 1.378 0.796s-0.195 1.217-0.796 1.378c-0.6 0.161-1.217-0.195-1.378-0.796s0.196-1.216 0.796-1.378zM1.546 6.75h3v0.75h-3v-0.75zM1.546 9.75h3v0.75h-3v-0.75zM1.546 8.25h3v0.75h-3v-0.75zM3.046 17.25c0.622 0 1.125 0.504 1.125 1.125s-0.503 1.125-1.125 1.125c-0.621 0-1.125-0.504-1.125-1.125s0.504-1.125 1.125-1.125zM0.796 3h4.5c0.415 0 0.75 0.335 0.75 0.75v17.25c0 0.414-0.335 0.75-0.75 0.75h-4.5c-0.414 0-0.75-0.336-0.75-0.75v-17.25c0-0.415 0.337-0.75 0.75-0.75zM3.046 20.625c1.243 0 2.25-1.008 2.25-2.25s-1.007-2.25-2.25-2.25c-1.242 0-2.25 1.007-2.25 2.25s1.008 2.25 2.25 2.25zM0.796 15h4.5v-9h-4.5v9zM8.296 6.75h3v0.75h-3v-0.75zM8.296 9.75h3v0.75h-3v-0.75zM7.546 3h4.5c0.415 0 0.75 0.335 0.75 0.75v17.25c0 0.414-0.335 0.75-0.75 0.75h-4.5c-0.414 0-0.75-0.336-0.75-0.75v-17.25c0-0.415 0.337-0.75 0.75-0.75zM9.796 20.578c1.243 0 2.25-1.008 2.25-2.25s-1.007-2.25-2.25-2.25c-1.242 0-2.25 1.007-2.25 2.25s1.008 2.25 2.25 2.25zM7.546 15h4.5v-9h-4.5v9zM8.296 8.25h3v0.75h-3v-0.75zM19.761 10.175l-2.897 0.776-0.195-0.724 2.898-0.776 0.194 0.724z"></path>
</svg>
