<svg xmlns="http://www.w3.org/2000/svg" width="24" height="24"><path fill="#1793d1" d="M11.39.605c-1.015 2.487-1.626 4.113-2.755 6.527.693.735 1.543 1.589 2.923 2.554-1.484-.611-2.496-1.224-3.253-1.86C6.86 10.842 4.595 15.138 0 23.395c3.612-2.085 6.412-3.37 9.021-3.861a6.573 6.573 0 0 1-.171-1.547l.003-.116c.058-2.314 1.261-4.094 2.687-3.973 1.426.12 2.534 2.096 2.478 4.409-.01.436-.06.855-.146 1.243 2.581.505 5.352 1.787 8.914 3.844-.702-1.293-1.329-2.459-1.929-3.569-.944-.731-1.927-1.683-3.933-2.713 1.379.359 2.367.771 3.136 1.234C13.97 7.012 13.478 5.505 11.39.606zM22.898 21.36v-.624h-.234v-.084h.561v.084h-.234v.624h-.094zm.425 0v-.708h.142l.167.501a2.6 2.6 0 0 1 .034.106c.008-.025.02-.064.039-.114l.169-.493h.127v.708h-.091v-.593l-.206.593h-.084l-.205-.603v.603h-.091z"/></svg>