<svg xmlns="http://www.w3.org/2000/svg" width="24" height="24"><path d="M11.39.605c-1.015 2.487-1.626 4.113-2.755 6.527.693.735 1.543 1.589 2.923 2.554-1.484-.611-2.496-1.224-3.253-1.859-1.445 3.016-3.71 7.312-8.306 15.569 3.612-2.085 6.412-3.37 9.021-3.862a6.452 6.452 0 0 1-.172-1.496v-.054.003l.003-.115c.058-2.314 1.261-4.094 2.687-3.973 1.426.12 2.534 2.096 2.478 4.409a6.53 6.53 0 0 1-.146 1.243c2.581.505 5.352 1.787 8.914 3.844-.702-1.293-1.329-2.459-1.929-3.569-.944-.731-1.927-1.683-3.933-2.713 1.379.359 2.367.771 3.136 1.234-6.09-11.334-6.582-12.841-8.67-17.74zM22.898 21.36v-.624h-.234v-.084h.562v.084h-.234v.624h-.094zm.425 0v-.708h.142l.167.501a2.6 2.6 0 0 1 .034.106c.016-.054.03-.092.044-.129l-.005.015.169-.493h.127v.708h-.091v-.593l-.206.593h-.084l-.205-.603v.603h-.091z"/></svg>