<!-- Generated by IcoMoon.io -->
<svg version="1.1" xmlns="http://www.w3.org/2000/svg" width="24" height="24" viewBox="0 0 24 24">
<title>arrow-right1</title>
<path d="M15.814 3.529c-0.146-0.146-0.341-0.221-0.533-0.221s-0.386 0.075-0.533 0.221c-0.293 0.292-0.293 0.773 0 1.065l6.679 6.679h-20.546c-0.416 0-0.754 0.338-0.754 0.754s0.337 0.754 0.754 0.754h20.543l-6.675 6.675c-0.293 0.293-0.293 0.773 0 1.065s0.773 0.293 1.065 0l7.965-7.965c0.293-0.293 0.293-0.772 0-1.065 0 0-7.965-7.961-7.965-7.961z"></path>
</svg>
