<!-- Generated by IcoMoon.io -->
<svg version="1.1" xmlns="http://www.w3.org/2000/svg" width="24" height="24" viewBox="0 0 24 24">
<title>arrow-circle-top</title>
<path d="M18.394 14.527c0.293-0.293 0.293-0.769 0-1.061l-5.955-5.955c-0.075-0.079-0.18-0.143-0.285-0.18-0.274-0.101-0.581-0.034-0.788 0.176l-5.955 5.955c-0.146 0.146-0.221 0.338-0.221 0.529s0.071 0.383 0.221 0.533c0.292 0.293 0.769 0.293 1.061 0l5.43-5.426 5.43 5.43c0.293 0.293 0.769 0.293 1.061 0zM24 12.008c0-6.619-5.381-12-12-12s-12 5.381-12 12 5.381 12 12 12 12-5.381 12-12zM1.5 12.008c0-5.79 4.71-10.5 10.5-10.5s10.5 4.71 10.5 10.5-4.71 10.5-10.5 10.5-10.5-4.71-10.5-10.5z"></path>
</svg>
