<!-- Generated by IcoMoon.io -->
<svg version="1.1" xmlns="http://www.w3.org/2000/svg" width="24" height="24" viewBox="0 0 24 24">
<title>arrow-circle-bottom</title>
<path d="M5.606 9.488c-0.292 0.293-0.292 0.769 0 1.061l5.955 5.955c0.075 0.079 0.18 0.142 0.281 0.18 0.274 0.101 0.581 0.034 0.787-0.176l5.955-5.955c0.146-0.146 0.221-0.338 0.221-0.529s-0.071-0.383-0.221-0.532c-0.293-0.293-0.769-0.293-1.061 0l-5.426 5.43-5.43-5.434c-0.293-0.293-0.769-0.293-1.061 0zM0 12.008c0 6.619 5.381 12 12 12s12-5.381 12-12-5.381-12-12-12-12 5.385-12 12zM22.5 12.008c0 5.79-4.71 10.5-10.5 10.5s-10.5-4.71-10.5-10.5 4.71-10.5 10.5-10.5 10.5 4.71 10.5 10.5z"></path>
</svg>
