<!-- Generated by IcoMoon.io -->
<svg version="1.1" xmlns="http://www.w3.org/2000/svg" width="24" height="24" viewBox="0 0 24 24">
<title>arrow-top</title>
<path d="M3.566 8.272c-0.146 0.146-0.221 0.341-0.221 0.533s0.075 0.386 0.221 0.532c0.292 0.293 0.772 0.293 1.065 0l6.679-6.675v20.543c0 0.416 0.337 0.754 0.754 0.754s0.754-0.338 0.754-0.754v-20.543l6.679 6.679c0.293 0.293 0.773 0.293 1.065 0s0.292-0.772 0-1.065l-7.965-7.965c-0.293-0.292-0.772-0.292-1.065 0 0 0-7.965 7.961-7.965 7.961z"></path>
</svg>
