<!-- Generated by IcoMoon.io -->
<svg version="1.1" xmlns="http://www.w3.org/2000/svg" width="24" height="24" viewBox="0 0 24 24">
<title>arrow-left1</title>
<path d="M8.314 20.524c0.146 0.146 0.341 0.221 0.533 0.221s0.386-0.075 0.533-0.221c0.293-0.293 0.293-0.773 0-1.065l-6.675-6.679h20.543c0.416 0 0.754-0.338 0.754-0.754s-0.338-0.754-0.754-0.754h-20.543l6.679-6.679c0.293-0.293 0.293-0.773 0-1.065s-0.772-0.292-1.065 0l-7.969 7.965c-0.292 0.293-0.292 0.772 0 1.065 0 0 7.965 7.965 7.965 7.965z"></path>
</svg>
