<!-- Generated by IcoMoon.io -->
<svg version="1.1" xmlns="http://www.w3.org/2000/svg" width="24" height="24" viewBox="0 0 24 24">
<title>arrow-bottom</title>
<path d="M20.561 15.776c0.146-0.146 0.221-0.341 0.221-0.533s-0.075-0.386-0.221-0.532c-0.293-0.293-0.773-0.293-1.065 0l-6.679 6.675v-20.543c0-0.416-0.338-0.754-0.754-0.754s-0.754 0.337-0.754 0.754v20.543l-6.679-6.675c-0.293-0.293-0.773-0.293-1.065 0s-0.292 0.773 0 1.065l7.965 7.965c0.293 0.293 0.772 0.293 1.065 0 0 0 7.965-7.965 7.965-7.965z"></path>
</svg>
