<!-- Generated by IcoMoon.io -->
<svg version="1.1" xmlns="http://www.w3.org/2000/svg" width="24" height="24" viewBox="0 0 24 24">
<title>arrow-circle-left</title>
<path d="M14.52 5.614c-0.293-0.292-0.769-0.292-1.061 0l-5.955 5.955c-0.079 0.075-0.142 0.18-0.18 0.281-0.101 0.274-0.034 0.581 0.176 0.787l5.955 5.955c0.146 0.146 0.337 0.221 0.529 0.221s0.383-0.071 0.533-0.221c0.293-0.293 0.293-0.769 0-1.061l-5.426-5.426 5.43-5.43c0.293-0.293 0.293-0.769 0-1.061zM12 0.007c-6.619 0-12 5.381-12 12s5.381 12 12 12 12-5.381 12-12-5.381-12-12-12zM12 22.508c-5.79 0-10.5-4.71-10.5-10.5s4.71-10.5 10.5-10.5 10.5 4.71 10.5 10.5-4.71 10.5-10.5 10.5z"></path>
</svg>
