<!-- Generated by IcoMoon.io -->
<svg version="1.1" xmlns="http://www.w3.org/2000/svg" width="24" height="24" viewBox="0 0 24 24">
<title>arrow-circle-right</title>
<path d="M9.48 18.401c0.293 0.293 0.769 0.293 1.061 0l5.955-5.955c0.079-0.075 0.143-0.18 0.18-0.281 0.101-0.274 0.034-0.581-0.176-0.788l-5.955-5.959c-0.146-0.146-0.337-0.221-0.529-0.221s-0.383 0.071-0.532 0.221c-0.293 0.292-0.293 0.769 0 1.061l5.426 5.43-5.43 5.43c-0.293 0.293-0.293 0.769 0 1.061zM12 24.008c6.619 0 12-5.381 12-12s-5.381-12-12-12-12 5.381-12 12 5.381 12 12 12zM12 1.507c5.79 0 10.5 4.71 10.5 10.5s-4.71 10.5-10.5 10.5-10.5-4.71-10.5-10.5 4.71-10.5 10.5-10.5z"></path>
</svg>
