<svg xmlns="http://www.w3.org/2000/svg" width="24" height="24"><path fill="#b31b1b" d="M20.7 15.404l-1.894-4.967h1.411l1.39 3.582 1.379-3.582h.96l-1.92 4.967zM16.298 9.6V8.48h1.34V9.6zm0 5.808v-4.971h1.34v4.967zm-6.965-.003l2.146-3.3L9.43 8.707h1.627l1.364 2.254L13.9 8.707h1.12l-2.046 3.156L15.1 15.4h-1.622l-1.45-2.4-1.557 2.4zm-3.346 0v-4.968h1.338v.937c.344-.7.875-1.051 1.585-1.051.089.001.174.011.257.028l-.009-.002v1.194a1.564 1.564 0 0 0-.528-.102h-.002c-.537 0-.968.267-1.303.8v3.164zm-3.028-.536q-.664.65-1.437.65l-.052.001a1.47 1.47 0 0 1-1.009-.4l.001.001a1.373 1.373 0 0 1-.407-.977l.001-.056v.003l-.001-.055c0-.507.26-.953.655-1.213l.005-.003q.657-.447 1.884-.448h.355v-.453q0-.772-.88-.772a3.293 3.293 0 0 0-1.603.451l.016-.008v-.922a4.931 4.931 0 0 1 1.807-.345h.001q1.953 0 1.951 1.55v2.206c0 .39.123.58.376.58a.805.805 0 0 0 .179-.021l-.005.001.032.751c-.223.074-.48.121-.747.13h-.004c-.552 0-.902-.216-1.06-.65zm0-.72v-1.01h-.32c-.866 0-1.297.274-1.297.815v.008c0 .353.287.64.64.64.329.004.647-.15.977-.453z"/></svg>