<svg xmlns="http://www.w3.org/2000/svg" width="24" height="24"><path fill="#e40046" d="M18.07 0H5.93A5.94 5.94 0 0 0 0 5.929V18.07A5.94 5.94 0 0 0 5.929 24H18.07A5.94 5.94 0 0 0 24 18.071V5.93A5.94 5.94 0 0 0 18.071 0h-.001zm-7.36 15.4h-1.9L7.2 19.28a.502.502 0 0 1-.663.269l.003.001a.512.512 0 0 1-.269-.674l-.001.003 1.45-3.48H4.85a.5.5 0 0 1-.5-.5v-.011.001a.52.52 0 0 1 .52-.5h5.86a.5.5 0 0 1 .49.5v.021-.001a.49.49 0 0 1-.49.49h-.021.001zm7.92 4.17a.51.51 0 0 1-.659-.286l-.001-.003-5.35-13-2.39 5.72h1.57a.5.5 0 0 1 .49.5v.021-.001a.49.49 0 0 1-.49.49h-.021.001-5.86a.5.5 0 0 1-.5-.5V12.5v.001a.52.52 0 0 1 .52-.5h3.2l3-7.27a.49.49 0 0 1 .45-.31h.004a.52.52 0 0 1 .474.307l.001.003 5.84 14.17a.51.51 0 0 1-.276.669l-.003.001z"/></svg>