<svg xmlns="http://www.w3.org/2000/svg" width="24" height="24"><path d="M19.31 23.957h-3.6a1.162 1.162 0 0 1-.137.008h-.002a1.26 1.26 0 0 1-1.17-.791l-.003-.008c-1.332-2.665-2.78-5.288-3.987-8.046-.894-1.881-1.415-4.088-1.415-6.416 0-2.983.857-5.767 2.337-8.117l-.037.063c.166-.281.52-.625.791-.625s.593.375.74.666q5.444 10.89 10.898 21.788c.542 1.041.292 1.468-.905 1.479zm-14.573 0H1.04c-1.041 0-1.27-.417-.812-1.333q2.8-5.538 5.549-11.055c.5-1.041.895-1.041 1.592-.177a12.16 12.16 0 0 1 2.941 7.952c0 1.145-.157 2.253-.452 3.304l.021-.086c-.344 1.322-.532 1.405-1.864 1.405z"/></svg>