<svg xmlns="http://www.w3.org/2000/svg" width="24" height="24"><path d="M5.531 22.515c1.226.9 2.43 1.354 3.589 1.354.289 0 .574-.03.859-.086 2.021-.401 3.082-2.119 3.086-2.134l5.97-8.13a.756.756 0 1 0-1.218-.896l-6.008 8.186c-.007.011-.772 1.219-2.126 1.489-.986.199-2.081-.142-3.255-1.005-3.439-2.527-1.646-5.198-1.429-5.497L14.88 2.334a1.979 1.979 0 0 1 1.189-.716c.701-.124 1.504.146 2.411.814.352.244 1.305 1.084 1.459 2.002.075.446-.045.878-.364 1.309l-8.831 12.022c-.004.004-.397.536-.979.634-.367.06-.746-.06-1.163-.367-1.241-.911-.596-2.017-.469-2.209l4.916-6.698a.756.756 0 1 0-1.219-.896l-4.931 6.716c-.686.99-1.039 2.951.806 4.309.754.555 1.53.769 2.31.641 1.2-.199 1.897-1.151 1.961-1.245l8.816-12.004c.566-.772.78-1.601.634-2.464-.296-1.744-2.018-2.94-2.07-2.978C18.122.3 16.93-.06 15.808.131 14.413.375 13.701 1.38 13.64 1.47L3.781 14.899c-.049.064-1.2 1.639-.893 3.697.217 1.474 1.106 2.794 2.64 3.919z"/></svg>