<svg xmlns="http://www.w3.org/2000/svg" width="24" height="24"><path d="M6.704 10.081s-.879-.668-.211-1.336c.67-.668 1.32.194 1.32.194l5.227 5.227s1.577 2.033 2.772.803-.803-2.772-.803-2.772L7.69 4.877S5.632 2.61 3.698 4.543c-1.933 1.934.34 3.997.34 3.997l9.91 9.911s3.171 3.663 6.107.727-.762-6.071-.762-6.071l-7.526-7.526s-.844-.703-.211-1.336 1.336.211 1.336.211l8.633 8.633s3.259 3.575-.381 7.213c-3.64 3.64-7.214.382-7.214.382L2.063 8.817s-2.373-2.62.457-5.451 5.451-.457 5.451-.457l8.707 8.708s2.617 2.126.244 4.499c-2.374 2.374-4.463-.279-4.463-.279l-5.755-5.755z"/></svg>