<!-- Generated by IcoMoon.io -->
<svg version="1.1" xmlns="http://www.w3.org/2000/svg" width="24" height="24" viewBox="0 0 24 24">
<title>attachment1</title>
<path d="M5.531 22.515c1.226 0.9 2.43 1.354 3.589 1.354 0.289 0 0.574-0.030 0.859-0.086 2.021-0.401 3.082-2.119 3.086-2.134l5.97-8.13c0.247-0.337 0.176-0.81-0.161-1.057s-0.81-0.176-1.057 0.161l-6.008 8.186c-0.007 0.011-0.772 1.219-2.126 1.489-0.986 0.199-2.081-0.142-3.255-1.005-3.439-2.527-1.646-5.198-1.429-5.497l9.881-13.462c0.004-0.007 0.424-0.585 1.189-0.716 0.701-0.124 1.504 0.146 2.411 0.814 0.352 0.244 1.305 1.084 1.459 2.002 0.075 0.446-0.045 0.878-0.364 1.309l-8.831 12.022c-0.004 0.004-0.397 0.536-0.979 0.634-0.367 0.060-0.746-0.060-1.163-0.367-1.241-0.911-0.596-2.017-0.469-2.209l4.916-6.698c0.247-0.337 0.176-0.81-0.161-1.057s-0.81-0.176-1.058 0.161l-4.931 6.716c-0.686 0.99-1.039 2.951 0.806 4.309 0.754 0.555 1.53 0.769 2.31 0.641 1.2-0.199 1.897-1.151 1.961-1.245l8.816-12.004c0.566-0.772 0.78-1.601 0.634-2.464-0.296-1.744-2.018-2.94-2.070-2.978-1.234-0.904-2.426-1.264-3.548-1.073-1.395 0.244-2.107 1.249-2.168 1.339l-9.859 13.429c-0.049 0.064-1.2 1.639-0.893 3.697 0.217 1.474 1.106 2.794 2.64 3.919z"></path>
</svg>
