<!-- Generated by IcoMoon.io -->
<svg version="1.1" xmlns="http://www.w3.org/2000/svg" width="24" height="24" viewBox="0 0 24 24">
<title>attachment11</title>
<path d="M6.704 10.081s-0.879-0.668-0.211-1.336c0.67-0.668 1.32 0.194 1.32 0.194l5.227 5.227s1.577 2.033 2.772 0.803-0.803-2.772-0.803-2.772l-7.319-7.32s-2.058-2.267-3.992-0.334c-1.933 1.934 0.34 3.997 0.34 3.997l9.91 9.911s3.171 3.663 6.107 0.727-0.762-6.071-0.762-6.071l-7.526-7.526s-0.844-0.703-0.211-1.336 1.336 0.211 1.336 0.211l8.633 8.633s3.259 3.575-0.381 7.213c-3.64 3.64-7.214 0.382-7.214 0.382l-11.867-11.867s-2.373-2.62 0.457-5.451 5.451-0.457 5.451-0.457l8.707 8.708s2.617 2.126 0.244 4.499c-2.374 2.374-4.463-0.279-4.463-0.279l-5.755-5.755z"></path>
</svg>
