<svg xmlns="http://www.w3.org/2000/svg" width="24" height="24"><path fill="#f8991c" d="M12.008 17.362L24 9.885v2.028l-11.992 7.509L0 11.912V9.886zm0-9.378c-2.709 0-5.085 1.363-6.448 3.47.111-.111.175-.175.286-.254 3.374-2.804 8.237-2.17 10.883 1.362l1.758-1.124c-1.394-2.044-3.786-3.454-6.48-3.454zm-.001 3.47a4.386 4.386 0 0 0-3.539 1.808l-.009.013a3.573 3.573 0 0 1 2.128-.697h.012-.001c1.299 0 2.455.666 3.232 1.79l1.679-1.045c-.729-1.157-2.028-1.87-3.501-1.87zm-8.11-3.042c4.943-3.897 11.929-2.836 15.652 2.344l.031.032 1.822-1.125c-2.032-3.08-5.477-5.085-9.391-5.085h-.003c-3.897 0-7.366 1.996-9.394 5.085.364-.412.824-.903 1.283-1.251z"/></svg>