<svg height="24" width="24" xmlns="http://www.w3.org/2000/svg"><path d="m23.016.984-2.531 1.406-2.484-1.406 1.406 2.531-1.406 2.484 2.484-1.406 2.531 1.406-1.406-2.484zm-8.344 6.235 2.109 2.109-2.438 2.438.797.844 2.578-2.578q.281-.281.281-.703t-.281-.703l-2.344-2.344q-.328-.281-.727-.281t-.68.281l-2.578 2.578.797.797 2.484-2.438zm-.797 6.656-10.594-10.594-1.266 1.266 6.844 6.844-6.563 6.563q-.281.281-.281.703t.281.703l2.344 2.344q.281.281.703.281t.703-.281l6.563-6.563 6.844 6.844 1.266-1.266z"/></svg>