<svg height="24" width="24" xmlns="http://www.w3.org/2000/svg"><path d="m12 6.768v.002-1.237c-.485.033-.754.293-.99.71l-5.14 10.477h2.464l-.753-.96.654-1.363.005.007 3.76-7.63zm-1.474 6.355h2.946l-1.472-3.047zm-2.293 1.293h.017l-.01-.013zm5.24-1.293v.002zm8.023-8.057-8.236-4.758c-.693-.4-1.827-.4-2.52 0l-8.236 4.758c-.693.398-1.26 1.38-1.26 2.182v9.507c0 .802.567 1.782 1.26 2.18l8.236 4.757c.693.4 1.826.4 2.52 0l8.235-4.768c.692-.39 1.26-1.38 1.26-2.174v-9.504c0-.8-.567-1.78-1.26-2.18zm-6.066 12.05-.687-1.384h-5.5l-.673 1.384h-3.283l5.396-11.033c.305-.607.777-.9 1.317-.9s1.034.328 1.316.89l5.396 11.043zm-3.43-10.346v2.474l2.518 5.173h-6.268l.758.94h5.972l.674 1.35h2.474l-1.708-.99v.04z"/></svg>