<svg height="24" width="24" xmlns="http://www.w3.org/2000/svg"><path d="m7.5 5.578 2.484 1.406-1.406-2.484 1.406-2.484-2.484 1.406-2.484-1.406 1.406 2.484-1.406 2.484zm12 9.844-2.484-1.406 1.406 2.484-1.406 2.484 2.484-1.406 2.484 1.406-1.406-2.484 1.406-2.484zm2.484-13.406-2.484 1.406-2.484-1.406 1.406 2.484-1.406 2.484 2.484-1.406 2.484 1.406-1.406-2.484zm-7.593 5.297q-.328-.328-.727-.328t-.727.328l-11.625 11.625q-.328.328-.328.727t.328.727l2.297 2.297q.328.328.727.328t.727-.328l11.625-11.625q.328-.328.328-.727t-.328-.68zm-1.032 5.484-2.156-2.156 2.438-2.438 2.156 2.156z"/></svg>