<svg xmlns="http://www.w3.org/2000/svg" width="24" height="24"><path d="M6.763 10.036c0 .296.032.535.088.71.064.176.144.368.256.576.04.063.056.127.056.183 0 .08-.048.16-.152.24l-.503.335a.376.376 0 0 1-.206.072H6.3c-.08 0-.16-.04-.239-.112a2.454 2.454 0 0 1-.275-.355l-.006-.01-.006-.01a5.623 5.623 0 0 1-.232-.434l-.016-.037c-.622.734-1.405 1.101-2.347 1.101-.67 0-1.205-.191-1.596-.574s-.59-.894-.59-1.533c0-.678.239-1.23.726-1.644.487-.415 1.133-.623 1.955-.623.272 0 .551.024.846.064s.6.104.918.176v-.583c0-.607-.127-1.03-.375-1.277-.255-.248-.686-.367-1.3-.367-.28 0-.568.031-.863.103s-.583.16-.862.272a2.19 2.19 0 0 1-.264.1l-.016.004a.455.455 0 0 1-.126.023h-.001c-.112 0-.168-.08-.168-.247v-.391c0-.128.016-.224.056-.28a.609.609 0 0 1 .216-.164l.004-.002.004-.001a4.577 4.577 0 0 1 1.005-.36c.36-.096.774-.151 1.2-.151h.048-.002c.95 0 1.644.216 2.091.647.439.43.662 1.085.662 1.963v2.586zm-3.24 1.214c.263 0 .534-.048.822-.144a1.78 1.78 0 0 0 .758-.51 1.27 1.27 0 0 0 .272-.512c.047-.191.08-.423.08-.694v-.335a6.034 6.034 0 0 0-.701-.132l-.034-.004a5.792 5.792 0 0 0-.75-.048c-.535 0-.926.104-1.19.32-.263.215-.39.518-.39.917 0 .375.095.655.295.846.191.2.47.296.838.296zm6.41.862c-.144 0-.24-.024-.304-.08-.064-.048-.12-.16-.168-.311L7.586 5.55a1.339 1.339 0 0 1-.071-.314l-.001-.006c0-.128.064-.2.191-.2h.783c.151 0 .255.025.31.08.065.048.113.16.16.312l1.342 5.284 1.245-5.284c.04-.16.088-.264.151-.312a.543.543 0 0 1 .287-.081l.035.001h-.002.638c.152 0 .256.025.32.08.063.048.12.16.151.312l1.261 5.348 1.381-5.348c.048-.16.104-.264.16-.312a.513.513 0 0 1 .313-.08h-.002.743c.127 0 .2.065.2.2 0 .04-.009.08-.017.128a1.149 1.149 0 0 1-.059.208l.003-.008-1.923 6.17c-.048.16-.104.263-.168.311a.502.502 0 0 1-.275.081l-.029-.001h.001-.687c-.151 0-.255-.024-.32-.08-.063-.056-.119-.16-.15-.32l-1.238-5.148-1.23 5.14c-.04.16-.087.264-.15.32-.065.056-.177.08-.32.08zm10.256.215c-.415 0-.83-.048-1.229-.143-.399-.096-.71-.2-.918-.32-.128-.071-.215-.151-.247-.223a.56.56 0 0 1-.048-.224v-.407c0-.167.064-.247.183-.247.048 0 .096.008.144.024s.12.048.2.08c.271.12.566.215.878.279.319.064.63.096.95.096.502 0 .894-.088 1.165-.264a.859.859 0 0 0 .415-.736v-.023V10.198a.772.772 0 0 0-.216-.537c-.144-.151-.416-.287-.807-.415l-1.157-.36c-.583-.183-1.014-.454-1.277-.813a1.885 1.885 0 0 1-.4-1.158c0-.335.073-.63.216-.886.144-.255.335-.479.575-.654.24-.184.51-.32.83-.415s.655-.136 1.006-.136c.175 0 .359.008.535.032.183.024.35.056.518.088.16.04.312.08.455.127.144.048.256.096.336.144a.711.711 0 0 1 .239.198l.001.002a.426.426 0 0 1 .072.238l-.001.026v-.001.375c0 .168-.064.256-.184.256a.82.82 0 0 1-.307-.098l.004.002a3.591 3.591 0 0 0-1.476-.311h-.059.003c-.455 0-.815.071-1.062.223s-.375.383-.375.71c0 .224.08.416.24.567.159.152.454.304.877.44l1.134.358c.574.184.99.44 1.237.767s.367.702.367 1.117c0 .343-.072.655-.207.926a2.157 2.157 0 0 1-.583.703c-.248.2-.543.343-.886.447-.36.111-.734.167-1.142.167zm1.509 3.88c-2.626 1.94-6.442 2.969-9.722 2.969-4.598 0-8.74-1.7-11.87-4.526-.247-.223-.024-.527.272-.351 3.384 1.963 7.559 3.153 11.877 3.153 2.914 0 6.114-.607 9.06-1.852.439-.2.814.287.383.607zm1.094-1.246c-.336-.43-2.22-.207-3.074-.103-.255.032-.295-.192-.063-.36 1.5-1.053 3.967-.75 4.254-.399.287.36-.08 2.826-1.485 4.007-.215.184-.423.088-.327-.151.32-.79 1.03-2.57.695-2.994z"/></svg>