<svg height="24" width="24" xmlns="http://www.w3.org/2000/svg"><path d="m16.434 8.072-.005-.051-.084.007.005.052zm.562 1.352.002.028.058-.005a.206.206 0 0 1 .019-.083l-.001.001-.005-.051c-.025.002-.05.039-.073.11zm-2.193 1.702c-.004-.048-.153-.235-.448-.564-.005-.06.096-.15.304-.27l.594-.518c.133-.169.211-.442.235-.823l-.007-.087c-.024-.263-.214-.475-.575-.637-.213-.144-.597-.224-1.152-.238-.46.039-1.058.203-1.797.492a7.426 7.426 0 0 1 -.656.419l-.037.019.004.044a.164.164 0 0 0 .07-.03c.03-.003.047.01.05.04l.044-.024.02-.002.003.02c.002.023-.158.15-.482.375l.025.046-.021.002-.054-.02c.002.017-.021.027-.066.03l.002.02.052.064a.193.193 0 0 1 -.076-.018h.001a.362.362 0 0 0 -.22.12l.03-.131c.109-.468.183-.882.222-1.241l-.005-.023a.92.92 0 0 1 -.213-.199l-.002-.002.002-.048-.002-.05v.002l-.005-.02-.021.006c-.235.352-.687.953-1.357 1.803-.51.605-.774.941-.79 1.009-.208.215-.307.345-.297.39-.055.035-.078.07-.07.11-.015.003-.026-.002-.03-.018a.603.603 0 0 1 -.392.276l-.004.001-.185.043c-.025.005-.037.023-.035.053l.005.023.069-.016.005.02-.157.06-.277.064-.146.01c-.021.02.116-.003.062.01l-.181.043c-.11.025-.17.016-.181-.029l-.022.005a.11.11 0 0 1 .002.047l-.01-.045-.146.034c-.01-.068-.208-.313-.59-.736-.008-.082.127-.201.403-.356l.779-.685c.174-.224.277-.583.311-1.077l-.01-.116c-.03-.349-.283-.63-.758-.846-.281-.19-.786-.292-1.515-.308-.605.051-1.395.267-2.366.642a8.9 8.9 0 0 1 -.866.553l-.046.023.005.06a.235.235 0 0 0 .091-.036l-.001.001c.04-.004.061.014.065.05l.06-.034.03-.002.002.029c.002.028-.21.193-.638.496l.034.053-.03.002-.066-.023c.002.018-.029.03-.09.035l.003.032.071.079a.264.264 0 0 1 -.098-.021l.002.001c-.139.013-.274.112-.407.3l.034.054c.115-.107.183-.16.202-.162l.007.087a.295.295 0 0 0 -.091.037l.001-.001.073.11c.136-.147.288-.276.455-.384l.009-.006c.083.022.128.049.13.077l.064-.005c.458-.34.912-.585 1.362-.736l.005.06c-.084.125-.14.189-.17.192.003.043.017.08.044.112.007.077-.198.592-.612 1.546-.94 2.216-1.73 3.855-2.373 4.915.002.022.015.05.038.086.158-.038.258-.077.3-.114l.034-.004.005.06.059-.005.06-.033c.002.017.022.026.063.023l.005.06c.005.059-.029.148-.1.27-.064.073-.133.226-.206.46l.002.028.059-.006c.256-.286.45-.567.583-.84.747-.22 1.316-.435 1.71-.646.397-.034.7-.139.906-.312l-.004-.032-.15.045-.033.004-.004-.033c.291-.044.492-.108.604-.197.568-.437.996-.747 1.286-.93.596-.438.984-.864 1.16-1.279l.1-.023a1.06 1.06 0 0 0 .142-.009c-.004-.016.004-.025.02-.028.133-.014.069.009.154-.01l.224-.052c-.014.003-.02.01-.016.024l.034-.02c-.007 0-.013-.003-.018-.004l.037-.01-.017.011a.228.228 0 0 0 .082-.005h-.002l.016.066-1.019 1.62-.226.283-.11.37.021-.006.11-.046-.035.144.01.043.031.037c-.014.004-.02.013-.016.029l.005.023.046-.01c.068-.06.096-.113.086-.161a.4.4 0 0 0 .147.01h-.002l.005.024c-.044.01-.067.046-.07.107l.004.023.025-.006c.37-.403 1.277-1.785 2.005-2.722-.024-.102.355-.242 1.138-.424l.025-.005c.028.123-.032.42-.182.891-.096.285-.142.441-.135.466-.124.379-.183.583-.176.615l-.277.91c-.18.465-.317.954-.413 1.47l.023-.001c.019 0 .038.003.056.009h-.001l.039-.034c.004.016.014.021.03.018l-.016-.066.12-.003c.036-.01.067-.054.091-.136-.005-.122.02-.188.075-.202.075-.292.121-.438.137-.443.07-.29.121-.456.155-.496.105-.377.181-.571.231-.584l.01.047-.076.197c-.133.592-.268 1.06-.405 1.403l.039.17.025-.004c.33-.712.807-2.12 1.428-4.226a.554.554 0 0 1 .263-.429l.002-.001-.036-.038-.005-.02a.242.242 0 0 0 .15-.083c-.004-.016-.066-.039-.187-.071l.31-1.327a.467.467 0 0 1 .116-.091l.002-.001.005.067a.16.16 0 0 0 -.069.03l.059.084c.106-.115.222-.215.348-.299.064.018.096.04.1.06l.046-.003a3.745 3.745 0 0 1 1.011-.547l.026-.008.004.045c-.062.094-.105.142-.128.144a.191.191 0 0 0 .029.086v-.001c.005.059-.147.45-.46 1.176-.715 1.68-1.314 2.924-1.802 3.731a.17.17 0 0 0 .032.066c.12-.029.196-.059.226-.087l.021-.002.004.044.05-.003.045-.023c.002.012.017.017.048.016l.004.048c.004.042-.022.11-.077.202-.051.055-.105.171-.162.347l.002.023.047-.003c.171-.185.318-.396.435-.624l.007-.016c.568-.168 1-.33 1.299-.49.304-.026.533-.105.69-.236l-.002-.023-.116.033-.025.002-.002-.023c.22-.032.375-.082.459-.147.43-.331.756-.568.976-.706.687-.5 1.007-.98.968-1.441zm-.118.03.016.18c-.02.044-.044.067-.065.07l-.027-.307c.05.018.075.036.076.057zm-13.465-1.446-.03.001-.005-.055.123-.01.002.028a.236.236 0 0 0 -.091.037zm-.6 5.995a.369.369 0 0 0 -.171-.04l-.02.001h.001l-.006-.087c-.004-.033.016-.056.058-.065.04-.004.062.025.066.081.103-.126.16-.19.17-.192l.067.027c-.022.178-.077.269-.165.276zm6.405-6.7c-.03.004-.09-.09-.178-.277l-.005-.055c.057-.006.116.087.178.277zm-.085-.663-.025.059-.87-.363c.58.02.879.12.895.304zm-3.673 3.153-.123.01-.005-.054.123-.011zm-.1-1.894.03-.002.008.087c-.029.002-.066.045-.112.127l-.005-.06c.055-.067.083-.116.079-.152zm-.257.608.01.116-.03.002-.01-.116zm-.136.217.06-.005c-.006.096-.033.148-.08.151l-.031.002c.037-.064.055-.114.051-.148zm-.1.303.033-.004.002.028-.055.093-.059.005-.002-.028c.059-.006.086-.036.081-.094zm-.1.272-.018.146-.03.001-.013-.144zm-.998 2.836c-.04.2-.082.3-.126.304l-.002-.028c-.011-.098.032-.19.128-.276zm-.183.397.002.028c.004.04-.015.063-.054.064l-.002-.028c-.004-.034.015-.055.054-.064zm-.054.823.093-.009.004.032a.241.241 0 0 0 -.092.037l.001-.001-.059.005c-.004-.03.016-.053.053-.064zm2.632-.812c-.519.256-.825.43-.916.52-.562.196-.84.317-.835.365-.5.198-.83.343-.987.434a.351.351 0 0 1 -.164-.043l.002.001c-.01-.102.037-.184.135-.25a.52.52 0 0 1 .254.041l-.003-.001c.138-.064.3-.119.468-.156l.016-.003-.005-.06-.185.016c.023-.032.201-.116.536-.25l.092-.01.002.029c-.158.014-.245.06-.265.144.004.037.025.053.064.05.12-.075.178-.12.176-.132.226-.043.85-.37 1.873-.98l.005.055c.002.027-.085.102-.262.23zm-1.568.515a.606.606 0 0 0 .384-.178c.043-.003.066.013.067.05-.072.007-.213.068-.417.185l-.03.002zm2.53-1.943-.784.62c-.583.383-.896.575-.94.578-.929.51-1.507.776-1.731.795l-.034.004c.029-.105.441-.95 1.241-2.54.353-.03.907-.194 1.663-.493l.185-.016c.383-.033.669.041.857.22l.011.115c-.142.409-.299.647-.468.717zm-1.533-.864.127-.01.002.028-.127.01zm1.774-.3.092-.01c.085.041.13.077.133.109l.002.028c-.081.008-.158-.035-.227-.127zm.25-1.429c-.082.098-.306.265-.672.5-.12.01-.57.185-1.35.526a.248.248 0 0 0 -.1-.021l-.025.001h.001l-.005-.056c-.01-.112.04-.253.15-.423.061-.32.127-.504.2-.548l.65-1.46c-.008-.09.13-.16.415-.208l.093-.01.007.084c.28-.042.453-.067.52-.072.517-.045.785.06.807.31l.058-.004-.012-.148.064-.005c.15.083.233.185.243.304.007.082-.037.183-.131.304-.04.003-.062-.025-.066-.082l-.064.005-.014.178c-.262.391-.452.592-.57.603-.106.148-.172.22-.199.222zm.399 1.023c-.054-.036-.096-.052-.128-.05l-.007-.087.058-.005.13.076c.005.041-.012.062-.053.066zm.412.489c.057.023.091.048.098.071l-.028.007.002.002a.08.08 0 0 0 -.018.004l-.043.033zm.04.245-.006-.023.075-.017.005.023zm.179.201c.076-.012.114-.017.256-.05l.005.024-.27.062.009-.034zm.263.112c-.114.011-.089-.003-.27.038l-.005-.023.226-.073.108-.025.01.043c-.047.01-.012.01-.069.04zm.24-.056c-.026.007-.048-.006-.06-.036l.07-.016c.03-.007.049.005.056.036zm.651-.701-.005-.023.112-.027.01.043zm.696 4.264a.172.172 0 0 0 .007-.047l-.002-.024v.001l.024-.006c.03-.007.048.004.056.032l.005.023zm.487-4.081-.05-.009a1.28 1.28 0 0 1 -.193.066l-.01.002-.046.01c-.027.007-.048-.003-.059-.032l.326-.074.107-.05.035.04a.24.24 0 0 0 -.111.047zm.25-.08-.004-.023a.138.138 0 0 0 .06-.04l.231-.053.005.023c-.122.03-.22.06-.292.093zm.036-.468a.183.183 0 0 0 -.064.04c-.004-.017-.035-.017-.096-.002-.01-.045.16-.107.514-.189l.05-.01.01.042c-.248.073-.387.114-.414.119zm.623-.672c-.025.283-.125.443-.3.484l-.006-.023-.156.06-.07.016a.189.189 0 0 1 -.098-.002h.001l-.014-.062c-.005-.023.22-.336.68-.937l.053.009c.02.081-.011.233-.091.455zm1.1-.943-.02.002-.005-.044.093-.01.002.024a.31.31 0 0 0 -.072.029zm-.453 4.555a.283.283 0 0 0 -.132-.032h-.011.001l-.005-.068c-.002-.023.012-.039.042-.048.03-.003.048.018.052.064a.784.784 0 0 1 .127-.146l.001-.001.048.02c-.018.135-.059.206-.123.211zm4.862-5.086c-.023.001-.067-.07-.137-.214l-.004-.044c.045-.004.091.066.137.208zm-.064-.509-.021.046-.658-.275c.44.014.667.09.679.229zm-2.79 2.396-.093.008-.004-.044.093-.007zm-.077-1.44.025-.001.005.068c-.023.001-.051.033-.085.096l-.004-.045c.04-.051.06-.09.059-.118zm-.193.463.007.087-.025.002-.007-.087zm-.105.166.046-.004c-.005.075-.025.114-.059.117l-.025.002a.245.245 0 0 0 .038-.114zm-.075.227.021-.002.002.024-.04.07-.047.004-.002-.023c.048-.003.07-.028.066-.073zm-.075.207-.016.113-.021.002-.01-.112zm-.76 2.157c-.03.15-.061.226-.095.23l-.002-.02c-.005-.075.027-.146.097-.21zm-.14.3.002.02c.004.032-.01.05-.042.051l-.002-.023c-.002-.023.012-.039.042-.048zm-.039.626.071-.005.002.023a.192.192 0 0 0 -.071.028l.001-.001-.045.003c-.002-.024.012-.04.042-.048zm1.997-.617c-.39.194-.624.326-.697.393-.427.15-.638.242-.635.28-.378.15-.627.26-.745.328a.261.261 0 0 1 -.124-.034l.001.001c-.007-.077.029-.139.104-.185a.4.4 0 0 1 .193.029l-.003-.001c.071-.035.194-.074.368-.119l-.004-.044-.146.01c.018-.025.155-.089.41-.192l.07-.005.002.02c-.12.01-.188.046-.202.11.002.028.02.042.05.039.088-.059.131-.093.131-.103.17-.03.644-.28 1.421-.745l.004.044c.002.02-.064.076-.198.174zm-1.191.391a.475.475 0 0 0 .295-.133c.03-.003.048.01.05.04-.053.005-.158.049-.317.134l-.025.002zm1.924-1.477-.592.476c-.443.29-.683.436-.72.44-.705.387-1.142.588-1.315.602l-.025.002c.022-.08.337-.722.945-1.928.265-.023.685-.149 1.26-.377l.145-.012c.29-.025.507.032.649.169l.007.087c-.109.306-.226.486-.354.541zm-1.163-.655.093-.009.002.023zm1.346-.23.071-.005c.066.032.1.06.102.084l.002.02c-.062.005-.121-.027-.175-.099zm.187-1.082c-.062.074-.231.202-.507.38-.092.01-.434.14-1.024.397a.216.216 0 0 0 -.078-.014l-.016.001h.001l-.004-.044c-.007-.085.03-.192.112-.322.046-.245.097-.382.15-.414l.497-1.11c-.005-.066.1-.12.313-.16l.071-.005.005.067c.21-.034.341-.053.395-.059.391-.033.596.045.612.237l.046-.004-.01-.106.047-.004c.114.062.174.137.181.226.005.064-.026.142-.094.233-.03.004-.048-.018-.051-.064l-.047.003-.014.134c-.197.3-.341.455-.432.462-.08.109-.13.164-.152.166zm.208.74-.005-.068.046-.004.1.06c.002.03-.013.045-.043.049-.042-.027-.074-.04-.098-.037zm-8.278 4.32-.047.01-.039.034c.007.028.025.039.055.032s.043-.025.031-.076zm-.177-.351.005.023c.03-.007.043-.025.036-.053l-.005-.023c-.028.007-.04.025-.036.053zm1.252-2.979.054-.012-.01-.047-.054.013zm16.138 1.355c-.54.121-.608.1-.722.109l.004.044.05-.003.026-.002-.007-.006.06-.023c.534-.058.597-.037.589-.119zm-2.911.386.004.045h.007zm-.335-1.172-.048-.016a.79.79 0 0 0 -.056.18l-.001.005.002.02c.038-.002.072-.066.103-.189zm3.356.777.004.045.078.014-.004-.044zm-3.68.45-.12-.014-.022.046.002.023.72-.06-.003-.044zm-.327-1.577-.002-.023-.024.002-.045.028.025.043c.034-.004.05-.02.046-.05zm4.349.8.034-.003c.02-.002.028-.018.026-.047l-.02-.042h-.004a.567.567 0 0 0 -.278.072l.003-.002-.002-.022-.147.014c-.004-.045-.016-.068-.036-.066l-.076.007c-.09.007-.132.004-.176.038-.002-.017-.007-.024-.016-.024l-.086.007-.05.029c-.002-.016-.007-.023-.016-.023l-.03.026-.002-.023-.119-.009-.028.002.004.045.06.016.057-.004c.02.013.04.016.066.014l.05-.025.002.02c-.28.07-.278.057-.47.089-.021-.014-.037-.021-.048-.02l-.004.004c-.021-.002-.034-.016-.036-.04l.1-.012c.007 0 .012.008.068.018.08-.039.083-.055.126-.058l-.004-.045c-.274.053-.164.018-.507.048l-.016.002-.004-.045c.441-.053.294-.023.445-.065.002.016.007.023.016.023a.102.102 0 0 1 .059-.03h.001l.03-.002c.155-.013.207.017.513-.068l.002.02.05-.025.046-.004c-.004-.044.064-.051.087-.053l-.004-.048c-.537.108-.678.078-.827.12l-.002-.019c-.14.025-.146.014-.182.016a.097.097 0 0 0 -.044.029c-.002-.016-.007-.023-.018-.023l-.009.001-.455.075c-.002-.012-.007-.02-.018-.018-.237.05-.173.059-.49.087a.138.138 0 0 0 -.058.025c-.002-.012-.009-.02-.025-.018l-.194.016-.13.033c-.001-.013-.008-.02-.024-.018a.95.95 0 0 1 -.189.035h-.004c-.032.004.016-.009-.009-.02l-.039.024c-.057.005-.027-.004-.222-.002-.343.043-.306.048-.343.05l-.129-.009c.002.012-.005.021-.02.021-.145-.02-.22-.042-.221-.07.02-.138.053-.209.1-.212l.026-.002-.022.046.025-.002c.047-.025.068-.048.066-.07l-.004-.047-.046.003-.004-.044-.001-.021c0-.025.006-.048.016-.069v.001l.105-.169.004.045.05-.004-.004-.045-.029-.04c.038-.032.066-.05.09-.052l-.003-.023-.067.005-.005-.067c.135-.281.199-.445.195-.491l.048.02c.03-.003.045-.02.043-.052l-.046.003-.002-.02-.001-.015a.17.17 0 0 1 .019-.078v.001c.073-.077.106-.153.1-.233.013-.002.02.005.022.02.063-.035.11-.129.146-.285.11-.2.267-.598.472-1.194.39-1.053.375-1.165.43-1.414l-.046.004.001.015a.165.165 0 0 1 -.019.076v-.001a.183.183 0 0 0 -.075-.017l-.002-.02c-.007-.09.03-.199.116-.327l.021-.002.04.153.045-.003a1.364 1.364 0 0 1 .036-.184c-.002-.023-.02-.037-.055-.039l-.045.029a2.422 2.422 0 0 1 .004-.257v.007l-.023.003c-.039-.04-.058-.072-.06-.098l-.255.025a.232.232 0 0 0 -.029-.08l.001.001c-.002-.023.055-.046.172-.069l.052.02.048-.029c.002.016.01.023.029.022l.048-.029c.002.016.01.023.028.021l.023-.001-.004-.052c-.035.004-.13.004-.28-.002l-.047.032-.002-.028c-1.193.098-1.871.153-2.033.169a4.55 4.55 0 0 1 -.252-.004c.002.02-.016.03-.052.034l-.052-.023-.174.044c-.04.004-.11.002-.206-.009a.184.184 0 0 1 -.097.038h-.001c-.021.002.254-.014.51-.032a.236.236 0 0 1 -.124.039l-.022.001a.167.167 0 0 1 -.08-.02h.001c-.103.033-.23.064-.36.087l-.017.002-.052-.02-.832.128a.201.201 0 0 0 -.086-.019l-.027.002h.001c-.045.003-.12.02-.223.048l-.402.167.03.05a.226.226 0 0 0 .083-.033l-.001.001.143.012-.018.134c-.132.058-.208.145-.23.256-.197.087-.295.149-.295.186l.002.023.03-.001.054-.029.062.075.009.103c.004.032-.329.731-.994 2.097-.576 1.316-.879 2.036-.907 2.166-.198.055-.311.135-.345.242.004.034.062.057.176.066l.005.051-.052.086.01.103c.004.053.149.094.431.122-.002-.017.007-.028.027-.03.005.064-.012.189-.053.374l.03-.002c.117-.16.173-.27.167-.33l.025-.003c.028-.002.059.03.094.1-.035.014-.16.297-.373.85l.03.05.03-.002c.262-.662.425-1.028.493-1.097.343-.03.937-.091 1.78-.182l.054-.032c.002.018.012.027.032.025l.055-.005.053-.032c.002.018.012.027.032.025l.638-.055c.17-.015.25-.066.242-.153-.002-.023.098-.05.299-.079.031 0 .061.006.089.017l-.002-.001c-.002-.016.1-.032.302-.05.005-.106.04-.163.1-.168l-.005-.052a.852.852 0 0 0 -.202.047l.006-.002a1.182 1.182 0 0 1 -.262-.032l.008.002a.24.24 0 0 1 -.081.031h-.001l-.444.015-.054.028c-.002-.016-.012-.023-.032-.021l-.025.001-.056.029c-.002-.016-.048-.029-.141-.041l-.057.034-.11.009-.002-.029c.573-.062.855-.14.848-.233.038-.003.057.015.06.052l.168-.043-.005-.051-1.371.037c.002.018-.007.028-.027.03l-.167-.014a.212.212 0 0 0 -.108.037h.001l-.062-.023a1.94 1.94 0 0 0 -.386.062 2.559 2.559 0 0 0 -.401.007l.01-.001-.308.026-.142-.016c-.007-.09.169-.537.531-1.337.105-.27.201-.44.294-.503a.198.198 0 0 1 .088.022l-.001-.001.219-.075.112.018c.188-.016.407-.07.658-.162a.294.294 0 0 1 .144.014l-.002-.001.167-.04.498-.042a3.34 3.34 0 0 0 .69-.14l-.005-.052c-.092.009-.14-.007-.144-.045-.005-.069-.073-.097-.203-.087l-.005-.051.137-.04.36-.03-.005-.051h-.038c-.065 0-.129-.002-.193-.006h.009l-.005-.056.139-.012c.037-.004.053-.021.05-.057-.187.005-.281-.004-.283-.028-1.302.064-1.954.076-1.958.035a.23.23 0 0 0 -.083.036h.001l-.034-.054c.345-.732.548-1.102.607-1.108a.294.294 0 0 1 -.046.138l.001-.001.002.023.055-.005c.137-.327.253-.496.349-.503.409-.036-.057-.062.818-.2.036.017.06.024.078.022.343-.07.822-.142 1.435-.217l-.004-.052-.327.03-.004-.05a.184.184 0 0 0 .098-.038l.002.028a.2.2 0 0 0 .075-.035c.057-.006.1 0 .13.016.076-.022.169-.042.264-.054l.009-.001.205-.02c.05-.032.073-.06.071-.087l-.002-.023a.623.623 0 0 1 -.185-.011l.004.001c-.002-.03.013-.049.047-.058l.38-.035.175-.045c.002.02.01.027.024.027a.187.187 0 0 0 .075-.036l.029.004a1.44 1.44 0 0 0 -.077.208l-.05.004a.216.216 0 0 0 -.029-.092l.001.001-.025.002c-.462 1.287-.669 1.887-1.096 2.875-.078.253-.144.393-.2.424.002.028.02.042.05.039l.002.047c0 .119-.033.23-.091.324l.002-.003c-.197.569-.329.88-.396.937l.044.269c.002.028-.012.044-.043.048l-.047.003c-.007-.074-.034-.11-.082-.105l-.025.002c-.06.094-.106.203-.137.33l.047-.004c.062-.041.09-.09.085-.145l.093-.008.053.02c-.043.067-.062.12-.059.161l.025.043-.06.142.002.023h.011a.29.29 0 0 1 .164.051l-.001-.001a.311.311 0 0 0 .141-.058l-.001.001c.054-.005.253-.007.596-.007l.173-.059c.21-.002.243.004.425-.012l.074-.007.04-.027.002.023c.19-.016.202-.004.352.014l.002.023-.105.01.004.044a.149.149 0 0 0 .083-.032c.027-.002.043.012.045.044a.681.681 0 0 0 -.148.033l.004-.001-.046-.016c-.073.02-.057.025-.107.029l-.073-.015c.002.013-.005.022-.018.022.002.028.018.042.045.04l.074-.006.39-.034.147-.032c.002.012.007.02.02.018l.071-.027.134-.01c.103-.01.1-.017.325-.052-.002-.015.004-.02.014-.022l.002.02c.365-.062.388-.066.447-.086l.005.011c.09-.021.039-.016.064-.034.002.016.007.023.016.023l.064-.005-.004-.048-.13-.002-.002-.003-.014.003h-.018v.004c-.087.018-.09.005-.146.01l-.326.018-.002-.023.182-.025.066-.005.037-.027.002.024c.256-.022.347.042 1.531-.21.064-.006.059-.059.1-.17h-.009a.108.108 0 0 1 -.053-.014h.001c-.098.037-.15.02-.338.05-.016.001-.029-.013-.034-.042l-.002-.02.181.006a.454.454 0 0 0 .198-.064c0 .016-.036.025-.01.023zm-8.757.14-.084.008c-.004-.034.041-.162.133-.38l.056-.006c.002.051-.032.178-.105.378zm.101-.405-.002-.023c-.002-.028.016-.048.055-.057l.002.023c.002.034-.016.054-.055.057zm1.112.86.002.022-.14.013-.001-.023zm-.168-.015c.002.028-.04.06-.133.092l-.17-.012-.056.005-.005-.051zm1.124-5.174-.083.008-.002-.029c-.002-.028.014-.048.05-.057l.03-.002.057.023c.002.034-.015.054-.052.057zm1.272-.249.027-.001.004.051-.077.007c-.002-.028.013-.048.046-.057zm-.32.112-.126-.014-.002-.023c.165-.014.22-.032.321-.06.002.02.02.026.052.023l.004.051-.05.006-.022.001a.167.167 0 0 1 -.08-.02h.001a.214.214 0 0 1 -.097.035h-.001zm.158.461-.002-.023.205-.02.002.024zm.219-.178-.002-.028.1-.01.001.03zm.023-.348-.027.001.023-.055.228-.021.002.028c-.085.01-.162.027-.236.05zm.116.49-.004-.051.1-.009c.033-.004.05.013.052.048zm.602-.821-.128.035-.023.002c-.06.006-.138.004-.23-.005.165-.01.323-.023.381-.032zm-.136.569.002.023-.177.016-.002-.023zm.288.137c-.002-.021-.036-.036-.105-.043l-.176.05-.136.005c-.03-.021-.046-.035-.048-.046l.157.009.352-.057.18.007.002.029c-.083.007-.16.024-.233.048zm1.812-.468.04.002a.657.657 0 0 1 .208-.14l.004-.002c-.064.28-.163.489-.3.624l-.1-.06c.051-.115.102-.256.143-.401zm-.306.525.025-.002c-.034.064-.064.098-.089.1l-.005-.068c.016 0 .04-.01.069-.03zm-.197.471c.048-.192.094-.3.137-.329l.002.023c-.025.178-.064.272-.116.28l.009.111c-.043.061-.062.107-.06.143l-.025.002-.015-.155c.029-.004.052-.029.068-.075zm-.077.256a.637.637 0 0 1 -.054.189l.002-.004-.024.002-.005-.068c.033-.078.062-.117.081-.119zm-1.435 4.165-.002-.02.046-.003.005.068c-.025.002-.043-.013-.049-.045zm2.05.054c-.002-.016-.009-.023-.024-.022l-.116.011-.002-.023h.01l.274-.023.002.023c-.08.003-.128.016-.144.034zm-.137-.057c.011.005.005.01 0 .014-.005-.002-.012-.007 0-.014zm.015-.32-.153.012-.002-.023.138-.012.121-.03c.002.014.01.019.025.017.144-.025.13-.032.2-.037.023-.002.037.012.039.04zm.535-.047c-.085-.008-.09-.016-.151-.01l-.002-.02.137-.012.002.02c-.014.001.037.005.014.022zm.01-.024-.001-.02.074-.007.002.02zm.166-.015-.002-.02a.123.123 0 0 0 .053-.028c.038-.003.057.022.061.05zm.212-.026-.002-.024.09-.007.002.023zm.126-.011c-.002-.027.009-.043.032-.046l.03.039c-.002-.013.004-.02.014-.022l.023.043zm-1.343.58-.004-.045-.014.002zm3.125-.81c.014-.008.021-.017-.013-.023-.016.018.018.024-.017.025l.002.016.02-.014-.02.016v.002l-.038.048.075-.027h.009zm.13.102-.014.002.004.044.105-.009c-.002-.028-.072-.037-.095-.037zm-.162-.078.002-.002v-.002z" fill="#f9dc3e"/></svg>