<svg xmlns="http://www.w3.org/2000/svg" width="24" height="24"><path fill="#0052cc" d="M21.715 13.643h-5a.65.65 0 0 0-.643.551v.004a4.12 4.12 0 0 1-4.061 3.531h-.001l1.35 6.172c4.872-.653 8.642-4.608 9.005-9.511l.002-.034a.65.65 0 0 0-.648-.713h-.003zm-8.633-.158l7.2-6.171a.643.643 0 0 0 .001-.983l-.001-.001L13.081.16a.648.648 0 0 0-1.073.483V12.99a.65.65 0 0 0 1.075.494l-.001.001zM1.727 14.99c.702 5.11 5.038 9.006 10.285 9.01v-6.27h-.007a4.093 4.093 0 0 1-4.093-4.087zm-.096-1.447v.1h6.28a4.093 4.093 0 0 1 4.093-4.087h.005l-1.348-6.17c-5.079.68-8.965 4.955-9.03 10.15v.007z"/></svg>