<!-- Generated by IcoMoon.io -->
<svg version="1.1" xmlns="http://www.w3.org/2000/svg" width="24" height="24" viewBox="0 0 24 24">
<title>ban</title>
<path d="M12 24c6.616 0 12-5.384 12-12s-5.384-12-12-12-12 5.384-12 12 5.384 12 12 12zM12 22.552c-2.687 0-5.142-1.010-7.007-2.672l14.886-14.886c1.658 1.865 2.672 4.32 2.672 7.007 0 5.819-4.733 10.552-10.552 10.552zM12 1.448c2.611 0 5.001 0.956 6.844 2.531l-14.864 14.868c-1.575-1.847-2.531-4.237-2.531-6.847 0-5.819 4.733-10.552 10.552-10.552z"></path>
</svg>
