<!-- Generated by IcoMoon.io -->
<svg version="1.1" xmlns="http://www.w3.org/2000/svg" width="24" height="24" viewBox="0 0 24 24">
<title>bean-bag</title>
<path d="M18.39 6.234c-0.312-1.558-5.61-2.494-8.104-1.247l-2.805 2.805s-0.312 0.312 0.312 0.312 4.987 0.312 9.351 2.182c0 0 1.558-1.87 1.247-4.052zM4.675 9.974c-0.935 0.312 0 0.935 0 0.935s1.247 2.182 5.922 1.87c0 0 0.623-0.623 2.494-0.623s2.494 0 3.429-0.935c0 0-0.935-1.558-9.662-2.494-0.312 0-0.623 0.623-2.182 1.247zM1.87 9.351c1.247 0.935 3.429-0.312 4.675-1.87s2.805-2.805 2.805-2.805c4.675-3.117 9.351 0 9.351 0 1.247-1.558 2.494-1.558 2.494-1.558-9.039-4.987-14.961 2.182-16.208 3.117-0.935 0.935-0.935 0.623-2.494 0.935-1.247 0.312-0.935 1.247-0.935 1.247s-0.312 0.312 0.312 0.935zM22.442 4.987c-0.935-1.247-2.182 0-2.182 0l-0.935 0.623s-0.312 0 0 0.312c0.312 0-0.312 6.857-5.61 7.169 0 0-2.182 0-2.805 0.935 0 0-2.182 1.558-0.935 5.299s4.675 2.494 8.727 0.623c4.364-1.558 7.169-8.416 3.74-14.961zM9.974 13.714c-6.234-0.312-6.857-3.117-6.857-3.117-1.87 0-2.182-1.247-2.182-1.247-1.247 2.494-0.935 4.052-0.935 4.052s0.312 0.312 0.312 0.935v0.935c1.247 5.922 9.351 5.922 9.351 5.922-2.805-4.675 0.312-7.481 0.312-7.481z"></path>
</svg>
