<svg xmlns="http://www.w3.org/2000/svg" width="24" height="24"><path d="M18.39 6.234c-.312-1.558-5.61-2.494-8.104-1.247L7.481 7.792s-.312.312.312.312 4.987.312 9.351 2.182c0 0 1.558-1.87 1.247-4.052zM4.675 9.974c-.935.312 0 .935 0 .935s1.247 2.182 5.922 1.87c0 0 .623-.623 2.494-.623s2.494 0 3.429-.935c0 0-.935-1.558-9.662-2.494-.312 0-.623.623-2.182 1.247zM1.87 9.351c1.247.935 3.429-.312 4.675-1.87S9.35 4.676 9.35 4.676c4.675-3.117 9.351 0 9.351 0 1.247-1.558 2.494-1.558 2.494-1.558C12.156-1.869 6.234 5.3 4.987 6.235c-.935.935-.935.623-2.494.935-1.247.312-.935 1.247-.935 1.247s-.312.312.312.935zm20.572-4.364c-.935-1.247-2.182 0-2.182 0l-.935.623s-.312 0 0 .312c.312 0-.312 6.857-5.61 7.169 0 0-2.182 0-2.805.935 0 0-2.182 1.558-.935 5.299s4.675 2.494 8.727.623c4.364-1.558 7.169-8.416 3.74-14.961zM9.974 13.714c-6.234-.312-6.857-3.117-6.857-3.117-1.87 0-2.182-1.247-2.182-1.247C-.312 11.844 0 13.402 0 13.402s.312.312.312.935v.935c1.247 5.922 9.351 5.922 9.351 5.922-2.805-4.675.312-7.481.312-7.481z"/></svg>