<svg xmlns="http://www.w3.org/2000/svg" width="24" height="24"><path d="M20.664 17.014a7.632 7.632 0 0 1-2.236-5.398V9.722a6.432 6.432 0 0 0-4.868-6.238V1.559a1.56 1.56 0 1 0-3.121 0v1.925a6.43 6.43 0 0 0-4.868 6.238v1.894a7.632 7.632 0 0 1-2.236 5.398 2.2 2.2 0 0 0 1.556 3.756H8.77a3.23 3.23 0 1 0 6.46 0h3.879a2.199 2.199 0 0 0 1.555-3.756zM12 22.415a1.647 1.647 0 0 1-1.645-1.645h3.289c0 .907-.737 1.645-1.644 1.645zm7.677-3.61a.614.614 0 0 1-.568.379H4.892a.614.614 0 0 1-.435-1.049 9.16 9.16 0 0 0 2.7-6.519V9.722c0-2.671 2.173-4.843 4.843-4.843s4.843 2.173 4.843 4.843v1.894a9.16 9.16 0 0 0 2.7 6.519c.177.177.229.44.133.67z"/></svg>