<svg xmlns="http://www.w3.org/2000/svg" width="24" height="24"><path d="M23.25 21c0 1.35-2.175 3.825-9.9 2.7-7.575-1.425-11.55-4.65-12.225-6.375-1.125-1.95.6-3.075.6-3.075s1.35-.9 3.075-2.85 2.025-3.225 3.75-6.225c1.65-3 3.6-3.3 4.5-3.45.525 0 .6.075.9-.825S15.6.075 15.6.075s1.65.15 2.7.75.825 1.35.825 1.35-.3.675-.075.9c.3.225.6.525.6.525 2.7 2.025 1.95 5.775 1.875 9.375s1.425 6.975 1.425 6.975.3.525.3 1.05zm-1.725-.375s0-2.1-6-4.275c-5.925-2.1-9-1.725-9-1.725S2.7 14.475 2.55 16.2c-.3 1.725 4.5 4.05 6.9 4.725 2.325.675 4.425 1.35 8.1 1.5 4.275-.075 3.975-1.8 3.975-1.8zm-8.325-.6c-1.875-1.65-.45-2.85-.45-2.85s.3-.45.975-.225c0 0 2.475.75 4.275 1.8 0 0 .675.45-.075 1.275s-2.625 1.5-4.725 0z"/></svg>