<!-- Generated by IcoMoon.io -->
<svg version="1.1" xmlns="http://www.w3.org/2000/svg" width="24" height="24" viewBox="0 0 24 24">
<title>bell11</title>
<path d="M23.25 21c0 1.35-2.175 3.825-9.9 2.7-7.575-1.425-11.55-4.65-12.225-6.375-1.125-1.95 0.6-3.075 0.6-3.075s1.35-0.9 3.075-2.85 2.025-3.225 3.75-6.225c1.65-3 3.6-3.3 4.5-3.45 0.525 0 0.6 0.075 0.9-0.825s1.65-0.825 1.65-0.825 1.65 0.15 2.7 0.75 0.825 1.35 0.825 1.35-0.3 0.675-0.075 0.9c0.3 0.225 0.6 0.525 0.6 0.525 2.7 2.025 1.95 5.775 1.875 9.375s1.425 6.975 1.425 6.975 0.3 0.525 0.3 1.050zM21.525 20.625s0-2.1-6-4.275c-5.925-2.1-9-1.725-9-1.725s-3.825-0.15-3.975 1.575c-0.3 1.725 4.5 4.050 6.9 4.725 2.325 0.675 4.425 1.35 8.1 1.5 4.275-0.075 3.975-1.8 3.975-1.8zM13.2 20.025c-1.875-1.65-0.45-2.85-0.45-2.85s0.3-0.45 0.975-0.225c0 0 2.475 0.75 4.275 1.8 0 0 0.675 0.45-0.075 1.275s-2.625 1.5-4.725 0z"></path>
</svg>
