<!-- Generated by IcoMoon.io -->
<svg version="1.1" xmlns="http://www.w3.org/2000/svg" width="24" height="24" viewBox="0 0 24 24">
<title>bitcoin</title>
<path d="M23.64 14.903c-1.603 6.429-8.114 10.341-14.544 8.738-6.426-1.603-10.339-8.114-8.736-14.543 1.602-6.429 8.113-10.342 14.541-8.739 6.429 1.603 10.341 8.115 8.738 14.544zM17.291 10.29c0.239-1.597-0.977-2.455-2.64-3.028l0.539-2.163-1.317-0.328-0.525 2.106c-0.346-0.086-0.701-0.168-1.055-0.248l0.529-2.12-1.316-0.328-0.54 2.162c-0.287-0.065-0.568-0.13-0.841-0.198l0.002-0.007-1.816-0.453-0.35 1.406s0.977 0.224 0.956 0.238c0.533 0.133 0.63 0.486 0.614 0.766l-0.614 2.464c0.037 0.009 0.084 0.023 0.137 0.044l-0.139-0.034-0.861 3.452c-0.065 0.162-0.231 0.405-0.603 0.313 0.013 0.019-0.957-0.239-0.957-0.239l-0.654 1.507 1.714 0.427c0.319 0.080 0.631 0.164 0.938 0.242l-0.545 2.188 1.315 0.328 0.54-2.165c0.359 0.098 0.708 0.188 1.049 0.272l-0.538 2.154 1.317 0.328 0.545-2.184c2.245 0.425 3.934 0.254 4.644-1.777 0.573-1.635-0.028-2.578-1.209-3.193 0.86-0.199 1.508-0.765 1.681-1.934zM14.282 14.509c-0.407 1.635-3.16 0.752-4.053 0.529l0.723-2.898c0.892 0.223 3.754 0.664 3.33 2.369zM14.689 10.267c-0.371 1.487-2.662 0.732-3.406 0.546l0.656-2.629c0.744 0.185 3.138 0.531 2.751 2.082z"></path>
</svg>
