<svg xmlns="http://www.w3.org/2000/svg" width="24" height="24"><path d="M23.64 14.903c-1.603 6.429-8.114 10.341-14.544 8.738C2.67 22.038-1.243 15.527.36 9.098 1.962 2.669 8.473-1.244 14.901.359c6.429 1.603 10.341 8.115 8.738 14.544zm-6.349-4.613c.239-1.597-.977-2.455-2.64-3.028l.539-2.163-1.317-.328-.525 2.106a51.035 51.035 0 0 0-1.055-.248l.529-2.12-1.316-.328-.54 2.162c-.287-.065-.568-.13-.841-.198l.002-.007-1.816-.453-.35 1.406s.977.224.956.238c.533.133.63.486.614.766l-.614 2.464c.037.009.084.023.137.044l-.139-.034-.861 3.452c-.065.162-.231.405-.603.313.013.019-.957-.239-.957-.239l-.654 1.507 1.714.427c.319.08.631.164.938.242l-.545 2.188 1.315.328.54-2.165c.359.098.708.188 1.049.272l-.538 2.154 1.317.328.545-2.184c2.245.425 3.934.254 4.644-1.777.573-1.635-.028-2.578-1.209-3.193.86-.199 1.508-.765 1.681-1.934zm-3.009 4.219c-.407 1.635-3.16.752-4.053.529l.723-2.898c.892.223 3.754.664 3.33 2.369zm.407-4.242c-.371 1.487-2.662.732-3.406.546l.656-2.629c.744.185 3.138.531 2.751 2.082z"/></svg>