<!-- Generated by IcoMoon.io -->
<svg version="1.1" xmlns="http://www.w3.org/2000/svg" width="24" height="24" viewBox="0 0 24 24">
<title>blackberry</title>
<path d="M22.425 10.875h-4.95l0.675-4.050h3.825s2.025 0.15 2.025 2.025-1.575 2.025-1.575 2.025zM22.875 15.15c0 1.875-1.575 2.025-1.575 2.025h-4.95l0.675-4.050h3.825s2.025 0.15 2.025 2.025zM14.55 7.8h-4.95l0.75-4.050h3.825s2.025 0.15 2.025 2.025-1.65 2.025-1.65 2.025zM14.775 12c0 1.875-1.575 2.025-1.575 2.025h-4.95l0.675-4.050h3.825s2.025 0.15 2.025 2.025zM13.65 18.225c0 1.875-1.575 2.025-1.575 2.025h-4.875l0.675-4.050h3.825s1.95 0.225 1.95 2.025zM6.075 7.8h-4.95l0.675-4.050h3.825s2.025 0.15 2.025 2.025-1.575 2.025-1.575 2.025zM6.525 12c0 1.875-1.575 2.025-1.575 2.025h-4.95l0.675-4.050h3.825s2.025 0.15 2.025 2.025z"></path>
</svg>
