<svg xmlns="http://www.w3.org/2000/svg" width="24" height="24"><path d="M22.425 10.875h-4.95l.675-4.05h3.825S24 6.975 24 8.85s-1.575 2.025-1.575 2.025zm.45 4.275c0 1.875-1.575 2.025-1.575 2.025h-4.95l.675-4.05h3.825s2.025.15 2.025 2.025zM14.55 7.8H9.6l.75-4.05h3.825S16.2 3.9 16.2 5.775 14.55 7.8 14.55 7.8zm.225 4.2c0 1.875-1.575 2.025-1.575 2.025H8.25l.675-4.05h3.825s2.025.15 2.025 2.025zm-1.125 6.225c0 1.875-1.575 2.025-1.575 2.025H7.2l.675-4.05H11.7s1.95.225 1.95 2.025zM6.075 7.8h-4.95L1.8 3.75h3.825S7.65 3.9 7.65 5.775 6.075 7.8 6.075 7.8zm.45 4.2c0 1.875-1.575 2.025-1.575 2.025H0l.675-4.05H4.5s2.025.15 2.025 2.025z"/></svg>