<svg xmlns="http://www.w3.org/2000/svg" width="24" height="24"><path d="M12.51 13.214c.046-.8.438-1.506 1.03-2.006a3.403 3.403 0 0 1 2.188-.79h.026-.001c.85 0 1.631.3 2.211.79.592.5.983 1.206 1.028 2.005.045.823-.285 1.586-.865 2.153a3.374 3.374 0 0 1-2.341.938h-.035.002-.034a3.384 3.384 0 0 1-2.344-.939l.001.001c-.58-.567-.91-1.33-.865-2.152zm-5.16 1.617c.006.314.106.922.256 1.398a7.385 7.385 0 0 0 1.598 2.762l-.005-.005a8.253 8.253 0 0 0 2.735 1.98l.052.021a8.81 8.81 0 0 0 3.609.76h.054-.003.018a8.926 8.926 0 0 0 3.696-.795l-.056.023a8.347 8.347 0 0 0 2.779-2.003l.006-.007a7.404 7.404 0 0 0 1.577-2.709l.015-.053a6.82 6.82 0 0 0 .32-2.087c0-.348-.026-.69-.075-1.024l.005.038a7.1 7.1 0 0 0-1.033-2.808l.017.029a7.836 7.836 0 0 0-1.834-2.03l-.018-.013h.002l-7.518-5.772c-.492-.378-1.319-.376-1.86.002-.547.382-.609 1.015-.123 1.415l-.001.001 3.126 2.543-9.543.01c-.788.001-1.545.518-1.695 1.172-.154.665.38 1.217 1.2 1.22v.002l4.83-.01-8.654 6.642c-.813.622-1.075 1.658-.563 2.313.52.667 1.625.668 2.447.004l4.704-3.849s-.069.52-.063.831zm12.09 1.741c-.97.988-2.326 1.548-3.795 1.55-1.47.004-2.827-.552-3.797-1.538a4.53 4.53 0 0 1-1.026-1.591l-.01-.031a4.198 4.198 0 0 1-.252-1.448c0-.76.198-1.474.545-2.093l-.011.022a4.733 4.733 0 0 1 1.144-1.364l.009-.007c.942-.768 2.141-1.183 3.396-1.185s2.455.41 3.398 1.175c.48.391.87.854 1.152 1.367.279.492.465 1.072.521 1.689l.001.016a4.226 4.226 0 0 1-.248 1.84l.01-.029a4.561 4.561 0 0 1-1.035 1.626z"/></svg>