<!-- Generated by IcoMoon.io -->
<svg version="1.1" xmlns="http://www.w3.org/2000/svg" width="24" height="24" viewBox="0 0 24 24">
<title>blob</title>
<path d="M17.625 6.225c-0.075-3.225-1.875-5.85-4.35-4.275-0.9 0.6-1.35 1.65-2.175 2.25-0.825 0.525-1.8 0.6-2.7 0.6-1.875 0-4.050-0.825-4.575 1.725-0.375 1.725 1.8 2.85 1.275 4.575-0.15 0.525-0.675 0.9-1.125 1.275-1.050 0.825-1.875 1.5-2.625 2.7-1.5 2.175-1.575 3.225-1.050 4.575 0.525 1.5 2.625 2.85 4.35 2.175 2.1-0.825 1.875-2.625 4.2-3.525 1.95-0.75 2.55 0.9 3.3 2.25 1.35 2.55 4.050 2.475 5.925 0.225 0.6-0.75 1.575-2.325 1.425-3.375-0.15-0.825-1.275-1.35-1.8-1.95-1.875-2.025 1.275-2.7 2.925-3.45 1.575-0.675 4.125-2.175 3.3-4.8-0.3-0.9-2.325-1.725-3.075-1.425-1.275 0.525-3.15 1.725-3.225 0.45z"></path>
</svg>
