<svg xmlns="http://www.w3.org/2000/svg" width="24" height="24"><path d="M17.625 6.225C17.55 3 15.75.375 13.275 1.95c-.9.6-1.35 1.65-2.175 2.25-.825.525-1.8.6-2.7.6-1.875 0-4.05-.825-4.575 1.725C3.45 8.25 5.625 9.375 5.1 11.1c-.15.525-.675.9-1.125 1.275-1.05.825-1.875 1.5-2.625 2.7C-.15 17.25-.225 18.3.3 19.65c.525 1.5 2.625 2.85 4.35 2.175C6.75 21 6.525 19.2 8.85 18.3c1.95-.75 2.55.9 3.3 2.25 1.35 2.55 4.05 2.475 5.925.225.6-.75 1.575-2.325 1.425-3.375-.15-.825-1.275-1.35-1.8-1.95-1.875-2.025 1.275-2.7 2.925-3.45 1.575-.675 4.125-2.175 3.3-4.8-.3-.9-2.325-1.725-3.075-1.425-1.275.525-3.15 1.725-3.225.45z"/></svg>