<!-- Generated by IcoMoon.io -->
<svg version="1.1" xmlns="http://www.w3.org/2000/svg" width="24" height="24" viewBox="0 0 24 24">
<title>block</title>
<path d="M13.050 24v-9.375l10.95-6.45v9.375l-10.95 6.45zM1.050 6.375l2.325-1.35v1.125s0.375 1.125 3.075 1.125 3.15-1.125 3.15-1.125v-1.8c-0.075 0.675-1.425 1.2-3.075 1.2-1.725 0-3.15-0.6-3.15-1.35s1.425-1.35 3.15-1.35h0.525l1.8-1.125v1.35s0.6 1.2 3.225 1.2c1.275 0 2.025-0.3 2.475-0.6l0.225-0.225c0.225-0.225 0.3-0.375 0.3-0.375v-1.275l1.875 1.125h0.525c1.725 0 3.15 0.6 3.15 1.35s-1.425 1.35-3.15 1.35c-1.65 0-3-0.525-3.075-1.2v1.8s0.525 1.125 3.075 1.125 3.15-1.125 3.15-1.125v-1.2l2.4 1.35-10.95 6.45-11.025-6.45zM15.075 9.225v-1.725s-0.375 1.2-3.075 1.2-3.15-1.2-3.15-1.2v1.725s0.45 1.2 3.15 1.2 3.075-1.2 3.075-1.2zM12 2.625c-1.725 0-3.15-0.6-3.15-1.35s1.425-1.35 3.15-1.35 3.15 0.6 3.15 1.35c-0.075 0.75-1.425 1.35-3.15 1.35zM10.95 24l-10.95-6.375v-9.45l10.95 6.45v9.375z"></path>
</svg>
