<svg xmlns="http://www.w3.org/2000/svg" width="24" height="24"><path d="M13.05 24v-9.375L24 8.175v9.375L13.05 24zm-12-17.625l2.325-1.35V6.15S3.75 7.275 6.45 7.275 9.6 6.15 9.6 6.15v-1.8c-.075.675-1.425 1.2-3.075 1.2-1.725 0-3.15-.6-3.15-1.35S4.8 2.85 6.525 2.85h.525l1.8-1.125v1.35s.6 1.2 3.225 1.2c1.275 0 2.025-.3 2.475-.6l.225-.225c.225-.225.3-.375.3-.375V1.8l1.875 1.125h.525c1.725 0 3.15.6 3.15 1.35s-1.425 1.35-3.15 1.35c-1.65 0-3-.525-3.075-1.2v1.8s.525 1.125 3.075 1.125 3.15-1.125 3.15-1.125v-1.2l2.4 1.35-10.95 6.45L1.05 6.375zm14.025 2.85V7.5S14.7 8.7 12 8.7 8.85 7.5 8.85 7.5v1.725s.45 1.2 3.15 1.2 3.075-1.2 3.075-1.2zM12 2.625c-1.725 0-3.15-.6-3.15-1.35S10.275-.075 12-.075s3.15.6 3.15 1.35c-.075.75-1.425 1.35-3.15 1.35zM10.95 24L0 17.625v-9.45l10.95 6.45V24z"/></svg>