<!-- Generated by IcoMoon.io -->
<svg version="1.1" xmlns="http://www.w3.org/2000/svg" width="24" height="24" viewBox="0 0 24 24">
<title>blog1</title>
<path d="M15.225 24h-7.275c0.075 0-7.95 0-7.95-8.025v-8.025s-0.075-7.95 8.775-7.95h2.475s6.975-0.675 8.25 7.275c0 0 0.075 1.725 1.5 1.725h1.725s1.275 0.225 1.275 1.5v6s0.075 7.5-8.775 7.5zM12 6h-4.5c-0.825 0-1.5 0.675-1.5 1.5s0.675 1.5 1.5 1.5h4.5c0.825 0 1.5-0.675 1.5-1.5s-0.675-1.5-1.5-1.5zM16.5 15h-9c-0.825 0-1.5 0.675-1.5 1.5s0.675 1.5 1.5 1.5h9c0.825 0 1.5-0.675 1.5-1.5s-0.675-1.5-1.5-1.5z"></path>
</svg>
