<svg xmlns="http://www.w3.org/2000/svg" width="24" height="24"><path d="M14.016 8.484q.609 0 1.055.445t.445 1.055-.445 1.055-1.055.445-1.055-.445-.445-1.055.445-1.055 1.055-.445zm0 4.032q.609 0 1.055.445t.445 1.055-.445 1.055-1.055.445-1.055-.445-.445-1.055.445-1.055 1.055-.445zm-4.032 4.5q.422 0 .727.281t.305.703-.305.703-.727.281-.703-.281T9 18t.281-.703.703-.281zm0-8.532q.609 0 1.055.445t.445 1.055-.445 1.055-1.055.445-1.055-.445-.445-1.055.445-1.055 1.055-.445zm4.032 12q.469 0 .469.516t-.469.516q-.516 0-.516-.516t.516-.516zm0-3.468q.422 0 .703.281T15 18t-.281.703-.703.281-.727-.281-.305-.703.305-.703.727-.281zM21 13.5q.516 0 .516.516 0 .469-.516.469t-.516-.469q0-.516.516-.516zm-3-8.484q.422 0 .703.281t.281.703-.281.703-.703.281-.703-.281T17.016 6t.281-.703.703-.281zM18 9q.422 0 .703.281t.281.703-.281.727-.703.305-.703-.305-.281-.727.281-.703T18 9zm0 8.016q.422 0 .703.281t.281.703-.281.703-.703.281-.703-.281-.281-.703.281-.703.703-.281zm0-4.032q.422 0 .703.305t.281.727-.281.703T18 15t-.703-.281-.281-.703.281-.727.703-.305zm-8.016-.468q.609 0 1.055.445t.445 1.055-.445 1.055-1.055.445-1.055-.445-.445-1.055.445-1.055 1.055-.445zm0-5.532q-.422 0-.703-.281T9 6t.281-.703.703-.281.727.281.305.703-.305.703-.727.281zm0-3.468q-.469 0-.469-.516t.469-.516q.516 0 .516.516t-.516.516zm0 16.968q.516 0 .516.516t-.516.516q-.469 0-.469-.516t.469-.516zM3 13.5q.516 0 .516.516 0 .469-.516.469t-.516-.469q0-.516.516-.516zm11.016-9.984q-.516 0-.516-.516t.516-.516q.469 0 .469.516t-.469.516zm0 3.468q-.422 0-.727-.281T12.984 6t.305-.703.727-.281.703.281T15 6t-.281.703-.703.281zM21 10.5q-.516 0-.516-.516 0-.469.516-.469t.516.469q0 .516-.516.516zM6 5.016q.422 0 .703.281T6.984 6t-.281.703T6 6.984t-.703-.281T5.016 6t.281-.703T6 5.016zm-3 4.5q.516 0 .516.469 0 .516-.516.516t-.516-.516q0-.469.516-.469zM6 9q.422 0 .703.281t.281.703-.281.727-.703.305-.703-.305-.281-.727.281-.703T6 9zm0 8.016q.422 0 .703.281t.281.703-.281.703-.703.281-.703-.281T5.016 18t.281-.703.703-.281zm0-4.032q.422 0 .703.305t.281.727-.281.703T6 15t-.703-.281-.281-.703.281-.727.703-.305z"/></svg>