<svg xmlns="http://www.w3.org/2000/svg" width="24" height="24"><path fill="#1d439c" d="M6.905 17.353h-.01a6.024 6.024 0 0 1-3.761-1.311l.012.01C4.35 13.337 6.8 9.694 10.143 6.136c1.718 1.092 2.841 2.985 2.841 5.14 0 .94-.214 1.83-.595 2.624l.016-.036c-1.06-.49-2.05-1.105-2.888-1.88l1.831 3.438a6.045 6.045 0 0 1-4.435 1.931h-.009zM.83 11.278v-.002a6.075 6.075 0 0 1 6.075-6.075h.001c.9 0 1.752.196 2.522.546-3.293 2.91-5.843 6.293-7.352 9.217A6.014 6.014 0 0 1 .83 11.286v-.009zm12.34 2.912a6.762 6.762 0 0 0 .642-2.898v-.015.001a6.9 6.9 0 0 0-3.085-5.753 50.248 50.248 0 0 1 3.511-3.283l.072-.059a31.258 31.258 0 0 0-4.246 3.013l.046-.038a6.817 6.817 0 0 0-3.199-.786 6.907 6.907 0 0 0-5.229 11.419l-.007-.009c-1.324 2.863-1.554 5.161-.388 5.937 1.248.832 3.962-.677 5.59-3.134 0 0-2.518 2.273-3.902 1.751-.851-.322-.854-1.624-.152-3.492a6.82 6.82 0 0 0 4.074 1.338h.011-.001a6.88 6.88 0 0 0 4.853-1.992l.245.462c3.009-.245 11.996-.483 11.996-.483 0-.431-5.95-.04-10.832-1.98z"/></svg>