<!-- Generated by IcoMoon.io -->
<svg version="1.1" xmlns="http://www.w3.org/2000/svg" width="24" height="24" viewBox="0 0 24 24">
<title>book-my-show</title>
<path d="M18.9 24l-6.375-1.875c0.15-0.45 0.6-2.85-2.1-3.975-2.925-0.825-4.050 1.425-4.275 2.1l-6.15-1.95 5.175-16.425 2.4-1.125 1.35 2.25 2.4-1.125 1.35 2.25 2.4-1.125 1.35 2.25 2.4-1.125 1.35 2.25 2.475-1.125 1.35 2.25-5.1 16.5zM11.55 7.65h-6.15s-0.6 0-0.6 0.675v7.8s-0.075 0.825 0.75 0.825c0.75 0 0.6-0.825 0.6-0.825v-7.2h2.55v7.275s0.075 0.75 0.75 0.75 0.6-0.75 0.6-0.75v-7.275h1.5s1.050 0 1.050 1.275v5.925s0 0.75 0.75 0.75 0.6-0.825 0.6-0.825v-5.925c0 0.075 0.075-2.325-2.4-2.475zM20.55 7.575c-0.825-0.225-0.9 0.525-0.9 0.525l-1.65 5.475-1.725-5.475s-0.15-0.75-0.9-0.45c-0.6 0.225-0.375 0.825-0.375 0.825l2.25 7.5-0.6 2.175s-0.15 0.75-0.9 0.975c-1.050 0.075-1.050 0.75-1.050 0.75s-0.075 0.975 1.35 0.6c1.425-0.375 1.8-1.725 1.8-1.725l3.15-10.275c-0.075-0.075 0.075-0.825-0.45-0.9z"></path>
</svg>
