<!-- Generated by IcoMoon.io -->
<svg version="1.1" xmlns="http://www.w3.org/2000/svg" width="17" height="24" viewBox="0 0 17 24">
<title>bookmark1</title>
<path d="M15.589 1.929c0 0 0.001 0 0.001 0 0.213 0 0.415 0.044 0.598 0.124l-0.010-0.004c0.589 0.228 0.964 0.777 0.964 1.379v17.263c0 0.603-0.375 1.152-0.964 1.379-0.188 0.080-0.388 0.107-0.589 0.107-0.415 0-0.804-0.147-1.112-0.429l-5.906-5.679-5.906 5.679c-0.308 0.281-0.696 0.442-1.112 0.442-0 0-0.001 0-0.001 0-0.213 0-0.415-0.044-0.598-0.124l0.010 0.004c-0.589-0.228-0.964-0.777-0.964-1.379v-17.263c0-0.603 0.375-1.152 0.964-1.379 0.174-0.076 0.376-0.121 0.588-0.121 0 0 0.001 0 0.001 0h14.036z"></path>
</svg>
