<svg xmlns="http://www.w3.org/2000/svg" width="17" height="24"><path d="M15.429 3.643H1.715v16.634l6.857-6.576 1.192 1.138 5.665 5.438V3.643zm.16-1.714h.001c.213 0 .415.044.598.124l-.01-.004c.589.228.964.777.964 1.379v17.263c0 .603-.375 1.152-.964 1.379a1.49 1.49 0 0 1-.589.107c-.415 0-.804-.147-1.112-.429l-5.906-5.679-5.906 5.679a1.642 1.642 0 0 1-1.112.442h-.001c-.213 0-.415-.044-.598-.124l.01.004A1.484 1.484 0 0 1 0 20.691V3.428c0-.603.375-1.152.964-1.379.174-.076.376-.121.588-.121H15.589z"/></svg>