<svg xmlns="http://www.w3.org/2000/svg" width="24" height="24"><path fill="#f69220" d="M15.818 18.157c.058-.045.112-.099.163-.15a2.275 2.275 0 0 0 0-3.169l.001.001-7.802-8c-.054.05-.109.099-.16.152a2.276 2.276 0 0 0 0 3.171l-.001-.001zm5.727-11.399a2.962 2.962 0 0 1 1.572.872l.001.001c1.176 1.24 1.176 3.25 0 4.49l-5.557 5.847a2.135 2.135 0 0 1-1.288.636l-.01.001L19.567 22l-17.11-3.758a3 3 0 0 1-1.571-.877l-.001-.001c-1.18-1.237-1.18-3.248 0-4.494l5.552-5.838A2.126 2.126 0 0 1 7.73 6.39l.01-.001L4.434 3z"/></svg>