<svg xmlns="http://www.w3.org/2000/svg" width="24" height="24"><path fill="#ef5734" d="M23.542 11.305c-1.234-1.187-7.407-1.927-9.354-2.142.094-.222.175-.453.242-.691.266-.117.552-.225.849-.315.036.107.207.515.303.709 3.917.108 4.118-2.91 4.277-3.738.156-.808.148-1.59 1.492-3.018-2.001-.584-4.88.904-5.844 3.118a5.993 5.993 0 0 0-1.085-.298C14.164 3.892 12.824.999 9.308.999c-2.278 0-4.575.941-6.302 2.581A9.428 9.428 0 0 0 .833 6.699C.281 7.98.001 9.39.001 10.891c0 5.227 3.568 9.807 5.584 9.807.88 0 1.638-.659 1.816-1.25.149.406.606 1.665.756 1.985.222.475 1.249.885 1.698.392.577.321 1.638.514 2.215-.342 1.112.235 2.097-.428 2.118-1.221.546-.029.814-.796.695-1.406-.088-.449-1.027-2.063-1.393-2.619.725.59 2.562.756 2.784 0 1.169.918 2.991.437 3.135-.31 1.421.369 3.049-.442 2.782-1.423 2.282-.158 1.99-2.585 1.35-3.201zm-5.943-4.024c-.601-.236-1.363-.386-1.897-.386-.758 0-1.219.429-1.932.429-.149 0-.506.001-.793-.102.189.198.423.305.877.305.271 0 .809-.139 1.245-.269.006.092.016.182.029.273-.816.195-1.672.714-1.92.849-.551-1.217-.077-2.368.36-2.899 1.962.004 3.548 1.352 4.032 1.799zm.849-.091l-.3-.281a8.713 8.713 0 0 0-.96-.782c.492-.975 1.109-2.039 1.889-2.698-.858.346-1.707 1.38-2.208 2.486a7.573 7.573 0 0 0-.777-.433c.699-1.493 2.323-2.739 4.114-2.836-1.199 1.088-.749 3.258-1.76 4.544zm-2.464 1.017c-.132-.287-.265-.762-.249-1.042.222-.005.651.078.718.094-.027.131-.04.42-.04.457.042-.073.16-.324.208-.424.428.082.991.218 1.32.372-.388.251-1.045.524-1.956.543zM8.912 6.255c-.485-.174-.485-.611 0-.785s1.094.045 1.094.392-.609.566-1.094.392zm1.617.162c0-.96-1.046-1.563-1.879-1.083s-.833 1.687 0 2.167c.833.48 1.879-.123 1.879-1.083zm2.783-1.574c-1.565 1.586-.947 3.593-.377 4.498-.81 1.349-2.404 2.27-4.255 2.69 2.078 0 3.3-.535 4.011-1.058.453-.335.699-.664.825-.847 3.081.199 7.959 1.192 8.434 1.513.191.129.388.414.417.688-2.315-.324-6.488-.665-7.58-.723.775.11 6.433 1.181 7.414 1.432-.299.486-.979.831-2.003.591.554.754-.521 1.659-2.019 1.161.33.741-1.003 1.407-2.519.636.019.741-1.881.826-2.631.007.015.098.104.284.142.367-.242 2.163-2.014 3.506-3.829 3.506-4.443 0-8.315-3.61-8.315-8.411 0-5.076 3.752-8.864 8.279-8.864 2.594 0 3.765 2.042 4.006 2.815z"/></svg>