<svg xmlns="http://www.w3.org/2000/svg" width="24" height="24"><path fill="#fb542b" d="M21.618 6.028l.623 1.786a.493.493 0 0 1 .01.293l.001-.003-.025.097-.072.274-.257.979-.781 2.972c-.613 2.337-1.015 3.876-1.112 4.259-.527 2.087-.945 2.812-2.296 3.766-1.184.836-3.653 2.514-4.128 2.811a5.718 5.718 0 0 0-.178.117l.016-.01-.187.128a3.928 3.928 0 0 1-.549.329l-.024.011c-.225.105-.44.164-.659.164s-.434-.059-.659-.164a4.035 4.035 0 0 1-.585-.348l.012.008-.187-.128a2.829 2.829 0 0 0-.135-.09l-.027-.017c-.475-.298-2.944-1.975-4.128-2.811-1.351-.954-1.769-1.679-2.296-3.766-.097-.383-.499-1.922-1.107-4.242L1.774 8.2l-.025-.097a.5.5 0 0 1 .012-.292l-.001.003.623-1.786-.467-1.152a.49.49 0 0 1 .097-.523l.122-.13c.097-.103.207-.22.329-.347.346-.363.71-.738 1.077-1.105.351-.352.823-.542 1.374-.607a4.551 4.551 0 0 1 1.417.072l-.03-.005L8.113.168A.49.49 0 0 1 8.483 0h7.038c.142 0 .276.061.37.168l1.811 2.063a4.478 4.478 0 0 1 1.409-.065l-.02-.002c.552.065 1.023.254 1.374.607.49.493.977.997 1.458 1.508l.037.04c.163.175.2.379.128.557zm-.992.149a.493.493 0 0 1 .01-.353l-.001.003.418-1.031-.226-.238a67.059 67.059 0 0 0-1.064-1.092l.002.002c-.174-.174-.442-.282-.791-.323a3.563 3.563 0 0 0-1.056.049l.023-.004c-.08.014-.153.029-.216.044l-.069.017a.489.489 0 0 1-.501-.15V3.1L15.298.985H8.705L6.848 3.1a.493.493 0 0 1-.506.149l.003.001a2.906 2.906 0 0 0-.261-.057l-.024-.004a3.585 3.585 0 0 0-1.049-.044l.015-.001c-.349.041-.618.149-.791.323a69.99 69.99 0 0 0-1.257 1.295l-.031.033.418 1.031a.487.487 0 0 1 .008.353l.001-.003-.634 1.82.059.225.257.979.781 2.973c-1.033-4.73-.65-3.3-.27-1.868l1.384 6.136c.474 1.878.776 2.401 1.908 3.201 1.17.827 3.627 2.495 4.083 2.782.057.036.117.075.192.127l.187.128c.191.129.318.207.436.262.105.049.187.071.243.071s.137-.022.243-.071c.118-.055.246-.133.436-.262l.187-.128c.076-.051.135-.091.192-.127.456-.286 2.913-1.955 4.083-2.782 1.132-.8 1.434-1.323 1.908-3.201.098-.388.499-1.925 1.11-4.251l1.101-4.194zm-3.665-1.953s2.578 3.128 2.578 3.796-.324.845-.65 1.192l-1.933 2.06c-.183.195-.563.49-.34 1.022s.554 1.209.187 1.895-.997 1.145-1.4 1.069-1.35-.573-1.698-.799-1.452-1.141-1.452-1.49c0-.35 1.141-.977 1.352-1.12s1.172-.695 1.192-.911c.02-.217.012-.28-.272-.816s-.795-1.25-.71-1.725.909-.722 1.497-.945 1.72-.644 1.862-.709c.141-.066.105-.128-.324-.169s-1.644-.203-2.192-.049-1.485.387-1.56.51c-.076.124-.143.128-.065.555s.479 2.475.518 2.839.115.604-.276.694-1.049.245-1.275.245-.884-.156-1.275-.245c-.391-.09-.315-.33-.276-.694s.44-2.412.518-2.839.011-.431-.065-.555-1.012-.357-1.56-.51-1.764.009-2.192.049c-.428.041-.465.103-.324.169s1.274.486 1.862.709 1.412.47 1.497.945-.426 1.19-.71 1.725-.291.599-.272.816.981.769 1.192.911c.211.143 1.352.77 1.352 1.12s-1.104 1.263-1.452 1.49-1.295.724-1.698.799c-.403.076-1.033-.382-1.4-1.069s-.037-1.363.187-1.895-.157-.827-.34-1.022l-1.933-2.06c-.326-.347-.65-.524-.65-1.192s2.578-3.796 2.578-3.796 2.175.417 2.468.417.929-.245 1.515-.442.978-.198.978-.198.391.001.978.198 1.222.442 1.515.442 2.468-.417 2.468-.417zm-1.932 11.964c.16.1.062.289-.083.392s-2.098 1.621-2.288 1.789-.468.445-.658.445-.468-.277-.658-.445-2.143-1.686-2.288-1.789-.243-.292-.083-.392.659-.353 1.348-.711 1.547-.662 1.681-.662.992.304 1.681.662 1.188.611 1.348.711z"/></svg>