<svg xmlns="http://www.w3.org/2000/svg" width="24" height="24"><path d="M20.471 4.941h-3.388V3.247A2.53 2.53 0 0 0 14.542.706H9.601A2.53 2.53 0 0 0 7.06 3.247v1.694H3.529A3.496 3.496 0 0 0 0 8.471v11.294a3.495 3.495 0 0 0 3.529 3.529H20.47a3.495 3.495 0 0 0 3.529-3.529V8.471a3.494 3.494 0 0 0-3.528-3.53zm-12-1.694c0-.706.565-1.129 1.129-1.129h4.941c.706 0 1.129.565 1.129 1.129v1.694h-7.2V3.247zM3.529 6.353H20.47c1.129 0 2.118.988 2.118 2.118V12H16.94v-.706c0-.423-.282-.706-.706-.706s-.706.282-.706.706V12H8.47v-.706c0-.423-.282-.706-.706-.706s-.706.282-.706.706V12H1.411V8.471c0-1.129.988-2.118 2.118-2.118zm16.942 15.529H3.529c-1.129 0-2.118-.988-2.118-2.118v-6.353h5.647v.706c0 .423.282.706.706.706s.706-.282.706-.706v-.706h7.059v.706c0 .423.282.706.706.706s.706-.282.706-.706v-.706h5.647v6.353c0 1.13-.988 2.118-2.118 2.118z"/></svg>