<svg height="24" width="24" xmlns="http://www.w3.org/2000/svg"><path d="m12 6a6 6 0 1 0 0 12 6 6 0 0 0 0-12zm0 9.75v-7.5c2.068 0 3.75 1.682 3.75 3.75s-1.682 3.75-3.75 3.75zm0 3.75a1.5 1.5 0 0 1 1.5 1.5v1.5a1.5 1.5 0 0 1 -3 0v-1.5a1.5 1.5 0 0 1 1.5-1.5zm0-15a1.5 1.5 0 0 1 -1.5-1.5v-1.5a1.5 1.5 0 0 1 3 0v1.5a1.5 1.5 0 0 1 -1.5 1.5zm10.5 6a1.5 1.5 0 0 1 0 3h-1.5a1.5 1.5 0 0 1 0-3zm-18 1.5a1.5 1.5 0 0 1 -1.5 1.5h-1.5a1.5 1.5 0 0 1 0-3h1.5a1.5 1.5 0 0 1 1.5 1.5zm14.925 5.303 1.061 1.061a1.5 1.5 0 1 1 -2.121 2.121l-1.061-1.061a1.5 1.5 0 1 1 2.121-2.121zm-14.85-10.606-1.061-1.061a1.5 1.5 0 1 1 2.121-2.121l1.061 1.061a1.5 1.5 0 1 1 -2.121 2.121zm14.85 0a1.5 1.5 0 1 1 -2.121-2.121l1.061-1.061a1.5 1.5 0 1 1 2.121 2.121zm-14.85 10.606a1.5 1.5 0 1 1 2.121 2.121l-1.061 1.061a1.5 1.5 0 1 1 -2.121-2.121z"/></svg>