<svg xmlns="http://www.w3.org/2000/svg" width="24" height="24"><path d="M22.553 1.455a4.955 4.955 0 0 0-7.013 0l-4.342 4.354a.758.758 0 0 0 1.072 1.072l4.342-4.354c1.343-1.346 3.525-1.346 4.868 0s1.342 3.536 0 4.883l-5.734 5.752a.763.763 0 0 0 0 1.076.765.765 0 0 0 1.072 0l5.734-5.752a4.99 4.99 0 0 0 0-7.031zM11.629 17.212l-4.241 4.256c-.649.652-1.515 1.013-2.434 1.013s-1.785-.36-2.434-1.013a3.463 3.463 0 0 1 0-4.883l5.734-5.752a.758.758 0 0 0-1.072-1.072l-5.73 5.749a4.984 4.984 0 0 0 0 7.031C2.386 23.482 3.631 24 4.955 24s2.569-.518 3.506-1.455l4.241-4.256a.763.763 0 0 0 0-1.076.758.758 0 0 0-1.072 0zm11.621-3.029l-2.764-.431a.76.76 0 0 0-.232 1.5l2.764.431c.041.008.079.008.12.008a.757.757 0 0 0 .112-1.507zm-4.207 3.149c-.274-.315-.754-.349-1.069-.071s-.349.758-.071 1.073l1.268 1.455a.754.754 0 0 0 1.069.071.759.759 0 0 0 .071-1.072zm-3.563 2.003a.76.76 0 0 0-.911-.563.76.76 0 0 0-.563.915l.701 2.933a.76.76 0 0 0 .915.562.76.76 0 0 0 .559-.915l-.701-2.933zM9.446 4.387c.03 0 .06-.004.094-.007a.755.755 0 0 0 .66-.844L9.866.75a.762.762 0 0 0-.844-.664.754.754 0 0 0-.66.844l.334 2.786c.049.39.375.675.75.671zm-3.78 1.651c.15.184.367.277.589.277a.762.762 0 0 0 .585-1.241L5.708 3.686a.758.758 0 1 0-1.174.96c.004 0 1.133 1.391 1.133 1.391zM1.163 9.045l2.899.806a.758.758 0 0 0 .933-.533.758.758 0 0 0-.529-.934l-2.899-.806a.76.76 0 0 0-.934.529.758.758 0 0 0 .529.938z"/></svg>