<!-- Generated by IcoMoon.io -->
<svg version="1.1" xmlns="http://www.w3.org/2000/svg" width="24" height="24" viewBox="0 0 24 24">
<title>bulb</title>
<path d="M4.364 3.74s1.558 1.247 1.87 1.247h0.312v-0.312c0-0.312-1.247-1.87-1.247-1.87s0-0.312-0.312-0.312-0.623 0.312-0.623 0.312-0.312 0.623 0 0.935c-0.312 0 0 0 0 0zM11.221 2.494h0.623l0.623-1.87v-0.623h-1.558v0.312l0.312 2.182zM17.143 4.987c0.312 0 1.87-1.247 1.87-1.247s0.312 0 0.312-0.312c-0.312 0-0.623-0.623-0.623-0.623s-0.312-0.312-0.623-0.312c-0.312 0-0.312 0.312-0.312 0.312l-0.935 1.558v0.312s0 0.312 0.312 0.312zM4.052 9.974v-0.312l-2.182-0.312h-0.312v1.247h0.312s1.87-0.312 2.182-0.312v-0.312zM5.922 14.961c-0.312 0-1.87 1.247-1.87 1.247s-0.312 0-0.312 0.312 0.312 0.623 0.312 0.623 0.312 0.312 0.623 0.312c0.312 0 0.312-0.312 0.312-0.312l1.558-1.558v-0.312s-0.312-0.312-0.623-0.312zM19.013 16.208s-1.558-1.247-1.87-1.247h-0.312v0.312c0 0.312 1.247 1.87 1.247 1.87s0 0.312 0.312 0.312l0.312-0.312s0.312-0.312 0.312-0.935c0.312 0 0 0 0 0zM21.506 9.351h-0.312s-1.87 0.312-2.182 0.312 0 0.312 0 0.312v0.312l2.182 0.312h0.312v-0.623s0.312-0.623 0-0.623zM17.455 7.169c-1.87-3.74-5.922-3.429-5.922-3.429s-4.052-0.312-5.922 3.74c-1.558 3.74 1.247 6.545 1.247 6.857 0.312 0.312 1.247 1.247 1.247 2.182 0 0 0 0.623 0.623 0.623h5.61c0.623 0 0.623-0.623 0.623-0.623 0-1.247 0.623-1.87 0.935-2.182 0.623-0.312 3.429-3.117 1.558-7.169zM11.532 16.208h-0.623c0-2.494-1.558-6.234-1.558-6.234s0.623 0.312 0.935 0.312h0.312l0.935-0.623 0.935 0.935h0.312l0.935-0.312s-1.558 3.74-1.558 6.234h-0.623zM15.273 13.714s-1.247 1.558-1.247 2.494h-0.935s0-2.494 1.558-6.545c0 0 0.312-0.312 0-0.623s-0.312-0.312-0.623 0-1.247 0.623-1.247 0.623-0.935-0.623-1.247-0.623-0.935 0.935-0.935 0.935-0.935-0.623-1.558-0.935c-0.312-0.312-0.312-0.312-0.623 0s0 0.623 0 0.623c1.558 4.052 1.558 6.545 1.558 6.545h-0.935c0-0.935-1.247-2.494-1.247-2.494s-1.558-1.87-1.558-4.052c0.623-4.987 5.299-4.987 5.299-4.987s4.675 0 5.299 4.987c0.312 2.182-1.558 4.052-1.558 4.052zM15.584 19.325c0-0.312 0-0.623-0.312-0.623 0-0.312-0.312-0.312-0.623-0.312h-5.922c-0.312 0-0.312 0-0.623 0.312-0.312 0-0.623 0.312-0.623 0.623s0.312 0.623 0.623 0.623v0.312c-0.312 0-0.623 0.312-0.623 0.623s0.312 0.623 0.623 0.623c0.312 0.623 0.935 0.935 2.182 1.247 0 0.623 0.623 0.935 1.558 0.935 0.623 0 1.247-0.312 1.558-0.935 0.935-0.312 1.87-0.623 2.182-1.247-0.312 0 0-0.312 0-0.623s0-0.623-0.312-0.623v-0.312c0.312 0 0.312-0.312 0.312-0.623z"></path>
</svg>
