<svg height="24" width="24" xmlns="http://www.w3.org/2000/svg"><path d="M4.364 3.74s1.558 1.247 1.87 1.247h.312v-.312c0-.312-1.247-1.87-1.247-1.87s0-.312-.312-.312-.623.312-.623.312-.312.623 0 .935c-.312 0 0 0 0 0zm6.857-1.246h.623l.623-1.87V.001h-1.558v.312l.312 2.182zm5.922 2.493c.312 0 1.87-1.247 1.87-1.247s.312 0 .312-.312c-.312 0-.623-.623-.623-.623s-.312-.312-.623-.312c-.312 0-.312.312-.312.312l-.935 1.558v.312s0 .312.312.312zM4.052 9.974v-.312L1.87 9.35h-.312v1.247h.312s1.87-.312 2.182-.312v-.312zm1.87 4.987c-.312 0-1.87 1.247-1.87 1.247s-.312 0-.312.312.312.623.312.623.312.312.623.312c.312 0 .312-.312.312-.312l1.558-1.558v-.312s-.312-.312-.623-.312zm13.091 1.247s-1.558-1.247-1.87-1.247h-.312v.312c0 .312 1.247 1.87 1.247 1.87s0 .312.312.312l.312-.312s.312-.312.312-.935zm2.493-6.857h-.312s-1.87.312-2.182.312 0 .312 0 .312v.312l2.182.312h.312v-.623s.312-.623 0-.623zm-4.051-2.182c-1.87-3.74-5.922-3.429-5.922-3.429s-4.052-.312-5.922 3.74c-1.558 3.74 1.247 6.545 1.247 6.857.312.312 1.247 1.247 1.247 2.182 0 0 0 .623.623.623h5.61c.623 0 .623-.623.623-.623 0-1.247.623-1.87.935-2.182.623-.312 3.429-3.117 1.558-7.169zm-5.923 9.039h-.623c0-2.494-1.558-6.234-1.558-6.234s.623.312.935.312h.312l.935-.623.935.935h.312l.935-.312s-1.558 3.74-1.558 6.234h-.623zm3.741-2.494s-1.247 1.558-1.247 2.494h-.935s0-2.494 1.558-6.545c0 0 .312-.312 0-.623s-.312-.312-.623 0-1.247.623-1.247.623-.935-.623-1.247-.623-.935.935-.935.935-.935-.623-1.558-.935c-.312-.312-.312-.312-.623 0s0 .623 0 .623c1.558 4.052 1.558 6.545 1.558 6.545h-.935c0-.935-1.247-2.494-1.247-2.494s-1.558-1.87-1.558-4.052c.623-4.987 5.299-4.987 5.299-4.987s4.675 0 5.299 4.987c.312 2.182-1.558 4.052-1.558 4.052zm.311 5.611c0-.312 0-.623-.312-.623 0-.312-.312-.312-.623-.312H8.727c-.312 0-.312 0-.623.312-.312 0-.623.312-.623.623s.312.623.623.623v.312c-.312 0-.623.312-.623.623s.312.623.623.623c.312.623.935.935 2.182 1.247 0 .623.623.935 1.558.935.623 0 1.247-.312 1.558-.935.935-.312 1.87-.623 2.182-1.247-.312 0 0-.312 0-.623s0-.623-.312-.623v-.312c.312 0 .312-.312.312-.623z"/></svg>