<!-- Generated by IcoMoon.io -->
<svg version="1.1" xmlns="http://www.w3.org/2000/svg" width="24" height="24" viewBox="0 0 24 24">
<title>bullet-list</title>
<path d="M5.651 3.836h17.194c0.424 0 0.765-0.341 0.765-0.765s-0.341-0.765-0.765-0.765h-17.194c-0.424 0-0.765 0.341-0.765 0.765 0 0.42 0.341 0.765 0.765 0.765zM22.845 11.261h-17.194c-0.424 0-0.765 0.341-0.765 0.765s0.341 0.765 0.765 0.765h17.194c0.424 0 0.765-0.345 0.765-0.765s-0.341-0.765-0.765-0.765zM22.845 20.239h-17.194c-0.424 0-0.765 0.341-0.765 0.765s0.341 0.765 0.765 0.765h17.194c0.424 0 0.765-0.345 0.765-0.765 0-0.424-0.341-0.765-0.765-0.765zM1.718 4.676c0.904 0 1.639-0.735 1.639-1.639s-0.731-1.639-1.639-1.639c-0.904 0-1.639 0.731-1.639 1.639 0 0.904 0.731 1.639 1.639 1.639zM1.718 13.624c0.904 0 1.639-0.735 1.639-1.639s-0.731-1.639-1.639-1.639c-0.904 0-1.639 0.731-1.639 1.639s0.731 1.639 1.639 1.639zM1.718 19.361c-0.907 0-1.639 0.735-1.639 1.639 0 0.907 0.731 1.639 1.639 1.639 0.904 0 1.639-0.731 1.639-1.639-0.004-0.904-0.735-1.639-1.639-1.639z"></path>
</svg>
