<svg xmlns="http://www.w3.org/2000/svg" width="24" height="24"><path d="M5.651 3.836h17.194c.424 0 .765-.341.765-.765s-.341-.765-.765-.765H5.651a.766.766 0 0 0 0 1.53zm17.194 7.425H5.651c-.424 0-.765.341-.765.765s.341.765.765.765h17.194a.766.766 0 0 0 0-1.53zm0 8.978H5.651c-.424 0-.765.341-.765.765s.341.765.765.765h17.194a.766.766 0 0 0 0-1.53zM1.718 4.676A1.638 1.638 0 1 0 .079 3.037c0 .904.731 1.639 1.639 1.639zm0 8.948a1.638 1.638 0 1 0-1.639-1.639c0 .908.731 1.639 1.639 1.639zm0 5.737a1.639 1.639 0 1 0 0 3.277 1.639 1.639 0 0 0 0-3.277z"/></svg>