<!-- Generated by IcoMoon.io -->
<svg version="1.1" xmlns="http://www.w3.org/2000/svg" width="24" height="24" viewBox="0 0 24 24">
<title>bus</title>
<path d="M23.688 4.675h-0.623v-0.312c-0.312-1.247-1.87-1.247-1.87-1.247h-0.312v-0.312c0-0.623-0.935-0.935-0.935-0.935s-4.052-0.935-7.792-1.247c-4.052 0-7.792 0.935-8.416 1.247s-0.623 0.935-0.623 0.935v0.312h-0.312c-1.558 0-1.87 1.247-1.87 1.247v0.312h-0.623c-0.312 0-0.312 0.623-0.312 0.623v3.429c0 0.312 0.312 0.623 0.312 0.623h0.623v0.935c0 1.87 1.558 2.182 1.558 2.182h0.623v7.792c0 0.623 0.935 0.935 0.935 0.935h0.312v2.494h2.494v-2.805h9.662v2.494h2.494v-2.494h0.623c0.935 0 0.935-0.935 0.935-0.935v-7.792h0.623c1.558-0.312 1.558-2.182 1.558-2.182v-0.935h0.623c0.312 0 0.312-0.312 0.312-0.312v-3.429c0.312-0.623 0-0.623 0-0.623zM3.117 11.532h-0.623s-0.935 0-1.247-1.558v-0.935h0.312s0.312 0 0.312-0.623v-3.429s0-0.312-0.312-0.312c0 0-0.312-0.623 0.935-0.935h0.623v7.792zM5.61 19.013c-0.312 0-0.623-0.312-0.623-0.623s0.312-0.623 0.623-0.623c0.312 0 0.623 0.312 0.623 0.623s0 0.623-0.623 0.623zM9.039 17.143h-4.675v-2.805s2.805 0 4.675 0.935v1.87zM14.026 18.701h-3.74v-0.623h3.74v0.623zM14.026 17.766h-3.74v-0.623h3.74v0.623zM14.026 16.519h-3.74v-0.623h3.74v0.623zM14.026 15.584h-3.74v-0.623h3.74v0.623zM14.026 14.649h-3.74v-0.623h3.74v0.623zM18.39 19.013c-0.312 0-0.623-0.312-0.623-0.623s0.312-0.623 0.623-0.623 0.623 0.312 0.623 0.623-0.312 0.623-0.623 0.623zM19.636 17.143h-4.675v-1.87c1.87-0.935 4.675-0.935 4.675-0.935v2.805zM19.948 13.091h-1.558v-0.312s0-0.312-0.623-0.623c0.312-0.312 0.312-0.312 0.312-0.623 0-0.623-0.312-0.935-0.935-0.935s-0.935 0.312-0.935 0.935c0 0.312 0.312 0.623 0.312 0.935 0 0-0.312 0.312-0.623 0.312v0.312h-11.532v-8.416s7.792-1.87 15.584 0v8.416zM22.442 4.675h-0.312c-0.312 0-0.312 0.312-0.312 0.312v3.429c0 0.312 0.312 0.312 0.312 0.312h0.312v0.623c0 1.558-0.935 1.558-0.935 1.558h-0.623v-7.169h0.623c1.247 0.312 0.935 0.935 0.935 0.935z"></path>
</svg>
