<svg height="24" viewBox="0 0 24 24" width="24" xmlns="http://www.w3.org/2000/svg"><path d="m23.688 4.675h-.623v-.312c-.312-1.247-1.87-1.247-1.87-1.247h-.312v-.312c0-.623-.935-.935-.935-.935s-4.052-.935-7.792-1.247c-4.052 0-7.792.935-8.416 1.247s-.623.935-.623.935v.312h-.312c-1.558 0-1.87 1.247-1.87 1.247v.312h-.623c-.312 0-.312.623-.312.623v3.429c0 .312.312.623.312.623h.623v.935c0 1.87 1.558 2.182 1.558 2.182h.623v7.792c0 .623.935.935.935.935h.312v2.494h2.494v-2.805h9.662v2.494h2.494v-2.494h.623c.935 0 .935-.935.935-.935v-7.792h.623c1.558-.312 1.558-2.182 1.558-2.182v-.935h.623c.312 0 .312-.312.312-.312v-3.429c.312-.623 0-.623 0-.623zm-20.571 6.857h-.623s-.935 0-1.247-1.558v-.935h.312s.312 0 .312-.623v-3.429s0-.312-.312-.312c0 0-.312-.623.935-.935h.623zm2.493 7.481c-.312 0-.623-.312-.623-.623s.312-.623.623-.623c.312 0 .623.312.623.623s0 .623-.623.623zm3.429-1.87h-4.675v-2.805s2.805 0 4.675.935zm4.987 1.558h-3.74v-.623h3.74zm0-.935h-3.74v-.623h3.74zm0-1.247h-3.74v-.623h3.74zm0-.935h-3.74v-.623h3.74zm0-.935h-3.74v-.623h3.74zm4.364 4.364c-.312 0-.623-.312-.623-.623s.312-.623.623-.623.623.312.623.623-.312.623-.623.623zm1.246-1.87h-4.675v-1.87c1.87-.935 4.675-.935 4.675-.935zm.312-4.052h-1.558v-.312s0-.312-.623-.623c.312-.312.312-.312.312-.623 0-.623-.312-.935-.935-.935s-.935.312-.935.935c0 .312.312.623.312.935 0 0-.312.312-.623.312v.312h-11.532v-8.416s7.792-1.87 15.584 0v8.416zm2.494-8.416h-.312c-.312 0-.312.312-.312.312v3.429c0 .312.312.312.312.312h.312v.623c0 1.558-.935 1.558-.935 1.558h-.623v-7.169h.623c1.247.312.935.935.935.935z"/></svg>