<!-- Generated by IcoMoon.io -->
<svg version="1.1" xmlns="http://www.w3.org/2000/svg" width="24" height="24" viewBox="0 0 24 24">
<title>calendar1</title>
<path d="M20.25 2.25h-3v-0.75c0-0.45-0.3-0.75-0.75-0.75s-0.75 0.3-0.75 0.75v0.75h-7.499v-0.75c0-0.45-0.3-0.75-0.75-0.75s-0.75 0.3-0.75 0.75v0.75h-3.002c-2.1 0-3.75 1.65-3.75 3.75v13.5c0 2.1 1.65 3.75 3.75 3.75h16.5c2.1 0 3.75-1.65 3.75-3.75v-13.499c0.001-2.101-1.649-3.751-3.749-3.751zM1.5 6c0-1.2 1.050-2.25 2.25-2.25h3v0.75c0 0.45 0.3 0.75 0.75 0.75s0.75-0.3 0.75-0.75v-0.75h7.5v0.75c0 0.45 0.3 0.75 0.75 0.75s0.75-0.3 0.75-0.75v-0.75h3c1.2 0 2.25 1.050 2.25 2.25v2.25h-20.999zM22.5 19.5c0 1.2-1.050 2.25-2.25 2.25h-16.501c-1.2 0-2.25-1.050-2.25-2.25v-9.75h21zM5.25 19.5c0.45 0 0.75-0.15 1.050-0.45s0.45-0.75 0.45-1.050-0.15-0.75-0.45-1.050c-0.6-0.6-1.5-0.6-2.1 0-0.3 0.3-0.45 0.6-0.45 1.050 0 0.3 0.15 0.75 0.45 1.050s0.6 0.45 1.050 0.45zM5.25 15c0.45 0 0.75-0.15 1.050-0.45s0.45-0.75 0.45-1.050-0.15-0.75-0.45-1.050c-0.6-0.6-1.5-0.6-2.1 0-0.3 0.3-0.45 0.6-0.45 1.050s0.15 0.75 0.45 1.050 0.6 0.45 1.050 0.45zM9.75 19.5c0.45 0 0.75-0.15 1.050-0.45s0.45-0.75 0.45-1.050-0.15-0.75-0.45-1.050c-0.6-0.6-1.5-0.6-2.1 0-0.3 0.3-0.45 0.75-0.45 1.050s0.15 0.75 0.45 1.050 0.6 0.45 1.050 0.45zM9.75 15c0.45 0 0.75-0.15 1.050-0.45s0.45-0.75 0.45-1.050-0.15-0.75-0.45-1.050c-0.6-0.6-1.5-0.6-2.1 0-0.3 0.3-0.45 0.75-0.45 1.050s0.15 0.75 0.45 1.050 0.6 0.45 1.050 0.45zM14.25 19.5c0.45 0 0.75-0.15 1.050-0.45s0.45-0.6 0.45-1.050-0.15-0.75-0.45-1.050c-0.6-0.6-1.5-0.6-2.1 0-0.3 0.3-0.45 0.75-0.45 1.050s0.15 0.75 0.45 1.050 0.6 0.45 1.050 0.45zM14.25 15c0.45 0 0.75-0.15 1.050-0.45s0.45-0.6 0.45-1.050c0-0.3-0.15-0.75-0.45-1.050-0.6-0.6-1.5-0.6-2.1 0-0.3 0.3-0.45 0.75-0.45 1.050s0.15 0.75 0.45 1.050 0.6 0.45 1.050 0.45zM18.75 19.5c0.45 0 0.75-0.15 1.050-0.45s0.45-0.75 0.45-1.050-0.15-0.75-0.45-1.050c-0.6-0.6-1.5-0.6-2.1 0-0.3 0.3-0.45 0.6-0.45 1.050 0 0.3 0.15 0.75 0.45 1.050s0.6 0.45 1.050 0.45zM18.75 15c0.45 0 0.75-0.15 1.050-0.45s0.45-0.6 0.45-1.050c0-0.3-0.15-0.75-0.45-1.050-0.6-0.6-1.5-0.6-2.1 0-0.3 0.3-0.45 0.75-0.45 1.050s0.15 0.75 0.45 1.050 0.6 0.45 1.050 0.45z"></path>
</svg>
