<svg xmlns="http://www.w3.org/2000/svg" width="24" height="24"><path d="M20.25 2.25h-3V1.5c0-.45-.3-.75-.75-.75s-.75.3-.75.75v.75H8.251V1.5c0-.45-.3-.75-.75-.75s-.75.3-.75.75v.75H3.749c-2.1 0-3.75 1.65-3.75 3.75v13.5c0 2.1 1.65 3.75 3.75 3.75h16.5c2.1 0 3.75-1.65 3.75-3.75V6.001A3.712 3.712 0 0 0 20.25 2.25zM1.5 6c0-1.2 1.05-2.25 2.25-2.25h3v.75c0 .45.3.75.75.75s.75-.3.75-.75v-.75h7.5v.75c0 .45.3.75.75.75s.75-.3.75-.75v-.75h3c1.2 0 2.25 1.05 2.25 2.25v2.25H1.501zm21 13.5c0 1.2-1.05 2.25-2.25 2.25H3.749c-1.2 0-2.25-1.05-2.25-2.25V9.75h21zm-17.25 0c.45 0 .75-.15 1.05-.45s.45-.75.45-1.05-.15-.75-.45-1.05c-.6-.6-1.5-.6-2.1 0-.3.3-.45.6-.45 1.05 0 .3.15.75.45 1.05s.6.45 1.05.45zm0-4.5c.45 0 .75-.15 1.05-.45s.45-.75.45-1.05-.15-.75-.45-1.05c-.6-.6-1.5-.6-2.1 0-.3.3-.45.6-.45 1.05s.15.75.45 1.05.6.45 1.05.45zm4.5 4.5c.45 0 .75-.15 1.05-.45s.45-.75.45-1.05-.15-.75-.45-1.05c-.6-.6-1.5-.6-2.1 0-.3.3-.45.75-.45 1.05s.15.75.45 1.05.6.45 1.05.45zm0-4.5c.45 0 .75-.15 1.05-.45s.45-.75.45-1.05-.15-.75-.45-1.05c-.6-.6-1.5-.6-2.1 0-.3.3-.45.75-.45 1.05s.15.75.45 1.05.6.45 1.05.45zm4.5 4.5c.45 0 .75-.15 1.05-.45s.45-.6.45-1.05-.15-.75-.45-1.05c-.6-.6-1.5-.6-2.1 0-.3.3-.45.75-.45 1.05s.15.75.45 1.05.6.45 1.05.45zm0-4.5c.45 0 .75-.15 1.05-.45s.45-.6.45-1.05c0-.3-.15-.75-.45-1.05-.6-.6-1.5-.6-2.1 0-.3.3-.45.75-.45 1.05s.15.75.45 1.05.6.45 1.05.45zm4.5 4.5c.45 0 .75-.15 1.05-.45s.45-.75.45-1.05-.15-.75-.45-1.05c-.6-.6-1.5-.6-2.1 0-.3.3-.45.6-.45 1.05 0 .3.15.75.45 1.05s.6.45 1.05.45zm0-4.5c.45 0 .75-.15 1.05-.45s.45-.6.45-1.05c0-.3-.15-.75-.45-1.05-.6-.6-1.5-.6-2.1 0-.3.3-.45.75-.45 1.05s.15.75.45 1.05.6.45 1.05.45z"/></svg>