<svg xmlns="http://www.w3.org/2000/svg" width="24" height="24"><path d="M11.221 10.286H9.663c-.312 0-.623 0-.935.312-.623 0-1.247.935-1.558 1.558-.935 1.87.623 3.74 1.87 4.052.312 0 .935.312 1.558.312.935-.312 1.87-.935 2.494-1.87.623-1.87-.312-3.74-1.87-4.364zm9.662-.312c1.558-.623 1.247-2.805-.623-2.805h-.312c-.312 0-.623.623-.623.935-.623.935.312 1.87 1.558 1.87zm-2.493 6.545h-.623c-.312 0-.935-.623-.935-1.247 0-.312.312-.623.935-.623h.623c.312 0 .623-.312.623-.935 0-.312.312-.623 0-.935 0 0 0-.312-.312-.312-.312-1.247-3.74.312-4.052-1.247v-.623c.312-.623 1.247-.623 2.182-.623h.623c.623 0 1.247-.623.935-1.558 0-.623-.623-.935-1.247-1.247-.935-.312-2.182.312-3.117 0-.623-.312-.623-1.87-1.247-2.182-.935-.623-3.117-.312-4.675-.312-.312 0-.623 0-.935.623-.623.623-.623 1.558-1.247 1.87s-2.182 0-2.805 0h-.623c-1.247.312-2.182.935-2.494 1.87v3.74c0 1.87-.312 4.675.623 5.61s2.182.935 4.052.935H16.83c.935 0 1.87 0 2.494-.312-.312 0 0-.312 0-.312.623-.935 0-1.87-.935-2.182zm-4.052-2.493c0 .312-.312.623-.312.935-.623 1.247-1.558 1.87-2.494 2.182-.312 0-.623 0-1.247.312-.623 0-1.247 0-1.87-.312-1.247-.623-1.87-1.558-2.494-3.429 0-.623 0-1.558.312-1.87.312-.935 1.247-1.87 2.182-2.494h1.247c2.182 0 3.429 1.247 4.052 2.805.623.312.623 1.247.623 1.87zm8.727-2.182h-1.87c-.623.312-.935.312-1.247.623-.312.935.312 1.87.935 2.182h2.182c.312 0 .623-.312.623-.623.623-.935 0-1.87-.623-2.182z"/></svg>