<!-- Generated by IcoMoon.io -->
<svg version="1.1" xmlns="http://www.w3.org/2000/svg" width="24" height="24" viewBox="0 0 24 24">
<title>camera11</title>
<path d="M11.221 10.286h-1.558c-0.312 0-0.623 0-0.935 0.312-0.623 0-1.247 0.935-1.558 1.558-0.935 1.87 0.623 3.74 1.87 4.052 0.312 0 0.935 0.312 1.558 0.312 0.935-0.312 1.87-0.935 2.494-1.87 0.623-1.87-0.312-3.74-1.87-4.364zM20.883 9.974c1.558-0.623 1.247-2.805-0.623-2.805h-0.312c-0.312 0-0.623 0.623-0.623 0.935-0.623 0.935 0.312 1.87 1.558 1.87zM18.39 16.519h-0.623c-0.312 0-0.935-0.623-0.935-1.247 0-0.312 0.312-0.623 0.935-0.623h0.623c0.312 0 0.623-0.312 0.623-0.935 0-0.312 0.312-0.623 0-0.935 0 0 0-0.312-0.312-0.312-0.312-1.247-3.74 0.312-4.052-1.247v-0.623c0.312-0.623 1.247-0.623 2.182-0.623h0.623c0.623 0 1.247-0.623 0.935-1.558 0-0.623-0.623-0.935-1.247-1.247-0.935-0.312-2.182 0.312-3.117 0-0.623-0.312-0.623-1.87-1.247-2.182-0.935-0.623-3.117-0.312-4.675-0.312-0.312 0-0.623 0-0.935 0.623-0.623 0.623-0.623 1.558-1.247 1.87s-2.182 0-2.805 0h-0.623c-1.247 0.312-2.182 0.935-2.494 1.87v3.74c0 1.87-0.312 4.675 0.623 5.61s2.182 0.935 4.052 0.935h12.156c0.935 0 1.87 0 2.494-0.312-0.312 0 0-0.312 0-0.312 0.623-0.935 0-1.87-0.935-2.182zM14.338 14.026c0 0.312-0.312 0.623-0.312 0.935-0.623 1.247-1.558 1.87-2.494 2.182-0.312 0-0.623 0-1.247 0.312-0.623 0-1.247 0-1.87-0.312-1.247-0.623-1.87-1.558-2.494-3.429 0-0.623 0-1.558 0.312-1.87 0.312-0.935 1.247-1.87 2.182-2.494h1.247c2.182 0 3.429 1.247 4.052 2.805 0.623 0.312 0.623 1.247 0.623 1.87zM23.065 11.844h-1.87c-0.623 0.312-0.935 0.312-1.247 0.623-0.312 0.935 0.312 1.87 0.935 2.182h2.182c0.312 0 0.623-0.312 0.623-0.623 0.623-0.935 0-1.87-0.623-2.182z"></path>
</svg>
