<svg xmlns="http://www.w3.org/2000/svg" width="24" height="24"><path d="M11.93 8.772c-2.386 0-4.21 1.824-4.21 4.21s1.824 4.21 4.21 4.21 4.21-1.824 4.21-4.21-1.824-4.21-4.21-4.21zm0 7.017c-1.544 0-2.807-1.263-2.807-2.807s1.263-2.807 2.807-2.807 2.807 1.263 2.807 2.807-1.263 2.807-2.807 2.807zm9.965-10.105h-3.368c-.421 0-.702-.281-.702-.702v-.281c0-1.123-.982-2.105-2.105-2.105H8.281c-1.123 0-2.105.982-2.105 2.105v.281c0 .421-.281.702-.702.702H2.105C.982 5.684 0 6.667 0 7.79v11.509c0 1.123.982 2.105 2.105 2.105h19.649c1.123 0 2.105-.982 2.245-2.105V7.79c0-1.124-.982-2.106-2.105-2.106zm.561 13.615c0 .421-.281.702-.702.702H2.105c-.421 0-.702-.281-.702-.702V7.79c0-.421.281-.702.702-.702h3.228c1.123 0 2.105-.982 2.105-2.105v-.281c0-.421.281-.702.702-.702h7.439c.421 0 .702.281.702.702v.281c0 1.123.982 2.105 2.105 2.105h3.368c.421 0 .702.281.702.702z"/></svg>