<!-- Generated by IcoMoon.io -->
<svg version="1.1" xmlns="http://www.w3.org/2000/svg" width="24" height="24" viewBox="0 0 24 24">
<title>camera1</title>
<path d="M11.93 8.772c-2.386 0-4.21 1.824-4.21 4.21s1.824 4.21 4.21 4.21 4.21-1.824 4.21-4.21-1.824-4.21-4.21-4.21zM11.93 15.789c-1.544 0-2.807-1.263-2.807-2.807s1.263-2.807 2.807-2.807 2.807 1.263 2.807 2.807-1.263 2.807-2.807 2.807zM21.895 5.684h-3.368c-0.421 0-0.702-0.281-0.702-0.702v-0.281c0-1.123-0.982-2.105-2.105-2.105h-7.439c-1.123 0-2.105 0.982-2.105 2.105v0.281c0 0.421-0.281 0.702-0.702 0.702h-3.369c-1.123 0-2.105 0.983-2.105 2.106v11.509c0 1.123 0.982 2.105 2.105 2.105h19.649c1.123 0 2.105-0.982 2.245-2.105v-11.509c0-1.124-0.982-2.106-2.105-2.106zM22.456 19.299c0 0.421-0.281 0.702-0.702 0.702h-19.649c-0.421 0-0.702-0.281-0.702-0.702v-11.509c0-0.421 0.281-0.702 0.702-0.702h3.228c1.123 0 2.105-0.982 2.105-2.105v-0.281c0-0.421 0.281-0.702 0.702-0.702h7.439c0.421 0 0.702 0.281 0.702 0.702v0.281c0 1.123 0.982 2.105 2.105 2.105h3.368c0.421 0 0.702 0.281 0.702 0.702z"></path>
</svg>
