<!-- Generated by IcoMoon.io -->
<svg version="1.1" xmlns="http://www.w3.org/2000/svg" width="24" height="24" viewBox="0 0 24 24">
<title>car</title>
<path d="M4.987 14.026v-0.623c-0.312 0-0.312 0-0.312 0.312l0.312 0.312zM4.987 14.338c0 0.312 0 0.312 0 0 0.312 0.312 0.312 0 0.312 0h-0.312zM5.299 15.584h0.623l-0.623-0.623v0.623zM5.61 14.338l0.623-0.623v0.623h-0.623zM5.299 13.403v0.623l0.312-0.312c0-0.312 0-0.312-0.312-0.312zM4.675 14.338c0.312 0 0.312 0 0 0 0.312 0.312 0.312 0.312 0 0 0 0.312 0 0.312 0 0zM5.299 14.026s0 0.312 0 0c0 0.312 0 0 0 0zM5.299 12.468c-1.247 0-1.87 0.935-1.87 1.87s0.935 1.87 1.87 1.87 1.87-0.623 1.87-1.87-0.935-1.87-1.87-1.87zM5.299 15.896c-0.935 0-1.558-0.623-1.558-1.558s0.623-1.558 1.558-1.558 1.558 0.623 1.558 1.558c-0.312 0.935-0.935 1.558-1.558 1.558zM5.61 14.649c0-0.312 0-0.312 0 0 0-0.312 0-0.312 0 0zM4.987 15.584v-0.623l-0.312 0.623h0.312zM4.364 13.714l-0.312 0.312h0.623l-0.312-0.312zM4.052 14.649c0 0.312 0 0.312 0.312 0.312l0.312-0.312h-0.623zM6.234 15.273v-0.623h-0.623l0.623 0.623zM21.506 15.273l0.312-0.312h-0.935l0.623 0.312zM20.571 15.584h0.623l-0.623-0.623v0.623zM20.26 14.338c0 0.312 0 0.312 0 0 0.312 0.312 0.312 0 0.312 0h-0.312zM20.26 14.961c0.312 0 0.312 0 0 0 0.312 0 0.312 0 0 0zM24 12.468s0-0.312-1.247-0.935c-3.117-0.935-5.61-0.623-5.61-0.623s-2.494-1.558-4.364-2.182c-2.182-0.623-5.299-0.312-5.299-0.312h-0.312c-0.312-0.312-0.623 0-0.623 0v0.312c-1.247 0.312-3.74 1.558-3.74 1.558h-2.182l-0.312 0.312v1.558c-0.312 0-0.312 0.312-0.312 0.312v1.247l0.623 0.623c0.312 0.312 1.87 0.312 2.494 0.312v-0.312c0-0.935 0.935-1.87 2.182-1.87s2.182 0.935 2.182 2.182v0.623h11.221v-0.623c-0.312-1.247 0.623-2.182 1.558-2.182s2.182 0.935 2.182 2.182v0.623h0.935c0.623 0 0.623-0.312 0.623-0.623v-2.182zM6.545 10.909c-0.623 0-0.935-0.312-0.935-0.312s-0.312-0.312 0-0.935c1.247-0.935 4.675-0.935 4.675-0.935l0.312 2.182h-4.052zM14.961 10.909h-3.429l-0.623-2.182s0.935 0 2.182 0.312c0.935 0.312 2.182 1.247 2.182 1.247-0.623 0-0.312 0.623-0.312 0.623zM20.26 12.468c-0.935 0-1.87 0.935-1.87 1.87s0.935 1.87 1.87 1.87 2.182-0.623 2.182-1.87-0.935-1.87-2.182-1.87zM20.26 15.896c-0.935 0-1.558-0.623-1.558-1.558s0.623-1.558 1.558-1.558 1.558 0.935 1.558 1.558c0 0.935-0.623 1.558-1.558 1.558zM20.883 14.338h0.623c0-0.312 0-0.312-0.312-0.312l-0.312 0.312zM19.325 13.714l-0.312 0.312h0.623l-0.312-0.312zM20.571 14.026c-0.312 0-0.312 0 0 0-0.312 0-0.312 0.312 0 0 0 0.312 0 0 0 0zM20.571 13.403v0.623l0.312-0.312c0-0.312 0-0.312-0.312-0.312zM20.26 14.026v-0.623c-0.312 0-0.312 0-0.312 0.312l0.312 0.312zM20.883 14.649c0-0.312 0-0.312 0 0 0-0.312 0-0.312 0 0zM19.948 14.338c0 0.312 0 0.312 0 0 0 0.312 0 0.312 0 0zM20.26 15.584h-0.623l0.623-0.623v0.623zM19.325 14.649c0 0.312 0 0.312 0.312 0.312l0.312-0.312h-0.623z"></path>
</svg>
