<svg height="24" viewBox="0 0 24 24" width="24" xmlns="http://www.w3.org/2000/svg"><path d="m4.987 14.026v-.623c-.312 0-.312 0-.312.312l.312.312zm0 .312c0 .312 0 .312 0 0 .312.312.312 0 .312 0zm.312 1.246h.623l-.623-.623zm.311-1.246.623-.623v.623zm-.311-.935v.623l.312-.312c0-.312 0-.312-.312-.312zm-.624.935c.312 0 .312 0 0 0 .312.312.312.312 0 0 0 .312 0 .312 0 0zm.624-.312s0 .312 0 0zm0-1.558c-1.247 0-1.87.935-1.87 1.87s.935 1.87 1.87 1.87 1.87-.623 1.87-1.87-.935-1.87-1.87-1.87zm0 3.428c-.935 0-1.558-.623-1.558-1.558s.623-1.558 1.558-1.558 1.558.623 1.558 1.558c-.312.935-.935 1.558-1.558 1.558zm.311-1.247c0-.312 0-.312 0 0zm-.623.935v-.623l-.312.623zm-.623-1.87-.312.312h.623l-.312-.312zm-.312.935c0 .312 0 .312.312.312l.312-.312h-.623zm2.182.624v-.623h-.623zm15.272 0 .312-.312h-.935zm-.935.311h.623l-.623-.623zm-.311-1.246c0 .312 0 .312 0 0 .312.312.312 0 .312 0zm0 .623c.312 0 .312 0 0 0zm3.74-2.493s0-.312-1.247-.935c-3.117-.935-5.61-.623-5.61-.623s-2.494-1.558-4.364-2.182c-2.182-.623-5.299-.312-5.299-.312h-.312c-.312-.312-.623 0-.623 0v.312c-1.247.312-3.74 1.558-3.74 1.558h-2.182l-.312.312v1.558c-.312 0-.312.312-.312.312v1.247l.623.623c.312.312 1.87.312 2.494.312v-.312c0-.935.935-1.87 2.182-1.87s2.182.935 2.182 2.182v.623h11.221v-.623c-.312-1.247.623-2.182 1.558-2.182s2.182.935 2.182 2.182v.623h.935c.623 0 .623-.312.623-.623v-2.182zm-17.455-1.559c-.623 0-.935-.312-.935-.312s-.312-.312 0-.935c1.247-.935 4.675-.935 4.675-.935l.312 2.182zm8.416 0h-3.429l-.623-2.182s.935 0 2.182.312c.935.312 2.182 1.247 2.182 1.247-.623 0-.312.623-.312.623zm5.299 1.559c-.935 0-1.87.935-1.87 1.87s.935 1.87 1.87 1.87 2.182-.623 2.182-1.87-.935-1.87-2.182-1.87zm0 3.428c-.935 0-1.558-.623-1.558-1.558s.623-1.558 1.558-1.558 1.558.935 1.558 1.558c0 .935-.623 1.558-1.558 1.558zm.623-1.558h.623c0-.312 0-.312-.312-.312l-.312.312zm-1.558-.624-.312.312h.623l-.312-.312zm1.246.312c-.312 0-.312 0 0 0-.312 0-.312.312 0 0zm0-.623v.623l.312-.312c0-.312 0-.312-.312-.312zm-.311.623v-.623c-.312 0-.312 0-.312.312l.312.312zm.623.623c0-.312 0-.312 0 0zm-.935-.311c0 .312 0 .312 0 0zm.312 1.246h-.623l.623-.623zm-.935-.935c0 .312 0 .312.312.312l.312-.312h-.623z"/></svg>