<svg xmlns="http://www.w3.org/2000/svg" width="24" height="24"><path d="M7.205 15.802h13.224a2.729 2.729 0 0 0 2.723-2.723V7.456c0-.01 0-.02-.005-.03 0-.01-.005-.025-.005-.035s-.005-.02-.005-.03c-.005-.01-.005-.02-.01-.035-.005-.01-.005-.02-.01-.03s-.005-.02-.01-.03-.01-.02-.015-.035c-.005-.01-.01-.02-.015-.025l-.015-.03-.015-.025c-.005-.01-.015-.02-.02-.03s-.01-.015-.02-.025c-.005-.01-.015-.015-.02-.025s-.015-.015-.02-.025-.015-.015-.02-.02l-.025-.025c-.01-.005-.015-.015-.025-.02s-.02-.015-.03-.02l-.025-.015a.105.105 0 0 1-.03-.02l-.03-.015-.03-.015-.03-.015c-.01-.005-.02-.005-.03-.01s-.025-.01-.035-.01-.02-.005-.025-.005c-.015-.005-.025-.005-.039-.005-.005 0-.01-.005-.02-.005L5.812 4.533V2.195c0-.025 0-.049-.005-.069 0-.005 0-.01-.005-.02 0-.015-.005-.03-.005-.044-.005-.015-.005-.025-.01-.039 0-.01-.005-.015-.005-.025a2.232 2.232 0 0 0-.015-.044c0-.005-.005-.015-.005-.02a.131.131 0 0 0-.02-.039c-.005-.005-.005-.015-.01-.02a.105.105 0 0 0-.02-.03l-.015-.025-.015-.025c-.005-.01-.015-.02-.02-.03l-.015-.015-.03-.03-.015-.015a.217.217 0 0 0-.035-.03c-.005-.005-.015-.01-.02-.015-.01-.01-.02-.015-.03-.025l-.039-.025c-.005-.005-.01-.005-.015-.01l-.064-.03L1.764.041a.665.665 0 1 0-.518 1.228L4.472 2.63v14.59a2.726 2.726 0 0 0 2.373 2.698 2.686 2.686 0 0 0-.385 1.381c0 1.485 1.208 2.688 2.688 2.688s2.688-1.208 2.688-2.688c0-.493-.133-.962-.37-1.356h5.988c-.237.4-.37.863-.37 1.356 0 1.485 1.208 2.688 2.688 2.688s2.688-1.208 2.688-2.688-1.208-2.688-2.688-2.688H7.194a1.393 1.393 0 0 1-1.391-1.391v-1.805a2.75 2.75 0 0 0 1.391.375zm3.315 5.505c0 .75-.612 1.356-1.356 1.356s-1.356-.612-1.356-1.356.612-1.356 1.356-1.356 1.356.607 1.356 1.356zm10.624 0c0 .75-.612 1.356-1.356 1.356s-1.356-.612-1.356-1.356.612-1.356 1.356-1.356 1.356.607 1.356 1.356zm-.715-6.837H7.205a1.393 1.393 0 0 1-1.391-1.391V5.882L21.82 8.087v4.987c0 .774-.626 1.396-1.391 1.396z"/></svg>