<!-- Generated by IcoMoon.io -->
<svg version="1.1" xmlns="http://www.w3.org/2000/svg" width="24" height="24" viewBox="0 0 24 24">
<title>cart1</title>
<path d="M7.205 15.802h13.224c1.499 0 2.723-1.223 2.723-2.723v-5.564c0-0.005 0-0.015 0-0.020 0-0.015 0-0.025 0-0.039 0-0.010 0-0.020-0.005-0.030 0-0.010-0.005-0.025-0.005-0.035s-0.005-0.020-0.005-0.030c-0.005-0.010-0.005-0.020-0.010-0.035-0.005-0.010-0.005-0.020-0.010-0.030s-0.005-0.020-0.010-0.030-0.010-0.020-0.015-0.035c-0.005-0.010-0.010-0.020-0.015-0.025-0.005-0.010-0.010-0.020-0.015-0.030s-0.010-0.015-0.015-0.025-0.015-0.020-0.020-0.030-0.010-0.015-0.020-0.025c-0.005-0.010-0.015-0.015-0.020-0.025s-0.015-0.015-0.020-0.025-0.015-0.015-0.020-0.020c-0.010-0.010-0.015-0.015-0.025-0.025-0.010-0.005-0.015-0.015-0.025-0.020s-0.020-0.015-0.030-0.020-0.015-0.010-0.025-0.015-0.020-0.010-0.030-0.020c-0.010-0.005-0.020-0.010-0.030-0.015s-0.020-0.010-0.030-0.015-0.020-0.010-0.030-0.015-0.020-0.005-0.030-0.010-0.025-0.010-0.035-0.010-0.020-0.005-0.025-0.005c-0.015-0.005-0.025-0.005-0.039-0.005-0.005 0-0.010-0.005-0.020-0.005l-16.761-2.313v-2.338c0-0.025 0-0.049-0.005-0.069 0-0.005 0-0.010-0.005-0.020 0-0.015-0.005-0.030-0.005-0.044-0.005-0.015-0.005-0.025-0.010-0.039 0-0.010-0.005-0.015-0.005-0.025-0.005-0.015-0.010-0.030-0.015-0.044 0-0.005-0.005-0.015-0.005-0.020-0.005-0.015-0.010-0.025-0.020-0.039-0.005-0.005-0.005-0.015-0.010-0.020-0.005-0.010-0.010-0.020-0.020-0.030-0.005-0.010-0.010-0.015-0.015-0.025s-0.010-0.015-0.015-0.025-0.015-0.020-0.020-0.030c-0.005-0.005-0.010-0.010-0.015-0.015-0.010-0.010-0.020-0.020-0.030-0.030-0.005-0.005-0.010-0.010-0.015-0.015-0.010-0.010-0.020-0.020-0.035-0.030-0.005-0.005-0.015-0.010-0.020-0.015-0.010-0.010-0.020-0.015-0.030-0.025-0.015-0.010-0.030-0.020-0.039-0.025-0.005-0.005-0.010-0.005-0.015-0.010-0.020-0.010-0.044-0.020-0.064-0.030l-3.635-1.529c-0.34-0.143-0.73 0.015-0.873 0.355s0.015 0.73 0.355 0.873l3.226 1.361v14.59c0 1.381 1.036 2.525 2.373 2.698-0.242 0.404-0.385 0.878-0.385 1.381 0 1.485 1.208 2.688 2.688 2.688s2.688-1.208 2.688-2.688c0-0.493-0.133-0.962-0.37-1.356h5.988c-0.237 0.4-0.37 0.863-0.37 1.356 0 1.485 1.208 2.688 2.688 2.688s2.688-1.208 2.688-2.688-1.208-2.688-2.688-2.688h-12.578c-0.769 0-1.391-0.626-1.391-1.391v-1.805c0.404 0.237 0.883 0.375 1.391 0.375zM10.52 21.307c0 0.75-0.612 1.356-1.356 1.356s-1.356-0.612-1.356-1.356 0.612-1.356 1.356-1.356 1.356 0.607 1.356 1.356zM21.144 21.307c0 0.75-0.612 1.356-1.356 1.356s-1.356-0.612-1.356-1.356 0.612-1.356 1.356-1.356 1.356 0.607 1.356 1.356zM20.429 14.47h-13.224c-0.769 0-1.391-0.626-1.391-1.391v-7.197l16.006 2.205v4.987c0 0.774-0.626 1.396-1.391 1.396z"></path>
</svg>
