<svg xmlns="http://www.w3.org/2000/svg" width="24" height="24"><path fill="#00c244" d="M23.59 3.47A5.132 5.132 0 0 0 20.575.431L20.54.42C19.23 0 18.04 0 15.62 0H8.36c-2.4 0-3.61 0-4.9.4A5.129 5.129 0 0 0 .421 3.425L.41 3.46C0 4.76 0 5.96 0 8.36v7.27c0 2.41 0 3.6.4 4.9a5.132 5.132 0 0 0 3.015 3.039l.035.011c1.3.41 2.5.41 4.9.41h7.28c2.41 0 3.61 0 4.9-.4a5.132 5.132 0 0 0 3.049-3.025l.011-.035c.41-1.3.41-2.5.41-4.9V8.38c0-2.41 0-3.61-.41-4.91zM17.42 8.1l-.93.93a.499.499 0 0 1-.671.01h.001a4.978 4.978 0 0 0-3.22-1.18c-.97 0-1.94.32-1.94 1.21 0 .9 1.04 1.2 2.24 1.65 2.1.7 3.84 1.58 3.84 3.64 0 2.24-1.74 3.78-4.58 3.95l-.26 1.2a.49.49 0 0 1-.48.39H9.63l-.09-.01a.502.502 0 0 1-.38-.593l-.001.003.28-1.27a6.563 6.563 0 0 1-2.884-1.573l.004.003v-.01a.48.48 0 0 1 0-.68l1-.97a.487.487 0 0 1 .67.001c.91.86 2.13 1.34 3.39 1.32 1.3 0 2.17-.55 2.17-1.42s-.88-1.1-2.54-1.72c-1.76-.63-3.43-1.52-3.43-3.6 0-2.42 2.01-3.6 4.39-3.71l.25-1.23a.481.481 0 0 1 .47-.38H14.719l.1.01c.26.06.43.31.37.57l-.27 1.37c.9.3 1.75.77 2.48 1.39l.02.02c.19.2.19.5 0 .68z"/></svg>