<svg xmlns="http://www.w3.org/2000/svg" width="24" height="24"><path d="M19.125 5.925c-.75 2.55-2.625 4.275-4.2 3.825S12.6 6.825 13.35 4.275 15.975 0 17.55.45c1.575.525 2.25 2.925 1.575 5.475zM7.875 0c-1.65.3-2.625 2.625-2.25 5.25.45 2.625 2.1 4.5 3.75 4.275S12 6.9 11.55 4.275C11.175 1.65 9.525-.225 7.875 0zm-6.3 7.275c-1.5.6-2.025 2.925-1.125 5.1.9 2.25 2.85 3.525 4.35 2.925s2.025-2.925 1.125-5.1C5.1 7.95 3.15 6.6 1.575 7.275zM22.5 8.85c-1.5-.675-3.525.6-4.425 2.85-.975 2.175-.45 4.5 1.05 5.175s3.525-.6 4.425-2.85c.9-2.175.45-4.5-1.05-5.175zm-3.6 13.8c1.875-1.95-3.225-10.125-6.9-10.275-3.9-.225-9.825 8.55-7.8 10.575s5.775.3 7.8 0 4.05 2.7 6.9-.3z"/></svg>