<!-- Generated by IcoMoon.io -->
<svg version="1.1" xmlns="http://www.w3.org/2000/svg" width="24" height="24" viewBox="0 0 24 24">
<title>cat-paw</title>
<path d="M19.125 5.925c-0.75 2.55-2.625 4.275-4.2 3.825s-2.325-2.925-1.575-5.475 2.625-4.275 4.2-3.825c1.575 0.525 2.25 2.925 1.575 5.475zM7.875 0c-1.65 0.3-2.625 2.625-2.25 5.25 0.45 2.625 2.1 4.5 3.75 4.275s2.625-2.625 2.175-5.25c-0.375-2.625-2.025-4.5-3.675-4.275zM1.575 7.275c-1.5 0.6-2.025 2.925-1.125 5.1 0.9 2.25 2.85 3.525 4.35 2.925s2.025-2.925 1.125-5.1c-0.825-2.25-2.775-3.6-4.35-2.925zM22.5 8.85c-1.5-0.675-3.525 0.6-4.425 2.85-0.975 2.175-0.45 4.5 1.050 5.175s3.525-0.6 4.425-2.85c0.9-2.175 0.45-4.5-1.050-5.175zM18.9 22.65c1.875-1.95-3.225-10.125-6.9-10.275-3.9-0.225-9.825 8.55-7.8 10.575s5.775 0.3 7.8 0 4.050 2.7 6.9-0.3z"></path>
</svg>
