<!-- Generated by IcoMoon.io -->
<svg version="1.1" xmlns="http://www.w3.org/2000/svg" width="24" height="24" viewBox="0 0 24 24">
<title>chart</title>
<path d="M14.681 0.285c-0.847-0.141-1.835-0.282-2.681-0.282-5.646 0-10.444 3.81-11.715 9.315-1.411 6.493 2.54 12.985 9.033 14.396 0.847 0.141 1.835 0.282 2.681 0.282 5.646 0 10.444-3.81 11.715-9.315 1.411-6.492-2.54-12.985-9.033-14.396zM21.808 7.839l-8.82 3.032 2.084-8.989c3.132 0.906 5.521 3.158 6.735 5.957zM12 1.415c0.49 0 1.056 0.075 1.634 0.164l-2.243 9.716h-9.922c0.034-0.563 0.101-1.129 0.227-1.694 1.129-4.799 5.363-8.186 10.303-8.186zM22.444 14.399c-1.129 4.798-5.363 8.186-10.303 8.186-0.847 0-1.694-0.141-2.399-0.282-4.721-1.037-7.936-5.078-8.272-9.598h10.53c0.229 0 0.41-0.086 0.534-0.229l9.735-3.381c0.492 1.681 0.582 3.499 0.175 5.303z"></path>
</svg>
