<svg xmlns="http://www.w3.org/2000/svg" width="24" height="24"><path d="M14.681.285C13.834.144 12.846.003 12 .003 6.354.003 1.556 3.813.285 9.318c-1.411 6.493 2.54 12.985 9.033 14.396.847.141 1.835.282 2.681.282 5.646 0 10.444-3.81 11.715-9.315 1.411-6.492-2.54-12.985-9.033-14.396zm7.127 7.554l-8.82 3.032 2.084-8.989c3.132.906 5.521 3.158 6.735 5.957zM12 1.415c.49 0 1.056.075 1.634.164l-2.243 9.716H1.469c.034-.563.101-1.129.227-1.694 1.129-4.799 5.363-8.186 10.303-8.186zm10.444 12.984c-1.129 4.798-5.363 8.186-10.303 8.186-.847 0-1.694-.141-2.399-.282-4.721-1.037-7.936-5.078-8.272-9.598H12c.229 0 .41-.086.534-.229l9.735-3.381c.492 1.681.582 3.499.175 5.303z"/></svg>