<!-- Generated by IcoMoon.io -->
<svg version="1.1" xmlns="http://www.w3.org/2000/svg" width="24" height="24" viewBox="0 0 24 24">
<title>chat</title>
<path d="M0.439 23.085c0.090 0.049 0.191 0.101 0.386 0.101 0.619 0 2.201-0.532 7.538-3.409 0.319 0.071 0.495 0.124 0.735 0.199l0.36 0.109c0.405 0.116 0.825-0.113 0.945-0.514 0.116-0.398-0.112-0.818-0.514-0.938l-0.341-0.101c-0.319-0.098-0.574-0.176-1.147-0.293-0.176-0.038-0.356-0.008-0.514 0.075-1.841 0.994-3.926 2.059-5.363 2.719 0.217-0.281 0.439-0.563 0.63-0.803 1.642-2.078 2.017-2.621 1.942-3.165-0.026-0.203-0.165-0.435-0.33-0.555-2.063-1.504-3.202-3.521-3.202-5.677 0-4.35 4.688-7.89 10.444-7.89s10.444 3.54 10.444 7.89c0 0.416 0.341 0.754 0.758 0.754 0.42 0 0.761-0.338 0.761-0.754 0-5.183-5.366-9.397-11.962-9.397s-11.97 4.223-11.97 9.401c0 2.445 1.219 4.8 3.368 6.544-0.326 0.491-0.982 1.324-1.455 1.92-1.695 2.149-2.051 2.663-1.931 3.225 0.049 0.221 0.225 0.454 0.42 0.559zM23.947 16.744c0-2.756-2.809-4.999-6.259-4.999s-6.259 2.242-6.259 4.999c0 2.678 2.648 4.867 5.963 4.991 0.637 0.529 2.512 1.852 5.715 2.258 0.030 0.004 0.067 0.008 0.098 0.008 0.274 0 0.54-0.15 0.675-0.386 0.266-0.457 0.101-0.735-0.802-2.269-0.214-0.364-0.529-0.9-0.724-1.264 1.024-0.911 1.594-2.1 1.594-3.337zM21.019 19.219c-0.66 0.48-0.334 1.039 0.754 2.884 0.023 0.038 0.045 0.075 0.067 0.116-2.411-0.611-3.6-1.751-3.611-1.763-0.143-0.142-0.337-0.221-0.54-0.221-2.614 0-4.74-1.564-4.74-3.488s2.126-3.487 4.74-3.487 4.74 1.564 4.74 3.487c0 0.93-0.503 1.811-1.41 2.471z"></path>
</svg>
