<svg xmlns="http://www.w3.org/2000/svg" width="24" height="24"><path d="M.439 23.085c.09.049.191.101.386.101.619 0 2.201-.532 7.538-3.409.319.071.495.124.735.199l.36.109a.764.764 0 0 0 .945-.514.759.759 0 0 0-.514-.938l-.341-.101a10.252 10.252 0 0 0-1.147-.293.758.758 0 0 0-.514.075c-1.841.994-3.926 2.059-5.363 2.719.217-.281.439-.563.63-.803 1.642-2.078 2.017-2.621 1.942-3.165a.889.889 0 0 0-.33-.555c-2.063-1.504-3.202-3.521-3.202-5.677 0-4.35 4.688-7.89 10.444-7.89s10.444 3.54 10.444 7.89c0 .416.341.754.758.754.42 0 .761-.338.761-.754 0-5.183-5.366-9.397-11.962-9.397S.039 5.659.039 10.837c0 2.445 1.219 4.8 3.368 6.544-.326.491-.982 1.324-1.455 1.92C.257 21.45-.099 21.964.021 22.526a.91.91 0 0 0 .42.559zm23.508-6.341c0-2.756-2.809-4.999-6.259-4.999s-6.259 2.242-6.259 4.999c0 2.678 2.648 4.867 5.963 4.991.637.529 2.512 1.852 5.715 2.258a.787.787 0 0 0 .773-.378c.266-.457.101-.735-.802-2.269-.214-.364-.529-.9-.724-1.264 1.024-.911 1.594-2.1 1.594-3.337zm-2.928 2.475c-.66.48-.334 1.039.754 2.884.023.038.045.075.067.116-2.411-.611-3.6-1.751-3.611-1.763a.765.765 0 0 0-.54-.221c-2.614 0-4.74-1.564-4.74-3.488s2.126-3.487 4.74-3.487 4.74 1.564 4.74 3.487c0 .93-.503 1.811-1.41 2.471z"/></svg>