<!-- Generated by IcoMoon.io -->
<svg version="1.1" xmlns="http://www.w3.org/2000/svg" width="24" height="24" viewBox="0 0 24 24">
<title>checkbox-unchecked1</title>
<path d="M21.506 0h-19.013c-1.558 0-2.494 0.935-2.494 2.494v19.325c0 1.247 0.935 2.494 2.494 2.494h19.325c1.247 0 2.494-0.935 2.494-2.494v-19.325c-0.312-1.558-1.558-2.494-2.805-2.494zM22.753 21.506c0 0.623-0.623 1.247-1.247 1.247h-19.013c-0.623 0-1.247-0.623-1.247-1.247v-19.013c0-0.623 0.623-1.247 1.247-1.247h19.325c0.623 0 1.247 0.623 1.247 1.247v19.013z"></path>
</svg>
