<svg xmlns="http://www.w3.org/2000/svg" width="24" height="24"><path d="M23.711.173a.767.767 0 0 0-1.087.12L10.275 15.829l-4.042-5.085c-.266-.337-.754-.39-1.088-.12s-.386.761-.116 1.099l4.474 5.629c.135.244.39.386.664.386.041 0 .086-.011.131-.019.026.004.049.015.075.015.244 0 .484-.12.634-.323l12.825-16.14a.788.788 0 0 0-.12-1.099zm-1.526 7.769a.776.776 0 0 0-.773.78v12.93c0 .431-.349.78-.773.78H2.32a.778.778 0 0 1-.773-.78V3.146c0-.431.349-.78.773-.78h12.679a.777.777 0 0 0 .773-.784.776.776 0 0 0-.773-.78H2.32c-1.279 0-2.321 1.05-2.321 2.344v18.506C-.001 22.95 1.041 24 2.32 24h18.315c1.279 0 2.321-1.054 2.321-2.348V8.726a.78.78 0 0 0-.773-.784z"/></svg>