<!-- Generated by IcoMoon.io -->
<svg version="1.1" xmlns="http://www.w3.org/2000/svg" width="24" height="24" viewBox="0 0 24 24">
<title>check</title>
<path d="M6.026 20.644c0.139 0.199 0.368 0.315 0.604 0.315 0.049 0 0.101-0.019 0.15-0.030 0.038 0.008 0.071 0.023 0.109 0.023 0.217 0 0.424-0.094 0.574-0.255l16.316-16.32c0.293-0.292 0.293-0.772 0-1.065s-0.773-0.292-1.065 0l-15.941 15.949-5.377-5.377c-0.292-0.293-0.772-0.293-1.065 0-0.296 0.293-0.296 0.773 0 1.065 0 0 5.696 5.696 5.696 5.696z"></path>
</svg>
