<!-- Generated by IcoMoon.io -->
<svg version="1.1" xmlns="http://www.w3.org/2000/svg" width="24" height="24" viewBox="0 0 24 24">
<title>checkbox</title>
<path d="M23.711 0.173c-0.334-0.27-0.821-0.217-1.087 0.12l-12.349 15.536-4.042-5.085c-0.266-0.337-0.754-0.39-1.088-0.12s-0.386 0.761-0.116 1.099l4.474 5.629c0.135 0.244 0.39 0.386 0.664 0.386 0.041 0 0.086-0.011 0.131-0.019 0.026 0.004 0.049 0.015 0.075 0.015 0.244 0 0.484-0.12 0.634-0.323l12.825-16.14c0.266-0.337 0.214-0.829-0.12-1.099zM22.185 7.942c-0.427 0-0.773 0.349-0.773 0.78v12.93c0 0.431-0.349 0.78-0.773 0.78h-18.319c-0.427 0-0.773-0.352-0.773-0.78v-18.506c0-0.431 0.349-0.78 0.773-0.78h12.679c0.428 0 0.773-0.349 0.773-0.784 0-0.431-0.345-0.78-0.773-0.78h-12.679c-1.279 0-2.321 1.050-2.321 2.344v18.506c0 1.298 1.042 2.348 2.321 2.348h18.315c1.279 0 2.321-1.054 2.321-2.348v-12.926c0-0.431-0.345-0.784-0.773-0.784z"></path>
</svg>
