<!-- Generated by IcoMoon.io -->
<svg version="1.1" xmlns="http://www.w3.org/2000/svg" width="24" height="24" viewBox="0 0 24 24">
<title>check-circle</title>
<path d="M11.999 0c-6.592 0-11.985 5.4-11.985 11.999s5.393 11.999 11.985 11.999 11.985-5.4 11.985-11.999-5.393-11.999-11.985-11.999zM11.999 22.498c-5.768 0-10.487-4.724-10.487-10.499s4.719-10.499 10.487-10.499 10.487 4.724 10.487 10.499-4.719 10.499-10.487 10.499zM16.718 8.475l-6.217 6.224-3.146-3.15c-0.3-0.3-0.749-0.3-1.049 0s-0.3 0.751 0 1.050l3.67 3.674c0.15 0.15 0.3 0.225 0.524 0.225s0.375-0.075 0.524-0.225l6.741-6.75c0.3-0.3 0.3-0.751 0-1.050-0.3-0.298-0.749-0.298-1.049 0.002z"></path>
</svg>
