<svg height="24" width="24" xmlns="http://www.w3.org/2000/svg"><path d="M12.03 0C6.94 0 2.57 3.17.82 7.65l1.91.77c1.483-3.767 5.084-6.387 9.298-6.4h.002c2.24 0 4.32.77 5.96 1.97l1.2-1.64A11.87 11.87 0 0 0 12.07 0h-.042zm0 2.3a9.763 9.763 0 0 0-9.057 6.164l-.023.066 1.91.7c1.124-2.895 3.888-4.91 7.122-4.91h.051-.003zm3.55.7l-.76 1.92c2.443.922 4.248 3.019 4.742 5.583l.008.047h2.08a9.73 9.73 0 0 0-6.004-7.527zm-3.55 1.6a7.44 7.44 0 1 0 7.312 8.948l.008-.048h-2.08c-.692 2.286-2.772 3.924-5.238 3.94H12a5.39 5.39 0 0 1-5.39-5.39v-.04A5.39 5.39 0 0 1 12 6.62h.032-.002.004a5.403 5.403 0 0 1 5.187 3.892l.009.038h2.07c-.68-3.413-3.651-5.95-7.215-5.95h-.057.003zm10.22 1.09L20.5 6.78a9.366 9.366 0 0 1 1.413 3.717l.007.053H24a11.53 11.53 0 0 0-1.777-4.905zM11.97 6.83a5.221 5.221 0 0 0-4.687 7.304L7.27 14.1l1.97-.87a2.934 2.934 0 0 1-.27-1.198v-.002c0-1.64 1.36-3.01 3-3.01zm1.92.39l-.77 2.02c.66.27 1.15.7 1.53 1.31h2.3a5.064 5.064 0 0 0-3.026-3.318zM0 12.02c0 1.65.33 3.29 1.04 4.87l1.8-.82a10.321 10.321 0 0 1-.82-4.039v-.001zm2.3 0c0 4.1 2.51 7.6 6.12 9.03l.76-1.92c-2.866-1.139-4.856-3.887-4.86-7.1v-.001zm12.3 1.48c-.33.6-.82 1.1-1.48 1.31l.77 2.03a5.064 5.064 0 0 0 3.051-3.304l.009-.036zm4.97 0c-.719 3.566-3.817 6.218-7.538 6.24h-.002v2.02h.019c4.851 0 8.871-3.557 9.594-8.205l.007-.055zm2.35 0c-.782 4.836-4.908 8.491-9.896 8.53h-.004c-2.73 0-5.24-1.15-7.04-2.95L3.55 20.5c2.19 2.19 5.2 3.5 8.53 3.5h.014c6.099 0 11.135-4.549 11.899-10.44l.006-.06zm-12.02.66l-1.53 1.53a5.192 5.192 0 0 0 3.658 1.53h.002v-2.19h-.009a3.01 3.01 0 0 1-2.121-.87z" fill="#f09820"/></svg>