<!-- Generated by IcoMoon.io -->
<svg version="1.1" xmlns="http://www.w3.org/2000/svg" width="24" height="24" viewBox="0 0 24 24">
<title>chrome1</title>
<path d="M12.075 24l4.95-8.175c0.75-1.050 1.275-2.325 1.275-3.675 0-1.875-0.825-3.525-2.1-4.65h6.975c0.6 1.425 0.9 2.925 0.9 4.5-0.075 6.6-5.4 12-12 12zM12 6c-2.775 0.075-5.1 1.95-5.775 4.5l-3.6-6c2.25-2.775 5.625-4.5 9.375-4.5 4.425 0 8.325 2.4 10.425 6h-10.425zM7.5 12c0-2.475 2.025-4.5 4.5-4.5s4.5 2.025 4.5 4.5-2.025 4.5-4.5 4.5-4.5-2.025-4.5-4.5zM6.6 14.7c0.975 2.1 3.075 3.525 5.55 3.525 0.525 0 0.975-0.075 1.425-0.15l-3.375 5.775c-5.775-0.825-10.2-5.85-10.2-11.85 0-2.1 0.525-4.125 1.5-5.85l5.1 8.55z"></path>
</svg>
