<svg xmlns="http://www.w3.org/2000/svg" width="24" height="24"><path d="M12.075 24l4.95-8.175c.75-1.05 1.275-2.325 1.275-3.675a6.173 6.173 0 0 0-2.1-4.65h6.975c.6 1.425.9 2.925.9 4.5-.075 6.6-5.4 12-12 12zM12 6c-2.775.075-5.1 1.95-5.775 4.5l-3.6-6C4.875 1.725 8.25 0 12 0c4.425 0 8.325 2.4 10.425 6H12zm-4.5 6c0-2.475 2.025-4.5 4.5-4.5s4.5 2.025 4.5 4.5-2.025 4.5-4.5 4.5-4.5-2.025-4.5-4.5zm-.9 2.7a6.074 6.074 0 0 0 5.55 3.525c.525 0 .975-.075 1.425-.15L10.2 23.85C4.425 23.025 0 18 0 12c0-2.1.525-4.125 1.5-5.85l5.1 8.55z"/></svg>