<svg xmlns="http://www.w3.org/2000/svg" width="24" height="24"><path fill="#8669ae" d="M20.788 3.832c-.101-.105-.197-.213-.301-.317-.103-.103-.211-.202-.32-.302A11.858 11.858 0 0 0 12.033 0h-.035H12h-.032a11.883 11.883 0 0 0-8.453 3.514C-1.061 8.09-1.159 15.47 3.214 20.168c.099.108.197.214.3.32.104.103.21.2.317.3A11.874 11.874 0 0 0 11.971 24h.032-.002c3.206 0 6.22-1.247 8.487-3.512 4.576-4.576 4.673-11.956.301-16.656zm-16.655.301A11.023 11.023 0 0 1 11.972.874h.03H12c2.825 0 5.49 1.048 7.55 2.958l-1.001 1.002a9.603 9.603 0 0 0-6.525-2.542h-.025H12h-.026a9.61 9.61 0 0 0-6.838 2.844 9.615 9.615 0 0 0-2.843 6.838v.028-.001c0 2.448.9 4.753 2.542 6.549l-1.003 1.001C-.2 15.192-.1 8.368 4.134 4.134zm13.798 1.318v.002l-1.015 1.014a7.315 7.315 0 0 0-4.906-1.878h-.011H12h-.021c-2.04 0-3.885.83-5.218 2.171a7.339 7.339 0 0 0-2.172 5.221v.02V12v.011c0 1.887.712 3.608 1.883 4.909l-.006-.007-1.014 1.016a8.732 8.732 0 0 1-2.285-5.904v-.049a8.74 8.74 0 0 1 2.588-6.22 8.743 8.743 0 0 1 6.221-2.588h.025H12c2.213 0 4.301.809 5.931 2.284zM18.537 12c0 1.745-.681 3.387-1.916 4.622S13.746 18.538 12 18.538h-.005a6.47 6.47 0 0 1-4.298-1.627l.007.006-.001-.004c-.11-.094-.22-.188-.324-.291a5.782 5.782 0 0 1-.285-.317l-.008-.009a6.438 6.438 0 0 1-1.62-4.282V12v.001c0-1.746.679-3.387 1.914-4.621a6.468 6.468 0 0 1 4.601-1.914h.02H12c1.599 0 3.105.576 4.295 1.62.111.096.224.19.326.295.104.104.2.214.295.324a6.455 6.455 0 0 1 1.621 4.288v.008zM7.084 17.534h.001a7.314 7.314 0 0 0 4.908 1.879h.029c2.04 0 3.886-.831 5.218-2.174a7.333 7.333 0 0 0 2.173-5.219v-.026c0-1.89-.712-3.613-1.882-4.917l.006.007 1.013-1.012a8.74 8.74 0 0 1 2.285 5.907v.022V12v.026c0 2.431-.99 4.631-2.589 6.219a8.736 8.736 0 0 1-6.218 2.588H12h.001-.021a8.752 8.752 0 0 1-5.916-2.291l.007.006zm12.783 2.333a11.01 11.01 0 0 1-7.833 3.258h-.035.002-.03a11.004 11.004 0 0 1-7.527-2.963l.007.006 1.004-1.001a9.6 9.6 0 0 0 6.523 2.542h.027-.001.026a9.607 9.607 0 0 0 6.838-2.846l.001-.001a9.614 9.614 0 0 0 2.843-6.837v-.051c0-2.52-.967-4.813-2.549-6.531l.006.007 1.001-1.002c4.031 4.359 3.935 11.182-.301 15.417z"/></svg>