<svg xmlns="http://www.w3.org/2000/svg" width="24" height="24"><path d="M22.406 15.477A4.578 4.578 0 0 1 24 18.953v.002c0 2.531-2.053 4.59-4.577 4.59H1.113a1.113 1.113 0 1 1 0-2.226h18.31a2.36 2.36 0 0 0 2.35-2.36v-.008a2.36 2.36 0 0 0-2.349-2.36H1.113a1.113 1.113 0 0 1 0-2.226h18.31a2.36 2.36 0 0 0 2.35-2.36v-.008a2.36 2.36 0 0 0-2.349-2.36H1.113a1.113 1.113 0 0 1 0-2.226h18.31c1.296 0 2.35-1.06 2.35-2.364s-1.054-2.364-2.35-2.364a1.113 1.113 0 0 1 0-2.226C21.947.457 24 2.517 24 5.048c0 1.389-.62 2.635-1.594 3.477A4.578 4.578 0 0 1 24 12.001v.002c0 1.389-.62 2.635-1.594 3.477z"/></svg>