<svg xmlns="http://www.w3.org/2000/svg" width="24" height="24"><path fill="#1ba0d7" d="M16.331 18.171V17.06l-.022.01a2.057 2.057 0 0 1-.891.206c-.27 0-.519-.09-.719-.243l.003.002a1.042 1.042 0 0 1-.35-.491l-.002-.007a1.202 1.202 0 0 1-.021-.676l-.002.008c.052-.225.178-.426.357-.569.16-.134.355-.218.562-.242a1.87 1.87 0 0 1 1.071.203l-.01-.005.024.013v-1.117l-.051-.014a2.799 2.799 0 0 0-1.018-.131h.007a2.336 2.336 0 0 0-.918.212l.015-.006c-.287.132-.54.327-.739.571-.299.375-.48.856-.48 1.379 0 .5.165.961.444 1.332l-.004-.006c.295.378.709.645 1.175.756.491.12 1.006.102 1.487-.052l.082-.023zm-10.995 0V17.06l-.022.01a2.057 2.057 0 0 1-.892.207c-.27 0-.519-.09-.718-.243l.003.002a1.034 1.034 0 0 1-.349-.491l-.002-.007a1.18 1.18 0 0 1-.022-.675l-.002.008c.052-.225.177-.426.357-.569.16-.134.355-.218.562-.242a1.87 1.87 0 0 1 1.071.203l-.01-.005.024.013v-1.117l-.051-.014a2.799 2.799 0 0 0-1.018-.131h.007a2.353 2.353 0 0 0-.918.212l.015-.006a2.09 2.09 0 0 0-.737.567l-.003.004a2.224 2.224 0 0 0-.037 2.711l-.004-.006c.29.37.696.639 1.162.753l.014.003c.491.12 1.005.102 1.487-.052l.083-.023zm3.924-.922l-.004.957.07.012c.22.041.441.069.664.085.195.019.391.022.587.012.187-.014.372-.049.551-.104.21-.06.405-.163.571-.305.147-.127.261-.287.33-.47l.003-.008a1.299 1.299 0 0 0-.01-.969l.003.009a1.064 1.064 0 0 0-.297-.413l-.001-.001a1.26 1.26 0 0 0-.429-.252l-.009-.003-.722-.268a.39.39 0 0 1-.196-.186l-.001-.002a.242.242 0 0 1 .009-.221l-.001.001a.382.382 0 0 1 .152-.141l.002-.001a.792.792 0 0 1 .253-.074h.004c.153-.022.308-.021.46.005.18.02.358.051.533.096l.038.008v-.883l-.069-.015a4.237 4.237 0 0 0-.52-.095l-.023-.002a2.813 2.813 0 0 0-.728-.002l.014-.001c-.3.027-.585.143-.821.33-.16.126-.281.293-.351.484-.104.29-.105.608 0 .899.054.145.14.274.252.381.097.093.207.173.327.236.157.084.324.149.497.195.057.017.114.035.17.054l.085.031.024.01c.084.03.162.078.226.14.045.042.08.094.101.151a.307.307 0 0 1 .001.163v-.002a.339.339 0 0 1-.164.197l-.002.001a.812.812 0 0 1-.271.085l-.005.001a2.02 2.02 0 0 1-.433.021h.005a5.332 5.332 0 0 1-.59-.079l.033.005a6.92 6.92 0 0 1-.351-.081l.064.014zm-2.475.995h1.05v-4.167h-1.05zm12.162-2.936a1.094 1.094 0 0 1 1.54.156l.002.002a1.09 1.09 0 0 1-.155 1.539l-.002.002-.017.014a1.096 1.096 0 0 1-1.369-1.712l.002-.001zm-1.525.854a2.194 2.194 0 0 0 2.681 2.105l-.015.003a2.143 2.143 0 0 0 1.741-2.102c0-.776-.413-1.455-1.031-1.83l-.009-.005a2.206 2.206 0 0 0-3.367 1.827v.002zm5.539-5.434a.52.52 0 0 0 1.038.001V9.573a.52.52 0 0 0-1.038-.001v1.156zm-2.844 0a.522.522 0 0 0 1.04.001V8.138a.521.521 0 0 0-1.04-.002v2.591zm-2.886 1.043a.521.521 0 0 0 1.038.002V6.17a.52.52 0 0 0-1.038-.001v5.602zm-2.838-1.043a.521.521 0 0 0 1.04.002V8.139a.52.52 0 0 0-1.038-.001v2.59zm-2.899 0a.523.523 0 0 0 1.038.002V9.573a.52.52 0 0 0-1.038-.001v1.156zm-2.87 0a.52.52 0 0 0 1.038.001v-2.59a.52.52 0 0 0-1.038-.001v2.59zm-2.887 1.043a.52.52 0 0 0 1.038.001V6.17a.52.52 0 0 0-1.038-.001v5.602zm-2.861-1.043a.522.522 0 0 0 1.04.002V8.139a.52.52 0 0 0-1.038-.001v2.59zm-2.876 0a.521.521 0 0 0 1.038.002V9.573A.52.52 0 0 0 0 9.572v1.156z"/></svg>