<!-- Generated by IcoMoon.io -->
<svg version="1.1" xmlns="http://www.w3.org/2000/svg" width="24" height="24" viewBox="0 0 24 24">
<title>clock1</title>
<path d="M12 22.754c5.953 0 10.772-4.837 10.772-10.772 0-5.954-4.837-10.772-10.772-10.772s-10.772 4.819-10.772 10.772c0 5.935 4.819 10.772 10.772 10.772zM12 2.716c5.116 0 9.265 4.149 9.265 9.265s-4.149 9.265-9.265 9.265-9.265-4.167-9.265-9.265c0-5.116 4.149-9.265 9.265-9.265zM11.498 13.246h3.591c0.428 0 0.763-0.335 0.763-0.763s-0.335-0.763-0.763-0.763h-2.828v-4.428c0-0.428-0.335-0.763-0.763-0.763s-0.763 0.335-0.763 0.763v5.191c0 0.428 0.335 0.763 0.763 0.763z"></path>
</svg>
