<svg xmlns="http://www.w3.org/2000/svg" width="24" height="24"><path fill="#03a9f4" d="M14.979 8.248l5.438-5.514 1.557 1.577-5.438 5.514zm-2.203 5.635a1.904 1.904 0 0 1-1.364-.577 1.978 1.978 0 0 1-.562-1.385c0-1.082.862-1.96 1.925-1.96 1.064 0 1.928.878 1.928 1.96 0 .516-.201 1.012-.563 1.385a1.906 1.906 0 0 1-1.364.577zm9.222 5.695l-1.556 1.579-5.438-5.515 1.558-1.577zm-9.164.825a8.076 8.076 0 0 0 3.15-.635l-.053.02 2.656 2.695A11.51 11.51 0 0 1 12.84 24h-.007C6.297 24 .999 18.627.999 12S6.298 0 12.833 0c2.068 0 4.012.54 5.703 1.486l-2.611 2.65a8 8 0 0 0-3.092-.613c-4.577 0-8.287 3.78-8.287 8.44s3.71 8.44 8.287 8.44z"/></svg>