<svg xmlns="http://www.w3.org/2000/svg" width="24" height="24"><path fill="#5881d8" d="M11.503 12.216c-.119.259-.251.549-.387.858-.482 1.092-1.016 2.42-1.21 3.271a4.808 4.808 0 0 0-.112 1.044v.055-.003c0 .164.009.337.022.514.682.25 1.417.388 2.186.39a6.408 6.408 0 0 0 2.046-.339l-.045.013a3.826 3.826 0 0 1-.412-.434l-.006-.007c-.854-1.089-1.329-2.682-2.082-5.362zM8.355 6.813A6.347 6.347 0 0 0 5.657 12a6.338 6.338 0 0 0 2.607 5.121l.018.013c.39-1.622 1.366-3.107 2.83-6.084-.087-.239-.186-.5-.297-.775-.406-1.018-.991-2.198-1.513-2.733a4.28 4.28 0 0 0-.926-.718l-.021-.011zm9.172 12.464c-.84-.105-1.533-.232-2.141-.446-.987.5-2.152.793-3.385.793a7.625 7.625 0 0 1-7.625-7.623v-.006a7.582 7.582 0 0 1 2.591-5.716l.009-.007a5.447 5.447 0 0 0-1.323-.162h-.001c-2.236.02-4.597 1.258-5.58 4.602-.092.486-.07.854-.07 1.29 0 6.627 5.373 12 12 12 4.059 0 7.643-2.017 9.815-5.101-1.174.293-2.305.433-3.271.436-.362 0-.702-.02-1.019-.058zm-2.254-2.325c.074.036.242.097.475.163a6.353 6.353 0 0 0 2.6-5.114V12h-.002a6.354 6.354 0 0 0-6.345-6.345 6.351 6.351 0 0 0-2.037.337l.045-.013c1.289 1.468 1.908 3.566 2.507 5.862l.001.003c.001.002.192.637.518 1.48.326.842.789 1.885 1.293 2.645.332.51.697.876.945.983zM12.001 0h-.006a11.967 11.967 0 0 0-9.722 4.978l-.024.035c1.134-.71 2.291-.967 3.301-.957 1.394.004 2.491.436 3.017.732.127.073.248.152.366.233A7.503 7.503 0 0 1 12 4.377 7.625 7.625 0 0 1 19.625 12v.007c0 2.12-.868 4.038-2.267 5.417l-.001.001c.344.038.709.063 1.084.061 1.328 0 2.766-.293 3.842-1.198.703-.592 1.291-1.458 1.617-2.757.065-.502.1-1.012.1-1.531 0-6.627-5.371-12-11.999-12z"/></svg>