<svg xmlns="http://www.w3.org/2000/svg" width="24" height="24"><path d="M18 11.016V9.985q0-.422-.281-.703t-.703-.281h-3q-.422 0-.727.281t-.305.703v4.031q0 .422.305.703t.727.281h3q.422 0 .703-.281t.281-.703v-1.031h-1.5v.516h-2.016v-3H16.5v.516H18zm-6.984 0V9.985q0-.422-.305-.703t-.727-.281h-3q-.422 0-.703.281T6 9.985v4.031q0 .422.281.703t.703.281h3q.422 0 .727-.281t.305-.703v-1.031h-1.5v.516H7.5v-3h2.016v.516h1.5zm7.968-7.032q.797 0 1.406.609t.609 1.406v12q0 .797-.609 1.406t-1.406.609H5.015q-.844 0-1.43-.586t-.586-1.43v-12q0-.844.586-1.43t1.43-.586h13.969z"/></svg>