<svg xmlns="http://www.w3.org/2000/svg" width="24" height="24"><path d="M16.509 16.845c.148-.507.091-.971-.155-1.315-.225-.316-.605-.499-1.062-.521l-8.659-.113a.158.158 0 0 1-.134-.071.195.195 0 0 1-.021-.155.236.236 0 0 1 .204-.155l8.736-.113c1.034-.049 2.16-.886 2.553-1.913l.499-1.301a.279.279 0 0 0 .014-.168 5.683 5.683 0 0 0-5.55-4.446 5.69 5.69 0 0 0-5.388 3.862 2.58 2.58 0 0 0-1.794-.499 2.56 2.56 0 0 0-2.286 2.286c-.028.31-.007.612.063.893a3.634 3.634 0 0 0-3.531 3.637c0 .176.014.352.035.528a.174.174 0 0 0 .169.148h15.981a.22.22 0 0 0 .204-.155zm2.757-5.564c-.077 0-.162 0-.239.011-.056 0-.105.042-.127.098l-.338 1.175c-.148.507-.091.971.155 1.315.225.317.605.499 1.062.521l1.843.113c.056 0 .105.027.134.071a.2.2 0 0 1 .021.155.236.236 0 0 1-.204.155l-1.92.113c-1.041.048-2.159.886-2.553 1.913l-.141.359c-.028.071.021.141.099.141h6.598a.173.173 0 0 0 .169-.126 4.83 4.83 0 0 0 .176-1.28 4.738 4.738 0 0 0-4.734-4.727z"/></svg>