<svg xmlns="http://www.w3.org/2000/svg" width="24" height="24"><path fill="#1997b5" d="M3.55 6.41c0-1.2.73-2.28 1.88-2.8.418-.19.906-.3 1.42-.3a3.49 3.49 0 0 1 2.099.697L8.94 4l2.52-2.35A7.207 7.207 0 0 0 6.857.002c-1.34 0-2.595.363-3.671.997L3.22.981C1.295 2.063.016 4.093.016 6.421c0 .627.093 1.233.266 1.804l-.011-.044c.937 2.721 3.476 4.641 6.463 4.641.048 0 .096 0 .145-.002h-.007 2.58v-3.3h-2.58c-1.83-.02-3.32-1.41-3.32-3.11zm13.51 4.73h-2.58v3.3h2.58c1.83 0 3.32 1.4 3.32 3.1 0 1.72-1.49 3.1-3.32 3.1s-3.32-1.37-3.32-3.08V6.4c0-1.58-.63-3.11-1.76-4.29L9.46 4.48c.47.53.73 1.22.73 1.93v11.14c0 3.54 3.08 6.41 6.87 6.41 3.8 0 6.87-2.87 6.87-6.41s-3.07-6.41-6.87-6.41z"/></svg>