<!-- Generated by IcoMoon.io -->
<svg version="1.1" xmlns="http://www.w3.org/2000/svg" width="24" height="24" viewBox="0 0 24 24">
<title>cloudflare</title>
<path d="M16.509 16.845c0.148-0.507 0.091-0.971-0.155-1.315-0.225-0.316-0.605-0.499-1.062-0.521l-8.659-0.113c-0.056 0-0.105-0.027-0.134-0.071-0.028-0.042-0.035-0.098-0.021-0.155 0.028-0.084 0.112-0.149 0.204-0.155l8.736-0.113c1.034-0.049 2.16-0.886 2.553-1.913l0.499-1.301c0.021-0.056 0.028-0.113 0.014-0.168-0.563-2.546-2.835-4.446-5.55-4.446-2.504 0-4.628 1.618-5.388 3.862-0.492-0.366-1.119-0.563-1.794-0.499-1.203 0.119-2.166 1.083-2.286 2.286-0.028 0.31-0.007 0.612 0.063 0.893-1.962 0.056-3.531 1.66-3.531 3.637 0 0.176 0.014 0.352 0.035 0.528 0.014 0.084 0.084 0.148 0.169 0.148h15.981c0.091 0 0.176-0.065 0.204-0.155zM19.266 11.281c-0.077 0-0.162 0-0.239 0.011-0.056 0-0.105 0.042-0.127 0.098l-0.338 1.175c-0.148 0.507-0.091 0.971 0.155 1.315 0.225 0.317 0.605 0.499 1.062 0.521l1.843 0.113c0.056 0 0.105 0.027 0.134 0.071 0.028 0.042 0.035 0.106 0.021 0.155-0.028 0.084-0.112 0.149-0.204 0.155l-1.92 0.113c-1.041 0.048-2.159 0.886-2.553 1.913l-0.141 0.359c-0.028 0.071 0.021 0.141 0.099 0.141h6.598c0.077 0 0.148-0.049 0.169-0.126 0.112-0.408 0.176-0.837 0.176-1.28 0-2.603-2.124-4.727-4.734-4.727z"></path>
</svg>
