<svg xmlns="http://www.w3.org/2000/svg" width="24" height="24"><path fill="#f38020" d="M16.509 16.845c.147-.507.091-.971-.155-1.315-.225-.316-.605-.499-1.062-.52l-8.659-.112h-.002a.156.156 0 0 1-.131-.071v-.001a.195.195 0 0 1-.021-.155.24.24 0 0 1 .204-.156l8.736-.112c1.035-.049 2.16-.887 2.554-1.914l.499-1.301a.28.28 0 0 0 .015-.168 5.682 5.682 0 0 0-5.55-4.445 5.69 5.69 0 0 0-5.388 3.861 2.582 2.582 0 0 0-1.794-.499 2.56 2.56 0 0 0-2.286 2.286 2.7 2.7 0 0 0 .063.894 3.634 3.634 0 0 0-3.531 3.637c0 .175.014.351.035.527a.174.174 0 0 0 .169.147h15.981a.216.216 0 0 0 .203-.155zm2.757-5.564c-.077 0-.161 0-.238.011-.057 0-.105.042-.127.098l-.338 1.174c-.147.507-.092.971.154 1.316.226.316.606.498 1.062.519l1.844.113c.056 0 .105.026.133.07s.035.107.021.156a.239.239 0 0 1-.204.155l-1.921.112c-1.041.049-2.158.887-2.553 1.914l-.141.358c-.028.071.021.142.099.142h6.598a.174.174 0 0 0 .169-.126 4.83 4.83 0 0 0 .176-1.28 4.74 4.74 0 0 0-4.734-4.727z"/></svg>