<svg xmlns="http://www.w3.org/2000/svg" width="24" height="24"><path fill="#00b1e7" d="M23.275 5.265c0-.852-.132-1.703-.36-2.555-.328-1.016-1.081-1.834-2.031-2.194C19.977.189 18.929 0 17.838 0s-2.139.189-3.111.536l.065-.02a3.182 3.182 0 0 0-2.025 2.172l-.005.022c-.219.761-.344 1.635-.344 2.538s.126 1.777.361 2.606l-.016-.067c.326 1.015 1.08 1.834 2.03 2.194a7.884 7.884 0 0 0 3.06.49h-.014c1.049 0 2.063-.196 3.046-.491a3.187 3.187 0 0 0 2.026-2.172l.005-.022c.229-.819.36-1.67.36-2.522zm-3.308 0c0 .393-.065.852-.196 1.212-.164.524-.623.95-1.18 1.081a4.259 4.259 0 0 1-1.598-.004l.027.004a1.479 1.479 0 0 1-1.178-1.071l-.002-.01c-.125-.372-.197-.8-.197-1.245s.072-.873.205-1.273l-.008.028c.163-.524.622-.95 1.18-1.081a4.259 4.259 0 0 1 1.598.004l-.027-.004c.575.101 1.03.523 1.178 1.071l.002.01c.13.458.196.884.196 1.277zm-8.745 13.79c.218-.761.343-1.635.343-2.538s-.125-1.777-.36-2.606l.016.067c-.327-1.016-1.081-1.834-2.03-2.195-.907-.327-1.955-.516-3.046-.516s-2.139.189-3.111.536l.065-.02a3.189 3.189 0 0 0-2.026 2.173l-.005.022c-.218.761-.343 1.635-.343 2.538s.125 1.777.36 2.606l-.016-.067c.328 1.015 1.081 1.834 2.031 2.193.907.327 1.955.516 3.046.516s2.139-.189 3.111-.536l-.065.02a3.412 3.412 0 0 0 2.024-2.169l.006-.024zm-2.948-2.523c0 .393-.066.852-.197 1.212a1.654 1.654 0 0 1-1.168 1.079l-.011.002a4.27 4.27 0 0 1-1.599-.004l.027.004a1.482 1.482 0 0 1-1.177-1.071l-.002-.01c-.125-.372-.196-.8-.196-1.245s.072-.873.205-1.273l-.008.029a1.646 1.646 0 0 1 1.168-1.079l.011-.002a4.19 4.19 0 0 1 1.599.005l-.027-.004a1.482 1.482 0 0 1 1.177 1.071l.002.01c.131.426.197.851.197 1.277zm0-11.3h3.308c0-.851-.131-1.703-.36-2.521-.327-1.016-1.081-1.834-2.03-2.194C8.285.19 7.237.001 6.146.001S4.007.19 3.035.537L3.1.517C2.084.909 1.331 1.728 1.068 2.743.85 3.504.725 4.378.725 5.281s.125 1.777.36 2.606l-.016-.067C1.397 8.835 2.15 9.654 3.1 10.014c.982.36 1.998.492 3.046.492s2.063-.197 3.046-.492a3.186 3.186 0 0 0 2.025-2.172l.005-.022c.033-.131.065-.295.131-.426L8.242 5.953c-.033.196-.065.36-.131.557-.163.524-.622.95-1.179 1.081a4.27 4.27 0 0 1-1.599-.004l.027.004A1.483 1.483 0 0 1 4.183 6.52l-.002-.01c-.125-.372-.196-.8-.196-1.245s.072-.873.205-1.273l-.008.029c.164-.524.622-.95 1.179-1.082a4.27 4.27 0 0 1 1.599.004l-.027-.004A1.48 1.48 0 0 1 8.11 4.011l.002.01c.098.425.164.818.164 1.211zm4.421 8.779a9.235 9.235 0 0 0-.36 2.554V24h3.308v-7.468c0-.393.065-.852.196-1.212.163-.524.622-.95 1.18-1.081a4.18 4.18 0 0 1 1.598.005l-.027-.004c.575.101 1.03.523 1.178 1.071l.002.01c.125.372.196.8.196 1.245s-.072.873-.205 1.273l.008-.029c-.164.523-.623.95-1.146 1.08a4.19 4.19 0 0 1-1.599-.005l.027.004c-.099-.031-.229-.064-.327-.098l1.113 3.079c1.049 0 2.063-.197 3.046-.491a3.19 3.19 0 0 0 2.026-2.172l.005-.022c.218-.761.343-1.635.343-2.538s-.125-1.777-.36-2.606l.016.067c-.328-1.016-1.081-1.834-2.031-2.195-.907-.327-1.955-.516-3.046-.516s-2.139.189-3.111.536l.065-.02c-1.016.263-1.769 1.082-2.097 2.098z"/></svg>