<svg xmlns="http://www.w3.org/2000/svg" width="24" height="24"><path d="M3.883 9.825a8.507 8.507 0 0 1 3.836-5.049l.039-.021.04-.021-1.803-3.113C3.276 3.212 1.268 5.769.427 8.81l-.02.084zm5.941-5.931a8.042 8.042 0 0 1 2.142-.283h.027V.016h-.027c-1.123 0-2.211.154-3.242.441l.169-.04zm4.354.003a8.496 8.496 0 0 1 5.042 3.836l.021.039.021.04 3.117-1.799c-1.591-2.718-4.146-4.726-7.186-5.568l-.084-.02zM0 12v.006c0 1.1.148 2.165.425 3.177l-.02-.084 3.476-.929a7.965 7.965 0 0 1-.284-2.132v-.031.002-.008zm1.605 5.995c.55.941 1.18 1.754 1.901 2.475l2.553-2.54a8.612 8.612 0 0 1-1.291-1.656l-.022-.039-.022-.04zm4.39 4.385a11.64 11.64 0 0 0 5.932 1.604H11.982v-3.595H11.964a8.266 8.266 0 0 1-4.247-1.166l.038.021.039.021zm13.264-6.175a8.48 8.48 0 0 1-4.974 3.869l-.06.015-.059.014.931 3.476c3.124-.86 5.681-2.863 7.246-5.52l.031-.056zm4.318-.984c.268-.947.423-2.035.423-3.159 0-1.087-.144-2.14-.415-3.142l.019.084-3.486.931c.175.64.275 1.374.275 2.132 0 .79-.109 1.555-.313 2.28l.014-.059z"/></svg>