<svg xmlns="http://www.w3.org/2000/svg" width="24" height="24"><path fill="#f44a6a" d="M5.37 2.65v.01A2.64 2.64 0 0 1 2.751 5.3H2.75A2.64 2.64 0 0 1 .12 2.66V2.64A2.64 2.64 0 0 1 2.749 0h.001a2.64 2.64 0 0 1 2.62 2.64v.011-.001zm0 9.35v.01a2.64 2.64 0 0 1-2.619 2.64H2.75a2.64 2.64 0 0 1-2.63-2.64V11.99a2.64 2.64 0 0 1 2.629-2.64h.001a2.64 2.64 0 0 1 2.62 2.64v.011V12zm0 9.35v.01A2.64 2.64 0 0 1 2.751 24H2.75a2.64 2.64 0 0 1-2.63-2.64V21.34a2.64 2.64 0 0 1 2.629-2.64h.001a2.64 2.64 0 0 1 2.62 2.64v.011-.001zM11.31 0A2.64 2.64 0 0 0 8.7 2.64v.011-.001.01a2.64 2.64 0 0 0 2.598 2.64h9.942a2.64 2.64 0 0 0 2.63-2.64V2.64A2.64 2.64 0 0 0 21.251 0h-.001zM8.7 12v-.01a2.64 2.64 0 0 1 2.619-2.64H17a2.64 2.64 0 0 1 2.6 2.64v.011V12v.01a2.64 2.64 0 0 1-2.598 2.64H11.3a2.64 2.64 0 0 1-2.6-2.64v-.011V12z"/></svg>