<svg xmlns="http://www.w3.org/2000/svg" width="24" height="24"><path fill="#f01f7a" d="M12.007.48C5.391.485.005 5.831 0 12.399v.03l2.042 1.191.028-.019a5.77 5.77 0 0 1 3.292-1.02h.017-.001c.371 0 .734.034 1.086.1l-.036-.006a5.695 5.695 0 0 1 2.878 1.434l-.004-.003-.004-.003.35.326.198-.434c.192-.42.414-.814.66-1.173.099-.144.208-.29.332-.446l.205-.257-.252-.211a8.29 8.29 0 0 0-3.784-1.799l-.052-.008-.052-.008a8.573 8.573 0 0 0-4.142.267l.061-.017.061-.016C3.854 6.07 7.597 3.103 12.016 3.1h.032a9.281 9.281 0 0 1 6.57 2.713 9.192 9.192 0 0 1 2.496 4.437l.012.062a8.222 8.222 0 0 0-2.493-.379h-.16c-.356.006-.7.033-1.037.078l.045-.005-.042.006a6.899 6.899 0 0 0-.44.068l.05-.008c-.057.01-.114.022-.17.033a7.428 7.428 0 0 0-.448.101l.056-.012-.138.035c-.228.06-.389.109-.548.163l.065-.019-.029.01c-.355.12-.709.268-1.051.439l-.027.014c-.152.076-.305.16-.469.256l-.036.022a8.283 8.283 0 0 0-2.097 1.788l-.011.013-.011.013-.075.092a8.199 8.199 0 0 0-.36.476l-.018.027c-.088.13-.177.269-.288.452l-.06.104a6.625 6.625 0 0 0-.21.382l-.024.05-.016.029c-.17.341-.317.698-.44 1.063l-.017.053a7.885 7.885 0 0 0-.411 2.726v-.016l.001.112c.006.158.013.295.023.431l-.002-.037c.015.186.03.328.048.469l-.006-.057.005.042.013.103c.018.127.038.252.062.378.241 1.266.845 2.532 1.745 3.66l.041.051.042-.05c.359-.424 1.249-1.77 1.325-2.577l.001-.015-.007-.013a5.492 5.492 0 0 1-.64-2.59v-.006c0-3.016 2.371-5.521 5.397-5.702l.199-.007.135-.002c1.245 0 2.401.384 3.355 1.04l-.02-.013.028.019 2.041-1.187v-.03-.038c0-3.282-1.343-6.25-3.51-8.385l-.001-.001A11.925 11.925 0 0 0 12.054.479h-.049.003z"/></svg>