<svg xmlns="http://www.w3.org/2000/svg" width="24" height="24"><path fill="#3c4858" d="M12.053 0c-.972 0-2.398.405-2.398.762v2.117c.72-.157 1.554-.256 2.407-.272h.013c.87.02 1.705.114 2.515.275l-.092-.015V.773c0-.367-1.475-.774-2.445-.773zm.022 3.787c-2.042 0-5.068.837-5.068 1.193v2.595a18.542 18.542 0 0 1 4.887-2.435l.133-.038c.012-.013 2.803.749 5.212 2.495l.003.003V4.98c0-.37-3.126-1.193-5.167-1.193zM12.1 6.37c-.763.197-1.514.555-2.214.887a17.662 17.662 0 0 0-4.207 2.782l.017-.015c1.352 1.378 2.161 3.11 2.654 4.72l.037.113.04.037-.052-.037c-.013-.013-1.623-1.661-3.972-1.661-1.242 0-2.68.456-4.193 1.833.147.516.32 1.006.528 1.498v.016l.025.047c2.004 4.575 6.7 7.553 11.693 7.406 4.895-.147 9.348-3.311 11.13-7.859.098-.246.184-.506.272-.752-1.686-1.254-4.332-2.814-5.351-2.617v-.003c-.776.149-1.686 1.266-2.854 2.385.468-1.66 1.307-3.515 2.832-5.114-.375-.343-.78-.678-1.202-.992l-.041-.029v-.012C15.717 7.87 13.944 6.899 12.1 6.37zm-.01.897l.612 3.05-.147 2.67-.443 3.959v.018l-.05-.006c-.006-.001-.015-.008-.022-.01v-.027l-.493-3.947-.122-2.654zm.9 9.825l.021.004a.926.926 0 0 1-.094.039l-.049.017c.04-.023.08-.036.122-.06z"/></svg>