<svg xmlns="http://www.w3.org/2000/svg" width="24" height="24"><path d="M22.772 9.481l-1.685-.286a9.422 9.422 0 0 0-.677-1.634l.993-1.389a1.478 1.478 0 0 0-.16-1.91l-1.494-1.494a1.471 1.471 0 0 0-1.905-.16l-1.394.993a9.413 9.413 0 0 0-1.695-.697l-.281-1.665A1.48 1.48 0 0 0 13.01.001h-2.111a1.48 1.48 0 0 0-1.464 1.238l-.291 1.705a9.193 9.193 0 0 0-1.629.687l-1.379-.993a1.475 1.475 0 0 0-.862-.276c-.396 0-.772.155-1.048.436L2.727 4.292a1.483 1.483 0 0 0-.16 1.91L3.57 7.611a9.313 9.313 0 0 0-.667 1.639l-1.665.281A1.48 1.48 0 0 0 0 10.995v2.111a1.48 1.48 0 0 0 1.238 1.464l1.705.291c.175.562.406 1.108.687 1.629l-.988 1.374a1.478 1.478 0 0 0 .16 1.91l1.494 1.494a1.471 1.471 0 0 0 1.905.16l1.409-1.003a9.508 9.508 0 0 0 1.584.652l.281 1.685A1.48 1.48 0 0 0 10.939 24h2.116a1.48 1.48 0 0 0 1.464-1.238l.286-1.685a9.422 9.422 0 0 0 1.634-.677l1.389.993c.251.18.551.276.862.276.396 0 .767-.155 1.048-.436l1.494-1.494a1.483 1.483 0 0 0 .16-1.91l-.993-1.394a9.466 9.466 0 0 0 .677-1.634l1.685-.281a1.48 1.48 0 0 0 1.238-1.464v-2.111a1.463 1.463 0 0 0-1.228-1.464zm-.116 3.574a.13.13 0 0 1-.11.13l-2.106.351a.672.672 0 0 0-.541.496 8.049 8.049 0 0 1-.872 2.101.68.68 0 0 0 .03.737l1.238 1.745c.035.05.03.125-.015.17l-1.494 1.494a.127.127 0 0 1-.095.04.123.123 0 0 1-.075-.025l-1.74-1.238a.679.679 0 0 0-.737-.03 8.014 8.014 0 0 1-2.101.872.665.665 0 0 0-.496.541l-.356 2.106a.13.13 0 0 1-.13.11h-2.111a.13.13 0 0 1-.13-.11l-.351-2.106a.672.672 0 0 0-.496-.541 8.358 8.358 0 0 1-2.056-.842.696.696 0 0 0-.341-.09.661.661 0 0 0-.391.125l-1.755 1.248a.149.149 0 0 1-.075.025.134.134 0 0 1-.095-.04L3.761 18.83a.136.136 0 0 1-.015-.17l1.233-1.73a.688.688 0 0 0 .03-.742 7.94 7.94 0 0 1-.882-2.096.686.686 0 0 0-.541-.496l-2.121-.361a.13.13 0 0 1-.11-.13v-2.111a.13.13 0 0 1 .11-.13l2.091-.351a.677.677 0 0 0 .546-.501 8.04 8.04 0 0 1 .857-2.106.67.67 0 0 0-.035-.732L3.676 5.419a.136.136 0 0 1 .015-.17l1.494-1.494a.127.127 0 0 1 .095-.04c.03 0 .055.01.075.025l1.73 1.233a.688.688 0 0 0 .742.03 7.94 7.94 0 0 1 2.096-.882.686.686 0 0 0 .496-.541l.361-2.121a.13.13 0 0 1 .13-.11h2.111a.13.13 0 0 1 .13.11l.351 2.091a.677.677 0 0 0 .501.546 8.16 8.16 0 0 1 2.151.882.68.68 0 0 0 .737-.03l1.73-1.243a.149.149 0 0 1 .075-.025c.02 0 .06.005.095.04l1.494 1.494c.045.045.05.115.015.17l-1.238 1.74a.679.679 0 0 0-.03.737c.391.657.682 1.364.872 2.101a.665.665 0 0 0 .541.496l2.106.356a.13.13 0 0 1 .11.13v2.111zM12.003 6.818c-2.858 0-5.179 2.321-5.179 5.179s2.321 5.179 5.179 5.179 5.179-2.321 5.179-5.179-2.321-5.179-5.179-5.179zm0 9.005c-2.111 0-3.825-1.715-3.825-3.825s1.715-3.825 3.825-3.825 3.825 1.715 3.825 3.825-1.715 3.825-3.825 3.825z"/></svg>