<!-- Generated by IcoMoon.io -->
<svg version="1.1" xmlns="http://www.w3.org/2000/svg" width="24" height="24" viewBox="0 0 24 24">
<title>cog1</title>
<path d="M22.772 9.481l-1.685-0.286c-0.175-0.567-0.401-1.113-0.677-1.634l0.993-1.389c0.421-0.592 0.356-1.399-0.16-1.91l-1.494-1.494c-0.281-0.281-0.652-0.436-1.048-0.436-0.311 0-0.607 0.095-0.857 0.276l-1.394 0.993c-0.541-0.286-1.108-0.521-1.695-0.697l-0.281-1.665c-0.12-0.717-0.737-1.238-1.464-1.238h-2.111c-0.727 0-1.344 0.521-1.464 1.238l-0.291 1.705c-0.562 0.175-1.108 0.406-1.629 0.687l-1.379-0.993c-0.251-0.18-0.551-0.276-0.862-0.276-0.396 0-0.772 0.155-1.048 0.436l-1.499 1.494c-0.511 0.511-0.582 1.319-0.16 1.91l1.003 1.409c-0.276 0.526-0.496 1.073-0.667 1.639l-1.665 0.281c-0.717 0.12-1.238 0.737-1.238 1.464v2.111c0 0.727 0.521 1.344 1.238 1.464l1.705 0.291c0.175 0.562 0.406 1.108 0.687 1.629l-0.988 1.374c-0.421 0.592-0.356 1.399 0.16 1.91l1.494 1.494c0.281 0.281 0.652 0.436 1.048 0.436 0.311 0 0.607-0.095 0.857-0.276l1.409-1.003c0.506 0.266 1.038 0.481 1.584 0.652l0.281 1.685c0.12 0.717 0.737 1.238 1.464 1.238h2.116c0.727 0 1.344-0.521 1.464-1.238l0.286-1.685c0.567-0.175 1.113-0.401 1.634-0.677l1.389 0.993c0.251 0.18 0.551 0.276 0.862 0.276 0.396 0 0.767-0.155 1.048-0.436l1.494-1.494c0.511-0.511 0.582-1.319 0.16-1.91l-0.993-1.394c0.276-0.526 0.506-1.073 0.677-1.634l1.685-0.281c0.717-0.12 1.238-0.737 1.238-1.464v-2.111c0.010-0.727-0.511-1.344-1.228-1.464zM22.656 13.055c0 0.065-0.045 0.12-0.11 0.13l-2.106 0.351c-0.266 0.045-0.476 0.241-0.541 0.496-0.191 0.737-0.481 1.444-0.872 2.101-0.135 0.231-0.125 0.516 0.030 0.737l1.238 1.745c0.035 0.050 0.030 0.125-0.015 0.17l-1.494 1.494c-0.035 0.035-0.070 0.040-0.095 0.040-0.030 0-0.055-0.010-0.075-0.025l-1.74-1.238c-0.216-0.155-0.506-0.165-0.737-0.030-0.657 0.391-1.364 0.682-2.101 0.872-0.261 0.065-0.456 0.281-0.496 0.541l-0.356 2.106c-0.010 0.065-0.065 0.11-0.13 0.11h-2.111c-0.065 0-0.12-0.045-0.13-0.11l-0.351-2.106c-0.045-0.266-0.241-0.476-0.496-0.541-0.717-0.186-1.409-0.471-2.056-0.842-0.105-0.060-0.226-0.090-0.341-0.090-0.135 0-0.276 0.040-0.391 0.125l-1.755 1.248c-0.025 0.015-0.050 0.025-0.075 0.025-0.020 0-0.060-0.005-0.095-0.040l-1.494-1.494c-0.045-0.045-0.050-0.115-0.015-0.17l1.233-1.73c0.155-0.221 0.165-0.511 0.030-0.742-0.391-0.652-0.692-1.359-0.882-2.096-0.070-0.256-0.281-0.451-0.541-0.496l-2.121-0.361c-0.065-0.010-0.11-0.065-0.11-0.13v-2.111c0-0.065 0.045-0.12 0.11-0.13l2.091-0.351c0.266-0.045 0.481-0.241 0.546-0.501 0.186-0.737 0.471-1.449 0.857-2.106 0.135-0.231 0.12-0.516-0.035-0.732l-1.248-1.755c-0.035-0.050-0.030-0.125 0.015-0.17l1.494-1.494c0.035-0.035 0.070-0.040 0.095-0.040 0.030 0 0.055 0.010 0.075 0.025l1.73 1.233c0.221 0.155 0.511 0.165 0.742 0.030 0.652-0.391 1.359-0.692 2.096-0.882 0.256-0.070 0.451-0.281 0.496-0.541l0.361-2.121c0.010-0.065 0.065-0.11 0.13-0.11h2.111c0.065 0 0.12 0.045 0.13 0.11l0.351 2.091c0.045 0.266 0.241 0.481 0.501 0.546 0.757 0.191 1.479 0.486 2.151 0.882 0.231 0.135 0.516 0.125 0.737-0.030l1.73-1.243c0.025-0.015 0.050-0.025 0.075-0.025 0.020 0 0.060 0.005 0.095 0.040l1.494 1.494c0.045 0.045 0.050 0.115 0.015 0.17l-1.238 1.74c-0.155 0.216-0.165 0.506-0.030 0.737 0.391 0.657 0.682 1.364 0.872 2.101 0.065 0.261 0.281 0.456 0.541 0.496l2.106 0.356c0.065 0.010 0.11 0.065 0.11 0.13v2.111zM12.003 6.818c-2.858 0-5.179 2.321-5.179 5.179s2.321 5.179 5.179 5.179 5.179-2.321 5.179-5.179-2.321-5.179-5.179-5.179zM12.003 15.823c-2.111 0-3.825-1.715-3.825-3.825s1.715-3.825 3.825-3.825 3.825 1.715 3.825 3.825-1.715 3.825-3.825 3.825z"></path>
</svg>
