<svg xmlns="http://www.w3.org/2000/svg" width="24" height="24"><path fill="#0667d0" d="M2.391 13.861c.089.195.204.37.341.524a1.95 1.95 0 0 1-.935.235h-.03.002C.744 14.62 0 13.944 0 12.866c0-1.086.782-1.762 1.769-1.762.351 0 .628.076.908.225-.131.16-.238.342-.32.541a1.365 1.365 0 0 0-.512-.098h-.008c-.607 0-1.078.388-1.078 1.094 0 .668.456 1.094 1.109 1.094.187 0 .36-.034.523-.099zm2.062-2.757c1.01 0 1.739.714 1.739 1.762 0 1.04-.729 1.754-1.739 1.754-1.002 0-1.731-.714-1.731-1.754 0-1.048.729-1.762 1.731-1.762zm0 .645c-.562 0-.972.433-.972 1.117 0 .676.41 1.109.972 1.109.577 0 .98-.433.98-1.109 0-.684-.403-1.117-.98-1.117zm2.217 2.795V11.18h.751v3.364zm-.099-4.397a.472.472 0 0 1 .942-.001v.001a.48.48 0 0 1-.471.478.48.48 0 0 1-.471-.478zm1.506 1.246a4.408 4.408 0 0 1 1.539-.289h.002c.858 0 1.405.326 1.405 1.276v2.164h-.744v-2.096c0-.486-.304-.661-.721-.661h-.02c-.253 0-.497.036-.728.104l.018-.005v2.658h-.752zm3.575-2.013h.752v1.891c.159-.084.471-.167.766-.167.972 0 1.701.623 1.701 1.701 0 1.086-.721 1.815-1.966 1.815-.486 0-.911-.098-1.253-.22zm.752 4.527c.144.045.334.068.524.068.69 0 1.184-.38 1.184-1.155 0-.653-.463-1.04-1.032-1.04h-.025c-.238 0-.462.059-.659.163l.008-.004zm4.638-1.618c0-.365-.273-.532-.645-.532a1.888 1.888 0 0 0-.98.278l.008-.005v-.653c.31-.172.679-.273 1.072-.273h.022-.001c.737 0 1.26.304 1.26 1.147v2.225a4.896 4.896 0 0 1-1.152.137h-.001c-.873 0-1.511-.266-1.511-1.026 0-.683.584-1.017 1.556-1.017h.372zm0 .782h-.319c-.524 0-.865.152-.865.494 0 .349.319.486.774.486.114 0 .274-.016.41-.038zm1.283.562c.311.235.683.38 1.025.38.334 0 .554-.114.554-.38 0-.274-.197-.372-.63-.486-.698-.16-.995-.441-.995-1.025 0-.684.517-1.018 1.2-1.018.38 0 .683.083.964.258v.691c-.296-.212-.584-.342-.941-.342-.327 0-.501.16-.501.38s.144.334.531.441c.767.167 1.101.455 1.101 1.063 0 .706-.539 1.025-1.268 1.025-.395 0-.789-.106-1.04-.273zm3.337-.6v.015c.045.6.562.927 1.085.927.463 0 .798-.107 1.131-.327v.661c-.303.213-.751.311-1.184.311-1.047 0-1.761-.668-1.761-1.731 0-1.071.698-1.785 1.625-1.785.979 0 1.442.63 1.442 1.549v.38zm1.632-.486c-.015-.524-.273-.813-.759-.813-.433 0-.752.304-.85.813z"/></svg>