<svg xmlns="http://www.w3.org/2000/svg" width="24" height="24"><path fill="#885630" d="M16.661 0c-.07 0-.115.034-.165.095a.413.413 0 0 0-.069.433l-.001-.003c.19.41.363.83.528 1.25.01.02.022.04.039.068-.039-.002-.05-.022-.063-.043-.297-.31-.648-.557-.998-.804-.473-.337-.99-.603-1.503-.872a.565.565 0 0 0-.212-.065h-.002l-.384-.04c-.202-.025-.355.09-.355.292 0 .108-.046.132-.135.14-.079.004-.187.115-.196.192a.694.694 0 0 0 .227.618l.001.001c.444.415.873.845 1.303 1.275l.015.007c.012.01.022.023.028.037v.001c-.007.003-.014.003-.019.003a.061.061 0 0 1-.036-.022c-.002-.002-.005-.005-.005-.007-.062-.036-.127-.07-.187-.11-.3-.2-.595-.404-.895-.598a.933.933 0 0 0-.457-.17h-.004a.453.453 0 0 0-.392.142.28.28 0 0 0-.088.254v-.002c.016.146.115.237.223.312.502.338.95.734 1.366 1.174.036.038.074.079.115.112.118.096.19.224.262.356.033.06.021.074-.043.074-.428 0-.836.118-1.246.204-.168.036-.334.094-.394.28-.065.21-.096.328.16.392.579.15 1.075.326 1.55.54l-.06-.024a.55.55 0 0 1 .118.078l-.001-.001c.12.104.23.219.362.303.38.247.77.478 1.22.583.053.012.1.039.151.05.05.015.084.044.094.094.029.178.139.279.305.33.021.006.038.02.06.028.052.017.076.055.093.108.067.24.137.478.212.715.026.08.002.101-.07.123-.372.108-.742.22-1.112.334-.132.04-.134.043-.067.163l.908 1.635c.127.23.132.23.365.11.024-.012.057-.053.079-.014.021.036.06.089.024.13-.113.129-.19.28-.286.42-.031.045-.031.074-.005.117.101.166.202.334.3.502.012.019.034.043.03.058l-.123.367a2.548 2.548 0 0 0-.323-.726l.006.01c-.18-.288-.41-.542-.62-.811-.033-.04-.072-.077-.11-.115-.2-.207-.456-.332-.699-.478a1.015 1.015 0 0 0-.334-.126l-.006-.001c-.375-.08-.747-.11-1.12.004-.076.024-.117.005-.162-.06-.092-.127-.166-.273-.289-.372-.3-.24-.617-.458-.986-.583a2.9 2.9 0 0 0-.859-.168h-.006l-.075-.001c-.137 0-.272.006-.405.019l.017-.001c-.396.03-.79.074-1.14.293-.07.043-.15.067-.221.108-.36.194-.716.386-1.016.679-.312.298-.605.606-.883.927l-.014.017c-.322.384-.565.818-.783 1.267-.015.031-.022.07-.07.096l-.12-.744c-.007-.046.022-.043.053-.038.089.01.175.014.264.026.067.01.103-.005.12-.08.022-.102.046-.206.067-.311.082-.397.2-.78.303-1.17.02-.074.007-.1-.07-.12-.381-.09-.763-.192-1.145-.283-.072-.017-.106-.043-.084-.12.087-.298.125-.61.242-.9a.178.178 0 0 1 .056-.087c.098-.076.17-.165.16-.302-.007-.103.041-.168.14-.214.182-.086.358-.187.53-.288a.842.842 0 0 0 .325-.329l.002-.004c.322-.605.59-1.242.98-1.81.033-.051.06-.106.1-.15.252-.264.488-.544.771-.78.089-.074.113-.175.115-.285 0-.128-.074-.217-.151-.305-.075-.087-.151-.161-.279-.147-.028.003-.057-.01-.088-.014.019-.039.05-.048.076-.065.339-.218.677-.437 1.016-.658.41-.264.819-.53 1.232-.794.052-.034.076-.06.019-.11-.015-.013-.024-.03-.036-.044-.084-.099-.084-.099-.2-.029L8.084 3.69c-.101.062-.101.062-.152-.05-.112-.263-.177-.539-.261-.81-.02-.062-.003-.098.045-.137.289-.23.553-.49.82-.742a.605.605 0 0 0 .186-.367v-.003c.022-.17-.09-.259-.244-.196a1.63 1.63 0 0 0-.229.109l.008-.004c-.68.375-1.405.632-2.149.848-.043.012-.082.026-.118-.02-.074-.09-.185-.14-.278-.208a.077.077 0 0 0-.047-.017l-.017.002c-.1.027-.204.056-.266.147-.159.233-.358.44-.507.682-.17.28-.333.562-.525.828-.036.05-.05.058-.084-.002l-.637-1.117a2.865 2.865 0 0 0-.228-.345l.005.007c-.094-.118-.209-.176-.358-.159-.026.003-.06-.005-.07.036-.02.11-.071.226-.057.332.034.27.082.542.15.806.114.459.244.912.38 1.364.133.444.282.88.426 1.323.012.038.033.072-.02.103-.067.038-.175.058-.187.125-.012.07.05.15.08.225l.007.017c.024.058.036.144.079.166.058.029.11-.05.163-.082.048-.029.065-.021.087.029.124.293.252.583.379.876a.177.177 0 0 1 .006.138v-.001a3.918 3.918 0 0 0-.188.695l-.004.025c-.012.07-.038.07-.091.055.471.094.192.022-.088-.049l-.745-.161c-.123-.032-.123-.032-.137.093v.01c-.06.665-.12 1.33-.183 1.994-.004.06.003.085.068.092.194.024.386.055.578.084.036.005.067.007.058.06-.043.225-.077.453-.125.677a.177.177 0 0 0 .034.163c.067.087.132.175.199.264.046.063.08.144.038.209a.196.196 0 0 0-.033.111v.008c.007.415.007.83.026 1.246.01.201.007.403.012.605.01.535.04 1.068.06 1.603.01.262-.036.521-.024.783.002.065.017.1.084.122.159.05.312.116.473.166a.28.28 0 0 1 .184.154l.001.002a.43.43 0 0 1 .04.182l-.002.039v-.002c-.002.072.024.115.082.156.247.177.492.36.74.542.65.48 1.3.963 1.954 1.44.06.046.074.082.038.147-.034.062-.055.135-.089.197-.029.058-.024.094.031.134.082.058.161.123.236.188.065.055.067.141.048.208-.015.049-.087.005-.132 0-.032-.002-.063-.01-.094-.014-.31-.05-.617-.13-.932-.156-.501-.04-1.003-.084-1.51-.07-.026 0-.067-.024-.074.03-.007.042-.017.088.031.117.024.014.05.026.077.036.283.098.547.24.807.389.168.096.333.204.518.269.034.012.068.038.108.002-.278-.22-.554-.442-.833-.665.039-.029.07-.017.099-.014.333.026.665.072.989.149.713.17 1.421.362 2.122.573.23.07.475.104.682.243.05.033.08.067.074.13.012.014.027.033.01.045-.02.012-.036-.012-.05-.024-.164-.014-.327-.026-.488-.043-.463-.046-.924-.11-1.392-.096-.35.01-.701-.015-1.05.01-.494.033-.989.098-1.48.15-.025.003-.063-.002-.063.027 0 .036.014.077.06.087a.568.568 0 0 0 .113.012c.25.01.497.007.746.011.62.015 1.242-.012 1.86.041.224.02.45.01.668.05 1.03.193 2.055.394 3.078.618.12.026.243.045.36.103-.055.05-.127.065-.158.137-.219.506-.363 1.04-.53 1.563-.03.089.03.192.12.216a.28.28 0 0 0 .352-.219v-.002c.02-.108.039-.216.053-.327.005-.036.017-.055.053-.067.132-.053.261-.108.393-.16a1.63 1.63 0 0 0 .53-.326l-.001.001c.134-.127.247-.274.25-.47 0-.06.014-.099.062-.135.22-.17.418-.365.61-.564.184-.187.38-.362.587-.523l.013-.01c.024-.02.043-.048.081-.034l.56.221c-.375.228-.73.447-1.083.66-.017.01-.036.015-.053.02a.818.818 0 0 0-.338.201c-.375.372-.567.814-.545 1.35.014.36.22.53.571.449.615-.144 1.14-.733 1.232-1.379.024-.18.052-.357-.077-.513a2.398 2.398 0 0 0-.178-.195c.02-.012.029-.019.039-.026.777-.463 1.625-.778 2.475-1.07 1.04-.359 2.1-.644 3.164-.918l-.075-.017c-.07.007-.136.015-.206.02a5.163 5.163 0 0 0-.907.141l.035-.007-.016.007a.214.214 0 0 1-.082.015h-.013.001c-.014 0-.029 0-.048.002.065-.062.252-.264.303-.25l.002-.005h.005c0-.007.019-.021.019-.021.017-.029.04-.048.074-.05a.7.7 0 0 1 .194-.186l.003-.002c.05-.031.103-.062.161-.086h-.002c.16 0 .319-.194.486-.262-.001-.006-.01-.01-.013-.017-.24.034-.476.072-.706.159-.492.182-1.001.324-1.481.535-.742.324-1.482.648-2.195 1.035a.823.823 0 0 1-.072.034l-.005.002-.055-.504c-.005-.034.012-.048.041-.063.631-.334 1.265-.665 1.925-.938.543-.226 1.08-.471 1.626-.692.002-.005.005-.01.01-.01h.004c.003 0 .003.003.005.003.007.012.002.02-.005.026-.002.003-.005.003-.01.005h-.002c-.14.191-.264.408-.364.638l-.008.022c.038.01.053-.002.067-.017.113-.12.226-.237.336-.357.214-.235.44-.459.704-.641.017-.012.045-.022.033-.048-.014-.03-.045-.015-.067-.01-.247.05-.494.096-.74.154-.081.019-.076-.01-.079-.067-.002-.197.027-.39.034-.586a.634.634 0 0 1 .06-.251l-.002.004c.098-.226.197-.45.297-.675.05-.113.08-.233.099-.353.031-.192.055-.386.074-.58.031-.299.137-.58.187-.875.065-.374.118-.751.257-1.109.125-.317.245-.634.372-.948.176-.428.399-.833.505-1.29.036-.158.076-.302.004-.458-.04-.084-.052-.18-.081-.271a.38.38 0 0 1-.011-.206v.003c.048-.245.07-.488-.063-.716-.036-.062.008-.1.044-.139.088-.091.093-.132.016-.23-.088-.11-.175-.224-.27-.327-.08-.084-.154-.175-.234-.262-.055-.033-.05-.055.012-.076.14-.048.276-.108.418-.152.08-.024.1-.07.106-.141.045-.605.09-1.213.139-1.818.007-.084-.007-.1-.094-.074-.454.144-.907.28-1.363.422-.14.044-.142.044-.204-.093-.231-.519-.411-1.057-.6-1.59a.382.382 0 0 1 .008-.318l-.001.002c.067-.188.024-.377.019-.567a.093.093 0 0 1-.005-.029 9.193 9.193 0 0 0-.268-1.612l.014.064a5.942 5.942 0 0 0-.516-1.302l.016.032c-.228-.432-.473-.86-.737-1.275-.113-.178-.233-.339-.434-.427A.687.687 0 0 0 16.66 0zm-2.643.26h.014c.069 0 .133.019.188.052l-.002-.001c.603.297 1.084.565 1.552.852l-.083-.047c.247.158.482.338.715.52.11.087.192.217.284.33.038.047.012.09-.024.124-.024.024-.058.039-.087.055-.031.022-.072.041-.06.087.01.04.055.05.091.058a.28.28 0 0 0 .16-.015l-.002.001c.168-.07.31.048.418.166.028.03.04.093.093.074.055-.021.063-.081.058-.137-.012-.15-.05-.297-.084-.444-.09-.377-.27-.718-.418-1.073-.053-.127-.11-.254-.163-.382-.029-.07.01-.132.048-.182.031-.04.081-.005.122.014.152.068.238.19.312.332.08.15.178.29.262.436.144.255.322.495.437.762.168.388.382.758.483 1.176.086.37.208.732.252 1.114.016.144-.01.283.007.422.033.279-.008.543-.123.798-.03.07-.021.136.012.208.252.533.461 1.083.67 1.635.027.072.015.101-.06.123-.482.141-.965.288-1.447.434-.07.022-.092.003-.113-.06-.123-.326-.24-.646-.353-.967-.024-.068-.053-.104-.128-.087-.088.022-.136-.017-.175-.096-.062-.127-.113-.28-.216-.36s-.266-.082-.403-.115c-.103-.027-.207-.058-.312-.075a1.426 1.426 0 0 1-.615-.275l.003.002c-.303-.224-.615-.43-.934-.627-.104-.007-.202-.036-.303-.06-.278-.057-.554-.117-.833-.17-.067-.012-.08-.063-.084-.108-.007-.056.007-.11.065-.144.089-.053.19-.063.29-.08.395-.07.859-.117 1.332-.13h.013c.11-.002.209.04.312.066a.183.183 0 0 0 .167-.03c.216-.143.434-.28.65-.422.034-.021.096-.036.07-.093a.086.086 0 0 0-.015-.022c-.012-.01-.026-.012-.043-.012l-.05.002h-.024c-.243 0-.469.075-.655.203l.004-.003c-.079.05-.259.019-.31-.056-.34-.516-.823-.888-1.282-1.289-.204-.177-.403-.362-.619-.526-.055-.04-.08-.144-.043-.196.048-.072.11-.041.168-.015.185.082.362.175.528.293.564.403 1.17.744 1.772 1.085.014.009.03.018.047.026l.003.001c.092.03.14-.01.125-.106a.26.26 0 0 0-.062-.134c-.488-.574-1.001-1.124-1.506-1.683-.105-.116-.23-.216-.348-.32a.86.86 0 0 1-.218-.273l-.002-.005a.161.161 0 0 1 .023-.19c.041-.045.077-.055.137-.024.17.082.332.178.483.293.266.202.535.403.804.605l.807.603c.021.017.043.033.062.05.05.046.094.094.142.142l.029.029c.019.019.036.045.06.06.055.033.112.062.17.004.02-.019.029-.036.031-.055 0-.007.003-.014 0-.021 0-.003 0-.008-.002-.01a.17.17 0 0 0-.043-.072l-.18-.187a4.445 4.445 0 0 0-.307-.293l-.005-.005c-.349-.29-.706-.571-1.066-.845-.183-.14-.397-.233-.596-.348-.072-.041-.12-.101-.173-.159a.142.142 0 0 1-.023-.151v.001c.022-.054.075-.051.12-.057zM8.252 1.649l.007-.001c.008 0 .015.002.022.006.048.027.03.077.03.135.013.06-.026.11-.08.16-.346.322-.707.627-1.076.922-.147.118-.327.173-.49.262-.034.017-.053 0-.072-.024-.12-.154-.238-.31-.358-.463-.045-.055.017-.053.046-.065.254-.091.504-.195.756-.295.365-.144.696-.35 1.04-.533.036-.02.07-.043.105-.063.024-.01.044-.037.07-.041zm-2.619.83a.223.223 0 0 1 .134.064c.072.067.13.144.18.228.173.28.413.506.646.737.163.163.329.321.502.47.057.05.067.127.098.192.012.024.002.043-.02.055-.011.008-.023.013-.03.02-.142.12-.276.103-.442.019a3.2 3.2 0 0 1-.863-.645l-.001-.001c-.01-.01-.02-.017-.03-.024-.114-.086-.12-.082-.17.05-.052.135-.086.274-.146.404-.022.045.012.094.046.127.038.039.064.099.134.089.031-.005.048-.022.055-.055.017-.08.039-.159.06-.257.262.22.553.391.84.583l-.278.159c-.713.4-1.428.801-2.139 1.205-.058.031-.082.038-.106-.034-.273-.847-.561-1.69-.79-2.552-.052-.2-.074-.408-.112-.612-.012-.06.028-.091.067-.113.053-.026.055.036.074.06.377.521.634 1.11.941 1.669.092.168.195.331.293.497.02.03.034.057.082.04.053-.019.043-.052.034-.09-.039-.174-.128-.33-.193-.493a.177.177 0 0 1 .004-.161v.001c.137-.284.329-.531.48-.803.14-.247.317-.468.451-.717a.206.206 0 0 1 .201-.112h-.001zm1.774.492c.014.003.024.016.036.042.12.27.201.555.302.83.01.027.012.049-.017.066l-.256.158c-.008.005-.017.007-.046.02-.007-.013-.017-.034-.031-.051l-.54-.62c-.024-.028-.048-.055 0-.081.177-.101.312-.264.499-.35.024-.011.04-.017.053-.014zm1.929.486h.011c.049 0 .094.017.13.047a.211.211 0 0 1 .08.219v-.001a.553.553 0 0 1-.161.29c-.333.32-.624.678-.868 1.07l-.014.023c-.228.36-.453.718-.624 1.11a.79.79 0 0 1-.146.206c-.24.273-.526.485-.855.638a.17.17 0 0 0-.108.158v.001c-.005.06-.024.118-.029.178a.475.475 0 0 1-.189.38l-.001.001c-.04.031-.045.082-.06.125l-.273.915c0 .007 0 .014-.002.019 0 .014.002.031-.017.038-.041.01-.077-.002-.113-.021a33.432 33.432 0 0 1-1.621-.402l.291.068c-.055-.012-.108-.029-.166-.036-.088-.012-.096-.053-.055-.12.058-.281.125-.56.298-.797.038-.053.036-.096.002-.154-.19-.317-.334-.658-.492-.989-.026-.055-.017-.08.034-.11 3.247-1.933 4.09-2.464 4.931-2.997l-2.348 1.39c.045-.03.089-.012.132-.022.151-.034.298-.08.43-.163.01-.007.026-.012.03-.022.097-.213.31-.286.49-.37.411-.187.826-.36 1.189-.633a.175.175 0 0 1 .094-.038h.001zm11.443 3.772v.005l.002-.001c-.021.256-.043.498-.062.74l-.043.535c-.005.065-.024.106-.094.13-5.052 1.599-6.169 1.997-7.286 2.397l3.877-1.218c-.036.005-.055-.012-.08-.055-.218-.394-.439-.785-.662-1.177-.029-.05-.038-.077.034-.096l4.254-1.246c.014-.005.031-.007.06-.014zm-.41.386c-.154.003-.293.147-.286.293.007.137.124.257.254.252.137-.002.27-.153.267-.302-.005-.166-.082-.245-.235-.243zm-16.83.87c.01 0 .024.002.039.007L5.513 9c.645.171 1.291.34 1.937.51.062.017.082.036.06.1l-.278.913c-.01.036-.017.074-.058.074H7.17l-.016-.002-1.036-.142c-.226-.03-.45-.062-.675-.093.688.065-.013-.036-.716-.133l-1.339-.153c-.043-.012-.058-.038-.05-.098.052-.476.103-.951.153-1.429.003-.012.002-.021.005-.031a.033.033 0 0 0 .005-.015c.007-.014.021-.019.038-.016zm8.136.103l.113.002c.197.01.389.086.569.166.08.036.159.07.238.108l.057.029c.058.028.118.057.173.09l.113.065c.036.025.075.046.108.073.072.05.142.105.207.165.218.202.372.44.463.72.065.202.113.409.13.617.016.202-.044.399-.096.593-.008.03-.02.036-.03.034-.014-.005-.021-.022-.033-.036l-.216-.25a2.111 2.111 0 0 0-1.027-.68l-.015-.004a4.024 4.024 0 0 0-.987-.154h-.007a3.839 3.839 0 0 0-.83.097l.026-.005c-.211.04-.423.074-.631.113-.137.024-.262.086-.387.141-.06.027-.12.053-.18.076l-.02.004c-.376.132-.695.36-1.024.57-.09.06-.165.14-.243.218l-.01.008-.064.065c-.152.147-.3.296-.464.43-.074.103-.175.175-.268.266.024-.17.07-.328.146-.472.091-.172.178-.314.272-.451l-.01.016c.048-.07.096-.14.146-.206.112-.151.216-.28.323-.406l-.008.01c.081-.097.163-.193.247-.289s.168-.19.25-.285a.939.939 0 0 1 .112-.097l.003-.002.026-.03c.078-.067.147-.137.238-.21l.012-.01.067-.062c.24-.228.519-.406.797-.583.028-.019.057-.035.086-.051l.111-.048c.01-.004.02-.01.029-.012.038-.017.095-.039.153-.059l.02-.006.117-.036c.14-.04.279-.074.416-.117.222-.073.477-.115.743-.115h.041-.002zm-7.57.449c-.071.004-.153-.003-.215.057a.46.46 0 0 0 .012.665.283.283 0 0 0 .379 0c.146-.127.183-.314.096-.535-.053-.137-.125-.187-.272-.187zm15.846.062c.087-.001.163.053.23.146.014.01.029.02.043.032.022.019.03.04.053.064.099.113.207.224.31.334a.072.072 0 0 1 .014.024.03.03 0 0 1 .002.009.02.02 0 0 1-.004.013.04.04 0 0 1-.015.014l-.01.015-.002.002c-.002.002-.002.005-.004.01 0 .002-.003.004-.003.004h.003v.008c-.145.146-.106.283.01.415.006.012.014.024.014.036.096.127.016.254 0 .382-.003.012-.005.016-.015.021l-.007.003a.105.105 0 0 1-.03-.005h.001l-.01-.003a5.909 5.909 0 0 1-.321-.097l.069.02c-.007 0-.012-.004-.019-.007-.007 0-.012-.007-.019-.007h-.015a.28.28 0 0 1-.105-.02l.002.001a.248.248 0 0 0-.292.05.046.046 0 0 1-.005.02c.04.06.108.074.168.093.245.08.453.23.68.348.052.03.062.092.057.152-.003.033-.012.067-.02.103l-.072.31v.009a.123.123 0 0 1-.02.068v-.001c.003.168-.115.293-.17.437-.007.012-.012.017-.02.041a3.162 3.162 0 0 1-.137.317l.008-.019c0 .007-.01.017-.012.024v-.005c0 .002-.002.002-.002.005l-.005.01c-.003.002-.003.004-.005.007-.012.045-.02.093-.058.132a1.92 1.92 0 0 1-.192.441l.005-.009c-.007.012-.012.012-.017.036-.062.144-.127.317-.19.475-.014.058-.026.115-.04.17l-.008.015c0 .002-.002.002-.002.005 0 .005-.005.01-.007.014v.015a.45.45 0 0 1-.037.18l.001-.003c-.012.039-.022.082-.034.12a.117.117 0 0 1-.005.02l-.201.912c-.055.25-.077.504-.118.754-.038.235-.048.477-.106.708-.04.168-.136.324-.213.48-.072.146-.118.302-.207.444l-.007.015a.11.11 0 0 0-.012.029v.001c-.002.006-.002.013-.005.018l-.007.033a.23.23 0 0 0-.002.028v.008c0 .012 0 .024-.003.036v.052l-.002.058v-.003c-.02.257-.053.514-.041.773.002.048-.012.075-.058.091l-.057.022c-.049.018-.086.035-.123.052l.01-.004-.06.024c-.031.012-.05.022-.099.034v-.005s-.007.005-.011.005l-.133.055-.093.038a.625.625 0 0 1-.207.091l-.004.001-.036.021c-.318.133-.474.204-.629.276l.155-.065c-.081.024-.165.072-.247.11-.089.04-.175.075-.264.114-.139.062-.278.12-.418.182-.004.002-.012 0-.016 0-.128.048-.26.118-.38.173-.048.026-.117.053-.177.077-.11.043-.135.038-.159-.075-.072-.052-.079-.141-.105-.216-.027-.072-.048-.15-.072-.223-.005-.024-.017-.02-.017-.034-.024-.033-.024-.064-.036-.098l-.003-.017c-.007-.005-.007-.012-.01-.019l-.006-.017h.004c-.033-.1-.07-.199-.093-.3-.024-.067-.067-.132-.08-.202a.147.147 0 0 1 0-.071v.001l.008-.033.004-.017c.02-.047.051-.093.075-.139.017-.038.031-.077.048-.115s.031-.067.048-.115c.038-.072.062-.156.11-.24 0-.02.015-.039.02-.058.043-.146.09-.295.149-.437 0-.005-.005-.012-.003-.017.017-.086.098-.117.146-.168v.003c.024-.008.037-.022.049-.022.014-.024.028-.034.043-.048.036-.044.072-.092.104-.143l.004-.006c.045-.067.086-.137.137-.204.016-.021.03-.055.057-.055.005 0 .007 0 .012.002.039.01.027.055.022.084a.837.837 0 0 0 .001.332l-.001-.006c.012.084.026.168.033.252l-.002.038a.543.543 0 0 1 .036.189v.001c.02.082.036.16.06.242.072.15.125.3.173.454l.005-.002c.081.12.163.26.245.391.024.031.05.065.074.089h.005v.02c.024 0 .036.052.072.004-.007-.024-.012-.024-.02-.024a.41.41 0 0 1-.029-.077l-.001-.003c-.005-.016-.013-.035-.015-.05-.004-.014-.009-.03-.012-.048v-.002c-.002-.007-.002-.017-.005-.024a.26.26 0 0 0-.011-.05l.001.002-.011-.075-.013-.074c-.007-.007-.007-.017-.007-.026-.002-.01-.004-.02-.01-.03-.002-.028-.007-.057-.011-.086l-.022-.172c-.002-.03-.012-.058-.014-.087a3.737 3.737 0 0 1 .039-.963l-.003.022h.014c.029-.144.058-.31.086-.466.008 0 .015.003.024.003-.01.261.017.52.075.775.002.005.002.012.002.017.036.098.075.197.106.298.007.021.014.043.022.062a.37.37 0 0 0 .055.095v-.001c.007.012.021.024.021.036.024.019.036.04.056.06.014.016.026.036.04.053.05.048.104.093.166.156a2.008 2.008 0 0 1-.016-.124l-.001-.016c-.004-.043-.012-.086-.016-.134 0 0-.013-.007-.013-.012a.832.832 0 0 0-.011-.113l.001.005-.04-.33c0-.009 0-.016.002-.025 0-.01.003-.027.003-.027a2.695 2.695 0 0 1-.021-.337l.001-.082v.004l-.002-.017a1.134 1.134 0 0 1-.001-.377l-.001.007c.005-.033.002-.07.005-.103 0-.007-.003-.012-.003-.02 0-.158.007-.319.055-.472l.003-.017c.012-.072.024-.158.036-.238.012-.079.024-.16.033-.24.005-.033.015-.05.034-.05.01 0 .024.005.04.017l.051.03.075.049c.024.017.048.033.07.055.002.002.004.005.009.007l.016.012h.006v-.002c.168.084.261.226.374.358a.306.306 0 0 1 .109.149l.001.002c.075.098.13.204.169.322.002.01.007.021.01.03.002.01.007.006.009.03.02.024.031.055.043.084l.034.084.019.04c.005.01.01.017.017.024a.07.07 0 0 0 .04.024c.027-.088-.035-.172-.011-.256h.007c0-.024-.007-.025-.007-.037-.024-.156-.044-.31-.109-.453-.002-.012-.002-.039-.002-.039-.058-.144-.086-.29-.17-.417a.1.1 0 0 1-.037-.062v-.001c-.026-.024-.04-.053-.055-.081l-.028-.044-.01-.019v.017c0-.002-.005-.005-.005-.007v-.003a2.99 2.99 0 0 0-.222-.281l.002.003-.01-.01c-.01-.01-.02-.01-.03-.033-.057-.024-.112-.096-.17-.147-.007-.007-.014-.01-.019-.017-.005-.004 0-.01-.024-.016-.12-.082-.209-.183-.314-.255-.02-.024-.044-.01-.053-.048.31-.019.61.017.922.036v-.012h.002c.154.024.298.053.437.113.005 0 .01.007.017.007v.005c.096.022.187.065.278.108.02.01.044.04.065.012.017-.024-.01-.046-.024-.065-.036-.05-.07-.1-.108-.151-.007-.012-.019-.024-.019-.036-.072-.07-.127-.149-.19-.219a.879.879 0 0 1-.059-.063l-.001-.001a1.21 1.21 0 0 1-.209-.17c-.012-.008-.024-.022-.036-.022-.03 0-.064-.034-.096-.056-.03-.021-.064-.04-.096-.062-.012-.007-.024-.012-.036-.02-.146-.055-.293-.105-.44-.16-.004 0-.013-.003-.013-.005 0 0-.013 0-.017-.002a.11.11 0 0 1-.072-.03.089.089 0 0 1-.027-.034v-.001l-.005-.012c-.007-.02-.01-.041-.007-.063a.985.985 0 0 0-.013-.226l.001.006c-.002-.022-.007-.041-.012-.063l-.017-.075.003.015-.015-.062a1.84 1.84 0 0 0-.028-.106l.004.016s-.01-.002-.01-.009c-.023-.146-.08-.293-.124-.437-.007-.019-.01-.033-.017-.057a.362.362 0 0 1-.057-.167v-.001c0-.02 0-.036.002-.056l.002-.026c.005-.027.01-.055.02-.082l.033-.108c0-.005 0-.017.003-.017h-.003c.031-.17.099-.314.147-.468 0-.002.005-.002.005-.005l.01-.01c.002-.002.004-.002.004-.004a.262.262 0 0 0 .054-.161l-.001-.026v.001a.325.325 0 0 0-.028-.105l.001.002c-.016-.043-.038-.084-.06-.127-.002-.005-.01-.01-.014-.012-.002-.003-.005-.005-.005-.008a1.199 1.199 0 0 1-.206-.347l-.003-.008-.016-.038c-.005-.005-.005-.01-.008-.017l-.002-.007-.007-.016v-.001l.002.002-.002-.005a.197.197 0 0 1 .013-.045l-.001.002c.004-.01.01-.017.014-.026.005-.007.012-.014.02-.022l.009-.007c.065-.094.125-.192.197-.283a.26.26 0 0 0 .049-.254l.001.002c-.04-.137-.036-.14.101-.19.024-.01.315-.12.432-.156l.075-.029.019-.007c-.116.032.053-.032.222-.096l.287-.094c.005-.002.012-.002.017-.002.141-.072.293-.118.441-.168.02-.007.036-.015.06-.02.024-.019.096-.035.12-.055.12-.038.216-.093.324-.117a.286.286 0 0 1 .166-.067h.001zm-5.432.603a.804.804 0 0 1 .236.038l-.006-.002.014.004c.259.08.523.142.77.26.041.019.084.038.113.077.16.115.307.247.43.405.19.245.38.492.557.773-.011-.003-.022-.008-.034-.013v-.001a1.02 1.02 0 0 1-.188-.105l.003.002a5.92 5.92 0 0 0-.634-.339l-.04-.017a1.395 1.395 0 0 0-.322-.099l-.009-.001a3.228 3.228 0 0 0-.923-.04l.013-.001c-.084.007-.17 0-.255 0-.062 0-.091-.03-.091-.092 0-.235.012-.472-.06-.7-.015-.048.014-.068.055-.082.11-.041.238-.066.37-.067h.001zm-2.75.773c.423-.015.812.105 1.167.324.132.08.253.176.363.284l.014.013c.122.123.23.26.321.41.08.13.058.272.031.414-.072.406-.316.706-.592.987-.265.269-.596.444-.903.648-.435.29-.932.403-1.438.478-.632.093-1.273.103-1.906.187-.23.029-.464.048-.694.089a1.073 1.073 0 0 0-.678.407l-.002.003c-.062.084-.1.187-.16.303a.518.518 0 0 1 .028-.397l-.001.003c.112-.238.297-.425.526-.537l.007-.003c.415-.219.879-.262 1.323-.375.36-.091.73-.144 1.087-.242a7.157 7.157 0 0 0 1.466-.569l-.04.019c.24-.125.49-.252.656-.485a.726.726 0 0 0 .119-.562l.001.005c-.005-.034-.015-.05-.027-.053-.012-.002-.029.007-.05.027-.18.16-.367.314-.571.449-.32.206-.673.33-1.038.42-.58.144-1.166.266-1.764.31a4.85 4.85 0 0 0-1.273.252l.034-.01c-.34.118-.687.235-.96.49-.034.03-.075.057-.13.098l.007-.038-.026.019v-.005c.009-.006.016-.013.024-.017a.6.6 0 0 1 .085-.202l-.001.002.646-1.022a.311.311 0 0 1 .041-.053c.334-.329.653-.677 1.023-.965.614-.48 1.284-.855 2.055-1.02.187-.041.377-.07.571-.07.22-.002.442-.01.66-.016zm-7.632.022c.013 0 .029.002.048.009.029.01.062.007.094.01.127.028.259.03.386.062.012 0 .017.002.034.01.146.007.283.028.415.06l-.015-.003c.145.02.289.036.433.06.033 0 .062-.002.093.017.005 0 .012-.002.012 0 .168.02.3.031.445.055h-.015v.005c.096.012.159.024.233.036.077.012.156.031.23.031h.003c.007 0 .012.003.017.003l.021.005c.048.002.067.028.075.07.038.227.07.455.117.683 0 .017.01.032.008.046l.019.11c.021.11.04.221.062.332 0 .01 0 .031.003.036v.01c.024.143.05.273.074.41v.046c-.12.131-.221.283-.296.449l-.004.011c-.031.075-.07.152-.1.226l-.006.003c-.024.076-.062.15-.098.223-.003 0-.005.005-.007.01-.005.009-.008.024-.012.03v.003c-.057.16-.122.297-.198.427l.006-.012c-.008.02-.024.039-.024.056-.024.09-.046.182-.092.266a.76.76 0 0 1-.076.23l.002-.004a2.112 2.112 0 0 1-.135.407l.005-.013c-.007.019-.019.036-.019.055l-.002.007c-.003.007-.005.02-.01.029a.112.112 0 0 1-.01.031v-.001l-.002.01-.038.742.021.008.094-.185c.031-.06.055-.123.089-.185.019-.043.05-.086.05-.13.072-.12.137-.24.211-.35.008-.012.022-.02.03-.043.062-.097.134-.224.208-.334.026-.043.054-.08.078-.123h-.001c.017-.048.043-.055.065-.076.021-.022.033-.044.081-.065 0 .019.005.036.003.053l-.003.01c0 .009-.004.018-.007.028l-.002.01c-.003.007-.003.012-.005.019l-.002.015v.005c0 .006-.005.011-.003.018l-.003.015h.003c-.022.144-.021.307-.024.458 0 .007-.005.02-.005.024l.005-.002c.02.144.043.288.062.432h-.002c.003 0 .005.031.005.043.024.144.055.29.072.437l.002.017c.003.01.005.017.005.026.024.116.11.195.163.296.039.055.08.12.116.168h.002v.002c.12.106.22.214.355.31.02 0 .039.024.058.024h-.002v.012c.048.005.088.043.139.029a.09.09 0 0 0 .026-.012c.007-.005.017-.01.02-.017.011-.022-.01-.034-.027-.041-.197-.125-.166-.33-.19-.521h.008v-.003c.048.046.081.091.122.14a.12.12 0 0 0 .024.026l.05.055c.034.036.07.07.108.101.039.031.08.065.125.089.02.007.039.024.056.024h-.005c.144.07.269.137.4.206a.15.15 0 0 1 .08.036c.048.144.105.288.091.456.005 0 .01.017.012.03a1.596 1.596 0 0 1-.005.451.047.047 0 0 1 .004.017.043.043 0 0 1-.006.022c-.003.005 0 .007-.002.012h.002c0 .14-.002.278-.038.415-.003.137-.046.27-.06.406 0 .005-.003.01-.005.017-.008.026-.02.057.038.05v-.002c.13-.135.26-.267.38-.418v.01c.002-.048.03-.073.057-.096.05-.049.1-.13.151-.2.05-.07.101-.137.152-.206l.002-.012c.007-.024.017-.039.029-.046.005-.002.01-.005.014-.005H9.3c.019.003.036.01.05.02.03.017.055.033.08.05l-.003-.002c.144.079.307.132.415.269.012.012.026.014.038.038.05.024.096.08.133.132l.038.036c.002.002.005.002.007.005.19.16.204.247.067.46-.004.008-.012.015-.016.015a.203.203 0 0 1-.025.056l.001-.001a.256.256 0 0 1-.02.037v-.001l-.01.017c-.035.058-.074.118-.088.185a.416.416 0 0 0-.012.17v-.002c.026.094.05.19.07.286.012.057.024.115.028.175.02.142-.048.228-.168.288v-.002c-.024.002-.026.017-.038.024a.072.072 0 0 1-.02.014.327.327 0 0 1-.036.025l-.002.001a.2.2 0 0 0-.077.086v.001c0 .007 0 .005-.002.01-.002.004 0 .014-.002.014h.007v.014c-.024.07-.036.12-.048.156-.003.01-.007.017-.01.024-.002.008-.007.012-.01.017-.002.005-.007.01-.009.012a.05.05 0 0 1-.024.012h-.007a.173.173 0 0 1-.051-.012h.001c-.034-.012-.078-.029-.138-.048-.004-.002-.009-.002-.011-.005a.025.025 0 0 0-.012-.004l-.027-.012h-.01v-.01h-.002c-.072-.024-.14-.038-.204-.065-.038-.014-.08-.026-.12-.043-.05-.012-.1-.036-.151-.036-.14-.048-.281-.072-.416-.12-.011 0-.019.002-.043 0v.002c-.096-.019-.173-.043-.264-.06-.089-.014-.122-.06-.113-.148.005-.037.003-.08.003-.116 0-.012-.003-.017-.003-.04-.014-.025-.036-.053-.055-.085a.123.123 0 0 1-.014-.025v-.001c-.012-.012-.036-.024-.036-.038-.024-.005-.015-.01-.022-.015-.074-.07-.053-.163-.043-.252l.002-.029.008-.055c.002-.01.002-.02.004-.026.039-.15.048-.29-.113-.38-.019-.012-.03-.024-.055-.04v.004a2.658 2.658 0 0 0-.215-.158l-.01-.007c-.012-.024-.015-.029-.039-.039a1.445 1.445 0 0 1-.31-.228l-.074-.04h.01c-.015-.025-.032-.022-.044-.034-.019-.014-.036-.024-.06-.039-.12-.103-.283-.199-.413-.316-.045-.015-.074-.05-.11-.08v-.004c-.127-.09-.252-.176-.377-.272h.003c-.015 0-.015-.012-.039-.024-.072-.036-.144-.096-.206-.144-.02-.024-.039-.024-.058-.024-.058-.048-.108-.07-.156-.113-.02-.012-.036-.026-.06-.04a2.213 2.213 0 0 1-.398-.29l.002.001-.012-.012-.022-.024a.191.191 0 0 1-.038-.08v-.001.019c-.087-.094-.144-.202-.216-.3l-.007-.015a.024.024 0 0 1-.005-.014.1.1 0 0 1-.003-.025v-.001a.122.122 0 0 1 .024-.053c0-.005.003-.012.003-.02.024-.153.108-.292.168-.436v-.037s0-.022-.003-.032l-.004-.014-.005-.005a.037.037 0 0 0-.017-.01h-.007a.114.114 0 0 0-.058.022.3.3 0 0 0-.055.043l-.02.015-.014.018v.001l-.007.01c0 .002-.002 0-.002 0 0 .002-.003 0-.003 0v.002c-.048.055-.12.103-.182.154-.012.012-.034.026-.034.038v-.002h-.007c-.02.024-.045.024-.072.012l-.31-.137c-.024-.012-.036-.038-.04-.062a.226.226 0 0 1-.007-.028l-.001-.004-.007-.026v.005c-.036-.168.022-.293.053-.437.002-.012.005-.024.005-.036.024-.14.033-.288.074-.423v-.062c-.021-.154-.022-.305-.033-.459l.002-.079c-.014-.286-.033-.571-.043-.857-.022-.598-.07-1.193-.053-1.79v-.017a.63.63 0 0 0-.076-.302l.002.003a1.978 1.978 0 0 0-.103-.171l.004.007a.263.263 0 0 1-.048-.239v.002c.036-.14.063-.284.089-.425.009-.05.022-.084.059-.085zm-.166.38l.005.015c.005.032-.007.065-.021.113a.122.122 0 0 1 0-.087v.001a.287.287 0 0 1 .017-.044l-.001.002zm10.715.003c.13-.002.257.005.381.024.219.017.42.058.55.164.094.04.188.09.279.144.22.132.441.269.662.403a.387.387 0 0 1 .117.107l.001.001.223.315c.012.016.031.036.015.057a.035.035 0 0 1-.02.014c-.018.004-.034-.002-.05-.011-.098-.056-.2-.108-.298-.164a4.641 4.641 0 0 0-1.151-.452l-.033-.007c-.107-.031-.208-.061-.323-.076l-.152-.034c-.004.003.005.012.017.024.005.005.01.01.012.015a.16.16 0 0 0 .04.033h.001l.02.01c.227.115.612.187.892.317l.058.029c.156.081.298.182.44.29l.268.207c.404.293.65.689.77 1.169.003.014.008.029.01.043l.01.014c.02.03.024.065.017.096.002.008.002.015.005.022-.005.07-.06.04-.092.04a2.503 2.503 0 0 1-.628-.115l.018.005h-.006c-.051-.016-.118-.04-.165-.054-.211-.075-.41-.163-.615-.238-.252-.089-.449-.261-.662-.413a7.92 7.92 0 0 1-1.003-.818l.002.002a.334.334 0 0 1-.079-.104l-.001-.002a1.999 1.999 0 0 1-.052-.125l-.01-.028-.036-.094a.838.838 0 0 0-.027-.067l.003.007-.002-.005c-.003-.002-.003-.007-.003-.01v-.002l-.002-.01a.172.172 0 0 1 .008-.123v.001c.002-.005.002-.01.005-.014l.005-.017.004-.014c.003-.005.003-.013.005-.017l.003-.015.002-.017.003-.014.002-.017.002-.014.003-.017.002-.014.003-.017c0-.005 0-.01.002-.015 0-.004 0-.012.003-.016v-.266c-.003-.082.026-.114.108-.111.08.002.162-.001.243-.005l.075.004c.04-.002.081-.005.122-.005zm.284.532a.107.107 0 0 0 .027.008H15c-.012.008-.028.005-.033.02-.004-.02-.002-.027.003-.028zm.88.342a.037.037 0 0 0 .011.005l.001.001.003.001zm-1.908.177l.002.003c.007.003.014.01.022.024.076.154.182.281.3.399.124.12.259.23.389.348.268.242.542.48.818.713.178.151.392.228.62.288.518.132 1.049.182 1.575.254.139.02.264.065.374.156h-.007c.01.008.017.012.024.02-.296-.043-.59-.039-.886-.046-.324-.007-.641.031-.96.067a.985.985 0 0 1-.343-.028l.007.002c-.308-.07-.598-.195-.889-.317-.329-.14-.602-.353-.862-.588-.019-.02-.038-.036-.057-.055a.996.996 0 0 1-.202-.279l-.003-.006-.002-.006c-.09-.212-.085-.448-.016-.708.019-.07.04-.14.062-.209.007-.023.02-.035.034-.032zm-.248 1.18c.065.233.233.396.375.573l.029.039.028.038a.612.612 0 0 0 .104.093l.002.001c.017.012.031.021.046.033l.021.017c.15.12.325.25.505.374l.033.022.329.229c.149.103.305.19.468.266.04.02.082.036.123.055.124.053.25.099.379.14l.021.007c.08.021.166.028.25.038.031.002.063.007.091.01a.194.194 0 0 1 .061.024h-.001a.399.399 0 0 1 .068.05c.074.067.144.163.148.221 0 .01 0 .017-.002.024-.002.005-.002.007-.005.01-.01.016-.024.03-.033.048-.03.05-.06.1-.085.153l-.011.027a.308.308 0 0 0 .003.263l-.001-.002c.115-.115.218-.237.293-.377.032-.057.061-.124.084-.193l.002-.008c.01-.027.003-.058.01-.084.01-.029-.024-.07-.01-.09 0-.001.003-.001.005-.004a.037.037 0 0 1 .014-.007c.01-.002.02-.005.027-.005.019-.002.036-.005.055-.005.048 0 .094.008.14.022.028.01.019.045.016.072v.005c-.005.086-.04.165-.072.242a.458.458 0 0 1-.025.058l.001-.003a1.688 1.688 0 0 1-.196.381l.004-.006c-.118.156-.254.302-.475.31h-.063c-.038 0-.077.01-.115.012h-.006a.085.085 0 0 0-.08.057v.001c-.017.039-.039.072-.058.11l-.007.017a1.558 1.558 0 0 1-.406.569l-.002.001c-.08.071-.164.139-.25.203a1.93 1.93 0 0 1-.454.22l-.014.004-.036.014-.034.015-.019.007c-.01.002-.022.007-.031.01-.036.014-.065.035-.046.09.02.06.063.077.118.08.012 0 .026 0 .04-.003a.629.629 0 0 0 .154-.034l-.004.001c.048-.017.096-.039.146-.06.034-.015.067-.029.103-.041-.029.122-.045.235-.084.341l-.021.053a5.887 5.887 0 0 1-.108.232l.018-.04c-.018.043-.04.084-.062.125-.115.23-.245.45-.405.655-.102.131-.22.243-.351.337l-.005.003a1.954 1.954 0 0 1-.09.064l-.013.009a2.65 2.65 0 0 1-.363.199l-.017.007-.064.03-.053.02-.043.018c-.04.016-.082.03-.123.045a1.784 1.784 0 0 1-.149.048l-.019.005a4.54 4.54 0 0 1-.541.13l-.029.004c-.008 0-.013.003-.02.003-.055.01-.108.017-.163.026-.058.008-.116.017-.176.024a2.184 2.184 0 0 1-.618-.023l.013.002-.028-.007a.658.658 0 0 1-.148-.062l.003.002c-.062-.034-.12-.07-.182-.101a2.004 2.004 0 0 1-.137-.076l.007.004a1.75 1.75 0 0 1-.165-.11l.005.004a.624.624 0 0 1-.231-.275l-.002-.004a1.541 1.541 0 0 0-.097-.203l.005.009c-.01-.02-.021-.036-.03-.053a2.762 2.762 0 0 0-.279-.369l.002.002a2.667 2.667 0 0 0-.126-.143l.001.001c-.021-.024-.04-.048-.062-.07a6.389 6.389 0 0 0-.26-.276l-.067-.067a2.8 2.8 0 0 0-.355-.296l-.009-.006a2.704 2.704 0 0 0-.289-.185l-.014-.007-.06-.039a1.588 1.588 0 0 1-.626-.751l-.004-.011c-.043-.093-.107-.122-.22-.124h-.011a.632.632 0 0 1-.246-.05l.004.002-.002-.002a.445.445 0 0 1-.132-.084l-.026-.016c-.022-.026-.038-.058-.058-.09a5.175 5.175 0 0 1-.372-.628l-.014-.03c0 .003.002.005.003.008l-.006-.013.003.005a3.638 3.638 0 0 0-.082-.221l.009.025-.036-.086a.386.386 0 0 1-.013-.156v.002l.007-.031c.002-.005.002-.01.005-.015a.134.134 0 0 1 .012-.03v.001a.458.458 0 0 1 .126-.14l.001-.001a.667.667 0 0 1 .064-.048l.003-.002c.046-.034.094-.063.14-.094.071-.044.143-.084.218-.123.271-.14.56-.238.857-.314.017-.005.033-.008.053-.012.033-.008.07-.01.105-.015.036-.002.072-.005.106-.005l.106-.002c.016 0 .036 0 .052-.002.353-.016.665-.038.974-.069l-.074.006c.18-.017.36-.036.54-.055a3.516 3.516 0 0 0 1.148-.333l-.021.009c.036-.02.074-.036.11-.055l.063-.034c.144-.077.288-.151.427-.233.014-.02.031-.026.055-.033l.01-.003v.012a.062.062 0 0 1-.02.034l-.021.014c-.14.178-.331.3-.497.45a.432.432 0 0 0-.05.045c-.053.043-.106.089-.166.137.209 0 .41-.024.598-.08.357-.104.655-.315.866-.596l.003-.004c.103-.137.197-.297.278-.482zm-3.265.016c-.099.05-.215.088-.336.108l-.007.001c-.56.139-1.13.22-1.697.326-.422.079-.795.25-1.111.492l.006-.005c-.019.015-.04.032-.062.043-.026.017-.039.013-.043-.01-.003-.004-.003-.011-.003-.018-.01-.144.034-.214.166-.274.18-.082.36-.168.54-.252.235-.108.487-.142.742-.168.396-.043.792-.094 1.19-.14l.524-.086zm2.386 1.245l-.026.001c-.038.01-.036.05-.036.08.003.1.007.201.02.302.011.11.047.219.112.307a.845.845 0 0 0 .504.333l.006.001c.155.036.155.038.17.2.007.069.016.131.081.17.113.067.226.137.363.146.084.007.17.012.242.068.09.061.201.097.32.098.084.007.17.01.254.024.067.012.113-.01.16-.05.239-.197.474-.397.697-.617-.026-.03-.065-.039-.118-.012-.175.086-.311.16-.444.239l.029-.016a.317.317 0 0 1-.111.048h-.002a3.902 3.902 0 0 1-.719.074h-.003a.683.683 0 0 1-.37-.131l.002.001c-.067-.043-.134-.105-.146-.201.036-.012.07.002.103.007.127.017.252.063.382.055.312-.019.605-.113.898-.213l.283-.103c.043-.015.055-.03.017-.07-.046-.05-.096-.04-.147-.034a5.654 5.654 0 0 1-1.906-.051l.036.006c-.18-.034-.372-.046-.442-.27-.019-.06-.038-.12-.05-.182a.37.37 0 0 0-.094-.17.098.098 0 0 0-.064-.04zm-.573.065c-.048 0-.08.05-.103.093-.06.103-.137.196-.207.292-.108.147-.26.178-.418.154a16.658 16.658 0 0 0-1.669-.178l-.049-.002c-.03-.002-.058-.01-.082.01-.183.134-.367.264-.483.468.007.002.015.007.02.007.019-.002.035-.007.055-.01.297-.074.607-.098.922-.072.398.034.792.113 1.188.168.053.008.106.01.156.036.12.063.18.173.226.29.07.18.09.373.103.565.01.151-.022.278-.144.38a.558.558 0 0 0-.199.274l-.001.004c.154 0 .286.026.387.156.063.081.144.149.223.218a.38.38 0 0 0 .585-.079l.001-.002c.058-.094.113-.19.175-.281.087-.127.17-.264.325-.32.093-.03.052-.076.021-.115-.062-.079-.178-.081-.28-.019-.16.096-.267.238-.382.375-.034.04-.068.081-.113.115-.058.04-.108.043-.159-.01-.057-.057-.115-.117-.177-.168-.053-.043-.063-.082-.032-.144a.716.716 0 0 0 .081-.416v.003c-.029-.312-.08-.62-.3-.867-.024-.026-.024-.04.01-.064a.94.94 0 0 0 .408-.698v-.003c.007-.075-.007-.135-.067-.156-.007-.002-.014-.004-.022-.004zm4.461.035c.205 0 .387.08.566.182-.005 0-.007 0-.012.003l.031.017c-.271.04-.54.06-.811.03-.084-.009-.168-.026-.255-.023-.17.005-.307-.084-.451-.161h.017c-.012-.007-.024-.012-.036-.02.024.003.05.003.074.005.029.003.055.01.084.015.238.05.468-.02.704-.043a.822.822 0 0 1 .089-.005zm-8.69.714c-.006 0-.011.002-.016.004-.05.019-.098.048-.112.115-.048.223.055.437.278.552.1.053.178.127.226.23.016.037.019.106.072.094s.01-.077.021-.103c.008-.135-.019-.25-.127-.32-.08-.05-.11-.12-.14-.201-.038-.106-.047-.223-.134-.307-.02-.021-.036-.064-.068-.064zm1.843.354c-.11.027-.236.053-.353.106-.082.038-.087.084-.015.139.043.034.087.05.14.031a.465.465 0 0 1 .494.096.507.507 0 0 0 .527.086l-.003.001c.106-.036.197-.096.293-.15a.342.342 0 0 1 .111-.04h.002c.144-.014.288-.033.43-.053.038-.005.098.01.108-.036.01-.048-.046-.077-.08-.108-.016-.017-.045-.019-.069-.026a.798.798 0 0 0-.443-.014l.006-.001a2.055 2.055 0 0 1-.902-.002l.014.003c-.08-.019-.163-.019-.259-.031zm6.903.889c.006 0 .011.003.015.007l.012.014.008.005c.043.034-.007.11-.02.168-.03.168-.057.334-.086.502-.007.048-.012.098-.048.165l-.007-.043-.012.024a5.031 5.031 0 0 1-.075-.696v-.01c-.002-.053.034-.065.068-.077.048-.016.107-.066.145-.059zm-3.219.902c-.009.002-.016.006-.023.01-.19.105-.404.11-.613.137-.088.012-.199-.015-.264.05-.158.156-.293.091-.432-.02-.007-.004-.014-.011-.024-.014-.206-.11-.413-.15-.624-.005a.338.338 0 0 1-.269.068h.002c-.074-.02-.131-.015-.19.038-.028.027-.066.048-.1.07-.094.062-.094.072-.007.141.02.017.043.024.067.032.2.06.387.016.562-.08.182-.098.353-.093.518.032.152.112.312.115.48.045.187-.089.406-.162.634-.21l.019-.003c.034-.005.068-.017.099.01.096.088.187.026.279-.01.036-.015.04-.044.038-.08-.007-.076-.065-.12-.098-.18-.015-.025-.032-.035-.054-.031zm-4.718.07c.009 0 .02.006.032.017.039.036.075.074.113.11l.015.014c.019.017.021.039.012.06l-.224.45-.024-.008c0-.005.003-.007.003-.012.048-.197.029-.4.055-.6.002-.02.009-.03.018-.031zm3.9.588c-.238.007-.48.046-.703.122-.185.063-.392.106-.488.32-.055.124-.048.257-.086.381.017.099.017.197.074.281.017.024.024.063.065.06.043-.002.058-.038.07-.067.043-.091.053-.194.081-.29.046-.157.118-.281.281-.351.17-.072.343-.14.516-.206a.183.183 0 0 1 .102-.011h-.001c.214.03.437.021.627.146a.077.077 0 0 0 .063.012h-.001c.072-.017.08-.04.036-.098a.725.725 0 0 0-.586-.3l-.052.002h.002zm-2.218.742l.014.017c.094.117.187.218.25.336.151.29.374.501.662.655.135.072.256.172.414.19l.003.001.018-.001c.017 0 .04-.003.036.024-.003.014-.017.014-.031.012h-.007c-.005 0-.01 0-.015-.003-.167.005-.33.033-.493.067a11.69 11.69 0 0 0-.446.104l-.052.009h-.003c-.033.008-.048.024-.043.058.005.04.02.062.067.072.065.012.141.018.217.018l.059-.001h-.003c.118-.003.235-.015.353-.034a2.551 2.551 0 0 1 .793 0l-.014-.002c-.43.07-.785.312-1.174.475-.202.084-.358.245-.55.348-.014.017-.022.044-.036.06-.031.039-.036.118-.087.11h-.004c-.005 0-.01.003-.015 0a.625.625 0 0 1-.269-.088l.003.002c-.03-.019-.022-.055-.022-.089v-.453c0-.032.012-.067-.019-.09-.106-.066-.08-.182-.106-.278-.01-.038.017-.057.039-.081l.278-.31c.063-.067.089-.142.043-.223-.086-.163-.072-.32-.002-.485.055-.13.091-.267.142-.42zm4.585.177c.005.003.01.005.012.008l.007-.008c.039.022.041.05.05.075.102.247.2.497.3.744.025.055.03.103-.006.149a.5.5 0 0 0-.076.494l-.001-.003c.067.206.019.348-.183.449a.229.229 0 0 1-.12.036h-.007a.123.123 0 0 1-.081-.03c-.375-.259-.821-.345-1.242-.494-.06-.021-.117-.043-.18-.057-.072-.017-.067-.065-.057-.116.007-.036.026-.04.045-.038.02-.005.046.01.063.014.48.12.965.216 1.428.396.017.008.031.01.043.013.034-.005.044-.037.039-.082-.01-.108-.02-.214-.144-.271a2.753 2.753 0 0 0-.968-.233h-.007c-.05-.005-.098-.007-.149-.01.238-.144.5-.22.713-.406a.989.989 0 0 0 .075-.067l.398-.482zm-1.882 1.133h.02c.03-.002.054.005.057.053 0 .044.01.082-.06.092a1.74 1.74 0 0 1-.27.021h-.004c-.094 0-.185-.01-.278-.031-.05-.012-.07-.046-.065-.086.002-.027.021-.027.04-.027l.012-.001c.01 0 .019.001.028.004h-.001.18a1.19 1.19 0 0 0 .349-.027l-.008.002zm.036.396c.006 0 .012.002.02.005.278.116.556.231.844.349-.132.11-.254.208-.374.304-.221.178-.44.358-.646.553-.05.048-.089.05-.147.014a8.926 8.926 0 0 0-1.036-.522l-.061-.023c-.165-.07-.34-.098-.511-.158.02-.036.055-.036.084-.046.367-.137.742-.26 1.102-.42.094-.043.187-.007.278.005.137.019.27.021.394-.046a.095.095 0 0 1 .05-.015h.003zm-2.161.698c.03.002.058.008.084.019l-.002-.001c.197.077.38.185.569.274h.002c.01 0 .02.004.027.01.004.002.005.004.005.011v.005c0 .003-.003.003-.003.005-.002.003-.005.003-.007.003l-.01-.003a.034.034 0 0 1-.012-.012l-.862-.214c.074-.059.133-.1.209-.097zm8.17.535c-.142-.004-.26.062-.372.15-.029.022-.046.048-.094.017-.105-.072-.206-.053-.295.039a.399.399 0 0 0-.102.184l-.001.003c-.125.504-.252 1.006-.372 1.512-.041.169.048.255.223.229.158-.025.238-.116.264-.32.026-.197.053-.391.11-.595.15.187.29.362.433.538.139.17.29.321.494.412.144.065.269.027.382-.074a.183.183 0 0 0 .054-.207v.001a.157.157 0 0 0-.154-.125h-.005a.245.245 0 0 1-.152-.07 2.303 2.303 0 0 1-.357-.389l-.005-.007c-.09-.12-.094-.12.026-.202.252-.173.341-.417.322-.71-.014-.219-.132-.346-.339-.38a.548.548 0 0 0-.061-.006h-.001zm-10.733.03c-.04 0-.077.02-.097.075-.019.05-.053.043-.091.038a.749.749 0 0 0-.665.219c-.38.37-.574.814-.552 1.354.014.358.22.53.569.451.689-.16 1.224-.835 1.253-1.582.007-.192-.168-.47-.34-.538a.212.212 0 0 0-.077-.017zm-1.93.058a.936.936 0 0 0-.614.239l.001-.001c-.346.302-.547.693-.646 1.138a.642.642 0 0 0 .076.485l-.002-.003c.07.118.158.161.292.135.327-.064.619-.169.887-.313l-.017.008a.888.888 0 0 0 .225-.168.287.287 0 0 0 .084-.204c0-.075-.033-.101-.103-.104-.07-.002-.13.024-.192.046-.207.075-.408.166-.622.22-.105.027-.141.003-.163-.105a.308.308 0 0 1 .005-.124v.002c.04-.168.098-.331.187-.483a.818.818 0 0 1 .243-.281l.002-.002c.14-.089.283-.137.442-.04.052.03.103.016.15-.013a.351.351 0 0 0 .149-.199l.001-.002c.016-.05.002-.09-.044-.116a.773.773 0 0 0-.339-.115h-.003zm9.2.07h-.024a.692.692 0 0 0-.493.206c-.156.161-.183.324-.084.526.074.151.177.28.278.415.072.094.149.187.216.286.048.07.024.125-.058.151a.208.208 0 0 1-.141-.006h.001a1.084 1.084 0 0 1-.375-.23.247.247 0 0 1-.082-.123v-.002c-.012-.074-.053-.108-.125-.115-.081-.007-.156-.007-.204.08-.08.138-.057.263.087.393.276.245.605.353.933.38.3.004.485-.267.387-.522-.043-.115-.118-.216-.19-.314-.12-.159-.245-.313-.357-.476-.09-.125-.048-.216.098-.264.135-.043.25-.005.36.08.13.1.24.047.269-.116.017-.086-.029-.144-.089-.194a.678.678 0 0 0-.408-.156h-.001zm1.905.06c-.137-.003-.274 0-.41.016-.164.02-.32.065-.38.248-.002.01-.014.024-.024.026-.187.048-.252.202-.302.358-.106.346-.2.696-.298 1.042-.024.084.01.14.08.182.054.034.11.032.172.015.324-.08.648-.166.987-.142h.007a.258.258 0 0 0 .121-.03l-.001.001a.242.242 0 0 0 .119-.208l-.002-.033v.001c-.014-.091-.086-.117-.163-.13a1.494 1.494 0 0 0-.175-.016h-.002c-.219.001-.434.02-.643.055l.023-.003c.031-.228.048-.242.264-.242.161 0 .322-.01.473-.072.101-.043.166-.113.176-.226.007-.076-.025-.122-.104-.124a1.795 1.795 0 0 0-.196.002h.005l-.453.04c.024-.052.036-.1.062-.136.044-.062-.007-.178.084-.209.075-.024.164-.007.245-.01.214-.004.427-.007.634-.074a.347.347 0 0 0 .191-.129l.001-.001c.07-.108.043-.18-.082-.185-.136-.006-.273-.014-.41-.016zm-6.664.008c-.071-.003-.13.042-.185.093a3.96 3.96 0 0 0-.385.425l-.007.009-.367.456c-.02.024-.04.07-.08.05-.03-.014-.018-.055-.014-.086.01-.11.024-.218.036-.329.015-.144.034-.288.01-.432-.031-.173-.156-.22-.295-.113a.794.794 0 0 0-.093.09l-.001.001a3.123 3.123 0 0 0-.29.4l-.008.014c-.225.348-.432.71-.703 1.027-.05.06-.103.118-.149.182-.048.072-.067.154-.022.23.041.068.11.092.188.087.081-.004.125-.064.168-.122l.626-.852c.012-.015.017-.044.053-.034a1.26 1.26 0 0 0-.012.106v.004c-.01.137-.038.274-.01.413.034.159.16.224.306.152a.896.896 0 0 0 .204-.152c.117-.112.228-.233.33-.362.114-.144.229-.29.349-.447.036.12.022.228.017.336-.012.188-.048.375-.012.565.024.117.091.187.187.194a.437.437 0 0 0 .279-.071l-.002.001c.125-.079.137-.237.02-.343a.191.191 0 0 1-.063-.112v-.001c-.026-.13-.004-.257.017-.384.039-.245.115-.485.103-.737-.004-.098-.019-.19-.12-.237a.186.186 0 0 0-.075-.021h-.001zm8.04.189c.117-.01.175.064.141.177a.395.395 0 0 1-.071.133l.001-.001c-.129.161-.292.27-.496.353.018-.157.057-.301.114-.435l-.004.01c.062-.134.163-.223.315-.237zm-6.651.02h.011c.051 0 .099.013.141.036l-.002-.001c.076.043.098.146.045.233a.674.674 0 0 1-.183.182l-.002.002a1.428 1.428 0 0 1-.473.24l-.01.003c.07-.216.128-.415.245-.586a.285.285 0 0 1 .225-.109h.004zm1.6.092l.028-.001c.067 0 .13.013.188.036l-.003-.001c.113.046.151.1.149.269a1.258 1.258 0 0 1-.424.818l-.001.001a.558.558 0 0 1-.322.136h-.002c-.147.012-.262-.081-.247-.228.028-.321.115-.624.33-.876a.433.433 0 0 1 .303-.154h.001zm-5.882.003l.029-.001a.51.51 0 0 1 .192.038l-.003-.001c.11.043.149.098.144.262a1.244 1.244 0 0 1-.421.817l-.001.001a.58.58 0 0 1-.323.14h-.002c-.15.011-.266-.082-.252-.233.03-.315.116-.613.325-.86a.443.443 0 0 1 .311-.163h.001z"/></svg>