<svg xmlns="http://www.w3.org/2000/svg" width="24" height="24"><path d="M.87 18.257c-.248.382-.53.875-.763 1.245a.763.763 0 0 0 .252 1.038l.003.002 4.965 3.054a.76.76 0 0 0 1.056-.256l.002-.003c.199-.332.454-.763.733-1.221 1.967-3.247 3.945-2.853 7.508-1.146l4.957 2.337a.763.763 0 0 0 1.026-.377l.002-.005 2.364-5.346a.765.765 0 0 0-.377-.998l-.005-.002c-5.245-2.34-6.875-3.13-8.502-3.926l3.537 1.565C10.911 10.971 5.224 11.186.87 18.258zM23.131 5.743c.249-.405.531-.875.764-1.25a.765.765 0 0 0-.253-1.032l-.003-.002L18.675.404a.76.76 0 0 0-1.056.256l-.002.003a66.14 66.14 0 0 1-.734 1.225c-1.966 3.246-3.945 2.85-7.508 1.146L4.437.693a.764.764 0 0 0-1.025.377l-.002.005-2.364 5.346a.765.765 0 0 0 .377.998l.005.002c1.039.49 3.105 1.467 4.965 2.361 6.698 3.246 12.392 3.029 16.738-4.04z"/></svg>