<!-- Generated by IcoMoon.io -->
<svg version="1.1" xmlns="http://www.w3.org/2000/svg" width="24" height="24" viewBox="0 0 24 24">
<title>cookie</title>
<path d="M23.377 7.481s0.623 0 0.623-0.623-0.623-0.623-0.623-0.623-0.623 0-0.623 0.623 0.623 0.623 0.623 0.623zM19.325 2.182s1.247 0 1.247-1.247-1.247-0.935-1.247-0.935-0.935 0-0.935 1.247 0.935 0.935 0.935 0.935zM18.39 6.234s0.935 0 0.935-0.935-0.935-0.935-0.935-0.935-0.935 0-0.935 0.935 0.935 0.935 0.935 0.935zM23.377 10.286c-0.935 0.312-1.87 1.247-3.429-0.935 0 0-0.312-0.312-0.935 0s-2.494 0.935-3.74-0.623c-1.247-1.558-1.247-2.805-0.623-4.052 0 0 0.623-0.623-0.623-0.935-0.935 0-1.247-1.87-0.623-2.805 0 0 0.623-0.935-0.623-0.935 0 0-11.532-0.623-12.779 11.532-0.935 11.844 12.156 12.156 12.156 12.156s11.532 0 11.844-12.468c0 0.312 0-0.935-0.623-0.935zM4.675 10.909c0-1.87 1.558-1.87 1.558-1.87s1.87 0 1.87 1.558c0 1.87-1.87 1.87-1.87 1.87s-1.558 0.312-1.558-1.558zM7.481 17.766c-1.247 0-1.247-1.247-1.247-1.247 0-0.935 0.935-1.247 0.935-1.247 1.247 0 1.247 1.247 1.247 1.247s0.312 1.247-0.935 1.247zM9.039 7.169c0-0.935 0.935-0.935 0.935-0.935 0.935 0 0.935 0.623 0.935 0.623 0 0.935-0.935 0.935-0.935 0.935s-0.935 0.312-0.935-0.623zM11.844 13.091s-0.935 0-0.935-0.935 0.935-0.935 0.935-0.935c0.623 0.312 0.623 0.935 0.623 0.935 0 0.935-0.623 0.935-0.623 0.935zM14.961 19.013s-1.247 0-1.247-1.247c0-1.558 1.247-1.558 1.247-1.558 0.312 0 1.558 0.312 1.558 1.558s-1.558 1.247-1.558 1.247z"></path>
</svg>
