<svg xmlns="http://www.w3.org/2000/svg" width="24" height="24"><path d="M23.377 7.481s.623 0 .623-.623-.623-.623-.623-.623-.623 0-.623.623.623.623.623.623zm-4.052-5.299s1.247 0 1.247-1.247S19.325 0 19.325 0s-.935 0-.935 1.247.935.935.935.935zm-.935 4.052s.935 0 .935-.935-.935-.935-.935-.935-.935 0-.935.935.935.935.935.935zm4.987 4.052c-.935.312-1.87 1.247-3.429-.935 0 0-.312-.312-.935 0s-2.494.935-3.74-.623c-1.247-1.558-1.247-2.805-.623-4.052 0 0 .623-.623-.623-.935-.935 0-1.247-1.87-.623-2.805 0 0 .623-.935-.623-.935 0 0-11.532-.623-12.779 11.532-.935 11.844 12.156 12.156 12.156 12.156s11.532 0 11.844-12.468c0 .312 0-.935-.623-.935zm-18.702.623c0-1.87 1.558-1.87 1.558-1.87s1.87 0 1.87 1.558c0 1.87-1.87 1.87-1.87 1.87s-1.558.312-1.558-1.558zm2.806 6.857c-1.247 0-1.247-1.247-1.247-1.247 0-.935.935-1.247.935-1.247 1.247 0 1.247 1.247 1.247 1.247s.312 1.247-.935 1.247zM9.039 7.169c0-.935.935-.935.935-.935.935 0 .935.623.935.623 0 .935-.935.935-.935.935s-.935.312-.935-.623zm2.805 5.922s-.935 0-.935-.935.935-.935.935-.935c.623.312.623.935.623.935 0 .935-.623.935-.623.935zm3.117 5.922s-1.247 0-1.247-1.247c0-1.558 1.247-1.558 1.247-1.558.312 0 1.558.312 1.558 1.558s-1.558 1.247-1.558 1.247z"/></svg>