<svg xmlns="http://www.w3.org/2000/svg" width="24" height="24"><path d="M21.234 10.5q-.281 0-.516.211t-.234.539h-1.547q-.188-2.063-1.5-3.656l1.078-1.078h.047q.188.234.492.234t.539-.234.234-.539-.234-.539l-1.031-1.031q-.234-.234-.539-.234t-.539.234-.234.539.234.492l-1.125 1.125q-.75-.656-1.664-1.031t-1.945-.516v-1.5q.328 0 .539-.234t.211-.516q0-.328-.211-.539t-.539-.211h-1.5q-.328 0-.539.211t-.211.539q0 .281.211.516t.539.234v1.547q-1.031.094-1.969.492T7.593 6.563L6.515 5.485v-.047q.234-.188.234-.492t-.234-.539-.539-.234-.539.234L4.406 5.438q-.234.234-.234.539t.234.539.539.234.492-.234l1.125 1.125q-.656.75-1.031 1.664t-.469 1.945H3.515q0-.328-.234-.539t-.516-.211q-.328 0-.539.211t-.211.539v1.5q0 .328.211.539t.539.211q.281 0 .516-.211t.234-.539h1.547q.094 1.031.492 1.945t1.008 1.664l-1.125 1.125q-.188-.234-.492-.234t-.539.234-.234.539.234.539l1.031 1.031q.234.234.539.234t.539-.234.234-.539-.234-.492v-.047l1.078-1.078q.75.609 1.688 1.008t1.969.492v1.547q-.328 0-.539.234t-.211.516q0 .328.211.539t.539.211h1.5q.281 0 .516-.211t.234-.539q0-.281-.234-.516t-.516-.234v-1.547q.984-.094 1.922-.492t1.688-1.008l1.078 1.125q-.188.188-.188.492t.234.539q.188.234.516.234t.516-.234l1.078-1.078q.234-.188.234-.516t-.234-.516q-.234-.234-.539-.234t-.539.234l-1.078-1.078q.609-.797 1.008-1.711t.492-1.945h1.547q0 .281.234.516t.516.234q.328 0 .539-.234t.211-.516v-1.5q0-.328-.211-.539t-.539-.211zm-7.5-2.484q.422 0 .727.281t.305.703-.305.703-.727.281q-.375 0-.68-.281T12.749 9t.305-.703.68-.281zM12 12.984q-.422 0-.703-.281T11.016 12t.281-.703.703-.281.703.281.281.703-.281.703-.703.281zm-1.734-4.968q.375 0 .68.281t.305.703-.305.703-.68.281q-.422 0-.727-.281T9.234 9t.305-.703.727-.281zm-1.782 4.968q-.375 0-.68-.281T7.499 12t.305-.703.68-.281q.422 0 .727.281t.305.703-.305.703-.727.281zm1.782 3q-.422 0-.727-.281T9.234 15t.305-.703.727-.281q.375 0 .68.281t.305.703-.305.703-.68.281zm3.468 0q-.375 0-.68-.281T12.749 15t.305-.703.68-.281q.422 0 .727.281t.305.703-.305.703-.727.281zm.75-3.984q0-.422.305-.703t.727-.281q.375 0 .68.281t.305.703-.305.703-.68.281q-.422 0-.727-.281T14.484 12z"/></svg>