<svg xmlns="http://www.w3.org/2000/svg" width="24" height="24"><path fill="#2a73cc" d="M23.992 11.806a4.408 4.408 0 0 0-.02-.299l.002.02v-.004a5.972 5.972 0 0 0-1.003-2.835l.013.021a6.246 6.246 0 0 0-.865-1.037l-.002-.002a6.321 6.321 0 0 0-1.603-1.114l-.037-.016a6.909 6.909 0 0 0-2.988-.668h-.066.003-.03c-.903 0-1.768.163-2.567.461l.051-.017a6.325 6.325 0 0 0-1.835 1.006l.013-.01c-.123.1-.232.195-.337.293l.004-.003-.085.085-.117.125h.001l-.056.055-.026.028-.141.147c-.104.117-.202.234-.296.349v-.002l-.004-.003c-.192.233-.37.476-.5.693-.089.14-.176.283-.259.427l-1.147 2.319.002.001-.06.118-.126.256c-.251.509-.521 1.017-.821 1.435-.672.737-1.431 1.098-2.406 1.098-.068 0-.139-.003-.209-.008-.588-.023-1.092-.162-1.539-.427a2.59 2.59 0 0 1-.987-1.016l-.007-.014a2.63 2.63 0 0 1-.326-1.374v.005l.002-.034c.031-.76.321-1.352.904-1.861.142-.124.291-.228.446-.32.021-.013.044-.024.065-.036.434-.237.927-.355 1.492-.355l.176.005c.899.034 1.592.314 2.145.863l1.734-3.113a6.747 6.747 0 0 0-1.352-.694l-.047-.016c-.019-.007-.04-.016-.06-.022-.062-.022-.123-.045-.186-.065a7.146 7.146 0 0 0-1.689-.346l-.027-.002-.075-.009.029.003c-.091-.005-.184-.016-.275-.02a11.443 11.443 0 0 0-.292-.007h-.098a6.982 6.982 0 0 0-3.032.688l.042-.018A6.227 6.227 0 0 0 1.03 8.684l-.014.022A5.957 5.957 0 0 0 0 12.049v.04-.002c-.002 1.564.568 2.938 1.701 4.093 1.184 1.211 2.721 1.864 4.567 1.941.118.005.235.008.353.008 1.045 0 2.011-.186 2.878-.558.217-.093.427-.201.642-.322.117-.067.228-.139.338-.215l.08-.055.137-.093c.164-.118.317-.246.467-.381l.052-.05c.088-.083.176-.168.259-.255l.311-.352.118-.148.056-.081.055-.079c.462-.776 1.965-3.601 1.965-3.601v-.006l.09-.172.074-.135c.222-.403.382-.689.594-.99l.006-.01c.493-.717 1.344-1.227 2.346-1.313 1.68-.145 3.152.959 3.287 2.465.135 1.507-1.117 2.846-2.798 2.991a3.422 3.422 0 0 1-1.034-.069l.023.004-.009.003c-1.232-.257-2.017-1.155-2.404-1.558l-1.617 2.974s.503.506.847.759c.346.253.791.501 1.146.656a7.038 7.038 0 0 0 2.838.589c.121 0 .097 0 .222-.005 1.844-.077 3.489-.784 4.675-1.995 1.123-1.15 1.733-2.463 1.738-4.018v-.047z"/></svg>