<svg xmlns="http://www.w3.org/2000/svg" width="24" height="24"><path fill="#ff6c2c" d="M4.586 9.346h-.01a.537.537 0 0 0-.331.114l.001-.001a.559.559 0 0 0-.196.295l-.001.004-1.309 4.896h.928a.528.528 0 0 0 .328-.114l-.001.001a.559.559 0 0 0 .199-.287l.001-.004.968-3.604h.747c.115 0 .223.029.317.079l-.004-.002a.708.708 0 0 1 .239.197l.001.002c.06.079.105.174.128.276l.001.005a.648.648 0 0 1-.011.331l.001-.005a.699.699 0 0 1-.676.526h-.392a.537.537 0 0 0-.331.114l.001-.001a.559.559 0 0 0-.199.287l-.001.004-.24.896h1.205c.672 0 1.263-.341 1.611-.86l.004-.007c.113-.168.204-.363.262-.572l.003-.014.027-.1a1.883 1.883 0 0 0 .024-.919l.002.012a1.98 1.98 0 0 0-1.02-1.335l-.011-.005a1.852 1.852 0 0 0-.862-.21H5.97h.001zm18.447 0h-.007a.4.4 0 0 0-.244.083l.001-.001a.385.385 0 0 0-.14.214v.003l-1.334 5.01h.007c.202 0 .395-.035.575-.1l-.012.004c.19-.067.354-.157.5-.269l-.004.003c.15-.115.277-.25.381-.402l.004-.006c.104-.152.184-.329.232-.52l.002-.011.996-3.696a.232.232 0 0 0-.045-.218.246.246 0 0 0-.194-.095h-.006zM8.381 10.643l-.133.503a.538.538 0 0 0-.005.264l-.001-.004a.538.538 0 0 0 .101.222l-.001-.001c.05.064.111.116.182.153l.003.001a.52.52 0 0 0 .245.06h2.169c.032 0 .06.015.079.038a.1.1 0 0 1 .02.059.1.1 0 0 1-.005.03v-.001l-.02.072-.324 1.201-.013.055a.174.174 0 0 1-.067.105.205.205 0 0 1-.122.04H9.173a.146.146 0 0 1-.116-.057.134.134 0 0 1-.026-.131v.001c.022-.074.071-.112.147-.112h.814a.527.527 0 0 0 .327-.113l-.001.001a.564.564 0 0 0 .199-.289l.001-.004.132-.498H8.838c-.135 0-.265.024-.386.068l.008-.002a1.15 1.15 0 0 0-.326.178l.003-.002a1.185 1.185 0 0 0-.253.267l-.003.004a1.027 1.027 0 0 0-.154.339l-.002.007-.028.1a1.079 1.079 0 0 0-.012.54l-.001-.007c.04.177.113.333.214.467l-.002-.003c.21.276.54.453.91.453h.008l2.157.006h.006a.9.9 0 0 0 .868-.664l.001-.006.525-1.95a1.093 1.093 0 0 0 .009-.522l.001.007a1.121 1.121 0 0 0-.207-.447l.002.003a1.15 1.15 0 0 0-.371-.309l-.006-.003a1.03 1.03 0 0 0-.487-.12H11.3h.001zm-6.397.01h-.005c-.227 0-.444.039-.646.111l.013-.004a1.987 1.987 0 0 0-.558.299l.005-.004a1.973 1.973 0 0 0-.697 1.031l-.003.014-.027.1c-.042.15-.066.322-.066.5 0 .143.016.283.045.418l-.002-.013c.065.301.19.565.364.791l-.003-.005c.179.23.402.416.657.549l.011.005c.25.132.547.21.862.21h.482l.266-.983a.228.228 0 0 0-.044-.216.237.237 0 0 0-.192-.096h-.435a.697.697 0 0 1-.318-.076l.004.002a.686.686 0 0 1-.239-.193l-.001-.002a.733.733 0 0 1-.126-.276l-.001-.005a.704.704 0 0 1 .011-.345l-.001.005a.737.737 0 0 1 .254-.376l.002-.001a.674.674 0 0 1 .412-.14h.713a.534.534 0 0 0 .332-.115l-.001.001a.567.567 0 0 0 .198-.293l.001-.004.232-.89zm11.08 0l-.982 3.689a.232.232 0 0 0 .045.218.238.238 0 0 0 .19.095h.72c.092 0 .177-.03.245-.081l-.001.001a.363.363 0 0 0 .142-.207l.001-.003.644-2.41h.753c.113 0 .22.028.314.077l-.004-.002c.095.05.174.117.237.198l.001.002c.06.079.105.173.128.275l.001.005a.648.648 0 0 1-.011.331l.001-.005-.398 1.506a.243.243 0 0 0 .233.312h.723c.091 0 .175-.03.242-.081l-.001.001a.366.366 0 0 0 .142-.21l.001-.003.332-1.248a1.896 1.896 0 0 0 .027-.921l.002.013a1.966 1.966 0 0 0-.364-.795l.003.005a2.007 2.007 0 0 0-.657-.549l-.011-.005a1.86 1.86 0 0 0-.864-.209h-.022.001zm5.793 0h-.009c-.172 0-.336.03-.489.084l.01-.003c-.314.11-.572.313-.749.575l-.003.005c-.089.13-.159.281-.203.444l-.002.01-.406 1.505a.986.986 0 0 0-.015.515l-.001-.007c.038.171.109.32.207.449l-.002-.003c.1.13.226.235.371.309l.006.003c.141.073.307.115.483.115h2.523a.528.528 0 0 0 .328-.114l-.001.001a.559.559 0 0 0 .199-.287l.001-.004.21-.791h-2.748a.2.2 0 0 1-.191-.253v.001l.299-1.127a.339.339 0 0 1 .112-.161l.001-.001a.28.28 0 0 1 .179-.064h1.234a.153.153 0 0 1 .146.194v-.001l-.026.1c-.022.075-.071.113-.146.113h-.822a.538.538 0 0 0-.329.112l.001-.001a.528.528 0 0 0-.19.289l-.001.004-.133.49h2.014c.203 0 .39-.068.539-.183l-.002.002a.868.868 0 0 0 .319-.477l.001-.006.12-.45a1.103 1.103 0 0 0 .012-.52l.001.007a1.06 1.06 0 0 0-.205-.445l.002.002a1.158 1.158 0 0 0-.369-.31l-.006-.003a1.036 1.036 0 0 0-.485-.119h-.014.001z"/></svg>