<svg xmlns="http://www.w3.org/2000/svg" width="24" height="24"><path fill="#00599c" d="M22.393 6c-.167-.29-.398-.543-.652-.69L12.925.22c-.508-.293-1.339-.293-1.847 0L2.26 5.31c-.508.293-.923 1.013-.923 1.6v10.18c0 .294.104.62.271.91s.398.543.652.689l8.816 5.091c.508.293 1.339.293 1.847 0l8.816-5.091c.254-.146.485-.399.652-.689s.271-.616.271-.91V6.91c.002-.294-.102-.62-.269-.91zM12 19.109c-3.92 0-7.109-3.189-7.109-7.109S8.08 4.891 12 4.891a7.132 7.132 0 0 1 6.138 3.519l.018.033-3.076 1.781A3.572 3.572 0 0 0 12 8.445c-1.96 0-3.554 1.595-3.554 3.555S10.04 15.555 12 15.555a3.567 3.567 0 0 0 3.071-1.761l.009-.017 3.077 1.78c-1.256 2.135-3.541 3.547-6.156 3.552H12zm7.109-6.714h-.79v.79h-.79v-.79h-.79v-.79h.79v-.79h.79v.79h.79zm2.962 0h-.79v.79h-.79v-.79h-.789v-.79h.789v-.79h.79v.79h.79z"/></svg>