<svg xmlns="http://www.w3.org/2000/svg" width="24" height="24"><path d="M24 11.599v.803c-.008.044-.017.087-.022.13-.04.35-.067.701-.124 1.048a8.654 8.654 0 0 1-1.197 3.18l.021-.036a8.914 8.914 0 0 1-3.594 3.337l-.051.023a8.237 8.237 0 0 1-2.772.839l-.04.004c-.217.026-.435.049-.652.073H7.138c-.043-.008-.085-.02-.128-.024a7.08 7.08 0 0 1-2.493-.616l.045.018c-1.697-.755-2.963-1.98-3.791-3.664a7.157 7.157 0 0 1-.697-2.335l-.003-.035L0 13.742v-.78c.008-.043.02-.086.023-.13a7.282 7.282 0 0 1 .478-2.225l-.017.05C1.2 8.777 2.45 7.381 4.222 6.478a7.105 7.105 0 0 1 2.912-.769l.016-.001a7.27 7.27 0 0 1 .376-.009h.003c.412 0 .817.031 1.213.091l-.044-.006-.043-.005.017.001a.185.185 0 0 0 .125-.048 8.942 8.942 0 0 1 2.407-1.787l.051-.023a8.31 8.31 0 0 1 2.784-.844l.041-.004c.234-.027.467-.05.7-.074h.72c.046.007.094.016.14.021.357.043.715.07 1.068.13a8.363 8.363 0 0 1 3.106 1.206l-.033-.02a8.96 8.96 0 0 1 3.296 3.66l.023.053c.415.832.708 1.8.826 2.821l.004.041c.026.229.048.458.072.687zm-13.42-5.2c.015.02.019.029.025.032.493.247.965.538 1.41.867.028.02.098.012.132-.01 1.222-.787 2.547-1.059 3.97-.802 1.395.251 2.53.96 3.397 2.092.982 1.28 1.357 2.73 1.086 4.34-.182 1.08-.608 2.05-1.33 2.861-1.32 1.48-2.973 2.092-4.918 1.833-1.197-.16-2.23-.685-3.086-1.564-1.098-1.128-2.204-2.248-3.305-3.373-.147-.15-.31-.27-.521-.297a.74.74 0 0 0-.109-.007h-.002a.825.825 0 0 0-.751.482l-.002.005c-.142.3-.124.64.185.948 1.227 1.226 2.444 2.462 3.67 3.69.21.21.435.405.674.582.896.661 1.906 1.027 3 1.174.858.116 1.71.09 2.555-.102 1.612-.369 2.948-1.205 4-2.497a7.162 7.162 0 0 0 1.572-3.634l.004-.036a7.35 7.35 0 0 0-.073-2.406l.008.046c-.244-1.27-.773-2.408-1.62-3.377-1.618-1.846-3.653-2.67-6.074-2.487a6.65 6.65 0 0 0-2.675.807l.034-.017a6.997 6.997 0 0 0-1.265.858l.01-.008zM9.988 19.29l-.113-.106.013.012c-.501-.482-1.006-.96-1.502-1.449a.402.402 0 0 0-.303-.137h-.018.001c-.502.012-1.005.014-1.5-.1-2.461-.565-3.89-3.286-2.983-5.68.715-1.889 2.696-3.038 4.649-2.684.875.159 1.644.536 2.274 1.197.77.808 1.562 1.592 2.34 2.391.176.182.38.265.625.23.316-.046.569-.2.683-.516.112-.31.058-.605-.173-.844-.816-.84-1.613-1.702-2.462-2.507-1.647-1.561-3.588-2.026-5.736-1.362-2.888.893-4.579 3.926-3.919 6.919.602 2.727 2.947 4.64 5.691 4.643h2.299c.038 0 .076-.004.134-.007z"/></svg>