<!-- Generated by IcoMoon.io -->
<svg version="1.1" xmlns="http://www.w3.org/2000/svg" width="24" height="24" viewBox="0 0 24 24">
<title>credit-card11</title>
<path d="M21.75 21h-19.5c-1.275 0-2.25-0.975-2.25-2.25v-13.5c0-1.275 0.975-2.25 2.25-2.25h19.5c1.275 0 2.25 0.975 2.25 2.25v13.5c0 1.275-0.975 2.25-2.25 2.25zM22.5 5.475c0-0.525-0.45-0.975-0.975-0.975h-19.050c-0.525 0-0.975 0.45-0.975 0.975v2.025h21v-2.025zM22.5 12h-21v6.525c0 0.525 0.45 0.975 0.975 0.975h18.975c0.525 0 0.975-0.45 0.975-0.975v-6.525zM9 15h1.5v3h-1.5v-3zM6 15h1.5v3h-1.5v-3zM3 15h1.5v3h-1.5v-3z"></path>
</svg>
