<!-- Generated by IcoMoon.io -->
<svg version="1.1" xmlns="http://www.w3.org/2000/svg" width="24" height="24" viewBox="0 0 24 24">
<title>cross-circle</title>
<path d="M17.381 6.742c-0.293-0.293-0.765-0.293-1.058 0l-4.346 4.346-4.346-4.346c-0.293-0.293-0.765-0.293-1.058 0s-0.293 0.765 0 1.058l4.313 4.312-4.313 4.309c-0.293 0.293-0.293 0.765 0 1.057 0.146 0.146 0.337 0.221 0.529 0.221s0.382-0.071 0.529-0.221l4.342-4.342 4.343 4.342c0.146 0.146 0.337 0.221 0.529 0.221s0.383-0.071 0.529-0.221c0.293-0.292 0.293-0.765 0-1.057l-4.301-4.309 4.313-4.313c0.289-0.293 0.289-0.765-0.004-1.058zM11.978 0c-6.604 0-11.978 5.374-11.978 11.978s5.374 11.978 11.978 11.978 11.978-5.374 11.978-11.978-5.374-11.978-11.978-11.978zM11.978 22.459c-5.779 0-10.481-4.703-10.481-10.481s4.702-10.481 10.481-10.481 10.481 4.702 10.481 10.481-4.703 10.481-10.481 10.481z"></path>
</svg>
