<!-- Generated by IcoMoon.io -->
<svg version="1.1" xmlns="http://www.w3.org/2000/svg" width="24" height="24" viewBox="0 0 24 24">
<title>cross1</title>
<path d="M10.853 11.921l-10.624 10.62c-0.296 0.296-0.296 0.773 0 1.069 0.146 0.146 0.341 0.221 0.532 0.221 0.195 0 0.386-0.075 0.532-0.221l10.706-10.702 10.703 10.702c0.146 0.146 0.341 0.221 0.532 0.221s0.386-0.075 0.533-0.221c0.296-0.296 0.296-0.773 0-1.069l-10.62-10.62 10.631-10.631c0.296-0.296 0.296-0.772 0-1.069s-0.773-0.296-1.069 0l-10.71 10.71-10.71-10.71c-0.296-0.296-0.772-0.296-1.069 0s-0.296 0.772 0 1.069z"></path>
</svg>
