<svg xmlns="http://www.w3.org/2000/svg" width="24" height="24"><path fill="#0288d1" d="M21.6 0H2.4A2.41 2.41 0 0 0 0 2.399V21.6A2.41 2.41 0 0 0 2.399 24H21.6a2.41 2.41 0 0 0 2.4-2.399V2.4A2.41 2.41 0 0 0 21.601 0H21.6zM7.045 14.465a2.111 2.111 0 0 0 2.79-1.032l.005-.013h1.66a3.697 3.697 0 0 1-3.585 2.815 3.69 3.69 0 1 1 3.579-4.59l.005.025h-1.66a2.11 2.11 0 1 0-2.808 2.79l.013.005zm11.345.845c-.301.26-.652.473-1.036.622l-.024.008a3.614 3.614 0 0 1-1.332.249 3.659 3.659 0 0 1-2.071-.638l.013.008v.38h-1.51V5.369h1.5v4.11a3.706 3.706 0 0 1 1.787-.629l.013-.001h.276a3.67 3.67 0 0 1 2.389 6.456l-.005.004zm-.223-2.766v.046a2.104 2.104 0 0 1-4.208 0l.001-.048v.002a2.104 2.104 0 0 1 4.206-.002v.002z"/></svg>