<svg xmlns="http://www.w3.org/2000/svg" width="24" height="24"><path fill="#239120" d="M12 0C5.373 0 0 5.373 0 12s5.373 12 12 12 12-5.373 12-12S18.627 0 12 0zM9.426 7.12a5.536 5.536 0 0 1 2.022.393l-.037-.013v1.181a4.45 4.45 0 0 0-2.186-.566h-.068.003A3.428 3.428 0 0 0 6.537 9.2l-.002.002a4.078 4.078 0 0 0-1.012 2.915v-.01a3.886 3.886 0 0 0 .949 2.759l-.004-.005a3.209 3.209 0 0 0 2.488 1.023H8.95l.116.001c.865 0 1.676-.236 2.37-.647l-.022.012-.004 1.08a5.47 5.47 0 0 1-2.635.555h.01a4.2 4.2 0 0 1-3.226-1.295l-.001-.002a4.77 4.77 0 0 1-1.212-3.419v.011a5.002 5.002 0 0 1 1.367-3.666l-.002.002a4.619 4.619 0 0 1 3.482-1.392h-.008l.114-.004h.006l.106-.001h.016-.001zm5.863.155h.836l-.555 2.652h1.661l.567-2.652h.81l-.555 2.652 1.732-.004-.15.697H17.91l-.412 1.98h1.852l-.176.698h-1.816l-.58 2.625h-.83l.567-2.625h-1.65l-.555 2.625h-.81l.555-2.625h-1.74l.131-.698h1.748l.401-1.976h-1.826l.138-.697h1.826zm.142 3.345L15 12.6h1.673l.423-1.98z"/></svg>