<!-- Generated by IcoMoon.io -->
<svg version="1.1" xmlns="http://www.w3.org/2000/svg" width="24" height="24" viewBox="0 0 24 24">
<title>date</title>
<path d="M6.252 4.635h1.528v1.568h-1.528zM11.211 4.635h1.528v1.568h-1.528zM21.987 4.635h-0.858v1.568h0.858c0.245 0 0.444 0.199 0.444 0.444v13.489c0 0.245-0.199 0.444-0.444 0.444h-19.974c-0.245 0-0.444-0.199-0.444-0.444v-13.489c0-0.245 0.199-0.444 0.444-0.444h0.807v-1.568h-0.807c-1.11 0-2.013 0.903-2.013 2.013v13.489c0 1.11 0.903 2.013 2.013 2.013h19.974c1.11 0 2.013-0.903 2.013-2.013v-13.489c0-1.11-0.903-2.013-2.013-2.013zM16.17 4.635h1.528v1.568h-1.528zM14.454 7.211c0.37 0 0.67-0.3 0.67-0.67v-4.020c0-0.37-0.3-0.67-0.67-0.67s-0.67 0.3-0.67 0.67v4.021c0 0.37 0.3 0.67 0.67 0.67zM9.495 7.211c0.37 0 0.67-0.3 0.67-0.67v-4.020c0-0.37-0.3-0.67-0.67-0.67s-0.67 0.3-0.67 0.67v4.021c0 0.37 0.3 0.67 0.67 0.67zM4.536 7.211c0.37 0 0.67-0.3 0.67-0.67v-4.020c0-0.37-0.3-0.67-0.67-0.67s-0.67 0.3-0.67 0.67v4.021c0 0.37 0.3 0.67 0.67 0.67zM19.413 7.211c0.37 0 0.67-0.3 0.67-0.67v-4.020c0-0.37-0.3-0.67-0.67-0.67s-0.67 0.3-0.67 0.67v4.021c0.001 0.37 0.3 0.67 0.67 0.67zM8.898 13.257c0.644 0 1.709-0.485 2.004-0.878v3.155h-1.757v1.781h5.344v-1.781h-1.571v-5.283h-2.017c-0.156 0.311-1.454 1.175-2.004 1.175z"></path>
</svg>
