<svg xmlns="http://www.w3.org/2000/svg" width="24" height="24"><path d="M6.252 4.635H7.78v1.568H6.252zm4.959 0h1.528v1.568h-1.528zm10.776 0h-.858v1.568h.858c.245 0 .444.199.444.444v13.489a.444.444 0 0 1-.444.444H2.013a.444.444 0 0 1-.444-.444V6.647c0-.245.199-.444.444-.444h.807V4.635h-.807C.903 4.635 0 5.538 0 6.648v13.489c0 1.11.903 2.013 2.013 2.013h19.974c1.11 0 2.013-.903 2.013-2.013V6.648c0-1.11-.903-2.013-2.013-2.013zm-5.817 0h1.528v1.568H16.17zm-1.716 2.576c.37 0 .67-.3.67-.67v-4.02a.67.67 0 0 0-1.34 0v4.021c0 .37.3.67.67.67zm-4.959 0c.37 0 .67-.3.67-.67v-4.02a.67.67 0 0 0-1.34 0v4.021c0 .37.3.67.67.67zm-4.959 0c.37 0 .67-.3.67-.67v-4.02a.67.67 0 0 0-1.34 0v4.021c0 .37.3.67.67.67zm14.877 0c.37 0 .67-.3.67-.67v-4.02a.67.67 0 0 0-1.34 0v4.021c.001.37.3.67.67.67zM8.898 13.257c.644 0 1.709-.485 2.004-.878v3.155H9.145v1.781h5.344v-1.781h-1.571v-5.283h-2.017c-.156.311-1.454 1.175-2.004 1.175z"/></svg>