<svg xmlns="http://www.w3.org/2000/svg" width="24" height="24"><path fill="#f8f8f5" d="M14.774 8.291l.772-2.596.79 2.596zm3.848 2.268l-2.025-6.128c-.045-.135-.097-.224-.154-.266a.497.497 0 0 0-.28-.063h-1.12l-.034-.001a.492.492 0 0 0-.252.07l.002-.001c-.06.045-.11.132-.149.261l-2.045 6.128c-.025.032-.038.096-.038.192 0 .149.09.223.27.223h.84c.076 0 .139-.003.187-.01a.202.202 0 0 0 .116-.048.326.326 0 0 0 .076-.114l.001-.002c.022-.051.046-.119.072-.202l.318-1.071h2.306l.327 1.051c.026.09.051.16.077.213a.39.39 0 0 0 .087.12c.031.028.07.047.114.053h.002c.045.006.103.01.173.01h.897c.18 0 .27-.074.27-.223v-.012a.734.734 0 0 0-.005-.081v.003a.895.895 0 0 0-.038-.114l.002.006zm-.994 2.467h-.646c-.168 0-.279.024-.333.072-.055.049-.082.147-.082.295v3.638l-1.91-3.647c-.076-.155-.152-.253-.226-.295-.074-.041-.204-.063-.39-.063h-.599c-.167 0-.278.025-.332.073-.055.048-.082.147-.082.294v6.138c0 .148.025.246.077.294s.16.072.328.072h.656c.167 0 .278-.024.332-.072.055-.048.082-.146.082-.294v-3.648l1.91 3.657c.077.155.152.253.227.295.073.042.204.062.39.062h.598c.167 0 .278-.024.333-.072.054-.048.082-.146.082-.294v-6.138c0-.148-.028-.246-.082-.294-.055-.048-.166-.073-.333-.073zm3.203-.581l1.665 1.665v8.385H1.505V14.11l1.663-1.664a.626.626 0 0 0 0-.89L1.504 9.891V1.505h20.991v8.384l-1.665 1.666a.63.63 0 0 0 .001.889zM24 0H0v10.613L1.387 12 0 13.387V24h24V13.387L22.613 12 24 10.613zM10.67 18.469H7.96l2.855-4.014a.654.654 0 0 0 .085-.151l.002-.004a.421.421 0 0 0 .019-.126v-.782c0-.148-.028-.246-.082-.294-.055-.048-.166-.073-.334-.073H6.382c-.149 0-.245.028-.29.082-.045.055-.068.169-.068.343v.58c0 .172.023.287.068.341.045.055.141.083.29.083h2.545L6.11 18.468a.434.434 0 0 0-.107.269v.793c0 .148.027.245.082.294.055.048.167.072.334.072h4.25c.148 0 .245-.027.29-.081.045-.055.068-.17.068-.344v-.579c0-.173-.023-.287-.068-.342s-.142-.082-.289-.082zM9.408 8.233c0 .264-.017.484-.052.661s-.093.32-.174.43a.66.66 0 0 1-.313.23l-.005.001c-.135.043-.29.068-.451.068h-.037.002-.79v-4.17h.79c.366 0 .63.11.79.324s.241.571.241 1.067zm1.38-2.789c-.225-.457-.533-.795-.921-1.013-.39-.219-.88-.328-1.47-.328H6.418c-.167 0-.278.024-.333.072-.054.049-.082.147-.082.294v6.138c0 .148.028.246.082.295.055.048.166.072.333.072h2.218c1.048 0 1.765-.447 2.15-1.342.09-.205.153-.413.188-.622.035-.219.054-.472.054-.729v-.07.004-1.303c0-.367-.018-.656-.054-.868a2.18 2.18 0 0 0-.199-.625l.006.013z"/></svg>