<svg xmlns="http://www.w3.org/2000/svg" width="24" height="24"><path d="M20.612 8.188L12.988.564C12.565.282 12-.001 11.435-.001H6.352a3.495 3.495 0 0 0-3.529 3.529v16.941a3.495 3.495 0 0 0 3.529 3.529h11.294a3.495 3.495 0 0 0 3.529-3.529V9.74c.001-.565-.14-1.129-.564-1.553zm-7.906-5.929l6.212 6.212h-4.094c-1.129 0-2.118-.988-2.118-2.118l-.001-4.095zm4.941 20.329H6.353c-1.129 0-2.118-.988-2.118-2.118V3.528c0-1.129.988-2.118 2.118-2.118h4.941v4.941a3.495 3.495 0 0 0 3.529 3.529h4.941v10.588c.002 1.13-.987 2.118-2.117 2.118zM14.823 14.4H9.175c-.423 0-.706.282-.706.706s.282.706.706.706h5.648c.423 0 .706-.282.706-.706s-.282-.706-.706-.706z"/></svg>