<svg xmlns="http://www.w3.org/2000/svg" width="24" height="24"><path fill="#00ccbc" d="M16.861 0l-1.127 10.584L13.81 1.66 7.777 2.926l1.924 8.922-8.695 1.822 1.535 7.127L17.832 24l3.498-7.744L22.994.636zM11.39 13.61h.013a.75.75 0 0 1 .314.068l-.005-.002c.208.093.56.29.63.592.103.434.004.799-.312 1.084v.002c-.315.284-.732.258-1.174.113-.441-.145-.637-.672-.47-1.309.124-.473.71-.544 1.004-.548zm4.142.548c.447-.012.832.186 1.05.543s.107.75-.122 1.143h-.002c-.229.392-.83.445-1.422.16-.399-.193-.397-.684-.353-.983a.932.932 0 0 1 .194-.449l-.001.002c.142-.177.381-.408.656-.416z"/></svg>