<svg xmlns="http://www.w3.org/2000/svg" width="24" height="24"><path fill="#007db8" d="M17.963 14.6V9.324h1.222v4.204h2.14v1.07zm-9.784-3.288l2.98-2.292c.281.228.56.458.841.687l-2.827 2.14.611.535 2.827-2.216c.281.228.56.458.841.688-.323.274-1.243 1-2.168 1.721l-.659.495.61.536 2.83-2.295-.001-1.986h1.223v4.204h2.216v1.07h-3.362v-1.987c-.995.763-1.987 1.529-2.981 2.292l-2.981-2.292c-.144.729-.653 1.36-1.312 1.694a2.65 2.65 0 0 1-.915.276c-.183.022-.367.017-.551.017H3.516V9.325H5.69a2.532 2.532 0 0 1 1.568.561l-.005-.004c.454.36.778.872.927 1.43zm-3.515-.917v3.21l.953-.001c.42-.014.791-.214 1.034-.52l.002-.003a1.732 1.732 0 0 0 .177-1.898l.005.009c-.2-.38-.548-.66-.966-.764l-.01-.002c-.166-.04-.338-.03-.507-.032zM11.82 0h.337c1.981.027 3.838.532 5.469 1.404l-.064-.031a12.211 12.211 0 0 1 4.103 3.524l.023.033A11.84 11.84 0 0 1 24 11.811v.369a11.919 11.919 0 0 1-3.242 8.039l.006-.006A11.94 11.94 0 0 1 12.19 24h-.369a11.96 11.96 0 0 1-4.226-.834l.081.028a12.105 12.105 0 0 1-4.271-2.833l-.003-.003A12.068 12.068 0 0 1 .6 15.755l-.024-.085A11.733 11.733 0 0 1 0 12.191v-.371a11.87 11.87 0 0 1 2.019-6.439l-.027.043a12.3 12.3 0 0 1 4.641-4.14l.069-.032A11.694 11.694 0 0 1 11.81 0h.01zm-.153 1.23a10.687 10.687 0 0 0-6.45 2.391l.02-.016a10.838 10.838 0 0 0-3.294 4.499l-.025.074a10.653 10.653 0 0 0-.694 3.821c0 1.554.327 3.032.915 4.369l-.027-.07a10.867 10.867 0 0 0 3.516 4.4l.03.021a10.593 10.593 0 0 0 4.728 1.939l.058.007c1.456.209 2.955.124 4.376-.26a10.796 10.796 0 0 0 5.069-3.055l.006-.006a10.704 10.704 0 0 0 2.675-5.212l.011-.068c.125-.62.197-1.333.197-2.063 0-.93-.116-1.832-.335-2.694l.016.075c-.924-3.615-3.587-6.452-7.022-7.604l-.076-.022a10.55 10.55 0 0 0-3.711-.525h.018z"/></svg>