<svg height="24" width="24" xmlns="http://www.w3.org/2000/svg"><path d="m11.109 15.516h1.781v1.781h-1.781zm.891-8.813q1.5 0 2.508 1.008t1.008 2.461q0 1.172-1.313 2.344t-1.313 2.109h-1.781q0-.984.398-1.664t.914-.984.914-.773.398-1.031q0-.703-.516-1.219t-1.219-.516-1.219.516-.516 1.219h-1.781q0-1.453 1.008-2.461t2.508-1.008zm5.016 12.281v-13.969h-10.031v13.969zm0-18q.797 0 1.383.609t.586 1.406v18q0 .797-.586 1.406t-1.383.609h-10.031q-.797 0-1.383-.609t-.586-1.406v-18q0-.797.586-1.406t1.383-.609h10.031z"/></svg>