<!-- Generated by IcoMoon.io -->
<svg version="1.1" xmlns="http://www.w3.org/2000/svg" width="24" height="24" viewBox="0 0 24 24">
<title>dihadiwala</title>
<path d="M15.273 20.26c0-0.312 0-0.935-0.312-1.558 0-0.623 0-0.935-0.312-1.558 0-0.312 0-0.623-0.312-1.247 0-0.935 0-2.182-0.312-3.74v-0.623c-0.312-0.623-0.312-1.87-0.623-2.805 0-0.312 0-1.247-0.312-1.247 0-0.312-0.623-0.312-0.935-0.312h-0.623c-0.312 1.558-0.312 3.117-0.623 4.675 0 0.312 0 0.935-0.312 1.247v0.623c0.312 0 0.623-0.623 0.935-0.935 0.312 0.312 0.623-0.312 0.935-0.623s0.623-0.312 0.935-0.623c0.312 0 0 0.623 0.312 0.623 0 0.312-0.623 0.623-0.935 0.935-0.623 0.623-1.247 1.247-1.87 1.558 0 0.312-0.312 0.623-0.623 0.935v1.247c0.312 0 0.935-0.623 0.935-0.935l0.935-0.935c0.312-0.312 0.623-0.312 0.935-0.623l0.623-0.623c0 0.623 0.312 1.247 0.312 1.87h-0.312c-0.312 0.312-0.623 0.623-0.623 0.935-1.247 0.935-2.182 2.182-3.429 3.117 0 0.623-0.312 1.247-0.312 1.87 0.623 0.312 0.935 0.935 1.247 1.247l1.247 1.247c0.312 0 0.312-0.312 0.623-0.623s0.935-0.623 1.247-0.935l0.312-0.312s0.623-0.312 0.623-0.623v-0.935c0.623 0 0.623 0 0.623-0.312zM11.221 7.169c0.623 0 1.558-0.312 1.87 0 0.312 0 0.312-0.312 0.623-0.623s0.623-0.935 0.623-1.247 0.312-0.623 0.312-0.935v-0.312h-4.675c-0.312 0.312 0 0.623 0 0.935 0.623 0.623 0.935 1.247 1.247 2.182zM19.013 2.494c-0.312-0.312-0.623-1.558-0.935-1.87s-0.935-0.312-1.558-0.312h-0.623c-0.312-0.312-0.623-0.312-0.935-0.312h-6.234c-0.312 0-1.558 0-1.87 0.312l-0.312 0.312c-0.312 0.623-0.312 0.935-0.623 0.935 0 0.623-0.312 1.247-0.312 1.558s0 0.312-0.312 0.623c0 0.312 0.312 0.623 0.623 0.935 0.623 0.935 1.247 1.558 1.87 2.182 0.312 0 0.312-1.247 0.312-1.558 0.623-0.623 1.247-1.247 1.87-1.558v-0.312c0-0.312-0.623-0.312-0.935-0.623-0.935-0.312-1.558-0.623-2.182-0.935l-0.312-0.312c0-0.312 0-0.312 0.312-0.312 0.312 0.623 1.247 0.935 1.87 1.247h7.481c0.312 0 1.247-0.623 1.558-0.935v-0.312h0.312c0 0.312-0.312 0.623-0.623 0.623-0.312 0.623-0.935 0.935-1.558 0.935-0.312 0-0.312 0.312-0.623 0.312h-0.623v0.312l1.558 1.558c0 0.312 0.312 0.623 0.312 0.935v0.935h0.312c0.312 0 0.623-0.623 0.623-0.623l1.247-1.247c0.312-0.312 0.312-0.623 0.623-0.935v-0.312c0-0.312-0.312-0.623-0.312-1.247z"></path>
</svg>
