<svg xmlns="http://www.w3.org/2000/svg" width="24" height="24"><path d="M15.273 20.26c0-.312 0-.935-.312-1.558 0-.623 0-.935-.312-1.558 0-.312 0-.623-.312-1.247 0-.935 0-2.182-.312-3.74v-.623c-.312-.623-.312-1.87-.623-2.805 0-.312 0-1.247-.312-1.247 0-.312-.623-.312-.935-.312h-.623c-.312 1.558-.312 3.117-.623 4.675 0 .312 0 .935-.312 1.247v.623c.312 0 .623-.623.935-.935.312.312.623-.312.935-.623s.623-.312.935-.623c.312 0 0 .623.312.623 0 .312-.623.623-.935.935-.623.623-1.247 1.247-1.87 1.558 0 .312-.312.623-.623.935v1.247c.312 0 .935-.623.935-.935l.935-.935c.312-.312.623-.312.935-.623l.623-.623c0 .623.312 1.247.312 1.87h-.312c-.312.312-.623.623-.623.935-1.247.935-2.182 2.182-3.429 3.117 0 .623-.312 1.247-.312 1.87.623.312.935.935 1.247 1.247l1.247 1.247c.312 0 .312-.312.623-.623s.935-.623 1.247-.935l.312-.312s.623-.312.623-.623v-.935c.623 0 .623 0 .623-.312zM11.221 7.169c.623 0 1.558-.312 1.87 0 .312 0 .312-.312.623-.623s.623-.935.623-1.247.312-.623.312-.935v-.312H9.974c-.312.312 0 .623 0 .935.623.623.935 1.247 1.247 2.182zm7.792-4.675c-.312-.312-.623-1.558-.935-1.87S17.143.312 16.52.312h-.623C15.585 0 15.274 0 14.962 0H8.728c-.312 0-1.558 0-1.87.312l-.312.312c-.312.623-.312.935-.623.935 0 .623-.312 1.247-.312 1.558s0 .312-.312.623c0 .312.312.623.623.935.623.935 1.247 1.558 1.87 2.182.312 0 .312-1.247.312-1.558.623-.623 1.247-1.247 1.87-1.558v-.312c0-.312-.623-.312-.935-.623-.935-.312-1.558-.623-2.182-.935l-.312-.312c0-.312 0-.312.312-.312.312.623 1.247.935 1.87 1.247h7.481c.312 0 1.247-.623 1.558-.935v-.312h.312c0 .312-.312.623-.623.623-.312.623-.935.935-1.558.935-.312 0-.312.312-.623.312h-.623v.312l1.558 1.558c0 .312.312.623.312.935v.935h.312c.312 0 .623-.623.623-.623l1.247-1.247c.312-.312.312-.623.623-.935V3.74c0-.312-.312-.623-.312-1.247z"/></svg>