<svg xmlns="http://www.w3.org/2000/svg" width="24" height="24"><path d="M19.187 13.909a1.784 1.784 0 0 1-.297-.096l.011.004a.665.665 0 0 1-.203-.139c.056-.488 0-.912.047-1.392.184-1.862 1.355-1.272 2.406-1.577.655-.184 1.31-.562 1.475-1.336a13.63 13.63 0 0 0-2.358-2.177l-.039-.027c-2.85-2.028-6.574-2.84-9.958-2.277a5.151 5.151 0 0 0 2.208 2.061l.03.013s-.917 0-1.703-.587c-.23.092-.692.274-.913.384a5.075 5.075 0 0 0 3.53 1.422 5.078 5.078 0 0 0 3.112-1.06l-.012.009c-.01.017-.185.285-.397 1.4-.47 2.38-1.826 2.195-3.504 1.596-3.485-1.264-5.403-.093-7.145-2.49-.507.286-.82.82-.82 1.402 0 .599.331 1.106.81 1.383.262-.348.38-.446.836-.446-.706.4-.79.75-1.094 1.718-.368 1.171-.212 2.37-1.936 2.683-.913.046-.894.664-1.226 1.586-.415 1.199-.968 1.678-2.047 2.812.443.535.904.6 1.374.406.968-.406 1.715-1.66 2.415-2.471.784-.904 2.665-.517 4.085-1.402.977-.599 1.457-1.41.811-2.784.401.44.66 1.017.701 1.652v.008c1.641-.213 3.836 1.788 5.836 2.12a3.56 3.56 0 0 1-.479-.797l-.009-.023c-.23-.554-.304-1.06-.258-1.503.184 1.097 1.29 2.507 3.07 2.637.452.036.95-.019 1.466-.176.618-.184 1.19-.424 1.872-.295.507.093.977.35 1.272.784.443.645 1.41.784 1.844-.009-.977-2.554-3.67-2.72-4.813-3.015z"/></svg>