<svg xmlns="http://www.w3.org/2000/svg" width="24" height="24"><path d="M22.964 7.683c.095-.256.186-.602.211-1.004.035-.708-.141-1.701-1.139-2.605.065-.462.065-1.195-.341-1.922-.537-.964-1.586-1.616-3.122-1.942-1.029-.221-2.379-.266-4.015-.141C11.26.004 8.048.41 7.867.435L6.688.576A2.083 2.083 0 0 0 5.483.195H2.421A2.09 2.09 0 0 0 .333 2.283v8.156a2.09 2.09 0 0 0 2.088 2.088h3.062c.361 0 .698-.09.994-.251.211.462.522.989.984 1.476.025.025.05.05.08.07 1.576 1.21 3.433 5.566 4.091 7.343-.065.552-.131 1.747.422 2.394.246.286.587.442.969.442.386 0 1.722-.09 2.555-1.24.788-1.094.833-2.73.13-4.869-.592-1.797-.647-2.595-.627-2.916.271.06.537.115.793.161h.005c.045.01 1.149.256 2.469.316 1.877.09 3.237-.236 4.03-.964 1.094-.999.964-2.274.637-3.087.281-.366.622-.964.652-1.727.02-.693-.21-1.36-.703-1.993zM5.482 11.176H2.42a.733.733 0 0 1-.733-.733V2.287c0-.407.331-.733.733-.733h3.062c.407 0 .733.331.733.733v8.156a.73.73 0 0 1-.733.733zm16.146.487c0 .005.176.281.236.658.075.467-.055.853-.407 1.174-.959.873-3.719.673-5.26.331l-.065-.015c-.276-.05-.572-.11-.873-.176-.321-.115-.763-.1-1.094.196-.668.592-.592 1.937.246 4.492.552 1.676.572 2.941.06 3.649-.432.597-1.144.673-1.415.678-.12-.201-.156-.888-.065-1.456a.77.77 0 0 0-.03-.336c-.095-.256-2.299-6.289-4.552-8.076-.587-.637-.843-1.385-.934-1.722.06-.196.095-.407.095-.622V2.287c0-.151-.015-.301-.045-.442l.507-.06h.005c.03-.005 3.298-.427 6.525-.356h.07c1.521-.12 2.75-.085 3.659.11 1.124.241 1.867.663 2.208 1.26.356.617.161 1.255.146 1.315a.663.663 0 0 0 .231.768c1.486 1.114.803 2.414.713 2.575a.662.662 0 0 0 .09.818c.432.452.642.903.627 1.345-.02.658-.527 1.149-.562 1.179a.661.661 0 0 0-.115.863z"/></svg>