<!-- Generated by IcoMoon.io -->
<svg version="1.1" xmlns="http://www.w3.org/2000/svg" width="24" height="24" viewBox="0 0 24 24">
<title>dislike</title>
<path d="M22.964 7.683c0.095-0.256 0.186-0.602 0.211-1.004 0.035-0.708-0.141-1.701-1.139-2.605 0.065-0.462 0.065-1.195-0.341-1.922-0.537-0.964-1.586-1.616-3.122-1.942-1.029-0.221-2.379-0.266-4.015-0.141-3.298-0.065-6.51 0.341-6.691 0.366l-1.179 0.141c-0.341-0.241-0.758-0.381-1.205-0.381h-3.062c-1.154 0-2.088 0.939-2.088 2.088v8.156c0 1.154 0.939 2.088 2.088 2.088h3.062c0.361 0 0.698-0.090 0.994-0.251 0.211 0.462 0.522 0.989 0.984 1.476 0.025 0.025 0.050 0.050 0.080 0.070 1.576 1.21 3.433 5.566 4.091 7.343-0.065 0.552-0.131 1.747 0.422 2.394 0.246 0.286 0.587 0.442 0.969 0.442 0.386 0 1.722-0.090 2.555-1.24 0.788-1.094 0.833-2.73 0.13-4.869-0.592-1.797-0.647-2.595-0.627-2.916 0.271 0.060 0.537 0.115 0.793 0.161h0.005c0.045 0.010 1.149 0.256 2.469 0.316 1.877 0.090 3.237-0.236 4.030-0.964 1.094-0.999 0.964-2.274 0.637-3.087 0.281-0.366 0.622-0.964 0.652-1.727 0.020-0.693-0.21-1.36-0.703-1.993zM5.482 11.176h-3.062c-0.407 0-0.733-0.331-0.733-0.733v-8.156c0-0.407 0.331-0.733 0.733-0.733h3.062c0.407 0 0.733 0.331 0.733 0.733v8.156c0 0.407-0.326 0.733-0.733 0.733zM21.628 11.663c0 0.005 0.176 0.281 0.236 0.658 0.075 0.467-0.055 0.853-0.407 1.174-0.959 0.873-3.719 0.673-5.26 0.331-0.020-0.005-0.040-0.010-0.065-0.015-0.276-0.050-0.572-0.11-0.873-0.176-0.321-0.115-0.763-0.1-1.094 0.196-0.668 0.592-0.592 1.937 0.246 4.492 0.552 1.676 0.572 2.941 0.060 3.649-0.432 0.597-1.144 0.673-1.415 0.678-0.12-0.201-0.156-0.888-0.065-1.456 0.015-0.11 0.005-0.226-0.030-0.336-0.095-0.256-2.299-6.289-4.552-8.076-0.587-0.637-0.843-1.385-0.934-1.722 0.060-0.196 0.095-0.407 0.095-0.622v-8.151c0-0.151-0.015-0.301-0.045-0.442l0.507-0.060h0.005c0.030-0.005 3.298-0.427 6.525-0.356h0.070c1.521-0.12 2.75-0.085 3.659 0.11 1.124 0.241 1.867 0.663 2.208 1.26 0.356 0.617 0.161 1.255 0.146 1.315-0.105 0.281-0.010 0.587 0.231 0.768 1.486 1.114 0.803 2.414 0.713 2.575-0.166 0.261-0.125 0.592 0.090 0.818 0.432 0.452 0.642 0.903 0.627 1.345-0.020 0.658-0.527 1.149-0.562 1.179-0.25 0.216-0.296 0.582-0.115 0.863z"></path>
</svg>
