<svg height="24" viewBox="0 0 24 24" width="24" xmlns="http://www.w3.org/2000/svg"><path d="m18.824 6.655q.092.128 0 .255-.093.032-.154 0l-.154-.223-.369-.095q-.092-.096 0-.255.092-.128.246-.096.277.16.431.414zm4.49 4.336q.031.095.031.159l-.154.223v-.35q.062-.032.123-.032zm-5.382-4.75.153.255q-.123.223-.246.287l-.092.127q-.061-.159-.092-.318-.031 0-.062-.032l-.123.127-.553-.127q-.123-.16.061-.35.185-.192.43-.096zm-1.138.67-.154-.096.123-.064zm-2.461-1.626-.184.223-.185-.223-.154-.032.492-.096zm9.596 4.781q.123.096.031.478l-.184.542-.154.191-.031-.382q0-.128-.03-.223 0-.096-.032-.191l-.4.19q.031.065.031.16.031.096.062.128l-.43.032.03.127.092.096-.153.35q-.031.287-.154.32l-.123-.192-.37.095q-.122-.127-.122-.223l-.093-.127.154-.191q-.061-.128-.123-.128l-.154.064-.153.382q-.216 0-.277.064l.184.255.646.35.031.224q.123.032.185.095.092.064.123.096-.031.064-.062.16-.03.063-.123.127l-.277.191.031.255q-.246.096-.43.319l-.093.35q-.338 0-.43.064l.03.479-.092-.032q-.123-.192-.246-.096l.123.414q-.092 0-.154.032l-.061.064.123.223q.03.128.03.192-.184.159-.369.19-.153.033-.246.224l.031.382q-.092.224-.154.287-.307 0-.461.064l-.185.35-.153-.063q-.124-.032-.185 0l-.123.255q-.277 0-.4.127l-.246.224.062-.287q.092-.255-.093-.287l-.123.095-.03.16-.308.191-.03.35h-.585l-.123.224q-.062.191-.308.287-.246.095-.861.095t-.769.064q-.154 0-.277.16-.092.159-.215.223l-.492.159-.154.287-.215.16q-.154.095-.492.095l-.308.16-.461.19-.339-.031q-.184-.096-.43-.096h-.554l-.185-.128-.369.064-.184.255-.277-.191-.215-.223-.492-.032-.185-.16.277-.35.369-.51v-.35l.43-.479v-.542q0-.255.093-.446l.338.096q.123-.128.123-.192-.184-.159-.338-.414l-.308-.446-.369-.478-.246-.447-.277-.446-.215-.542-.461-.51-1.692-2.486-.308-.542-.307-.606-.246-.159q-.277-.35-.462-.765l-.092-.383-.277-.127-.953.191q-.339 0-.738.128l-.646.255-.77.095-.43.16q-.277.064-.43-.064l-.216-.255-.338.128-.277-.096q0-.319-.061-.383l-.277-.382q-.185-.128-.277-.16l.03-.159h.308q-.03-.095-.03-.223v-.16l.307.128q.154-.095.185-.16l.123-.254.246.032.184-.542-.03-.287.154.095.153.16q.154-.064.185-.128l.277-.35.276.032-.092-.223-.184-.224-.277-.095q.184-.287.8-.415l.984-.095.338-.223.8-.16 1.23-.064.43-.095q.247-.096.493-.032l.492-.032q.492-.127.707-.064l.4.032.554.032.83.16.738.063.523-.223q.185 0 .4.255l.308.223h.646l.215.255-.03.16.184.51.123-.064.277-.319.307.478-.369-.127q-.215 0-.246.318l.308.064.123.16.184-.064q.154-.064.308.064.184.095.246.223l.184.255h.4q0-.096.03-.128.032-.064.062-.095l.062.318h.123l.092-.095.093.16.092-.256q.4 0 .461-.064 0-.095-.061-.159l-.123-.16q0-.159.246-.127l.43.128.308-.032.184.16.062.127q-.277-.064-.37.032-.06.063-.03.223l.215.19q0 .224.216.479l.123-.127.03-.255.124.159h.522q.154 0 .246.35l.093.32.123.095.154-.16.492.16.092-.16.154-.063q.123-.096.154-.16v-.159l-.062-.16.43.128q.124-.127.154-.191-.061-.16-.123-.16l-.307-.063v-.16l.092-.223.092-.191q.154.095.185.16l.154.222.215-.031.215-.032.77.669.215-.032.215.287.185.096q-.093.127 0 .286l.215-.095h.215l.185.319.184.318q.246 0 .37.064l.122.574.339.191.276.096q0 .16-.061.255l.061.319.093.19-.031.224.123-.064q.123-.16.185-.191zm-7.749-4.716q.092.095 0 .286-.031.064-.185.096-.092-.096 0-.287.03-.064.185-.095zm6.305 5.928q.092.096 0 .255l-.154.064-.03-.223q0-.095.03-.127.062-.032.154.031zm-1.292-1.561q.061.063.061.318-.123.064-.246.032-.153-.095-.061-.287.061-.16.246-.063zm-8.704-4.24-.185.35.092-.254zm4.244 12.304-.123-.191.123-.096q.154.032.123.223zm5.137-4.75q-.185-.127-.246-.254l.184.127zm-12.304 5.674.153-.159.154-.096zm13.224-8.255-.092.19-.03.097-.031-.224zm.154 1.562-.061.286zm-2.184-3.507.093.128-.123.032-.123-.096zm-5.505 7.491-.123.096zm-.645-10.743-.03.16zm6.551 3.538-.061.16zm-.123 5.196.062.095-.093.064zm-5.905-8.543-.062.096zm1.66 11.635-.06.127zm-6.92-6.822-.123.128zm-.184 9.149-.031.16zm9.32-12.464.06.096-.153-.064zm-5.014 8.67-.031.128zm7.105-6.47-.031.127zm-.216 1.498-.061.096zm.4 3.952-.092.064zm-19.592-7.968-.031.159zm20.607 5.323-.123.064zm-.4-.223-.184.032zm-6.49 6.821-.03.096zm6.214-6.152v-.16zm1.507-2.136q-.031.064-.031.128 0-.096.031-.128zm-21.624-4.239-.03.127zm17.501 2.773-.123.032zm-.492-1.912-.061.095zm-7.595-1.817-.092.032zm3.076 1.275-.031.127zm-.43-.032-.062.064zm-3.971 12.878-.03.127zm11.103-7.969-.06-.064zm-7.565-5.1-.062-.064zm9.873 4.048q0-.255-.093-.415-.061-.159-.215-.286l-.03.414.215.096q.03.095 0 .159zm-2.4-.765-.06-.064zm1.23 1.434-.153-.032-.184-.287.061-.255-.277.192.154.19.03.097-.368.159.246.032q.061.064.123.095.092.032.123.032zm-.614-.574-.123-.095-.216-.064-.092-.16-.123.128-.092.223.246.096q.184 0 .277.095zm-5.382-3.474-.123-.064-.184-.095q-.123 0-.123.063l.03.192.216.127zm3.691 6.79.062-.383q0-.51-.37-1.084-.307-.574-.8-.924-.4-.383-1.106-.67l-1.23-.541-.462-.287-.677-.255-.707-.223-1.138-.255-.37-.064q-.276 0-.43.064-.123.031-.092.223l.369.733q.277.51.523.701l.277.191v.192l.307.382.03.255q.124.096.185.096.154.095.4.478l.339.414.522.765.462.829.215.637-.061.415.123.191-.123.191q-.093.096 0 .192l.215-.064.369-.16q.154 0 .523-.19l.677-.32.953-.382q.584-.255.83-.51l.123-.319q0-.223.062-.318z" fill="#50162d"/></svg>