<svg xmlns="http://www.w3.org/2000/svg" width="24" height="24"><path d="M16.8 20.325c0-.525.375-.9.9-.9s.9.45.9.9-.375.9-.9.9c-.45 0-.9-.45-.9-.9zM6.9 24c.3-.225.375-.6.3-.9-.3-.825-1.35-.15-1.35-.15-.075-.15-1.575-4.425.45-4.8 2.1-.375 3.225 3.225 3.225 3.225-1.125.675-1.05.825-.75 1.425.3.525.675.3 1.5-.15s.45-1.275.45-1.275c-1.875-5.1-4.275-4.35-4.275-4.35C6.825 15 8.475 15.3 8.475 15.3c.6-.075.45-1.425.45-1.425-1.65-1.95-1.5-3.075-1.5-3.075-2.175-2.7-.6-4.125-.6-4.125-.375-3.45.525-4.65.525-4.65C11.4-1.425 14.4.6 14.4.6c4.95-1.05 3.525 5.925 3.525 5.925 1.5 1.8-.3 4.35-.3 4.35 0 1.425-1.35 2.775-1.35 2.775-.075 1.125.15 1.575.15 1.575 2.475.45 1.5 3.075 1.5 3.075h-.15c-1.125 0-2.025.9-2.025 2.025s.9 2.025 2.025 2.025 2.025-.9 2.025-2.025c0-.675-.3-1.2-.75-1.575v-.075c.6-.9.15-2.475.15-2.475s1.5.45 2.475 1.725c.975 1.2 1.65 5.85 1.65 6.15H6.9zm9.3-13.8s1.2-.825 1.05-2.025-.9-1.35-.9-.45c0 0-.075.375-.45.45V5.55s-1.875-1.05-2.325-1.725c0 0-2.25 1.5-4.725 1.425v3.075s-.675-.3-.6-.9-.825-.225-.75.75c.075.975.9 1.725.9 1.725s-.15 2.1 1.8 3.6c0 0-1.65 3.825 2.175 6.225 0 0 3.375-1.95 2.775-4.95 0 0-2.4 1.575-3.975-.75 0-.075 3.525 1.65 5.025-3.825zM4.725 23.4c.15.225.375.45.525.6H1.5c.525-7.425 3.975-7.875 3.975-7.875l-.15 1.425c-1.05 0-1.8 4.05-.6 5.85z"/></svg>