<!-- Generated by IcoMoon.io -->
<svg version="1.1" xmlns="http://www.w3.org/2000/svg" width="24" height="24" viewBox="0 0 24 24">
<title>doctor</title>
<path d="M16.8 20.325c0-0.525 0.375-0.9 0.9-0.9s0.9 0.45 0.9 0.9-0.375 0.9-0.9 0.9c-0.45 0-0.9-0.45-0.9-0.9zM6.9 24c0.3-0.225 0.375-0.6 0.3-0.9-0.3-0.825-1.35-0.15-1.35-0.15-0.075-0.15-1.575-4.425 0.45-4.8 2.1-0.375 3.225 3.225 3.225 3.225-1.125 0.675-1.050 0.825-0.75 1.425 0.3 0.525 0.675 0.3 1.5-0.15s0.45-1.275 0.45-1.275c-1.875-5.1-4.275-4.35-4.275-4.35 0.375-2.025 2.025-1.725 2.025-1.725 0.6-0.075 0.45-1.425 0.45-1.425-1.65-1.95-1.5-3.075-1.5-3.075-2.175-2.7-0.6-4.125-0.6-4.125-0.375-3.45 0.525-4.65 0.525-4.65 4.050-3.45 7.050-1.425 7.050-1.425 4.95-1.050 3.525 5.925 3.525 5.925 1.5 1.8-0.3 4.35-0.3 4.35 0 1.425-1.35 2.775-1.35 2.775-0.075 1.125 0.15 1.575 0.15 1.575 2.475 0.45 1.5 3.075 1.5 3.075h-0.15c-1.125 0-2.025 0.9-2.025 2.025s0.9 2.025 2.025 2.025 2.025-0.9 2.025-2.025c0-0.675-0.3-1.2-0.75-1.575v-0.075c0.6-0.9 0.15-2.475 0.15-2.475s1.5 0.45 2.475 1.725c0.975 1.2 1.65 5.85 1.65 6.15h-16.425zM16.2 10.2s1.2-0.825 1.050-2.025-0.9-1.35-0.9-0.45c0 0-0.075 0.375-0.45 0.45v-2.625s-1.875-1.050-2.325-1.725c0 0-2.25 1.5-4.725 1.425v3.075s-0.675-0.3-0.6-0.9-0.825-0.225-0.75 0.75c0.075 0.975 0.9 1.725 0.9 1.725s-0.15 2.1 1.8 3.6c0 0-1.65 3.825 2.175 6.225 0 0 3.375-1.95 2.775-4.95 0 0-2.4 1.575-3.975-0.75 0-0.075 3.525 1.65 5.025-3.825zM4.725 23.4c0.15 0.225 0.375 0.45 0.525 0.6h-3.75c0.525-7.425 3.975-7.875 3.975-7.875l-0.15 1.425c-1.050 0-1.8 4.050-0.6 5.85z"></path>
</svg>
