<svg xmlns="http://www.w3.org/2000/svg" width="24" height="24"><path d="M18.353 0H5.647a3.495 3.495 0 0 0-3.53 3.529V20.47a3.495 3.495 0 0 0 3.529 3.529h12.706a3.495 3.495 0 0 0 3.529-3.529V3.529A3.494 3.494 0 0 0 18.353 0zm2.118 20.471c0 1.129-.988 2.118-2.118 2.118H5.647c-1.129 0-2.118-.988-2.118-2.118V3.529c0-1.129.988-2.118 2.118-2.118h12.706c1.129 0 2.118.988 2.118 2.118zM16.235 5.647h-8.47c-.423 0-.706.282-.706.706s.282.706.706.706h8.471c.423 0 .706-.282.706-.706s-.283-.707-.707-.706zm0 5.647h-8.47c-.423 0-.706.282-.706.706s.282.706.706.706h8.471c.423 0 .706-.282.706-.706s-.283-.706-.707-.706zm0 5.647h-8.47c-.423 0-.706.282-.706.706s.282.706.706.706h8.471c.423 0 .706-.282.706-.706s-.283-.706-.707-.706z"/></svg>