<svg xmlns="http://www.w3.org/2000/svg" width="24" height="24"><path d="M19.575 13.5s-3.3-.45-1.875-3.225c0 0 .6-1.2.825-1.95 0 0 .3-2.025 1.725-1.725h.075c.075-.45.075-.9-.225-1.35 0 0 .075-1.05.375-.525 0 0 .9 1.35.9 2.475.375.45.75 1.05.9 2.1.15.15.9 3.975-2.7 4.2zm1.2 5.025s.375 1.65-1.35 2.925c0 0-1.65.975-3.825 1.65l-.75.225c-2.1.6-4.05.675-4.05.675-2.1-.225-2.7-1.725-2.7-1.725-1.05-1.8 0-2.625 0-2.625 1.35-.75 1.5-2.25 1.5-2.25-.825-3.6 2.925-4.05 2.925-4.05l-.075.075s3.375-1.65 4.575 1.8c0 0 .825 1.2 2.4 1.05 0 0 1.275.15 1.35 2.25zm-6.45-9.975s-3.075 1.2-3.15-1.875c0 0 .3-1.725-.225-2.1 0 0-1.2-2.025.675-2.325 0 0 .15-.075.375-.075-.075-.45-.15-1.125-.6-1.425 0 0-.225-1.05.225-.6 0 0 1.35 1.125 1.65 2.25.45.225 1.05.6 1.575 1.275 0-.075 2.475 2.85-.525 4.875zM8.1 10.425C4.5 10.35 5.025 6.6 5.025 6.6c.075-.9.375-1.575.675-2.025-.375-1.05.075-2.7.075-2.7.15-.6.525.375.525.375-.15.525.075 1.125.3 1.5.225-.075.375-.15.375-.15 1.725-.75 1.8 1.575 1.8 1.575-.15.675.975 1.95.975 1.95 1.575 2.625-1.65 3.3-1.65 3.3zM6.225 17.55c-3.15 1.725-4.5-1.875-4.5-1.875a4.302 4.302 0 0 1-.375-1.8c-.6-.975-.6-2.625-.6-2.625 0-.675.6.225.6.225 0 .375.15.75.375 1.05.15-.225.3-.375.3-.375 1.05-1.05 2.325.525 2.325.525.6.525 1.725 1.2 1.725 1.2 2.7 1.5.15 3.675.15 3.675z"/></svg>