<!-- Generated by IcoMoon.io -->
<svg version="1.1" xmlns="http://www.w3.org/2000/svg" width="24" height="24" viewBox="0 0 24 24">
<title>dog-paw</title>
<path d="M19.575 13.5s-3.3-0.45-1.875-3.225c0 0 0.6-1.2 0.825-1.95 0 0 0.3-2.025 1.725-1.725h0.075c0.075-0.45 0.075-0.9-0.225-1.35 0 0 0.075-1.050 0.375-0.525 0 0 0.9 1.35 0.9 2.475 0.375 0.45 0.75 1.050 0.9 2.1 0.15 0.15 0.9 3.975-2.7 4.2zM20.775 18.525s0.375 1.65-1.35 2.925c0 0-1.65 0.975-3.825 1.65l-0.75 0.225c-2.1 0.6-4.050 0.675-4.050 0.675-2.1-0.225-2.7-1.725-2.7-1.725-1.050-1.8 0-2.625 0-2.625 1.35-0.75 1.5-2.25 1.5-2.25-0.825-3.6 2.925-4.050 2.925-4.050l-0.075 0.075s3.375-1.65 4.575 1.8c0 0 0.825 1.2 2.4 1.050 0 0 1.275 0.15 1.35 2.25zM14.325 8.55s-3.075 1.2-3.15-1.875c0 0 0.3-1.725-0.225-2.1 0 0-1.2-2.025 0.675-2.325 0 0 0.15-0.075 0.375-0.075-0.075-0.45-0.15-1.125-0.6-1.425 0 0-0.225-1.050 0.225-0.6 0 0 1.35 1.125 1.65 2.25 0.45 0.225 1.050 0.6 1.575 1.275 0-0.075 2.475 2.85-0.525 4.875zM8.1 10.425c-3.6-0.075-3.075-3.825-3.075-3.825 0.075-0.9 0.375-1.575 0.675-2.025-0.375-1.050 0.075-2.7 0.075-2.7 0.15-0.6 0.525 0.375 0.525 0.375-0.15 0.525 0.075 1.125 0.3 1.5 0.225-0.075 0.375-0.15 0.375-0.15 1.725-0.75 1.8 1.575 1.8 1.575-0.15 0.675 0.975 1.95 0.975 1.95 1.575 2.625-1.65 3.3-1.65 3.3zM6.225 17.55c-3.15 1.725-4.5-1.875-4.5-1.875-0.3-0.675-0.375-1.275-0.375-1.8-0.6-0.975-0.6-2.625-0.6-2.625 0-0.675 0.6 0.225 0.6 0.225 0 0.375 0.15 0.75 0.375 1.050 0.15-0.225 0.3-0.375 0.3-0.375 1.050-1.050 2.325 0.525 2.325 0.525 0.6 0.525 1.725 1.2 1.725 1.2 2.7 1.5 0.15 3.675 0.15 3.675z"></path>
</svg>
