<svg xmlns="http://www.w3.org/2000/svg" width="24" height="24"><path fill="#5c2d91" d="M3.167 7.566v8.749H4.19V9.99a9.013 9.013 0 0 0-.053-1.241l.004.041h.038c.081.21.175.39.285.558l-.007-.011 4.497 6.977h1.257V7.565H9.189v6.153l-.002.199c0 .383.023.761.068 1.132l-.004-.045h-.023a8.881 8.881 0 0 0-.355-.585L4.496 7.566zm9.315 0v8.749h4.65l.005-.96h-3.609v-3.033h3.158v-.921h-3.158V8.493h3.388v-.926zm5.438 0v.926h2.515v7.823h1.022V8.492h2.544v-.926zM.653 15.067a.643.643 0 0 0-.456.206.67.67 0 0 0-.197.475v.014c0 .184.075.351.197.471a.648.648 0 0 0 .47.202h.011-.001.004a.662.662 0 0 0 .476-.201.658.658 0 0 0 .202-.474V15.751a.668.668 0 0 0-.201-.478.656.656 0 0 0-.478-.206H.654h.001z"/></svg>