<!-- Generated by IcoMoon.io -->
<svg version="1.1" xmlns="http://www.w3.org/2000/svg" width="24" height="24" viewBox="0 0 24 24">
<title>download1</title>
<path d="M23.312 11.722c-0.382 0-0.688 0.306-0.688 0.688v6.255c0 1.701-1.385 3.081-3.081 3.081h-15.087c-1.701 0-3.081-1.385-3.081-3.081v-6.357c0-0.382-0.306-0.688-0.688-0.688s-0.688 0.306-0.688 0.688v6.357c0 2.46 2.002 4.457 4.457 4.457h15.087c2.46 0 4.457-2.002 4.457-4.457v-6.255c0-0.377-0.306-0.688-0.688-0.688zM11.516 17.661c0.132 0.132 0.311 0.204 0.484 0.204s0.351-0.066 0.484-0.204l4.37-4.37c0.27-0.27 0.27-0.703 0-0.973s-0.703-0.27-0.973 0l-3.194 3.199v-13.951c0-0.382-0.306-0.688-0.688-0.688s-0.688 0.306-0.688 0.688v13.951l-3.199-3.199c-0.27-0.27-0.703-0.27-0.973 0s-0.27 0.703 0 0.973z"></path>
</svg>
