<!-- Generated by IcoMoon.io -->
<svg version="1.1" xmlns="http://www.w3.org/2000/svg" width="24" height="24" viewBox="0 0 24 24">
<title>download-box</title>
<path d="M7.937 9.861c-0.266 0.266-0.266 0.691 0 0.957l3.587 3.587c0.13 0.13 0.306 0.2 0.476 0.2s0.346-0.065 0.476-0.2l3.587-3.587c0.266-0.266 0.266-0.691 0-0.957s-0.691-0.266-0.957 0l-2.43 2.43v-11.614c0-0.376-0.301-0.676-0.676-0.676s-0.676 0.301-0.676 0.676v11.614l-2.43-2.43c-0.266-0.266-0.696-0.266-0.957 0zM23.058 15.402l-2.355-8.518c-0.055-0.195-0.19-0.351-0.371-0.436l-0.065-0.030c-0.090-0.040-0.185-0.060-0.281-0.060h-4.244c-0.376 0-0.676 0.301-0.676 0.676s0.301 0.676 0.676 0.676h3.788l1.989 7.205h-5.261c-0.376 0-0.676 0.301-0.676 0.676v0.611c0 0.897-0.727 1.623-1.623 1.623h-4.129c-0.897 0-1.623-0.727-1.623-1.623v-0.611c0-0.376-0.301-0.676-0.676-0.676h-5.056l1.999-7.22h3.788c0.376 0 0.676-0.301 0.676-0.676s-0.301-0.676-0.676-0.676h-4.249c-0.095 0-0.19 0.020-0.281 0.060l-0.065 0.030c-0.18 0.085-0.321 0.24-0.371 0.436l-2.355 8.518c-0.015 0.060-0.025 0.12-0.025 0.18v3.552c0 2.691 2.19 4.88 4.88 4.88h12.406c2.691 0 4.88-2.19 4.88-4.88v-3.537c0-0.065-0.005-0.125-0.025-0.18zM21.73 19.12c0 1.944-1.583 3.527-3.527 3.527h-12.406c-1.944 0-3.527-1.583-3.527-3.527v-2.851h4.595c0.035 1.608 1.358 2.906 2.976 2.906h4.129c1.618 0 2.941-1.298 2.976-2.906h4.795v2.851z"></path>
</svg>
