<!-- Generated by IcoMoon.io -->
<svg version="1.1" xmlns="http://www.w3.org/2000/svg" width="24" height="24" viewBox="0 0 24 24">
<title>download-cloud</title>
<path d="M19.519 5.794c-0.257-1.525-1.012-2.917-2.167-3.973-1.283-1.175-2.951-1.821-4.688-1.821-1.342 0-2.65 0.385-3.771 1.11-0.933 0.602-1.708 1.416-2.255 2.374-0.237-0.044-0.484-0.069-0.73-0.069-2.097 0-3.805 1.708-3.805 3.805 0 0.271 0.030 0.533 0.079 0.79-1.357 0.987-2.181 2.576-2.181 4.269 0 1.367 0.508 2.695 1.436 3.746 0.952 1.076 2.211 1.713 3.553 1.787h4.284c0.37 0 0.666-0.296 0.666-0.666s-0.296-0.666-0.666-0.666h-4.225c-2.019-0.123-3.716-2.043-3.716-4.205 0-1.397 0.75-2.7 1.959-3.405 0.281-0.163 0.4-0.503 0.291-0.809-0.099-0.267-0.148-0.548-0.148-0.849 0-1.362 1.11-2.473 2.473-2.473 0.291 0 0.577 0.049 0.844 0.148 0.326 0.118 0.686-0.030 0.834-0.341 0.923-1.959 2.917-3.223 5.083-3.223 2.912 0 5.315 2.181 5.592 5.073 0.030 0.301 0.257 0.543 0.553 0.592 2.196 0.375 3.854 2.403 3.854 4.718 0 2.453-1.93 4.585-4.308 4.767h-3.637c-0.37 0-0.666 0.296-0.666 0.666s0.296 0.666 0.666 0.666h3.711c1.505-0.109 2.912-0.8 3.958-1.954 1.041-1.145 1.609-2.616 1.609-4.146-0.005-2.769-1.895-5.231-4.481-5.912zM8.002 19.331c-0.262 0.262-0.262 0.681 0 0.943l3.529 3.529c0.123 0.123 0.296 0.197 0.469 0.197s0.345-0.069 0.469-0.197l3.529-3.529c0.262-0.262 0.262-0.681 0-0.943-0.128-0.128-0.301-0.197-0.469-0.197s-0.341 0.064-0.469 0.197l-2.394 2.394v-11.001c0-0.37-0.296-0.666-0.666-0.666s-0.666 0.296-0.666 0.666v11.001l-2.394-2.394c-0.257-0.262-0.676-0.262-0.938 0z"></path>
</svg>
