<svg xmlns="http://www.w3.org/2000/svg" width="24" height="24"><path d="M7.937 9.861a.674.674 0 0 0 0 .957l3.587 3.587c.13.13.306.2.476.2s.346-.065.476-.2l3.587-3.587c.266-.266.266-.691 0-.957s-.691-.266-.957 0l-2.43 2.43V.677c0-.376-.301-.676-.676-.676s-.676.301-.676.676v11.614l-2.43-2.43a.674.674 0 0 0-.957 0zm15.121 5.541l-2.355-8.518a.685.685 0 0 0-.371-.436l-.065-.03a.69.69 0 0 0-.281-.06h-4.244c-.376 0-.676.301-.676.676s.301.676.676.676h3.788l1.989 7.205h-5.261a.673.673 0 0 0-.676.676v.611c0 .897-.727 1.623-1.623 1.623H9.83a1.623 1.623 0 0 1-1.623-1.623v-.611a.673.673 0 0 0-.676-.676H2.475l1.999-7.22h3.788c.376 0 .676-.301.676-.676s-.301-.676-.676-.676H4.013c-.095 0-.19.02-.281.06l-.065.03a.671.671 0 0 0-.371.436L.941 15.387a.744.744 0 0 0-.025.18v3.552c0 2.691 2.19 4.88 4.88 4.88h12.406c2.691 0 4.88-2.19 4.88-4.88v-3.537a.523.523 0 0 0-.025-.18zM21.73 19.12a3.532 3.532 0 0 1-3.527 3.527H5.797A3.532 3.532 0 0 1 2.27 19.12v-2.851h4.595a2.979 2.979 0 0 0 2.976 2.906h4.129a2.979 2.979 0 0 0 2.976-2.906h4.795v2.851z"/></svg>