<svg xmlns="http://www.w3.org/2000/svg" width="24" height="24"><path d="M23.312 11.722a.685.685 0 0 0-.688.688v6.255a3.085 3.085 0 0 1-3.081 3.081H4.456a3.085 3.085 0 0 1-3.081-3.081v-6.357c0-.382-.306-.688-.688-.688s-.688.306-.688.688v6.357a4.462 4.462 0 0 0 4.457 4.457h15.087A4.462 4.462 0 0 0 24 18.665V12.41a.689.689 0 0 0-.688-.688zm-11.796 5.939c.132.132.311.204.484.204s.351-.066.484-.204l4.37-4.37c.27-.27.27-.703 0-.973s-.703-.27-.973 0l-3.194 3.199V1.566c0-.382-.306-.688-.688-.688s-.688.306-.688.688v13.951l-3.199-3.199c-.27-.27-.703-.27-.973 0s-.27.703 0 .973z"/></svg>