<svg xmlns="http://www.w3.org/2000/svg" width="24" height="24"><path d="M13.668 11.268V5.7s.108-1.14-1.248-1.14c-1.344 0-1.032.06-1.032.06v7.788h1.14c.012 0 1.14.144 1.14-1.14zm10.32-3.516v-2.7c-1.176-.888-2.976-1.572-2.976-1.572v2.004c.216.072 1.188.648 1.188.648s.06.768-.108 3.564c-.168 2.796-3.24 5.136-3.24 5.136L13.02 19.32v-.216s.792-.54 4.104-3.564S20.316 9 20.316 9V1.812S17.82.24 12 .24 3.732 1.812 3.732 1.812V9c0 3.816 3.084 6.492 3.084 6.492l4.104 3.672v.168s-3.012-2.184-6-4.596-2.928-4.5-3.024-5.196c-.096-.696-.108-3.456-.108-3.456l1.188-.6V3.48C1.26 4.068 0 5.112 0 5.112s.012 1.764.06 3.564c.036 1.812.756 3.3.756 3.3 1.272 2.22 3.408 3.576 3.408 3.576l6.48 4.536S8.76 21.6 8.268 22.092s-.432.816-.432.816v.864h8.316v-.756c0-.54-.54-1.032-.54-1.032l-1.728-1.404-3.888 1.836-.108-.06s5.88-3.996 6.588-4.488 4.404-2.856 6.048-4.812 1.464-5.304 1.464-5.304zM7.62 14.676l.972-1.032V3.756l-.972-1.08h5.244c3.72 0 3.672 2.976 3.672 2.976v5.304c0 4.104-3.732 3.732-3.732 3.732H7.62z"/></svg>