<!-- Generated by IcoMoon.io -->
<svg version="1.1" xmlns="http://www.w3.org/2000/svg" width="24" height="24" viewBox="0 0 24 24">
<title>dream11</title>
<path d="M13.668 11.268v-5.568s0.108-1.14-1.248-1.14c-1.344 0-1.032 0.060-1.032 0.060v7.788h1.14c0.012 0 1.14 0.144 1.14-1.14zM23.988 7.752v-2.7c-1.176-0.888-2.976-1.572-2.976-1.572v2.004c0.216 0.072 1.188 0.648 1.188 0.648s0.060 0.768-0.108 3.564c-0.168 2.796-3.24 5.136-3.24 5.136l-5.832 4.488v-0.216s0.792-0.54 4.104-3.564 3.192-6.54 3.192-6.54v-7.188s-2.496-1.572-8.316-1.572-8.268 1.572-8.268 1.572v7.188c0 3.816 3.084 6.492 3.084 6.492l4.104 3.672v0.168s-3.012-2.184-6-4.596-2.928-4.5-3.024-5.196c-0.096-0.696-0.108-3.456-0.108-3.456l1.188-0.6v-2.004c-1.716 0.588-2.976 1.632-2.976 1.632s0.012 1.764 0.060 3.564c0.036 1.812 0.756 3.3 0.756 3.3 1.272 2.22 3.408 3.576 3.408 3.576l6.48 4.536s-1.944 1.512-2.436 2.004-0.432 0.816-0.432 0.816v0.864h8.316v-0.756c0-0.54-0.54-1.032-0.54-1.032l-1.728-1.404-3.888 1.836-0.108-0.060s5.88-3.996 6.588-4.488 4.404-2.856 6.048-4.812 1.464-5.304 1.464-5.304zM7.62 14.676l0.972-1.032v-9.888l-0.972-1.080h5.244c3.72 0 3.672 2.976 3.672 2.976v5.304c0 4.104-3.732 3.732-3.732 3.732h-5.184z"></path>
</svg>
