<svg xmlns="http://www.w3.org/2000/svg" width="24" height="24"><path fill="#58cc02" d="M7.2 2.869a2.459 2.459 0 0 0-2.45 2.455v3.117l-3.674-.913a.837.837 0 0 0-.212-.027l-.031.001h.001A.865.865 0 0 0 0 8.365l.002.058V8.42a6.584 6.584 0 0 0 4.84 5.859l.046.011c.675 3.366 3.598 5.87 7.11 5.889H12a7.288 7.288 0 0 0 7.098-5.841l.008-.047c2.689-.72 4.675-3.037 4.891-5.849l.001-.022a.863.863 0 0 0-.829-.92h-.031a.855.855 0 0 0-.222.029l.006-.001-3.673.913V5.324a2.459 2.459 0 0 0-2.45-2.455 2.829 2.829 0 0 0-.979.199l.019-.007c-1.87.797-3.114 1.188-3.831 1.2-.717-.012-1.962-.403-3.832-1.2a2.804 2.804 0 0 0-.973-.192H7.2zm8.135 1.408l.018-.001.019.001h-.001c.065.008.127.05.176.127.02.036.044.083.065.131l.005.012a.797.797 0 0 1 .032.075l.005.013c.008.017.02.048.031.078l.004.014c.007.017.016.049.026.08l.003.014a1.1 1.1 0 0 1 .022.08l.003.013c.005.019.011.051.017.084l.002.012.014.087.001.01c.003.022.007.054.009.086V5.2l.005.1v.002a1.839 1.839 0 0 1 0 .16v-.004h.007l.473-.526.01-.01.01-.009.011-.01h.001l.007-.006.011-.007.001-.001.008-.005.001-.001.01-.005.001-.001.009-.004.001-.001a.08.08 0 0 1 .009-.004l.002-.001.011-.004.002-.001.008-.003h.002l.011-.004h.002l.011-.003h.002a.058.058 0 0 0 .01-.002h.001l.015-.002h.035l.018.002h-.001.01a.263.263 0 0 1 .013.003h-.002l.015.003h-.002l.015.005-.002-.001.012.003h-.002a.067.067 0 0 1 .012.006l-.001-.001.014.007-.001-.001h.001a.01.01 0 0 1 .005.003l-.001-.001a.126.126 0 0 1 .017.011l-.001-.001.009.005-.001-.001.013.009-.001-.001.01.01.008.005h-.001l.011.011.007.008.006.007.009.013.001.001.002.004.001.001.009.016.001.001c.016.029.036.068.055.109l.005.012.035.075.005.013.031.08.004.014c.006.015.017.045.026.074l.004.014a.873.873 0 0 1 .022.084l.003.013.019.081.002.013.015.088.001.01c.006.034.011.079.015.125l.001.007c.078.044.14.083.201.125l-.009-.006c.046.031.081.057.117.084l-.007-.005c.044.032.08.059.115.087l-.005-.004c.037.031.07.06.102.09l-.002-.002c.036.032.069.063.101.095l.09.095.002.003c.028.031.058.064.086.099l.004.004c.024.029.051.064.077.1l.005.008c.022.029.049.066.074.103l.006.009c.018.026.041.063.063.101l.007.013c.017.027.039.066.061.106l.007.014c.014.024.033.065.052.105l.007.017c.012.024.03.064.047.105l.007.018c.011.025.027.068.042.112l.006.019.037.107.005.019c.008.026.02.071.03.117l.004.018c.007.024.018.068.027.112l.003.018c.006.029.013.075.019.122l.001.013c.005.031.011.078.015.125l.001.011a3 3 0 0 1 .011.224v1.759c0 .084-.004.166-.012.248l.001-.011a2.744 2.744 0 0 1-.019.147l.002-.015a2.45 2.45 0 0 1-.022.151l.002-.016c-.012.064-.023.109-.034.155l.004-.019a1.97 1.97 0 0 1-.038.146l.005-.019a2.548 2.548 0 0 1-.05.153l.006-.019a2.44 2.44 0 0 1-.051.141l.006-.018c-.025.06-.044.101-.064.142l.007-.016c-.025.057-.045.096-.065.135l.007-.015a2.359 2.359 0 0 1-.075.13l.007-.012a2.506 2.506 0 0 1-.076.127l.006-.011a2.635 2.635 0 0 1-.083.116l.005-.007c-.032.044-.06.08-.088.115l.004-.005a2.506 2.506 0 0 1-.092.104l.002-.002a2.19 2.19 0 0 1-.091.098l.001-.001a1.794 1.794 0 0 1-.101.093l-.003.003-.094.084-.004.003a4.07 4.07 0 0 1-.099.076l-.008.005a1.93 1.93 0 0 1-.104.075l-.009.006a1.588 1.588 0 0 1-.101.063l-.013.007a2.302 2.302 0 0 1-.106.061l-.014.007a1.419 1.419 0 0 1-.102.05l-.017.007a1.783 1.783 0 0 1-.109.051l-.018.007c-.022.01-.063.025-.104.039l-.019.006c-.025.01-.069.025-.114.039l-.019.005a1.517 1.517 0 0 1-.114.029l-.018.004a1.586 1.586 0 0 1-.112.027l-.018.003a2.165 2.165 0 0 1-.127.019l-.013.001a1.995 1.995 0 0 1-.117.016l-.012.001a2.468 2.468 0 0 1-.237.011h-.21c-.086 0-.171-.005-.255-.013l.011.001a2.842 2.842 0 0 1-.149-.019l.015.002a2.525 2.525 0 0 1-.15-.022l.017.002a2.52 2.52 0 0 1-.155-.036l.019.004a2.747 2.747 0 0 1-.146-.037l.019.005a3.128 3.128 0 0 1-.15-.051l.019.006a2.553 2.553 0 0 1-.144-.052l.018.006a2.406 2.406 0 0 1-.14-.063l.016.007a2.249 2.249 0 0 1-.136-.066l.015.007a2.359 2.359 0 0 1-.13-.075l.012.007a2.383 2.383 0 0 1-.126-.077l.01.006a3.455 3.455 0 0 1-.113-.083l.006.005a3.087 3.087 0 0 1-.115-.087l.005.004a2.506 2.506 0 0 1-.104-.092l.002.002c-.035-.031-.067-.062-.098-.092a2.133 2.133 0 0 1-.091-.099l-.003-.003a2.756 2.756 0 0 1-.085-.096l-.003-.004a2.052 2.052 0 0 1-.075-.101l-.006-.008a3.038 3.038 0 0 1-.074-.101l-.006-.009a1.963 1.963 0 0 1-.061-.102l-.007-.013c-.003-.003-.012-.019-.021-.035l-.007-.013v.98a1.797 1.797 0 0 1-.004.077v-.004l-.004.055v-.005l-.009.06.001-.006v.002a1.963 1.963 0 0 1-.01.049l.001-.007c-.006.028-.012.049-.018.07l.002-.007a.464.464 0 0 1-.012.041l.002-.007c-.01.029-.018.051-.027.072l.003-.007a.334.334 0 0 1-.015.038l.003-.007a.801.801 0 0 1-.036.072l.003-.005-.021.039.003-.005-.027.044.002-.004-.034.05.002-.003a.777.777 0 0 1-.03.039l.002-.002-.035.043.001-.001-.035.038a1.172 1.172 0 0 1-.036.035l-.001.001-.038.033-.002.001-.036.029-.002.002-.041.03-.003.002a.483.483 0 0 1-.037.024l-.004.003a.613.613 0 0 1-.041.023l-.005.003a.33.33 0 0 1-.039.021l-.006.003-.04.018-.007.002-.043.018-.007.002-.04.014-.007.002a.505.505 0 0 1-.042.012l-.007.002-.045.011-.007.001c-.01.002-.027.006-.044.008l-.006.001a1.04 1.04 0 0 1-.048.006h-.004l-.046.004h-.058.001-.053.001l-.055-.004h.005a.741.741 0 0 1-.057-.007l.006.001a1.086 1.086 0 0 1-.059-.011l.007.001c-.024-.005-.04-.008-.057-.013l.007.002a.965.965 0 0 1-.057-.016l.007.002-.054-.018.007.002c-.024-.009-.04-.015-.057-.023l.007.003-.052-.023.006.003a.574.574 0 0 1-.051-.027l.005.003-.051-.029.005.003-.043-.029.003.002c-.019-.012-.033-.023-.048-.034l.003.002a2.37 2.37 0 0 1-.039-.032l.001.001a.746.746 0 0 1-.041-.035l.001.001-.036-.036-.034-.037-.001-.001a.704.704 0 0 1-.033-.04l-.002-.002a1.45 1.45 0 0 1-.026-.034l-.002-.003-.03-.043-.002-.004a.163.163 0 0 1-.015-.025l-.003-.005a.853.853 0 0 1-.043-.081l-.003-.006c.002.004.001.002 0 0l-.003-.006a1.075 1.075 0 0 1-.032-.077l-.002-.007-.003-.008-.002-.007a.679.679 0 0 1-.02-.066l-.002-.007a.917.917 0 0 1-.007-.025l-.001-.007a.782.782 0 0 1-.01-.054l-.001-.006-.006-.037-.001-.006-.003-.031v-.003a.22.22 0 0 0-.002-.016v-.006a.703.703 0 0 1-.003-.067v-.98l-.033.059.007-.013a2.506 2.506 0 0 1-.076.127l.006-.011c-.03.045-.056.079-.082.114l.005-.007c-.032.046-.06.083-.088.119l.004-.006a5.524 5.524 0 0 1-.087.099l.002-.002a2.559 2.559 0 0 1-.096.105l.001-.001c-.031.03-.064.06-.097.089l-.003.003a4.166 4.166 0 0 1-.096.087l-.004.003-.102.078-.008.005a2.157 2.157 0 0 1-.099.073l-.009.006a1.936 1.936 0 0 1-.101.063l-.013.007c-.027.017-.066.04-.106.062l-.014.007a1.662 1.662 0 0 1-.103.051l-.017.007c-.024.013-.065.031-.106.049l-.018.007-.11.041-.019.006c-.023.01-.066.025-.109.039l-.019.005a2.003 2.003 0 0 1-.109.028l-.018.004a1.931 1.931 0 0 1-.119.029l-.018.003a1.264 1.264 0 0 1-.116.018l-.014.002a2.486 2.486 0 0 1-.126.016l-.011.001a2.605 2.605 0 0 1-.244.012h-.211a2.877 2.877 0 0 1-.248-.013l.011.001a2.87 2.87 0 0 1-.145-.018l.015.002a2.798 2.798 0 0 1-.156-.022l.016.002a3.572 3.572 0 0 1-.147-.034l.019.004a2.232 2.232 0 0 1-.152-.038l.019.005a2.431 2.431 0 0 1-.151-.05l.019.006a2.44 2.44 0 0 1-.141-.051l.018.006c-.06-.025-.102-.045-.144-.065l.016.007a2.311 2.311 0 0 1-.135-.064l.015.007a2.31 2.31 0 0 1-.13-.076l.012.007a3.175 3.175 0 0 1-.123-.075l.01.006a3.153 3.153 0 0 1-.12-.085l.007.005a2.595 2.595 0 0 1-.111-.086l.005.004a2.363 2.363 0 0 1-.101-.089l.002.002a2.467 2.467 0 0 1-.103-.096c-.03-.03-.059-.062-.088-.094l-.002-.003a2.874 2.874 0 0 1-.087-.098l-.003-.004a4.255 4.255 0 0 1-.079-.102l-.005-.008a2.254 2.254 0 0 1-.072-.1l-.006-.009a2.026 2.026 0 0 1-.064-.103l-.007-.013c-.017-.026-.039-.065-.061-.104l-.007-.014a1.662 1.662 0 0 1-.051-.103l-.007-.017a1.37 1.37 0 0 1-.049-.108l-.007-.018a1.278 1.278 0 0 1-.039-.105l-.006-.019a1.682 1.682 0 0 1-.04-.114l-.005-.019a2.003 2.003 0 0 1-.028-.109l-.004-.018a1.418 1.418 0 0 1-.027-.119l-.003-.017a1.814 1.814 0 0 1-.019-.122l-.001-.013a2.288 2.288 0 0 1-.016-.12l-.001-.012a2.82 2.82 0 0 1-.012-.237V8.17c.001-.081.005-.16.013-.238l-.001.011a2.22 2.22 0 0 1 .018-.15l-.002.015c.007-.059.014-.104.022-.149l-.003.017c.012-.064.023-.109.034-.155l-.004.019c.015-.063.027-.106.04-.149l-.005.019c.018-.063.033-.106.048-.148l-.006.019c.021-.062.037-.104.054-.146l-.007.018a1.97 1.97 0 0 1 .063-.142l-.007.016c.025-.056.045-.095.065-.134l-.007.015c.029-.055.053-.095.077-.135l-.007.012a3.84 3.84 0 0 1 .075-.121l-.006.01c.032-.047.058-.084.086-.121l-.005.007c.031-.043.057-.078.084-.111l-.004.005c.032-.038.062-.072.093-.105l-.002.002c.032-.036.062-.069.093-.101.03-.03.062-.059.094-.088l.003-.002c.032-.03.066-.06.102-.09l.004-.003a2.62 2.62 0 0 1 .097-.075l.007-.005c.029-.022.066-.048.104-.074l.01-.006c.052-.036.114-.075.179-.112l.013-.007c.005-.053.01-.099.017-.144l-.001.011.017-.106-.002.012.024-.109-.003.013c.011-.045.019-.076.029-.107l-.004.014c.013-.045.023-.077.034-.108l-.004.014c.015-.044.027-.074.039-.104l-.005.013.045-.101-.005.012a1.54 1.54 0 0 1 .063-.128l-.005.01.011-.019-.001.001.004-.005a.488.488 0 0 0 .01-.013.043.043 0 0 1 .006-.007l.007-.008.01-.011.007-.006.01-.009h.001l.011-.007.001-.001.007-.004.001-.001a.053.053 0 0 1 .015-.008l.001-.001a.017.017 0 0 0 .005-.002l.001-.001.011-.005.002-.001a.08.08 0 0 1 .009-.004l.002-.001.008-.003h.002l.011-.004h.002l.011-.003h.002a.058.058 0 0 0 .01-.002h.001l.009-.001h.001l.016-.002h.033l.018.003h-.002l.012.002h-.002l.016.003H7.6l.014.005-.002-.001a.263.263 0 0 1 .013.003h-.002l.015.006-.002-.001a.054.054 0 0 1 .011.006l-.001-.001a.054.054 0 0 1 .011.006l-.001-.001.013.007-.001-.001.01.007-.001-.001.013.009-.001-.001.008.005h-.001l.012.01.01.01.01.01v-.005l.471.523h.01a2.428 2.428 0 0 1-.001-.158V5.3c.001-.039.003-.075.007-.11l-.001.007a2.13 2.13 0 0 1 .01-.103l-.001.01a2.62 2.62 0 0 1 .017-.109l-.002.012c.008-.045.015-.077.023-.108l-.003.013c.01-.045.018-.077.027-.108l-.003.014c.013-.045.023-.077.034-.108l-.004.014c.015-.044.026-.075.039-.105l-.005.013c.016-.042.028-.071.041-.099l-.005.012c.027-.06.05-.107.075-.152l-.005.01c.085-.135.214-.163.32-.083.015.011.03.025.044.04l1.78 1.94v-.002l.09.088.002.001.068.062.003.002c.021.018.046.037.071.056l.005.004.072.053.006.004.071.045.009.005c.019.013.047.029.075.045l.009.005c.017.01.045.024.074.038l.011.005.075.035.012.005c.017.008.048.02.079.032l.013.004a.766.766 0 0 0 .075.026l.014.004.082.023.013.003.078.02.013.002.087.015.01.001c.021.004.053.008.085.012l.009.001c.026.002.059.005.092.006h.004c.028.002.062.003.095.003h.001c.035 0 .069-.001.102-.003h-.005c.037-.001.07-.004.103-.007l-.007.001c.041-.005.073-.009.105-.015l-.011.002c.044-.006.077-.012.109-.018l-.012.002c.043-.009.074-.017.104-.025l-.014.003c.046-.01.078-.019.11-.028l-.014.003a2.25 2.25 0 0 0 .102-.035l-.013.004c.044-.016.075-.028.105-.041l-.013.005c.041-.018.07-.031.098-.045l-.011.005c.04-.019.068-.033.095-.048l-.01.005c.037-.021.065-.037.092-.055l-.008.005a2.58 2.58 0 0 0 .087-.054l-.007.004a1.35 1.35 0 0 0 .082-.061l-.004.003c.03-.022.054-.042.078-.062l-.003.003.073-.065-.001.001c.033-.029.062-.058.091-.088l1.78-1.94a.262.262 0 0 1 .043-.039l.001-.001a.212.212 0 0 1 .107-.043h.001zm.02.168c-.813.742-1.419 1.714-2.325 2.358-.932.557-2.21.194-2.823-.67-.512-.56-1.007-1.17-1.563-1.667-.324.258-.164.745-.332 1.078-.208.206-.42-.181-.526-.316-.084-.17-.317-.283-.386-.048-.163.278-.04.74-.416.857-.919.59-1.277 1.757-1.149 2.792-.03.982-.066 2.116.698 2.859 1.106 1.18 3.29 1.048 4.174-.32.058-.14.145-.301.261-.42v-.426l-.35-.059a.052.052 0 0 1-.042-.051v-.007a1.449 1.449 0 0 1 1.418-1.194H12c.71 0 1.3.511 1.423 1.185l.001.009v.007a.052.052 0 0 1-.043.051l-.35.06v.381l.007.001c.584 1.534 2.728 2.067 4.017 1.128a2.696 2.696 0 0 0 1.105-2.549l.001.014c.014-1.033.13-2.231-.653-3.042-.216-.27-.604-.399-.762-.697-.055-.25-.041-.588-.286-.736-.31.129-.381.556-.728.634-.2-.38-.055-.897-.377-1.212zM8.422 6.468a1.996 1.996 0 0 1 1.994 1.995v1.2a1.992 1.992 0 0 1-.25.923l.005-.01a9.578 9.578 0 0 0-.63-.264l-.185-.064.034-.036.001-.001a.259.259 0 0 0 .015-.017l.001-.001a.654.654 0 0 0 .046-.056l.002-.002.01-.014.002-.003.038-.056.002-.004.011-.016.002-.004a.907.907 0 0 0 .03-.056l.002-.006.009-.016.002-.006.022-.053.002-.007a.472.472 0 0 0 .01-.024l.002-.007a.919.919 0 0 0 .015-.051l.002-.007.008-.026.001-.007a.647.647 0 0 0 .009-.049l.001-.005a.52.52 0 0 0 .006-.038l.001-.005a.853.853 0 0 0 .007-.08V8.56c0-.029-.002-.056-.004-.084v.004c-.002-.02-.003-.036-.006-.052l.001.005-.008-.053.001.006-.011-.054.001.007a.527.527 0 0 0-.014-.052l.002.007a.847.847 0 0 0-.018-.054l.002.007a1.084 1.084 0 0 0-.017-.048l.002.006-.022-.053.002.006-.023-.045.002.005-.027-.046.002.004a1.053 1.053 0 0 0-.026-.044l.002.004-.029-.038.002.002-.031-.041.001.002-.031-.035.001.001a.588.588 0 0 0-.033-.036l-.034-.031-.001-.001-.034-.03-.001-.001a1.513 1.513 0 0 0-.035-.027l-.003-.002-.036-.026-.003-.002-.036-.023-.004-.002-.035-.021-.005-.002-.037-.018-.006-.002-.04-.018-.006-.002-.036-.015-.007-.002a.499.499 0 0 0-.036-.012l-.007-.002a.845.845 0 0 0-.043-.011l-.006-.001-.04-.009-.006-.001a.448.448 0 0 0-.04-.007l-.005-.001a.803.803 0 0 0-.044-.006H8.78a.95.95 0 0 0-.08-.004 1.22 1.22 0 0 0-.064.004h.004c-.021.002-.038.003-.055.006l.005-.001-.049.008.006-.001a.983.983 0 0 0-.057.011l.006-.001a.527.527 0 0 0-.052.014l.007-.002-.054.016.007-.002-.052.02.006-.002c-.025.009-.043.017-.061.025l.006-.002a.755.755 0 0 1 .04.04l.021.023.001.001.016.019.001.001.017.023.001.002.016.023.001.003a.302.302 0 0 1 .011.02l.002.003.014.025.002.003.01.022.001.004.012.026.001.004.007.021.001.004.009.027.001.004a.26.26 0 0 1 .006.026l.001.004a.122.122 0 0 1 .005.025l.001.004.004.035v.002l.002.019v.045-.001.021-.001l-.002.032v-.002l-.003.034v-.003l-.005.028.001-.004-.008.038.001-.004-.009.032.001-.004-.011.034.001-.004a.295.295 0 0 1-.014.034l.002-.004-.012.028.002-.004-.018.033.002-.003-.015.027.002-.003-.021.032.001-.002a.75.75 0 0 1-.013.02l.001-.002a.478.478 0 0 1-.027.033l.001-.001-.013.016v-.001l-.02.02-.024.024-.018.014-.002.001-.024.02-.001.001a1.02 1.02 0 0 1-.025.017l-.002.001-.021.014-.003.002a.092.092 0 0 1-.02.01l-.003.002-.027.014-.003.002-.03.012-.004.001-.016.007-.004.001a.294.294 0 0 1-.034.01l-.004.001a.166.166 0 0 1-.016.005l-.004.001a.434.434 0 0 1-.031.006h-.003l-.022.004-.004.001-.039.003h-.001l-.016.002h-.038.001-.029.001l-.035-.006.004.001a1.373 1.373 0 0 1-.029-.003h.003a.615.615 0 0 1-.06-.013l.004.001v.859l.004.052v-.004a.616.616 0 0 0 .008.067l-.001-.005a12.861 12.861 0 0 0-1.239-.315l-.098-.017v-.918c0-1.097.89-1.987 1.987-1.987h.007zm7.156 0h.001c1.102 0 1.995.893 1.995 1.995v.909c-.425.085-.87.195-1.336.333.003-.017.005-.04.007-.063v-.003l.004-.043V8.56c0-.029-.002-.057-.004-.085v.004a.526.526 0 0 0-.007-.051l.001.005-.008-.053.001.006-.011-.053.001.007a.617.617 0 0 0-.014-.055l.002.007-.016-.048.002.007a1.21 1.21 0 0 0-.02-.054l.002.006-.021-.049.002.006c-.009-.02-.015-.034-.023-.047l.002.005a1.053 1.053 0 0 0-.026-.044l.002.004-.027-.046.002.004a.552.552 0 0 0-.03-.041l.002.002-.029-.038.001.002A.644.644 0 0 0 16 7.923l.001.001-.032-.035a.53.53 0 0 0-.035-.032l-.001-.001-.032-.029-.001-.001a.594.594 0 0 0-.037-.028l-.003-.002a.386.386 0 0 0-.034-.024l-.003-.002-.038-.024-.004-.002-.035-.021-.005-.002-.036-.018-.006-.002-.04-.018-.006-.002-.033-.014-.007-.002c-.009-.003-.025-.009-.041-.013l-.007-.002a.633.633 0 0 0-.04-.011l-.006-.001c-.009-.003-.025-.006-.041-.009l-.006-.001-.042-.007h-.005a.651.651 0 0 0-.041-.006h-.004a.975.975 0 0 0-.081-.004 1.042 1.042 0 0 0-.061.004h.004l-.049.004h.004l-.058.009.006-.001-.05.009.006-.001a.556.556 0 0 0-.053.014l.007-.002-.054.016.007-.002-.049.018.006-.002-.051.02.006-.002a.56.56 0 0 0-.05.026l.005-.003a.513.513 0 0 0-.053.027l.005-.003a.534.534 0 0 1 .039.044l.001.001c.011.014.021.03.031.047l.002.003a.534.534 0 0 1 .028.049l.002.003a.908.908 0 0 1 .023.051l.001.004a.37.37 0 0 1 .017.053l.001.004a.2.2 0 0 1 .004.021l.001.004.006.03.001.004a.362.362 0 0 1 .005.04v.002l.002.014v.004l.001.03-.001.031V8.18a1.152 1.152 0 0 1-.005.063V8.24l-.005.026.001-.004-.008.04.001-.004a.79.79 0 0 1-.018.061l.001-.004v.001a.476.476 0 0 1-.025.059l.002-.004a.486.486 0 0 1-.03.056l.002-.003a.95.95 0 0 1-.034.052l.001-.002a.625.625 0 0 1-.039.046.782.782 0 0 1-.086.079l-.002.001a.64.64 0 0 1-.047.031l-.003.002h-.001a.554.554 0 0 1-.049.025l-.004.002a.518.518 0 0 1-.051.022l-.004.001a.454.454 0 0 1-.054.015l-.004.001a.357.357 0 0 1-.029.006h-.003a.535.535 0 0 1-.086.01h-.001l-.03.001-.031-.001h.001v.838a.84.84 0 0 0 .008.089l-.001-.005.008.048-.001-.006.011.06-.001-.006.012.039-.002-.007c.006.027.012.047.018.067l-.002-.007.013.035-.002-.006.027.066-.002-.006.012.028-.002-.006a.79.79 0 0 0 .036.067l-.002-.004.013.022-.002-.004c.015.025.029.046.043.066l-.002-.003.011.013-.001-.001a.902.902 0 0 0 .053.064l-.001-.001.008.008a.645.645 0 0 0 .043.046 24.9 24.9 0 0 0-.815.33 1.972 1.972 0 0 1-.247-.914V8.454c0-1.097.889-1.986 1.986-1.986h.007zM12.035 9.32c-.038 0-.077 0-.115.003a1.352 1.352 0 0 0-1.222 1.033l-.002.009 1.301.198.688-.108.603-.138c-.13-.565-.68-.983-1.253-.997zm.86 1.184c-.084-.005-.009.142-.024.214.01.453.025.912-.024 1.362-.143.554-.892.836-1.35.477-.337-.235-.425-.684-.371-1.068-.001-.32-.02-.641.014-.96-.161-.086-.06.106-.086.194.01.609-.049 1.226.045 1.829.186.598 1.027.855 1.5.43.31-.25.399-.685.35-1.067-.004-.466.012-.933-.009-1.399a.15.15 0 0 0-.044-.012h-.001zm-.144.046a.366.366 0 0 0-.069.014l.003-.001c-.026.01-.063.022-.101.033l-.011.003-.03.008a.868.868 0 0 1-.077.019l-.008.001-.028.006c-.08.016-.173.027-.267.03h-.003l-.035.002-.074.001-.078-.001h.004-.016a2.525 2.525 0 0 1-.183-.014l.012.001c-.006 0-.012 0-.017-.002a5.635 5.635 0 0 1-.314-.043l.035.005-.072-.01-.182-.033a.706.706 0 0 0-.035.221v1.089c.005.415.358.751.795.755.439 0 .794-.338.794-.754v-1.09a.71.71 0 0 0-.045-.245l.002.005zm.04 1.367l-.006.04.001-.005.005-.031v-.004zm-.013.082l-.008.036.001-.006.006-.025.001-.005zm-.02.075l-.012.036.002-.006.008-.024.002-.006zm-.028.079l-.012.027.002-.005a.352.352 0 0 0 .008-.017l.002-.005zm-.035.071l-.014.023.002-.003.01-.016.002-.004zm-.044.07l-.012.016.002-.002.008-.011.002-.003zm-.05.064l-.01.01.01-.01zm-.053.056l-.006.006.006-.006zm-3.066 2.62h1.843a.14.14 0 0 1 .134.182v-.001c-.14.42-.573.709-1.056.712h-.028c-.465 0-.863-.293-1.017-.705l-.002-.008a.132.132 0 0 1 .123-.181h.004zm3.203 0h1.836a.14.14 0 0 1 .134.18v-.001c-.14.418-.572.71-1.06.71h-.026c-.464 0-.86-.291-1.015-.701l-.002-.007a.144.144 0 0 1 .134-.181zm-1.6 1.548h1.835a.14.14 0 0 1 .133.183v-.001c-.135.423-.568.711-1.056.711h-.027c-.465 0-.862-.293-1.016-.704l-.002-.007a.14.14 0 0 1 .134-.182zM4.45 18.236a.927.927 0 0 0-.659.298l-.001.001v-.002a.941.941 0 0 0 .04 1.325l1.088 1.02a.938.938 0 0 0 1.285-1.367l-1.088-1.019a.927.927 0 0 0-.642-.256h-.025.001zm15.115 0l-.036-.001a.928.928 0 0 0-.642.257l-1.089 1.019a.94.94 0 1 0 1.285 1.367l1.087-1.019a.94.94 0 0 0 .041-1.326l.001.001a.93.93 0 0 0-.645-.299h-.002z"/></svg>