<svg xmlns="http://www.w3.org/2000/svg" width="24" height="24"><path fill="#005571" d="M22.62 19.46c-2.207 2.739-5.56 4.478-9.32 4.48a11.926 11.926 0 0 1-9.302-4.457l-.018-.023C6.188 16.731 9.538 15 13.291 15h.009c3.76 0 7.14 1.76 9.32 4.46zM10.32 12c0-1.52 1.25-2.99 2.62-2.99h.42c3.91 0 7.1-1.76 9.29-4.48C20.428 1.794 17.068.058 13.301.05H13.3a11.926 11.926 0 0 0-9.302 4.457l-.018.023a11.757 11.757 0 0 0-2.63 7.437v.035V12c0 1.94.45 3.76 1.29 5.38a14.29 14.29 0 0 1 7.758-4.434l.092-.016c-.09-.3-.18-.63-.17-.93z"/></svg>