<svg xmlns="http://www.w3.org/2000/svg" width="24" height="24"><path fill="#005571" d="M11.27 15.58H1.61a11.552 11.552 0 0 1-.54-3.531v-.052V12c0-1.25.18-2.45.54-3.58h15.87a3.57 3.57 0 0 1 3.57 3.57v.011V12v.02a3.56 3.56 0 0 1-3.55 3.56h-.001zm-.45 1.2H2.05a11.884 11.884 0 0 0 4.345 5.152l.045.028a11.698 11.698 0 0 0 6.528 1.97h.034H13c4.15 0 7.78-2.12 9.93-5.3a6.065 6.065 0 0 0-4.349-1.86h-.001zm7.76-9.55c1.7 0 3.25-.72 4.35-1.85C20.752 2.167 17.119.084 12.998.084 8.135.084 3.949 2.987 2.08 7.155l-.03.076h8.74z"/></svg>