<svg xmlns="http://www.w3.org/2000/svg" width="24" height="24"><path fill="#005571" d="M20.32 16.315l-3.946-.923-1.048-2.003 5.161-4.522a3.95 3.95 0 0 1 2.551 3.69 3.994 3.994 0 0 1-2.718 3.758zm-2.967 4.666a2.805 2.805 0 0 1-1.709-.585l.78-4.065 3.585.839c.114.309.171.64.171.984a2.83 2.83 0 0 1-2.827 2.827zm-2.629-.584a5.904 5.904 0 0 1-4.887 2.593h-.006a5.928 5.928 0 0 1-5.806-7.1l5.151-4.655 5.256 2.396 1.164 2.223zM.964 11.443a3.996 3.996 0 0 1 2.718-3.758l3.937.93.924 1.975-5.034 4.55a3.956 3.956 0 0 1-2.546-3.697zm5.684-8.424h.001a2.82 2.82 0 0 1 1.724.585l-.007-.005-.786 4.079-3.588-.847a2.832 2.832 0 0 1-.171-.984 2.83 2.83 0 0 1 2.827-2.828zm2.653.587a5.901 5.901 0 0 1 4.869-2.567 5.912 5.912 0 0 1 5.791 7.066l-5.282 4.628-5.235-2.387-1.022-2.182zm14.662 8.963a4.708 4.708 0 0 0-3.114-4.44c.079-.386.125-.831.125-1.286a6.768 6.768 0 0 0-6.761-6.76 6.746 6.746 0 0 0-5.476 2.804 3.55 3.55 0 0 0-2.193-.752H6.54a3.592 3.592 0 0 0-3.364 4.839 4.77 4.77 0 0 0-3.139 4.458 4.713 4.713 0 0 0 3.129 4.454 6.6 6.6 0 0 0-.123 1.284v.001a6.751 6.751 0 0 0 6.744 6.744 6.716 6.716 0 0 0 5.473-2.816c.63.495 1.4.766 2.199.766a3.592 3.592 0 0 0 3.364-4.839 4.77 4.77 0 0 0 3.139-4.458z"/></svg>