<svg height="24" width="24" xmlns="http://www.w3.org/2000/svg"><path d="M2.648 11.678c-1.038-1.81-1.249-3.504-.511-4.781.988-1.712 3.468-2.31 6.604-1.739a.322.322 0 1 1-.117.633h.002c-2.9-.528-5.111.005-5.932 1.428-.605 1.047-.423 2.509.512 4.14a.32.32 0 0 1-.269.499.321.321 0 0 1-.288-.178zm14.92-6.069c1.835.024 3.156.596 3.751 1.626.82 1.419.18 3.595-1.718 5.837a.322.322 0 1 0 .489.417l.001-.001c2.054-2.426 2.771-4.866 1.785-6.575-.726-1.257-2.26-1.92-4.299-1.947l-.022-.001a.322.322 0 1 0 0 .644h.014zm-1.854 15.239a.32.32 0 0 0-.441.109l-.001.001c-.934 1.553-2.08 2.399-3.26 2.399-1.642 0-3.208-1.647-4.2-4.418a.322.322 0 1 0-.605.219l-.001-.002C8.279 22.154 10.036 24 12.01 24c1.44 0 2.773-.982 3.813-2.71a.324.324 0 0 0-.108-.441zm7.356-2.594a1.54 1.54 0 0 1-2.441 1.247l.005.003c-2.455 1.445-7.146.71-11.56-1.84-1.88-1.085-3.527-2.392-4.795-3.785a.322.322 0 1 1 .475-.433c1.222 1.343 2.817 2.609 4.64 3.661 4.167 2.406 8.553 3.12 10.797 1.906a1.54 1.54 0 1 1 2.878-.762v.004zm-19.062 0v.003a1.54 1.54 0 1 1-2.293-1.344l.008-.004c-.233-2.877 2.79-6.734 7.36-9.372 1.898-1.096 3.874-1.874 5.731-2.271a.322.322 0 0 1 .137.628l-.002.001c-1.79.384-3.703 1.137-5.545 2.2-4.304 2.485-7.148 6.067-7.048 8.627.038-.003.075-.006.113-.006.85 0 1.54.69 1.539 1.539zM10.472 1.54a1.54 1.54 0 0 1 3.078-.003v.003c0 .023-.002.045-.003.067 2.549 1.317 4.32 5.81 4.32 11.003 0 2.135-.298 4.184-.854 5.96a.322.322 0 1 1-.613-.194l-.001.002c.536-1.712.825-3.697.825-5.768 0-4.89-1.626-9.095-3.847-10.363a1.54 1.54 0 0 1-2.905-.705zm1.304 9.981a1.114 1.114 0 1 0 .477 2.177l-.007.001a1.114 1.114 0 1 0-.477-2.177z" fill="#47848f"/></svg>