<svg xmlns="http://www.w3.org/2000/svg" width="24" height="24"><path fill="#64baff" d="M12 0C5.373 0 0 5.373 0 12s5.373 12 12 12 12-5.373 12-12S18.627 0 12 0zm0 1h.004c5.01 0 9.238 3.35 10.567 7.932l.019.078a19.221 19.221 0 0 1-4.637 6.06l-.023.02c-.94.81-1.96 1.53-3.08 2.04-1.13.5-2.37.8-3.6.72a6.21 6.21 0 0 1-2.692-.776l.032.016a20.186 20.186 0 0 0 5.658-4.554l.022-.026a9.936 9.936 0 0 0 2.293-4.1l.017-.07c.18-.79.2-1.6.04-2.4a4.424 4.424 0 0 0-1.083-2.113l.003.003a4.332 4.332 0 0 0-1.97-1.183l-.03-.007a5.108 5.108 0 0 0-1.341-.174c-.35 0-.692.034-1.023.1l.033-.005a7.818 7.818 0 0 0-4.006 2.286l-.004.004a9.741 9.741 0 0 0-2.939 7.514l-.001-.024a7.868 7.868 0 0 0 1.957 4.598l-.007-.008a17.18 17.18 0 0 1-3.466.839l-.094.011a10.887 10.887 0 0 1-1.641-5.78c0-6.072 4.92-10.995 10.99-11zm.07 2.22c.77 0 1.55.24 2.17.7.55.42.97 1.02 1.2 1.68.23.65.3 1.37.21 2.06a7.849 7.849 0 0 1-1.71 3.773l.01-.013a16.31 16.31 0 0 1-6.267 4.919l-.103.041c-.48-.42-.9-.92-1.2-1.48a6.529 6.529 0 0 1-.791-3.135c0-.259.015-.514.044-.765l-.003.031c.12-1.32.58-2.6 1.2-3.79A7.984 7.984 0 0 1 9.817 3.84l.033-.019c.68-.37 1.45-.6 2.22-.6zm10.83 7.3c.063.442.099.953.099 1.472 0 6.075-4.925 11-11 11a10.976 10.976 0 0 1-8.464-3.974L3.52 19a19.737 19.737 0 0 0 3.755-1.25l-.125.05c.51.4 1.08.71 1.67.94.793.289 1.71.457 2.665.457.997 0 1.95-.182 2.83-.515l-.055.018a13.371 13.371 0 0 0 4.642-2.952l-.002.002a20.121 20.121 0 0 0 3.948-5.124l.052-.106z"/></svg>