<svg xmlns="http://www.w3.org/2000/svg" width="24" height="24"><path fill="#0ae524" d="M15.65 16.105v-.24a3.543 3.543 0 0 0-1.261-2.466l-.006-.005c-.724-.663-1.69-.965-2.655-.904-1.87.12-3.378 1.747-3.378 3.615 0 .784.12 1.567.422 2.471H4.55V6.946l7.42-5.123 7.482 5.122v11.692h-4.223c.18-.663.422-1.688.422-2.532zm5.069-10.244L12.452.136c-.301-.181-.663-.181-.905 0L3.222 5.86c-.242.12-.362.361-.362.663V19.48c0 .482.362.844.844.844H9.94a.824.824 0 0 0 .824-.824v-.021.001c0-.06 0-.18-.06-.24l-.06-.182c-.302-.723-.664-1.627-.664-2.53v-.182c-.06-.542.12-1.084.482-1.446.343-.399.83-.667 1.379-.722l.009-.001c.543-.06 1.026.12 1.448.482s.664.844.724 1.386v.18c.06 1.206-.724 2.954-.845 3.135l-1.146 2.17-.18-.362c-.122-.181-.302-.362-.483-.422s-.423-.06-.604.06c-.18.12-.362.301-.422.482s-.06.422.06.603l.905 1.687c.121.241.423.422.724.422s.604-.18.724-.422l1.81-3.375h5.752a.824.824 0 0 0 .824-.824v-.02.001V6.524c-.06-.302-.18-.543-.422-.663z"/></svg>