<svg height="24" width="24" xmlns="http://www.w3.org/2000/svg"><path d="m5.016 18.984h1.969v2.016h-1.969zm0-3.984h1.969v2.016h-1.969zm4.968-9.984h2.016v1.969h-2.016zm-4.968 6h1.969v1.969h-1.969zm9-2.016v-5.016h-6v5.016h-5.016v12h-.984v-12.984h4.969v-5.016h8.016v6h-.984zm6 8.016q.422 0 .703-.305t.281-.727-.281-.703-.703-.281-.727.281-.305.703.305.727.727.305zm-8.016 0q.422 0 .703-.305t.281-.727-.281-.703-.703-.281-.703.281-.281.703.281.727.703.305zm.422-6-1.031 3h9.234l-1.031-3zm8.156-.375 1.406 4.125v5.531q0 .281-.211.492t-.492.211h-.609q-.281 0-.469-.234t-.188-.516v-1.266h-8.016v1.266q0 .281-.211.516t-.492.234h-.609q-.656 0-.656-.703l-.047-5.531 1.453-4.125q.234-.656.984-.656h7.172q.75 0 .984.656z"/></svg>