<svg xmlns="http://www.w3.org/2000/svg" width="24" height="24"><path d="M21.588 20.801L20.207 5.237a.591.591 0 0 0-.596-.541H16.7C16.695 2.108 14.589.001 12 .001S7.305 2.107 7.3 4.696H4.389a.598.598 0 0 0-.596.541L2.412 20.801v.055c0 1.734 1.595 3.145 3.552 3.145h12.072c1.957 0 3.552-1.411 3.552-3.145v-.055zM12 1.192a3.512 3.512 0 0 1 3.507 3.502H8.492a3.512 3.512 0 0 1 3.507-3.502zm6.036 21.611H5.964c-1.292 0-2.345-.859-2.36-1.928L4.935 5.887H7.3v2.091c0 .328.268.596.596.596s.596-.268.596-.596V5.887h7.015v2.091c0 .328.268.596.596.596s.596-.268.596-.596V5.887h2.365l1.331 14.993c-.015 1.063-1.068 1.923-2.36 1.923zm-3.512-10.329a.598.598 0 0 0-.845 0L12 14.158l-1.684-1.684a.598.598 0 0 0-.845.845l1.684 1.684-1.684 1.684a.598.598 0 0 0 .422 1.019c.154 0 .303-.06.422-.174l1.684-1.684 1.684 1.684a.598.598 0 0 0 .844-.845l-1.684-1.684 1.684-1.684a.6.6 0 0 0-.005-.845z"/></svg>