<!-- Generated by IcoMoon.io -->
<svg version="1.1" xmlns="http://www.w3.org/2000/svg" width="24" height="24" viewBox="0 0 24 24">
<title>empty-bag</title>
<path d="M21.588 20.801l-1.381-15.564c-0.025-0.308-0.283-0.541-0.596-0.541h-2.911c-0.005-2.588-2.111-4.695-4.7-4.695s-4.695 2.106-4.7 4.695h-2.911c-0.308 0-0.566 0.233-0.596 0.541l-1.381 15.564v0.055c0 1.734 1.595 3.145 3.552 3.145h12.072c1.957 0 3.552-1.411 3.552-3.145 0-0.020 0-0.035 0-0.055zM12 1.192c1.933 0 3.502 1.57 3.507 3.502h-7.015c0.005-1.933 1.575-3.502 3.507-3.502zM18.036 22.803h-12.072c-1.292 0-2.345-0.859-2.36-1.928l1.331-14.988h2.365v2.091c0 0.328 0.268 0.596 0.596 0.596s0.596-0.268 0.596-0.596v-2.091h7.015v2.091c0 0.328 0.268 0.596 0.596 0.596s0.596-0.268 0.596-0.596v-2.091h2.365l1.331 14.993c-0.015 1.063-1.068 1.923-2.36 1.923zM14.524 12.474c-0.233-0.233-0.611-0.233-0.845 0l-1.679 1.684-1.684-1.684c-0.233-0.233-0.611-0.233-0.845 0s-0.233 0.611 0 0.845l1.684 1.684-1.684 1.684c-0.233 0.233-0.233 0.611 0 0.845 0.114 0.114 0.268 0.174 0.422 0.174s0.303-0.060 0.422-0.174l1.684-1.684 1.684 1.684c0.114 0.114 0.268 0.174 0.422 0.174s0.303-0.060 0.422-0.174c0.233-0.233 0.233-0.611 0-0.845l-1.684-1.684 1.684-1.684c0.229-0.233 0.229-0.611-0.005-0.845z"></path>
</svg>
