<svg xmlns="http://www.w3.org/2000/svg" width="24" height="24"><path d="M24 8.759v13.098A2.149 2.149 0 0 1 21.857 24H2.143A2.149 2.149 0 0 1 0 21.857V8.759c0-.121.054-.241.147-.321 1.406-1.232 1.42-1.379 8.411-6.482C9.402 1.34 10.888.001 12 .001s2.612 1.353 3.442 1.955c6.991 5.103 7.004 5.25 8.411 6.482.094.08.147.201.147.321zm-7.554 7.835a389.59 389.59 0 0 0 4.621-3.375.41.41 0 0 0 .08-.589l-.509-.696a.428.428 0 0 0-.603-.08c-1.058.777-2.504 1.848-4.594 3.348-.83.603-2.33 1.942-3.442 1.942s-2.612-1.339-3.442-1.942a843.01 843.01 0 0 1-4.594-3.348.43.43 0 0 0-.603.08l-.509.696a.412.412 0 0 0 .08.589c1.071.804 2.531 1.862 4.621 3.375 1.045.75 2.692 2.263 4.446 2.263 1.768 0 3.455-1.54 4.446-2.263z"/></svg>