<svg xmlns="http://www.w3.org/2000/svg" width="24" height="24"><path fill="#4b32c3" d="M7.257 9.132L11.816 6.5a.367.367 0 0 1 .37.001l-.002-.001 4.559 2.632a.37.37 0 0 1 .184.319v5.264a.369.369 0 0 1-.182.318l-.002.001-4.559 2.632a.367.367 0 0 1-.37-.001l.002.001-4.559-2.632a.37.37 0 0 1-.184-.319V9.452a.37.37 0 0 1 .182-.319l.002-.001zm16.595 2.398l-5.446-9.475c-.198-.343-.564-.596-.96-.596H6.555c-.396 0-.762.253-.96.596L.149 11.509a1.124 1.124 0 0 0 .003 1.122l-.003-.005 5.447 9.398c.197.342.563.517.959.517h10.893c.395 0 .76-.17.959-.512l5.446-9.413a1.063 1.063 0 0 0-.003-1.091l.003.005zm-4.509 4.556a.399.399 0 0 1-.202.337l-.002.001-6.939 4.002a.39.39 0 0 1-.394-.001l.002.001-6.943-4.002a.4.4 0 0 1-.205-.337V8.08c0-.14.083-.269.204-.338L11.8 3.74c.12-.07.272-.07.392 0l6.943 4.003c.12.068.202.193.206.337v.001z"/></svg>