<svg xmlns="http://www.w3.org/2000/svg" width="24" height="24"><path d="M18.22 11.66a2.946 2.946 0 0 0 3.082-2.342l.003-.019a1.932 1.932 0 0 0-1.62-.881h-.001l-.044-.001a1.932 1.932 0 0 0-1.418 3.244l-.001-.001zm-6.886-8.138l4.021-2.327-1.28-.722-5.543 3.21.441.248.84.47zM15.87.98c.068.022.12.074.142.139v.002l1.863 5.695a.217.217 0 0 1-.093.257l-.001.001a3.8 3.8 0 0 0-1.731 4.297l-.006-.027a3.808 3.808 0 0 0 4.066 2.776l-.016.001c.102-.008.2.055.231.152l1.922 5.852a.223.223 0 0 1-.093.257l-.001.001-5.894 3.578a.216.216 0 0 1-.095.029h-.001a.218.218 0 0 1-.155-.033l.001.001-2.074-1.348a.222.222 0 0 1-.081-.096l-.001-.001-4.046-9.672-6.165 3.657a.16.16 0 0 1-.039.02l-.001.001a.212.212 0 0 1-.197-.015l.001.001-1.394-.82a.217.217 0 0 1-.086-.287l-.001.001L7.89 3.587a.213.213 0 0 1 .101-.098l.001-.001L13.96.032a.213.213 0 0 1 .113-.031c.039 0 .075.01.107.028l-.001-.001zM9.63 4.805l-1.45-.817L2.41 15.41l1.047.617 4.972-6.761a.216.216 0 0 1 .177-.092l.028.002h-.001c.079.008.146.06.176.133L14.23 22.28l1.45.939-5.803-17.67zm10.054 7.918h-.001a2.372 2.372 0 1 1 1.677-4.052c.429.429.694 1.021.694 1.676v.006a2.37 2.37 0 0 1-2.37 2.37z"/></svg>