<!-- Generated by IcoMoon.io -->
<svg version="1.1" xmlns="http://www.w3.org/2000/svg" width="24" height="24" viewBox="0 0 24 24">
<title>eye1</title>
<path d="M0.007 12.143c0.007 0.034 0.022 0.060 0.034 0.094 0.019 0.056 0.030 0.116 0.064 0.165 0.18 0.289 4.526 7.076 11.239 7.421 0.176 0.008 0.353 0.015 0.529 0.015 4.114 0 8.141-2.479 11.974-7.373 0.019-0.023 0.023-0.049 0.038-0.075 0.023-0.034 0.037-0.067 0.052-0.105 0.023-0.053 0.041-0.105 0.053-0.161 0.011-0.038 0.011-0.082 0.011-0.131 0-0.045 0-0.090-0.011-0.135-0.011-0.056-0.030-0.105-0.052-0.161-0.015-0.037-0.030-0.071-0.053-0.101-0.015-0.022-0.019-0.053-0.038-0.075-3.998-5.104-8.205-7.571-12.503-7.357-6.712 0.345-11.055 7.133-11.239 7.421-0.034 0.053-0.045 0.109-0.064 0.165-0.011 0.030-0.030 0.060-0.034 0.094-0.011 0.049-0.004 0.101-0.004 0.15 0 0.053-0.008 0.101 0.004 0.15zM12 6.495c2.621 0 4.751 2.13 4.751 4.751s-2.13 4.748-4.751 4.748-4.751-2.13-4.751-4.751 2.134-4.748 4.751-4.748zM7.691 6.697c-1.207 1.144-1.961 2.756-1.961 4.545 0 3.457 2.813 6.274 6.274 6.274 3.457 0 6.274-2.816 6.274-6.274 0-1.661-0.652-3.165-1.71-4.29 1.92 1.043 3.829 2.726 5.707 5.040-3.555 4.369-7.204 6.499-10.841 6.311-5.059-0.255-8.76-4.912-9.761-6.311 0.731-1.020 2.914-3.78 6.019-5.295z"></path>
</svg>
