<svg xmlns="http://www.w3.org/2000/svg" width="24" height="24"><path d="M.007 12.143c.007.034.022.06.034.094.019.056.03.116.064.165.18.289 4.526 7.076 11.239 7.421.176.008.353.015.529.015 4.114 0 8.141-2.479 11.974-7.373.019-.023.023-.049.038-.075a.513.513 0 0 0 .052-.105.843.843 0 0 0 .053-.161c.011-.038.011-.082.011-.131 0-.045 0-.09-.011-.135a.913.913 0 0 0-.105-.262c-.015-.022-.019-.053-.038-.075-3.998-5.104-8.205-7.571-12.503-7.357C4.632 4.509.289 11.297.105 11.585c-.034.053-.045.109-.064.165-.011.03-.03.06-.034.094-.011.049-.004.101-.004.15 0 .053-.008.101.004.15zM12 6.495c2.621 0 4.751 2.13 4.751 4.751s-2.13 4.748-4.751 4.748-4.751-2.13-4.751-4.751S9.383 6.495 12 6.495zm-4.309.202a6.243 6.243 0 0 0-1.961 4.545 6.282 6.282 0 0 0 6.274 6.274 6.284 6.284 0 0 0 6.274-6.274 6.238 6.238 0 0 0-1.71-4.29c1.92 1.043 3.829 2.726 5.707 5.04-3.555 4.369-7.204 6.499-10.841 6.311-5.059-.255-8.76-4.912-9.761-6.311.731-1.02 2.914-3.78 6.019-5.295z"/></svg>