<svg xmlns="http://www.w3.org/2000/svg" width="24" height="24"><path fill="#00baff" d="M23.93 2.94C20.345 1.624 16.206.863 11.888.863c-3.636 0-7.145.54-10.453 1.544l.255-.066A2.224 2.224 0 0 0 .074 5.106L.07 5.09c.4 1.6.98 3.44 1.68 5.11.01.04.03.02.03-.02-.1-.78.5-1.77 1.68-2.13 2.495-.821 5.367-1.295 8.349-1.295 3.239 0 6.347.559 9.234 1.585l-.193-.06c.86.3 1.82-.17 2.1-1.06.7-2.25.98-3.78 1.05-4.16.01-.07-.05-.1-.07-.12zM6.65 7.89c-.86.18-2.05.46-2.94.76-1.78.61-1.7 2.78-.75 3.47.07-.4.5-.95.98-1.13 1.78-.7 3.69-1.12 5.62-1.29-.98-.4-1.94-.97-2.9-1.81zm14.18 4.34c-2.635-1.267-5.728-2.007-8.995-2.007a21.11 21.11 0 0 0-7.6 1.406l.145-.049c-.85.32-1.38 1.35-.85 2.33a38.068 38.068 0 0 0 3.215 4.887l-.065-.087c-.17-.58.13-1.66 1.27-2.01 3.15-.97 6.46-.56 8.66.33.62.25 1.5.1 1.99-.64a36.751 36.751 0 0 0 2.189-3.797l.101-.223c.03-.06 0-.11-.06-.14zM15.72 20a9.985 9.985 0 0 1-2.501-1.801l.001.001c-.34-.34-.84-.83-1.37-1.41-1.2 0-2.37.12-3.62.52-1.16.36-1.27 1.7-.76 2.4.86 1.07 1.46 1.65 2.42 2.64a2.728 2.728 0 0 0 1.92.785c.738 0 1.408-.292 1.901-.766l-.001.001c.75-.75 1.21-1.25 2.06-2.21.05-.05.03-.14-.05-.16z"/></svg>