<svg xmlns="http://www.w3.org/2000/svg" width="24" height="24"><path fill="#2bb24c" d="M13.86 1.989c-.474-.483-1.133-.783-1.863-.783s-1.389.299-1.863.782L.768 11.526c-.475.49-.768 1.16-.768 1.898s.293 1.407.768 1.898l-.001-.001 6.684 6.808c.46.412 1.071.663 1.74.664h5.613a2.607 2.607 0 0 0 1.871-.79l.001-.001 6.554-6.675c.476-.49.769-1.16.769-1.898s-.293-1.407-.769-1.898l.001.001zm-.26 17.422l-.935.95a.373.373 0 0 1-.268.114h-.8a.373.373 0 0 1-.247-.096l-.954-.97a.389.389 0 0 1 0-.542l1.337-1.36a.368.368 0 0 1 .53 0l1.337 1.361a.389.389 0 0 1-.001.543zm0-5.711l-3.737 3.808a.372.372 0 0 1-.266.111h-.803a.375.375 0 0 1-.248-.093l-.951-.97a.39.39 0 0 1 0-.544l4.139-4.214a.371.371 0 0 1 .53 0l1.337 1.362a.383.383 0 0 1-.002.54zm0-5.707l-6.54 6.66a.37.37 0 0 1-.267.113h-.801-.001a.375.375 0 0 1-.248-.094L4.79 13.7a.39.39 0 0 1 0-.54l6.943-7.07a.371.371 0 0 1 .53 0L13.6 7.45a.389.389 0 0 1-.001.543z"/></svg>