<!-- Generated by IcoMoon.io -->
<svg version="1.1" xmlns="http://www.w3.org/2000/svg" width="24" height="24" viewBox="0 0 24 24">
<title>filezilla</title>
<path d="M24 22.2v0.975c-0.45 0-0.825 0.375-0.825 0.825h-0.975c0-0.45-0.375-0.825-0.825-0.825s-0.825 0.375-0.825 0.825h-1.050c0-0.45-0.375-0.825-0.825-0.825s-0.825 0.375-0.825 0.825h-0.975c0-0.45-0.375-0.825-0.825-0.825s-0.825 0.375-0.825 0.825h-0.975c0-0.45-0.375-0.825-0.825-0.825s-0.825 0.375-0.825 0.825h-0.975c0-0.45-0.375-0.825-0.825-0.825s-0.825 0.375-0.825 0.825h-0.975c0-0.45-0.375-0.825-0.825-0.825s-0.825 0.375-0.825 0.825h-1.2c0-0.45-0.375-0.825-0.825-0.825s-0.825 0.375-0.825 0.825h-0.975c0-0.45-0.375-0.825-0.825-0.825s-0.825 0.375-0.825 0.825h-1.050c0-0.45-0.375-0.825-0.825-0.825v-0.975c0.45 0 0.825-0.375 0.825-0.825s-0.375-0.825-0.825-0.825v-1.050h0.075c0.45 0 0.825-0.375 0.825-0.825s-0.375-0.825-0.825-0.825h-0.075v-0.975c0.45 0 0.825-0.375 0.825-0.825s-0.375-0.825-0.825-0.825v-0.975c0.45 0 0.825-0.375 0.825-0.825s-0.375-0.825-0.825-0.825v-0.975c0.45 0 0.825-0.375 0.825-0.825s-0.375-0.825-0.825-0.825v-0.975c0.45 0 0.825-0.375 0.825-0.825 0-0.675-0.375-1.050-0.825-1.050v-0.975c0.45 0 0.825-0.375 0.825-0.825s-0.375-0.825-0.825-0.825v-0.975c0.45 0 0.825-0.375 0.825-0.825s-0.375-0.825-0.825-0.825v-1.050c0.45 0 0.825-0.375 0.825-0.825h0.975c0 0.45 0.375 0.825 0.825 0.825s0.825-0.375 0.825-0.825h1.050c0 0.45 0.375 0.825 0.825 0.825s0.825-0.375 0.825-0.825h0.975c0 0.45 0.375 0.825 0.825 0.825s0.825-0.375 0.825-0.825h0.975c0 0.45 0.375 0.825 0.825 0.825s0.825-0.375 0.825-0.825h0.975c0 0.45 0.375 0.825 0.825 0.825s0.825-0.375 0.825-0.825h0.975c0 0.45 0.375 0.825 0.825 0.825s0.825-0.375 0.825-0.825h0.975c0 0.45 0.375 0.825 0.825 0.825 0.675 0 1.050-0.375 1.050-0.825h0.975c0 0.45 0.375 0.825 0.825 0.825s0.825-0.375 0.825-0.825h0.975c0 0.45 0.375 0.825 0.825 0.825v0.975c-0.45 0-0.825 0.375-0.825 0.825s0.375 0.825 0.825 0.825v1.050c-0.45 0-0.825 0.375-0.825 0.825s0.375 0.825 0.825 0.825v0.975c-0.45 0-0.825 0.375-0.825 0.825s0.375 0.825 0.825 0.825v0.975c-0.45 0-0.825 0.375-0.825 0.825s0.375 0.825 0.825 0.825v0.975c-0.45 0-0.825 0.375-0.825 0.825s0.375 0.825 0.825 0.825v0.975c-0.45 0-0.825 0.375-0.825 0.825s0.375 0.825 0.825 0.825v0.975c-0.45 0-0.825 0.375-0.825 0.825s0.375 0.825 0.825 0.825v0.975c-0.45 0-0.825 0.375-0.825 0.825 0.075 0.75 0.45 1.125 0.9 1.125zM8.475 9.6l0.675-2.925h7.275l0.675-3.225h-10.5l-3.3 15.675h3.15l1.5-6.75h7.5l-6.525 6.45 1.275 2.1s0.9-0.675 2.85-0.375 3.45 0.6 6-0.525l0.6-2.85s-3.375 1.35-5.4 0.825c0 0-0.45-0.075-0.6-0.075l6.375-6.225 0.525-2.1h-12.075z"></path>
</svg>
