<svg xmlns="http://www.w3.org/2000/svg" width="24" height="24"><path d="M12.984 11.016v1.969H15v-1.969h-2.016zm0 3.984q-.844 0-1.406-.586t-.563-1.43v-6q0-.844.563-1.406t1.406-.563h4.031v1.969h-4.031V9H15q.844 0 1.43.586t.586 1.43v1.969q0 .844-.586 1.43t-1.43.586h-2.016zM21 17.016V3H6.984v14.016H21zM21 .984q.797 0 1.406.609t.609 1.406v14.016q0 .797-.609 1.383T21 18.984H6.984q-.797 0-1.383-.586t-.586-1.383V2.999q0-.797.586-1.406T6.984.984H21zM3 5.016V21h15.984v2.016H3q-.797 0-1.406-.609t-.609-1.406V5.017h2.016z"/></svg>