<svg height="24" width="24" xmlns="http://www.w3.org/2000/svg"><path d="M13.341 18.24v-.003zm.032.851l-.001-.016zm-.018-.427v-.013zM22.5 0h-21C.675 0 0 .675 0 1.5v21c0 .825.675 1.5 1.5 1.5h21c.825 0 1.5-.675 1.5-1.5v-21c0-.825-.675-1.5-1.5-1.5zm-18 5.25a.75.75 0 0 1 1.5 0v1.5a.75.75 0 0 1-1.5 0zm18 17.25h-8.79a30.574 30.574 0 0 1-.314-2.991v.008a12.829 12.829 0 0 1-9.892-3.135.844.844 0 1 1 1.117-1.265 11.145 11.145 0 0 0 8.711 2.709c-.051-2.77.161-4.967.165-5.002a.75.75 0 0 0-.746-.825H10.52a35.68 35.68 0 0 1 .351-3.754c.442-2.971 1.219-5.291 2.254-6.746h9.377v21z"/><path d="M18.75 7.5a.75.75 0 0 1-.75-.75v-1.5a.75.75 0 0 1 1.5 0v1.5a.75.75 0 0 1-.75.75zm-6.082 12.076c-.085.005-.171.008-.257.011.086-.003.171-.006.257-.011zm-.033-1.688l.055-.003zm-.328.014l.075-.003zm8.263-2.71a.844.844 0 0 0-1.191-.074 11.137 11.137 0 0 1-6.047 2.709c.01.546.03 1.113.065 1.691a12.82 12.82 0 0 0 7.099-3.135.844.844 0 0 0 .074-1.191zm-7.551 4.361c-.092.007-.183.014-.275.019.092-.005.184-.012.275-.019z"/></svg>