<!-- Generated by IcoMoon.io -->
<svg version="1.1" xmlns="http://www.w3.org/2000/svg" width="24" height="24" viewBox="0 0 24 24">
<title>finder1</title>
<path d="M13.341 18.24v0zM22.5 0h-21c-0.825 0-1.5 0.675-1.5 1.5v21c0 0.825 0.675 1.5 1.5 1.5h11.574c0.001 0 0.002 0 0.003 0s0.002-0 0.003-0h9.42c0.825 0 1.5-0.675 1.5-1.5v-21c0-0.825-0.675-1.5-1.5-1.5zM4.5 5.25c0-0.414 0.336-0.75 0.75-0.75s0.75 0.336 0.75 0.75v1.5c0 0.414-0.336 0.75-0.75 0.75s-0.75-0.336-0.75-0.75v-1.5zM22.5 22.5h-8.79c-0.157-0.986-0.256-2.003-0.314-2.991 0 0.003 0 0.005 0 0.008-0.419 0.048-0.904 0.076-1.396 0.076h-0c-3.132 0-6.15-1.14-8.496-3.211-0.349-0.308-0.383-0.842-0.074-1.191s0.842-0.383 1.191-0.074c2.038 1.798 4.658 2.789 7.379 2.789 0.447 0 0.892-0.027 1.332-0.080-0.051-2.77 0.161-4.967 0.165-5.002 0.002-0.022 0.004-0.048 0.004-0.075 0-0.194-0.074-0.371-0.195-0.504l0.001 0.001c-0.138-0.152-0.336-0.247-0.556-0.247 0 0-0 0-0 0h-2.231c0.032-0.811 0.119-2.199 0.351-3.754 0.442-2.971 1.219-5.291 2.254-6.746h9.377v21zM18.75 7.5c-0.414 0-0.75-0.336-0.75-0.75v-1.5c0-0.414 0.336-0.75 0.75-0.75s0.75 0.336 0.75 0.75v1.5c0 0.414-0.336 0.75-0.75 0.75zM12.635 17.888c0.018-0.001 0.037-0.002 0.055-0.003-0.018 0.001-0.037 0.002-0.055 0.003zM12.307 17.902c0.025-0.001 0.050-0.002 0.075-0.003-0.025 0.001-0.050 0.002-0.075 0.003zM20.57 15.192c-0.308-0.349-0.842-0.383-1.191-0.074-1.703 1.503-3.812 2.441-6.047 2.709 0.010 0.546 0.030 1.113 0.065 1.691 2.624-0.286 5.104-1.374 7.099-3.135 0.349-0.308 0.383-0.842 0.074-1.191z"></path>
</svg>
