<!-- Generated by IcoMoon.io -->
<svg version="1.1" xmlns="http://www.w3.org/2000/svg" width="24" height="24" viewBox="0 0 24 24">
<title>fit-horizontal</title>
<path d="M23.97 11.636c-0.037-0.094-0.094-0.176-0.161-0.244l-2.565-2.561c-0.293-0.293-0.769-0.293-1.061 0s-0.293 0.769 0 1.061l1.282 1.282h-18.87l1.282-1.282c0.293-0.293 0.293-0.769 0-1.061s-0.769-0.293-1.061 0l-2.565 2.561c-0.146 0.146-0.221 0.337-0.221 0.529s0.071 0.386 0.221 0.532l2.621 2.617c0.146 0.146 0.338 0.217 0.533 0.217 0.191 0 0.382-0.071 0.533-0.221 0.292-0.293 0.292-0.769 0-1.061l-1.339-1.339h18.87l-1.339 1.335c-0.293 0.293-0.293 0.769 0 1.061 0.146 0.146 0.337 0.221 0.532 0.221s0.383-0.071 0.533-0.218l2.621-2.617s0-0.004 0.004-0.004c0.067-0.068 0.124-0.15 0.161-0.24s0.056-0.188 0.056-0.285-0.026-0.195-0.067-0.285z"></path>
</svg>
