<svg xmlns="http://www.w3.org/2000/svg" width="24" height="24"><path d="M12.345 23.895a.746.746 0 0 0 .244-.161l2.561-2.565a.75.75 0 1 0-1.061-1.061l-1.283 1.282V2.52l1.283 1.282a.75.75 0 1 0 1.061-1.061L12.589.176a.749.749 0 0 0-1.062 0L8.91 2.797a.747.747 0 0 0-.217.533.752.752 0 0 0 1.282.533l1.339-1.339v18.87l-1.335-1.339a.752.752 0 0 0-1.282.533c0 .195.071.383.217.533l2.617 2.621s.004 0 .004.004c.068.067.15.124.24.161s.188.056.289.056c.09-.011.188-.03.281-.067zM.056 12.135c.038.094.09.176.161.247l2.535 2.591a.751.751 0 0 0 1.072-1.05l-1.268-1.294 18.866.21-1.298 1.268a.751.751 0 0 0 1.05 1.072l2.591-2.535a.735.735 0 0 0 .225-.529.736.736 0 0 0-.214-.533l-2.591-2.647c-.146-.146-.337-.221-.529-.225s-.386.068-.533.214a.751.751 0 0 0-.011 1.061l1.324 1.354-18.862-.217 1.354-1.32A.751.751 0 0 0 2.877 8.73L.226 11.317s0 .004-.004.004a.73.73 0 0 0-.161.24c-.041.09-.064.188-.064.285s.019.195.056.289z"/></svg>