<!-- Generated by IcoMoon.io -->
<svg version="1.1" xmlns="http://www.w3.org/2000/svg" width="24" height="24" viewBox="0 0 24 24">
<title>fit-vertical</title>
<path d="M12.345 23.895c0.094-0.038 0.176-0.094 0.244-0.161l2.561-2.565c0.293-0.293 0.293-0.769 0-1.061s-0.769-0.293-1.061 0l-1.283 1.282v-18.87l1.283 1.282c0.293 0.293 0.769 0.293 1.061 0s0.293-0.769 0-1.061l-2.561-2.565c-0.146-0.146-0.338-0.221-0.529-0.221s-0.386 0.071-0.533 0.221l-2.617 2.621c-0.146 0.146-0.217 0.338-0.217 0.533 0 0.191 0.071 0.382 0.221 0.533 0.293 0.292 0.769 0.292 1.061 0l1.339-1.339v18.87l-1.335-1.339c-0.293-0.292-0.769-0.292-1.061 0-0.146 0.146-0.221 0.338-0.221 0.533s0.071 0.383 0.217 0.533l2.617 2.621s0.004 0 0.004 0.004c0.068 0.067 0.15 0.124 0.24 0.161s0.188 0.056 0.289 0.056c0.090-0.011 0.188-0.030 0.281-0.067z"></path>
</svg>
