<svg xmlns="http://www.w3.org/2000/svg" width="24" height="24"><path d="M2.291 23.97a.79.79 0 0 0 .791-.791V.791A.789.789 0 0 0 2.291 0 .793.793 0 0 0 1.5.791v22.388a.79.79 0 0 0 .791.791zm8.921-22.826c-3.476-2.036-6.139-.615-7.061.42a.791.791 0 1 0 1.182 1.054c.019-.019 1.841-2.002 5.07-.112.281.172 6.304 3.739 10.999 1.478-.323 1.35-1.054 3.221-2.707 4.414-1.995 1.436-4.894 1.59-8.576.465-.169-.06-4.196-1.47-6.116.851a.797.797 0 0 0 .105 1.118.797.797 0 0 0 1.118-.105c1.005-1.215 3.491-.679 4.399-.356 1.789.548 3.427.818 4.905.818 2.006 0 3.713-.502 5.107-1.511 3.454-2.494 3.6-7.106 3.604-7.301a.789.789 0 0 0-1.309-.615c-3.922 3.401-10.643-.57-10.718-.615z"/></svg>