<svg xmlns="http://www.w3.org/2000/svg" width="24" height="24"><path d="M3.74 2.182c.312-.312.312-.623 0-.935C3.428.624 2.805.312 2.182.624s-.935.935-.623 1.558c.312.312.623.623.935.623l9.974 20.883c0 .312.623.312.935.312s.312-.623.312-.935L3.741 2.182zm15.585-.624S18.39 0 15.585 1.246c-2.182 1.558-3.429.935-4.052-.312S8.416-.936 4.364 2.181l4.364 9.351s.623 0 2.182-1.87c0 0 .623-.623 1.558-.623.623-.312 1.87.312 1.87.312s.935.312 2.182-.312c1.247-.623 1.87-1.87 3.117-3.429.312-.935 2.805-.312 2.805-.312l-3.117-3.74z"/></svg>