<!-- Generated by IcoMoon.io -->
<svg version="1.1" xmlns="http://www.w3.org/2000/svg" width="24" height="24" viewBox="0 0 24 24">
<title>flag1</title>
<path d="M2.291 23.97c0.439 0 0.791-0.356 0.791-0.791v-22.388c0.004-0.435-0.353-0.791-0.791-0.791-0.435 0-0.791 0.356-0.791 0.791v22.388c0 0.439 0.356 0.791 0.791 0.791zM11.212 1.144c-3.476-2.036-6.139-0.615-7.061 0.42-0.292 0.326-0.262 0.829 0.064 1.118 0.326 0.292 0.829 0.262 1.118-0.064 0.019-0.019 1.841-2.002 5.070-0.112 0.281 0.172 6.304 3.739 10.999 1.478-0.323 1.35-1.054 3.221-2.707 4.414-1.995 1.436-4.894 1.59-8.576 0.465-0.169-0.060-4.196-1.47-6.116 0.851-0.277 0.338-0.232 0.836 0.105 1.118 0.338 0.277 0.836 0.232 1.118-0.105 1.005-1.215 3.491-0.679 4.399-0.356 1.789 0.548 3.427 0.818 4.905 0.818 2.006 0 3.713-0.502 5.107-1.511 3.454-2.494 3.6-7.106 3.604-7.301 0.008-0.315-0.172-0.604-0.454-0.735-0.285-0.135-0.619-0.086-0.855 0.12-3.922 3.401-10.643-0.57-10.718-0.615z"></path>
</svg>
