<!-- Generated by IcoMoon.io -->
<svg version="1.1" xmlns="http://www.w3.org/2000/svg" width="24" height="24" viewBox="0 0 24 24">
<title>flag11</title>
<path d="M3.74 2.182c0.312-0.312 0.312-0.623 0-0.935-0.312-0.623-0.935-0.935-1.558-0.623s-0.935 0.935-0.623 1.558c0.312 0.312 0.623 0.623 0.935 0.623l9.974 20.883c0 0.312 0.623 0.312 0.935 0.312s0.312-0.623 0.312-0.935l-9.974-20.883zM19.325 1.558s-0.935-1.558-3.74-0.312c-2.182 1.558-3.429 0.935-4.052-0.312s-3.117-1.87-7.169 1.247l4.364 9.351s0.623 0 2.182-1.87c0 0 0.623-0.623 1.558-0.623 0.623-0.312 1.87 0.312 1.87 0.312s0.935 0.312 2.182-0.312c1.247-0.623 1.87-1.87 3.117-3.429 0.312-0.935 2.805-0.312 2.805-0.312l-3.117-3.74z"></path>
</svg>
