<!-- Generated by IcoMoon.io -->
<svg version="1.1" xmlns="http://www.w3.org/2000/svg" width="24" height="24" viewBox="0 0 24 24">
<title>folder1</title>
<path d="M21.75 6h-10.5c-0.45 0-0.75-0.3-0.75-0.75v-1.501c0-1.2-1.050-2.25-2.25-2.25h-6c-1.2 0-2.25 1.050-2.25 2.25v16.5c0 1.2 1.050 2.25 2.25 2.25h19.5c1.2 0 2.25-1.050 2.25-2.25v-11.999c0-1.2-1.050-2.25-2.25-2.25zM22.5 20.25c0 0.45-0.3 0.75-0.75 0.75h-19.5c-0.45 0-0.75-0.3-0.75-0.75v-16.501c0-0.45 0.3-0.75 0.75-0.75h6c0.45 0 0.75 0.3 0.75 0.75v1.5c0 1.2 1.050 2.25 2.25 2.25h10.5c0.45 0 0.75 0.3 0.75 0.75z"></path>
</svg>
