<svg xmlns="http://www.w3.org/2000/svg" width="24" height="24"><path d="M3.984 12.984q0-3.281 2.344-5.625T12 5.015V.984L17.016 6 12 11.016V6.985q-2.438 0-4.219 1.758T6 12.985t1.781 4.242T12 18.985t4.219-1.758T18 12.985h2.016q0 3.328-2.367 5.672t-5.648 2.344-5.648-2.344-2.367-5.672zm9.329 2.204q0 .328.469.328.234 0 .328-.094l.188-.234q.094-.188.094-.281v-2.016q-.094-.188-.094-.281t-.211-.211-.305-.117q-.141 0-.281.141l-.188.188q-.094.188-.094.281v2.016q.094.188.094.281zm1.968-.985q0 .609-.094.797l-.281.609q-.328.281-.516.281-.094 0-.305.047t-.305.047q-.328 0-1.078-.375-.094-.047-.281-.609-.141-.422-.141-.797V13.5q0-.516.141-.797l.281-.609q.328-.281.516-.281.094 0 .281-.047t.281-.047q.422 0 .609.094.094.047.258.141t.258.141.281.609q.094.281.094.797v.703zM9.984 13.5q.703 0 .703-.609v-.188q-.094-.094-.094-.188t-.188-.094h-.516q-.094.094-.188.094t-.094.188v.188H8.576q0-.375.258-.727t.586-.352q.047 0 .234-.047t.234-.047q.563 0 1.125.281.375.188.375.891v.328q-.094.188-.094.281 0 .188-.188.188-.094 0-.328.234.422.234.516.375.188.375.188.609 0 .422-.094.516-.047.047-.141.188t-.141.188q-.188.188-.516.188-.094 0-.305.047t-.305.047q-.375 0-.469-.094-.047-.047-.234-.094t-.281-.094q-.422-.234-.422-.984h.844v.188q.094.094.094.188t.188.094h.516q.094-.094.188-.094t.094-.188v-.516q-.094-.094-.094-.188t-.188-.094h-.609V13.5h.375z"/></svg>