<svg xmlns="http://www.w3.org/2000/svg" width="24" height="24"><path d="M13.219 15.188q0 .328.469.328.234 0 .328-.094l.188-.234q.094-.188.094-.281v-2.016q-.094-.188-.094-.281t-.211-.211-.305-.117q-.141 0-.281.141l-.188.188q-.141.188-.141.281v2.016q.141.188.141.281zm1.875-.985q0 .609-.094.797l-.281.609q-.328.281-.516.281-.094 0-.305.047t-.305.047q-.422 0-.609-.094-.094-.047-.234-.141t-.234-.141q-.422-.234-.422-1.406v-.703q0-.609.094-.797l.328-.609q.281-.281.469-.281.094 0 .305-.047t.305-.047q.422 0 .609.094.094.047.258.141t.258.141.281.609q.094.281.094.797v.703zm-4.172 1.781h-.938v-3.281L9 12.984v-.703l1.781-.563h.141v4.266zm-6.938-3q0-3.281 2.344-5.625T12 5.015V.984L17.016 6 12 11.016V6.985q-2.438 0-4.219 1.758T6 12.985t1.781 4.242T12 18.985t4.219-1.758T18 12.985h2.016q0 3.328-2.367 5.672t-5.648 2.344-5.648-2.344-2.367-5.672z"/></svg>