<svg xmlns="http://www.w3.org/2000/svg" width="24" height="24"><path fill="red" d="M16.56 3c-2.41 0-4.52 1.24-5.88 2.97v3.79c1.82-5.05 5.88-4.68 5.88-4.68 2.94 0 5.28 2.3 5.28 5.12 0 2.84-2.34 5.13-5.28 5.13h-.017a5.303 5.303 0 0 1-3.704-1.501l.001.001-2.56-2.8a6.038 6.038 0 0 0-4.219-1.71h-.032.002c-3.33 0-6.03 2.61-6.03 5.84 0 3.24 2.7 5.84 6.03 5.84 1.87 0 3.55-.81 4.65-2.11v-3.03c-1.8 3.43-4.65 3.06-4.65 3.06-2.13 0-3.86-1.68-3.86-3.76 0-2.06 1.73-3.74 3.86-3.74 1.06 0 2.02.42 2.72 1.08l2.56 2.81a7.476 7.476 0 0 0 5.226 2.12h.026-.001c4.11 0 7.44-3.24 7.44-7.23S20.672 3 16.562 3z"/></svg>