<svg xmlns="http://www.w3.org/2000/svg" width="24" height="24"><path d="M18.897 0H5.104C4.001 0 3.035.965 3.035 2.069v2.345c0 .552.276.965.552 1.379l5.518 6.483c.138.138.138.276.138.414v9.242c0 1.103.965 2.069 2.069 2.069.276 0 .69-.138.965-.414l1.379-.69c.69-.276 1.103-.965 1.103-1.793v-8.552c0-.138 0-.276.138-.414l5.517-6.483c.414-.414.552-.828.552-1.379V2.069C20.966.966 20.001 0 18.897 0zM5.104 1.379h13.793c.414 0 .69.276.69.69v2.069H4.414V2.069c0-.414.276-.69.69-.69zm8.827 9.793c-.414.414-.552.828-.552 1.379v8.552c0 .138-.138.414-.414.552l-1.379.69c-.414.276-.965 0-.965-.552v-9.242c0-.552-.276-.965-.552-1.379L5.257 5.517h13.489z"/></svg>