<!-- Generated by IcoMoon.io -->
<svg version="1.1" xmlns="http://www.w3.org/2000/svg" width="24" height="24" viewBox="0 0 24 24">
<title>funnel</title>
<path d="M18.897 0h-13.793c-1.103 0-2.069 0.965-2.069 2.069v2.345c0 0.552 0.276 0.965 0.552 1.379l5.518 6.483c0.138 0.138 0.138 0.276 0.138 0.414v9.242c0 1.103 0.965 2.069 2.069 2.069 0.276 0 0.69-0.138 0.965-0.414l1.379-0.69c0.69-0.276 1.103-0.965 1.103-1.793v-8.552c0-0.138 0-0.276 0.138-0.414l5.517-6.483c0.414-0.414 0.552-0.828 0.552-1.379v-2.207c0-1.103-0.965-2.069-2.069-2.069zM5.104 1.379h13.793c0.414 0 0.69 0.276 0.69 0.69v2.069h-15.173v-2.069c0-0.414 0.276-0.69 0.69-0.69zM13.931 11.172c-0.414 0.414-0.552 0.828-0.552 1.379v8.552c0 0.138-0.138 0.414-0.414 0.552l-1.379 0.69c-0.414 0.276-0.965 0-0.965-0.552v-9.242c0-0.552-0.276-0.965-0.552-1.379l-4.812-5.655h13.489z"></path>
</svg>
