<svg xmlns="http://www.w3.org/2000/svg" width="24" height="24"><path fill="#2e75b4" d="M15.91 0C12.79 0 9.69 0 6.6.03c0 .05-.06.05-.09.08a10.551 10.551 0 0 0-3.653 2.563l-.007.007c-.84.87-1.52 1.9-2.06 3-.2.38-.38.79-.55 1.2-.02.08-.05.2-.13.25v6.22c.05.08.05.2.08.3a8.702 8.702 0 0 0 3.392 4.811l.028.019c.03.03.05.09.11.06-.03-.03-.03-.06-.06-.08-.24-.36-.46-.69-.67-1.04a9.001 9.001 0 0 1-1.32-4.72c0-.299.014-.595.043-.887l-.003.037a10.066 10.066 0 0 1 1.732-4.563l-.022.033a23.259 23.259 0 0 1 3.62-4.162l.02-.018a13.034 13.034 0 0 1 3.181-2.126L10.32.98a8.694 8.694 0 0 1 3.692-.81c.256 0 .51.011.76.032L14.739.2c.7.06 1.39.17 2.07.27l.19.03c.08.03.13.03.21.03-.38-.16-.76-.33-1.14-.44-.05-.02-.1-.02-.16-.09zm-1.66.66c-.43.02-.84.05-1.27.13-.74.14-1.44.36-2.15.58a7.48 7.48 0 0 0-1.477.639l.037-.019c-.02 0-.08 0-.08.06h.05a26.373 26.373 0 0 1 2.978-.327l.072-.003c.51-.03 1.06 0 1.57.08.76.11 1.47.39 2.12.77a10.876 10.876 0 0 1 4.372 4.637l.028.063c.756 1.587 1.251 3.436 1.378 5.385l.002.045c.06.65.06 1.34.03 2.02l-.08 1.14c-.03.33-.08.66-.14.99a6.116 6.116 0 0 1-.283 1.213l.013-.043a11.726 11.726 0 0 1-1.57 2.758l.02-.028c-.49.66-1.05 1.26-1.6 1.86-.08.08-.13.13-.19.22.06 0 .06-.03.08-.03a16.812 16.812 0 0 0 2.337-1.632l-.027.022a10.91 10.91 0 0 0 3.174-4.376l.026-.074.17-.41h.03v5.87c0 .02 0-9.17.02-15 0 .02 0 .05-.02.07l-.03-.09a10.759 10.759 0 0 0-1.539-2.755l.019.025a9.773 9.773 0 0 0-3.069-2.615L19.2 1.81A9.634 9.634 0 0 0 14.233.661h.017zm9.63 6.54l.01-.02V1.75zm-13-3.33c-.4-.04-.8.09-1.19.42a2.349 2.349 0 0 0-.615.884l-.005.016c-.33.8-.38 1.58-.22 2.4.11.63.4 1.18.92 1.58.52.44 1.12.5 1.66.2.33-.2.57-.44.76-.77.33-.57.46-1.2.46-1.85 0-.3-.02-.58-.08-.88a2.794 2.794 0 0 0-.624-1.404l.004.004a1.695 1.695 0 0 0-1.061-.599l-.009-.001zM16 5.15a2.375 2.375 0 0 0-1.717.827l-.003.003c-.3.27-.46.63-.65.98a3.01 3.01 0 0 0-.38 1.533V8.49c0 .38.05.74.21 1.1.28.65.8 1 1.44 1 .47 0 .85-.16 1.2-.43a3.756 3.756 0 0 0 1.498-2.552l.002-.018c.05-.46 0-.93-.17-1.4-.16-.4-.4-.75-.82-.92a1.58 1.58 0 0 0-.61-.12zM6.38 7.56c-.44.03-.84.2-1.11.6-.36.5-.47 1.07-.5 1.64-.02.6.12 1.15.39 1.67.22.43.51.82.92 1.1.52.34 1.17.34 1.63.02.27-.2.46-.47.6-.77.27-.63.32-1.3.16-1.99a3.308 3.308 0 0 0-1.056-1.857l-.003-.003c-.3-.24-.62-.4-1.03-.41zm11.86 2.64l-.064-.001c-.305 0-.593.074-.847.206l.01-.005a3.521 3.521 0 0 0-1.802 1.946l-.008.024c-.122.28-.193.607-.193.95 0 .224.03.441.087.647l-.004-.017c.14.5.4.85.9.99.19.05.4.08.6.08.32 0 .54-.03.8-.17.53-.24.93-.6 1.28-1.03a2.881 2.881 0 0 0 .626-2.479l.003.019a1.302 1.302 0 0 0-1.083-1.119l-.007-.001a1.813 1.813 0 0 0-.295-.04h-.005zm-7.11 1.65c-.08 0-.22 0-.35.03a3.567 3.567 0 0 0-1.519.409l.019-.009c-.6.34-1.1.77-1.57 1.26a10.104 10.104 0 0 0-1.365 1.785l-.025.045c-.21.38-.35.8-.32 1.23.03.25.03.47.14.68.3.39.7.66 1.19.77.46.08.92.03 1.38-.03.52-.05 1-.1 1.5-.08.78.05 1.5.3 2.12.79.24.2.46.41.73.6.51.36 1.06.52 1.68.38.52-.1.87-.43.98-.95.1-.44.08-.85.02-1.29a9.496 9.496 0 0 0-.39-1.567l.02.067a9.94 9.94 0 0 0-1.025-2.304l.025.044c-.3-.5-.66-.93-1.15-1.26a3.642 3.642 0 0 0-2.015-.601l-.079.001h.004zM.11 14.64v2.13c.1.13.16.3.22.46a12.835 12.835 0 0 0 2.423 4.196l-.013-.016a9.624 9.624 0 0 0 3.764 2.538l.066.022c.03 0 .05.03.08.03h8.01c.03-.03.03-.03.05-.03a8.666 8.666 0 0 0 2.027-.921l-.037.021a11.475 11.475 0 0 0 4.23-4.732l.03-.068c.43-1.01.65-2.08.7-3.2a.416.416 0 0 0-.001-.243l.001.003c-.02.02-.05.05-.05.08l-.22.7a8.313 8.313 0 0 1-1.874 3.204l.004-.004a8.09 8.09 0 0 1-2.796 1.891l-.054.019c-.95.39-1.95.55-2.99.6-.76.03-1.49 0-2.22-.05a24.438 24.438 0 0 1-3.26-.469l.16.029a15.457 15.457 0 0 1-3.835-1.401l.085.041a10.23 10.23 0 0 1-3.283-2.738l-.017-.022a7.468 7.468 0 0 1-1.182-2.019L.11 14.64z"/></svg>