<svg xmlns="http://www.w3.org/2000/svg" width="24" height="24"><path d="M21.563 2.474c-.8-.8-1.86-1.247-2.995-1.247a4.208 4.208 0 0 0-3.832 2.456l-2.214-2.214a.74.74 0 0 0-1.06 0L1.415 11.516a.74.74 0 0 0 0 1.06l10.047 10.047c.149.149.335.223.54.223s.391-.074.54-.223l3.2-3.2c.205-.205.279-.521.167-.8s-.353-.465-.651-.484a2.861 2.861 0 0 1-1.73-.781c-.521-.521-.8-1.209-.8-1.935s.279-1.414.8-1.935 1.209-.8 1.935-.8 1.414.279 1.935.8c.465.465.744 1.079.781 1.73a.725.725 0 0 0 .484.651.747.747 0 0 0 .8-.167l3.107-3.107c.149-.149.223-.335.223-.54s-.074-.391-.223-.54l-2.214-2.214a4.524 4.524 0 0 0 1.209-.837c1.656-1.656 1.656-4.353 0-5.991zm-1.061 4.912a2.657 2.657 0 0 1-1.656.781c-.298.037-.54.223-.633.502s-.037.577.186.781l2.586 2.586-1.637 1.637a3.957 3.957 0 0 0-.874-1.265c-.8-.8-1.86-1.246-2.995-1.246s-2.195.447-2.995 1.246-1.246 1.86-1.246 2.995.447 2.195 1.246 2.995c.372.372.8.67 1.265.874l-1.73 1.73-9.005-8.967 8.967-8.967 2.586 2.586a.767.767 0 0 0 .781.186.769.769 0 0 0 .502-.633 2.667 2.667 0 0 1 .781-1.656c.521-.521 1.209-.8 1.935-.8s1.414.279 1.935.8c1.06 1.042 1.06 2.772 0 3.833z"/></svg>