<!-- Generated by IcoMoon.io -->
<svg version="1.1" xmlns="http://www.w3.org/2000/svg" width="24" height="24" viewBox="0 0 24 24">
<title>game</title>
<path d="M21.563 2.474c-0.8-0.8-1.86-1.247-2.995-1.247s-2.195 0.447-2.995 1.247c-0.353 0.353-0.633 0.763-0.837 1.209l-2.214-2.214c-0.298-0.298-0.781-0.298-1.060 0l-10.047 10.047c-0.298 0.298-0.298 0.763 0 1.060l10.047 10.047c0.149 0.149 0.335 0.223 0.54 0.223s0.391-0.074 0.54-0.223l3.2-3.2c0.205-0.205 0.279-0.521 0.167-0.8s-0.353-0.465-0.651-0.484c-0.651-0.056-1.265-0.335-1.73-0.781-0.521-0.521-0.8-1.209-0.8-1.935s0.279-1.414 0.8-1.935 1.209-0.8 1.935-0.8 1.414 0.279 1.935 0.8c0.465 0.465 0.744 1.079 0.781 1.73 0.019 0.298 0.205 0.558 0.484 0.651 0.279 0.112 0.595 0.037 0.8-0.167l3.107-3.107c0.149-0.149 0.223-0.335 0.223-0.54s-0.074-0.391-0.223-0.54l-2.214-2.214c0.447-0.205 0.856-0.502 1.209-0.837 1.656-1.656 1.656-4.353 0-5.991zM20.502 7.386c-0.447 0.447-1.023 0.726-1.656 0.781-0.298 0.037-0.54 0.223-0.633 0.502s-0.037 0.577 0.186 0.781l2.586 2.586-1.637 1.637c-0.205-0.465-0.502-0.912-0.874-1.265-0.8-0.8-1.86-1.246-2.995-1.246s-2.195 0.447-2.995 1.246-1.246 1.86-1.246 2.995 0.447 2.195 1.246 2.995c0.372 0.372 0.8 0.67 1.265 0.874l-1.73 1.73-9.005-8.967 8.967-8.967 2.586 2.586c0.205 0.205 0.521 0.279 0.781 0.186 0.279-0.093 0.465-0.353 0.502-0.633 0.056-0.633 0.335-1.209 0.781-1.656 0.521-0.521 1.209-0.8 1.935-0.8s1.414 0.279 1.935 0.8c1.060 1.042 1.060 2.772 0 3.833z"></path>
</svg>
