<svg height="24" width="24" xmlns="http://www.w3.org/2000/svg"><path d="M22.2 19.425c-1.875.375-3.225-1.65-3.225-1.65l-1.35-2.325s-.75.75-1.95.75c-2.175-.15-2.7-1.875-2.7-1.875h-2.1s-.6 1.875-2.7 1.875c-1.2-.075-1.95-.75-1.95-.75S5.1 17.55 4.65 18c-.375.45-1.725 1.875-3.3 1.2C-.15 18.6 0 17.175 0 17.175l.6-6.9S.45 7.575 2.4 6.6l.3-1.05s.225-.975 1.725-.975C6.6 4.65 6.6 5.625 6.6 5.625s.15.675.15.825l.375.375h9.825s.15-.15.3-.225c0 0 .075-.825.225-1.2s.6-.75 1.425-.825 2.1-.15 2.4.9.3.975.3.975 1.725.975 1.8 3.075c-.075 1.95.6 7.725.6 7.725s.15 1.575-1.8 2.175zM4.35 6.6c-1.65 0-2.925 1.275-2.925 2.925s1.35 2.925 2.925 2.925 2.925-1.275 2.925-2.925S5.925 6.6 4.35 6.6zm2.1 6.825c0 .975.825 1.725 1.8 1.725s1.8-.75 1.8-1.725-.825-1.725-1.8-1.725-1.8.75-1.8 1.725zm3.675-4.05H8.55v.675h1.575zm2.625 2.25h-1.5v1.05h1.5zm.75-2.4v.975l1.5-.525zm.525 4.2c0 .975.825 1.725 1.8 1.725s1.8-.75 1.8-1.725-.825-1.725-1.8-1.725c-1.05 0-1.8.75-1.8 1.725zM19.65 6.6c-1.65 0-2.925 1.275-2.925 2.925s1.35 2.925 2.925 2.925 2.925-1.275 2.925-2.925S21.3 6.6 19.65 6.6zm.825 2.925c0-.45.375-.75.75-.75.45 0 .75.375.75.75s-.375.75-.75.75-.75-.3-.75-.75zM19.65 8.7a.752.752 0 0 1-.75-.75c0-.45.375-.75.75-.75s.75.375.75.75c.075.375-.3.75-.75.75zm-1.575 1.575c-.45 0-.75-.375-.75-.75s.375-.75.75-.75.75.375.75.75-.3.75-.75.75zm1.575.075c.45 0 .75.375.75.75s-.375.75-.75.75-.75-.375-.75-.75.375-.75.75-.75zM4.5 9.525l.675-.675h.975v1.35h-.975zm-.825-.9V7.65h1.35v.975L4.35 9.3zM3.45 10.2h-.975V8.85h.975l.675.675zm1.575.225v.975h-1.35v-.975l.675-.675z"/></svg>