<!-- Generated by IcoMoon.io -->
<svg version="1.1" xmlns="http://www.w3.org/2000/svg" width="24" height="24" viewBox="0 0 24 24">
<title>gaming-console</title>
<path d="M22.2 19.425c-1.875 0.375-3.225-1.65-3.225-1.65l-1.35-2.325s-0.75 0.75-1.95 0.75c-2.175-0.15-2.7-1.875-2.7-1.875h-2.1s-0.6 1.875-2.7 1.875c-1.2-0.075-1.95-0.75-1.95-0.75s-1.125 2.1-1.575 2.55c-0.375 0.45-1.725 1.875-3.3 1.2-1.5-0.6-1.35-2.025-1.35-2.025l0.6-6.9s-0.15-2.7 1.8-3.675l0.3-1.050s0.225-0.975 1.725-0.975c2.175 0.075 2.175 1.050 2.175 1.050s0.15 0.675 0.15 0.825l0.375 0.375h9.825s0.15-0.15 0.3-0.225c0 0 0.075-0.825 0.225-1.2s0.6-0.75 1.425-0.825 2.1-0.15 2.4 0.9c0.3 1.050 0.3 0.975 0.3 0.975s1.725 0.975 1.8 3.075c-0.075 1.95 0.6 7.725 0.6 7.725s0.15 1.575-1.8 2.175zM4.35 6.6c-1.65 0-2.925 1.275-2.925 2.925s1.35 2.925 2.925 2.925 2.925-1.275 2.925-2.925-1.35-2.925-2.925-2.925zM6.45 13.425c0 0.975 0.825 1.725 1.8 1.725s1.8-0.75 1.8-1.725c0-0.975-0.825-1.725-1.8-1.725s-1.8 0.75-1.8 1.725zM10.125 9.375h-1.575v0.675h1.575v-0.675zM12.75 11.625h-1.5v1.050h1.5v-1.050zM13.5 9.225v0.975l1.5-0.525-1.5-0.45zM14.025 13.425c0 0.975 0.825 1.725 1.8 1.725s1.8-0.75 1.8-1.725c0-0.975-0.825-1.725-1.8-1.725-1.050 0-1.8 0.75-1.8 1.725zM19.65 6.6c-1.65 0-2.925 1.275-2.925 2.925s1.35 2.925 2.925 2.925 2.925-1.275 2.925-2.925-1.275-2.925-2.925-2.925zM20.475 9.525c0-0.45 0.375-0.75 0.75-0.75 0.45 0 0.75 0.375 0.75 0.75s-0.375 0.75-0.75 0.75-0.75-0.3-0.75-0.75zM19.65 8.7c-0.45 0-0.75-0.375-0.75-0.75 0-0.45 0.375-0.75 0.75-0.75s0.75 0.375 0.75 0.75c0.075 0.375-0.3 0.75-0.75 0.75zM18.075 10.275c-0.45 0-0.75-0.375-0.75-0.75s0.375-0.75 0.75-0.75 0.75 0.375 0.75 0.75-0.3 0.75-0.75 0.75zM19.65 10.35c0.45 0 0.75 0.375 0.75 0.75s-0.375 0.75-0.75 0.75-0.75-0.375-0.75-0.75 0.375-0.75 0.75-0.75zM4.5 9.525l0.675-0.675h0.975v1.35h-0.975l-0.675-0.675zM3.675 8.625v-0.975h1.35v0.975l-0.675 0.675-0.675-0.675zM3.45 10.2h-0.975v-1.35h0.975l0.675 0.675-0.675 0.675zM5.025 10.425v0.975h-1.35v-0.975l0.675-0.675 0.675 0.675z"></path>
</svg>
