<svg xmlns="http://www.w3.org/2000/svg" width="24" height="24"><path fill="#639" d="M12.001.007C5.326.007.007 5.326.007 12S5.326 23.995 12 23.995s11.994-5.319 11.994-11.994S18.676.007 12.001.007zM2.614 12.105l9.283 9.283c-5.111 0-9.283-4.172-9.283-9.283zm11.473 9.074L2.823 9.915C3.76 5.743 7.516 2.614 12 2.614a9.462 9.462 0 0 1 7.596 3.835l.018.025-1.355 1.146c-1.398-2.026-3.707-3.337-6.322-3.337h-.042.002-.049A7.557 7.557 0 0 0 4.716 9.34l-.016.053 9.804 9.805c2.4-.835 4.276-2.92 4.798-5.424h-4.068v-1.773h6.154c0 4.485-3.129 8.24-7.301 9.178z"/></svg>