<svg xmlns="http://www.w3.org/2000/svg" width="24" height="24"><path fill="#5c5543" d="M23.58 2.4c-.963 1.206-2.55 6.476-11.46 6.71-4.253.112-6.36-4.731-6.36-4.731l-.334 7.771c-.831-1.042-1.945-1.705-3.014-1.74a2.22 2.22 0 0 0-1.446.445l.006-.004c-.663.502-.977 1.345-.97 2.28s.33 1.965.97 2.896 1.476 1.587 2.324 1.89c.456.164.916.214 1.35.157 6.029 4.808 22.152 8.483 18.935-15.674zM8.404 8.85c1.265 0 2.314.94 2.614 2.196.484-1.19 1.614-2.027 2.931-2.027 1.758 0 3.178 1.49 3.178 3.322s-1.42 3.334-3.178 3.334c-1.531 0-2.81-1.14-3.115-2.644-.437.978-1.353 1.666-2.43 1.666-.915 0-1.716-.497-2.203-1.246a5.449 5.449 0 0 0-.304-.594l.015.027a3.056 3.056 0 0 1-.205-1.112v-.001c0-1.604 1.198-2.922 2.697-2.921zm0 .36c-1.284 0-2.33 1.138-2.33 2.561s1.046 2.559 2.33 2.559c.214 0 .417-.043.614-.102-.898-.036-1.613-.808-1.614-1.756.001-.971.751-1.758 1.676-1.758.795 0 1.461.581 1.633 1.361l.002.012c.012-.105.029-.207.029-.316 0-1.423-1.056-2.56-2.34-2.561zm5.545.131c-1.576 0-2.86 1.334-2.86 3s1.284 3.008 2.86 3.008c.591 0 1.14-.188 1.596-.512a2.038 2.038 0 0 1-.858.19c-1.184-.001-2.144-1.009-2.144-2.252 0-1.243.96-2.251 2.144-2.252h.001c1.048 0 1.921.788 2.109 1.831l.002.014.003-.026c0-1.667-1.277-3-2.853-3.001zm-11.545 1.39c1.038.035 2.206.77 3.008 1.936.606.882.914 1.866.92 2.727s-.282 1.589-.846 2.016c-.564.426-1.31.48-2.082.205-.772-.277-1.564-.883-2.17-1.764-.605-.881-.911-1.867-.917-2.728-.007-.862.282-1.589.845-2.016a1.906 1.906 0 0 1 1.247-.375h-.005zm11.69.245c-.556 0-1.006.473-1.006 1.056v.003c.001.582.451 1.054 1.006 1.054.555-.001 1.004-.472 1.005-1.054v-.003c0-.583-.45-1.055-1.005-1.056zm-5.645.22c-.365 0-.661.311-.662.694v.002c0 .384.296.695.662.695.366 0 .662-.311.662-.695v-.002c-.001-.383-.297-.694-.662-.694zm-6.414.223h-.001c-.617 0-1.118.63-1.118 1.407 0 .778.501 1.408 1.118 1.408h.002c.617-.001 1.116-.631 1.116-1.408 0-.777-.5-1.406-1.117-1.407zm14.176 3.998s1.487.435 2.011 1.145c.523.708.194 1.145.057 2.05-.202-.528-.407-.942-.621-1.183-.81 1.259-3.104 1.858-6.18 1.559 1.38-.072 2.451-.288 3.301-.584-1.4.09-3.214-.27-5.365-1.067 4.262.895 6.433.063 7.703-.966-.335-.455-.906-.954-.906-.954z"/></svg>