<svg xmlns="http://www.w3.org/2000/svg" width="24" height="24"><path fill="#fca121" d="M4.844.904a1.007 1.007 0 0 0-.953.685l-.002.007-2.53 7.783c0 .007-.005.012-.007.02L.07 13.335a1.438 1.438 0 0 0 .518 1.604l.004.003 11.072 8.045a.563.563 0 0 0 .671-.005l-.001.001 11.074-8.04a1.436 1.436 0 0 0 .519-1.62l.003.01-1.26-3.867a.568.568 0 0 0-.032-.108l.001.004-2.526-7.775a1.007 1.007 0 0 0-.952-.684h-.014a.987.987 0 0 0-.939.683l-.002.007L15.8 9.001H8.202l-2.41-7.408a.99.99 0 0 0-.941-.69h-.002zm-.006 1.42l2.174 6.678H2.674zm14.328 0l2.168 6.678h-4.342zm-10.594 7.81h6.862l-2.15 6.618L12 20.693zm-5.515.005h4.322l3.086 9.5zm13.568 0h4.326l-7.412 9.502 2.959-9.108zM2.1 10.762l6.978 8.947-7.818-5.682a.305.305 0 0 1-.112-.343l-.001.002zm19.8 0l.952 2.922a.306.306 0 0 1-.109.341l-.001.001v.002l-7.82 5.68.025-.035z"/></svg>