<svg xmlns="http://www.w3.org/2000/svg" width="24" height="24"><path fill="#33f" d="M23.8 12.57c-.29-.15-3.4 1.4-4.07 1.27-1.68-.3-1.37-.5-3.63-1.02-.9-.2-.77-.08-.97-.23-.13-.1-.26-.12-.45-.3 3-.54 4.52-1.27 5.05-1.38.57-.11 3.87 1.47 4.07 1.1s-.72-1.18-.3-2.27c.44-1.1-.52-1.82.01-2.69.54-.87.43-2.2.3-2.27-.3-.15-3.4 1.4-4.08 1.27-1.68-.31-1.37-.51-3.63-1.02-.9-.2-.77-.09-.97-.24s-.39-.1-.78-.73-4.88-1.6-5.18-1.6c-.62 0-1.78 1.6-1.78 1.6s-.45 0-1.8.07-2.53.67-4.12 1.92C-.13 7.3.1 8.56.1 8.56s1.48.5 1.48.78c0 .27-1.3.6-1.3.6C1.12 11 3.72 12 4.38 12h.52c-1.08.21-2.12.8-3.44 1.83C-.13 15.1.1 16.36.1 16.36s1.48.5 1.48.77-1.3.6-1.3.6c.84 1.07 3.44 2.07 4.1 2.07.63 0 1.07.02 1.87-.13.06.13.68 1.45 1.95 1.72 1.34.29 2.08.06 2.08.06s.07-.59-.24-1.18c1.16.12 2.48.15 3.77-.05 3.57-.54 5.34-1.4 5.92-1.51.57-.12 3.87 1.46 4.07 1.1.2-.38-.72-1.19-.29-2.28.43-1.1-.53-1.81 0-2.69.54-.87.43-2.2.29-2.27zM3.46 8.87a.994.994 0 0 1-.227-.031l.007.002H3.2a2.487 2.487 0 0 1-.074-.037l.014.007-.04-.01-.06-.03H3l-.052-.031.002.001-.05-.04-.05-.03-.04-.03-.052-.041.002.001-.03-.03a.924.924 0 0 1-.048-.058l-.002-.002-.02-.02a1.763 1.763 0 0 1-.067-.077l-.003-.003-.02-.02a.98.98 0 0 1-.037-.073l-.003-.007-.06-.09a.895.895 0 0 0-.022-.055l.002.005-.02-.06-.02-.04a.898.898 0 0 1-.009-.062L2.4 8.001l-.01-.05a.49.49 0 0 1-.019-.055l-.001-.005v-.05c.07.43.42.76.83.76.47 0 .86-.43.86-.97s-.38-.98-.86-.98c-.47 0-.85.43-.86.96 0-.7.5-1.27 1.12-1.27s1.11.56 1.11 1.26-.5 1.27-1.11 1.27zm-.75-.95c0-.15.1-.27.24-.27s.23.12.23.27-.1.26-.23.26-.24-.12-.24-.26zm.75 8.74a.91.91 0 0 1-.113 0h.003l-.04-.01a.707.707 0 0 1-.075-.011l.005.001-.04-.01-.06-.02-.04-.02-.064-.021.004.001-.04-.02a.617.617 0 0 1-.053-.032l.003.002-.04-.02-.05-.04-.04-.03a.76.76 0 0 1-.051-.041l.001.001-.03-.03a.749.749 0 0 1-.069-.069l-.001-.001a1.611 1.611 0 0 1-.067-.086L2.6 16.2l-.02-.02a1.11 1.11 0 0 1-.037-.064l-.003-.006-.02-.04-.037-.055-.003-.005-.02-.04-.02-.07-.02-.04c.002.013-.005-.011-.011-.034L2.4 15.79l-.01-.04a.905.905 0 0 1-.019-.065l-.001-.005v-.05c.07.43.42.76.83.76.47 0 .86-.43.86-.97s-.38-.97-.86-.97c-.47 0-.85.42-.86.95 0-.7.5-1.27 1.12-1.27s1.11.57 1.11 1.26-.5 1.27-1.11 1.27zm-.75-.95c0-.14.1-.26.24-.26s.23.12.23.26-.1.26-.23.26-.24-.11-.24-.26zm5.08-5.5v-.03l.03-.06.06-.22c.103-.306.227-.751.334-1.203l.026-.127c.12-.53.17-.96.15-1.2a3.016 3.016 0 0 0-.043-.289l.003.019a5.898 5.898 0 0 0-.212-.832l.012.042a7.23 7.23 0 0 0-.21-.553l.02.053-.06-.13-.02-.05c-.09-.2.04-.43.24-.42h.14l.4.03 1.58.08.86.06c2.92.197 5.62.958 8.052 2.175L19.03 7.5l.67.3c.13.06.2.23.14.38-.05.14-.2.22-.33.16l-.67-.3c-2.263-1.142-4.907-1.892-7.705-2.086l-.065-.004-.86-.05-.38-.02-1.2-.07h-.12c.123.319.24.71.329 1.112l.011.058.05.32c.03.34-.03.81-.17 1.41l-.15.62c-.126.483-.225.813-.333 1.14l.043-.15-.02.06-.001.015.001.016v-.001c-.05.14-.2.22-.33.16-.13-.05-.2-.22-.15-.36zm-1.5-4.76a.228.228 0 0 1 .172-.077c.077 0 .146.038.187.097v.001c.146.181.285.384.408.597l.012.023c.22.4.37.8.41 1.21.02.23 0 .49-.04.77a6.219 6.219 0 0 1-.212.874l.012-.044a7.898 7.898 0 0 1-.27.744l.02-.054c-.06.14-.21.2-.34.13s-.18-.24-.12-.39l.02-.04.05-.13c.04-.095.095-.244.144-.395l.016-.055a4.97 4.97 0 0 0 .175-.718l.005-.032c.04-.23.05-.43.04-.6a2.603 2.603 0 0 0-.347-.982l.007.012a4.084 4.084 0 0 0-.337-.509l.007.009-.03-.03a.318.318 0 0 1 .011-.41zm1.15 10.4a6.142 6.142 0 0 1-.212.894l.012-.044a7.717 7.717 0 0 1-.271.734l.021-.054c-.06.14-.21.2-.34.13s-.18-.24-.12-.39l.02-.04.05-.13c.04-.095.095-.244.144-.395l.016-.055a4.97 4.97 0 0 0 .175-.718l.005-.032c.04-.23.05-.43.03-.6a2.583 2.583 0 0 0-.337-.972l.007.012a4.084 4.084 0 0 0-.337-.509l.007.009-.03-.04a.318.318 0 0 1 .02-.401.23.23 0 0 1 .35-.001c.147.184.286.39.408.607l.012.023c.22.4.37.81.41 1.21.02.23 0 .49-.04.76zm12.4.12c-.05.14-.2.22-.33.16l-.67-.3c-2.263-1.142-4.907-1.892-7.705-2.086l-.065-.004-.85-.05h-.05l-.34-.02c1.906.079 1.448.054.989.029L8.51 13.6l.03.06c.162.414.288.896.356 1.397l.004.033c.03.34-.03.81-.17 1.41l-.15.62c-.126.486-.225.82-.332 1.151l.042-.151-.02.05-.001.015.001.016V18.2c-.05.15-.2.22-.33.17-.13-.06-.2-.23-.15-.38v-.02l.03-.06.06-.22c.103-.306.227-.751.334-1.203l.026-.127c.12-.53.17-.96.15-1.2a3.016 3.016 0 0 0-.043-.289l.003.019a5.898 5.898 0 0 0-.212-.832l.012.042a7.878 7.878 0 0 0-.21-.542l.02.052-.04-.09-.04-.1c-.09-.2.04-.43.24-.42h.14l.4.03 1.59.08.85.06c2.92.196 5.62.957 8.052 2.175l-.122-.055.67.3c.13.06.2.23.14.38z"/></svg>