<svg xmlns="http://www.w3.org/2000/svg" width="24" height="24"><path fill="#0093dd" d="M2.968 11.583h1.274V7.76A7.76 7.76 0 0 1 12.002 0h.005a7.76 7.76 0 0 1 7.76 7.76v3.786c-.018.01-.037.028-.056.037l-.01.01-.008.009h-.01l-.019.019h-.028l-.018.018h-.02l-.018.01h-.01l-.009.01-.009.009h-.01l-.009.009-.009.01-.01.009-.009.009-.028.019-.019.01-.028.018-.018.01-.02.009-.027.018-.019.01-.01.009-.027.019-.02.01-.046.027-.019.01-.038.019h-.008l-.057.027h-.019c-.018.01-.037.02-.065.038h-.01l-.009.01-.028.018-.018.01-.029.018-.018.01h-.01l-.028.018-.018.01-.02.009c-.018.01-.046.019-.065.028l-.018.01-.02.009-.037.018-.037.02-.047.018-.047.019-.019.009-.037.019-.019.01c-1.545.739-4.017 1.516-8.708 1.853-3.362.244-5.403 1.723-6.724 3.502zm4.842 0h8.371V7.761a4.184 4.184 0 0 0-4.184-4.184h-.003A4.184 4.184 0 0 0 7.81 7.761v.002zm13.222 1.461V24H5.572c1.704-.946 2.968-.852 5.075-.787 2.865.094 6.03-1.105 7.585-2.696 1.554-1.592-.14-.375-1.901.074-1.76.45-5.17.497-7.454-.103 7.173.094 9.973-2.219 11.555-4.307 1.583-2.079-.683-.365-2.153.356s-4.036 1.227-6.864.852c4.27-.01 7.52-2.144 9.617-4.345z"/></svg>