<!-- Generated by IcoMoon.io -->
<svg version="1.1" xmlns="http://www.w3.org/2000/svg" width="24" height="24" viewBox="0 0 24 24">
<title>google-assistant</title>
<path d="M22.425 10.425c-0.825 0-1.575-0.675-1.575-1.575s0.675-1.575 1.575-1.575 1.575 0.675 1.575 1.575-0.675 1.575-1.575 1.575zM18.225 15.3c-1.575 0-2.925-1.275-2.925-2.85s1.275-2.85 2.925-2.85 2.925 1.275 2.925 2.85-1.35 2.85-2.925 2.85zM18.3 16.425c1.875 0 3.45 1.5 3.45 3.45s-1.5 3.375-3.45 3.375-3.45-1.5-3.45-3.45 1.575-3.375 3.45-3.375zM7.35 15.3c-4.050 0-7.35-3.225-7.35-7.275s3.3-7.275 7.35-7.275 7.35 3.225 7.35 7.275-3.3 7.275-7.35 7.275z"></path>
</svg>
