<svg xmlns="http://www.w3.org/2000/svg" width="24" height="24"><path d="M24 10l-3.134 7h-.968l1.163-2.45L19 10h1.02l1.49 3.49h.02L22.978 10zm-13.017 2.166V15H10V8h2.607l.062-.001c.623 0 1.193.23 1.628.609l-.003-.003c.458.377.715.915.706 1.478v.023c0 .591-.274 1.117-.702 1.459l-.004.003c-.455.398-1.018.596-1.687.596h-1.624zm-.002-3.304v2.444h1.648c.365.01.718-.122.973-.362.252-.225.395-.533.395-.856 0-.322-.143-.63-.395-.855a1.34 1.34 0 0 0-.928-.372l-.048.001h.002-1.648zM16.972 10c.627 0 1.122.174 1.485.522.362.348.543.826.543 1.432v2.893h-.811v-.652h-.037c-.351.537-.818.805-1.4.805-.498 0-.914-.153-1.25-.46A1.49 1.49 0 0 1 15 13.423v-.035.002c0-.485.177-.871.53-1.158s.825-.43 1.415-.431c.503 0 .918.096 1.243.287v-.201-.011c0-.306-.135-.581-.349-.768l-.001-.001a1.167 1.167 0 0 0-.806-.322h-.013.001c-.474 0-.849.208-1.124.623l-.747-.488c.41-.613 1.018-.92 1.823-.92zm-1.097 3.41v.007c0 .231.11.436.28.567l.002.001c.187.153.42.234.659.23.357-.001.7-.15.953-.412.26-.24.422-.583.422-.963v-.004c-.265-.22-.633-.329-1.106-.329-.345 0-.632.087-.862.26-.232.174-.348.387-.348.643zM4.081 8h.05a3.95 3.95 0 0 1 2.683 1.045l-.003-.003-1.164 1.142a2.231 2.231 0 0 0-1.526-.6h-.042.002a2.438 2.438 0 0 0-2.286 1.633l-.005.017a2.352 2.352 0 0 0 .005 1.548l-.005-.016a2.442 2.442 0 0 0 2.29 1.65h.001c.551 0 1.023-.138 1.39-.381.429-.28.723-.72.814-1.217H4.081v-1.54H7.93c.045.243.07.523.07.81v.004c0 1.217-.444 2.247-1.214 2.943-.676.612-1.604.966-2.705.966h-.017a4.087 4.087 0 0 1-3.618-2.182l-.011-.022C.161 13.275 0 12.657 0 12.001s.161-1.274.445-1.818l-.01.022a4.096 4.096 0 0 1 3.629-2.204h.016z"/></svg>