<svg xmlns="http://www.w3.org/2000/svg" width="24" height="24"><path fill="#4285f4" d="M16.214 8.69l6.715-1.679A11.846 11.846 0 0 1 24 11.972C24 18.57 18.569 24 11.968 24c-.302 0-.605-.011-.907-.034l4.905-8.347c.356-.376.655-.803.881-1.271a5.37 5.37 0 0 0 .523-2.33c0-.881-.209-1.713-.58-2.45l.014.031a5.213 5.213 0 0 0-.597-.919l.007.009zm-3.24 8.575l-2.121 6.682C4.738 23.345 0 18.14 0 11.977 0 9.592.709 7.26 2.038 5.279l4.834 8.377c.18.539 1.119 2.581 3.067 3.327.998.382 2.041.481 3.035.282zM11.973 7.62c-2.006.019-3.878 1.544-4.281 3.512a4.463 4.463 0 0 0 1.237 4.031c1.214 1.186 3.14 1.578 4.734.927 1.408-.576 2.47-1.927 2.691-3.431.272-1.856-.788-3.832-2.495-4.629a4.34 4.34 0 0 0-1.86-.411h-.028.001zM7.046 9.962L2.259 4.963C4.473 1.942 8.008.001 11.997 0c4.56 0 8.744 2.592 10.774 6.675H12.558c-1.811-.125-3.288.52-4.265 1.453a5.36 5.36 0 0 0-1.234 1.799l-.013.035z"/></svg>