<svg xmlns="http://www.w3.org/2000/svg" width="24" height="24"><path fill="#4285f4" d="M11.994 1.046h.022c.899.002 1.73.301 2.398.805l.003.001.001.001c.459.348.833.781 1.106 1.278l.01.021 4.467 7.769.025.065 3.419 5.927c.349.58.555 1.279.555 2.027v.008c0 .565-.117 1.104-.329 1.592l.006.016a3.92 3.92 0 0 1-.638.997l.004-.004a3.999 3.999 0 0 1-1.026.858l-.019.01a3.941 3.941 0 0 1-1.943.537H19.984a3.97 3.97 0 0 1-2.408-.812l.01.007-.003-.001v-.001h-.001a4.043 4.043 0 0 1-1.106-1.278l-.01-.021-4.467-7.769-.025-.065-3.435-5.955a3.932 3.932 0 0 1-.539-2v-.007c0-.424.066-.832.188-1.215v-.001l.008-.025.01-.03c.052-.157.117-.337.117-.337.158-.358.371-.689.626-.984l.063-.072.014-.015.002-.003.003-.003.009-.01.006-.007c.27-.296.59-.557.956-.767a3.941 3.941 0 0 1 1.943-.537h.003zM4.006 22.954h-.058a3.974 3.974 0 0 1-1.965-.547l.019.01a3.982 3.982 0 0 1-1.04-.863l-.005-.005a3.914 3.914 0 0 1-.624-.968l-.01-.025.006-.016A3.923 3.923 0 0 1 0 18.954v-.006c0-.743.202-1.439.555-2.035l3.419-5.927.025-.065 3.039-5.286c.076.648.276 1.281.596 1.856l.057.1 3.377 5.854-.003-.01.067.142.291.507-3.889 6.764a4.042 4.042 0 0 1-1.106 1.292l-.01.007h-.001v.001l-.003.001a3.957 3.957 0 0 1-2.398.805z"/></svg>