<svg xmlns="http://www.w3.org/2000/svg" width="24" height="24"><path fill="#4285f4" d="M12.19 2.38a9.347 9.347 0 0 0-9.219 6.827l-.016.066c.053-.02-.055.013 0 0-3.875 2.551-3.922 8.11-.247 10.941l.006-.007-.007.03a6.673 6.673 0 0 0 4.047 1.356h5.203l.03.03h5.192c6.687.053 9.376-8.605 3.835-12.35a9.402 9.402 0 0 0-2.812-4.544l-.009-.008-.043.043.006-.05A9.298 9.298 0 0 0 12.2 2.38h-.011zm-.358 4.146c1.244-.04 2.518.368 3.486 1.15a5.179 5.179 0 0 1 1.863 3.981l-.001.102v-.005.518c3.53-.07 3.53 5.262 0 5.193h-5.193l-.008.009v-.04H6.785c-.387 0-.754-.085-1.083-.237l.016.007h.001a2.603 2.603 0 0 1-1.526-2.366 2.597 2.597 0 0 1 4.956-1.087l.007.016 3.013-3.012a6.76 6.76 0 0 0-4.016-2.508L8.11 8.24c.018-.01.04-.026.054-.023a5.176 5.176 0 0 1 3.66-1.691h.008z"/></svg>