<svg xmlns="http://www.w3.org/2000/svg" width="24" height="24"><path d="M12 0h-.006C6.274 0 1.637 4.637 1.637 10.357v.006c0 5.427 4.949 9.818 10.363 9.818v3.818c6.3-3.191 10.363-8.333 10.363-13.637v-.005c0-5.721-4.637-10.358-10.358-10.358H12zm.027 4.227c.873 0 1.664.151 2.4.465s1.364.722 1.895 1.254c.532.532.94 1.145 1.24 1.855s.451 1.459.451 2.25c0 .45-.055.86-.15 1.242s-.246.722-.451 1.008c-.205.286-.45.518-.75.682s-.64.246-1.035.246c-.382 0-.735-.096-1.035-.287s-.547-.464-.725-.832a2.597 2.597 0 0 1-.873.825l-.012.007c-.355.191-.765.287-1.242.287h-.015a2.911 2.911 0 0 1-2.083-.873 3.07 3.07 0 0 1-.626-.942l-.008-.02-.007-.02a3.313 3.313 0 0 1-.232-1.23v-.027.001c0-.45.082-.872.232-1.254.164-.382.368-.709.641-.982.259-.273.574-.491.928-.641s.723-.232 1.105-.232.735.082 1.035.232.559.355.764.6h.096v-.613h1.295v3.832c0 .245.068.464.205.668s.355.312.641.312c.191 0 .354-.054.49-.176s.232-.286.314-.477c.082-.191.136-.424.164-.656.026-.216.04-.468.041-.722v-.001c0-.614-.123-1.201-.355-1.76a4.927 4.927 0 0 0-.981-1.46l.001.001c-.423-.423-.914-.749-1.486-.994s-1.187-.367-1.869-.367c-.655 0-1.267.122-1.84.354s-1.064.56-1.486.969c-.423.409-.751.9-.996 1.459-.245.573-.367 1.186-.367 1.855s.122 1.282.367 1.855.586 1.05 1.023 1.459a4.73 4.73 0 0 0 3.287 1.322c.75 0 1.404-.164 1.99-.477l.477 1.199a5.778 5.778 0 0 1-2.41.518h-.047.002c-.873 0-1.664-.149-2.414-.463-.736-.314-1.376-.724-1.908-1.256s-.956-1.145-1.256-1.855c-.3-.709-.449-1.471-.449-2.275s.149-1.555.449-2.277a5.771 5.771 0 0 1 3.126-3.109l.038-.014c.723-.314 1.527-.465 2.414-.465zM11.836 8.4c-.218 0-.436.041-.641.123s-.382.19-.545.34a1.44 1.44 0 0 0-.366.551l-.003.01c-.095.218-.135.462-.135.734s.04.518.135.736c.095.218.219.409.369.559.164.15.341.274.545.342.19.078.41.123.641.123s.451-.045.653-.128l-.012.004c.205-.082.382-.192.545-.342s.287-.327.369-.545c.095-.218.135-.464.135-.75s-.04-.532-.135-.75a1.743 1.743 0 0 0-.369-.545 1.753 1.753 0 0 0-1.186-.463z"/></svg>