<svg xmlns="http://www.w3.org/2000/svg" width="24" height="24"><path fill="#458cf5" d="M8.548 1.156L6.832 2.872v1.682h1.716zm0 3.398v.035H6.832v-.035H3.386L0 7.844v3.577h2.826V8.94c0-.525.429-.954.954-.954h16.476c.525 0 .954.43.954.954v2.48h2.754V7.844l-3.386-3.29H17.3v.035h-1.717v-.035zm7.035 0H17.3V2.872l-1.717-1.716zM8.679 1.188V2.84h6.773V1.188zm11.471 7.07h-.003a.855.855 0 0 0-.134.011l.005-.001-.543.002c-5.216.014-10.432-.008-15.648.01-.435-.063-.794.436-.716.883v2.264h17.812c-.016-.888.045-1.782-.034-2.666-.104-.342-.427-.502-.739-.503zm-15.422.634c.381 0 .689.313.689.698a.694.694 0 0 1-.689.697.694.694 0 0 1-.688-.697c0-.385.308-.697.688-.698zm2.134 0c.381 0 .689.313.689.698a.694.694 0 0 1-.689.697.694.694 0 0 1-.688-.697c0-.385.308-.697.688-.698zM.036 11.645v9.156c0 1.05.858 1.908 1.907 1.908h.883V11.645zm21.174 0v11.064h.882c1.05 0 1.908-.858 1.908-1.908v-9.156zM4.057 13.133v6.85h6.137v-6.85zm13.243.021v3.777l-1.708.977-1.708-.977v-3.758c-1.359.66-2.28 2.03-2.28 3.615s.92 2.955 2.256 3.605l.024.01v2.441h3.457v-2.442a4.005 4.005 0 0 0-.017-7.237l-.024-.01zm-13.243 8.26v1.43h7.925v-1.43z"/></svg>