<svg xmlns="http://www.w3.org/2000/svg" width="24" height="24"><path d="M22.999 10.626c-.043-.405-.106-.873-.234-1.384s-.341-1.065-.618-1.661c-.298-.575-.66-1.193-1.15-1.768-.192-.234-.405-.447-.618-.681.341-1.342-.405-2.513-.405-2.513-1.299-.085-2.108.405-2.406.618-.043-.021-.106-.043-.149-.064-.213-.085-.447-.17-.681-.256-.234-.064-.469-.149-.703-.192-.234-.064-.49-.106-.745-.149-.043 0-.085-.021-.128-.021C14.608.766 12.99 0 12.99 0c-1.853 1.193-2.215 2.79-2.215 2.79s0 .043-.021.085c-.106.021-.192.064-.298.085-.128.043-.277.085-.405.149s-.277.106-.405.17c-.277.128-.532.256-.809.405-.293.165-.537.32-.771.487l.026-.018c-.043-.021-.064-.043-.064-.043-2.492-.958-4.706.192-4.706.192-.192 2.662 1.001 4.323 1.235 4.621-.064.17-.106.319-.17.49a10.092 10.092 0 0 0-.399 1.799l-.006.054c-.021.085-.021.192-.043.277-2.3 1.129-2.981 3.471-2.981 3.471 1.917 2.215 4.174 2.343 4.174 2.343.306.55.63 1.024.993 1.465l-.013-.017c.149.192.319.362.49.554-.703 2.002.106 3.684.106 3.684 2.151.085 3.556-.937 3.854-1.171l.639.192c.66.17 1.342.277 2.002.298h.873c1.001 1.448 2.79 1.64 2.79 1.64 1.256-1.342 1.342-2.641 1.342-2.939v-.128c.256-.192.511-.383.767-.596.511-.447.937-.98 1.32-1.533.043-.043.064-.106.106-.149 1.427.085 2.428-.894 2.428-.894-.234-1.491-1.086-2.215-1.256-2.343l-.063-.063c0-.085.021-.17.021-.277.021-.17.021-.319.021-.49v-.618c0-.043 0-.085-.021-.128l-.043-.256c-.021-.17-.064-.319-.085-.49a6.287 6.287 0 0 0-.74-1.817l.016.028a6.691 6.691 0 0 0-1.208-1.443l-.006-.005a5.874 5.874 0 0 0-1.496-.965l-.037-.015a5.256 5.256 0 0 0-1.658-.467l-.024-.002c-.277-.043-.575-.043-.852-.043h-.426c-.149.021-.298.043-.426.064-.575.106-1.107.319-1.576.596s-.873.639-1.214 1.043a4.257 4.257 0 0 0-.757 1.27l-.01.029c-.17.447-.277.937-.298 1.384v.511c0 .064 0 .106.021.17.071.688.324 1.306.71 1.819l-.007-.009c.256.341.532.596.852.809s.639.362.98.469.66.149.958.128h.446c.043 0 .085-.021.106-.021.043 0 .064-.021.106-.021.064-.021.149-.043.213-.064.128-.043.256-.106.383-.149.128-.064.234-.128.319-.192.021-.021.064-.043.085-.064a.24.24 0 0 0 .042-.341.295.295 0 0 0-.208-.085.29.29 0 0 0-.114.023l.002-.001.002-.001c-.021.021-.043.021-.085.043a1.427 1.427 0 0 1-.267.104l-.01.002c-.106.021-.213.064-.319.085-.064 0-.106.021-.17.021h-.361s-.021 0 0 0h-.086c-.022 0-.064 0-.085-.021-.234-.043-.49-.106-.724-.213s-.469-.256-.66-.447c-.213-.192-.383-.405-.532-.66s-.234-.532-.277-.809c-.021-.149-.043-.298-.021-.447v-.128c0 .021 0 0 0 0v-.107c0-.085.021-.149.043-.234.12-.684.448-1.276.915-1.724l.001-.001c.128-.128.256-.234.405-.319.149-.106.298-.192.447-.256s.319-.128.49-.17c.17-.043.341-.085.511-.085.085 0 .17-.021.256-.021h.17c.021 0 0 0 0 0h.085a4.03 4.03 0 0 1 1.639.501l-.02-.01c.681.383 1.256.958 1.597 1.661.17.341.298.724.362 1.129.021.106.021.192.043.298v.554c0 .106-.021.213-.021.319-.021.106-.021.213-.043.319l-.064.319c-.021.106-.128.405-.192.618s-.362.788-.618 1.129a5.195 5.195 0 0 1-1.971 1.627l-.032.013c-.405.17-.809.319-1.235.383a3.116 3.116 0 0 1-.639.064H13.8c.021 0 0 0 0 0h-.021c-.106 0-.234 0-.341-.021-.469-.043-.916-.128-1.363-.256s-.873-.298-1.278-.511a7.019 7.019 0 0 1-2.098-1.733l-.01-.013c-.277-.362-.532-.745-.745-1.15s-.362-.831-.49-1.256a5.357 5.357 0 0 1-.213-1.31v-.67c0-.213.021-.447.064-.681.021-.234.064-.447.106-.681s.106-.447.17-.681.277-.873.469-1.278c.383-.809.873-1.533 1.448-2.108.149-.149.298-.277.469-.405.064-.064.213-.192.383-.298s.341-.213.532-.298c.085-.043.17-.085.277-.128.043-.021.085-.043.149-.064.043-.021.085-.043.149-.064.192-.085.383-.149.575-.213.043-.021.106-.021.149-.043s.106-.021.149-.043.192-.043.298-.085c.043-.021.106-.021.149-.043.043 0 .106-.021.149-.021s.106-.021.149-.021l.17-.043c.043 0 .106-.021.149-.021.064 0 .106-.021.17-.021.043 0 .128-.021.17-.021s.064 0 .106-.021h.149c.064 0 .106 0 .17-.021h.085s.021 0 0 0h.788c.383.021.767.064 1.129.128a7.219 7.219 0 0 1 2.084.7l-.04-.019a7.732 7.732 0 0 1 1.671 1.094l-.01-.008c.021.021.064.043.085.085.021.021.064.043.085.085.064.043.106.106.17.149s.106.106.17.149c.043.064.106.106.149.17a7.93 7.93 0 0 1 1.365 1.891l.021.044.021.045c.021.021.021.043.043.085.021.021.021.043.043.085s.043.106.085.149c.021.043.043.106.064.149s.043.106.064.149c.085.192.149.383.213.575.106.298.17.554.234.767a.205.205 0 0 0 .192.149c.106 0 .17-.085.17-.192-.021-.256-.021-.532-.043-.852z"/></svg>