<svg xmlns="http://www.w3.org/2000/svg" width="24" height="24"><path fill="#00c775" d="M12.04 22.547h-.001a2.206 2.206 0 0 1-2.008-3.122l-.006.014-2.699-1.8a2.2 2.2 0 1 1 .414-.612l.006-.014 2.702 1.8a2.31 2.31 0 0 1 .267-.236l-4.33-8.659a2.209 2.209 0 1 1 .677-.347l-.006.004 4.33 8.659c.077-.024.156-.044.235-.059v-4.128c-1.027-.202-1.79-1.095-1.79-2.166s.764-1.964 1.776-2.164l.014-.002v-3.89a2.206 2.206 0 1 1 .768.012l-.013.002v3.866a2.206 2.206 0 1 1 .013 4.358l-.012.002v4.097c.082.013.164.03.244.052l4.32-8.638a2.202 2.202 0 1 1 .657.34l.016.004-4.309 8.617c.1.07.194.148.28.233l2.616-1.776a2.209 2.209 0 1 1 .439.612l-2.615 1.777a2.206 2.206 0 0 1-1.986 3.165zM12 24C5.373 24 0 18.628 0 12c0-3.314 1.343-6.314 3.515-8.485 4.686-4.686 12.284-4.686 16.97 0s4.687 12.284 0 16.97A11.886 11.886 0 0 1 12.032 24h-.034H12zM12 .755C5.79.755.755 5.79.755 12c0 2.982 1.185 5.843 3.294 7.951 4.376 4.407 11.495 4.433 15.902.057s4.432-11.496.057-15.903a11.141 11.141 0 0 0-7.977-3.35h-.032.002z"/></svg>