<svg xmlns="http://www.w3.org/2000/svg" width="24" height="24"><path d="M22.13 0c-1.247 0-1.87.935-1.87 1.87s.935 1.87 1.87 1.87S24 2.805 24 1.87 23.065 0 22.13 0zM11.221 1.247C4.987 1.247 0 6.234 0 12.468s4.987 11.221 11.221 11.221 11.221-4.987 11.221-11.221c.312-6.234-4.987-11.221-11.221-11.221zm4.675 17.454c-1.558.935-3.74.935-3.74.935s-6.545 0-6.545-6.857 5.61-7.169 6.857-7.169a6.95 6.95 0 0 1 2.805.623l-.312 2.805s-6.234-2.182-6.545 3.429c0 4.987 4.675 4.052 4.675 4.052v-3.74h2.805v5.922z"/></svg>