<!-- Generated by IcoMoon.io -->
<svg version="1.1" xmlns="http://www.w3.org/2000/svg" width="24" height="24" viewBox="0 0 24 24">
<title>grofers</title>
<path d="M22.13 0c-1.247 0-1.87 0.935-1.87 1.87s0.935 1.87 1.87 1.87 1.87-0.935 1.87-1.87-0.935-1.87-1.87-1.87zM11.221 1.247c-6.234 0-11.221 4.987-11.221 11.221s4.987 11.221 11.221 11.221 11.221-4.987 11.221-11.221c0.312-6.234-4.987-11.221-11.221-11.221zM15.896 18.701c-1.558 0.935-3.74 0.935-3.74 0.935s-6.545 0-6.545-6.857 5.61-7.169 6.857-7.169c1.558 0 2.805 0.623 2.805 0.623l-0.312 2.805s-6.234-2.182-6.545 3.429c0 4.987 4.675 4.052 4.675 4.052v-3.74h2.805v5.922z"></path>
</svg>
