<svg xmlns="http://www.w3.org/2000/svg" width="24" height="24"><path fill="#323754" d="M20.983.002H9.508v6.494h.11a3.626 3.626 0 0 1 3.58-1.328l-.023-.004-.023-.004c1.966.144 3.91 1.336 4.02 5.158v7.554a.298.298 0 0 1-.286.287H14.775a.286.286 0 0 1-.287-.287V10.55c0-1.778-.585-3.114-2.341-3.114h-.038a2.606 2.606 0 0 0-2.6 2.788v-.016 7.665a.286.286 0 0 1-.287.287H7.124a.286.286 0 0 1-.287-.287V.004L3.126.003c-.823 0-1.493.652-1.523 1.468v20.987c.03.857.73 1.541 1.59 1.546h17.792a1.458 1.458 0 0 0 1.413-1.554v.008V1.474A1.38 1.38 0 0 0 21.021.005l-.038.001zm-2.54 20.983H5.555V19.66h12.888z"/></svg>