<svg xmlns="http://www.w3.org/2000/svg" width="24" height="24"><path fill="#494649" d="M7.207 0c-.484 0-.877.102-1.182.3-.304.2-.459.463-.459.78v21.809c0 .277.158.528.475.761.315.234.703.35 1.166.35a2 2 0 0 0 1.168-.35c.335-.231.506-.484.506-.761V1.082c0-.319-.162-.577-.489-.781-.327-.198-.721-.3-1.184-.3zm9.523 8.662c-.484 0-.872.098-1.168.301l-4.439 2.782c-.199.186-.284.469-.247.855.034.383.211.747.524 1.091.315.346.666.563 1.068.655.396.09.697.041.896-.143l1.755-1.095v9.782c0 .277.152.528.461.761.301.234.687.35 1.15.35s.863-.117 1.198-.35c.337-.233.506-.484.506-.761V9.739c0-.319-.165-.577-.49-.775-.325-.203-.729-.301-1.214-.301z"/></svg>