<svg xmlns="http://www.w3.org/2000/svg" width="24" height="24"><path d="M22.517 12.085a.685.685 0 0 0-.323-.462c-3.902-2.326-6.191-2.808-7.865-3.157-.216-.046-.426-.087-.626-.133l-.724-5.95A2.433 2.433 0 0 0 10.556.001a2.414 2.414 0 0 0-2.423 2.3c0 .026-.005.046-.005.072v3.501l-.056 8.548-.924-.714c-.18-.154-1.432-1.165-2.983-1.165-1.047 0-1.976.441-2.762 1.304a.69.69 0 0 0-.051.868c.067.092 1.658 2.32 4.153 4.59 1.479 1.34 2.967 2.413 4.425 3.188 1.858.986 3.676 1.494 5.406 1.509h.082c2.361 0 4.199-.78 5.462-2.315 2.813-3.419 1.684-9.348 1.638-9.6zm-2.711 8.727c-.986 1.201-2.464 1.807-4.389 1.807h-.072c-3.434-.026-6.73-2.361-8.886-4.317A31.633 31.633 0 0 1 2.845 14.4a2.11 2.11 0 0 1 1.325-.467c1.114 0 2.079.827 2.084.837.01.01.026.021.036.031l2.048 1.576a.696.696 0 1 0 1.119-.544l.067-9.949V2.419v-.021a1.03 1.03 0 0 1 1.037-1.006c.575 0 1.037.467 1.037 1.037 0 .026 0 .056.005.082l.775 6.463a.693.693 0 0 0 .508.585c.37.098.75.18 1.155.262 1.622.339 3.635.765 7.167 2.829.175 1.191.673 5.642-1.401 8.163z"/></svg>