<!-- Generated by IcoMoon.io -->
<svg version="1.1" xmlns="http://www.w3.org/2000/svg" width="24" height="24" viewBox="0 0 24 24">
<title>hand-index</title>
<path d="M22.517 12.085c-0.036-0.195-0.154-0.359-0.323-0.462-3.902-2.326-6.191-2.808-7.865-3.157-0.216-0.046-0.426-0.087-0.626-0.133l-0.724-5.95c-0.026-1.314-1.104-2.382-2.423-2.382-1.304 0-2.356 1.006-2.423 2.3 0 0.026-0.005 0.046-0.005 0.072v3.501l-0.056 8.548-0.924-0.714c-0.18-0.154-1.432-1.165-2.983-1.165-1.047 0-1.976 0.441-2.762 1.304-0.221 0.241-0.241 0.601-0.051 0.868 0.067 0.092 1.658 2.32 4.153 4.59 1.479 1.34 2.967 2.413 4.425 3.188 1.858 0.986 3.676 1.494 5.406 1.509h0.082c2.361 0 4.199-0.78 5.462-2.315 2.813-3.419 1.684-9.348 1.638-9.6zM19.806 20.812c-0.986 1.201-2.464 1.807-4.389 1.807-0.026 0-0.046 0-0.072 0-3.434-0.026-6.73-2.361-8.886-4.317-1.72-1.561-3.019-3.132-3.614-3.902 0.406-0.313 0.842-0.467 1.325-0.467 1.114 0 2.079 0.827 2.084 0.837 0.010 0.010 0.026 0.021 0.036 0.031l2.048 1.576c0.21 0.159 0.488 0.19 0.729 0.072 0.236-0.113 0.385-0.354 0.39-0.616l0.067-9.949v-3.465c0-0.005 0-0.015 0-0.021 0.015-0.565 0.472-1.006 1.037-1.006 0.575 0 1.037 0.467 1.037 1.037 0 0.026 0 0.056 0.005 0.082l0.775 6.463c0.036 0.282 0.236 0.513 0.508 0.585 0.37 0.098 0.75 0.18 1.155 0.262 1.622 0.339 3.635 0.765 7.167 2.829 0.175 1.191 0.673 5.642-1.401 8.163z"></path>
</svg>
