<svg xmlns="http://www.w3.org/2000/svg" width="24" height="24"><path d="M12 0C5.381 0 0 5.381 0 12s5.381 12 12 12 12-5.381 12-12S18.619 0 12 0zm0 22.5C6.21 22.5 1.5 17.79 1.5 12S6.21 1.5 12 1.5 22.5 6.21 22.5 12 17.79 22.5 12 22.5zM9.322 8.01a1.627 1.627 0 1 1-3.254 0 1.627 1.627 0 0 1 3.254 0zm8.611 0a1.627 1.627 0 1 1-3.255 0 1.627 1.627 0 0 1 3.255 0zm1.77 5.704a.753.753 0 0 0-.934.503c-.011.045-1.402 4.481-6.769 4.481-5.333 0-6.712-4.301-6.772-4.485a.753.753 0 0 0-.934-.503.76.76 0 0 0-.503.938c.019.056 1.736 5.55 8.209 5.55s8.19-5.494 8.209-5.55a.753.753 0 0 0-.506-.934z"/></svg>