<!-- Generated by IcoMoon.io -->
<svg version="1.1" xmlns="http://www.w3.org/2000/svg" width="24" height="24" viewBox="0 0 24 24">
<title>haticons</title>
<path d="M0.75 24l2.1-24h18.3l2.1 24h-22.5zM17.925 16.2c0-1.8-0.75-3.45-1.95-4.575 1.275-1.125 2.1-2.775 2.1-4.65 0-0.75-0.15-1.425-0.375-2.1 0.45-0.225 0.75-0.75 0.75-1.275 0-0.825-0.675-1.5-1.5-1.5s-1.5 0.675-1.5 1.5c0 0.6 0.375 1.2 0.975 1.425 0.225 0.6 0.375 1.275 0.375 1.95 0 1.575-0.75 3-1.875 3.9-0.9-0.525-2.025-0.9-3.15-0.9s-2.175 0.3-3.075 0.825c-1.125-0.9-1.8-2.25-1.8-3.825 0-0.75 0.15-1.425 0.45-2.025 0.45-0.225 0.825-0.75 0.825-1.35 0-0.825-0.675-1.5-1.5-1.5s-1.5 0.675-1.5 1.5c0 0.6 0.375 1.125 0.825 1.35-0.225 0.675-0.3 1.35-0.3 2.1 0 1.8 0.75 3.45 1.95 4.575-1.275 1.125-2.1 2.775-2.1 4.65 0 0.75 0.15 1.425 0.375 2.1-0.45 0.225-0.75 0.75-0.75 1.275 0 0.825 0.675 1.5 1.5 1.5s1.5-0.675 1.5-1.5c0-0.6-0.375-1.2-0.975-1.425-0.225-0.6-0.375-1.275-0.375-1.95 0-1.575 0.75-3 1.875-3.9 0.9 0.525 2.025 0.9 3.15 0.9s2.175-0.3 3.075-0.825c1.125 0.9 1.8 2.25 1.8 3.825 0 0.75-0.15 1.425-0.45 2.025-0.45 0.225-0.825 0.75-0.825 1.35 0 0.825 0.675 1.5 1.5 1.5s1.5-0.675 1.5-1.5c0-0.6-0.375-1.125-0.825-1.35 0.225-0.675 0.3-1.35 0.3-2.1zM9.975 11.625c0.525-0.225 1.125-0.3 1.8-0.3s1.35 0.15 1.875 0.375c-0.525 0.225-1.125 0.3-1.8 0.3s-1.275-0.15-1.875-0.375z"></path>
</svg>
