<svg height="24" width="24" xmlns="http://www.w3.org/2000/svg"><path d="M.75 24l2.1-24h18.3l2.1 24zm17.175-7.8c0-1.8-.75-3.45-1.95-4.575a6.173 6.173 0 0 0 2.1-4.65c0-.75-.15-1.425-.375-2.1.45-.225.75-.75.75-1.275 0-.825-.675-1.5-1.5-1.5s-1.5.675-1.5 1.5c0 .6.375 1.2.975 1.425.225.6.375 1.275.375 1.95 0 1.575-.75 3-1.875 3.9-.9-.525-2.025-.9-3.15-.9s-2.175.3-3.075.825c-1.125-.9-1.8-2.25-1.8-3.825 0-.75.15-1.425.45-2.025.45-.225.825-.75.825-1.35 0-.825-.675-1.5-1.5-1.5s-1.5.675-1.5 1.5c0 .6.375 1.125.825 1.35-.225.675-.3 1.35-.3 2.1 0 1.8.75 3.45 1.95 4.575a6.173 6.173 0 0 0-2.1 4.65c0 .75.15 1.425.375 2.1-.45.225-.75.75-.75 1.275 0 .825.675 1.5 1.5 1.5s1.5-.675 1.5-1.5c0-.6-.375-1.2-.975-1.425a5.634 5.634 0 0 1-.375-1.95c0-1.575.75-3 1.875-3.9.9.525 2.025.9 3.15.9s2.175-.3 3.075-.825c1.125.9 1.8 2.25 1.8 3.825 0 .75-.15 1.425-.45 2.025-.45.225-.825.75-.825 1.35 0 .825.675 1.5 1.5 1.5s1.5-.675 1.5-1.5c0-.6-.375-1.125-.825-1.35.225-.675.3-1.35.3-2.1zm-7.95-4.575c.525-.225 1.125-.3 1.8-.3s1.35.15 1.875.375c-.525.225-1.125.3-1.8.3s-1.275-.15-1.875-.375z"/></svg>