<svg xmlns="http://www.w3.org/2000/svg" width="24" height="24"><path fill="#ea8220" d="M23.784 0h-.006a.234.234 0 0 0-.038.003h.001H17.886a.216.216 0 0 0-.099.024l.001-.001L12 2.918 6.21.026a.224.224 0 0 0-.098-.023H.211h.001a.222.222 0 0 0-.21.257V.259v5.853c0 .036.009.071.025.101l-.001-.001 2.894 5.785L.026 17.79a.216.216 0 0 0-.024.099v5.84a.231.231 0 0 0 .002.079v-.001a.222.222 0 0 0 .254.19H.257 6.113c.036 0 .07-.009.099-.024l-.001.001L12 21.076l5.789 2.898a.211.211 0 0 0 .098.023h5.892a.221.221 0 0 0 .218-.259v.001-5.85-.002a.216.216 0 0 0-.024-.099l.001.001-2.895-5.792 2.895-5.786a.211.211 0 0 0 .023-.098V.266a.225.225 0 0 0-.006-.1v.002a.22.22 0 0 0-.208-.169zM2.022.445H6.06l4.038 2.017zm15.918 0h4.038l-8.075 2.017zM.528.528l11.039 2.76-8.28 8.275-.238-.953zM23.47.535l-2.76 11.031-8.277-8.279zm.084 1.487V6.06l-2.019 4.035zm-23.11.003l2.021 8.073L.445 6.06zM12 3.48L20.52 12l-8.517 8.516L3.48 12zm8.712 8.952l.088.351 2.672 10.688-11.04-2.76zm-17.424 0l8.274 8.274L.531 23.46l.266-1.065zm18.247 1.466l2.02 4.042v4.027zm-19.07 0l-2.02 8.08V17.94zm7.626 7.638l-4.032 2.018H2.02zm3.818 0l8.071 2.018h-4.04z"/></svg>