<svg xmlns="http://www.w3.org/2000/svg" width="24" height="24"><path d="M22.061 3.409c-1.257-1.257-2.92-1.944-4.696-1.944s-3.445.692-4.701 1.949l-.656.656-.667-.667a6.62 6.62 0 0 0-4.706-1.954 6.596 6.596 0 0 0-4.691 1.944A6.58 6.58 0 0 0 0 8.094c0 1.776.697 3.439 1.954 4.696l9.555 9.555c.132.132.31.204.483.204s.351-.066.483-.198l9.576-9.54A6.605 6.605 0 0 0 24 8.11a6.571 6.571 0 0 0-1.939-4.701zm-.976 8.431l-9.092 9.057-9.072-9.072c-.997-.997-1.547-2.32-1.547-3.729s.544-2.732 1.542-3.724A5.231 5.231 0 0 1 6.635 2.83a5.25 5.25 0 0 1 3.735 1.547l1.15 1.15c.27.27.702.27.972 0l1.14-1.14c.997-.997 2.325-1.547 3.729-1.547s2.727.549 3.724 1.542a5.234 5.234 0 0 1 1.542 3.729 5.209 5.209 0 0 1-1.542 3.729z"/></svg>