<!-- Generated by IcoMoon.io -->
<svg version="1.1" xmlns="http://www.w3.org/2000/svg" width="24" height="24" viewBox="0 0 24 24">
<title>heart-o</title>
<path d="M22.061 3.409c-1.257-1.257-2.92-1.944-4.696-1.944s-3.445 0.692-4.701 1.949l-0.656 0.656-0.667-0.667c-1.257-1.257-2.931-1.954-4.706-1.954-1.771 0-3.439 0.692-4.691 1.944-1.257 1.257-1.949 2.926-1.944 4.701 0 1.776 0.697 3.439 1.954 4.696l9.555 9.555c0.132 0.132 0.31 0.204 0.483 0.204s0.351-0.066 0.483-0.198l9.576-9.54c1.257-1.257 1.949-2.926 1.949-4.701 0.005-1.776-0.682-3.445-1.939-4.701zM21.085 11.84l-9.092 9.057-9.072-9.072c-0.997-0.997-1.547-2.32-1.547-3.729s0.544-2.732 1.542-3.724c0.992-0.992 2.315-1.542 3.719-1.542 1.409 0 2.737 0.549 3.735 1.547l1.15 1.15c0.27 0.27 0.702 0.27 0.972 0l1.14-1.14c0.997-0.997 2.325-1.547 3.729-1.547s2.727 0.549 3.724 1.542c0.997 0.997 1.542 2.32 1.542 3.729 0.005 1.409-0.544 2.732-1.542 3.729z"></path>
</svg>
