<!-- Generated by IcoMoon.io -->
<svg version="1.1" xmlns="http://www.w3.org/2000/svg" width="24" height="24" viewBox="0 0 24 24">
<title>hide</title>
<path d="M22.114 11.914c-3.034 3.727-6.142 5.816-9.251 6.203-0.412 0.053-0.709 0.428-0.656 0.844 0.049 0.383 0.371 0.664 0.75 0.664 0.030 0 0.064-0.004 0.094-0.008 3.649-0.454 7.226-2.888 10.631-7.237 0.019-0.023 0.023-0.049 0.038-0.071 0.023-0.034 0.038-0.068 0.053-0.105 0.023-0.053 0.041-0.101 0.052-0.158 0.008-0.045 0.011-0.090 0.011-0.139 0-0.045 0-0.090-0.011-0.135-0.011-0.056-0.030-0.105-0.052-0.158-0.015-0.034-0.030-0.068-0.053-0.101-0.015-0.022-0.019-0.053-0.038-0.075-1.328-1.695-2.696-3.113-4.065-4.219-0.322-0.259-0.799-0.21-1.061 0.112-0.262 0.326-0.21 0.799 0.113 1.061 1.151 0.938 2.31 2.126 3.446 3.521zM0.015 11.974c0.015 0.161 0.079 0.311 0.191 0.435 0.802 1.418 3.911 5.212 8.1 6.679l-0.431 0.773c-0.203 0.364-0.071 0.825 0.293 1.027 0.116 0.064 0.244 0.098 0.367 0.098 0.266 0 0.521-0.139 0.66-0.386l8.94-16.009c0.203-0.364 0.071-0.825-0.293-1.027-0.364-0.206-0.825-0.075-1.027 0.292l-0.683 1.219c-3.802-1.654-7.732-1.118-11.411 1.582-2.857 2.096-4.534 4.736-4.605 4.849-0.015 0.022-0.015 0.049-0.030 0.075-0.019 0.038-0.030 0.071-0.041 0.113-0.015 0.056-0.030 0.109-0.034 0.165 0 0.022-0.011 0.037-0.011 0.060 0 0.011 0.011 0.038 0.015 0.056zM11.921 6.454c1.061 0 2.066 0.353 2.887 0.994l-4.541 8.13c-1.811-0.679-3.064-2.426-3.064-4.41 0-2.599 2.115-4.714 4.718-4.714zM7.616 6.683c-1.181 1.132-1.92 2.722-1.92 4.485 0 2.539 1.556 4.793 3.829 5.741l-0.465 0.829c-3.833-1.219-6.559-4.661-7.391-5.827 0.727-1.016 2.876-3.731 5.947-5.227z"></path>
</svg>
