<svg xmlns="http://www.w3.org/2000/svg" width="24" height="24"><path d="M22.114 11.914c-3.034 3.727-6.142 5.816-9.251 6.203a.756.756 0 0 0 .188 1.5c3.649-.454 7.226-2.888 10.631-7.237.019-.023.023-.049.038-.071a.544.544 0 0 0 .053-.105.731.731 0 0 0 .052-.158.783.783 0 0 0 .011-.139c0-.045 0-.09-.011-.135a.812.812 0 0 0-.052-.158c-.015-.034-.03-.068-.053-.101-.015-.022-.019-.053-.038-.075-1.328-1.695-2.696-3.113-4.065-4.219a.76.76 0 0 0-1.061.112.755.755 0 0 0 .113 1.061c1.151.938 2.31 2.126 3.446 3.521zm-22.099.06a.745.745 0 0 0 .191.435c.802 1.418 3.911 5.212 8.1 6.679l-.431.773a.755.755 0 0 0 .293 1.027.755.755 0 0 0 1.027-.288l8.94-16.009a.755.755 0 0 0-1.32-.735l-.683 1.219C12.33 3.421 8.4 3.957 4.721 6.657 1.864 8.753.187 11.393.116 11.506c-.015.022-.015.049-.03.075a.544.544 0 0 0-.041.113c-.015.056-.03.109-.034.165 0 .022-.011.037-.011.06 0 .011.011.038.015.056zm11.906-5.52a4.67 4.67 0 0 1 2.887.994l-4.541 8.13a4.725 4.725 0 0 1-3.064-4.41 4.72 4.72 0 0 1 4.718-4.714zm-4.305.229a6.196 6.196 0 0 0-1.92 4.485 6.243 6.243 0 0 0 3.829 5.741l-.465.829c-3.833-1.219-6.559-4.661-7.391-5.827.727-1.016 2.876-3.731 5.947-5.227z"/></svg>