<svg xmlns="http://www.w3.org/2000/svg" width="24" height="24"><path fill="#0052cc" d="M19.736 19.056s.103-.073.267-.198C22.46 16.958 24 14.203 24 11.139 24 5.424 18.627.787 12.003.787 5.377.787 0 5.424 0 11.139c0 5.717 5.371 10.356 11.998 10.356.847 0 1.694-.073 2.524-.228l.262-.045c1.683 1.092 4.139 1.99 6.288 1.99.665 0 .978-.546.552-1.104-.648-.795-1.541-2.068-1.888-3.052zm-1.462-4.526c-.716 1.069-2.934 2.889-6.254 2.889h-.046c-3.328 0-5.543-1.831-6.254-2.889a1.132 1.132 0 0 1-.272-.567l-.001-.007-.001-.038a.49.49 0 0 1 .447-.488h.002c.008-.003.014-.003.021-.003.117.006.23.043.328.111a9.083 9.083 0 0 0 5.753 2.056h.001l.101.001c2.161 0 4.14-.779 5.672-2.07l-.013.011a.458.458 0 0 1 .312-.122h.001c.267 0 .478.213.483.475a1.314 1.314 0 0 1-.27.646l.002-.003z"/></svg>