<svg xmlns="http://www.w3.org/2000/svg" width="24" height="24"><path fill="#e60027" d="M17.787 11.41h-1.026a.844.844 0 0 0-.054-.29l.002.006a.719.719 0 0 0-.454-.426l-.005-.001a1.393 1.393 0 0 0-.429-.066c-.174 0-.34.031-.494.089l.01-.003a.892.892 0 0 0-.533.536l-.002.006a2.329 2.329 0 0 0-.036 1.441l-.004-.016c.078.27.275.483.529.582l.006.002a1.486 1.486 0 0 0 .987.024l-.011.003a.707.707 0 0 0 .426-.38l.002-.004a.953.953 0 0 0 .08-.387v-.009h1.031a2.225 2.225 0 0 1-.052.366l.003-.015c-.09.365-.346.672-.684.814a3.262 3.262 0 0 1-2.274.098l.023.006c-.477-.15-.89-.493-1.054-.96a2.335 2.335 0 0 1-.133-.784v-.005c0-.388.068-.764.254-1.077.192-.321.486-.569.842-.701a3.057 3.057 0 0 1 2.337.07l-.019-.008c.354.156.614.467.697.845l.001.008c.017.076.028.156.033.235zm-3.979 2.436H12.72l-.32-.793h-1.834c-.001.001-.315.794-.319.793h-1.09l1.727-3.693c0 .002 1.199 0 1.199 0zm5.483.001h-.977s.005-3.693 0-3.693h.977v1.477h1.976c0 .005-.002-1.478 0-1.477h.979s.003 3.686 0 3.693h-.979v-1.626c0 .005-1.976 0-1.976 0 .002.007 0 1.624 0 1.626zm-18.312 0H0s.005-3.693 0-3.693h.979s-.002 1.487 0 1.477h1.976c0 .005-.004-1.478 0-1.477h.978s.004 3.686 0 3.693h-.978v-1.626c0 .005-1.976 0-1.976 0 0 .007-.002 1.625 0 1.626zm7.531-.001h-.977v-3.065H6.036s.002-.626 0-.627c.002.001 3.971 0 3.971 0v.627H8.51zm-3.801-3.692h.977v3.692h-.977zm18.312 0H24v3.692h-.979zm-11.537.627l-.681 1.68h1.361z"/></svg>