<svg xmlns="http://www.w3.org/2000/svg" width="24" height="24"><path fill="#41bdf5" d="M11.992 1.395a.702.702 0 0 0-.498.211L.162 13.098a.562.562 0 0 0-.162.395v.001c0 .313.254.566.566.566H2.67v8.074c0 .26.21.471.471.471h7.947v-3.684l-3.051-3.055a2.424 2.424 0 0 1-3.369-2.233 2.423 2.423 0 1 1 4.652.947l1.768 1.768v-5.375a2.426 2.426 0 0 1 .909-4.674 2.425 2.425 0 1 1 .908 4.674v5.375l1.766-1.768a2.38 2.38 0 0 1-.191-.943v-.004a2.423 2.423 0 1 1 4.846 0 2.424 2.424 0 0 1-3.385 2.227l.016.006-3.051 3.055v3.684h7.947a.47.47 0 0 0 .47-.47V14.06h2.111a.568.568 0 0 0 .405-.963l-2.516-2.572V6.47c0-.26-.21-.473-.471-.473h-1.965a.472.472 0 0 0-.471.473v1.104L12.5 1.603a.703.703 0 0 0-.501-.209h-.007zm.004 6.361a.97.97 0 0 0 0 1.94.97.97 0 0 0-.001-1.939zm-4.906 4.91a.968.968 0 0 0-.968.968v.001c0 .535.434.971.969.971s.969-.435.969-.971a.968.968 0 0 0-.968-.968h-.001zm9.812 0a.97.97 0 1 0 .969.969.968.968 0 0 0-.968-.968h-.001z"/></svg>