<!-- Generated by IcoMoon.io -->
<svg version="1.1" xmlns="http://www.w3.org/2000/svg" width="24" height="24" viewBox="0 0 24 24">
<title>hootsuite</title>
<path d="M12.002 0h0.023c1.377 0.004 2.673 0.347 3.811 0.95l-0.045-0.022c1.157-0.596 2.439-0.906 3.741-0.906h0.676v23.978l-0.656-0.002c-4.183 0.002-8.196-1.662-11.152-4.625-2.97-2.943-4.63-6.959-4.609-11.143v-8.209h0.677c1.301 0 2.586 0.311 3.741 0.906 1.101-0.584 2.407-0.927 3.793-0.927h0zM12.002 0.654c-1.381 0-2.676 0.373-3.791 1.021-1.138-0.655-2.428-1.001-3.742-1h-0.022v7.555c-0.025 8.35 6.764 15.090 15.107 15.113v-22.668h-0.022c-0.002 0-0.004 0-0.006 0-1.376 0-2.664 0.371-3.772 1.018l0.035-0.019c-1.079-0.639-2.378-1.018-3.765-1.020h-0.022zM15.254 3.408c1.79 0.002 3.238 1.453 3.237 3.242-0.003 1.791-1.454 3.238-3.244 3.236-0.616 0-1.22-0.176-1.739-0.508l-1.516 1.508-1.507-1.516c-1.514 0.952-3.515 0.495-4.465-1.020-0.952-1.516-0.495-3.516 1.021-4.467s3.516-0.494 4.467 1.022c0.273 0.437 0.44 0.933 0.483 1.446l0.016-0.020 0.015 0.018c0.154-1.667 1.556-2.945 3.232-2.941zM8.76 8.789c1.192 0.006 2.163-0.959 2.168-2.15 0.001-0.219-0.031-0.436-0.096-0.644-0.243 0.544-0.882 0.788-1.426 0.546-0.545-0.244-0.79-0.883-0.546-1.428 0.109-0.243 0.304-0.437 0.548-0.547-1.137-0.355-2.347 0.276-2.705 1.414-0.066 0.207-0.099 0.424-0.1 0.642-0.003 1.192 0.96 2.163 2.153 2.167h0.004zM15.238 8.808c1.193 0.003 2.163-0.962 2.166-2.155s-0.963-2.162-2.155-2.164c-0.216-0.002-0.431 0.030-0.638 0.094 0.545 0.244 0.789 0.883 0.547 1.428-0.244 0.543-0.883 0.787-1.428 0.545-0.245-0.109-0.439-0.307-0.549-0.553-0.355 1.139 0.279 2.352 1.417 2.707 0.209 0.063 0.423 0.097 0.64 0.098z"></path>
</svg>
