<svg xmlns="http://www.w3.org/2000/svg" width="24" height="24"><path fill="#ff7a59" d="M18.164 7.931V5.085a2.201 2.201 0 0 0 1.266-1.977V3.04A2.2 2.2 0 0 0 17.238.847h-.067a2.2 2.2 0 0 0-2.193 2.192v.067a2.195 2.195 0 0 0 1.239 1.967l.013.006.013.006v2.852a6.22 6.22 0 0 0-2.98 1.319l.011-.009.012-.009-7.828-6.096a2.497 2.497 0 1 0-1.146 1.509l-.012.006-.012.006 7.696 5.991a6.124 6.124 0 0 0-1.038 3.427v.02-.001c0 1.343.425 2.588 1.147 3.606l-.013-.019-2.342 2.342a1.929 1.929 0 0 0-.579-.095h-.003a2.033 2.033 0 1 0 2.033 2.033 2 2 0 0 0-.103-.609l.004.014.004.014 2.317-2.317a6.247 6.247 0 1 0 4.818-11.128l-.036-.005zm-.964 9.377a3.206 3.206 0 1 1 3.214-3.206v.002a3.206 3.206 0 0 1-3.206 3.204H17.2z"/></svg>