<svg xmlns="http://www.w3.org/2000/svg" width="24" height="24"><path fill="#004e81" d="M3.418 19.73l.98-4.885H5.99l-.973 4.884zm4.807-1.6h1.012l-.26-1.792zm-2.235 1.6l2.412-4.885h1.57l.99 4.884H9.487l-.088-.58H7.827l-.25.58zm6.439 0l.547-3.674h-1.394l.238-1.233h4.281l-.237 1.233h-1.328L14 19.73zm5.354-1.6h1.012l-.26-1.792zm-2.23 1.6l2.407-4.885h1.57l.99 4.884h-1.487l-.072-.58h-1.57l-.25.58zM24 9.324h-7.495c-.276 1.372-1.228 2.517-3.125 3.308.216.652.951 1.255 1.715 1.255h4.065c.62 0 1.112-.52 1.311-.94H16.34c-.254-.044-.265-.25-.01-.271h4.06c.525 0 1-.448 1.277-.935h-4.73c-.237-.039-.237-.238 0-.277h4.769c.48 0 .918-.558 1.1-.934h-5.232c-.26-.033-.26-.277 0-.282H22.9c.415 0 .819-.454 1.1-.924zm-24 0h7.495c.27 1.372 1.228 2.517 3.12 3.308-.216.652-.952 1.255-1.715 1.255H4.84c-.62 0-1.112-.52-1.311-.94H7.66c.249-.044.265-.25.01-.271H3.607c-.525 0-1-.448-1.272-.935H7.07c.238-.039.238-.238 0-.277H2.3c-.481 0-.918-.558-1.1-.934h5.232c.26-.033.26-.277 0-.282H1.106c-.42 0-.824-.454-1.106-.924zM9.569 5.21c.277.238.586.448.918.58.282-.553.675-1.028 1.129-1.449-.786.1-1.484.411-2.054.875l.007-.006zM8.242 7.937h1.67a5.332 5.332 0 0 1 .468-1.943l-.014.034a4.053 4.053 0 0 1-1.007-.634l.005.004a3.815 3.815 0 0 0-1.122 2.53v.009zM11.87 6.37v1.566H10.2a4.618 4.618 0 0 1 .426-1.844l-.012.029c.399.144.83.238 1.256.249zm2.561-1.161a3.33 3.33 0 0 1-.896.572l-.022.008a5.308 5.308 0 0 0-1.129-1.439l-.005-.004a3.985 3.985 0 0 1 2.059.869l-.007-.006zm1.322 2.727h-1.665a5.08 5.08 0 0 0-.455-1.941l.013.032c.354-.166.69-.376.984-.63a3.71 3.71 0 0 1 1.123 2.533v.006zM12.14 6.37v1.566h1.66c0-.631-.155-1.234-.415-1.815a3.936 3.936 0 0 1-1.237.249h-.008zm-2.571 4.57c.277-.216.597-.454.918-.57.299.559.67 1.018 1.129 1.433a4.05 4.05 0 0 1-2.055-.869l.008.006zM8.242 8.208h1.67c.039.691.182 1.3.454 1.924a4.227 4.227 0 0 0-1.008.63l.006-.005a3.852 3.852 0 0 1-1.122-2.54v-.009zm3.628 1.57v-1.57H10.2c.01.63.154 1.255.414 1.814.399-.144.83-.232 1.256-.244zm2.561 1.162a3.432 3.432 0 0 0-.896-.562l-.022-.008a5.155 5.155 0 0 1-1.128 1.428l-.006.005a4.075 4.075 0 0 0 2.06-.869l-.008.006zm1.322-2.732h-1.665a5.064 5.064 0 0 1-.455 1.956l.013-.032c.354.166.674.366.984.625a3.798 3.798 0 0 0 1.123-2.541v-.008zm-3.612 1.57v-1.57h1.66c0 .63-.155 1.244-.415 1.814a3.914 3.914 0 0 0-1.238-.244h-.007zm-.271-5.276c-.46.377-.837.836-1.111 1.358l-.012.024c.36.122.741.222 1.123.222zm.271 0c.443.365.846.846 1.112 1.382-.329.132-.71.213-1.108.222h-.004zm-.271 7.146a4.27 4.27 0 0 1-1.112-1.364l-.011-.024c.36-.128.741-.2 1.123-.2zm.271.011c.443-.37.846-.868 1.112-1.4a3.623 3.623 0 0 0-1.107-.198h-.005z"/></svg>