<svg xmlns="http://www.w3.org/2000/svg" width="24" height="24"><path fill="#825794" d="M12 0c-1.66 0-3.21.313-4.66.938a12.06 12.06 0 0 0-3.841 2.563L3.5 3.5A12.008 12.008 0 0 0 .967 7.262l-.03.078C.313 8.79 0 10.34 0 12s.313 3.21.938 4.66a12.06 12.06 0 0 0 2.563 3.841L3.5 20.5a12.023 12.023 0 0 0 3.761 2.53l.079.03c1.45.63 3 .94 4.66.94s3.21-.31 4.66-.94a12.071 12.071 0 0 0 3.841-2.561l-.001.001a12.023 12.023 0 0 0 2.53-3.761l.03-.079c.63-1.45.94-3 .94-4.66s-.31-3.21-.94-4.66a12.071 12.071 0 0 0-2.561-3.841l.001.001A12.008 12.008 0 0 0 16.738.967l-.078-.03C15.21.313 13.66 0 12 0zM8.88 1.5a11.728 11.728 0 0 1 2.489 1.919l.001.001c.717.716 1.345 1.52 1.869 2.394l.031.056c.53.9.93 1.86 1.23 2.9.28 1.03.43 2.11.43 3.23s-.15 2.2-.43 3.23a11.693 11.693 0 0 1-1.259 2.953l.029-.053a12.409 12.409 0 0 1-1.9 2.45c-.75.75-1.58 1.38-2.49 1.92a11.98 11.98 0 0 1-2.458-1.918l-.002-.002a12.337 12.337 0 0 1-1.889-2.395L4.5 18.13a11.445 11.445 0 0 1-1.171-2.818l-.019-.082a11.36 11.36 0 0 1-.45-3.204v-.028.001c0-1.12.14-2.2.45-3.23a11.692 11.692 0 0 1 1.22-2.955l-.03.055c.56-.93 1.195-1.734 1.919-2.449l.001-.001c.75-.75 1.58-1.38 2.46-1.92zm-.02 7.73c-.77 0-1.42.27-1.96.81-.5.486-.81 1.165-.81 1.916v.046V12c0 .77.27 1.42.81 1.96s1.19.81 1.96.81 1.42-.27 1.96-.81.81-1.19.81-1.96-.27-1.42-.81-1.96a2.664 2.664 0 0 0-1.916-.81h-.046.002z"/></svg>