<svg xmlns="http://www.w3.org/2000/svg" width="24" height="24"><path fill="#31b8bb" d="M21.605.021a2.397 2.397 0 0 0-.486 4.744l.016.003a2.397 2.397 0 1 0 .472-4.747h-.002zm-9.584 2.395C6.73 2.416 2.437 6.707 2.437 12c0 2.142.703 4.121 1.891 5.717l2.586-2.586a5.99 5.99 0 0 1 8.261-8.223l-.026-.015 2.586-2.586a9.467 9.467 0 0 0-5.7-1.891h-.016.001zm7.692 3.867L17.127 8.87c.556.892.885 1.974.885 3.133a5.989 5.989 0 0 1-9.146 5.09l.025.015-2.586 2.584a9.475 9.475 0 0 0 5.705 1.893h.012-.001a9.583 9.583 0 0 0 9.583-9.584c0-2.142-.704-4.12-1.891-5.718zM2.396 19.187a2.398 2.398 0 0 0-.486 4.746l.016.003a2.401 2.401 0 0 0 2.82-2.838l.003.015a2.403 2.403 0 0 0-2.352-1.926z"/></svg>