<!-- Generated by IcoMoon.io -->
<svg version="1.1" xmlns="http://www.w3.org/2000/svg" width="24" height="24" viewBox="0 0 24 24">
<title>id-card-vertical</title>
<path d="M17.647 0h-11.293c-1.977 0-3.53 1.553-3.53 3.529v16.941c0 1.976 1.553 3.529 3.529 3.529h11.294c1.976 0 3.529-1.553 3.529-3.529v-16.941c0.001-1.976-1.552-3.529-3.529-3.529zM19.765 20.471c0 1.129-0.988 2.118-2.118 2.118h-11.294c-1.129 0-2.118-0.988-2.118-2.118v-16.942c0-1.129 0.988-2.118 2.118-2.118h11.294c1.129 0 2.118 0.988 2.118 2.118zM7.765 8.471h2.823c0.423 0 0.706-0.282 0.706-0.706v-2.824c0-0.423-0.282-0.706-0.706-0.706h-2.823c-0.423 0-0.706 0.282-0.706 0.706v2.823c0 0.424 0.282 0.707 0.706 0.707zM8.471 5.647h1.412v1.412h-1.412zM16.235 9.882h-8.47c-0.423 0-0.706 0.282-0.706 0.706s0.282 0.706 0.706 0.706h8.471c0.423 0 0.706-0.282 0.706-0.706s-0.283-0.706-0.707-0.706zM16.235 14.118h-8.47c-0.423 0-0.706 0.282-0.706 0.706s0.282 0.706 0.706 0.706h8.471c0.423 0 0.706-0.282 0.706-0.706s-0.283-0.706-0.707-0.706zM16.235 18.353h-8.47c-0.423 0-0.706 0.282-0.706 0.706s0.282 0.706 0.706 0.706h8.471c0.423 0 0.706-0.282 0.706-0.706s-0.283-0.706-0.707-0.706zM16.235 5.647h-2.823c-0.423 0-0.706 0.282-0.706 0.706s0.282 0.706 0.706 0.706h2.823c0.423 0 0.706-0.282 0.706-0.706s-0.282-0.707-0.706-0.706z"></path>
</svg>
