<!-- Generated by IcoMoon.io -->
<svg version="1.1" xmlns="http://www.w3.org/2000/svg" width="24" height="24" viewBox="0 0 24 24">
<title>images1</title>
<path d="M23.688 7.169c-0.312-0.623-3.117-0.935-4.364-1.247-0.312 0-0.623 0-0.935-0.312-0.623-0.623-0.312-2.182-1.247-2.494-0.623-0.312-1.247 0-1.87 0.312s-1.558 0.312-2.182 0.623c-0.623 0-1.247 0.312-1.87 0.623-0.935-0.312-2.182-0.623-3.429-0.623-0.312 0-0.935-0.312-1.558 0-0.312 0.312-0.623 1.558-0.623 2.494-0.623 0-0.935 0.312-1.247 0.312-0.935 0.312-1.87 0.312-2.494 0.623-0.935 0.312-1.558 0.312-1.87 0.935 0 0.623 0.312 1.558 0.623 2.182 0 0.312 0.312 0.623 0.312 0.935 0.312 1.247 0.935 2.494 1.247 3.74s0.623 2.805 0.935 4.052c0.312 0.935 0.312 1.558 1.247 1.558 0.623 0 1.558-0.312 2.182-0.623 1.247-0.623 2.494-0.623 4.052-1.247 0 0 1.247-0.312 1.558-0.312 0.623 0 1.87 0.312 2.182 0.623 1.558 0 2.805 0 4.364 0.312 0.312 0 1.87 0.623 2.182 0.312 1.247 0 0.935-1.247 1.247-2.494 0.623-2.182 0.935-4.987 1.558-7.169 0-0.623 0.312-2.494 0-3.117zM14.338 4.675c0.623-0.312 0.935-0.312 1.558-0.623 0.312 0 0.623 0 0.935-0.312 0.312 0.312 0.312 1.247 0.623 1.558-0.935 0.312-1.87 0-2.805 0-0.312 0-0.935-0.312-1.247-0.312 0.312-0.312 0.623-0.312 0.935-0.312zM8.727 18.701c-0.935 0.312-1.558 0.312-2.182 0.623s-1.247 0.623-1.87 0.623c-0.623-0.935-0.623-1.87-0.935-2.805-0.623-1.558-1.247-3.429-1.87-5.299 0-0.623-0.312-1.558-0.623-2.182 0-0.312 0-0.623-0.312-0.623 1.558-0.312 2.805-0.935 4.364-1.247 0 0.935-0.312 2.182-0.623 3.117-0.312 1.247-0.312 2.494-0.623 3.74-0.312 0.623-0.623 1.87 0 2.494 0.312 0.312 0.623 0.312 1.247 0.312 0.935 0.312 2.182 0.312 3.117 0.623 0.312 0 0.935 0 1.247 0.312h0.312s-0.935 0.312-1.247 0.312zM21.195 16.831c0 0.623-0.312 1.558-0.312 2.182-4.052-0.623-8.104-1.247-12.156-2.182 0.312 0 0.312-0.312 0.623-0.623 0-0.312 0.312-0.312 0.312-0.623 0.623 0 0.935-0.312 1.247-0.623s0.312-0.623 0.623-0.623l1.87-1.87c0.312 0 0.623-0.312 0.623-0.623 0.312 0.312 0.312 0.623 0.312 0.623 0.312 0.623 0.623 0.935 0.623 1.558 0 0.312 0.312 0.623 0.312 0.623 0.623 0.312 0.935-0.312 0.935-0.623l1.87-1.87c0.623-0.312 0.935-0.312 1.247-0.623 0.312 0 0.623 1.558 0.935 1.87l0.935 1.87c0 0.312 0 0.312 0.312 0.623 0 0.312-0.312 0.935-0.312 0.935zM22.442 10.286c-0.312 0.623 0 1.247-0.312 1.87 0 0.623-0.312 1.247-0.312 2.182-0.312-0.935-0.935-1.87-1.247-2.494s-0.312-1.247-0.935-1.87c-0.623 0-0.935 0.623-1.247 0.935s-0.623 0.623-0.935 1.247c-0.312 0.312-0.623 0.312-0.935 0.623 0 0.312-0.312 0.312-0.312 0.623-0.312-0.312-0.312-0.623-0.623-0.935 0-0.312-0.312-0.935-0.623-1.247 0-0.312-0.312-0.623-0.623-0.623s-0.623 0.312-0.623 0.312l-2.805 2.805c-0.623 0.312-1.247 0.935-1.558 1.247l-0.935 0.935c-0.312 0-0.623 0.312-0.935 0.935-0.935 0-1.87-0.312-2.805-0.623 0.623-3.74 1.558-7.481 2.182-11.532 0.623 0 1.558 0.312 2.182 0.312 0.935 0.623 2.182 0.623 3.429 0.935h0.935l5.61 0.935c0.623 0.312 1.247 0.312 2.182 0.312 0.623 0 1.247 0.312 1.87 0.312-0.312 1.247-0.312 2.182-0.623 2.805zM9.662 7.481h-0.623c-0.623 0.312-0.935 0.935-1.247 1.558-0.312 1.247 0.935 3.117 2.494 2.494 2.494-0.312 2.182-4.052-0.623-4.052zM10.286 10.597h-0.623c-0.623 0-0.935-0.935-0.623-1.558 0-0.312 0.312-0.312 0.312-0.623h0.312c0.623 0 0.935 0.312 1.247 0.312 0 0.935 0 1.558-0.623 1.87z"></path>
</svg>
