<svg xmlns="http://www.w3.org/2000/svg" width="24" height="24"><path d="M23.688 7.169c-.312-.623-3.117-.935-4.364-1.247-.312 0-.623 0-.935-.312-.623-.623-.312-2.182-1.247-2.494-.623-.312-1.247 0-1.87.312s-1.558.312-2.182.623c-.623 0-1.247.312-1.87.623-.935-.312-2.182-.623-3.429-.623-.312 0-.935-.312-1.558 0-.312.312-.623 1.558-.623 2.494-.623 0-.935.312-1.247.312-.935.312-1.87.312-2.494.623-.935.312-1.558.312-1.87.935 0 .623.312 1.558.623 2.182 0 .312.312.623.312.935.312 1.247.935 2.494 1.247 3.74s.623 2.805.935 4.052c.312.935.312 1.558 1.247 1.558.623 0 1.558-.312 2.182-.623 1.247-.623 2.494-.623 4.052-1.247 0 0 1.247-.312 1.558-.312.623 0 1.87.312 2.182.623 1.558 0 2.805 0 4.364.312.312 0 1.87.623 2.182.312 1.247 0 .935-1.247 1.247-2.494.623-2.182.935-4.987 1.558-7.169 0-.623.312-2.494 0-3.117zm-9.35-2.494c.623-.312.935-.312 1.558-.623.312 0 .623 0 .935-.312.312.312.312 1.247.623 1.558-.935.312-1.87 0-2.805 0-.312 0-.935-.312-1.247-.312.312-.312.623-.312.935-.312zM8.727 18.701c-.935.312-1.558.312-2.182.623s-1.247.623-1.87.623c-.623-.935-.623-1.87-.935-2.805-.623-1.558-1.247-3.429-1.87-5.299 0-.623-.312-1.558-.623-2.182 0-.312 0-.623-.312-.623 1.558-.312 2.805-.935 4.364-1.247 0 .935-.312 2.182-.623 3.117-.312 1.247-.312 2.494-.623 3.74-.312.623-.623 1.87 0 2.494.312.312.623.312 1.247.312.935.312 2.182.312 3.117.623.312 0 .935 0 1.247.312h.312s-.935.312-1.247.312zm12.468-1.87c0 .623-.312 1.558-.312 2.182-4.052-.623-8.104-1.247-12.156-2.182.312 0 .312-.312.623-.623 0-.312.312-.312.312-.623.623 0 .935-.312 1.247-.623s.312-.623.623-.623l1.87-1.87c.312 0 .623-.312.623-.623.312.312.312.623.312.623.312.623.623.935.623 1.558 0 .312.312.623.312.623.623.312.935-.312.935-.623l1.87-1.87c.623-.312.935-.312 1.247-.623.312 0 .623 1.558.935 1.87l.935 1.87c0 .312 0 .312.312.623 0 .312-.312.935-.312.935zm1.247-6.545c-.312.623 0 1.247-.312 1.87 0 .623-.312 1.247-.312 2.182-.312-.935-.935-1.87-1.247-2.494s-.312-1.247-.935-1.87c-.623 0-.935.623-1.247.935s-.623.623-.935 1.247c-.312.312-.623.312-.935.623 0 .312-.312.312-.312.623-.312-.312-.312-.623-.623-.935 0-.312-.312-.935-.623-1.247 0-.312-.312-.623-.623-.623s-.623.312-.623.312l-2.805 2.805c-.623.312-1.247.935-1.558 1.247l-.935.935c-.312 0-.623.312-.935.935-.935 0-1.87-.312-2.805-.623.623-3.74 1.558-7.481 2.182-11.532.623 0 1.558.312 2.182.312.935.623 2.182.623 3.429.935h.935l5.61.935c.623.312 1.247.312 2.182.312.623 0 1.247.312 1.87.312-.312 1.247-.312 2.182-.623 2.805zM9.662 7.481h-.623c-.623.312-.935.935-1.247 1.558-.312 1.247.935 3.117 2.494 2.494 2.494-.312 2.182-4.052-.623-4.052zm.624 3.116h-.623c-.623 0-.935-.935-.623-1.558 0-.312.312-.312.312-.623h.312c.623 0 .935.312 1.247.312 0 .935 0 1.558-.623 1.87z"/></svg>