<!-- Generated by IcoMoon.io -->
<svg version="1.1" xmlns="http://www.w3.org/2000/svg" width="24" height="24" viewBox="0 0 24 24">
<title>incognito</title>
<path d="M17.143 0s-0.935 4.675-6.545 2.805l-1.87-0.623-2.805 8.416h12.779l-1.558-10.597zM16.831 16.208c-1.247 0-2.805 0.935-3.429 2.494l-0.935-0.623-1.247 0.623c-0.623-1.558-1.87-2.494-3.429-2.494-2.182 0-3.74 1.558-3.74 3.74s1.558 3.74 3.74 3.74c2.182 0 3.74-1.558 3.74-3.74v-0.623l0.935-0.312 0.935 0.623v0.623c0 2.182 1.558 3.74 3.74 3.74s3.74-1.558 3.74-3.74-1.87-4.052-4.052-4.052zM7.792 22.753c-1.558 0-2.494-1.247-2.494-2.494 0-1.558 1.247-2.494 2.494-2.494s2.805 0.935 2.805 2.494c0 1.247-1.247 2.494-2.805 2.494zM16.831 22.753c-1.247 0-2.494-1.247-2.494-2.494 0-1.558 1.247-2.805 2.494-2.805s2.805 1.247 2.805 2.805c0 1.247-1.247 2.494-2.805 2.494zM0.623 15.273h23.065c0.312 0-10.286-5.922-23.065 0z"></path>
</svg>
