<svg xmlns="http://www.w3.org/2000/svg" width="24" height="24"><path d="M17.143 0s-.935 4.675-6.545 2.805l-1.87-.623-2.805 8.416h12.779L17.144.001zm-.312 16.208c-1.247 0-2.805.935-3.429 2.494l-.935-.623-1.247.623c-.623-1.558-1.87-2.494-3.429-2.494-2.182 0-3.74 1.558-3.74 3.74s1.558 3.74 3.74 3.74c2.182 0 3.74-1.558 3.74-3.74v-.623l.935-.312.935.623v.623c0 2.182 1.558 3.74 3.74 3.74s3.74-1.558 3.74-3.74-1.87-4.052-4.052-4.052zm-9.039 6.545c-1.558 0-2.494-1.247-2.494-2.494 0-1.558 1.247-2.494 2.494-2.494s2.805.935 2.805 2.494c0 1.247-1.247 2.494-2.805 2.494zm9.039 0c-1.247 0-2.494-1.247-2.494-2.494 0-1.558 1.247-2.805 2.494-2.805s2.805 1.247 2.805 2.805c0 1.247-1.247 2.494-2.805 2.494zM.623 15.273h23.065c.312 0-10.286-5.922-23.065 0z"/></svg>