<svg xmlns="http://www.w3.org/2000/svg" width="24" height="24"><path d="M2.182 14.338c-.312 0-.312-.312-.312-.312V9.662l.312-.312h.312l-.312-.312H.312L0 9.35h.312c.312 0 .312.312.312.312v4.364c0 .312-.312.312-.312.312s-.312 0-.312.312.312.312.312.312h2.182s0-.312-.312-.623c.312.312.312 0 0 0zm4.675.311s-.312 0-.312-.312v-1.87s.312-1.558-.935-1.558c-.623 0-1.247.935-1.247.935v-1.247H2.805s.312.312.312.623v3.429c-.312 0-.312 0-.312.312h2.182v-.312s-.312 0-.312-.312v-2.182s0-.623.623-.623c.312 0 .312.623.312.623v2.182s0 .312-.312.312v.312h1.87c-.312 0 0 0-.312-.312.312 0 0 0 0 0zm4.052 0c-.312 0-.312-.312-.312-.312V9.038H9.039c-.312 0-.312.312-.312.312h.623c.312 0 .312.312.312.312v1.558c0-.312-.623-.623-.935-.623s-1.558.312-1.558 1.87.623 2.182 1.247 2.182.935-.623.935-.623v.623h1.558c.312.312.312 0 0 0 .312 0 .312 0 0 0zm-1.247-1.246c0 .312-.312.935-.623.935s-.312-.623-.312-.623v-1.558s0-.935.312-.935.623.623.623.623v1.558zm5.611.623c0 .312 0 .312-.312.312v-2.805c0-.623-.623-.935-1.558-.935s-1.247.312-1.558.623c-.312.312-.312.935 0 1.247.312 0 .623 0 .935-.312s0-.935 0-.935 0-.312.312-.312.623 0 .623.312v.623s-.935.623-1.558.935c-.312.312-.623.312-.623.935s.312.935.935.935 1.247-.623 1.247-.623 0 .623.935.623c.623.312.935-.312.623-.623.312-.312 0-.312 0 0zm-1.559-.623s0 .623-.623.623c-.312 0-.312-.312-.312-.312v-.312s0-.623.623-.935v.935zm9.974 0s-.312 1.247-1.247 1.247-.935-.623-.935-1.87h2.182s0-1.87-1.87-2.182c0 0-1.87 0-1.87 2.182 0 0-.312 2.182 2.182 2.182 1.558 0 1.87-1.558 1.558-1.558zm-1.87-2.494c.935 0 .623 1.558.623 1.558h-.935s-.312-1.558.312-1.558zm-2.182 3.74c-.312 0 0-.312 0 0v-2.494s0-1.247-.623-1.558c-.935 0-1.558.935-1.558.935v-.935h-1.558v.312c0 .312.312.312.312.312s.312 0 .312.312v2.805s0 .312-.312.312h1.558s-.312 0-.312-.312v-2.182s0-.623.623-.623c0 0 .312 0 .312.623v2.182s0 .312-.312.312v.312h1.87c0-.312 0-.312-.312-.312z"/></svg>