<!-- Generated by IcoMoon.io -->
<svg version="1.1" xmlns="http://www.w3.org/2000/svg" width="24" height="24" viewBox="0 0 24 24">
<title>indane</title>
<path d="M2.182 14.338c-0.312 0-0.312-0.312-0.312-0.312v-4.364l0.312-0.312h0.312l-0.312-0.312h-1.87l-0.312 0.312h0.312c0.312 0 0.312 0.312 0.312 0.312v4.364c0 0.312-0.312 0.312-0.312 0.312s-0.312 0-0.312 0.312 0.312 0.312 0.312 0.312h2.182s0-0.312-0.312-0.623c0.312 0.312 0.312 0 0 0zM6.857 14.649s-0.312 0-0.312-0.312v-1.87s0.312-1.558-0.935-1.558c-0.623 0-1.247 0.935-1.247 0.935v-1.247h-1.558s0.312 0.312 0.312 0.623v3.429c-0.312 0-0.312 0-0.312 0.312h2.182v-0.312s-0.312 0-0.312-0.312v-2.182s0-0.623 0.623-0.623c0.312 0 0.312 0.623 0.312 0.623v2.182s0 0.312-0.312 0.312v0.312h1.87c-0.312 0 0 0-0.312-0.312 0.312 0 0 0 0 0zM10.909 14.649c-0.312 0-0.312-0.312-0.312-0.312v-5.299h-1.558c-0.312 0-0.312 0.312-0.312 0.312h0.623c0.312 0 0.312 0.312 0.312 0.312v1.558c0-0.312-0.623-0.623-0.935-0.623s-1.558 0.312-1.558 1.87c0 1.558 0.623 2.182 1.247 2.182s0.935-0.623 0.935-0.623v0.623h1.558c0.312 0.312 0.312 0 0 0 0.312 0 0.312 0 0 0zM9.662 13.403c0 0.312-0.312 0.935-0.623 0.935s-0.312-0.623-0.312-0.623v-1.558s0-0.935 0.312-0.935 0.623 0.623 0.623 0.623v1.558zM15.273 14.026c0 0.312 0 0.312-0.312 0.312v-2.805c0-0.623-0.623-0.935-1.558-0.935s-1.247 0.312-1.558 0.623c-0.312 0.312-0.312 0.935 0 1.247 0.312 0 0.623 0 0.935-0.312s0-0.935 0-0.935 0-0.312 0.312-0.312 0.623 0 0.623 0.312v0.623s-0.935 0.623-1.558 0.935c-0.312 0.312-0.623 0.312-0.623 0.935s0.312 0.935 0.935 0.935 1.247-0.623 1.247-0.623 0 0.623 0.935 0.623c0.623 0.312 0.935-0.312 0.623-0.623 0.312-0.312 0-0.312 0 0zM13.714 13.403s0 0.623-0.623 0.623c-0.312 0-0.312-0.312-0.312-0.312v-0.312s0-0.623 0.623-0.935v0.935zM23.688 13.403s-0.312 1.247-1.247 1.247-0.935-0.623-0.935-1.87h2.182s0-1.87-1.87-2.182c0 0-1.87 0-1.87 2.182 0 0-0.312 2.182 2.182 2.182 1.558 0 1.87-1.558 1.558-1.558zM21.818 10.909c0.935 0 0.623 1.558 0.623 1.558h-0.935s-0.312-1.558 0.312-1.558zM19.636 14.649c-0.312 0 0-0.312 0 0v-2.494s0-1.247-0.623-1.558c-0.935 0-1.558 0.935-1.558 0.935v-0.935h-1.558v0.312c0 0.312 0.312 0.312 0.312 0.312s0.312 0 0.312 0.312v2.805s0 0.312-0.312 0.312h1.558s-0.312 0-0.312-0.312v-2.182s0-0.623 0.623-0.623c0 0 0.312 0 0.312 0.623v2.182s0 0.312-0.312 0.312v0.312h1.87c0-0.312 0-0.312-0.312-0.312z"></path>
</svg>
