<svg xmlns="http://www.w3.org/2000/svg" width="24" height="24"><path fill="#2164f3" d="M14.822 10.308a3.018 3.018 0 1 1 1.312-4.055l.008.017a3.006 3.006 0 0 1-1.304 4.03l-.017.008zM11.6.572c2.47-.901 5.294-.852 7.408.982.44.364.788.823 1.014 1.347l.009.023c.213.69-.749-.07-.88-.168a9.22 9.22 0 0 0-2.085-1.074l-.065-.021C12.837.386 8.897 2.707 6.463 6.316a19.15 19.15 0 0 0-2.215 4.989l-.033.137a2.908 2.908 0 0 1-.221.66l.008-.018c-.107.204-.049-.547-.049-.572.102-.853.253-1.612.456-2.35l-.026.111C5.511 5.34 8.01 2.065 11.6.572zm.037 20.993v-8.763c.249.025.486.037.736.037h.019a6.137 6.137 0 0 0 3.226-.91l-.027.015v9.62c0 .822-.15 1.43-.52 1.826a1.871 1.871 0 0 1-1.385.611L13.615 24h.003l-.065.001a1.82 1.82 0 0 1-1.36-.608l-.002-.002c-.368-.404-.56-1.013-.556-1.826z"/></svg>