<svg height="24" viewBox="0 0 24 24" width="24" xmlns="http://www.w3.org/2000/svg"><path d="m18.375 17.625c-1.502 0-2.915-.585-3.977-1.647l-2.397-2.397-2.397 2.397c-1.062 1.063-2.475 1.648-3.977 1.648s-2.915-.585-3.978-1.648c-1.062-1.063-1.648-2.475-1.648-3.978s.585-2.915 1.648-3.978c1.063-1.062 2.475-1.648 3.978-1.648s2.915.585 3.978 1.648l2.397 2.397 2.397-2.397c1.062-1.062 2.475-1.648 3.978-1.648s2.915.585 3.978 1.648 1.648 2.475 1.648 3.978-.585 2.915-1.648 3.978c-1.062 1.063-2.475 1.648-3.978 1.648zm-2.397-3.228c.64.64 1.492.993 2.397.993s1.757-.353 2.397-.993.993-1.492.993-2.397-.353-1.757-.993-2.397-1.492-.993-2.397-.993-1.757.353-2.397.993l-2.397 2.397zm-10.353-5.787c-.905 0-1.757.353-2.397.993s-.993 1.492-.993 2.397.353 1.757.993 2.397 1.492.993 2.397.993 1.757-.353 2.397-.993l2.397-2.397-2.397-2.397c-.64-.64-1.492-.993-2.397-.993z"/></svg>