<!-- Generated by IcoMoon.io -->
<svg version="1.1" xmlns="http://www.w3.org/2000/svg" width="24" height="24" viewBox="0 0 24 24">
<title>info11</title>
<path d="M11.844 1.558c-6.545 0-11.844 4.052-11.844 9.351 0 3.117 1.87 5.61 4.675 7.481 0 0.623-0.312 2.182-2.494 4.987 0 0 5.61-0.312 7.792-3.117h2.182c6.545 0 11.844-4.052 11.844-9.351s-5.299-9.351-12.156-9.351zM12.156 4.675c0.935 0 1.558 0.623 1.558 1.558s-0.623 1.558-1.558 1.558-1.558-0.623-1.558-1.558c0-0.935 0.623-1.558 1.558-1.558zM14.961 16.519h-5.299v-1.558h1.247v-4.364h-1.247v-1.247h4.052v5.61h1.247v1.558z"></path>
</svg>
