<svg xmlns="http://www.w3.org/2000/svg" width="24" height="24"><path d="M11.921 11.285c-.477 0-.795.318-.795.795v4.768c0 .477.318.795.795.795s.795-.318.795-.795V12.08c0-.477-.318-.795-.795-.795zm-.636-4.61c-.159.159-.159.477-.159.636 0 .318 0 .477.159.636.159 0 .477.159.636.159s.477-.159.636-.318c0 0 .159-.318.159-.477 0-.318-.159-.477-.318-.636a.769.769 0 0 0-1.113 0zM20.345 0H3.656C1.59 0 .001 1.748.001 3.655v16.688c0 2.066 1.748 3.655 3.655 3.655h16.688c1.907 0 3.496-1.589 3.655-3.655V3.655C24 1.589 22.252 0 20.345 0zm2.066 20.504c0 1.113-.954 2.066-2.066 2.066H3.656c-1.113 0-2.066-.954-2.066-2.066V3.815c0-1.113.954-2.066 2.066-2.066h16.688c1.113 0 2.066.954 2.066 2.066v16.689z"/></svg>