<!-- Generated by IcoMoon.io -->
<svg version="1.1" xmlns="http://www.w3.org/2000/svg" width="24" height="24" viewBox="0 0 24 24">
<title>info1</title>
<path d="M12 0c-6.617 0-12 5.383-12 12s5.383 12 12 12 12-5.383 12-12-5.383-12-12-12zM12 22.523c-5.804 0-10.523-4.719-10.523-10.523s4.719-10.523 10.523-10.523 10.523 4.719 10.523 10.523-4.719 10.523-10.523 10.523zM13.429 7.215c0 0.683-0.554 1.237-1.237 1.237s-1.237-0.554-1.237-1.237c0-0.683 0.554-1.237 1.237-1.237s1.237 0.554 1.237 1.237zM11.867 10.464c-0.406 0-0.738 0.332-0.738 0.738v6.277c0 0.406 0.332 0.738 0.738 0.738s0.738-0.332 0.738-0.738v-6.277c0-0.406-0.332-0.738-0.738-0.738z"></path>
</svg>
