<!-- Generated by IcoMoon.io -->
<svg version="1.1" xmlns="http://www.w3.org/2000/svg" width="24" height="24" viewBox="0 0 24 24">
<title>info-square</title>
<path d="M11.921 11.285c-0.477 0-0.795 0.318-0.795 0.795v4.768c0 0.477 0.318 0.795 0.795 0.795s0.795-0.318 0.795-0.795v-4.768c0-0.477-0.318-0.795-0.795-0.795zM11.285 6.675c-0.159 0.159-0.159 0.477-0.159 0.636 0 0.318 0 0.477 0.159 0.636 0.159 0 0.477 0.159 0.636 0.159s0.477-0.159 0.636-0.318c0 0 0.159-0.318 0.159-0.477 0-0.318-0.159-0.477-0.318-0.636-0.318-0.318-0.795-0.318-1.113 0zM20.345 0h-16.689c-2.066 0-3.655 1.748-3.655 3.655v16.688c0 2.066 1.748 3.655 3.655 3.655h16.688c1.907 0 3.496-1.589 3.655-3.655v-16.688c0.001-2.066-1.747-3.655-3.654-3.655zM22.411 20.504c0 1.113-0.954 2.066-2.066 2.066h-16.689c-1.113 0-2.066-0.954-2.066-2.066v-16.689c0-1.113 0.954-2.066 2.066-2.066h16.688c1.113 0 2.066 0.954 2.066 2.066v16.689z"></path>
</svg>
