<svg xmlns="http://www.w3.org/2000/svg" width="24" height="24"><path d="M22.61 24H1.39v-1.09h21.22zm-.8-3.18H2.23v1.51h19.58zm-.23-17.16H2.1v2.09h19.48zM11.84 0L1.64 2.39l.59.61h19.23l.54-.61zM3.71 20.21l.061.001c.334 0 .657-.048.963-.137l-.024.006c.16-1.74.25-4.9.25-6.87s-.09-5-.24-6.76a.182.182 0 0 0-.129-.15H4.59a3.45 3.45 0 0 0-.838-.1H3.75a3.7 3.7 0 0 0-.855.105L2.92 6.3a.182.182 0 0 0-.13.149v.001c-.16 1.76-.24 4.82-.24 6.76s.09 5.13.25 6.87c.272.081.585.129.909.13h.001zm5.31 0l.07.001c.331 0 .651-.048.953-.137l-.024.006c.16-1.74.25-4.9.25-6.87s-.09-5-.24-6.76A.182.182 0 0 0 9.9 6.3h-.001a3.449 3.449 0 0 0-.838-.101l-.066.001h.003a3.795 3.795 0 0 0-.866.105l.026-.005a.182.182 0 0 0-.13.149v.001c-.15 1.76-.24 4.82-.24 6.76s.09 5.13.25 6.87c.278.083.597.13.927.13h.056-.003zm6.15 0l.07.001c.331 0 .651-.048.953-.137l-.024.006c.16-1.74.25-4.9.25-6.87s-.08-5-.24-6.76a.17.17 0 0 0-.169-.15h-.012.001a3.432 3.432 0 0 0-.83-.1 3.646 3.646 0 0 0-.855.105l.025-.005a.18.18 0 0 0-.14.149v.001c-.15 1.76-.24 4.82-.24 6.76s.09 5.13.26 6.87c.274.083.589.13.915.13h.037-.002zm5.18 0h.023c.33 0 .649-.048.951-.136l-.024.006c.16-1.74.25-4.9.25-6.87s-.08-5-.24-6.76a.182.182 0 0 0-.129-.15h-.001a3.432 3.432 0 0 0-.83-.1 3.795 3.795 0 0 0-.866.105l.026-.005a.182.182 0 0 0-.13.149v.001c-.15 1.76-.24 4.82-.24 6.76s.09 5.13.25 6.87c.277.083.596.13.926.13h.036-.002z"/></svg>