<svg height="24" width="24" xmlns="http://www.w3.org/2000/svg"><path d="m7.07 10.8v3.877h-1.233v-4.873l2.547.002c1.08 0 1.449.764 1.449 1.456v3.415h-1.23v-3.408c0-.291-.149-.469-.513-.469zm8.389-.058c-.422 0-.748.216-.885.51a1.253 1.253 0 0 0 -.118.53h1.898c-.023-.53-.263-1.04-.895-1.04zm-1.003 1.88c0 .629.393 1.095 1.094 1.095.544 0 .815-.15 1.131-.466l.762.729c-.487.481-1.001.773-1.902.773-1.18 0-2.31-.643-2.31-2.52 0-1.605.985-2.512 2.281-2.512 1.315 0 2.075 1.063 2.075 2.455v.443zm-2.268 2.047c-1.004 0-1.432-.699-1.432-1.391v-4.8h1.232v1.327h.928v.996h-.929v2.4c0 .284.135.44.429.44h.5v1.027h-.728zm-7.449-5.538h-1.242v-1.18h1.242zm.003 5.595c-.93-.088-1.246-.651-1.246-1.305v-3.615h1.244v4.924zm14.805-.104c-.929-.09-1.243-.652-1.243-1.303v-5.535h1.243zm4.347-6.038c-1.125-5.493-11.792-5.841-18.664-1.657v.462c6.865-3.528 16.604-3.508 17.491 1.55.296 1.675-.646 3.418-2.329 4.422v1.311c2.025-.742 4.105-3.147 3.502-6.088zm-12.496 9.61c-4.742.438-9.686-.251-10.377-3.957-.337-1.827.497-3.765 1.598-4.967v-.643c-1.987 1.743-3.065 3.95-2.444 6.557.792 3.345 5.035 5.239 11.509 4.609 2.563-.249 5.916-1.074 8.247-2.354v-1.816c-2.116 1.261-5.617 2.302-8.533 2.571zm9.586-10.044c0-.06-.037-.079-.116-.079h-.077v.17l.077.002c.079 0 .116-.025.116-.084zm.12.423h-.091c-.009 0-.018-.004-.021-.012l-.125-.213c-.003-.005-.013-.01-.019-.01h-.056v.212c0 .012-.009.025-.023.025h-.082c-.011 0-.021-.014-.021-.025v-.533c0-.029.012-.045.038-.048.05-.005.101-.006.152-.006.152 0 .246.046.246.188v.01c0 .09-.046.135-.114.158l.13.219c0 .006.005.012.005.018.002.007-.004.017-.019.017zm-.218-.709a.409.409 0 1 0 .003.818.41.41 0 0 0 .409-.406.415.415 0 0 0 -.412-.412zm0 .907a.495.495 0 0 1 -.001-.99h.001a.496.496 0 0 1 0 .99z"/></svg>