<!-- Generated by IcoMoon.io -->
<svg version="1.1" xmlns="http://www.w3.org/2000/svg" width="24" height="24" viewBox="0 0 24 24">
<title>ionic</title>
<path d="M12 24c-6.624 0-12-5.376-12-12s5.376-12 12-12c2.016 0 3.912 0.504 5.592 1.368-0.6 0.408-1.080 0.984-1.392 1.68-1.272-0.6-2.688-0.936-4.2-0.936-5.448 0-9.888 4.44-9.888 9.888s4.44 9.888 9.888 9.888 9.888-4.44 9.888-9.888c0-1.344-0.264-2.616-0.744-3.792 0.696-0.264 1.296-0.72 1.728-1.296 0.72 1.536 1.128 3.264 1.128 5.088 0 6.624-5.376 12-12 12zM12 17.472c-3.024 0-5.472-2.448-5.472-5.472s2.448-5.472 5.472-5.472 5.472 2.448 5.472 5.472-2.448 5.472-5.472 5.472zM19.776 7.056c-1.368 0-2.472-1.104-2.472-2.472s1.104-2.472 2.472-2.472 2.472 1.104 2.472 2.472-1.128 2.472-2.472 2.472z"></path>
</svg>
