<svg xmlns="http://www.w3.org/2000/svg" width="24" height="24"><path fill="#3880ff" d="M22.922 7.027l-.103-.23-.169.188c-.408.464-.928.82-1.505 1.036l-.159.061.066.155a9.586 9.586 0 0 1 .75 3.749v.011-.001c0 5.405-4.397 9.806-9.806 9.806S2.194 17.405 2.194 12 6.596 2.194 12 2.194c1.467 0 2.883.319 4.2.947l.155.075.066-.155c.254-.582.63-1.07 1.099-1.447l.007-.006.197-.159-.225-.117a11.745 11.745 0 0 0-5.47-1.331h-.03.002c-6.619 0-12 5.381-12 12s5.381 12 12 12 12-5.381 12-12c0-1.73-.361-3.403-1.079-4.974zM12 6.53A5.475 5.475 0 0 0 6.53 12 5.475 5.475 0 0 0 12 17.47 5.475 5.475 0 0 0 17.47 12a5.479 5.479 0 0 0-5.469-5.47zm10.345-2.007a2.495 2.495 0 0 1-4.988 0 2.495 2.495 0 0 1 4.988 0z"/></svg>