<svg xmlns="http://www.w3.org/2000/svg" width="24" height="24"><path fill="#65c2cb" d="M12 0L1.608 6v12L12 24l10.392-6V6zm-1.073 1.445h.001a1.795 1.795 0 0 0 2.143-.003l-.005.003 7.534 4.35a1.778 1.778 0 0 0 .001.411l-.001-.008-7.535 4.35c-.295-.22-.666-.351-1.068-.351s-.774.132-1.073.355l.005-.003-7.536-4.35a1.778 1.778 0 0 0-.001-.41l.001.008zM21.324 7.4c.109.08.226.147.349.201v8.7a1.804 1.804 0 0 0-1.068 1.86l-.001-.008-7.535 4.35a1.744 1.744 0 0 0-.337-.195l-.012-.005-.009-8.653a1.803 1.803 0 0 0 1.069-1.859l.001.008zm-18.648.048l7.535 4.35a1.8 1.8 0 0 0 1.058 1.847l.011.005v8.7c-.124.054-.24.122-.349.202l-7.535-4.35a1.8 1.8 0 0 0-1.058-1.847l-.011-.005v-8.7c.124-.054.24-.122.349-.202z"/></svg>