<svg xmlns="http://www.w3.org/2000/svg" width="24" height="24"><path fill="#f36d5d" d="M.996 0A.997.997 0 0 0 0 .996V12c0 6.628 5.372 12 12 12s12-5.372 12-12S18.628 0 12 0zm11.17 3.582a8.333 8.333 0 0 1 8.254 8.333v.082-.004a8.334 8.334 0 0 1-8.333 8.252h-.082.004c-4.597-.045-8.296-3.81-8.254-8.41.045-4.6 3.81-8.296 8.41-8.252zm-.031 2.27h-.048a6.108 6.108 0 0 0-6.107 6.043v.057a6.11 6.11 0 0 0 6.047 6.109h.058a6.1 6.1 0 0 0 6.099-6.044v-.058a6.108 6.108 0 0 0-6.038-6.107h-.004zm-.02 3.013a3.098 3.098 0 0 1 3.063 3.098v.027-.001a3.089 3.089 0 0 1-3.088 3.06h-.035.002l.002-.001a3.092 3.092 0 0 1 .028-6.182h.03-.001z"/></svg>