<svg xmlns="http://www.w3.org/2000/svg" width="24" height="24"><path fill="#0769ad" d="M1.534 5.874c-2.123 3.05-1.86 7.017-.237 10.256.037.079.078.154.118.229.023.052.049.1.077.149.013.028.031.057.047.083.026.052.054.102.081.152l.157.265c.029.049.057.097.09.146.055.094.12.187.177.281.026.039.05.078.079.117.111.174.213.319.321.459l-.011-.015c.078.107.156.211.24.315.027.038.057.076.085.114l.221.269c.027.031.054.067.083.099.098.118.202.233.306.349 0 .002.003.004.005.007.129.163.268.307.42.436l.004.004c.08.082.16.164.245.244l.101.097c.111.104.222.208.339.308.002 0 .003.002.005.003l.057.05c.102.089.205.178.31.26l.125.105c.085.068.173.133.26.2l.136.104c.093.07.192.139.287.207.035.025.07.05.106.073l.029.023.281.185.12.08c.147.094.293.183.438.271.042.021.084.044.123.068.108.062.22.125.329.183.06.034.122.063.184.094.075.042.153.083.233.125.022.007.04.014.058.024l-.002-.001c.033.015.064.031.096.047.12.06.245.117.375.174.024.01.05.02.076.034.144.063.288.123.437.182.034.01.07.027.105.04.135.051.274.103.411.152l.05.018c.153.052.304.102.459.15.036.01.073.023.111.033.159.048.313.105.473.136 10.26 1.87 13.242-6.169 13.242-6.169-2.505 3.262-6.95 4.122-11.16 3.165-.156-.036-.312-.086-.469-.132a11.577 11.577 0 0 1-.662-.21l.095.029-.062-.024c-.136-.046-.267-.097-.4-.148a1.53 1.53 0 0 0-.099-.038l-.011-.003c-.147-.059-.29-.12-.432-.183-.031-.01-.057-.024-.088-.036a12.251 12.251 0 0 1-.499-.231l.138.061a1.483 1.483 0 0 1-.106-.052c-.094-.044-.188-.094-.28-.142a3.784 3.784 0 0 1-.207-.106l.02.01c-.113-.06-.226-.125-.339-.187-.034-.024-.073-.044-.112-.066a14.286 14.286 0 0 1-.501-.307l.063.038a2.042 2.042 0 0 1-.124-.083l.006.004a6.345 6.345 0 0 1-.33-.218l.018.012c-.035-.023-.067-.048-.103-.073a8.386 8.386 0 0 1-.318-.229l.024.017c-.042-.034-.087-.066-.132-.1-.088-.069-.177-.135-.265-.208l-.118-.094c-.13-.105-.239-.197-.346-.291l.012.01a.199.199 0 0 0-.036-.029l-.001-.001-.347-.316-.1-.094c-.082-.083-.166-.163-.25-.245l-.097-.1a9.038 9.038 0 0 1-.303-.316l-.006-.007-.015-.016a17.944 17.944 0 0 1-.313-.354c-.027-.031-.052-.064-.08-.097l-.226-.277c-.079-.098-.19-.244-.3-.392l-.04-.056C2.16 11.786 1.315 7.386 3.184 3.777zm6.587-2.569c-1.539 2.209-1.452 5.163-.254 7.499.222.438.447.808.696 1.16l-.019-.028c.23.33.484.72.792.986.107.122.223.24.344.359l.09.09c.114.11.231.218.35.325l.015.013c.12.106.255.218.393.326l.021.016c.034.023.063.05.096.073.14.108.281.212.427.315l.015.009c.062.045.128.086.198.13.028.018.06.042.09.06.106.068.21.132.317.197.017.007.032.016.048.023.09.055.188.108.282.157.033.02.065.035.099.054.067.033.133.068.197.102l.032.014c.135.066.273.128.408.19.034.013.063.024.092.038.111.048.224.094.335.137.05.017.097.037.144.052.102.038.209.073.31.108l.14.045c.146.045.294.104.448.129 7.92 1.313 9.754-4.787 9.754-4.787-1.651 2.376-4.846 3.508-8.251 2.624a7.296 7.296 0 0 1-.505-.146l.057.016c-.048-.013-.09-.028-.136-.042-.104-.036-.211-.071-.312-.109l-.144-.054c-.112-.045-.226-.087-.335-.135-.034-.015-.065-.025-.091-.04-.14-.063-.281-.125-.417-.192l-.206-.107-.119-.06a5.67 5.67 0 0 1-.265-.15.558.558 0 0 1-.065-.036l.003.001c-.106-.066-.216-.13-.317-.198-.034-.019-.065-.042-.097-.062l-.208-.136c-.144-.1-.285-.208-.427-.312-.032-.029-.063-.053-.094-.079-1.497-1.177-2.678-2.786-3.238-4.608-.59-1.894-.46-4.018.559-5.742zm5.539-1.921c-.908 1.332-.995 2.986-.37 4.455.664 1.56 2.022 2.785 3.604 3.365.065.025.128.046.195.07l.088.027c.092.029.185.063.28.084 4.376.844 5.56-2.247 5.879-2.701-1.042 1.496-2.789 1.855-4.932 1.334a4.54 4.54 0 0 1-.549-.171l.033.011a6.08 6.08 0 0 1-.655-.271l.038.017a6.442 6.442 0 0 1-1.096-.672l.016.012c-1.92-1.454-3.109-4.23-1.857-6.491z"/></svg>