<svg height="24" width="24" xmlns="http://www.w3.org/2000/svg"><path d="M11.851 0L.811 4.02l1.56 14.7L11.85 24l9.6-5.28 1.74-14.76zm.062 4.622a6.573 6.573 0 0 1 2.708.589l-.042-.017a12.585 12.585 0 0 0-2.592 1.952l.002-.002c-.045-.02-.092-.031-.138-.045a1.144 1.144 0 0 0-.345-.056h-.001c-.071 0-.141.01-.21.021a8.63 8.63 0 0 1-.61-2.273l-.005-.045a6.342 6.342 0 0 1 1.166-.122h.005l.053-.002zm-1.99.312c.13.933.371 1.777.714 2.567l-.024-.063a1.207 1.207 0 0 0-.328.825c.001.233.068.451.183.635l-.003-.005c-.937 1.294-1.656 2.803-1.905 4.31-.01.056-.013.11-.02.166-.282.09-.515.284-.656.54-.987-.333-1.885-.968-2.615-2.022a6.449 6.449 0 0 1-.026-.51v-.005c.002-3.007 1.947-5.554 4.633-6.425zm5.507.709a6.777 6.777 0 0 1 2.513 2.859l.017.041c-.377.953-1.049 1.892-1.893 2.727a1.23 1.23 0 0 0-.644-.184 1.233 1.233 0 0 0-.77.272l.002-.002a11.08 11.08 0 0 1-1.318-1.168c-.333-.35-.637-.73-.921-1.123.19-.215.31-.494.31-.802a1.2 1.2 0 0 0-.159-.586c1.058-1.008 2.112-1.67 2.863-2.034zm-3.925 1.982c.13.003.25.045.348.115l-.002-.001c.175.111.29.304.292.524a.624.624 0 0 1-.289.522l-.003.002a.626.626 0 0 1-.345.113h-.005a.634.634 0 0 1-.634-.634v-.003c0-.355.283-.638.638-.638zm-.441 1.771a1.193 1.193 0 0 0 .682.06l-.008.001c.036.05.075.097.112.148.302.416.604.78.927 1.125l-.006-.006c.441.456.913.875 1.416 1.255l.03.022c-.032.11-.054.224-.054.342.002.137.026.267.069.389l-.003-.009a9.725 9.725 0 0 1-2.049 1.02l-.069.022c-.087.029-.173.052-.261.078a7.52 7.52 0 0 1-1.85.331l-.02.001a1.155 1.155 0 0 0-.653-.77l-.007-.003c.004-.024.005-.049.01-.073.219-1.333.873-2.73 1.733-3.934zm7.272.19c.153.535.242 1.149.245 1.785v.001a6.834 6.834 0 0 1-.271 1.904l.012-.048a9.896 9.896 0 0 1-1.725-.656l.059.026a1.243 1.243 0 0 0-.068-.721l.003.008a9.46 9.46 0 0 0 1.72-2.25zm-2.913 2.101c.367 0 .657.291.657.658s-.291.657-.657.657c-.367 0-.658-.29-.658-.657s.29-.658.658-.658zm.837 1.59c.507.255 1.105.489 1.726.669l.076.019c-1.03 2.459-3.394 4.154-6.149 4.157l-.083-.005.021.001h-.043.001c-.087-.042-.168-.08-.266-.129-.312-.154-.667-.352-.846-.5a3.8 3.8 0 0 1-1.288-2.004l-.006-.026c.21-.111.38-.284.487-.495a8.435 8.435 0 0 0 2.019-.321l-.059.015c.237-.063.408-.115.577-.173l-.064.019a11.091 11.091 0 0 0 2.385-1.156l-.044.026a1.24 1.24 0 0 0 1.557-.098zm-10.707.116a5.743 5.743 0 0 0 2.171 1.287l.041.011c.097.432.428.767.849.868l.008.002c.209.876.644 1.63 1.24 2.222a6.744 6.744 0 0 1-4.296-4.342zm3.327.464c.331 0 .595.263.595.596s-.264.595-.595.595h-.006a.59.59 0 0 1-.59-.59v-.01c0-.326.265-.591.591-.591z" fill="#e84d3d"/></svg>