<!-- Generated by IcoMoon.io -->
<svg version="1.1" xmlns="http://www.w3.org/2000/svg" width="24" height="24" viewBox="0 0 24 24">
<title>kadam</title>
<path d="M14.649 6.857c0-0.623 0-1.558-0.935-1.558-0.935 0.623-1.247 0.623-1.87 1.247 0.935 0.312 1.87 0.312 2.805 0.312zM11.844 9.662c-0.623-0.935-1.87-0.312-3.117-0.623-0.623-0.312-1.247-0.623-2.182-1.247 0 0.935-0.935 1.247-1.558 1.87 0.935 0.935 1.87 1.558 3.117 2.494 0.935 0.623 1.558 1.558 2.182 2.182 0.312 0.623 0.623 0.935 0.935 1.247 0.623 0.312 1.558 0.935 2.494 0.935-0.935-0.935-1.247-1.87-1.558-3.74-0.312-0.935 0.312-2.494-0.312-3.117zM16.208 16.208l-0.935 0.935c-0.935 0.312-2.494 0-3.429-0.312 0.623 0.935 2.494 2.494 4.052 2.805 0.623 0.312 1.558 0 2.494 0.312h2.494c0.935-0.312 2.494-0.312 3.117-1.247 0-0.623-0.935-0.935-1.558-1.247-1.247-0.623-3.117-1.87-4.675-1.87-0.623 0.312-0.935 0.312-1.558 0.623zM5.299 8.727c1.247-1.247 1.247-2.494 0.312-4.052 0-0.623-0.312-1.247-0.623-1.247-0.935 0.935-1.87 1.558-2.494 2.805 0 1.558 1.558 2.182 2.182 3.117 0.312 0 0.312-0.312 0.623-0.623zM6.857 7.169c0.623 0.312 1.247 0.935 2.182 1.247h1.247c0.935-0.312 1.87 0.312 2.182 0.935 0.623 0.623 0 1.87 0.312 3.117 0.312 1.558 0.623 3.74 1.87 4.052 0.312 0 0.623-0.312 0.935-0.623 0.623-0.623 1.558-0.935 2.494-0.935-0.312-0.312-0.623-0.935-0.935-1.247s-1.558 0.312-1.87 0c0 0-0.312-0.312 0-0.312 0.312-0.312 1.247-0.623 1.87-0.623 0-0.312-0.312-0.623-0.312-0.935-0.623 0.312-1.247 0.623-1.87 0.623 0 0 0-0.312-0.312-0.312v-0.312c0.312-0.312 1.247-0.623 1.87-0.623 0-0.312-0.312-0.623-0.312-0.935-0.312 0-1.558 0.312-1.558 0.312v-0.623c0.623 0 0.935-0.312 1.558-0.312-0.312 0-0.623-0.312-0.623-0.623-0.623 0-1.247 0.312-1.87 0.312h-0.312v-0.312c0.312-0.312 1.247-0.623 1.87-0.623 0-0.312-0.312-0.623-0.312-0.935h-1.247c-0.935 0-1.87 0-2.494-0.312-0.623-0.623-1.558-1.247-1.87-2.182 0-0.312-0.312-0.623-0.312-1.247v-1.247c-0.312-0.312-0.935-0.312-1.247-0.312s-0.623 0-0.935 0.312l-1.247 0.623c0.312 0.935 1.87 2.494 1.247 4.052zM17.455 20.26c-1.247 0-2.494 0-3.429-0.623-1.247-0.623-2.494-1.87-3.117-2.805-0.312-0.623-0.623-0.935-0.935-1.558-0.623-0.935-1.558-2.182-2.494-2.805-1.558-1.247-3.117-2.494-4.364-3.74-0.623-0.623-1.247-1.247-1.247-2.182-0.312 0-0.623 0.312-0.623 0.312-1.247 0.623-1.558 1.87-0.935 2.805 1.558 2.494 4.364 3.117 6.857 4.987 1.247 0.935 1.87 2.494 2.805 3.74s2.494 2.182 4.052 2.805c2.494 0.935 7.481 0.623 8.727-1.247-0.935 0-1.87 0.312-3.117 0.312h-2.182zM3.74 11.844c-0.312 0-1.87-2.182-2.494-2.494 0-0.312-0.623-0.623-0.312-0.935 0 0 0-0.312 0.312-0.312 0.623 0 0.623 0.312 0.935 0.623l2.182 2.182c0 0.623-0.312 0.623-0.623 0.935z"></path>
</svg>
