<svg xmlns="http://www.w3.org/2000/svg" width="24" height="24"><path d="M14.649 6.857c0-.623 0-1.558-.935-1.558-.935.623-1.247.623-1.87 1.247.935.312 1.87.312 2.805.312zm-2.805 2.805c-.623-.935-1.87-.312-3.117-.623-.623-.312-1.247-.623-2.182-1.247 0 .935-.935 1.247-1.558 1.87.935.935 1.87 1.558 3.117 2.494.935.623 1.558 1.558 2.182 2.182.312.623.623.935.935 1.247.623.312 1.558.935 2.494.935-.935-.935-1.247-1.87-1.558-3.74-.312-.935.312-2.494-.312-3.117zm4.364 6.546l-.935.935c-.935.312-2.494 0-3.429-.312.623.935 2.494 2.494 4.052 2.805.623.312 1.558 0 2.494.312h2.494c.935-.312 2.494-.312 3.117-1.247 0-.623-.935-.935-1.558-1.247-1.247-.623-3.117-1.87-4.675-1.87-.623.312-.935.312-1.558.623zM5.299 8.727c1.247-1.247 1.247-2.494.312-4.052 0-.623-.312-1.247-.623-1.247-.935.935-1.87 1.558-2.494 2.805 0 1.558 1.558 2.182 2.182 3.117.312 0 .312-.312.623-.623zm1.558-1.558c.623.312 1.247.935 2.182 1.247h1.247c.935-.312 1.87.312 2.182.935.623.623 0 1.87.312 3.117.312 1.558.623 3.74 1.87 4.052.312 0 .623-.312.935-.623.623-.623 1.558-.935 2.494-.935-.312-.312-.623-.935-.935-1.247s-1.558.312-1.87 0c0 0-.312-.312 0-.312.312-.312 1.247-.623 1.87-.623 0-.312-.312-.623-.312-.935-.623.312-1.247.623-1.87.623 0 0 0-.312-.312-.312v-.312c.312-.312 1.247-.623 1.87-.623 0-.312-.312-.623-.312-.935-.312 0-1.558.312-1.558.312v-.623c.623 0 .935-.312 1.558-.312-.312 0-.623-.312-.623-.623-.623 0-1.247.312-1.87.312h-.312V9.04c.312-.312 1.247-.623 1.87-.623 0-.312-.312-.623-.312-.935h-1.247c-.935 0-1.87 0-2.494-.312-.623-.623-1.558-1.247-1.87-2.182 0-.312-.312-.623-.312-1.247V2.494c-.312-.312-.935-.312-1.247-.312s-.623 0-.935.312l-1.247.623c.312.935 1.87 2.494 1.247 4.052zM17.455 20.26c-1.247 0-2.494 0-3.429-.623-1.247-.623-2.494-1.87-3.117-2.805-.312-.623-.623-.935-.935-1.558-.623-.935-1.558-2.182-2.494-2.805-1.558-1.247-3.117-2.494-4.364-3.74-.623-.623-1.247-1.247-1.247-2.182-.312 0-.623.312-.623.312-1.247.623-1.558 1.87-.935 2.805 1.558 2.494 4.364 3.117 6.857 4.987 1.247.935 1.87 2.494 2.805 3.74s2.494 2.182 4.052 2.805c2.494.935 7.481.623 8.727-1.247-.935 0-1.87.312-3.117.312h-2.182zM3.74 11.844c-.312 0-1.87-2.182-2.494-2.494 0-.312-.623-.623-.312-.935 0 0 0-.312.312-.312.623 0 .623.312.935.623l2.182 2.182c0 .623-.312.623-.623.935z"/></svg>