<svg xmlns="http://www.w3.org/2000/svg" width="24" height="24"><path d="M4.47 0h-.03a2.81 2.81 0 0 0-2.81 2.779v18.432a2.8 2.8 0 0 0 2.8 2.79h.042-.002.05a2.8 2.8 0 0 0 2.8-2.779V2.781A2.83 2.83 0 0 0 4.49.001h-.022.001zm9.4 8.54a2.798 2.798 0 0 0-3.898-.654l.009-.006a2.68 2.68 0 0 0-.675 3.807l-.005-.008 8 11.15a2.81 2.81 0 0 0 3.889.655l-.009.006a2.683 2.683 0 0 0 .734-3.729l.006.009-.06-.09-7.98-11.14zm3.65-1.18h.03a3.71 3.71 0 0 0 3.71-3.668V3.69A3.71 3.71 0 0 0 17.55.02h-.032.002-.04a3.71 3.71 0 0 0-3.71 3.668v.002a3.71 3.71 0 0 0 3.71 3.67h.042-.002z"/></svg>