<svg xmlns="http://www.w3.org/2000/svg" width="24" height="24"><path fill="#14bf96" d="M21.724 4.973L13.418.328C13.005.121 12.519 0 12.004 0s-1.001.121-1.433.336l.019-.008-8.314 4.645A3.054 3.054 0 0 0 .862 7.362v9.265a3.055 3.055 0 0 0 1.402 2.393l.012.007 8.306 4.645c.413.207.899.328 1.414.328s1.001-.121 1.433-.336l-.019.008 8.314-4.645a3.058 3.058 0 0 0 1.414-2.392V7.373a3.055 3.055 0 0 0-1.402-2.393l-.012-.007zM12 4.921a2.57 2.57 0 1 1 0 5.142 2.57 2.57 0 1 1 0-5.142zm3.094 13.627a8.958 8.958 0 0 1-3.102.549h-.001a8.964 8.964 0 0 1-3.138-.57l.062.02c-3.234-1.249-5.486-4.333-5.486-7.943v-.046.002-.857c4.646.017 8.074 3.823 8.074 8.51v.198h.926v-.197c0-4.688 3.445-8.51 8.056-8.51.026.29.043.582.086.856v.042a8.507 8.507 0 0 1-5.419 7.926l-.058.02z"/></svg>