<svg xmlns="http://www.w3.org/2000/svg" width="24" height="24"><path fill="#3babff" d="M.652.76H.649a.623.623 0 0 0-.496.245l-.001.001c-.352.448-.035.898.362 1.262.206.189 1.77 1.794 3.428 3.527a11.21 11.21 0 0 1 1.8-1.971l.015-.012C3.667 2.515 1.694 1.266 1.461 1.1 1.201.914.917.762.652.76zm5.105 3.052c1.848 1.148 3.786 2.332 4.693 2.84 1.469.821 3.758 2.684 4.092 4.434.535.466 2.182 1.916 2.596 2.413.698-.211 1.518.133 2.06 1.12.866 1.583.227 3.747-1.968 4.988a5.115 5.115 0 0 1-.288.26l-.008.007.296-.267c1.14-1.468-.714-2.44-1.175-3.864a2.032 2.032 0 0 1-.11-.785v.005c-.533-.282-2.11-1.452-2.795-1.965-1.801.16-4.207-1.773-5.35-3.08-.7-.802-2.32-2.517-3.858-4.123a10.964 10.964 0 0 0-2.046 6.392v.001c0 6.104 4.948 11.052 11.052 11.052S24 18.292 24 12.188c0-6.104-4.948-11.052-11.052-11.052a11.05 11.05 0 0 0-7.191 2.676zm8.71 7.552c-.515.126-.968.831-1.118 1.306-.038.115-.04.303.066.342.802.592 1.556 1.168 2.4 1.7.162-.393.746-.963 1.096-1.2zm-11.53 1.639c.812 1.898 5.798 7.17 12.06 2.695v.037c0 .243.042.476.119.693l-.004-.014c.46 1.42 2.36 2.427 1.238 3.89-2.135 1.364-5 1.201-6.989.528-3.558-1.204-5.914-4.332-6.423-7.828zm13.782.7a.756.756 0 0 0-.066.05l.001-.001c-.004.003-.008.008-.011.008.003-.003.007-.008.01-.008.024-.015.044-.034.066-.049z"/></svg>