<svg xmlns="http://www.w3.org/2000/svg" width="24" height="24"><path fill="#326ce5" d="M10.204 14.35l.007.01-.999 2.413a5.196 5.196 0 0 1-2.063-2.561l-.012-.036 2.578-.437.004.005a.44.44 0 0 1 .484.609l.001-.003zm-.833-2.129a.442.442 0 0 0 .174-.755h-.001l.002-.011-1.961-1.754a5.087 5.087 0 0 0-.761 2.692c0 .198.011.394.033.586l-.002-.024 2.514-.725zm1.145-1.98a.441.441 0 0 0 .699-.336v-.001l.01-.005.15-2.62a5.146 5.146 0 0 0-3.011 1.443l.001-.001 2.147 1.523zm.76 2.75l.723.349.722-.347.18-.78-.5-.623h-.804l-.5.623zm1.5-3.095a.44.44 0 0 0 .702.335l-.001.001.008.003 2.134-1.513a5.167 5.167 0 0 0-2.966-1.439l-.026-.003.148 2.615zm10.876 5.97l-5.773 7.181a1.598 1.598 0 0 1-1.244.594h-.004l-9.261.003h-.001c-.502 0-.95-.231-1.243-.593l-.002-.003-5.776-7.18a1.572 1.572 0 0 1-.305-1.35l-.002.011 2.06-8.955c.108-.47.425-.864.863-1.073L11.306.514a1.602 1.602 0 0 1 1.395.004l-.01-.004 8.345 3.985c.438.209.755.604.863 1.073l2.062 8.955c.108.47-.005.963-.308 1.34zm-3.289-2.057c-.042-.01-.103-.026-.145-.034-.174-.033-.315-.025-.479-.038-.35-.037-.638-.067-.895-.148-.105-.04-.18-.165-.216-.216l-.201-.059a6.46 6.46 0 0 0-.114-2.376l.009.044a6.48 6.48 0 0 0-.95-2.186l.014.023c.052-.047.15-.133.177-.159.008-.09.001-.183.094-.282.197-.185.444-.338.743-.522.142-.084.273-.137.415-.242.032-.024.076-.062.11-.089.24-.191.295-.52.123-.736s-.506-.236-.745-.045c-.034.027-.08.062-.111.088-.134.116-.217.23-.33.35-.246.25-.45.458-.673.609-.097.056-.239.037-.303.033l-.19.135a6.526 6.526 0 0 0-4.12-2.001l-.026-.002-.012-.223c-.065-.062-.143-.115-.163-.25-.022-.268.015-.557.057-.905.023-.163.061-.298.068-.475.001-.04-.001-.099-.001-.142 0-.306-.224-.555-.5-.555-.275 0-.499.249-.499.555l.001.014c0 .041-.002.092 0 .128.006.177.044.312.067.475.042.348.078.637.056.906a.55.55 0 0 1-.161.258h-.001l-.012.211a6.418 6.418 0 0 0-4.163 2l-.003.003a6.494 6.494 0 0 1-.203-.144l.023.016c-.09.012-.18.04-.297-.029-.223-.15-.427-.358-.673-.608-.113-.12-.195-.234-.329-.349a2.691 2.691 0 0 0-.111-.088.593.593 0 0 0-.347-.132h-.001l-.026-.001a.478.478 0 0 0-.372.176l-.001.001c-.172.216-.117.546.123.737l.007.005.104.083c.142.105.272.159.414.242.299.185.546.338.743.522.076.082.09.226.1.288l.16.143a6.405 6.405 0 0 0-1.086 3.585c0 .325.024.644.07.956l-.004-.035-.208.06c-.055.072-.133.184-.215.217-.257.081-.546.11-.895.147-.164.014-.305.006-.48.039-.037.007-.09.02-.133.03l-.004.002-.007.002c-.295.071-.484.342-.423.608.061.267.349.429.645.365l.007-.001.01-.003.129-.029c.17-.046.294-.113.448-.172.33-.118.604-.217.87-.256.112-.009.23.069.288.101l.217-.037a6.54 6.54 0 0 0 2.85 3.58l.03.016-.09.218c.033.084.069.199.044.282-.097.252-.263.517-.452.813-.091.136-.185.242-.268.399-.02.037-.045.095-.064.134-.128.275-.034.591.213.71.248.12.556-.007.69-.282v-.002c.02-.039.046-.09.062-.127.07-.162.094-.301.144-.458.132-.332.205-.68.387-.897.05-.06.13-.082.215-.105l.113-.205a6.34 6.34 0 0 0 2.32.432c.823 0 1.609-.154 2.333-.435l-.044.015.106.192c.086.028.18.042.256.155.136.232.229.507.342.84.05.156.074.295.145.457.016.037.043.09.062.129.133.276.442.402.69.282.247-.118.341-.435.213-.71-.02-.039-.045-.096-.065-.134-.083-.156-.177-.261-.268-.398-.19-.296-.346-.541-.443-.793-.04-.13.007-.21.038-.294-.018-.022-.059-.144-.083-.202a6.536 6.536 0 0 0 2.867-3.576l.013-.046c.064.01.176.03.213.038.075-.05.144-.114.28-.104.266.039.54.138.87.256.154.06.277.128.448.173.036.01.088.019.13.028l.009.003.007.001c.297.064.584-.098.645-.365.06-.266-.128-.537-.423-.608zM16.4 9.701l-1.95 1.746v.005a.44.44 0 0 0 .17.756l.003.001.003.01 2.526.728a5.185 5.185 0 0 0-.115-1.71l.007.035a5.214 5.214 0 0 0-.657-1.594l.013.022zm-4.013 5.325a.438.438 0 0 0-.386-.232h-.019.001a.44.44 0 0 0-.371.231l-.001.002h-.002l-1.268 2.292c.497.175 1.07.277 1.667.277.594 0 1.164-.1 1.695-.285l-.036.011-1.27-2.296zm1.888-1.293a.445.445 0 0 0-.273.037l.003-.001a.442.442 0 0 0-.213.575l-.001-.003-.003.004 1.01 2.438a5.178 5.178 0 0 0 2.07-2.579l.011-.036-2.6-.44z"/></svg>