<svg xmlns="http://www.w3.org/2000/svg" width="24" height="24"><path d="M21.333 4.319C16.56.386 9.453.632 4.973 5.057a7.55 7.55 0 0 0-2.264 5.4c0 2.114.866 4.025 2.263 5.399l.001.001c3.018 2.982 7.912 2.982 10.931 0 .599-.589.97-1.408.97-2.314s-.371-1.725-.97-2.314c-.603-.593-1.43-.958-2.343-.958s-1.74.366-2.343.959a1.11 1.11 0 0 1-1.561 0 1.081 1.081 0 0 1 0-1.542c1.004-.987 2.383-1.597 3.904-1.597s2.9.61 3.905 1.598l-.001-.001c.998.982 1.617 2.347 1.617 3.857s-.619 2.875-1.616 3.856l-.001.001c-3.881 3.834-10.174 3.834-14.055 0A9.706 9.706 0 0 1 .499 10.46a9.707 9.707 0 0 1 2.895-6.927l.001-.001c2.2-2.18 5.242-3.53 8.604-3.53 3.75 0 7.105 1.68 9.333 4.319zm-.714 16.136A12.144 12.144 0 0 1 12.027 24h-.029.001-.029c-3.723 0-7.055-1.67-9.289-4.302l-.014-.018c4.772 3.933 11.88 3.687 16.36-.738 1.398-1.375 2.264-3.286 2.264-5.4s-.866-4.025-2.263-5.399l-.001-.001c-3.018-2.982-7.912-2.982-10.931 0-.599.589-.97 1.408-.97 2.314s.371 1.725.97 2.314c.603.593 1.43.958 2.343.958s1.74-.366 2.343-.959a1.11 1.11 0 0 1 1.561 0 1.081 1.081 0 0 1 0 1.542c-1.004.987-2.383 1.597-3.904 1.597s-2.9-.61-3.905-1.598l.001.001c-.998-.982-1.617-2.347-1.617-3.857s.619-2.875 1.616-3.856l.001-.001c3.881-3.834 10.174-3.834 14.055 0a9.706 9.706 0 0 1 2.911 6.942 9.706 9.706 0 0 1-2.88 6.912l-.001.001z"/></svg>