<!-- Generated by IcoMoon.io -->
<svg version="1.1" xmlns="http://www.w3.org/2000/svg" width="24" height="24" viewBox="0 0 24 24">
<title>lastpass</title>
<path fill="#d32d27" d="M22.629 6.857c0-0.379 0.304-0.686 0.686-0.686 0.378 0 0.685 0.312 0.685 0.686v10.286c0 0.379-0.304 0.686-0.686 0.686-0.379 0-0.686-0.312-0.686-0.686zM2.057 10.286c1.136 0 2.057 0.921 2.057 2.057s-0.921 2.057-2.057 2.057-2.057-0.921-2.057-2.057 0.921-2.057 2.057-2.057zM9.6 10.286c1.136 0 2.057 0.921 2.057 2.057s-0.921 2.057-2.057 2.057-2.057-0.921-2.057-2.057 0.921-2.057 2.057-2.057zM17.143 10.286c1.136 0 2.057 0.921 2.057 2.057s-0.921 2.057-2.057 2.057-2.057-0.921-2.057-2.057 0.921-2.057 2.057-2.057z"></path>
</svg>
