<svg xmlns="http://www.w3.org/2000/svg" width="24" height="24"><path d="M15.75 14.925c.075 5.1-3.975 8.775-3.975 8.775s-.3.45-.525.225c-.225-.225 0-.6 0-.6 1.2-3.975 0-6.075 0-6.075-1.95.75-2.625.675-2.625.675-.825-1.8-2.625-2.7-2.625-2.7.225-1.65.75-2.475.75-2.475-1.575-1.05-5.475-.525-6-.225s-.675.225-.675.225c-.3-.225.075-.45.075-.45 5.325-4.8 9-3.975 9-3.975C15.075 0 24 .15 24 .15c-.45 9.525-8.25 14.775-8.25 14.775zm1.275-9.975c-1.275 0-2.25.975-2.25 2.25s.975 2.25 2.25 2.25 2.25-.975 2.25-2.25-1.05-2.25-2.25-2.25zM4.575 16.8s.9-.525 1.05-.375c0 0 .075.075-.15.375s-.675 1.425-.75 2.325c0 0 1.275.15 2.325-.525 0 0 .375-.3.525-.225.075.075 0 .45-.225.825s-1.5 2.325-5.175 2.55c0 .075-.3-2.85 2.4-4.95z"/></svg>