<!-- Generated by IcoMoon.io -->
<svg version="1.1" xmlns="http://www.w3.org/2000/svg" width="24" height="24" viewBox="0 0 24 24">
<title>launchpad</title>
<path d="M15.75 14.925c0.075 5.1-3.975 8.775-3.975 8.775s-0.3 0.45-0.525 0.225c-0.225-0.225 0-0.6 0-0.6 1.2-3.975 0-6.075 0-6.075-1.95 0.75-2.625 0.675-2.625 0.675-0.825-1.8-2.625-2.7-2.625-2.7 0.225-1.65 0.75-2.475 0.75-2.475-1.575-1.050-5.475-0.525-6-0.225s-0.675 0.225-0.675 0.225c-0.3-0.225 0.075-0.45 0.075-0.45 5.325-4.8 9-3.975 9-3.975 5.925-8.325 14.85-8.175 14.85-8.175-0.45 9.525-8.25 14.775-8.25 14.775zM17.025 4.95c-1.275 0-2.25 0.975-2.25 2.25s0.975 2.25 2.25 2.25 2.25-0.975 2.25-2.25-1.050-2.25-2.25-2.25zM4.575 16.8s0.9-0.525 1.050-0.375c0 0 0.075 0.075-0.15 0.375s-0.675 1.425-0.75 2.325c0 0 1.275 0.15 2.325-0.525 0 0 0.375-0.3 0.525-0.225 0.075 0.075 0 0.45-0.225 0.825s-1.5 2.325-5.175 2.55c0 0.075-0.3-2.85 2.4-4.95z"></path>
</svg>
