<svg xmlns="http://www.w3.org/2000/svg" width="24" height="24"><path d="M18.675 21.825h-12.6A3.841 3.841 0 0 1 2.25 18V7.725c0-2.1 1.725-3.825 3.825-3.825H18.75c2.1 0 3.825 1.725 3.825 3.825V18c-.075 2.1-1.8 3.825-3.9 3.825zM9.15 10.35c-.6 0-1.125.45-1.125 1.05s.525 1.05 1.125 1.05 1.125-.45 1.125-1.05-.45-1.05-1.125-1.05zm3.3 5.925c-1.8 0-2.625-.75-2.7-.825s-.45-.3-.675 0 0 .675.15.825c.15.15 1.5 1.2 3.3 1.2s3-.9 3.225-1.2c.225-.3.375-.45.15-.825s-.825 0-.825 0c-1.125.975-2.625.825-2.625.825zm3.15-5.925c-.6 0-1.125.45-1.125 1.05S15 12.45 15.6 12.45s1.125-.45 1.125-1.05-.525-1.05-1.125-1.05zm-8.625-9.3C6.975.45 7.5 0 8.025 0h8.625c.6 0 1.05.45 1.05 1.05v1.725H6.975V1.05zM6.15 22.8H18.6c.15 0 .225.075.225.225v.75c0 .15-.075.225-.225.225H6.15c-.15 0-.225-.075-.225-.225v-.75c0-.15.075-.225.225-.225z"/></svg>