<svg height="24" width="24" xmlns="http://www.w3.org/2000/svg"><path d="m20.254 11.421h-.007a.81.81 0 0 0 -.81.81l.002.059v-.003.028a.84.84 0 0 0 .827.839h.002a.816.816 0 0 0 .814-.869v-.026a.838.838 0 0 0 -.827-.838zm-6.51 0h-.007a.81.81 0 0 0 -.81.81l.002.059v-.003.028a.84.84 0 0 0 .827.839h.002a.816.816 0 0 0 .814-.869v-.026a.838.838 0 0 0 -.827-.838zm-7.011-.052h-.027a.785.785 0 0 0 -.622.306l-.001.002a.98.98 0 0 0 -.17.741l-.001-.006 1.477-.612a.71.71 0 0 0 -.652-.431h-.003zm-6.733-3.369v8h24v-8zm5.006 5.827h-2.779v-4h.857v3.224h1.922zm1.817-.621h.027c.33 0 .63-.124.858-.327l-.001.001.534.411a2.02 2.02 0 0 1 -1.427.588h-.004a1.594 1.594 0 1 1 -.09-3.179h-.003a1.54 1.54 0 0 1 1.215.499l.001.001c.195.235.328.529.369.852l.001.008-2.162.9a.933.933 0 0 0 .634.247l.05-.001zm4.883.621h-.845v-1.752a.68.68 0 0 0 -.713-.651h.002l-.04-.001a.66.66 0 0 0 -.66.652v1.752h-.843v-3.079h.846v.441c.234-.299.595-.49 1-.493l.066-.002c.654 0 1.185.531 1.185 1.185l-.001.041v-.002zm1.984.052a1.594 1.594 0 1 1 1.66-1.592 1.6 1.6 0 0 1 -1.6 1.593l-.063-.001zm2.8-.053-1.267-3.078h.966l.764 2.1.764-2.1h.966l-1.267 3.078zm3.711.053a1.594 1.594 0 1 1 1.66-1.592 1.6 1.6 0 0 1 -1.6 1.593l-.063-.001zm2-.418h-.141v.366h-.085v-.366h-.137v-.077h.362zm.541.366h-.082v-.315l-.137.213h-.013l-.136-.213v.315h-.082v-.443h.09l.134.21.134-.21h.088z" fill="#e2231a"/></svg>