<svg xmlns="http://www.w3.org/2000/svg" width="24" height="24"><path fill="#003a70" d="M18.197 24H5.804a.965.965 0 0 1-.962-.962V13.87c0-.529.433-.962.962-.962h1.164v-1.482c0-2.775 2.258-5.032 5.032-5.032s5.032 2.258 5.032 5.032v1.482h1.164c.529 0 .962.433.962.962v9.168a.965.965 0 0 1-.961.962zm-5.569-5.072a1.274 1.274 0 0 0-.625-2.384H12a1.275 1.275 0 0 0-.634 2.381l.006.003v1.242a.628.628 0 1 0 1.256 0zm-2.774-6.02h4.293v-1.482c0-1.183-.963-2.146-2.146-2.146s-2.146.963-2.146 2.146zm-5.307-1.366h-2.99a.878.878 0 1 1 0-1.756h2.99a.878.878 0 1 1 0 1.756zm2.107-4.704h-.002a.866.866 0 0 1-.556-.201l.001.001-2.365-1.945a.878.878 0 1 1 1.117-1.355l-.001-.001 2.365 1.945a.878.878 0 0 1-.557 1.557h-.003zM12 4.77a.878.878 0 0 1-.878-.878V.878a.878.878 0 1 1 1.756 0v3.014A.878.878 0 0 1 12 4.77zm5.346 2.068h-.004a.877.877 0 0 1-.557-1.555l.002-.001 2.365-1.945a.878.878 0 0 1 1.117 1.355l-.001.001-2.365 1.945a.87.87 0 0 1-.556.199h-.001zm5.097 4.704h-3.019a.878.878 0 1 1 0-1.756h3.019a.878.878 0 1 1 0 1.756z"/></svg>