<svg xmlns="http://www.w3.org/2000/svg" width="24" height="24"><path fill="#fff" d="M12.008 4.866c-2.914 0-5.377.679-6.995 2.11-.05-.088-.085-.163-.141-.253-.17-.273-.328-.583-.828-.89a2.669 2.669 0 0 0-.998-.385l-.016-.002a2.38 2.38 0 0 0-.48 0l.01-.001.099-.013c-.91 0-1.442.546-1.788 1.016-.344.47-.566.999-.71 1.577-.285 1.155-.289 2.651.81 3.767.575.588 1.251.863 1.863 1.027.118.032.223.04.336.063.399 1.892 1.58 3.492 3.158 4.381v.001h.002c.929.522 1.81.761 2.472 1.014.924.357 1.9.751 3.036.85l.06.006h.15c1.306 0 2.296-.527 3.152-.855.655-.25 1.54-.482 2.477-1.008.454-.258.846-.55 1.199-.883l-.003.003a6.751 6.751 0 0 0 1.958-3.405l.009-.045a3.918 3.918 0 0 0 2.189-1.149l.001-.001c1.098-1.115 1.094-2.611.809-3.766-.144-.578-.366-1.106-.71-1.577-.345-.47-.879-1.016-1.788-1.016l.1.013a1.996 1.996 0 0 0-.482.003l.01-.001a2.71 2.71 0 0 0-1.021.391l.011-.006c-.499.307-.658.616-.827.888-.055.089-.09.163-.139.249-1.617-1.426-4.076-2.103-6.985-2.103zm.023 1.37c3.557 0 6.013 1.065 7.057 2.97.63-.243 1.093-1.89 1.612-2.209.42-.26.665-.195.665-.195.95 0 1.93 2.797.712 4.032-.644.657-1.83.842-2.422.795-.045 1.906-1.155 3.626-2.624 4.45-.748.42-1.552.64-2.296.924-.921.352-1.786.763-2.662.763h-.092c-.872-.076-1.74-.407-2.662-.763-.744-.285-1.548-.51-2.296-.93-1.46-.824-2.571-2.54-2.616-4.445-.587.05-1.788-.132-2.436-.794-1.217-1.235-.238-4.032.712-4.032 0 0 .246-.064.666.195.521.321.987 1.984 1.62 2.214C6.013 7.3 8.47 6.236 12.031 6.236zm-3.876 2.33H8.1a3.053 3.053 0 0 0 0 6.106l.058-.001h-.003a3.054 3.054 0 0 0 .003-6.105h-.003zm7.751 0a3.053 3.053 0 0 0 0 6.105 3.053 3.053 0 0 0 0-6.106zM8.591 10.28a1.358 1.358 0 0 1 .002 2.712h-.002a1.356 1.356 0 0 1-1.311-1.703l-.002.009a.571.571 0 0 0 1.098-.215v-.001a.57.57 0 0 0-.546-.57h-.001c.212-.146.475-.233.758-.233h.004zm6.888 0a1.358 1.358 0 0 1 .002 2.712h-.003a1.356 1.356 0 0 1-1.311-1.703l-.002.009a.57.57 0 1 0 .554-.785h-.001c.213-.147.476-.234.76-.234h.002zm-3.959 4.65c-.239.02-.377.146-.377.476 0 .21.138.365.378.365a.142.142 0 0 0 .142-.143.144.144 0 0 0-.108-.139h-.001c-.022-.005-.13-.044-.13-.136s0-.125.183-.15c.078-.012.116-.105.092-.18s-.094-.1-.179-.093zm1.023 0c-.085-.006-.156.018-.18.093s.015.168.093.18c.182.025.182.057.182.15 0 .092-.107.131-.13.136a.143.143 0 0 0 .033.282c.24 0 .379-.155.379-.365 0-.33-.139-.456-.377-.476z"/></svg>