<svg xmlns="http://www.w3.org/2000/svg" width="24" height="24"><path fill="#f6c915" d="M2.32 0A2.322 2.322 0 0 0 0 2.32v19.36A2.322 2.322 0 0 0 2.32 24h19.36A2.32 2.32 0 0 0 24 21.68V2.32A2.32 2.32 0 0 0 21.68 0zm9.208 3.98l-2.27 9.405a2.931 2.931 0 0 0-.073.533v.006l-.001.048c0 .14.034.272.094.389l-.002-.005a.706.706 0 0 0 .33.3l.004.002c.157.077.378.126.661.147l-.49 2.008c-.772 0-1.38-.1-1.82-.3-.441-.203-.757-.477-.947-.826a2.36 2.36 0 0 1-.279-1.121l.001-.083v.004c.005-.452.068-.933.188-1.445l2.074-8.67zm3.9 3.888c.61 0 1.135.092 1.576.277.44.185.802.438 1.085.76.283.32.493.696.629 1.126s.204.89.204 1.379v.001c0 .794-.13 1.52-.392 2.179a5.184 5.184 0 0 1-1.088 1.708l.002-.002a4.844 4.844 0 0 1-1.633 1.106l-.032.012c-.648.267-1.353.4-2.114.4-.37 0-.74-.033-1.11-.098l-.735 2.956H9.403l2.71-11.298c.435-.13.934-.248 1.494-.351a9.741 9.741 0 0 1 1.759-.155h.065-.003zm-.31 2.041h-.028c-.337 0-.666.036-.983.104l.031-.006-1.143 4.752c.185.044.413.065.685.065.425 0 .812-.079 1.16-.237.352-.159.648-.383.887-.658l.003-.003c.244-.283.435-.623.571-1.02.13-.378.204-.814.204-1.267v-.051.003c0-.468-.104-.865-.31-1.192-.207-.326-.566-.49-1.077-.49z"/></svg>