<!-- Generated by IcoMoon.io -->
<svg version="1.1" xmlns="http://www.w3.org/2000/svg" width="24" height="24" viewBox="0 0 24 24">
<title>link1</title>
<path d="M22.549 1.455c-1.935-1.939-5.081-1.939-7.012 0l-4.339 4.354c-0.296 0.296-0.296 0.776 0 1.076 0.296 0.296 0.776 0.296 1.073 0l4.339-4.357c1.343-1.346 3.525-1.346 4.868 0s1.342 3.54 0 4.882l-5.73 5.752c-0.649 0.652-1.515 1.013-2.434 1.013s-1.785-0.36-2.434-1.013c-0.296-0.296-0.776-0.296-1.072 0s-0.296 0.776 0 1.076c0.938 0.941 2.183 1.455 3.506 1.455s2.569-0.518 3.506-1.455l5.734-5.752c1.931-1.939 1.931-5.092-0.004-7.031zM11.629 17.212l-4.241 4.256c-0.649 0.652-1.515 1.013-2.434 1.013s-1.785-0.36-2.434-1.013c-1.343-1.346-1.343-3.536 0-4.883l5.734-5.752c1.343-1.346 3.529-1.346 4.867 0 0.296 0.296 0.776 0.296 1.073 0s0.296-0.776 0-1.072c-1.931-1.939-5.078-1.939-7.013 0l-5.73 5.749c-1.935 1.939-1.935 5.093 0 7.031 0.934 0.941 2.179 1.459 3.503 1.459s2.569-0.518 3.506-1.455l4.241-4.256c0.296-0.296 0.296-0.776 0-1.076-0.296-0.296-0.776-0.296-1.072 0z"></path>
</svg>
