<svg xmlns="http://www.w3.org/2000/svg" width="24" height="24"><path d="M22.549 1.455a4.953 4.953 0 0 0-7.012 0l-4.339 4.354a.76.76 0 1 0 1.073 1.076l4.339-4.357c1.343-1.346 3.525-1.346 4.868 0s1.342 3.54 0 4.882l-5.73 5.752c-.649.652-1.515 1.013-2.434 1.013s-1.785-.36-2.434-1.013c-.296-.296-.776-.296-1.072 0s-.296.776 0 1.076c.938.941 2.183 1.455 3.506 1.455s2.569-.518 3.506-1.455l5.734-5.752a4.987 4.987 0 0 0-.004-7.031zm-10.92 15.757l-4.241 4.256c-.649.652-1.515 1.013-2.434 1.013s-1.785-.36-2.434-1.013a3.463 3.463 0 0 1 0-4.883l5.734-5.752a3.438 3.438 0 0 1 4.867 0 .76.76 0 0 0 1.073-1.072 4.955 4.955 0 0 0-7.013 0l-5.73 5.749a4.984 4.984 0 0 0 0 7.031C2.385 23.482 3.63 24 4.954 24s2.569-.518 3.506-1.455l4.241-4.256a.763.763 0 0 0 0-1.076.758.758 0 0 0-1.072 0z"/></svg>