<svg xmlns="http://www.w3.org/2000/svg" width="24" height="24"><path fill="#00a95c" d="M22 10.68l.002-.022a.15.15 0 0 0-.071-.128h-.001l-3.26-1.82a.142.142 0 0 0-.141 0h.001l-2.77 1.69a.17.17 0 0 0-.07.13v1.45l-1.13-.74a.14.14 0 0 0-.151 0h.001l-1.62 1-.07-1.64a.19.19 0 0 0-.07-.12L11 9.39l1.51-.78a.16.16 0 0 0 .08-.139v-.002l-.27-6.27a.16.16 0 0 0-.079-.13h-.001L8-.001h-.1l-5.82 1.81A.16.16 0 0 0 2.001 2v-.001l1.27 6.23c-.002.012-.004.026-.004.04s.001.028.004.041v-.001l1.83 1.38-1.26.6a.16.16 0 0 0-.08.171v-.001l1 4.7a.198.198 0 0 0 .001.071v-.001l1.24 1.14-.8.49a.15.15 0 0 0-.06.161v-.001l.75 3.64a.105.105 0 0 0 0 .071v-.001l3 3.22c.025.026.061.042.1.042s.075-.016.1-.042l3.92-3.12a.163.163 0 0 0 .06-.12l-.07-2.12 1.32 1.1c.024.02.056.033.09.033s.066-.012.09-.033l3.14-2.51a.256.256 0 0 0 .06-.108v-.002l.09-1.57 1 .67a.138.138 0 0 0 .17 0l2.57-2a.139.139 0 0 0 .05-.1zm-9.62.15l.07 1.57.12 2.78-4.23 2.87-.66-4.53zm-.35-8.42l.25 5.91-5 2.59-.9-6.32zM3.54 8.12L2.33 2.26l3.74 2.32.93 6.2-1.58-1.2zM5 15.05l-.88-4.26 3.28 2.74.6 4.38-1.68-1.62zm1.14 5.51l-.65-3.14 2.89 2.85.47 3.16zm3 3l-.49-3.33 4-2.87.14 3.28zM13 18.2v-1.08a.164.164 0 0 0-.05-.11l-1.13-.92 1-.7a.14.14 0 0 0 .06-.115v-.265l1.39 1.06v3.21zm4.44-1.2l-2.86 2.28v-3.22l3.07-2.2zm1.29-1.21l-.9-.63.09-1.59c.003-.009.004-.019.004-.03s-.002-.021-.004-.031v.001a.109.109 0 0 0 0-.051v.001l-1.93-1.27V10.8l3 1.89zm2.55-1.86L19 15.74l.26-3.06L21.69 11z"/></svg>