<svg xmlns="http://www.w3.org/2000/svg" width="24" height="24"><path fill="#87cf3e" d="M0 1.693v4.193h1.828c1.276 0 1.502.865 1.502 2.058l.01 7.412c0 3.84 3.44 6.951 7.68 6.951h10.464c1.342 0 2.516-.83 2.516-2.108V8.706c0-3.84-3.44-6.95-7.683-6.95h-4.405v-.013zm5.723 2.566h2.102V14.82c0 1.413.984 2.51 2.139 2.51l7.17.03c1.496 0 2.661-1.01 2.661-2.206l-.012-5.607v-.028c0-.348-.148-.662-.386-.881l-.001-.001a1.221 1.221 0 0 0-.891-.384h-.028.001c-.374 0-.65.12-.918.384-.238.22-.386.534-.386.882v.029-.001 4.798h-2.223V9.548c0-.364-.124-.648-.389-.91a1.204 1.204 0 0 0-.884-.384h-.035.002c-.366 0-.647.12-.914.384-.265.262-.39.546-.39.91v4.798h-2.223V9.548c0-.95.36-1.792 1.042-2.466a3.436 3.436 0 0 1 2.449-1.022h.038-.002a3.43 3.43 0 0 1 2.413.97c.62-.6 1.465-.97 2.398-.97h.024-.001c.954 0 1.803.348 2.485 1.022a3.376 3.376 0 0 1 1.041 2.442v.025-.001l.009 5.991c-.105 1.004-.539 1.894-1.28 2.637h-.002a4.355 4.355 0 0 1-3.123 1.314h-.054.003-7.985v-.038c-.976-.103-1.846-.519-2.57-1.217-.845-.825-1.281-1.846-1.281-3.01z"/></svg>