<svg xmlns="http://www.w3.org/2000/svg" width="24" height="24"><path d="M20.83 2.976l-.085.095c-.404.447-.794.931-1.157 1.438l-.033.049c-.152.207-.3.442-.431.688l-.015.031a2.812 2.812 0 0 0-.244.577l-.005.02a.48.48 0 0 0-.033.177v.004a.297.297 0 0 0-.21.284v.012a.3.3 0 0 0 .185.277l.002.001c.038.371.08 1.142.07 2.2l-.004.142a8.015 8.015 0 0 1-.451 2.383l.017-.056c-.016-.01-.03-.014-.04-.013-.03.003-.111.12-.19.251-.058.09-.119.195-.154.291a.368.368 0 0 0-.03.14l-.001.016c0 .026.004.05.011.073v-.002c.01.037.022.058.022.058l-.02.051.017-.044a.15.15 0 0 0-.028.066v.001l-.012.029c-.096.22-.183.393-.276.562l.018-.035-.077.142a3.73 3.73 0 0 1-.087.143l.017-.028a.153.153 0 0 0-.021-.014h-.001a.163.163 0 0 0-.114.024h.001c-.047.035-.151.194-.498.368a1.383 1.383 0 0 1-.32.114c.124-.602.213-1.313.247-2.039l.001-.031a5.114 5.114 0 0 0-.068-1.087l.004.03c.003-.01.003-.017.003-.017l-.005.01a4.23 4.23 0 0 0-.112-.489l.008.031a3.56 3.56 0 0 0-.728-1.39l.004.005c-.631-.754-1.496-1.14-2.256-1.165l-.125-.002c0-.008 0-.015.002-.022.021-.098.024-.127-.087-.032-.02.018-.039.035-.057.054a2.987 2.987 0 0 0-.146.007.826.826 0 0 1-.003-.11v.002c.004-.076.024-.127-.087-.032a.567.567 0 0 0-.141.164l-.001.003c-.05.008-.08.015-.08.015l.045-.002-.047.008c-.016-.042-.053-.105-.048-.16.01-.118.043-.14-.037-.065-.098.09-.202.226-.22.299l-.096.03c-.018-.018-.074-.07-.086-.178-.013-.11-.012-.166-.08-.051a1.122 1.122 0 0 0-.129.342l-.001.007c-.032.015-.063.03-.093.046a.265.265 0 0 1-.057-.166v-.007c-.005-.144.04-.261-.067-.068a1.61 1.61 0 0 0-.144.395l-.002.011a1.6 1.6 0 0 0-.105.079 2.673 2.673 0 0 1-.008-.168v-.002c-.002-.142.021-.295-.067-.025a1.833 1.833 0 0 0-.07.321c-.404.385-.65.917-.644 1.572v.007a3.42 3.42 0 0 0 .014.33c.02.238.057.438.107.605-.095.13-.103.689-.01.818.073.104.496.35.586.399a.354.354 0 0 1 .093.092l.001.001c.115.188.115.567.027.762-.107.238.107.285.285.32.178.036.415-.023.463-.118.047-.095-.154-.309-.237-.748-.084-.439.13-.474.13-.474s.095.024.237.249c.11.175.227.313.336.413a.715.715 0 0 1-.198.17l-.003.002c.12.005.24-.051.304-.087.02.014.043.029.067.043l.004.002a1.132 1.132 0 0 1-.049.049l-.001.001a.555.555 0 0 0 .112-.023l-.004.001a.267.267 0 0 0 .083.022h.001c.155.012.57-.368.57-.439 0-.018-.015-.04-.038-.063-.042-.045-.12-.1-.207-.177a1.061 1.061 0 0 1-.109-.114l-.001-.002a.722.722 0 0 1-.141-.371V11.271l-.003-.031s.007-.007.016-.02v.004l.004-.01c.052-.08.15-.379-.47-1.078a3.042 3.042 0 0 0-.907-.698l-.017-.008c-.042-.472.15-.913.626-1.13l-.005.005.008-.006c.227-.102.517-.155.877-.136.69.036 1.22.359 1.59.845.514.712.738 1.78.575 2.856-.068.065-.055.075-.013.077-.02.121-.04.213-.061.304l.006-.031-.027.015c-.123.074-.071.073 0 .092l-.006.02a3.98 3.98 0 0 1-.066.193 1.235 1.235 0 0 0-.093.032l.006-.002c-.135.053-.08.06-.012.091l.044.022c-.032.08-.066.16-.101.237a.785.785 0 0 0-.085.018l.005-.001c-.142.036-.088.05-.024.09.016.01.029.018.041.028l-.001-.001a5.332 5.332 0 0 1-.125.251l.018-.037a.725.725 0 0 0-.158.026l.005-.001c-.14.036-.087.05-.023.09.034.02.06.041.081.059a5.827 5.827 0 0 1-.115.201l.02-.036-.023.036-.036-.001a.586.586 0 0 0-.174.026l.004-.001c-.142.036-.088.05-.024.09.039.024.073.05.104.079a8.58 8.58 0 0 1-.143.205l.017-.025a.5.5 0 0 0-.233-.005l.003-.001c-.144.02-.092.04-.033.086.068.053.101.099.118.118l-.062.084c-.044-.058-.149-.124-.246-.193a.864.864 0 0 0-.284-.129l-.006-.001c-.048 0-.199.268-1.017.197-.819-.071-.87-.15-.942-.15a.978.978 0 0 0-.228.059l-.034-.02a10.984 10.984 0 0 1-.996-.692l.024.018c-.464-.37-.72-.647-.72-.647s.137-.125-.047-.284a3.18 3.18 0 0 0-.328-.27l-.01-.007a2.375 2.375 0 0 0-.232-.161l-.01-.005a2.893 2.893 0 0 1-.08-.114l-.008-.013a9.914 9.914 0 0 1-.333-.568l-.03-.06a7.427 7.427 0 0 1-.223-.461l-.027-.066c-.16-.36-.27-.682-.346-.964a5.32 5.32 0 0 1-.147-.904l-.001-.019a2.1 2.1 0 0 1 .004-.25v.007a.411.411 0 0 0-.198-.73h-.002c-.204-.427-.982-1.477-3.882-3.68l-.127-.098.005.004-.036-.027c2.954 2.53 3.53 3.519 3.682 3.932a.403.403 0 0 0-.026.032l-.001.001c.047.033.041.028.036.024l-.054-.037c.018 0 .025-.005.025-.005s-.672-.546-1.787-1.23c-1.119-.687-1.749-.849-1.88-.877l-.027-.006s.206.19.174.285c-.01.032-.168.022-.421.028a3.933 3.933 0 0 0-.75.074l.025-.004a4.1 4.1 0 0 0-1.581.639l.014-.009C.237 7.78-.001 8.397-.001 8.397s.55-.768 1.58-1.305c-.014.337-.047 1.969.445 4.12.531 2.32 1.531 4.487 1.614 4.665.004.178.016.272.016.272s.148-1.79.756-3.647c.175.283.758 1.117 2.076 2.096 1.628 1.21 2.37 1.536 2.4 1.548.001.157.005.24.005.24s.005-.1.018-.263a4.69 4.69 0 0 1 .552-.67c.161-.158.338-.301.527-.427l.013-.008c.032.11.063.204.093.276-.02-.097-.036-.19-.052-.282.107.01.538.066 1.206.393.343.168.609.395.798.595l-.015.006h.001s.123.112.269.403a2.398 2.398 0 0 0-.747.088l.017-.004a2.467 2.467 0 0 0-.106-.203l.007.014a.503.503 0 0 0-.04-.138l.001.003c-.027-.061-.095-.1-.164-.14a.409.409 0 0 0-.102-.072l-.002-.001a.213.213 0 0 1-.054-.072l-.001-.001c-.084-.184-.798.012-.942.18-.175.204-.209.464-.14.608.021.045.07.082.138.11.002.221.137.75.404 1.134a4.649 4.649 0 0 1-.106-.647l-.002-.02c-.009-.16 0-.274.015-.35.047.328.174.684.577 1.125-.248-.54-.22-.862-.195-1.144l.009-.044.006-.001c.036.263.142.534.482.964a.286.286 0 0 1-.013-.025l-.001-.003.014.021a1.61 1.61 0 0 1-.165-1.039l-.001.01.008-.003c.046.03.091.07.134.126.128.172.188.349.212.47a.53.53 0 0 0 .068.387l-.001-.002a18.33 18.33 0 0 1-.72.501c-.23.149-.49.313-.757.47-.14.08-.279.158-.414.23l-.135-.077h.002l-.008-.004c-.97-.559-1.69-.932-2.518-1.082-.931-.167-1.787.283-1.983 1.082a1.283 1.283 0 0 0 .547 1.377l.005.003.012.008c.013.01.026.017.04.026l.06.036h.002c.192.11.424.191.691.237l.028.005h.006c.118.021.26.037.404.044h.008c.975.047 2.156-.408 3.323-.982.1.054.202.108.306.166 2.547 1.403 4.098 1.585 6.154.728-.502.151-1.208.356-2.094.344a.066.066 0 0 0-.02-.006l.001.006a5.507 5.507 0 0 1-.677-.053l.029.003v-.001l-.03-.003v-.003c0-.001 0 0 0 0l-.001.002a6.235 6.235 0 0 1-1.596-.452l.04.016a7.679 7.679 0 0 1-.784-.382l.039.02a37.222 37.222 0 0 1-1.274-.715l.268.146c.348-.178.692-.363 1.026-.545.355-.189.672-.362.918-.5l.009-.004.007-.001s.083-.018.16-.042c.17-.052.41-.149.695-.283.028.117.095.215.195.253.235.091.407.027.522-.102l.018-.01.047-.037c.05-.03.107-.067.156-.09l.045-.019.008-.003c.04-.01.078-.023.116-.037l.033-.01c-.145.297-.091.581-.091.581.043-.371.22-.608.392-.715.064-.027.13-.05.2-.067.064 0 .116.023.144.07.07.12.217.194.364.226.024.15-.045.404-.4.866l.09-.062.004-.003.072-.053c.143-.108.252-.21.334-.305a.975.975 0 0 0 .189-.298l.002-.007c.012.2-.043.507-.311 1.036 0 0 .317-.276.514-.63.006.191-.01.443-.063.785.345-.673.325-1.085.239-1.326l-.01-.036a.371.371 0 0 0-.011-.068l.001.003.042-.057c.118-.166-.048-.344-.154-.415-.06-.04-.2-.154-.454-.157-.225-.27-.51-.15-.958.145a1.187 1.187 0 0 1-.158.09l-.008.003a.703.703 0 0 0-.057-.12l.002.003c.16-.096.326-.199.494-.308.317-.207.553-.416.728-.615.51-.517.69-1.02 1.21-1.446l-.013.001.06-.032c.854-.458 1.307-.547 1.339-.553l-.003.128.018-.125c.185.092.344.207.481.344.14.141.26.301.356.476l.006.011.044.301s0-.117-.01-.33c.153-.152 1.02-1.044 1.724-2.467.694-1.404.944-2.523 1.017-2.924.245.674.475 1.501.645 2.35l.02.116s-.002-.133-.031-.374c.097-.336.516-1.872.627-3.756.1-1.681-.065-2.78-.14-3.174.648.537.995 1.307.995 1.307s-.04-.163-.188-.437l.02.027s-.236-.455-.644-.905a6 6 0 0 0-.16-.175l.003.003c-.432-.459-.854-.617-1.17-.672a1.57 1.57 0 0 0-.308-.03h-.019c-.125-.003-.201.002-.207-.026-.02-.095.11-.285.11-.285s-.177.046-.554.33c-.23.167-.52.41-.853.76-.304.308-.595.633-.87.97l-.095.12-.022-.017h-.001c.076-.331.362-1.118 1.787-3.107zM11.92 14.09l.014.007-.002-.001zm-.263 2.606c.088.044.19.106.303.194h-.005a.478.478 0 0 0-.157.071l.002-.001a.949.949 0 0 1-.124-.218l-.002-.006zm-4.855 1.57c.132 0 .276.014.432.048l.02.005.017.004c.11.027.223.062.337.102l.057.021c.191.074.395.156.611.248.32.139.619.277.838.375l.183.088c-.221.106-.424.196-.577.261-1.014.416-1.83.536-2.338.391-.945-.269-.76-1.536.42-1.543z"/></svg>