<!-- Generated by IcoMoon.io -->
<svg version="1.1" xmlns="http://www.w3.org/2000/svg" width="24" height="24" viewBox="0 0 24 24">
<title>lock11</title>
<path d="M17.455 10.597v-5.61s-0.623-4.987-5.61-4.987-5.61 4.987-5.61 4.987v5.61c-1.87 0-3.117 1.558-3.117 3.429v6.234c0 1.87 1.558 3.74 3.74 3.74h9.974c1.87 0 3.74-1.558 3.74-3.74v-6.234c-0.312-1.558-1.558-3.117-3.117-3.429zM13.714 21.195h-3.74l0.935-4.052c-0.312-0.312-0.935-0.935-0.935-1.558 0-0.935 0.935-1.87 1.87-1.87s1.87 0.935 1.87 1.87c0 0.623-0.312 1.247-0.935 1.558l0.935 4.052zM15.273 10.597h-6.857v-5.61s0.623-2.805 3.429-2.805c0 0 2.494-0.312 3.429 2.805v5.61z"></path>
</svg>
