<svg xmlns="http://www.w3.org/2000/svg" width="24" height="24"><path d="M21.375 21.506v-9.694a2.367 2.367 0 0 0-2.362-2.363h-.056v-2.64c0-3.754-3.056-6.81-6.81-6.81s-6.81 3.056-6.81 6.81v2.64h-.056a2.368 2.368 0 0 0-2.363 2.363v9.694a2.364 2.364 0 0 0 2.363 2.362h13.732a2.364 2.364 0 0 0 2.362-2.362zM6.911 6.81c0-2.888 2.347-5.235 5.235-5.235s5.235 2.347 5.235 5.235v2.64H6.911zM4.492 21.506v-9.694c0-.435.353-.788.788-.788h13.732c.435 0 .787.353.787.788v9.694a.787.787 0 0 1-.787.788H5.276a.787.787 0 0 1-.784-.788z"/></svg>