<!-- Generated by IcoMoon.io -->
<svg version="1.1" xmlns="http://www.w3.org/2000/svg" width="24" height="24" viewBox="0 0 24 24">
<title>lock1</title>
<path d="M21.375 21.506v-9.694c0-1.301-1.061-2.363-2.362-2.363h-0.056v-2.64c0-3.754-3.056-6.81-6.81-6.81s-6.81 3.056-6.81 6.81v2.64h-0.056c-1.301 0-2.363 1.061-2.363 2.363v9.694c0 1.301 1.057 2.362 2.363 2.362h13.732c1.301 0 2.362-1.057 2.362-2.362zM6.911 6.81c0-2.888 2.347-5.235 5.235-5.235s5.235 2.347 5.235 5.235v2.64h-10.47zM4.492 21.506v-9.694c0-0.435 0.353-0.788 0.788-0.788h13.732c0.435 0 0.787 0.353 0.787 0.788v9.694c0 0.435-0.352 0.788-0.787 0.788h-13.736c-0.431 0-0.784-0.352-0.784-0.788z"></path>
</svg>
