<!-- Generated by IcoMoon.io -->
<svg version="1.1" xmlns="http://www.w3.org/2000/svg" width="24" height="24" viewBox="0 0 24 24">
<title>logout</title>
<path d="M11.594 22.625h-6.26c-1.701 0-3.081-1.385-3.081-3.081v-15.087c0-1.701 1.385-3.081 3.081-3.081h6.362c0.382 0 0.688-0.306 0.688-0.688s-0.306-0.688-0.688-0.688h-6.362c-2.46 0-4.457 2.002-4.457 4.457v15.087c0 2.46 2.002 4.457 4.457 4.457h6.26c0.382 0 0.688-0.306 0.688-0.688s-0.311-0.688-0.688-0.688zM22.921 11.516l-4.37-4.37c-0.27-0.27-0.703-0.27-0.973 0s-0.27 0.703 0 0.973l3.199 3.199h-13.951c-0.382 0-0.688 0.306-0.688 0.688s0.306 0.688 0.688 0.688h13.951l-3.199 3.199c-0.27 0.27-0.27 0.703 0 0.973 0.132 0.132 0.311 0.204 0.484 0.204s0.351-0.066 0.484-0.204l4.37-4.37c0.275-0.275 0.275-0.713 0.005-0.978z"></path>
</svg>
