<svg xmlns="http://www.w3.org/2000/svg" width="24" height="24"><path d="M11.594 22.625h-6.26a3.085 3.085 0 0 1-3.081-3.081V4.457a3.085 3.085 0 0 1 3.081-3.081h6.362c.382 0 .688-.306.688-.688S12.078 0 11.696 0H5.334A4.462 4.462 0 0 0 .877 4.457v15.087a4.462 4.462 0 0 0 4.457 4.457h6.26a.689.689 0 0 0 0-1.376zm11.327-11.109l-4.37-4.37c-.27-.27-.703-.27-.973 0s-.27.703 0 .973l3.199 3.199H6.826c-.382 0-.688.306-.688.688s.306.688.688.688h13.951l-3.199 3.199a.686.686 0 0 0 0 .973c.132.132.311.204.484.204s.351-.066.484-.204l4.37-4.37a.687.687 0 0 0 .005-.978z"/></svg>