<svg xmlns="http://www.w3.org/2000/svg" width="24" height="24"><path d="M6.857 6.857s1.87.312 1.87-.935c0-.935-.623-1.247-.623-1.247h-.623c-.312 0-1.247-.935-1.247-1.87S5.922.623 8.416 0c0 0-1.558-.312-2.805.935-1.247.935-1.247 1.87-1.247 1.87s0 2.805.623 3.429c.623.935 1.87.623 1.87.623zm10.286-4.052c0 .935-.935 1.87-1.247 1.87-.312-.312-.623 0-.623 0s-.623.312-.935 1.247c0 1.558 1.87 1.247 1.87 1.247s1.247 0 1.87-.935c.623-.623.623-3.429.623-3.429s0-.935-.623-1.558C16.52-.311 14.961 0 14.961 0c2.494.623 2.182 1.87 2.182 2.805zm.935 4.052c-.623.623-2.805.935-3.74 0s-.312-1.87.312-2.494 1.247 0 1.247 0l.312-.312c-4.675-4.052-9.039 0-9.039 0l.312.312c1.247-.623 1.87.935 1.87.935.623 1.87-.935 2.182-.935 2.182-2.182.312-3.117-.623-3.117-.623-.935 2.494 0 4.364 0 4.364-.623 1.87-.312 2.182-.312 2.182l.935.935s.312 2.805 1.87 4.364c2.182 2.494 3.74.623 3.74.623 1.247 1.247 2.805.623 4.052-.623.935-1.247 1.87-4.052 1.87-4.364s.623-.623.623-.623.312 0 .312-.312c0-.935-.312-1.87-.312-1.87.623-2.494 0-4.675 0-4.675zm-6.234 9.662l.623-.312c.312 0 0-.623 0-.623.312.312 0 .623 0 .623 0 .312-.312.623-.312.623-.623.623-.935.312-1.247 0s0 0-.312-.623c-.312-.312 0-.623 0-.623-.312.935 0 .935 0 .935s.312 0 .623.312c.312-.312.623-.312.623-.312zm-4.987-3.116s.312 0 0 0c.312-.623-.623-.935-.623-.935s.935.312.935 0L5.611 10.91s1.247.935 2.182.935c.935 0 2.182.312 2.494.623s.312.935.623 1.87c0 0-.623-1.558-1.247-1.247s-1.247 0-1.247 0-.935.312-1.558.312zm7.792 3.74c-.623.935-.623 1.247-.935 1.558h-.935s-1.247-.312-2.182 0c-.623 0-1.247-.312-1.558-.623s-.623-1.87-1.247-2.494l.935.935c.312.623.623 1.247 1.247 1.247s.935-.312.935-.312.312-.312.623 0c0 0 .312-.312.623-.312s.935 0 1.558-.623c.623 0 1.247-.935 1.558-1.247l-.623 1.87zm1.559-4.675s-.935.623.935 0l-1.247.623c0 .312.312.312.312.312h-2.494s-.935 0-1.558 1.558c0 0 0-1.247.312-1.558 0-.312.312-.312.312-.312s.623-.623 1.87-.623c.935-.312 1.558-.312 3.117-1.247l-1.558 1.247zm-4.676 7.48c-3.74 2.805-5.61-3.74-5.61-3.74.312 1.558.623 3.74 1.247 4.987.623.935 2.182 1.558 2.182 1.558v-.312l2.182 1.558 2.182-1.558v.623c.312-.312 1.87-.935 2.182-1.87.623-.935 1.247-4.675 1.247-4.675-2.182 6.545-5.61 3.429-5.61 3.429z"/></svg>