<!-- Generated by IcoMoon.io -->
<svg version="1.1" xmlns="http://www.w3.org/2000/svg" width="24" height="24" viewBox="0 0 24 24">
<title>lucifer</title>
<path d="M6.857 6.857s1.87 0.312 1.87-0.935c0-0.935-0.623-1.247-0.623-1.247h-0.623c-0.312 0-1.247-0.935-1.247-1.87s-0.312-2.182 2.182-2.805c0 0-1.558-0.312-2.805 0.935-1.247 0.935-1.247 1.87-1.247 1.87s0 2.805 0.623 3.429c0.623 0.935 1.87 0.623 1.87 0.623zM17.143 2.805c0 0.935-0.935 1.87-1.247 1.87-0.312-0.312-0.623 0-0.623 0s-0.623 0.312-0.935 1.247c0 1.558 1.87 1.247 1.87 1.247s1.247 0 1.87-0.935c0.623-0.623 0.623-3.429 0.623-3.429s0-0.935-0.623-1.558c-1.558-1.558-3.117-1.247-3.117-1.247 2.494 0.623 2.182 1.87 2.182 2.805zM18.078 6.857c-0.623 0.623-2.805 0.935-3.74 0s-0.312-1.87 0.312-2.494 1.247 0 1.247 0l0.312-0.312c-4.675-4.052-9.039 0-9.039 0l0.312 0.312c1.247-0.623 1.87 0.935 1.87 0.935 0.623 1.87-0.935 2.182-0.935 2.182-2.182 0.312-3.117-0.623-3.117-0.623-0.935 2.494 0 4.364 0 4.364-0.623 1.87-0.312 2.182-0.312 2.182l0.935 0.935s0.312 2.805 1.87 4.364c2.182 2.494 3.74 0.623 3.74 0.623 1.247 1.247 2.805 0.623 4.052-0.623 0.935-1.247 1.87-4.052 1.87-4.364s0.623-0.623 0.623-0.623 0.312 0 0.312-0.312c0-0.935-0.312-1.87-0.312-1.87 0.623-2.494 0-4.675 0-4.675zM11.844 16.519l0.623-0.312c0.312 0 0-0.623 0-0.623 0.312 0.312 0 0.623 0 0.623 0 0.312-0.312 0.623-0.312 0.623-0.623 0.623-0.935 0.312-1.247 0s0 0-0.312-0.623c-0.312-0.312 0-0.623 0-0.623-0.312 0.935 0 0.935 0 0.935s0.312 0 0.623 0.312c0.312-0.312 0.623-0.312 0.623-0.312zM6.857 13.403s0.312 0 0 0c0.312-0.623-0.623-0.935-0.623-0.935s0.935 0.312 0.935 0l-1.558-1.558s1.247 0.935 2.182 0.935c0.935 0 2.182 0.312 2.494 0.623s0.312 0.935 0.623 1.87c0 0-0.623-1.558-1.247-1.247s-1.247 0-1.247 0-0.935 0.312-1.558 0.312zM14.649 17.143c-0.623 0.935-0.623 1.247-0.935 1.558h-0.935s-1.247-0.312-2.182 0c-0.623 0-1.247-0.312-1.558-0.623s-0.623-1.87-1.247-2.494l0.935 0.935c0.312 0.623 0.623 1.247 1.247 1.247s0.935-0.312 0.935-0.312 0.312-0.312 0.623 0c0 0 0.312-0.312 0.623-0.312s0.935 0 1.558-0.623c0.623 0 1.247-0.935 1.558-1.247l-0.623 1.87zM16.208 12.468s-0.935 0.623 0.935 0l-1.247 0.623c0 0.312 0.312 0.312 0.312 0.312h-2.494s-0.935 0-1.558 1.558c0 0 0-1.247 0.312-1.558 0-0.312 0.312-0.312 0.312-0.312s0.623-0.623 1.87-0.623c0.935-0.312 1.558-0.312 3.117-1.247l-1.558 1.247zM11.532 19.948c-3.74 2.805-5.61-3.74-5.61-3.74 0.312 1.558 0.623 3.74 1.247 4.987 0.623 0.935 2.182 1.558 2.182 1.558v-0.312l2.182 1.558 2.182-1.558v0.623c0.312-0.312 1.87-0.935 2.182-1.87 0.623-0.935 1.247-4.675 1.247-4.675-2.182 6.545-5.61 3.429-5.61 3.429z"></path>
</svg>
