<svg xmlns="http://www.w3.org/2000/svg" width="24" height="24"><path fill="#e74430" d="M11.652 0h-.021a.757.757 0 0 0-.326.074l.004-.002-4.878 2.23a.752.752 0 1 0 .629 1.364l-.005.002 4.878-2.23A.75.75 0 0 0 11.652 0h-.001zm5.624.354h-.016a.748.748 0 0 0-.33.076l.004-.002L6.427 5.306a.752.752 0 1 0 .637 1.36l-.005.002L17.565 1.79a.75.75 0 0 0-.289-1.436h-.001zm0 3.002h-.016a.748.748 0 0 0-.33.076l.004-.002L6.427 8.308a.752.752 0 1 0 .637 1.36l-.005.002 10.506-4.88a.751.751 0 0 0-.289-1.434h-.001zm0 3.002h-.016a.748.748 0 0 0-.33.076l.004-.002L6.427 11.31a.75.75 0 1 0 .637 1.359l-.005.002 10.506-4.878a.75.75 0 0 0-.289-1.435h-.001zm.009 3.002h-.025a.756.756 0 0 0-.322.072l.005-.002-3.753 1.688a.75.75 0 0 0-.442.684v3.527l.001.041v-.002h-1.503v-.049.001-2.591a.75.75 0 0 0-.75-.75h-.012.001a.75.75 0 0 0-.74.75v.012-.001 2.58l.002.05v-.003h-.959a.46.46 0 0 0-.451.558l-.001-.003.19 1.14a.688.688 0 0 0 .655.556h2.281l-2.537.476a.375.375 0 1 0 .141.737h-.002l6.003-1.126a.375.375 0 0 0 .307-.412v.002a.604.604 0 0 0 .091-.228l.001-.004.19-1.141a.46.46 0 0 0-.451-.555h-.02.001-.94a.654.654 0 0 0 .002-.047v-3.033l3.31-1.49a.752.752 0 0 0-.273-1.438h-.001zm-2.292 9.384a.446.446 0 0 0-.065.007h.002l-6.004 1.126a.375.375 0 1 0 .141.737h-.002l6.003-1.125a.375.375 0 0 0-.059-.745h-.017.001zm0 1.876a.428.428 0 0 0-.065.008h.002l-6.004 1.125a.375.375 0 1 0 .141.737h-.002l6.003-1.125a.375.375 0 0 0-.059-.745h-.017.001zm-.743 1.876a.352.352 0 0 0-.066.006h.002l-4.471.751a.376.376 0 1 0 .126.74h-.002l4.472-.75a.375.375 0 0 0-.044-.747h-.017.001z"/></svg>