<!-- Generated by IcoMoon.io -->
<svg version="1.1" xmlns="http://www.w3.org/2000/svg" width="24" height="24" viewBox="0 0 24 24">
<title>mail1</title>
<path d="M1.776 2.64c6.792 0.024 13.584 0.048 20.376 0.096-0.024 0.048-0.048 0.12-0.096 0.168-3.312 2.28-6.648 4.56-9.96 6.864-3.456-2.376-6.888-4.752-10.32-7.128zM0 3.528c3.168 2.136 6.36 4.272 9.528 6.408 0.792 0.528 1.464 1.464 2.64 1.584l11.736-7.992h0.096c-0.024 5.064-0.048 10.128-0.096 15.216h-21c-0.936 0.888-1.872 1.752-2.832 2.64h-0.096c0.024-5.976 0.024-11.928 0.024-17.856z"></path>
</svg>
