<!-- Generated by IcoMoon.io -->
<svg version="1.1" xmlns="http://www.w3.org/2000/svg" width="24" height="24" viewBox="0 0 24 24">
<title>mailchimp</title>
<path d="M11.026 1.854l0.324 0.105-0.262-0.95-0.153 0.472 0.090 0.372zM11.557 2.845c0.103-0.077 0.225-0.167 0.363-0.265h0.017l-1.11-0.336 0.72 0.61 0.010-0.010zM10.74 3.56l-0.106 0.092 0.118-0.080-0.012-0.010zM11.127 3.24l-1.74-1.44 0.090 0.646 1.263 1.114c0.050-0.040 0.097-0.086 0.147-0.124l0.24-0.195zM12.474 2.205l-0.534-0.447 0.195 0.675c0.105-0.075 0.22-0.15 0.34-0.228zM5.442 14.186c0.39 0.002 0.675 0.192 0.81 0.388 0.12 0.18 0.075 0.286 0.135 0.337 0.015 0.013 0.030 0.020 0.045 0.020s0.030-0.002 0.030-0.007c0.075-0.030 0.105-0.145 0.12-0.225 0.015-0.193-0.090-0.41-0.225-0.563-0.26-0.278-0.625-0.435-1.005-0.428h-0.015c-0.195 0-0.36 0.034-0.42 0.052-0.030 0.010-0.090 0.022-0.135 0.037-0.765 0.3-1.11 1.050-0.945 1.8 0.033 0.19 0.116 0.37 0.24 0.518 0.075 0.078 0.15 0.113 0.195 0.113 0.060 0 0.090-0.050 0.045-0.135-0.015-0.043-0.12-0.223-0.135-0.55-0.012-0.332 0.064-0.68 0.28-0.944 0.158-0.196 0.353-0.282 0.375-0.292l0.005 0.006 0.086-0.045 0.040-0.017c0.097-0.030 0.042-0.018 0.142-0.036h0.030c0.088-0.020 0.18-0.030 0.27-0.030h0.032zM13.962 11.593c0.278 0.007 0.54 0.067 0.778 0.17l-0.013-0.005c0.166 0.060 0.3 0.12 0.36 0.12 0.030 0 0.045-0.016 0.045-0.016 0.030-0.024 0.015-0.080-0.045-0.154-0.135-0.195-0.39-0.366-0.63-0.45-0.173-0.064-0.355-0.094-0.536-0.094l0.027-0.036c-0.375 0-0.75 0.135-1.050 0.375-0.226 0.18-0.315 0.375-0.226 0.39h0.017c0.074 0 0.194-0.045 0.36-0.105 0.36-0.135 0.644-0.195 0.9-0.195h0.015zM17.332 10.822c0.266-0.024 0.533 0.023 0.773 0.14-0.015-0.66-0.4-1.402-0.69-1.3-0.17 0.060-0.2 0.36-0.194 0.54 0.010 0.223 0.040 0.42 0.112 0.63v-0.010zM5.947 15.126c-0.044-0.030-0.076-0.077-0.090-0.13-0.020-0.098-0.010-0.152 0.075-0.212 0.065-0.045 0.118-0.066 0.118-0.093 0-0.024-0.055-0.055-0.13-0.055l0.017-0.043c-0.090 0.003-0.177 0.040-0.24 0.106-0.12 0.134-0.165 0.404 0.030 0.63 0.224 0.24 0.57 0.3 0.614 0.6 0.010 0.050 0.014 0.1 0.010 0.15 0 0.045-0.017 0.12-0.017 0.135-0.060 0.255-0.286 0.51-0.656 0.51h-0.142c-0.048-0.015-0.083-0.015-0.113-0.015-0.020 0-0.036 0-0.042 0.016-0.034 0.045 0.153 0.27 0.498 0.27h0.020c0.51-0.016 0.93-0.54 0.83-1.11-0.090-0.503-0.593-0.61-0.78-0.758zM14.934 12.426h0.016c0.052 0 0.082-0.010 0.097-0.030 0.040-0.067-0.226-0.282-0.614-0.282l-0.053 0.020c-0.060 0-0.12 0-0.18 0.016l-0.165 0.045c-0.030 0-0.045 0.015-0.060 0.015-0.12 0.045-0.226 0.105-0.315 0.195-0.104 0.12-0.15 0.225-0.104 0.24h0.014c0.046 0 0.105-0.030 0.21-0.070 0.317-0.137 0.663-0.19 1.006-0.158 0.058 0.003 0.103 0.010 0.148 0.010zM17.848 11.802c-0.030 0.195 0.060 0.36 0.194 0.39 0.015 0 0.030 0.015 0.030 0.015 0.135 0 0.24-0.13 0.27-0.305 0.030-0.19-0.060-0.362-0.21-0.383-0.010-0.004-0.018-0.004-0.026-0.004l0.026-0.030c-0.135 0-0.255 0.136-0.284 0.316zM16.82 12.51c0.068 0.040 0.149 0.064 0.236 0.064v0c0.107 0 0.2-0.045 0.245-0.125 0.080-0.14-0.016-0.335-0.205-0.44-0.076-0.042-0.16-0.064-0.234-0.064l-0.007 0.010c-0.104 0-0.194 0.044-0.24 0.12-0.074 0.135 0.018 0.345 0.207 0.435zM23.38 15.627h0.015c-0.17-0.354-0.492-0.608-0.875-0.69-0.133-0.603-0.315-0.9-0.33-0.944 0.070-0.078 0.135-0.158 0.15-0.176 0.56-0.69 0.194-1.695-0.76-1.936-0.537-0.51-1.023-0.75-1.422-0.96-0.383-0.18-0.23-0.104-0.588-0.27-0.096-0.464-0.127-1.544-0.28-2.31-0.134-0.674-0.41-1.17-0.833-1.5-0.17-0.36-0.405-0.734-0.693-1.004 1.332-2.040 1.68-4.050 0.705-5.1-0.429-0.511-1.075-0.737-1.846-0.737-1.090 0-2.424 0.443-3.774 1.26l-0.892-0.72c-3.754-2.955-14.372 10.11-10.624 12.965l0.968 0.74c-0.607 1.688 0.238 3.704 2 4.35 0.374 0.144 0.81 0.212 1.244 0.188 0 0 2.835 5.215 8.835 5.217 6.93 0 8.7-6.79 8.73-6.85 0 0 0.554-0.832 0.27-1.523zM1.613 12.64h0.007c-0.76-1.285 0.565-3.922 1.507-5.42 2.325-3.706 6.2-6.628 7.96-6.21l0.485-0.186 1.323 1.118c0.91-0.548 2.067-1.103 3.15-1.213-0.66 0.146-1.462 0.49-2.415 1.070-0.020 0.015-2.25 1.53-3.61 2.88-0.743 0.735-3.72 4.305-3.72 4.305 0.546-1.020 0.904-1.53 1.767-2.61 0.495-0.615 1.020-1.2 1.545-1.755 0.255-0.255 0.495-0.495 0.75-0.735 0.093-0.078 0.183-0.153 0.272-0.233-0.295 0.204-1.11 0.772-1.562 1.15-2.267 1.873-4.457 4.799-5.282 7.649h0.040c-0.41 0.225-0.81 0.585-1.166 1.073-0.015 0-0.915-0.666-1.050-0.884zM5.324 18c-1.34 0-2.43-1.143-2.43-2.555 0-1.41 1.090-2.557 2.43-2.557 0.35 0 0.68 0.075 0.976 0.215 0 0 0.517 0.262 0.663 1.492 0.15-0.385 0.228-0.7 0.228-0.7 0.173 0.528 0.26 1.085 0.226 1.65 0.145-0.194 0.3-0.554 0.3-0.554 0.264 1.574-0.88 3.010-2.392 3.010zM8.314 8.972l-0.040-0.064c0.098-0.13 0.21-0.255 0.318-0.382 0.442-0.66 1.432-1.92 3.062-2.854-0.172-0.026-0.59 0.030-0.664 0.036 0.417-0.36 1.19-0.597 1.725-0.705-0.154-0.1-0.528-0.126-0.712-0.13-0.056-0.015-0.056-0.015-0.12 0 0.504-0.285 1.438-0.45 2.286-0.3-0.12-0.15-0.36-0.255-0.525-0.3l-0.076-0.030 0.060-0.015c0.51-0.105 1.11 0 1.575 0.195-0.060-0.135-0.195-0.27-0.285-0.36l-0.075-0.060c0.495 0.105 0.96 0.315 1.32 0.555-0.060-0.090-0.18-0.255-0.255-0.345 0.465 0.135 0.99 0.465 1.23 0.945l0.015 0.045c-0.9-0.69-3.51-0.495-6.12 1.2-1.026 0.654-1.81 1.375-2.442 2.123-0.177 0.263-0.276 0.44-0.28 0.446zM22.329 16.936c-0.030 0.060-0.36 1.83-2.25 3.315-2.37 1.876-5.506 1.682-6.676 0.63-0.63-0.6-0.9-1.438-0.9-1.438s-0.075 0.48-0.090 0.66c-0.48-0.81-0.435-1.8-0.435-1.8s-0.256 0.464-0.36 0.734c-0.346-0.9-0.166-1.815-0.166-1.815l-0.27 0.406s-0.135-1.020 0.18-1.86c0.345-0.9 1.005-1.545 1.14-1.635-0.51-0.15-1.080-0.614-1.080-0.614s0.225 0.016 0.39-0.030c0 0-1.005-0.72-1.185-1.83 0.15 0.18 0.464 0.376 0.464 0.376-0.104-0.285-0.165-0.945-0.060-1.575 0.18-1.215 1.185-1.995 2.325-1.995 1.198 0 2.010 0.255 3.028-0.675 0.21-0.195 0.375-0.36 0.676-0.435 0.030 0 0.12-0.030 0.27-0.030 0.164-0.006 0.325 0.035 0.465 0.12 0.554 0.33 0.675 1.185 0.734 1.8 0.21 2.325 0.12 1.905 1.065 2.385 0.448 0.225 0.958 0.435 1.528 1.050v0.016c0.48 0 0.72 0.39 0.51 0.66-1.62 1.935-3.885 2.864-6.404 2.94l-0.33 0.015c-1.020 0.030-1.35 1.35-0.705 2.13 0.403 0.495 1.184 0.66 1.83 0.66 2.76 0.060 5.534-1.89 6.014-2.97l0.030-0.076c-0.105 0.135-2.79 2.655-6.045 2.565 0 0-0.36-0.015-0.69-0.090-0.436-0.105-0.78-0.3-0.9-0.75 0.27 0.060 0.615 0.090 1.020 0.090 2.355 0 4.050-1.080 3.885-1.095h-0.030c-0.27 0.060-3.104 1.154-4.89 0.584 0.004-0.050 0.012-0.104 0.025-0.153 0.16-0.534 0.443-0.46 0.9-0.48l-0.1 0.117c1.634-0.056 2.954-0.465 3.943-0.93 1.050-0.505 1.846-1.15 2.146-1.47 0.374 0.63 0.374 1.44 0.374 1.44s0.136-0.054 0.33-0.054c0.615 0 0.75 0.555 0.285 1.11z"></path>
</svg>
