<svg xmlns="http://www.w3.org/2000/svg" width="24" height="24"><path fill="#ef2929" d="M12.096.1l-.001.001h-.01C5.708.101.538 5.271.538 11.648v.011-.001c0 2.069.548 4.005 1.496 5.683l2.869-2.867a7.552 7.552 0 0 1-.54-2.815v-.001c0-4.261 3.47-7.73 7.732-7.73 4.261 0 7.732 3.469 7.732 7.73 0 4.262-3.47 7.732-7.732 7.732a7.67 7.67 0 0 1-2.653-.476l.053.017-2.898 2.899a11.37 11.37 0 0 0 5.481 1.388h.019-.001c2.316 0 4.468-.686 6.275-1.856l2.393 2.392L24 20.512l-2.349-2.349c1.252-1.815 2-4.062 2-6.484v-.022.001C23.651 5.368 18.644.26 12.393.1c-.08-.003-.18 0-.297 0zm-.001 9.34c-1.226 0-2.215.991-2.215 2.217s.99 2.216 2.215 2.216a2.217 2.217 0 1 0 0-4.434zm-4.241 3.368L0 20.662l3.239 3.24 7.855-7.856z"/></svg>