<!-- Generated by IcoMoon.io -->
<svg version="1.1" xmlns="http://www.w3.org/2000/svg" width="24" height="24" viewBox="0 0 24 24">
<title>marker-o</title>
<path d="M12 24c-0.185 0-0.371-0.077-0.502-0.216-0.355-0.386-8.847-9.435-8.847-14.434 0-5.154 4.196-9.35 9.35-9.35s9.35 4.196 9.35 9.35c0 4.999-8.484 14.055-8.847 14.434-0.131 0.139-0.317 0.216-0.502 0.216zM12 1.368c-4.397 0-7.974 3.585-7.974 7.982 0 3.462 5.355 10.068 7.974 12.958 2.619-2.882 7.974-9.496 7.974-12.958 0-4.397-3.578-7.982-7.974-7.982zM12 12.27c-2.179 0-3.956-1.777-3.956-3.956s1.777-3.956 3.956-3.956 3.956 1.777 3.956 3.956c0 2.187-1.777 3.956-3.956 3.956zM12 5.741c-1.422 0-2.581 1.159-2.581 2.581s1.159 2.581 2.581 2.581 2.581-1.159 2.581-2.581c0-1.43-1.159-2.581-2.581-2.581z"></path>
</svg>
