<svg xmlns="http://www.w3.org/2000/svg" width="24" height="24"><path d="M12 24a.696.696 0 0 1-.502-.216c-.355-.386-8.847-9.435-8.847-14.434 0-5.154 4.196-9.35 9.35-9.35s9.35 4.196 9.35 9.35c0 4.999-8.484 14.055-8.847 14.434a.696.696 0 0 1-.502.216zm0-22.632c-4.397 0-7.974 3.585-7.974 7.982 0 3.462 5.355 10.068 7.974 12.958 2.619-2.882 7.974-9.496 7.974-12.958 0-4.397-3.578-7.982-7.974-7.982zm0 10.902c-2.179 0-3.956-1.777-3.956-3.956S9.821 4.358 12 4.358s3.956 1.777 3.956 3.956A3.958 3.958 0 0 1 12 12.27zm0-6.529c-1.422 0-2.581 1.159-2.581 2.581s1.159 2.581 2.581 2.581 2.581-1.159 2.581-2.581A2.58 2.58 0 0 0 12 5.741z"/></svg>