<svg xmlns="http://www.w3.org/2000/svg" width="24" height="24"><path d="M16.575 19.5c-1.575 0-3-.45-4.2-1.2.3-.225 2.925-2.25 2.925-5.625.15-3.75-2.325-5.7-2.925-6.15 1.2-.825 2.625-1.275 4.2-1.275C20.7 5.25 24 8.475 24 12.375S20.7 19.5 16.575 19.5zm-5.025-1.2c-1.2.75-2.625 1.2-4.125 1.2C3.3 19.5 0 16.275 0 12.375S3.3 5.25 7.425 5.25c1.575 0 3 .45 4.2 1.2-.3.225-2.925 2.25-2.925 5.625-.225 3.825 2.325 5.775 2.85 6.225zm-2.4-6.225C9.225 9.9 10.35 7.95 12 6.75c.45.3 2.85 2.175 2.85 5.85-.3 3.525-2.625 5.25-2.85 5.4a6.617 6.617 0 0 1-1.95-2.325 6.943 6.943 0 0 1-.825-3.3V12.3c-.075-.075-.075-.075-.075-.225 0 .075 0 .075 0 0z"/></svg>