<svg xmlns="http://www.w3.org/2000/svg" width="24" height="24"><path fill="#757575" d="M12 0C5.377 0 0 5.377 0 12s5.377 12 12 12 12-5.377 12-12S18.623 0 12 0zm0 .75c2.871 0 5.482 1.082 7.469 2.85H4.53A11.145 11.145 0 0 1 11.993.75H12zm-7.186 3.6h14.372L12 18.723zM3.6 4.53v14.94a11.145 11.145 0 0 1-2.85-7.463V12c0-2.87 1.082-5.481 2.85-7.47zm16.8 0a11.145 11.145 0 0 1 2.85 7.463V12c0 2.871-1.082 5.482-2.85 7.469zM4.35 5.1l7.275 14.55H4.35zm15.3 0v14.55h-7.275zM4.533 20.4h14.936a11.145 11.145 0 0 1-7.463 2.85h-.01a11.155 11.155 0 0 1-7.474-2.859l.01.009z"/></svg>