<svg xmlns="http://www.w3.org/2000/svg" width="24" height="24"><path d="M.632.55v22.9H2.28V24H0V0h2.28v.55zm7.043 7.26v1.157h.033a3.312 3.312 0 0 1 1.117-1.024c.433-.245.936-.365 1.5-.365.54 0 1.033.107 1.481.314.448.208.785.582 1.02 1.108.254-.374.6-.706 1.034-.992.434-.287.95-.43 1.546-.43.453 0 .872.056 1.26.167.388.11.716.286.993.53.276.245.489.559.646.951.152.392.23.863.23 1.417v5.728h-2.349V11.52c0-.286-.01-.559-.032-.812a1.751 1.751 0 0 0-.185-.67l.005.01a1.111 1.111 0 0 0-.433-.445l-.005-.003c-.194-.11-.457-.166-.785-.166-.332 0-.6.064-.803.189-.2.125-.363.293-.476.492l-.004.007a1.905 1.905 0 0 0-.23.686l-.001.01a5.405 5.405 0 0 0-.06.783v4.77h-2.35v-4.8c0-.254-.004-.503-.018-.752a2.079 2.079 0 0 0-.148-.702l.005.014a1.05 1.05 0 0 0-.411-.5l-.004-.003c-.194-.125-.476-.19-.854-.19-.111 0-.259.024-.439.074-.18.051-.36.143-.53.282a1.637 1.637 0 0 0-.439.595c-.12.259-.18.6-.18 1.02v4.966H5.46V7.81zm15.693 15.64V.55H21.72V0H24v24h-2.28v-.55z"/></svg>