<svg xmlns="http://www.w3.org/2000/svg" width="24" height="24"><path d="M0 0v24h24V0zm10.564 4.969c.667-.047 1.001.066 1.59.242l.436.13.152.046.557.17c.365.099.748.105 1.115.017a2.019 2.019 0 0 1 1.491.18l-.011-.005c.409.233.684.648.737 1.115.048.413.288.78.648.989.537.293 1.096.538 1.672.736.407.156.815.331 1.219.488.2.077.377.203.514.37a.861.861 0 0 1 .197.487v.003c.025.359.068.722.086 1.084h-.002c.028.5-.08.997-.317 1.439-.087.165-.183.321-.263.486a.618.618 0 0 1-.638.367h.003-.018a.415.415 0 0 0-.26.091l.001-.001c-.246.161-.497.32-.75.471a1.31 1.31 0 0 1-1.141.06 5.267 5.267 0 0 0-1.908-.351l-.065-.001c-.658 0-1.245.301-1.632.772l-.003.004c-.16.22-.29.476-.375.751l-.005.019c-.223.55-.414 3.838-.414 4.676 0 0-3.161-.615-6.13-3.653l.774-2.03H5.4l1.754-1.856H4.14l1.752-1.858H3.029l3.188-3.383a7.336 7.336 0 0 1 3.499-1.94l.05-.01c.318-.055.576-.089.798-.104z"/></svg>