<!-- Generated by IcoMoon.io -->
<svg version="1.1" xmlns="http://www.w3.org/2000/svg" width="24" height="24" viewBox="0 0 24 24">
<title>medium</title>
<path d="M0.3 2.25v0.375l2.175 2.625s0.375 0.375 0.3 0.825v10.35s0.075 0.6-0.3 1.050c-0.3 0.45-2.475 3.075-2.475 3.075v0.375h7.2v-0.375l-2.7-3.225s-0.225-0.225-0.225-0.75v-9.075l6.225 13.425h0.75l5.4-13.425v10.725s0 0.3-0.225 0.525c-0.3 0.3-1.95 1.875-1.95 1.875v0.375h9.45v-0.375l-1.875-1.875s-0.15-0.075-0.15-0.375v-13.425s0-0.3 0.15-0.375c0.15-0.225 1.95-1.95 1.95-1.95v-0.375h-6.6l-4.725 11.55-5.4-11.55h-6.975z"></path>
</svg>
