<svg xmlns="http://www.w3.org/2000/svg" width="24" height="24"><path fill="#ed1c40" d="M6.981.555a.551.551 0 0 0-.109.012l.003-.001a.531.531 0 1 0 .63.402l.001.004a.53.53 0 0 0-.525-.418zm6.455.638h-.004a.977.977 0 0 0-.514.145l.004-.002a.99.99 0 1 0 1.019 1.699.99.99 0 0 0-.506-1.841zm-3.03 2.237a5.026 5.026 0 0 0-4.668 3.248 3.33 3.33 0 0 0-1.461.551 3.374 3.374 0 0 0-.939 4.563 3.635 3.635 0 0 0-.606 4.649 3.604 3.604 0 0 0 2.465 1.598c.018.732.238 1.466.685 2.113a3.9 3.9 0 0 0 5.424.992c.068-.047.12-.106.184-.156.987.881 2.471 1.026 3.607.24a2.912 2.912 0 0 0 1.162-1.691 4.234 4.234 0 0 0 2.584-.738 4.272 4.272 0 0 0 1.189-5.789 2.467 2.467 0 0 0 .434-3.309 2.45 2.45 0 0 0-1.316-.934 4.436 4.436 0 0 0-.775-2.873 4.466 4.466 0 0 0-5.195-1.656 5.055 5.055 0 0 0-2.754-.807h-.02.001zm-5.603.816a.76.76 0 0 0-.426.136l.002-.002a.76.76 0 1 0 1.056.191l.002.002a.759.759 0 0 0-.624-.328h-.009zm15.994 2.371a.838.838 0 0 0-.473.152l.003-.002a.845.845 0 1 0 1.173.212l.002.003a.845.845 0 0 0-.696-.365h-.01zm-8.15 1.027c.063 0 .124.005.182.014a.894.894 0 0 1 .451.188c.168.134.273.241.432.393.239.228.413.089.533.019.208-.121.369-.218.984-.207.633.011 1.363.237 1.514 1.316.168 1.199-1.966 4.289-1.816 5.723.105 1.01 1.815.299 1.959 1.221.187 1.197-2.135.752-2.666.492-.832-.408-1.337-1.34-1.121-2.26.161-.688 1.7-3.498 1.758-3.93.059-.44-.177-.477-.324-.484-.189-.01-.339.081-.525.361-.169.256-2.082 4.086-2.248 4.398-.297.559-.67.694-1.045.674-.547-.029-.798-.321-.719-.848.047-.31 1.259-3.049 1.322-3.477.039-.264-.013-.545-.275-.68s-.571.07-.664.227c-.128.215-1.848 4.707-2.031 5.039-.317.576-.651.759-1.152.783-1.186.056-2.066-.919-1.678-2.115.173-.533 1.316-4.572 1.895-5.6.389-.691 1.468-1.216 2.217-.893.388.168.925.438 1.084.508.366.162.759-.278.914-.412s.302-.276.49-.357a1.43 1.43 0 0 1 .531-.094zm10.88 2.057a.505.505 0 0 0-.097.012l.003-.001a.468.468 0 0 0-.359.558l-.001-.003a.471.471 0 0 0 .56.359l-.003.001a.47.47 0 0 0-.1-.926h-.004zm-22.519.811H.999c-.34 0-.641.17-.821.43l-.002.003a1 1 0 1 0 .833-.434zm21.295 2.093a.626.626 0 0 0-.131.014l.004-.001a.628.628 0 0 0-.48.751l-.001-.004a.63.63 0 0 0 .75.482l-.004.001a.627.627 0 0 0-.133-1.242h-.006zM4.062 18.703a.484.484 0 0 0-.095.012l.003-.001a.465.465 0 1 0 .551.352l.001.003a.467.467 0 0 0-.455-.367h-.004zm13.676 1.551a1.03 1.03 0 0 0-.587.188l.003-.002a1.048 1.048 0 1 0 .597-.185h-.014.001zm-6.338 1.9a.64.64 0 0 0-.361.117l.002-.001a.647.647 0 0 0-.163.9l-.001-.002a.647.647 0 0 0 .9.163l-.002.001a.647.647 0 0 0 .163-.9l.001.002a.645.645 0 0 0-.532-.279h-.008z"/></svg>