<svg xmlns="http://www.w3.org/2000/svg" width="24" height="24"><path fill="#d9272e" d="M12 0C5.372 0 0 5.372 0 12s5.372 12 12 12 12-5.372 12-12S18.628 0 12 0zm6.23 16.244v.001a.37.37 0 0 1-.371.371h-1.57a.37.37 0 0 1-.371-.371v-4.829c0-.04-.046-.06-.08-.033l-3.32 3.32a.741.741 0 0 1-1.044 0l-3.32-3.32c-.027-.027-.08-.007-.08.033v4.829a.37.37 0 0 1-.371.371H6.134a.37.37 0 0 1-.371-.371V7.757c0-.206.166-.372.372-.372h1.076a.747.747 0 0 1 .525.22l4.13 4.13a.18.18 0 0 0 .26 0l4.13-4.13c.14-.14.325-.22.525-.22h1.075c.206 0 .372.166.372.372z"/></svg>