<svg xmlns="http://www.w3.org/2000/svg" width="24" height="24"><path fill="#9d1620" d="M11.973 9.191h.019a2.349 2.349 0 0 1 1.504 4.152l-.004.003a1.8 1.8 0 0 1-.842.449l-.012.002a2.282 2.282 0 0 1-.647.092h-.019c-.224 0-.441-.033-.647-.092a1.814 1.814 0 0 1-.855-.452l.001.001a2.338 2.338 0 0 1-.849-1.803v-.003a2.353 2.353 0 0 1 2.351-2.349zm-9.948 9.45c1.262.158 2.382-.76 2.501-2.052a2.43 2.43 0 0 0-.219-1.248l.006.015c-1.768-3.879 6.955-3.968 5.481-.307l-.01.016c-.697 1.115-.319 2.563.839 3.232.426.248.898.35 1.359.33.461.02.933-.082 1.359-.33 1.158-.67 1.536-2.117.839-3.232l-.01-.016c-1.474-3.661 7.25-3.572 5.48.307a2.403 2.403 0 0 0-.212 1.242l-.001-.01c.12 1.292 1.239 2.21 2.502 2.052a2.34 2.34 0 0 0 1.42-.733l.001-.002s.587-.487.578-1.729c-.008-1.013-.578-1.574-.578-1.574a2.198 2.198 0 0 0-1.82-.643l.01-.001c-1.619-.036-1.859-1.304-1.402-3.694.168-.424.241-.878.226-1.332.002-.038.002-.083.002-.129a3.408 3.408 0 0 0-2.105-3.15l-.023-.008c-.039-.017-.078-.03-.118-.046a1.15 1.15 0 0 0-.123-.043l-.011-.003a3.406 3.406 0 0 0-3.986 1.434l-.008.015c-.815.895-1.184 1.438-2.022 1.438-.797 0-1.208-.543-2.022-1.438a3.408 3.408 0 0 0-4.151-1.396l.023-.008c-.04.016-.079.029-.119.046a3.413 3.413 0 0 0-2.123 3.293V8.93c-.016.454.058.908.225 1.332.457 2.391.217 3.658-1.401 3.694-.793-.085-1.385.242-1.983.841-.6.598-.55 2.2 0 2.899.399.509.94.861 1.594.943z"/></svg>