<svg xmlns="http://www.w3.org/2000/svg" width="24" height="24"><path fill="#00b2ff" d="M0 11.64C0 4.95 5.24 0 12 0s12 4.95 12 11.64-5.24 11.64-12 11.64c-1.21 0-2.38-.16-3.47-.46a.966.966 0 0 0-.646.052l.006-.002-2.39 1.05a.96.96 0 0 1-1.35-.849v-.001l-.07-2.14a.967.967 0 0 0-.319-.679l-.001-.001a11.366 11.366 0 0 1-3.761-8.458l.001-.16v.008zm8.32-2.19l-3.52 5.6c-.35.53.32 1.14.82.75l3.79-2.87c.26-.2.6-.2.87 0l2.8 2.1c.84.63 2.04.4 2.6-.48l3.52-5.6c.35-.53-.32-1.13-.82-.75l-3.79 2.87c-.25.2-.6.2-.86 0l-2.8-2.1a1.801 1.801 0 0 0-2.606.472l-.004.007z"/></svg>