<svg height="24" width="24" xmlns="http://www.w3.org/2000/svg"><path d="m6.234 17.143 4.987 5.299s.312.312.312 0c.312-.312 0-.312 0-.312zm-4.052-10.598 15.584 16.831s.623.935 1.247 0c.623-.623 0-1.247 0-1.247zm20.883 5.299c.312-.312 0-.312 0-.312l-5.299-4.987 4.987 5.299c-.312 0 0 .312.312 0zm-19.636-.312 10.909 11.844s.312.623.935 0c.312-.623 0-.935 0-.935zm20.259 3.429-11.844-11.221 10.909 11.844s.312.623.935 0c.623-.312 0-.623 0-.623zm-23.688-14.961 20.26 21.818s.623.935 1.558.312c.623-.623 0-1.247 0-1.247zm6.545 2.182 15.584 16.831s.623.935 1.247 0c.623-.623 0-1.247 0-1.247z"/></svg>