<!-- Generated by IcoMoon.io -->
<svg version="1.1" xmlns="http://www.w3.org/2000/svg" width="24" height="24" viewBox="0 0 24 24">
<title>meteor</title>
<path d="M6.234 17.143l4.987 5.299s0.312 0.312 0.312 0c0.312-0.312 0-0.312 0-0.312l-5.299-4.987zM2.182 6.545l15.584 16.831s0.623 0.935 1.247 0c0.623-0.623 0-1.247 0-1.247l-16.831-15.584zM23.065 11.844c0.312-0.312 0-0.312 0-0.312l-5.299-4.987 4.987 5.299c-0.312 0 0 0.312 0.312 0zM3.429 11.532l10.909 11.844s0.312 0.623 0.935 0c0.312-0.623 0-0.935 0-0.935l-11.844-10.909zM23.688 14.961l-11.844-11.221 10.909 11.844s0.312 0.623 0.935 0c0.623-0.312 0-0.623 0-0.623zM0 0l20.26 21.818s0.623 0.935 1.558 0.312c0.623-0.623 0-1.247 0-1.247l-21.818-20.883zM6.545 2.182l15.584 16.831s0.623 0.935 1.247 0c0.623-0.623 0-1.247 0-1.247l-16.831-15.584z"></path>
</svg>
