<svg xmlns="http://www.w3.org/2000/svg" width="24" height="24"><path d="M16.192 13.931V4.387c0-2.34-1.901-4.241-4.241-4.241S7.71 2.047 7.71 4.387v9.547a4.244 4.244 0 0 0 4.241 4.241 4.25 4.25 0 0 0 4.241-4.245zm-6.975 0V4.387c0-1.507 1.226-2.734 2.734-2.734s2.73 1.226 2.73 2.734v9.547a2.736 2.736 0 0 1-2.73 2.734 2.743 2.743 0 0 1-2.734-2.738zM11.951 24a.754.754 0 0 0 .754-.754V20.82c4.38-.383 7.826-4.065 7.826-8.543a.754.754 0 1 0-1.508 0c0 3.9-3.172 7.069-7.069 7.069-3.9 0-7.073-3.172-7.073-7.069a.755.755 0 0 0-1.508 0c0 4.477 3.446 8.16 7.826 8.543v2.426a.749.749 0 0 0 .75.754z"/></svg>