<!-- Generated by IcoMoon.io -->
<svg version="1.1" xmlns="http://www.w3.org/2000/svg" width="24" height="24" viewBox="0 0 24 24">
<title>mic1</title>
<path d="M16.192 13.931v-9.544c0-2.34-1.901-4.241-4.241-4.241s-4.241 1.901-4.241 4.241v9.547c0 2.34 1.901 4.241 4.241 4.241 2.336 0 4.241-1.905 4.241-4.245zM9.217 13.931v-9.544c0-1.507 1.226-2.734 2.734-2.734s2.73 1.226 2.73 2.734v9.547c0 1.507-1.226 2.734-2.73 2.734-1.507-0.004-2.734-1.23-2.734-2.738zM11.951 24c0.416 0 0.754-0.337 0.754-0.754v-2.426c4.38-0.383 7.826-4.065 7.826-8.543 0-0.416-0.337-0.754-0.754-0.754s-0.754 0.338-0.754 0.754c0 3.9-3.172 7.069-7.069 7.069-3.9 0-7.073-3.172-7.073-7.069 0-0.416-0.338-0.754-0.754-0.754s-0.754 0.338-0.754 0.754c0 4.477 3.446 8.16 7.826 8.543v2.426c-0.004 0.416 0.334 0.754 0.75 0.754z"></path>
</svg>
