<svg xmlns="http://www.w3.org/2000/svg" width="24" height="24"><path fill="#6264a7" d="M9.254 5.596h2.364c.61 0 1.103.494 1.103 1.104v1.582A3.497 3.497 0 1 0 9.259 5.62l-.005-.024zm11.048 2.688h.004a2.404 2.404 0 0 0 .002-4.808h-.003a2.404 2.404 0 0 0-.003 4.808zm-8.084 9.033V7.12c0-.563-.456-1.02-1.019-1.021H1a1.022 1.022 0 0 0-1.018 1.02v10.199a1.02 1.02 0 0 0 1.019 1.019h10.2a1.02 1.02 0 0 0 1.017-1.02zm-3.492-7.49H6.73v5.693H5.46V9.826H3.474V8.721h5.252zm14.287-.231H12.722v8.14c0 .61-.495 1.104-1.104 1.104H7.4c.923 2.285 3.122 3.867 5.692 3.867.812 0 1.587-.158 2.295-.445l-.041.015a6.16 6.16 0 0 0 3.244-2.998l.016-.036a3.637 3.637 0 0 0 1.679.405h.032a3.701 3.701 0 0 0 3.701-3.701v-5.346c0-.555-.45-1.005-1.005-1.005z"/></svg>