<svg xmlns="http://www.w3.org/2000/svg" width="24" height="24"><path d="M21.4 17.7c-2 2.6-1 4.8-.3 5.9.3.4-.1.4-.3.4a6.023 6.023 0 0 1-3.986-2.676L16.8 21.3c-.2-.1-.3-.2-.5-.1-1.4.4-2.8.7-4.3.6C5.4 21.8 0 17 0 11S5.4 0 12 0s12 4.9 12 11c0 2.5-1 4.8-2.6 6.7zM12 14l3.2 2.2a.4.4 0 0 0 .6-.402v.002L14.6 12l3.1-2.4a.396.396 0 0 0 .068-.221v-.001a.401.401 0 0 0-.265-.377L17.5 9h-3.9l-1.3-3.8a.4.4 0 0 0-.6 0L10.4 9h-4a.4.4 0 0 0-.101.699L6.3 9.7l3 2.4-1 3.7V15.813a.4.4 0 0 0 .503.387l-.003.001 3.2-2.2z"/></svg>