<svg xmlns="http://www.w3.org/2000/svg" width="24" height="24"><path fill="#0078d7" d="M23.158 14.25H7.821c0 .578.086 1.103.262 1.575.188.465.431.881.743 1.245.31.364.675.675 1.102.938.413.262.863.48 1.343.648.476.173.975.3 1.48.383a10.208 10.208 0 0 0 3.372-.035l-.061.009a12.96 12.96 0 0 0 1.651-.42c.54-.177 1.061-.387 1.583-.627.525-.24 1.057-.502 1.605-.795v5.085c-.612.3-1.212.552-1.812.769-.6.21-1.2.394-1.81.54-.612.15-1.23.263-1.865.33-.587.067-1.267.105-1.957.105-.9 0-1.77-.105-2.606-.311a10.17 10.17 0 0 1-2.41-.92l.055.027a9.915 9.915 0 0 1-2.026-1.424l.008.007a8.971 8.971 0 0 1-2.579-4.085l-.016-.063a9.153 9.153 0 0 1-.356-2.557v-.056.003c0-.986.135-1.924.405-2.82A8.984 8.984 0 0 1 6.94 7.349l.018-.014A9.737 9.737 0 0 1 9.36 5.934l.066-.024a5.223 5.223 0 0 0-1.151 1.739l-.012.035a7.446 7.446 0 0 0-.532 2.018l-.004.037h8.542c0-.863-.086-1.613-.262-2.258s-.458-1.181-.851-1.605c-.39-.427-.893-.75-1.512-.96-.618-.214-1.365-.322-2.238-.322-1.032 0-2.063.15-3.094.461-1.031.3-2.01.731-2.94 1.275-.93.551-1.785 1.2-2.565 1.942-.78.75-1.436 1.557-1.969 2.43.125-1.085.353-2.071.679-3.011l-.03.098C1.798 6.863 2.21 6 2.706 5.2a11.695 11.695 0 0 1 1.737-2.149l.003-.003a10.34 10.34 0 0 1 2.212-1.65A11.293 11.293 0 0 1 9.272.34 13.046 13.046 0 0 1 12.256 0h.001c.615 0 1.226.056 1.837.165.612.113 1.208.263 1.79.458 1.154.397 2.185.952 3.093 1.657a10.643 10.643 0 0 1 2.263 2.412l.024.037c.62.926 1.088 1.95 1.41 3.063.323 1.114.488 2.273.488 3.477z"/></svg>