<svg xmlns="http://www.w3.org/2000/svg" width="24" height="24"><path fill="#fed12f" d="M15.495 18.38a.055.055 0 0 0 .03-.033l.693-2.217 3.192-4.79.003-.004.001-.002.001-.002.002-.005v-.004l.002-.003v-.018l-.416-6.946v-.001l-.001-.005v-.002a.069.069 0 0 0-.003-.008l-.002-.005-.002-.004-.003-.005-.003-.003v-.001L14.817.012l-.004-.003-.003-.002-.003-.002-.002-.001-.002-.001-.002-.001H14.8V.001h-.002L14.796 0h-.001l-.005-.002H9.208l-.003.001L9.202 0l-.005.002-.004.003-.004.002h-.001l-.003.004h-.001l-.003.003-4.17 4.31-.003.004-.006.009L5 4.342l-.002.008v.002l-.001.003v.004l-.417 6.95v.018h.001v.004l.001.002.001.002.001.002.001.001.002.003.001.003 3.194 4.79.692 2.214v.003l.001.002.002.003v.001l.001.002v.001l.002.001.001.003.001.001.001.001.002.002a.014.014 0 0 0 .003.004l.002.001.002.002h.001l.003.003h.001l.002.001.002.002h.002l.001.001h.002l.001.001h.001l.003.001h.002v.001h.006l.003.001h6.955a.048.048 0 0 0 .018-.007zm-.058-.1H8.89l7.201-2.095zm.618-2.193L8.62 18.249l2.703-5.677zm.068-.08l-4.733-3.516 5.139-4.124zm.11-.087l.4-7.54 2.668 2.936zm-7.699 2.27l-.646-2.069 3.231-3.36zm-.697-2.166l-3.094-4.64 6.456 1.143zm11.47-4.857l-2.655-2.92 2.256-3.717zm-7.974 1.236L9.3 5.284l7.187 2.983zm-.102.024l-6.507-1.152L9.198 5.31zm5.284-4.26l-7.2-2.99L14.748.152zm.095-.052L14.87.219l4.015 4.149zM4.694 11.14l.403-6.718 4.03.806zm4.473-6.01l-4.014-.803L9.167.18zm.104-.056V.103h5.376zm-.747 13.357v4.143l1.671-1.403zm.057 4.232l3.338 1.335-1.67-2.737zm3.5 1.335l3.338-1.335-1.67-1.402zm3.394-1.424v-4.143l-1.67 2.74zm-6.858-4.191L12 23.93l3.382-5.547z"/></svg>