<!-- Generated by IcoMoon.io -->
<svg version="1.1" xmlns="http://www.w3.org/2000/svg" width="24" height="24" viewBox="0 0 24 24">
<title>minimize</title>
<path d="M10.732 19.796v-5.775c0-0.097-0.019-0.195-0.060-0.289-0.075-0.184-0.221-0.33-0.409-0.409-0.094-0.037-0.191-0.056-0.289-0.056h-5.775c-0.416 0-0.754 0.337-0.754 0.754s0.337 0.754 0.754 0.754h3.96l-7.965 7.965c-0.292 0.293-0.292 0.773 0 1.065 0.146 0.146 0.341 0.221 0.532 0.221s0.386-0.071 0.532-0.221l7.965-7.965v3.956c0 0.416 0.337 0.754 0.754 0.754s0.754-0.337 0.754-0.754zM22.691 0.244l-7.965 7.965v-3.956c0-0.416-0.338-0.754-0.754-0.754s-0.754 0.338-0.754 0.754v5.775c0 0.098 0.019 0.195 0.056 0.289 0.075 0.184 0.225 0.33 0.409 0.409 0.094 0.038 0.191 0.056 0.289 0.056h5.775c0.416 0 0.754-0.337 0.754-0.754s-0.337-0.754-0.754-0.754h-3.956l7.965-7.965c0.293-0.292 0.293-0.772 0-1.065s-0.773-0.292-1.065 0z"></path>
</svg>
