<svg xmlns="http://www.w3.org/2000/svg" width="24" height="24"><path d="M10.732 19.796v-5.775a.72.72 0 0 0-.06-.289.752.752 0 0 0-.698-.465H4.199a.754.754 0 1 0 0 1.508h3.96L.194 22.74a.757.757 0 0 0 0 1.065c.146.146.341.221.532.221s.386-.071.532-.221l7.965-7.965v3.956a.754.754 0 1 0 1.508 0zM22.691.244l-7.965 7.965V4.253a.755.755 0 0 0-1.508 0v5.775c0 .098.019.195.056.289.075.184.225.33.409.409a.766.766 0 0 0 .289.056h5.775a.754.754 0 1 0 0-1.508h-3.956l7.965-7.965c.293-.292.293-.772 0-1.065s-.773-.292-1.065 0z"/></svg>