<svg xmlns="http://www.w3.org/2000/svg" width="24" height="24"><path fill="#002050" d="M2.456 1.375a2.453 2.453 0 0 0-1.652.644l.002-.002C-.134 2.884-.21 4.348.553 5.38l4.917 6.59-4.946 6.65c-.762 1.032-.702 2.496.254 3.363a2.449 2.449 0 0 0 3.613-.337l.005-.006 6.904-9.28a.648.648 0 0 0-.001-.764l.001.002-6.876-9.235a2.432 2.432 0 0 0-1.955-.986h-.012.001zm19.089 0h-.013c-.799 0-1.508.385-1.951.98l-.005.006-6.86 9.22a.647.647 0 0 0 .002.764l-.001-.002 6.89 9.296a2.45 2.45 0 0 0 3.619.343l-.002.002c.956-.867 1.016-2.331.254-3.363l-4.947-6.65 4.917-6.59c.762-1.032.687-2.496-.254-3.363a2.452 2.452 0 0 0-1.649-.642z"/></svg>