<!-- Generated by IcoMoon.io -->
<svg version="1.1" xmlns="http://www.w3.org/2000/svg" width="24" height="24" viewBox="0 0 24 24">
<title>more</title>
<path d="M21.375 14.25c-1.425 0-2.625-1.2-2.625-2.625s1.2-2.625 2.625-2.625 2.625 1.2 2.625 2.625-1.2 2.625-2.625 2.625zM11.925 14.25c-1.425 0-2.625-1.2-2.625-2.625s1.2-2.625 2.625-2.625 2.625 1.2 2.625 2.625-1.2 2.625-2.625 2.625zM2.625 14.25c-1.425 0-2.625-1.2-2.625-2.625s1.2-2.625 2.625-2.625 2.625 1.2 2.625 2.625-1.2 2.625-2.625 2.625z"></path>
</svg>
