<svg xmlns="http://www.w3.org/2000/svg" width="24" height="24"><path fill="#ff7139" d="M8.855 7.333c.008 0 .004 0 0 0zM6.082 5.947c.007 0 .004 0 0 0zm16.59 2.14c-.5-1.203-1.514-2.503-2.31-2.914.648 1.27 1.023 2.544 1.166 3.495l.002.02c-1.302-3.246-3.51-4.555-5.314-7.404-.09-.145-.182-.289-.27-.441a2.95 2.95 0 0 1-.119-.218l-.009-.02a2.06 2.06 0 0 1-.168-.441l-.003-.015a.03.03 0 0 0-.027-.03l-.011-.001-.011.002-.006.002a.04.04 0 0 0-.009.005l.005-.007c-2.56 1.5-3.622 4.126-3.894 5.797a6.117 6.117 0 0 0-2.319.598l.037-.016a.295.295 0 0 0-.145.368l-.001-.002a.29.29 0 0 0 .394.168l-.002.001a5.442 5.442 0 0 1 1.97-.518l.018-.001.067-.005c.084-.005.184-.008.284-.009h.041c.575 0 1.13.084 1.654.24l-.041-.01.094.03c.13.039.218.069.305.101l-.04-.013c.104.038.167.063.229.089l-.038-.014a4.14 4.14 0 0 1 .421.189l-.032-.015.106.054c.106.054.179.095.251.138l-.027-.015c.07.041.116.069.162.098l-.021-.012a5.944 5.944 0 0 1 1.999 2.055l.015.028c-.615-.432-1.716-.859-2.776-.674 4.142 2.07 3.03 9.201-2.71 8.932a5.135 5.135 0 0 1-1.534-.301l.036.011a5.978 5.978 0 0 1-.379-.153l.04.016a4.418 4.418 0 0 1-.218-.104l.024.011c-1.406-.727-2.567-2.1-2.712-3.768 0 0 .531-1.981 3.806-1.981.354 0 1.366-.988 1.385-1.274-.005-.094-2.009-.891-2.79-1.66-.418-.412-.616-.61-.791-.76a3.217 3.217 0 0 0-.287-.217l-.012-.008a5.229 5.229 0 0 1-.205-1.466c0-.479.063-.944.182-1.386l-.009.037c-1.183.539-2.103 1.39-2.772 2.142h-.006c-.456-.578-.424-2.486-.398-2.884-.006-.025-.34.174-.385.204-.418.3-.786.617-1.124.962l-.001.002c-.383.389-.736.81-1.054 1.259l-.021.031A9.606 9.606 0 0 0 .831 9.836l-.013.065c-.003.013-.11.482-.188 1.062a3.905 3.905 0 0 0-.03.206l-.007.064a6.83 6.83 0 0 0-.067.638l-.001.022-.002.034c-.004.044-.012.177-.02.31L.5 12.31l-.001.06c0 6.358 5.156 11.513 11.516 11.513 5.695 0 10.424-4.135 11.35-9.566.02-.147.035-.295.052-.444.23-1.974-.025-4.05-.746-5.785z"/></svg>