<svg xmlns="http://www.w3.org/2000/svg" width="24" height="24"><path fill="#1a70b8" d="M11.777 23.997a11.966 11.966 0 0 1-8.965-4.278l-.015-.018A11.95 11.95 0 0 1 .41 15.13l-.019-.084A11.823 11.823 0 0 1 0 11.995c0-.905.099-1.787.288-2.636l-.015.08A11.93 11.93 0 0 1 2.02 5.332l-.027.043a12.148 12.148 0 0 1 3.998-3.768l.058-.031A11.704 11.704 0 0 1 10.112.145l.067-.009a12.275 12.275 0 0 1 3.763.016l-.07-.009c1.708.27 3.302.89 4.751 1.848.873.577 1.692 1.29 2.385 2.08a11.919 11.919 0 0 1 2.663 5.114l.017.082c.402 1.718.416 3.556.039 5.291a12.039 12.039 0 0 1-4.006 6.628l-.018.015a11.966 11.966 0 0 1-4.571 2.388l-.084.019c-.743.195-1.499.316-2.29.367a16.89 16.89 0 0 1-.8.026h-.009zm-6.924-6.684a.491.491 0 0 0 .23-.133.556.556 0 0 0 .138-.228l.001-.004c.013-.043.014-.178.018-2.363.004-2.12.005-2.327.018-2.438.033-.298.076-.51.146-.72.101-.303.224-.516.406-.705.14-.144.26-.232.434-.315a1.7 1.7 0 0 1 .495-.147l.009-.001c.114-.017.382-.024.493-.012.55.064 1.018.367 1.304.8l.004.007c.166.25.271.528.327.866l.017.106.004 2.438c.004 2.324.005 2.44.019 2.485a.558.558 0 0 0 .133.226.496.496 0 0 0 .197.127l.004.001c.052.019.068.021.167.021l.033.001a.46.46 0 0 0 .337-.146.504.504 0 0 0 .149-.297v-.003c.006-.042.008-.774.008-2.407 0-1.542.003-2.375.008-2.428.047-.48.222-.889.523-1.225.183-.204.464-.39.73-.482.21-.074.394-.101.626-.095.304.01.55.066.8.186.284.136.514.341.668.597.178.294.28.662.299 1.083.002.053.013.491.023.973.022 1.002.024 1.063.04 1.238.072.787.307 1.426.711 1.935.087.11.311.333.417.417.435.344.944.555 1.532.634.177.024.507.03.68.012.797-.082 1.53-.463 2.015-1.046.373-.45.606-.99.704-1.64.046-.302.043-.143.046-2.506.003-2.417.007-2.223-.054-2.346a.484.484 0 0 0-.329-.25l-.003-.001a.587.587 0 0 0-.419.061l.003-.002c-.1.06-.19.183-.22.304-.009.031-.012.478-.016 2.22-.005 2.415 0 2.23-.055 2.51-.18.917-.81 1.522-1.73 1.66a2.532 2.532 0 0 1-.523-.009l.012.001c-.464-.07-.84-.256-1.13-.557-.332-.345-.53-.816-.601-1.432-.018-.151-.026-.387-.043-1.212-.018-.853-.026-1.05-.047-1.24-.129-1.123-.68-1.983-1.548-2.417a2.74 2.74 0 0 0-1.115-.294h-.006c-.55-.035-1.136.12-1.671.441-.318.19-.588.425-.808.701l-.005.006-.038.049-.028-.038a2.463 2.463 0 0 0-.234-.26l-.001-.001c-.457-.433-1.1-.722-1.78-.8a3.747 3.747 0 0 0-.664 0l.014-.001c-.635.07-1.141.286-1.559.666-.48.437-.795 1.103-.912 1.926-.056.393-.057.436-.054 2.915l.002 2.184.022.064a.527.527 0 0 0 .355.338l.004.001a.61.61 0 0 0 .269 0zm11.99-8.863a.689.689 0 0 0 .545-.5l.001-.005a.84.84 0 0 0 .008-.305l.001.005a.69.69 0 0 0-.45-.515l-.005-.001a.679.679 0 0 0-.895.642v.007c0 .055.005.11.012.142a.686.686 0 0 0 .788.53l-.004.001zm-2.667-.138a.5.5 0 0 0 .319-.262l.001-.003c.046-.092.06-.158.067-.343.013-.58.246-1.103.618-1.491l-.001.001a1.932 1.932 0 0 1 1.136-.586l.01-.001c.145-.022.434-.024.581-.004.307.043.58.143.822.3.244.16.474.4.634.663.202.333.326.763.327 1.127 0 .1.012.184.036.26a.508.508 0 0 0 .938.071l.001-.003c.053-.111.06-.15.059-.35 0-.198-.01-.318-.043-.514-.217-1.298-1.165-2.294-2.426-2.545a2.411 2.411 0 0 0-.63-.055h.005-.046A3.031 3.031 0 0 0 13.9 6.199l-.008.017a3.256 3.256 0 0 0-.366 1.426v.004c-.01.265.037.418.167.544a.506.506 0 0 0 .486.122l-.004.001z"/></svg>