<!-- Generated by IcoMoon.io -->
<svg version="1.1" xmlns="http://www.w3.org/2000/svg" width="24" height="24" viewBox="0 0 24 24">
<title>mute</title>
<path d="M7.834 11.616v-1.894c0-2.671 2.173-4.843 4.843-4.843 1.181 0 2.264 0.425 3.105 1.129l1.126-1.126c-0.755-0.66-1.666-1.147-2.671-1.397v-1.925c0-0.862-0.698-1.561-1.56-1.561s-1.561 0.698-1.561 1.561v1.925c-2.796 0.697-4.868 3.226-4.868 6.238v1.894c0 2.025-0.804 3.966-2.236 5.398-0.383 0.383-0.602 0.884-0.639 1.403l4.042-4.042c0.275-0.882 0.418-1.809 0.418-2.759zM19.106 11.616v-1.894c0-0.335-0.025-0.663-0.075-0.984l-1.511 1.511v1.367c0 2.463 0.959 4.778 2.7 6.519 0.177 0.177 0.229 0.44 0.133 0.67s-0.319 0.379-0.568 0.379h-11.201l-1.585 1.585h2.448c0 1.784 1.446 3.23 3.23 3.23s3.23-1.446 3.23-3.23h3.879c0.89 0 1.692-0.536 2.033-1.358s0.152-1.768-0.477-2.398c-1.431-1.432-2.236-3.373-2.236-5.398zM12.678 22.415c-0.907 0-1.644-0.738-1.644-1.644h3.289c-0.001 0.907-0.738 1.644-1.645 1.644zM22.035 2.746c-0.31-0.31-0.812-0.31-1.121 0l-18.948 18.948c-0.31 0.31-0.31 0.812 0 1.121 0.155 0.155 0.358 0.232 0.561 0.232s0.406-0.077 0.561-0.232l18.948-18.948c0.31-0.31 0.31-0.812 0-1.121z"></path>
</svg>
