<svg xmlns="http://www.w3.org/2000/svg" width="24" height="24"><path d="M7.834 11.616V9.722a4.848 4.848 0 0 1 4.843-4.843c1.181 0 2.264.425 3.105 1.129l1.126-1.126a6.41 6.41 0 0 0-2.671-1.397V1.56a1.56 1.56 0 1 0-3.121 0v1.925a6.432 6.432 0 0 0-4.868 6.238v1.894a7.632 7.632 0 0 1-2.236 5.398 2.203 2.203 0 0 0-.639 1.403l4.042-4.042a9.254 9.254 0 0 0 .418-2.759zm11.272 0V9.722c0-.335-.025-.663-.075-.984l-1.511 1.511v1.367c0 2.463.959 4.778 2.7 6.519a.614.614 0 1 1-.435 1.049H8.584l-1.585 1.585h2.448a3.23 3.23 0 1 0 6.46 0h3.879a2.201 2.201 0 0 0 1.556-3.756 7.637 7.637 0 0 1-2.236-5.398zm-6.428 10.799a1.646 1.646 0 0 1-1.644-1.644h3.289a1.647 1.647 0 0 1-1.645 1.644zm9.357-19.669a.792.792 0 0 0-1.121 0L1.966 21.694a.792.792 0 1 0 1.122 1.121L22.036 3.867a.792.792 0 0 0 0-1.121z"/></svg>