<!-- Generated by IcoMoon.io -->
<svg version="1.1" xmlns="http://www.w3.org/2000/svg" width="24" height="24" viewBox="0 0 24 24">
<title>nav</title>
<path d="M23.4 16.5h-22.8c-0.375 0-0.6-0.225-0.6-0.525v-0.15c0-0.3 0.225-0.525 0.6-0.525h22.875c0.3 0 0.6 0.225 0.6 0.525v0.15c-0.075 0.3-0.3 0.525-0.675 0.525zM17.175 7.95h-16.575c-0.375 0-0.6-0.225-0.6-0.525v-0.15c0-0.3 0.225-0.525 0.6-0.525h16.65c0.3 0 0.6 0.225 0.6 0.525v0.15c-0.075 0.3-0.375 0.525-0.675 0.525zM0.6 11.025h11.25c0.3 0 0.6 0.225 0.6 0.525v0.15c0 0.3-0.225 0.525-0.6 0.525h-11.25c-0.375 0-0.6-0.225-0.6-0.525v-0.15c0-0.3 0.225-0.525 0.6-0.525z"></path>
</svg>
