<svg xmlns="http://www.w3.org/2000/svg" width="24" height="24"><path fill="#00c7b7" d="M16.934 8.519c.118.06.218.137.302.229l.001.001 2.349-1.045-2.192-2.171-.491 2.954zM12.06 6.546c.109.163.184.358.208.568l.001.006 3.497 1.482c.101-.078.219-.138.348-.175l.007-.002.574-3.55-2.13-2.234-2.505 3.852zm11.933 5.491l-3.748-3.748-2.548 1.044 6.264 2.662s.053.042.032.042zm-.627.606l-6.013-2.569a1.042 1.042 0 0 1-.695.406l-.005.001-.647 3.957c.186.188.302.446.303.731l3.633.762 3.33-3.31v-.062zM15.4 9.25l-3.268-1.39a1.201 1.201 0 0 1-1.005.544l-.041-.001h.002-.199L8.185 12.58l7.225-3.132v.01a.728.728 0 0 1 0-.171v.004l.001-.009a.052.052 0 0 0-.011-.032zm3.967 7.308l-3.195-.658a1.099 1.099 0 0 1-.453.341l-.007.003-.761 4.72 4.437-4.396s-.01.02-.021.02zm-4.469-.324a1.049 1.049 0 0 1-.614-.703l-.002-.007-5.95-1.222-.084.136 5.398 7.81.323-.324.919-5.67s.031.022.01.011zm-6.441-2.652l5.878 1.211c.17-.293.471-.493.82-.522h.004l.637-3.894-.135-.115-7.308 3.132c.034.052.068.114.099.177l.005.011zm-2.464.981l-.125-.125-2.537 1.044 1.232 1.222 1.399-2.172zm1.67.397a1.34 1.34 0 0 1-.563.125h-.006a1.39 1.39 0 0 1-.454-.076l.01.003-1.544 2.245 6.765 6.702 1.19-1.18zm-.95-2.641a1.537 1.537 0 0 1 .321.001l-.007-.001a1.31 1.31 0 0 1 .351.001l-.007-.001 2.735-4.25a1.188 1.188 0 0 1-.334-.824 1.148 1.148 0 0 1 .001-.276l-.001.006-3.32-1.535-2.672 2.6zm.303-7.402l3.237 1.378a1.235 1.235 0 0 1 .837-.282h-.002c.142.001.279.024.407.066l-.01-.003 2.526-3.947L11.923.041 7.016 4.854s-.01.052 0 .063zm-1.21 8.164a1.6 1.6 0 0 1 .241-.335l-.001.001-2.768-4.134L0 11.797zm-.262.7L.533 12.735l2.203 2.235 2.777-1.18z"/></svg>