<svg xmlns="http://www.w3.org/2000/svg" width="24" height="24"><path d="M6.329 7.998c.24 0 .473.035.691.103a19.145 19.145 0 0 1 2.693-2.486l.047-.034a2.283 2.283 0 0 1-.065-.546v-.001c0-.266.045-.522.127-.76l-.005.016a17.27 17.27 0 0 0-3.613-1.985 11.095 11.095 0 0 0-3.098 2.857 17.377 17.377 0 0 0 2.219 3.084l-.013-.015a2.324 2.324 0 0 1 1.018-.233zm-2.35 2.348c0-.33.07-.644.191-.928a19.046 19.046 0 0 1-2.034-2.675A10.997 10.997 0 0 0 .96 11.7c0 2.063.569 3.994 1.554 5.646a18.727 18.727 0 0 1 1.944-5.582 2.337 2.337 0 0 1-.479-1.418zm8.064-7.659c.62 0 1.182.241 1.603.635a18.672 18.672 0 0 1 3.858-1.19A10.98 10.98 0 0 0 12 .661c-1.367 0-2.675.251-3.883.706a18.887 18.887 0 0 1 2.732 1.65c.35-.209.757-.329 1.194-.329zm3.511 11.063c.146-.305.354-.575.611-.787a17.23 17.23 0 0 0-3.206-5.764 2.343 2.343 0 0 1-2.281-.253A17.264 17.264 0 0 0 8.321 9.11c.226.359.356.782.356 1.237 0 .244-.037.48-.108.703a17.102 17.102 0 0 0 6.985 2.7zm3.047 3.171a19.033 19.033 0 0 1-.097 3.698 11.056 11.056 0 0 0 4.016-5.567c-.74.189-1.631.344-2.542.432l-.075.006a2.348 2.348 0 0 1-1.302 1.43zm-3.596-1.592a18.77 18.77 0 0 1-7.452-2.981 2.347 2.347 0 0 1-1.707.298 17.062 17.062 0 0 0-1.919 6.581 11.05 11.05 0 0 0 3.774 2.646 18.792 18.792 0 0 1 7.304-6.544zm4.406-11.812c-1.77.172-3.46.617-5.032 1.282a2.341 2.341 0 0 1-.229 1.267 18.834 18.834 0 0 1 3.563 6.349 2.353 2.353 0 0 1 2.124 1.434 17.076 17.076 0 0 0 3.094-.605 11.013 11.013 0 0 0-3.52-9.727zm-3.224 13.066a17.156 17.156 0 0 0-6.868 5.827c.858.215 1.756.33 2.681.33 1.664 0 3.242-.371 4.658-1.031.228-1.114.348-2.264.348-3.443 0-.426-.019-.848-.052-1.266a2.304 2.304 0 0 1-.768-.418z"/></svg>