<!-- Generated by IcoMoon.io -->
<svg version="1.1" xmlns="http://www.w3.org/2000/svg" width="24" height="24" viewBox="0 0 24 24">
<title>neutral1</title>
<path d="M12 0c-6.619 0-12 5.381-12 12s5.381 12 12 12 12-5.381 12-12-5.381-12-12-12zM12 22.5c-5.79 0-10.5-4.71-10.5-10.5s4.71-10.5 10.5-10.5 10.5 4.71 10.5 10.5-4.71 10.5-10.5 10.5zM9.322 8.010c0 0.899-0.729 1.627-1.627 1.627s-1.628-0.729-1.628-1.627c0-0.899 0.729-1.627 1.628-1.627s1.627 0.729 1.627 1.627zM17.933 8.010c0 0.899-0.729 1.627-1.628 1.627s-1.627-0.729-1.627-1.627c0-0.899 0.729-1.627 1.627-1.627s1.628 0.729 1.628 1.627zM17.348 15.93h-10.695c-0.413 0-0.75 0.337-0.75 0.75s0.337 0.75 0.75 0.75h10.695c0.412 0 0.75-0.337 0.75-0.75s-0.334-0.75-0.75-0.75z"></path>
</svg>
