<svg xmlns="http://www.w3.org/2000/svg" width="24" height="24"><path d="M2.925 12.517c1.737-2.115 5.011-4.633 10.783-4.849V3.751a.602.602 0 0 1 .982-.466l9.09 7.494a.606.606 0 0 1 .221.461.592.592 0 0 1-.216.461l-9.09 7.524a.595.595 0 0 1-.638.079.596.596 0 0 1-.344-.545v-3.902c-3.769.015-9.531.294-12.589 5.688A.6.6 0 0 1 0 20.25c-.005-2.017.766-5.104 2.925-7.735zm11.387 1.138a.601.601 0 0 1 .604.604v3.225l7.534-6.238-7.539-6.218v3.225a.605.605 0 0 1-.594.604c-8.638.083-11.858 5.35-12.795 9.05 3.72-4.245 9.291-4.25 12.79-4.25z"/></svg>