<svg xmlns="http://www.w3.org/2000/svg" width="24" height="24"><path fill="#0082c9" d="M12.018 6.537c-2.5 0-4.6 1.712-5.241 4.015-.56-1.232-1.793-2.105-3.225-2.105A3.57 3.57 0 0 0 0 11.999V12a3.57 3.57 0 0 0 3.551 3.553h.001c1.432 0 2.664-.874 3.224-2.106.641 2.304 2.742 4.016 5.242 4.016 2.487 0 4.576-1.693 5.231-3.977.569 1.21 1.783 2.067 3.198 2.067A3.567 3.567 0 0 0 24 12.001V12a3.569 3.569 0 0 0-3.552-3.553h-.001c-1.416 0-2.63.858-3.199 2.067-.654-2.284-2.743-3.978-5.23-3.977zm0 2.085c1.878 0 3.378 1.5 3.378 3.378s-1.5 3.378-3.378 3.378h-.015a3.362 3.362 0 0 1-3.362-3.362v-.017V12c0-1.878 1.5-3.378 3.377-3.378zm-8.466 1.91c.822 0 1.467.645 1.467 1.468s-.644 1.467-1.467 1.468h-.015c-.802 0-1.452-.65-1.452-1.452v-.017V12c0-.823.644-1.467 1.467-1.468zm16.895 0c.823 0 1.468.645 1.468 1.468s-.645 1.468-1.468 1.468h-.015c-.802 0-1.452-.65-1.452-1.452v-.017V12c0-.823.644-1.467 1.467-1.468z"/></svg>