<svg xmlns="http://www.w3.org/2000/svg" width="24" height="24"><path d="M17.813 22.502c-.089.047-.084.066.005.021a.246.246 0 0 0 .07-.047c0-.016-.002-.014-.075.026zm.178-.094c-.042.033-.042.035.009.009.028-.014.052-.03.052-.035 0-.019-.012-.014-.061.026zm.117-.071c-.042.033-.042.035.009.009.028-.014.052-.03.052-.035 0-.019-.012-.014-.061.026zm.117-.07c-.042.033-.042.035.009.009.028-.014.052-.03.052-.035 0-.019-.012-.014-.061.026zm.162-.105c-.082.052-.108.087-.035.047.052-.03.136-.094.122-.096a.439.439 0 0 0-.088.05l.001-.001zM11.214.006c-.052.005-.216.021-.364.033-3.408.307-6.601 2.146-8.623 4.973a11.755 11.755 0 0 0-2.11 5.178l-.008.065c-.096.659-.108.854-.108 1.748s.012 1.088.108 1.748c.652 4.506 3.859 8.292 8.208 9.695.779.251 1.6.422 2.533.525.364.04 1.935.04 2.299 0 1.611-.178 2.977-.577 4.323-1.264.206-.106.246-.134.218-.157a75.383 75.383 0 0 1-1.511-1.994l-.443-.626-1.919-2.592-2.404-3.558a195.22 195.22 0 0 0-3.135-4.637l.714 1.081c-.009-.002-.019 1.579-.023 3.509-.007 3.38-.009 3.516-.052 3.596a.432.432 0 0 1-.203.212l-.003.001c-.075.038-.141.045-.495.045H7.81l-.108-.068a.437.437 0 0 1-.156-.169l-.001-.002-.049-.106.005-4.703.007-4.705.073-.091a.626.626 0 0 1 .171-.141l.003-.002c.096-.047.134-.052.54-.052.479 0 .558.019.683.155-.083-.214.871 1.207 1.818 2.634l1.077 1.727c1.558 2.362 3.687 5.587 4.734 7.171l1.9 2.878.096-.063a12.439 12.439 0 0 0 2.453-2.149l.012-.014a11.878 11.878 0 0 0 2.816-6.068l.008-.066c.096-.659.108-.854.108-1.748s-.012-1.088-.108-1.748c-.652-4.506-3.859-8.292-8.208-9.695a12.012 12.012 0 0 0-2.442-.518l-.056-.005a33.673 33.673 0 0 0-1.972-.033zm4.912 7.258a.473.473 0 0 1 .236.274l.001.003c.019.061.023 1.365.019 4.304l-.007 4.218-.744-1.14-.746-1.14v-3.066c0-1.982.009-3.096.023-3.15a.49.49 0 0 1 .23-.295l.002-.001c.096-.049.131-.054.5-.054.347 0 .408.005.486.047z"/></svg>