<svg xmlns="http://www.w3.org/2000/svg" width="24" height="24"><path fill="#d12228" d="M17.653 16.63a.712.712 0 0 0 1.424 0 .712.712 0 0 0-1.424 0zm-9.45 4.238h7.575c.3 0 .524-.225.544-.524v-5.175c-.02-.282-.263-.525-.544-.507H8.199a.54.54 0 0 0-.54.524v5.157c0 .301.244.525.544.525zm13.051-3.525h.001a.729.729 0 0 0 .729-.729v-.001a.73.73 0 1 0-.73.73zm-1.443-.019h-.026a.714.714 0 0 0 0 1.428l.029-.001h-.001a.714.714 0 0 0 .001-1.426h-.001zm-.713-2.137a.712.712 0 0 0 1.424 0 .712.712 0 0 0-1.424 0zM2.54 16.612a1.65 1.65 0 0 0 3.3 0 1.65 1.65 0 0 0-3.3 0zM21.272 0H2.72A2.73 2.73 0 0 0-.01 2.719v18.543C.009 22.781 1.228 24 2.728 24h18.529a2.753 2.753 0 0 0 2.753-2.717V2.737C23.991 1.219 22.772 0 21.272 0zm1.913 21.281a1.921 1.921 0 0 1-1.912 1.912H2.728a1.92 1.92 0 0 1-1.913-1.912v-8.456h22.369zm0-9.694H.815v-8.85A1.92 1.92 0 0 1 2.728.824h18.544c1.049 0 1.912.863 1.912 1.913v8.85zm-5.776-8.475H6.534c-.3 0-.544.263-.544.563V9.15c0 .3.226.563.544.563h10.875a.548.548 0 0 0 .544-.548v-.016.001-5.494-.001c0-.3-.243-.543-.543-.543h-.001z"/></svg>