<svg xmlns="http://www.w3.org/2000/svg" width="24" height="24"><path fill="#76d04b" d="M22.33 7.851l-.716-.398c1.101-1.569 1.758-3.927.934-7.453 0 0-1.857 5.029-5.59 4.863l-4.37-2.431a1.164 1.164 0 0 0-.534-.15H11.951a1.185 1.185 0 0 0-.544.153l.006-.003-4.371 2.431C3.309 5.03 1.452 0 1.452 0c-.825 3.526-.166 5.884.934 7.453l-.716.398a1.134 1.134 0 0 0-.589.988l.022 14.591c0 .203.109.392.294.491a.58.58 0 0 0 .587-.001l-.003.001 5.79-3.204c.366-.211.589-.582.589-.987v-6.817c0-.406.223-.783.588-.984l2.465-1.372c.168-.097.37-.154.586-.154h.005c.2 0 .407.05.585.154l2.465 1.372c.365.201.588.578.588.984v6.817c0 .405.226.779.59.987l5.788 3.204a.587.587 0 0 0 .591-.001l-.003.002a.564.564 0 0 0 .292-.491l.019-14.591a1.128 1.128 0 0 0-.583-.985l-.006-.003z"/></svg>