<!-- Generated by IcoMoon.io -->
<svg version="1.1" xmlns="http://www.w3.org/2000/svg" width="24" height="24" viewBox="0 0 24 24">
<title>numbered-list</title>
<path d="M7.629 2.383c0-0.49 0.398-0.887 0.887-0.887h14.596c0.49 0 0.887 0.397 0.887 0.887s-0.397 0.887-0.887 0.887h-14.596c-0.49 0-0.888-0.397-0.888-0.887zM8.517 7.61h9.468c0.49 0 0.887-0.398 0.887-0.887s-0.397-0.887-0.887-0.887h-9.468c-0.49 0-0.887 0.397-0.887 0.887s0.397 0.887 0.887 0.887zM23.113 16.979h-14.596c-0.49 0-0.887 0.397-0.887 0.887s0.398 0.887 0.887 0.887h14.596c0.49 0 0.887-0.397 0.887-0.887s-0.398-0.887-0.887-0.887zM17.985 21.318h-9.468c-0.49 0-0.887 0.397-0.887 0.887s0.398 0.887 0.887 0.887h9.468c0.49 0 0.887-0.397 0.887-0.887s-0.398-0.887-0.888-0.887zM2.132 8.047h1.409v-7.14h-1.154c-0.033 0.373-0.004 0.673-0.296 0.899s-0.904 0.339-1.458 0.339h-0.201v0.987h1.699v4.916zM1.611 21.725l1.77-1.316c0.61-0.419 1.011-0.808 1.203-1.166s0.288-0.744 0.288-1.157c0-0.675-0.225-1.219-0.676-1.633s-1.043-0.621-1.777-0.621c-0.707 0-1.274 0.21-1.698 0.629s-0.636 1.051-0.636 1.895h1.365c0-0.505 0.089-0.853 0.268-1.046s0.423-0.29 0.734-0.29 0.557 0.098 0.739 0.295 0.273 0.441 0.273 0.732-0.084 0.555-0.253 0.79c-0.168 0.236-0.637 0.634-1.407 1.193-0.658 0.481-1.52 1.068-1.787 1.494l-0.015 1.448h4.886v-1.247z"></path>
</svg>
