<svg xmlns="http://www.w3.org/2000/svg" width="24" height="24"><path d="M7.629 2.383c0-.49.398-.887.887-.887h14.596a.887.887 0 1 1 0 1.774H8.516a.888.888 0 0 1-.888-.887zm.888 5.227h9.468a.887.887 0 0 0 0-1.774H8.517a.887.887 0 1 0 0 1.774zm14.596 9.369H8.517a.887.887 0 1 0 0 1.774h14.596a.887.887 0 1 0 0-1.774zm-5.128 4.339H8.517a.887.887 0 1 0 0 1.774h9.468a.887.887 0 1 0-.001-1.774zM2.132 8.047h1.409V.907H2.387c-.033.373-.004.673-.296.899s-.904.339-1.458.339H.432v.987h1.699v4.916zm-.521 13.678l1.77-1.316c.61-.419 1.011-.808 1.203-1.166s.288-.744.288-1.157c0-.675-.225-1.219-.676-1.633s-1.043-.621-1.777-.621c-.707 0-1.274.21-1.698.629s-.636 1.051-.636 1.895H1.45c0-.505.089-.853.268-1.046s.423-.29.734-.29.557.098.739.295.273.441.273.732-.084.555-.253.79c-.168.236-.637.634-1.407 1.193-.658.481-1.52 1.068-1.787 1.494l-.015 1.448h4.886v-1.247z"/></svg>