<svg xmlns="http://www.w3.org/2000/svg" width="24" height="24"><path fill="#00c58e" d="M19.724 20.272l.023-.045a.678.678 0 0 0 .051-.112l.002-.005.002-.005a1.133 1.133 0 0 0 .053-.614l.001.007.001.007a1.795 1.795 0 0 0-.239-.631l.004.008.005.008-5.317-9.353-.812-1.42L7.377 18.89a1.839 1.839 0 0 0-.203.594l-.001.011-.001.011a1.258 1.258 0 0 0 .083.721l-.003-.008-.003-.008c.016.04.033.074.052.106l-.002-.004-.002-.004c.16.275.5.602 1.25.602h9.898c.157 0 .925-.032 1.279-.638zm-6.227-9.316l4.859 8.548H8.64zm10.249 7.934L16.73 6.53c-.072-.13-.477-.787-1.182-.787-.317 0-.772.135-1.142.785l-.907 1.59.807 1.42 1.25-2.212 6.941 12.18h-2.64a1.184 1.184 0 0 1-.061.616l.003-.008.003-.008a.74.74 0 0 1-.059.13l.002-.004.002-.004-.023.045c-.355.605-1.122.637-1.272.637h4.129c.152 0 .917-.032 1.272-.637.157-.275.27-.737-.107-1.383zM7.304 20.307a.983.983 0 0 1-.043-.086l-.002-.006-.002-.006a1.215 1.215 0 0 1-.083-.72l-.001.008-.001.007H1.501L9.93 4.672l2.767 4.864.802-1.42-2.412-4.249c-.067-.122-.475-.777-1.177-.777-.317 0-.772.137-1.142.787L.23 18.889c-.072.13-.425.812-.075 1.417.16.275.5.602 1.25.602h7.151c-.745 0-1.09-.322-1.252-.601z"/></svg>