<!-- Generated by IcoMoon.io -->
<svg version="1.1" xmlns="http://www.w3.org/2000/svg" width="24" height="24" viewBox="0 0 24 24">
<title>ojook</title>
<path d="M7.481 11.532v-1.247s0-0.312-0.312-0.623c0 0-0.312-0.312-0.623-0.312h-0.312v5.299l-0.623 0.623h-1.558c0 0.312-0.312 0.312-0.312 0.312v0.312h1.558c0.312 0 0.623-0.312 0.623-0.312s0.312 0 0.312-0.312c0.312 0.312 0.623 0.312 0.623 0.312l0.312-0.312v-2.805c0.312-0.312 0.312-0.312 0.312-0.935 0 0.312 0 0.312 0 0zM5.299 13.091c0-0.312 0-0.312 0 0 0.312-0.935 0.312-1.558 0-2.182s-0.623-1.247-1.247-1.558c-0.312-0.312-0.935-0.623-1.558-0.623h-0.312c-0.312 0-0.312 0-0.623 0.312-0.623 0.312-1.247 0.935-1.558 1.87v2.182c0.312 0.312 0.623 0.935 0.935 1.247 0 0 0.312 0 0.312 0.312 0.312 0 0.312 0.312 0.623 0.312h1.558s0.312 0 0.312-0.312c0.623-0.623 1.247-0.935 1.558-1.558zM3.117 13.714h-0.935s-0.312 0-0.312-0.312c-0.312 0-0.623-0.312-0.935-0.623v-1.247c0.312-0.623 0.623-0.935 0.935-1.247h1.247l0.935 0.935v0.312c0.312 0.312 0 0.935 0 1.558 0 0.312-0.312 0.623-0.935 0.623zM6.857 9.351c0.312 0 0.312-0.312 0.623-0.312v-0.312c0-0.312-0.312-0.312-0.623-0.312-0.623-0.312-0.623 0-0.623 0-0.312 0.312 0 0.623 0.623 0.935-0.312 0-0.312 0 0 0zM24 8.727s-0.312 0 0 0c-0.312-0.312-0.623-0.312-0.623-0.312h-0.312l-0.935 0.935c-0.312 0.623-0.623 0.935-0.935 1.247l-0.312 0.312h-0.312s-0.312 0.312-0.312 0v-2.805c0-0.312 0-0.935-0.312-0.935 0-0.312-0.312-0.312-0.312-0.312h-0.312s0 0.312-0.312 0.312v7.481c0 0.312 0 0.312 0.312 0.312h0.312c0-0.312 0-0.312 0.312-0.623v-1.247h0.312l0.935 0.935c0 0.312 0.312 0.312 0.312 0.623 0 0 0 0.312 0.312 0.312 0 0 0 0.312 0.312 0.312h0.623s0.312 0 0.312-0.312v-0.935c0-0.312-0.312-0.312-0.312-0.623l-1.247-1.247s0-0.312-0.312-0.312 0 0 0.312-0.312c0.312 0 0.312-0.312 0.623-0.312l0.623-0.623c0.312 0 0.312-0.312 0.312-0.312l0.935-0.935v-0.623zM12.156 9.039c-0.312 0-0.623-0.312-1.247-0.312h-0.312s-0.312 0-0.623 0.312c-0.623 0.312-1.247 0.935-1.558 1.87v2.182c0 0.312 0.312 0.623 0.312 0.935l0.312 0.312s0 0.312 0.312 0.312 0.312 0.312 0.312 0.312c0.312 0 0.312 0.312 0.623 0.312h1.558c0.623-0.935 1.247-1.247 1.558-1.87 0 0 0-0.312 0.312-0.623v-0.312c0.312-0.623 0-1.247 0-1.87-0.312-0.623-0.935-0.935-1.558-1.558zM12.779 12.156s0 0.312 0 0v0.623c-0.312 0.623-0.623 0.935-1.247 0.935h-1.558c-0.312-0.312-0.623-0.623-0.623-1.247v-0.935c0-0.623 0.623-0.935 0.935-1.247h1.247c0.623 0 0.935 0.312 1.247 1.247v0.623zM18.701 10.597c-0.312-0.623-0.623-0.935-0.935-1.247s-0.935-0.623-1.558-0.623h-0.312c0 0.312-0.312 0.312-0.312 0.312-0.935 0.312-1.247 0.935-1.558 1.87v2.494c0.312 0.623 0.623 0.935 0.935 1.247h0.312c0.312 0 0.312 0.312 0.623 0.312h1.247s0.312 0 0.312-0.312c0.623-0.623 0.935-0.935 1.247-1.558s0.312-1.558 0-2.182v-0.312zM18.078 12.779c-0.312 0.623-0.623 0.935-1.247 0.935h-0.935s-0.312 0-0.312-0.312h-0.312l-0.623-0.623v-1.558c0.312-0.312 0.623-0.935 0.935-0.935h1.247s0.623 0.312 0.935 0.623v0.623c0.312 0.312 0.312 0.935 0.312 1.247z"></path>
</svg>
