<svg xmlns="http://www.w3.org/2000/svg" width="24" height="24"><path d="M7.481 11.532v-1.247s0-.312-.312-.623c0 0-.312-.312-.623-.312h-.312v5.299l-.623.623H4.053c0 .312-.312.312-.312.312v.312h1.558c.312 0 .623-.312.623-.312s.312 0 .312-.312c.312.312.623.312.623.312l.312-.312v-2.805c.312-.312.312-.312.312-.935 0 .312 0 .312 0 0zm-2.182 1.559c0-.312 0-.312 0 0 .312-.935.312-1.558 0-2.182s-.623-1.247-1.247-1.558c-.312-.312-.935-.623-1.558-.623h-.312c-.312 0-.312 0-.623.312-.623.312-1.247.935-1.558 1.87v2.182c.312.312.623.935.935 1.247 0 0 .312 0 .312.312.312 0 .312.312.623.312h1.558s.312 0 .312-.312c.623-.623 1.247-.935 1.558-1.558zm-2.182.623h-.935s-.312 0-.312-.312c-.312 0-.623-.312-.935-.623v-1.247c.312-.623.623-.935.935-1.247h1.247l.935.935v.312c.312.312 0 .935 0 1.558 0 .312-.312.623-.935.623zm3.74-4.363c.312 0 .312-.312.623-.312v-.312c0-.312-.312-.312-.623-.312-.623-.312-.623 0-.623 0-.312.312 0 .623.623.935-.312 0-.312 0 0 0zM24 8.727s-.312 0 0 0c-.312-.312-.623-.312-.623-.312h-.312l-.935.935c-.312.623-.623.935-.935 1.247l-.312.312h-.312s-.312.312-.312 0V8.104c0-.312 0-.935-.312-.935 0-.312-.312-.312-.312-.312h-.312s0 .312-.312.312v7.481c0 .312 0 .312.312.312h.312c0-.312 0-.312.312-.623v-1.247h.312l.935.935c0 .312.312.312.312.623 0 0 0 .312.312.312 0 0 0 .312.312.312h.623s.312 0 .312-.312v-.935c0-.312-.312-.312-.312-.623l-1.247-1.247s0-.312-.312-.312 0 0 .312-.312c.312 0 .312-.312.623-.312l.623-.623c.312 0 .312-.312.312-.312l.935-.935v-.623zm-11.844.312c-.312 0-.623-.312-1.247-.312h-.312s-.312 0-.623.312c-.623.312-1.247.935-1.558 1.87v2.182c0 .312.312.623.312.935l.312.312s0 .312.312.312.312.312.312.312c.312 0 .312.312.623.312h1.558c.623-.935 1.247-1.247 1.558-1.87 0 0 0-.312.312-.623v-.312c.312-.623 0-1.247 0-1.87-.312-.623-.935-.935-1.558-1.558zm.623 3.117s0 .312 0 0v.623c-.312.623-.623.935-1.247.935H9.974c-.312-.312-.623-.623-.623-1.247v-.935c0-.623.623-.935.935-1.247h1.247c.623 0 .935.312 1.247 1.247v.623zm5.922-1.559c-.312-.623-.623-.935-.935-1.247s-.935-.623-1.558-.623h-.312c0 .312-.312.312-.312.312-.935.312-1.247.935-1.558 1.87v2.494c.312.623.623.935.935 1.247h.312c.312 0 .312.312.623.312h1.247s.312 0 .312-.312c.623-.623.935-.935 1.247-1.558s.312-1.558 0-2.182v-.312zm-.623 2.182c-.312.623-.623.935-1.247.935h-.935s-.312 0-.312-.312h-.312l-.623-.623v-1.558c.312-.312.623-.935.935-.935h1.247s.623.312.935.623v.623c.312.312.312.935.312 1.247z"/></svg>