<svg xmlns="http://www.w3.org/2000/svg" width="24" height="24"><path d="M10.122.273a12.532 12.532 0 0 1 4.532.064c.737.129 1.417.482 2.054.849.723.431 1.46.828 2.204 1.211 1.792 1.192 3.257 2.893 4.093 4.888a11.88 11.88 0 0 1 .879 3.485c.284 1.572.129 3.201-.388 4.712-.41 1.495-1.353 2.743-2.111 4.066-.107.177-.254.332-.388.496-.978 1.176-2.132 2.239-3.563 2.826a.589.589 0 0 0 .113-.276 5.09 5.09 0 0 0-.524.139l.037-.01c.091-.121.233-.185.362-.271a13.19 13.19 0 0 0 1.339-.999c.07-.064.169-.099.198-.198-.169.07-.276.233-.431.332-2.245 1.623-5.057 2.515-7.835 2.274-2.861-.233-5.59-1.623-7.503-3.761a12.221 12.221 0 0 1-2.78-5.17 11.657 11.657 0 0 1 .22-6.715c.426-1.246 1.047-2.429 1.886-3.45C3.823 3.128 5.503 1.754 7.437.924 8.329.691 9.208.423 10.124.273m.138.673c-2.033.362-3.946 1.326-5.496 2.684a12.226 12.226 0 0 0-3.592 5.472c-.241 1.197-.496 2.416-.482 3.64.254 1.821.809 3.635 1.843 5.172a9.471 9.471 0 0 0 2.713 2.657c.056.035.121.064.177.086-.624-.439-1.154-.986-1.701-1.516-1.771-1.795-2.762-4.31-2.756-6.825-.013-2.154.667-4.299 1.872-6.086.517-.53.865-1.197 1.361-1.757 1.637-1.564 3.721-2.636 5.909-3.187 2.387-.354 4.875.051 7.05 1.09 2.054.978 3.838 2.542 4.987 4.513a10.222 10.222 0 0 1 1.404 4.923c.029-.629.086-1.283-.099-1.899-.228-.935-.439-1.891-.879-2.748-.788-1.318-1.594-2.662-2.748-3.691a10.238 10.238 0 0 0-3.003-1.811c-.948-.254-1.904-.482-2.861-.723a10.663 10.663 0 0 0-3.699.005m.284 1.675c-1.856.453-3.563 1.409-5.022 2.622-.418.396-.814.828-1.042 1.366-.051.121-.078.254-.155.37.021 0 .056-.008.078-.013.404-.56.828-1.106 1.339-1.572 1.438-1.339 3.351-2.119 5.293-2.282a10.25 10.25 0 0 1 6.284 1.503 7.594 7.594 0 0 1 1.744 1.326c.908.935 1.559 2.119 1.934 3.364.396 1.146.723 2.365.568 3.592-.206 1.296-.233 2.649-.766 3.876-.453.702-.871 1.425-1.339 2.111-1.524 1.728-3.479 3.145-5.732 3.699-.212.021-.404.142-.624.121.22.051.418-.078.638-.078a10.56 10.56 0 0 0 5.732-3.145c1.417-1.508 2.373-3.471 2.628-5.534.008-.849 0-1.693 0-2.542.029-.482-.107-.948-.22-1.417-.589-2.231-2.004-4.2-3.838-5.582-.538-.396-1.09-.788-1.714-1.042-1.808-.793-3.833-.978-5.783-.742M7.669 8.74c-.871 1.098-1.288 2.55-1.106 3.938.107.836.431 1.623.871 2.33-.056-.043-.169-.134-.228-.177-.134-.051-.134.107-.07.177.34.667.9 1.189 1.495 1.637.517.284 1.007.624 1.559.844.659.233 1.353.388 2.054.332.809-.078 1.629-.22 2.36-.595.758-.37 1.396-.956 1.955-1.58.396-.404.439-.999.737-1.46.332-.56.396-1.232.404-1.87.013-.688-.129-1.366-.327-2.02-.099-.453-.354-.849-.603-1.232-.801-1.128-1.963-2.025-3.321-2.344-2.103-.538-4.454.311-5.78 2.02zm5.852 8.537a5.44 5.44 0 0 0 3.166-2.296c-.013.163-.142.284-.22.418-.496.758-1.267 1.262-2.025 1.722-.426.22-.892.327-1.347.447-.254.078-.517-.043-.771-.048.388-.123.814-.104 1.197-.244z"/></svg>