<!-- Generated by IcoMoon.io -->
<svg version="1.1" xmlns="http://www.w3.org/2000/svg" width="24" height="24" viewBox="0 0 24 24">
<title>ola-cabs</title>
<path d="M10.122 0.273c1.495-0.254 3.037-0.233 4.532 0.064 0.737 0.129 1.417 0.482 2.054 0.849 0.723 0.431 1.46 0.828 2.204 1.211 1.792 1.192 3.257 2.893 4.093 4.888 0.474 1.106 0.758 2.288 0.879 3.485 0.284 1.572 0.129 3.201-0.388 4.712-0.41 1.495-1.353 2.743-2.111 4.066-0.107 0.177-0.254 0.332-0.388 0.496-0.978 1.176-2.132 2.239-3.563 2.826 0.064-0.086 0.099-0.177 0.113-0.276-0.201 0.043-0.364 0.087-0.524 0.139l0.037-0.010c0.091-0.121 0.233-0.185 0.362-0.271 0.469-0.305 0.913-0.638 1.339-0.999 0.070-0.064 0.169-0.099 0.198-0.198-0.169 0.070-0.276 0.233-0.431 0.332-2.245 1.623-5.057 2.515-7.835 2.274-2.861-0.233-5.59-1.623-7.503-3.761-1.329-1.465-2.293-3.257-2.78-5.17-0.581-2.196-0.517-4.562 0.22-6.715 0.426-1.246 1.047-2.429 1.886-3.45 1.307-1.637 2.987-3.011 4.921-3.841 0.892-0.233 1.771-0.501 2.687-0.651M10.262 0.946c-2.033 0.362-3.946 1.326-5.496 2.684-1.663 1.454-2.925 3.367-3.592 5.472-0.241 1.197-0.496 2.416-0.482 3.64 0.254 1.821 0.809 3.635 1.843 5.172 0.707 1.063 1.65 1.963 2.713 2.657 0.056 0.035 0.121 0.064 0.177 0.086-0.624-0.439-1.154-0.986-1.701-1.516-1.771-1.795-2.762-4.31-2.756-6.825-0.013-2.154 0.667-4.299 1.872-6.086 0.517-0.53 0.865-1.197 1.361-1.757 1.637-1.564 3.721-2.636 5.909-3.187 2.387-0.354 4.875 0.051 7.050 1.090 2.054 0.978 3.838 2.542 4.987 4.513 0.879 1.487 1.361 3.201 1.404 4.923 0.029-0.629 0.086-1.283-0.099-1.899-0.228-0.935-0.439-1.891-0.879-2.748-0.788-1.318-1.594-2.662-2.748-3.691-0.884-0.777-1.91-1.379-3.003-1.811-0.948-0.254-1.904-0.482-2.861-0.723-1.219-0.22-2.48-0.206-3.699 0.005M10.546 2.62c-1.856 0.453-3.563 1.409-5.022 2.622-0.418 0.396-0.814 0.828-1.042 1.366-0.051 0.121-0.078 0.254-0.155 0.37 0.021 0 0.056-0.008 0.078-0.013 0.404-0.56 0.828-1.106 1.339-1.572 1.438-1.339 3.351-2.119 5.293-2.282 2.188-0.198 4.428 0.348 6.284 1.503 0.637 0.362 1.232 0.793 1.744 1.326 0.908 0.935 1.559 2.119 1.934 3.364 0.396 1.146 0.723 2.365 0.568 3.592-0.206 1.296-0.233 2.649-0.766 3.876-0.453 0.702-0.871 1.425-1.339 2.111-1.524 1.728-3.479 3.145-5.732 3.699-0.212 0.021-0.404 0.142-0.624 0.121 0.22 0.051 0.418-0.078 0.638-0.078 2.183-0.404 4.216-1.529 5.732-3.145 1.417-1.508 2.373-3.471 2.628-5.534 0.008-0.849 0-1.693 0-2.542 0.029-0.482-0.107-0.948-0.22-1.417-0.589-2.231-2.004-4.2-3.838-5.582-0.538-0.396-1.090-0.788-1.714-1.042-1.808-0.793-3.833-0.978-5.783-0.742M7.669 8.74c-0.871 1.098-1.288 2.55-1.106 3.938 0.107 0.836 0.431 1.623 0.871 2.33-0.056-0.043-0.169-0.134-0.228-0.177-0.134-0.051-0.134 0.107-0.070 0.177 0.34 0.667 0.9 1.189 1.495 1.637 0.517 0.284 1.007 0.624 1.559 0.844 0.659 0.233 1.353 0.388 2.054 0.332 0.809-0.078 1.629-0.22 2.36-0.595 0.758-0.37 1.396-0.956 1.955-1.58 0.396-0.404 0.439-0.999 0.737-1.46 0.332-0.56 0.396-1.232 0.404-1.87 0.013-0.688-0.129-1.366-0.327-2.020-0.099-0.453-0.354-0.849-0.603-1.232-0.801-1.128-1.963-2.025-3.321-2.344-2.103-0.538-4.454 0.311-5.78 2.020zM13.521 17.277c1.288-0.34 2.443-1.168 3.166-2.296-0.013 0.163-0.142 0.284-0.22 0.418-0.496 0.758-1.267 1.262-2.025 1.722-0.426 0.22-0.892 0.327-1.347 0.447-0.254 0.078-0.517-0.043-0.771-0.048 0.388-0.123 0.814-0.104 1.197-0.244z"></path>
</svg>
