<svg xmlns="http://www.w3.org/2000/svg" width="24" height="24"><path fill="#6ba539" d="M21.039 0a2.958 2.958 0 0 0-2.642 4.291l-.008-.017-6.447 6.447a2.96 2.96 0 1 0 1.327 1.319l.008.017 6.447-6.447A2.96 2.96 0 1 0 21.039 0zM10.628 2.745c-.072 0-.143.003-.214.004s-.143.002-.215.005a10.69 10.69 0 0 0-1.335.138l-.03.005-.185.033-.105.02a6.177 6.177 0 0 0-.342.073l.053-.011-.032.008c-.967.229-1.817.555-2.607.978l.057-.028-.155.089c-.063.034-.125.07-.187.105-.046.027-.093.051-.14.079H5.19l-.01.005-.036.02v.002l.111.184 3.15 5.23c.102-.063.227-.13.355-.191l.025-.011a4.235 4.235 0 0 1 1.617-.413h.011c.071-.004.143-.008.214-.008zm.428.01v6.333c.325.034.647.103.96.209l4.66-4.66c-.173-.12-.348-.237-.528-.347l-.026-.015c-.056-.035-.112-.067-.168-.1l-.098-.056-.099-.055c.009.002-.047-.028-.103-.059l-.068-.033-.027-.014c-.394-.212-.864-.42-1.351-.594l-.074-.023c-.69-.241-1.403-.41-2.128-.505l-.089-.012-.09-.01a3.415 3.415 0 0 0-.142-.017l-.281-.023a5.704 5.704 0 0 0-.242-.015h-.013c-.031-.003-.062-.003-.093-.004zM4.782 4.498c-.51.333-.954.683-1.366 1.067l.006-.005 4.479 4.479c.049-.04.098-.078.149-.116l-.011-.018zm-1.67 1.36c-.05.05-.098.103-.147.154l-.149.155c-.33.357-.63.73-.902 1.118l-.039.056c-.05.07-.121.177-.191.284l-.025.042A10.486 10.486 0 0 0 .01 12.922l-.001.021-.006.215-.003.214h6.317c0-.072.007-.143.01-.214.005-.072.006-.144.013-.215a4.287 4.287 0 0 1 .952-2.3c.045-.055.096-.106.144-.16.048-.052.093-.107.144-.158zm16.255 1.464l-4.663 4.663c.106.312.175.634.21.959h6.332l-.004-.094a11.91 11.91 0 0 0-.035-.502l.003.046-.005-.052a10.475 10.475 0 0 0-.032-.303l.006.062v-.009l-.033-.24v-.009a10.482 10.482 0 0 0-.347-1.568l.02.075-.003-.01a9.632 9.632 0 0 0-.101-.34l.031.112-.01-.03c-.052-.167-.076-.235-.1-.303l.031.099-.02-.055a5.418 5.418 0 0 0-.167-.442l.014.037a5.24 5.24 0 0 0-.113-.277l.02.05a7.605 7.605 0 0 0-.105-.249l.042.105-.037-.081c-.062-.141-.089-.197-.116-.253l.036.082-.024-.052-.096-.194-.014-.027a6.917 6.917 0 0 0-.141-.27l.029.058-.004-.008a10.456 10.456 0 0 0-.627-1.014l.023.034zm-4.43 6.05c0 .071-.006.142-.01.214-.003.072-.005.143-.012.214a4.281 4.281 0 0 1-.958 2.308l.006-.007c-.045.055-.096.107-.144.16s-.093.108-.144.159l4.467 4.467c.051-.051.099-.104.148-.155.05-.052.1-.103.148-.155.331-.358.633-.733.905-1.122l.032-.046.098-.144.085-.13.04-.063a10.472 10.472 0 0 0 1.646-5.251l.001-.021c.003-.071.004-.143.006-.214s.004-.143.004-.214zM.01 13.8l.004.093.01.179.005.076.017.206.005.046c.007.076.015.153.024.228l.003.022c.015.132.027.217.04.301l-.007-.053c.072.505.182 1.005.327 1.497l.002.006c.022.077.047.154.071.23l.004.014.005.014c.083.257.135.403.189.548l-.036-.109.03.08.059.148c.048.128.08.203.112.278l-.019-.05.062.14.038.084.078.169.027.054c.1.209.175.354.253.497l-.028-.056.025.043 5.428-3.27c-.2-.412-.34-.891-.393-1.395l-.002-.019h-.025zm.505 2.846l-.206.058.002.005zm6.425-1.052l-5.415 3.262c.083.139.17.273.259.406l.008.014.004.005.008.014h.001a.257.257 0 0 0 .022.032l.001.002v.001c.118.174.216.31.317.444l-.019-.027.006.008c.11.147.205.267.303.384l-.013-.016.033.04c.043.052.086.103.13.153l.057.065.112.127.064.069.029.031.083.09.035.035c.049.051.098.103.149.153L7.58 16.42a3.945 3.945 0 0 1-.279-.313l-.006-.008a4.432 4.432 0 0 1-.344-.486l-.011-.019zm6.416 1.111c-.05.04-.1.079-.15.116l.011.018 3.257 5.407c.151-.099.3-.2.446-.307.315-.232.62-.484.914-.756l-4.46-4.46zm-5.457.003l-4.475 4.475a8.4 8.4 0 0 0 .185.167l.01.009c.022.02.043.04.065.058l.152.13c.052.044.122.101.193.157l.022.017.023.017.191.148.008.005c.268.2.547.389.834.564l.03.018.164.097.101.057c.062.038.15.087.24.134l.03.014c.008.004.016.01.025.013.162.085.327.164.493.24l.158-.385L8.6 17.175a4.33 4.33 0 0 1-.709-.473l.008.006zm4.951.353c-.061.037-.124.07-.187.104a4.26 4.26 0 0 1-2.043.514c-.438 0-.86-.065-1.258-.186l.031.008c-.069-.02-.135-.047-.203-.071s-.136-.044-.202-.072l-2.405 5.841.017.007.018.007h.001l.005.003c.052.021.106.04.159.06.067.027.133.053.2.077l.102.04c.702.247 1.43.42 2.168.518l.087.012.262.029c.055.007.142.014.229.021l.023.001c.023.001.048.001.071.003l.184.011.112.005c.095.005.205.007.317.007H10.639c.63 0 1.247-.055 1.846-.159l-.064.009.185-.034.105-.02.109-.023.18-.04.032-.008a10.638 10.638 0 0 0 2.607-.978l-.057.028c.052-.028.104-.06.156-.089.063-.034.125-.07.187-.105.043-.024.087-.047.13-.073h.001l.002-.002.004-.002.007-.004.042-.025-.11-.183-.11-.184zm3.262 5.414l-.042.025zm-.05.029h-.001z"/></svg>