<svg xmlns="http://www.w3.org/2000/svg" width="24" height="24"><path fill="#7ebc6f" d="M2.672 23.969c-.352-.089-.534-.234-1.471-1.168C.085 21.688.014 21.579.018 20.999c0-.645-.196-.414 3.368-3.986 3.6-3.608 3.415-3.451 4.064-3.449.302 0 .378.016.62.14l.277.14 1.744-1.744-.218-.343c-.425-.662-.825-1.629-1.006-2.429a7.45 7.45 0 0 1-.185-1.674c0-1.809.627-3.471 1.676-4.781l-.012.015c2.49-3.12 6.959-3.812 10.26-1.588 1.812 1.218 2.99 3.099 3.328 5.314.07.467.07 1.579 0 2.074a7.556 7.556 0 0 1-2.204 4.401l-.001.001a6.75 6.75 0 0 1-1.903 1.384l-.04.017c-.959.483-1.775.71-2.881.803-1.573.131-3.32-.305-4.656-1.163l-.343-.218-1.744 1.744.14.28c.125.241.14.316.14.617.003.651.156.467-3.426 4.049-2.761 2.756-3.186 3.164-3.398 3.261-.271.125-.69.171-.946.105zM17.485 13.95a6.45 6.45 0 0 0 4.586-3.472l.017-.038c1.391-2.899.455-6.306-2.227-8.108-.638-.43-1.529-.794-2.367-.962-.581-.117-1.809-.104-2.414.025a6.571 6.571 0 0 0-2.472 1.078l.02-.014c-.444.315-1.177 1.048-1.487 1.487A6.332 6.332 0 0 0 9.95 7.659c0 1.609.595 3.079 1.577 4.201l-.006-.007a6.408 6.408 0 0 0 3.865 2.132l.035.004c.509.078 1.542.058 2.063-.039zm-3.738 7.376a57.89 57.89 0 0 1-2.769-.809l.573.158c-.025-.028 1.207-4.396 1.257-4.449.023-.026 4.242 1.152 4.414 1.236.062.026-.003.288-.525 2.102.492-2.073.275-1.326.059-.578l-.694 2.814c-.025.087-.069.156-.097.156-.028-.003-1.028-.287-2.218-.63zm2.912.524c0-.053 1.227-4.333 1.246-4.347.047-.034 4.324-1.23 4.341-1.211.019.019-1.199 4.337-1.23 4.36-.02.019-4.126 1.191-4.259 1.218-.054.011-.098 0-.098-.02zm-7.105-1.911c.846-.852 1.599-1.627 1.674-1.728.171-.218.405-.732.472-1.015.026-.118.053-.352.058-.522l.011-.307.182-.051c.103-.028.193-.044.202-.034.023.025-1.207 4.321-1.246 4.36-.02.016-.677.213-1.464.436l-1.425.405zm8.289-3.06a1.288 1.288 0 0 1-.057-.178l-.002-.009-.044-.156.156-.028c1.339-.227 2.776-.856 3.908-1.713.16-.125.252-.171.265-.134.054.165.272.95.265.959-.034.034-4.48 1.282-4.491 1.259zm-15.083-1.3c-.05-.039-1.179-3.866-1.264-4.29-.016-.084.146-.044 2.174.536 2.121.604 2.192.629 2.222.74.028.098.011.129-.125.223-.084.059-.769.724-1.523 1.479a66.26 66.26 0 0 1-1.365 1.344l-.025.023c-.016 0-.056-.025-.094-.055zm.821-4.378c-1.188-.343-2.164-.623-2.167-.626-.016-.012 1.261-4.433 1.285-4.46.022-.022 4.422 1.211 4.469 1.252.009.009-.269 1.017-.618 2.239-.576 2.02-.643 2.224-.723 2.22-.05-.003-1.059-.285-2.246-.625zm2.959.538c.012-.031.212-.723.444-1.534l.42-1.476.056.321c.093.556.265 1.188.464 1.741.106.296.187.539.181.545-.008.006-.332.101-.719.212-.389.109-.741.21-.786.224-.058.016-.075.006-.06-.033zM4.905 6.112c-1.187-.339-2.167-.635-2.18-.654-.04-.062-1.246-4.321-1.23-4.338.026-.025 4.31 1.204 4.351 1.246.047.051 1.28 4.379 1.246 4.376zm2.148-1.713l-.519-1.806-.078-.28 1.693-.483c.934-.265 1.724-.495 1.76-.508.034-.016-.083.14-.26.336a8.694 8.694 0 0 0-1.944 3.511l-.015.061a4.052 4.052 0 0 0-.128.535l-.004.026c0 .293-.115-.025-.505-1.392z"/></svg>