<svg xmlns="http://www.w3.org/2000/svg" width="24" height="24"><path fill="#ea7e20" d="M12 .365C5.385.365 0 5.697 0 12.26c0 4.36 2.358 8.154 5.896 10.205l.77-5.076a7.017 7.017 0 0 1-1.846-4.717v-.002c0-3.897 3.18-7.076 7.13-7.076 3.948 0 7.126 3.179 7.126 7.076 0 1.847-.717 3.488-1.846 4.77l.77 5.078c3.59-2.051 6-5.899 6-10.258C24 5.697 18.615.365 12 .365zm-.05 8.156h-.01a3.786 3.786 0 0 0-3.786 3.786v.037a3.74 3.74 0 0 0 2.435 3.505l.026.008-1.485 7.794h5.64l-1.435-7.795c1.385-.564 2.41-1.898 2.41-3.539v-.009a3.786 3.786 0 0 0-3.786-3.786h-.009z"/></svg>