<svg xmlns="http://www.w3.org/2000/svg" width="24" height="24"><path d="M21.51 8.107l-.039-.001h-.001a.975.975 0 0 0-.669.265.993.993 0 0 0 .638 1.714h.002l.034.001c.534 0 .97-.423.99-.953v-.002l.001-.033a.992.992 0 0 0-.954-.991h-.002zm.162 1.082c-.242 0-.438-.131-.438-.292 0-.163.196-.293.438-.293.243 0 .44.13.44.293 0 .16-.197.292-.44.292zm2.306 1.18c.007-.006.024-.02.022-.034-.055-.343-.565-2.004-.952-2.404-.106-.109-.191-.216-.364-.317-1.398-.814-4.713-1.306-4.869-1.328 0 0-.015-.004-.026.007-.009.008-.01.024-.01.024l-.015.764c-.339-.114-2.8-.91-5.108-.99C10.7 6.024 7.85 5.77 4.072 8.093l-.111.07C2.184 9.27.957 10.637.316 12.224c-.201.5-.472 1.628-.204 2.688.116.464.331.93.621 1.347.656.943 1.757 1.568 2.943 1.674 1.674.15 2.941-.602 3.392-2.01.31-.971 0-2.397-1.188-3.124-.967-.591-2.006-.457-2.609-.058-.523.347-.819.886-.814 1.477.012 1.05.917 1.608 1.567 1.61.189 0 .378-.033.592-.103a.915.915 0 0 0 .231-.102l-.004.002.025-.015.015-.01-.005.003a.536.536 0 0 0 .216-.591l.001.004a.533.533 0 0 0-.615-.376l.003-.001-.036.008-.05.015-.072.025c-.15.037-.262.04-.286.041-.076-.005-.45-.117-.45-.527v-.005c0-.151.06-.257.093-.314.117-.183.435-.362.866-.325.565.05.973.34 1.243.886.25.508.185 1.134-.17 1.592-.35.454-.976.647-1.809.557a2.486 2.486 0 0 1-1.94-1.313l-.007-.014c-.389-.735-.41-1.607-.055-2.276.85-1.604 2.455-1.587 3.334-1.435 1.302.226 2.784 1.427 3.309 2.814.085.22.128.396.166.556l.057.24 1.47.718c.032.015.043.02.055.011.016-.011.007-.042.007-.042-.01-.033-.03-.063-.065-.475-.027-.365-.084-1.365.42-1.86.195-.195.492-.367.728-.423.964-.235 2.094-.073 3.163 1.164.553.64.823.93.959 1.061 0 0 .03.03.047.043.018.015.03.027.055.041.045.025 1.838.85 1.838.85s.022.011.037-.008c.016-.02.001-.038.001-.038-.012-.014-1.137-1.468-.937-2.665.158-.954.917-.867 1.967-.749.343.04.733.085 1.137.094 1.127.007 2.342-.201 3.09-.529.485-.21.794-.35.988-.526.07-.058.106-.152.143-.253l.027-.066a3.15 3.15 0 0 0 .097-.348c.009-.042.018-.083-.016-.11-.032-.024-.104.02-.104.02-.329.198-1.15.573-1.919.589-.954.019-2.887-.966-3.087-1.07-.134-.32-.268-.639-.404-.957 1.383.911 2.53 1.415 3.408 1.492.977.088 1.74-.446 2.07-.668.043-.028.086-.06.126-.092zm-3.923-1.311c.014-.379.173-.73.45-.988.251-.236.59-.381.963-.381h.002l.054.001h-.003a1.424 1.424 0 0 1 1.371 1.422l-.001.048v-.002a1.415 1.415 0 0 1-1.469 1.368 1.425 1.425 0 0 1-1.369-1.423l.001-.047v.002z"/></svg>