<svg xmlns="http://www.w3.org/2000/svg" width="24" height="24"><path fill="#f68212" d="M18.972 13.487a7.532 7.532 0 0 0-.558-1.074l.018.031V6.416v-.015a6.357 6.357 0 0 0-1.88-4.521A6.357 6.357 0 0 0 12.031 0h-.034a6.353 6.353 0 0 0-4.518 1.878 6.357 6.357 0 0 0-1.88 4.521v.018-.001.877h2.57v-.877c0-1.027.4-1.993 1.127-2.72a3.807 3.807 0 0 1 2.709-1.126h.011-.001a3.852 3.852 0 0 1 3.847 3.846v3.508a7.437 7.437 0 0 0-3.846-1.058h-.017H12h-.011a7.516 7.516 0 0 0-5.339 2.216 7.515 7.515 0 0 0-2.217 5.34v.01-.001.011c0 2.086.847 3.974 2.216 5.339a7.518 7.518 0 0 0 5.343 2.22h.019a7.516 7.516 0 0 0 5.339-2.216 7.515 7.515 0 0 0 2.217-5.34v-.011.001c0-1.021-.2-2.012-.595-2.948zM12 21.43c-2.755 0-4.997-2.242-4.997-4.997S9.245 11.436 12 11.436s4.997 2.241 4.997 4.997S14.755 21.43 12 21.43zm2.145-4.974a2.12 2.12 0 1 1-4.24 0 2.12 2.12 0 1 1 4.24 0z"/></svg>