<svg xmlns="http://www.w3.org/2000/svg" width="24" height="24"><path fill="#7fadf2" d="M21.86 5.17c1.343 1.905 2.146 4.274 2.146 6.83s-.803 4.925-2.172 6.868l.025-.038-3.1-3.1c.608-1.075.967-2.361.967-3.73s-.358-2.655-.987-3.768l.02.038zm-3.03-3.03l-3.1 3.1a7.616 7.616 0 0 0-3.717-.955 7.71 7.71 0 1 0 3.756 14.445l-.039.02 3.1 3.11a11.902 11.902 0 0 1-6.832 2.135c-6.627 0-12-5.373-12-12s5.373-12 12-12c2.556 0 4.925.799 6.871 2.161l-.039-.026zm3.03 3.03c1.343 1.905 2.146 4.274 2.146 6.83s-.803 4.925-2.172 6.868l.025-.038-3.1-3.1c.608-1.075.967-2.361.967-3.73s-.358-2.655-.987-3.768l.02.038z"/></svg>