<svg xmlns="http://www.w3.org/2000/svg" width="24" height="24"><path d="M12.002 0h.077a5.988 5.988 0 0 1 0 11.976l-.081-.001h.004A5.987 5.987 0 1 1 11.998 0h.004zm9.723 13.026h-.03l-4.527-2.242a.673.673 0 0 0-.875.265l-.002.003a22.588 22.588 0 0 1-4.285 5.198l-.021.019a22.567 22.567 0 0 1-4.23-5.1l-.056-.1a.671.671 0 0 0-.88-.267l.004-.002-4.535 2.226h-.03a.67.67 0 0 0-.246.906l-.002-.003a29.065 29.065 0 0 0 4.551 5.934l-.001-.001-.002.001c.024.025.05.048.075.072.335.335.676.664 1.027.981.081.074.165.144.247.217.315.278.632.555.96.82.144.117.295.227.441.341.277.216.552.434.837.639.44.318.888.625 1.346.917a.96.96 0 0 0 1.011.015l-.004.002a28.6 28.6 0 0 0 1.428-.98c.068-.05.132-.103.2-.153.358-.266.713-.537 1.06-.82.234-.19.46-.39.688-.588.17-.147.34-.291.506-.442.295-.268.58-.545.864-.825.061-.06.127-.118.188-.179l-.004-.002a28.947 28.947 0 0 0 4.491-5.813l.074-.136a.671.671 0 0 0-.266-.9l-.003-.002z"/></svg>