<svg xmlns="http://www.w3.org/2000/svg" width="24" height="24"><path d="M12.156 3.117s-.623 1.558-1.247 2.494-1.558 3.117-.623 4.052c0 0 .935-.935 1.87-2.494.312-.312 0-.935 0-.935s-.623-.623.312-.935c.623 0 .623 1.247.312 1.558-.623.623-.623.935-.623.935s-1.247 1.87-1.87 2.182l.312.312s1.87-2.182 2.805-2.494c0 0 .623-.935 1.247-.312.312.623-.935.623-.935.623-.312 0-1.247.935-2.805 2.494 0 0 .623.623 3.117-.935 1.247-1.247 1.558-2.182 1.558-2.182s.312-.935.623-1.247c.312-.312.935-.935.935-1.558V3.74s.312-2.182-1.247-2.494h-.623s-.312.623-.623 0c0-.312-1.247-1.247-1.87-.935s0 .623-.312 1.247c0 .623-.312 1.558-.312 1.558zm-5.299-.623s1.87.312 1.558.935c0 1.247.623 2.182.623 2.182v.623s.312.623.623-.312c.312-.623.935-1.87 1.247-2.182s.935-1.247 0-2.805C9.661-.623 8.103 0 7.479.623 6.544.935 5.921 1.87 6.232 2.181l.623.312zm-.312 6.233c0 .623.623.312.623 0s.623-.935 1.247-.935c.623.312.623-.312.623-.312s.312-.935-.312-1.247c-1.87-1.87-2.805-1.87-3.74-1.87-.623 0-2.494.623-2.494.623-.312 0-.312.312-.312.312s-.312.312 1.247.623c2.182.935 2.805 2.182 3.117 2.805zm.936.935s-.623.312-.623 1.558-.623 2.494-.623 2.494-.623 1.87.312 2.494c.623.312 1.247-.623 1.247-.623s1.558-1.247 2.805-1.87 1.87-1.247.312-2.805-2.805-1.87-3.429-1.247zm3.428 4.987c-.935.623-1.558.935-2.494 1.558s-1.87.935-2.494.623c-.935-.312-1.247-2.494.312-6.545 0 0 .312-.312-.312 0s-1.558 3.429-1.247 6.234c.312 1.558 0 1.87 0 1.87s-.312 1.558 0 2.182.935 2.805 1.558 3.429c.312.623 1.247 0 1.247 0l-1.87-3.74s-.312-.623.312-.935.935-.623.935-.623 1.558-2.182 4.675-3.429c1.87-.623 1.247-.935 1.247-.935-.312-.312-.623-.623-1.87.312zm9.974-6.233s0-2.182-.623-2.494c-1.247-.935-3.117.623-4.052 1.87s-1.87 1.558-1.87 1.558c-.312.312.935.623 2.805 0s2.805.312 2.805.312.312.312.623.312c.623.623.312-1.558.312-1.558zm-4.052 1.87s-1.87.312-2.805.312-1.558.312-1.558.623c0 0 0 1.558 1.247 1.87s2.182.312 3.117 1.247.312.935.312.935 0 1.247.623 1.247 1.87-1.247 1.558-4.987c0-1.87-2.494-1.247-2.494-1.247z"/></svg>