<!-- Generated by IcoMoon.io -->
<svg version="1.1" xmlns="http://www.w3.org/2000/svg" width="24" height="24" viewBox="0 0 24 24">
<title>orchid</title>
<path d="M12.156 3.117s-0.623 1.558-1.247 2.494-1.558 3.117-0.623 4.052c0 0 0.935-0.935 1.87-2.494 0.312-0.312 0-0.935 0-0.935s-0.623-0.623 0.312-0.935c0.623 0 0.623 1.247 0.312 1.558-0.623 0.623-0.623 0.935-0.623 0.935s-1.247 1.87-1.87 2.182l0.312 0.312s1.87-2.182 2.805-2.494c0 0 0.623-0.935 1.247-0.312 0.312 0.623-0.935 0.623-0.935 0.623-0.312 0-1.247 0.935-2.805 2.494 0 0 0.623 0.623 3.117-0.935 1.247-1.247 1.558-2.182 1.558-2.182s0.312-0.935 0.623-1.247c0.312-0.312 0.935-0.935 0.935-1.558v-0.935s0.312-2.182-1.247-2.494h-0.623s-0.312 0.623-0.623 0c0-0.312-1.247-1.247-1.87-0.935s0 0.623-0.312 1.247c0 0.623-0.312 1.558-0.312 1.558zM6.857 2.494s1.87 0.312 1.558 0.935c0 1.247 0.623 2.182 0.623 2.182v0.623s0.312 0.623 0.623-0.312c0.312-0.623 0.935-1.87 1.247-2.182s0.935-1.247 0-2.805c-1.247-1.558-2.805-0.935-3.429-0.312-0.935 0.312-1.558 1.247-1.247 1.558l0.623 0.312zM6.545 8.727c0 0.623 0.623 0.312 0.623 0s0.623-0.935 1.247-0.935c0.623 0.312 0.623-0.312 0.623-0.312s0.312-0.935-0.312-1.247c-1.87-1.87-2.805-1.87-3.74-1.87-0.623 0-2.494 0.623-2.494 0.623-0.312 0-0.312 0.312-0.312 0.312s-0.312 0.312 1.247 0.623c2.182 0.935 2.805 2.182 3.117 2.805zM7.481 9.662s-0.623 0.312-0.623 1.558-0.623 2.494-0.623 2.494-0.623 1.87 0.312 2.494c0.623 0.312 1.247-0.623 1.247-0.623s1.558-1.247 2.805-1.87 1.87-1.247 0.312-2.805c-1.558-1.558-2.805-1.87-3.429-1.247zM10.909 14.649c-0.935 0.623-1.558 0.935-2.494 1.558s-1.87 0.935-2.494 0.623c-0.935-0.312-1.247-2.494 0.312-6.545 0 0 0.312-0.312-0.312 0s-1.558 3.429-1.247 6.234c0.312 1.558 0 1.87 0 1.87s-0.312 1.558 0 2.182 0.935 2.805 1.558 3.429c0.312 0.623 1.247 0 1.247 0l-1.87-3.74s-0.312-0.623 0.312-0.935 0.935-0.623 0.935-0.623 1.558-2.182 4.675-3.429c1.87-0.623 1.247-0.935 1.247-0.935-0.312-0.312-0.623-0.623-1.87 0.312zM20.883 8.416s0-2.182-0.623-2.494c-1.247-0.935-3.117 0.623-4.052 1.87s-1.87 1.558-1.87 1.558c-0.312 0.312 0.935 0.623 2.805 0s2.805 0.312 2.805 0.312 0.312 0.312 0.623 0.312c0.623 0.623 0.312-1.558 0.312-1.558zM16.831 10.286s-1.87 0.312-2.805 0.312-1.558 0.312-1.558 0.623c0 0 0 1.558 1.247 1.87s2.182 0.312 3.117 1.247 0.312 0.935 0.312 0.935 0 1.247 0.623 1.247 1.87-1.247 1.558-4.987c0-1.87-2.494-1.247-2.494-1.247z"></path>
</svg>
