<svg xmlns="http://www.w3.org/2000/svg" width="24" height="24"><path d="M22.768 12.002c0 5.935-4.829 10.768-10.768 10.768-5.935-.005-10.763-4.833-10.763-10.768 0-5.94 4.828-10.767 10.768-10.767 5.934 0 10.763 4.828 10.763 10.767zm.292-4.673a11.983 11.983 0 0 0-2.57-3.813 11.983 11.983 0 0 0-3.735-2.54l-.078-.03A11.661 11.661 0 0 0 12.036 0h-.033.002-.03A11.886 11.886 0 0 0 3.52 3.516l-.001.001A11.978 11.978 0 0 0 .978 7.253l-.03.078c-.63 1.481-.946 3.05-.946 4.672s.316 3.192.942 4.673a11.983 11.983 0 0 0 2.57 3.813 11.926 11.926 0 0 0 8.467 3.512h.02H12c1.619 0 3.191-.32 4.673-.942a11.983 11.983 0 0 0 3.813-2.57 11.926 11.926 0 0 0 3.512-8.467v-.02.001c0-1.623-.311-3.191-.938-4.673zM8.566 14.631V9.263l2.574 2.684zM7.327 6.296v11.422l8.116-8.455v6.767c0 .343.279.618.617.618a.621.621 0 0 0 .622-.622v-9.74l-4.677 4.77z"/></svg>