<svg xmlns="http://www.w3.org/2000/svg" width="24" height="24"><path fill="#47a141" d="M7.362 6.029c-3.317 2.003-5.539 5.529-5.693 9.584l-.001.022A8.369 8.369 0 1 0 13.08 7.832l-.057-.02a7.587 7.587 0 0 0-2.893-.562h-.081.004a12.433 12.433 0 0 0-4.178 4.797l-.032.073a5.496 5.496 0 1 1 4.212 9.027h-.02.001-.01a5.484 5.484 0 0 1-4.176-1.923l-.006-.007a6.57 6.57 0 0 1-1.687-4.408c0-.408.037-.808.108-1.196l-.006.04C5.332 7.233 13.023 3.536 18.717 2.1c-2.943 1.426-5.43 2.881-7.793 4.504l.201-.13c6.883 2.657 7.989-3.136 11.207-5.728C19.13-.508 7.379-.97 7.362 6.028z"/></svg>