<!-- Generated by IcoMoon.io -->
<svg version="1.1" xmlns="http://www.w3.org/2000/svg" width="24" height="24" viewBox="0 0 24 24">
<title>paint-bucket</title>
<path d="M17.15 8.248l-5.772-5.824-0.834-0.859-1.963 1.937c-3.374-0.475-5.785 0.757-6.645 2.283-1.039 1.847 0.026 3.861 0.051 3.925 0.885 1.77 2.168 2.848 3.797 3.168 0.359 0.077 0.718 0.103 1.077 0.103 1.706 0 3.399-0.718 4.682-1.449 0.346 0.244 0.77 0.385 1.219 0.385 1.193 0 2.168-0.975 2.168-2.168s-0.975-2.168-2.168-2.168-2.155 0.962-2.155 2.168c0 0.115 0.013 0.231 0.038 0.346-1.296 0.731-3.014 1.437-4.528 1.129-1.116-0.231-1.963-0.975-2.63-2.296-0.013-0.013-0.667-1.283-0.090-2.309 0.487-0.872 1.757-1.424 3.694-1.642l-0.295 0.308-2.784 2.796c0.026 0.064 0.051 0.115 0.051 0.115 0.269 0.526 0.577 0.962 0.911 1.321l5.041-5.054c0.244-0.244 0.552-0.385 0.898-0.385s0.654 0.128 0.898 0.372l6.119 6.144c0.5 0.5 0.5 1.296 0 1.796l-7.953 7.979c-0.475 0.475-1.308 0.475-1.796 0l-6.119-6.144c-0.244-0.244-0.372-0.552-0.372-0.898 0-0.334 0.128-0.654 0.372-0.898l0.654-0.667c-0.372-0.385-0.706-0.847-1.001-1.373l-0.847 0.847c-0.564 0.564-0.872 1.308-0.872 2.091s0.308 1.539 0.872 2.091l6.119 6.144c0.552 0.564 1.296 0.872 2.091 0.872 0.782 0 1.526-0.308 2.091-0.872l7.953-7.979 1.668-1.655-0.462-0.462c0.872-0.475 1.27 3.515 1.27 3.515s1.219 9.544 2.309 0c1.026-9.133-6.144-6.94-6.76-6.734z"></path>
</svg>
