<svg xmlns="http://www.w3.org/2000/svg" width="24" height="24"><path d="M17.15 8.248l-5.772-5.824-.834-.859-1.963 1.937c-3.374-.475-5.785.757-6.645 2.283-1.039 1.847.026 3.861.051 3.925.885 1.77 2.168 2.848 3.797 3.168.359.077.718.103 1.077.103 1.706 0 3.399-.718 4.682-1.449.346.244.77.385 1.219.385 1.193 0 2.168-.975 2.168-2.168s-.975-2.168-2.168-2.168-2.155.962-2.155 2.168c0 .115.013.231.038.346-1.296.731-3.014 1.437-4.528 1.129-1.116-.231-1.963-.975-2.63-2.296-.013-.013-.667-1.283-.09-2.309.487-.872 1.757-1.424 3.694-1.642l-.295.308-2.784 2.796c.026.064.051.115.051.115.269.526.577.962.911 1.321l5.041-5.054a1.253 1.253 0 0 1 1.796-.013l6.119 6.144c.5.5.5 1.296 0 1.796l-7.953 7.979c-.475.475-1.308.475-1.796 0l-6.119-6.144a1.24 1.24 0 0 1-.372-.898c0-.334.128-.654.372-.898l.654-.667a6.645 6.645 0 0 1-1.001-1.373l-.847.847a2.942 2.942 0 0 0 0 4.182l6.119 6.144a2.901 2.901 0 0 0 2.091.872c.782 0 1.526-.308 2.091-.872l7.953-7.979 1.668-1.655-.462-.462c.872-.475 1.27 3.515 1.27 3.515s1.219 9.544 2.309 0c1.026-9.133-6.144-6.94-6.76-6.734z"/></svg>