<svg xmlns="http://www.w3.org/2000/svg" width="24" height="24"><path d="M5.922 9.974c2.494.935 5.61.935 5.61.935s3.429 0 5.61-.935c2.494-.623 2.182-1.87 2.182-1.87s0-3.74-2.494-5.922C14.336 0 12.466 0 11.531 0c0 0-4.364 0-6.857 4.052-.935 2.182-.935 3.74-.935 3.74S3.427 9.35 5.921 9.974zm.623-1.247s4.987-1.87 9.974 0c0 0-4.987 1.558-9.974 0zm4.987-7.169c4.987.312 5.922 4.364 5.922 4.364s-1.87-.935-5.922-.935-5.922.935-5.922.935c1.558-4.364 5.922-4.364 5.922-4.364zm5.923 10.286v3.117s0 .935-1.247.935c-.935 0-1.247-.935-1.247-.935v-1.87s0-.623-.935-.623c-.623 0-.623.623-.623.623v6.857s0 .935-.935.935-.623-.935-.623-.935v-4.987s0-1.247-1.558-1.247c-1.247 0-1.247 1.558-1.247 1.558v.623s0 1.558-1.558 1.558-1.87-1.247-1.87-1.558v-4.052s0-.623-.935-1.247c-.935-.312-.935-.623-.935-.623v10.286s-.623 3.117 7.792 3.74c8.104-.312 7.792-3.74 7.792-3.74V9.973s-.312.312-1.247.623c-.623.623-.623 1.247-.623 1.247z"/></svg>