<!-- Generated by IcoMoon.io -->
<svg version="1.1" xmlns="http://www.w3.org/2000/svg" width="24" height="24" viewBox="0 0 24 24">
<title>paintbox</title>
<path d="M5.922 9.974c2.494 0.935 5.61 0.935 5.61 0.935s3.429 0 5.61-0.935c2.494-0.623 2.182-1.87 2.182-1.87s0-3.74-2.494-5.922c-2.494-2.182-4.364-2.182-5.299-2.182 0 0-4.364 0-6.857 4.052-0.935 2.182-0.935 3.74-0.935 3.74s-0.312 1.558 2.182 2.182zM6.545 8.727s4.987-1.87 9.974 0c0 0-4.987 1.558-9.974 0zM11.532 1.558c4.987 0.312 5.922 4.364 5.922 4.364s-1.87-0.935-5.922-0.935-5.922 0.935-5.922 0.935c1.558-4.364 5.922-4.364 5.922-4.364zM17.455 11.844v3.117s0 0.935-1.247 0.935c-0.935 0-1.247-0.935-1.247-0.935v-1.87s0-0.623-0.935-0.623c-0.623 0-0.623 0.623-0.623 0.623v6.857s0 0.935-0.935 0.935-0.623-0.935-0.623-0.935v-4.987s0-1.247-1.558-1.247c-1.247 0-1.247 1.558-1.247 1.558v0.623s0 1.558-1.558 1.558-1.87-1.247-1.87-1.558v-4.052s0-0.623-0.935-1.247c-0.935-0.312-0.935-0.623-0.935-0.623v10.286s-0.623 3.117 7.792 3.74c8.104-0.312 7.792-3.74 7.792-3.74v-10.286s-0.312 0.312-1.247 0.623c-0.623 0.623-0.623 1.247-0.623 1.247z"></path>
</svg>
