<svg xmlns="http://www.w3.org/2000/svg" width="24" height="24"><path d="M8.07 24c-.826 0-.812-.696-.812-.696V20.72c-3.671-1.761-6.203-5.497-6.203-9.822C1.055 4.879 5.961 0 12.012 0c5.121 0 9.421 3.495 10.623 8.218.216.676.334 1.558.334 2.681 0 12.938-14.073 13.102-14.899 13.102zM9.925 8.638H7.49a.232.232 0 0 0 0 .464h2.435a.232.232 0 0 0 0-.464zm5.449-1.508a1.74 1.74 0 1 0 .001 3.48 1.74 1.74 0 0 0-.001-3.48zm1.565 6.609c-.639-.608-1.217.116-1.217.116s-1.644 1.647-3.71 1.449c-2.164-.072-3.304-1.449-3.304-1.449s-.585-.557-1.102 0-.058 1.043-.058 1.043 1.641 1.971 4.464 1.971c3.052.142 4.928-2.087 4.928-2.087s.467-.503 0-1.044z"/></svg>