<!-- Generated by IcoMoon.io -->
<svg version="1.1" xmlns="http://www.w3.org/2000/svg" width="24" height="24" viewBox="0 0 24 24">
<title>pakpak</title>
<path d="M8.070 24c-0.826 0-0.812-0.696-0.812-0.696v-2.584c-3.671-1.761-6.203-5.497-6.203-9.822 0-6.019 4.906-10.898 10.957-10.898 5.121 0 9.421 3.495 10.623 8.218 0.216 0.676 0.334 1.558 0.334 2.681 0 12.938-14.073 13.102-14.899 13.102zM9.925 8.638h-2.435c-0.128 0-0.232 0.104-0.232 0.232s0.104 0.232 0.232 0.232h2.435c0.128 0 0.232-0.104 0.232-0.232s-0.104-0.232-0.232-0.232zM15.374 7.13c-0.96 0-1.739 0.779-1.739 1.739s0.779 1.739 1.739 1.739c0.96 0 1.739-0.779 1.739-1.739s-0.779-1.739-1.739-1.739zM16.939 13.739c-0.639-0.608-1.217 0.116-1.217 0.116s-1.644 1.647-3.71 1.449c-2.164-0.072-3.304-1.449-3.304-1.449s-0.585-0.557-1.102 0-0.058 1.043-0.058 1.043 1.641 1.971 4.464 1.971c3.052 0.142 4.928-2.087 4.928-2.087s0.467-0.503 0-1.044z"></path>
</svg>
