<svg xmlns="http://www.w3.org/2000/svg" width="24" height="24"><path fill="#83da77" d="M1.576 14.448l7.972-8.112c.618-.616 1.471-.996 2.412-.996s1.794.381 2.413.996l8.042 8.042.84-.84c.909-.839.909-2.237.07-3.146L13.603.742c-.91-.91-2.308-.91-3.217 0l-9.65 9.65c-.91.909-.91 2.307 0 3.216zm12.028-7.273c-.91-.91-2.308-.91-3.217 0l-9.65 9.65c-.91.91-.91 2.308 0 3.217l3.216 3.217c.91.909 2.308.909 3.217 0l4.825-4.826 4.826 4.826c.909.909 2.307.909 3.216 0l3.217-3.217c.91-.839.91-2.308.07-3.217z"/></svg>