<svg xmlns="http://www.w3.org/2000/svg" width="24" height="24"><path d="M5.578 17.063q1.031 1.313 2.906 2.227t3.516.914 3.516-.914 2.906-2.227q-6.516 1.875-12.844 0zM12 3.797q-3.984 0-6.422 3.141 6.375-1.875 12.844 0Q15.891 3.797 12 3.797zm10.5 4.734q.516.281.516.797v5.344q0 .563-.516.844-.469.234-1.406.609-1.031 2.297-2.906 3.773t-4.031 1.875-4.313 0-4.031-1.875-2.906-3.773q-.469-.188-1.406-.656-.516-.234-.516-.797V9.328q0-.563.516-.797.938-.469 1.406-.656Q4.079 5.25 6.54 3.633t5.461-1.617 5.461 1.617 3.633 4.242q.469.188 1.406.656z"/></svg>