<svg xmlns="http://www.w3.org/2000/svg" width="24" height="24"><path fill="#efd01b" d="M7.258 0l2.205 5.171H6.656l.929 2.276h5.689zm-.169 7.973c-.315 0-.487 0-.629.456C6.289 8.974 6.27 10 6.27 12s.02 3.027.19 3.571c.142.456.314.456.629.456h3.585l-1.775-4.203h1.589l-.891-2.1h.427l.892 2.101h1.894l-1.637-3.853zm3.398 3.851l.001.002.003-.002zm1.089-3.851l.743 1.752h3.175c.069 0 .23-.085.23-.877s-.16-.876-.23-.876zm.892 2.1l.743 1.752h2.632c.07 0 .23-.085.23-.877s-.16-.876-.23-.876zM9.47 12.175l1.858 4.377H8.021l6.115 7.449-2.205-5.172h2.806l-.939-2.276h-1.302l-1.86-4.377zm1.594 0l.743 1.752h4.038c.07 0 .23-.085.23-.876s-.161-.877-.231-.877zm.89 2.101l.745 1.751h2.797c.069 0 .23-.085.23-.876s-.163-.876-.231-.876zm5.046.509a.706.706 0 0 0-.291.062l.01-.004a.75.75 0 0 0-.384.378l-.002.005-.002.005a.667.667 0 0 0-.058.275v.011c0 .101.021.197.06.284l-.002-.004a.75.75 0 0 0 .378.384l.005.002.005.002a.702.702 0 0 0 .575-.004l-.004.002-.005.002a.75.75 0 0 0 .384-.378l.002-.005.002-.005a.702.702 0 0 0-.004-.575l.002.004.002.005a.75.75 0 0 0-.378-.384l-.005-.002-.005-.002a.69.69 0 0 0-.28-.058h-.003zm.002.129c.084 0 .164.017.237.049l-.004-.002a.608.608 0 0 1 .316.311l.002.004.002.004a.588.588 0 0 1-.004.474l.002-.004.002-.004a.608.608 0 0 1-.311.316l-.004.002-.004.002a.588.588 0 0 1-.474-.004l.004.001.004.002a.608.608 0 0 1-.316-.311l-.002-.004-.002-.004a.558.558 0 0 1-.047-.227v-.007h.001v-.005c0-.082.017-.16.048-.231l-.001.004a.608.608 0 0 1 .311-.316l.004-.002.004-.001a.573.573 0 0 1 .23-.047h.003zm.073.178h-.006l-.027.001h-.32l-.001.001v.832h.153v-.341h.112l.207.341h.16l-.215-.353a.232.232 0 0 0 .142-.065.222.222 0 0 0 .057-.148l-.001-.018v-.014a.241.241 0 0 0-.072-.171.324.324 0 0 0-.189-.065zm-.201.136h.183a.199.199 0 0 1 .066.014h-.002c.019.008.034.02.046.035a.126.126 0 0 1 0 .129v-.002a.124.124 0 0 1-.044.035h-.002a.182.182 0 0 1-.063.014h-.184z"/></svg>