<!-- Generated by IcoMoon.io -->
<svg version="1.1" xmlns="http://www.w3.org/2000/svg" width="24" height="24" viewBox="0 0 24 24">
<title>paper-tag</title>
<path d="M23.779 14.741l-14.52-14.52c-0.158-0.158-0.371-0.236-0.6-0.217l-7.23 0.645c-0.356 0.034-0.641 0.315-0.679 0.671l-0.75 7.339c-0.022 0.225 0.056 0.446 0.217 0.607l14.516 14.52c0.146 0.146 0.337 0.221 0.532 0.221 0.191 0 0.383-0.071 0.529-0.221l7.98-7.98c0.143-0.143 0.221-0.33 0.221-0.529s-0.079-0.398-0.217-0.536zM15.266 22.192l-13.736-13.736 0.649-6.367 6.266-0.559 13.74 13.74s-6.919 6.922-6.919 6.922zM5.239 5.141c-0.495 0.495-0.765 1.151-0.765 1.849s0.27 1.354 0.765 1.849 1.151 0.769 1.853 0.769c0.697 0 1.354-0.274 1.849-0.765 1.020-1.020 1.020-2.681 0-3.697-0.99-0.99-2.711-0.99-3.701-0.004zM7.879 7.781c-0.42 0.42-1.155 0.42-1.579 0-0.21-0.21-0.326-0.491-0.326-0.788s0.116-0.577 0.326-0.788 0.491-0.326 0.787-0.326c0.3 0 0.578 0.116 0.788 0.326 0.439 0.431 0.439 1.14 0.004 1.575z"></path>
</svg>
