<svg xmlns="http://www.w3.org/2000/svg" width="24" height="24"><path d="M23.779 14.741L9.259.221a.748.748 0 0 0-.6-.217l-7.23.645a.756.756 0 0 0-.679.671L0 8.659a.75.75 0 0 0 .217.607l14.516 14.52a.749.749 0 0 0 1.061 0l7.98-7.98c.143-.143.221-.33.221-.529s-.079-.398-.217-.536zm-8.513 7.451L1.53 8.456l.649-6.367 6.266-.559 13.74 13.74-6.919 6.922zM5.239 5.141c-.495.495-.765 1.151-.765 1.849s.27 1.354.765 1.849 1.151.769 1.853.769a2.613 2.613 0 0 0 1.849-4.462c-.99-.99-2.711-.99-3.701-.004zm2.64 2.64c-.42.42-1.155.42-1.579 0-.21-.21-.326-.491-.326-.788a1.11 1.11 0 0 1 1.113-1.114c.3 0 .578.116.788.326a1.11 1.11 0 0 1 .004 1.575z"/></svg>