<svg xmlns="http://www.w3.org/2000/svg" width="24" height="24"><path d="M17.962 1.64h-2.268C15.61.681 14.785 0 13.937 0H9.912c-.984 0-1.68.799-1.759 1.64H6.036A3.69 3.69 0 0 0 2.31 5.366v14.907a3.69 3.69 0 0 0 3.726 3.726h11.925a3.69 3.69 0 0 0 3.726-3.726V5.366A3.69 3.69 0 0 0 17.96 1.64zm-8.198.298a.32.32 0 0 1 .298-.298h4.025a.32.32 0 0 1 .298.298v2.534a.32.32 0 0 1-.298.298h-4.025a.32.32 0 0 1-.298-.298zm10.435 18.336c0 1.192-1.043 2.236-2.236 2.236H6.037c-1.192 0-2.236-1.043-2.236-2.236V5.367c0-1.192 1.043-2.236 2.236-2.236h2.087v1.192c0 1.043.894 1.789 1.789 1.789h4.025c1.043 0 1.789-.745 1.789-1.789V3.131h2.236c1.192 0 2.236 1.043 2.236 2.236zm-3.727-2.237H7.529c-.447 0-.745.298-.745.745s.298.745.745.745h8.944c.447 0 .745-.298.745-.745s-.299-.745-.746-.745zm0-4.472H7.529c-.447 0-.745.298-.745.745s.298.745.745.745h8.944c.447 0 .745-.298.745-.745s-.299-.745-.746-.745zm0-4.472H7.529c-.447 0-.745.298-.745.745s.298.745.745.745h8.944c.447 0 .745-.298.745-.745s-.299-.745-.746-.745z"/></svg>