<!-- Generated by IcoMoon.io -->
<svg version="1.1" xmlns="http://www.w3.org/2000/svg" width="24" height="24" viewBox="0 0 24 24">
<title>paypal1</title>
<path d="M20.925 14.7c-1.95 2.925-6.15 2.55-6.825 2.55s-0.825 0.675-0.825 0.675-0.6 3.9-0.825 5.025c-0.225 1.125-0.9 0.9-0.9 0.9h-3.15l1.5-9.375c10.95 0.9 11.7-7.5 11.7-7.5 1.35 1.65 1.2 4.8-0.675 7.725zM9.75 13.35s-1.050-0.075-1.275 1.050-1.050 6.9-1.050 6.9h-4.575s-0.75 0.15-0.6-1.050 3.075-19.050 3.075-19.050-0.075-1.2 1.2-1.2h7.65s6.45-0.45 6.45 4.8-2.85 8.925-10.875 8.55z"></path>
</svg>
