<!-- Generated by IcoMoon.io -->
<svg version="1.1" xmlns="http://www.w3.org/2000/svg" width="24" height="24" viewBox="0 0 24 24">
<title>pencil1</title>
<path d="M23.019 2.649l-1.714-1.714c-1.091-1.247-3.117-1.247-4.363 0l-2.026 2.026c0 0.069-0.036 0.141-0.069 0.225l-13.646 13.645c0 0.156-0.156 0.312-0.156 0.468l-0.935 5.923c-0.156 0.156 0 0.468 0.156 0.623 0.156 0 0.468 0.156 0.623 0.156l5.922-0.779c0.156 0 0.312 0 0.468-0.156l13.714-13.714c0-0.114 0.070-0.251 0.114-0.425l1.912-1.912c1.248-1.091 1.248-3.118 0.001-4.364zM8.136 19.87l-3.896-3.896 11.22-11.222 3.896 3.896zM6.5 21.507l-4.675 0.779 0.779-4.675 0.545-0.545 3.896 3.896zM22.084 5.922l-1.558 1.558-3.896-3.896 1.558-1.558c0.623-0.623 1.558-0.623 2.182 0l1.714 1.714c0.623 0.623 0.623 1.558 0 2.182z"></path>
</svg>
