<svg xmlns="http://www.w3.org/2000/svg" width="24" height="24"><path d="M23.019 2.649L21.305.935c-1.091-1.247-3.117-1.247-4.363 0l-2.026 2.026c0 .069-.036.141-.069.225L1.201 16.831c0 .156-.156.312-.156.468L.11 23.222c-.156.156 0 .468.156.623.156 0 .468.156.623.156l5.922-.779c.156 0 .312 0 .468-.156L20.993 9.352c0-.114.07-.251.114-.425l1.912-1.912c1.248-1.091 1.248-3.118.001-4.364zM8.136 19.87L4.24 15.974 15.46 4.752l3.896 3.896zM6.5 21.507l-4.675.779.779-4.675.545-.545 3.896 3.896zM22.084 5.922L20.526 7.48 16.63 3.584l1.558-1.558c.623-.623 1.558-.623 2.182 0l1.714 1.714c.623.623.623 1.558 0 2.182z"/></svg>