<svg xmlns="http://www.w3.org/2000/svg" width="24" height="24"><path d="M12.984 8.016q0-1.125-.539-2.039t-1.43-1.453-2.016-.539-2.016.539-1.43 1.453-.539 2.039q0 1.078.539 1.992t1.43 1.453T8.999 12t2.016-.539 1.43-1.453.539-1.992zm-1.968 0q0 .797-.586 1.383T9 9.985t-1.43-.586-.586-1.383q0-.844.586-1.43T9 6t1.43.586.586 1.43zM.984 18v2.016h16.031V18q0-.797-.563-1.43t-1.477-1.125-1.992-.797-2.133-.469-1.852-.164-1.852.164-2.133.469-1.992.797-1.477 1.125T.981 18zM3 18q.094-.281.633-.609t1.43-.656 1.898-.539T9 15.985t2.039.211 1.875.539 1.43.656T15 18H3zm17.016-3v-3h3V9.984h-3v-3H18v3h-3V12h3v3h2.016z"/></svg>