<!-- Generated by IcoMoon.io -->
<svg version="1.1" xmlns="http://www.w3.org/2000/svg" width="24" height="24" viewBox="0 0 24 24">
<title>picasa</title>
<path d="M23.325 15.9h-4.875v-14.025c3.375 2.175 5.55 5.85 5.55 10.125 0 1.35-0.225 2.7-0.675 3.9zM16.65 8.775l-8.55-8.1c1.2-0.45 2.55-0.675 3.9-0.675 1.725 0 3.3 0.375 4.8 0.975l-0.15 7.8zM10.8 5.325l-10.5 9.375c-0.225-0.825-0.3-1.8-0.3-2.7 0-4.65 2.625-8.625 6.45-10.65l4.35 3.975zM5.7 12.15v10.050c-2.175-1.35-3.9-3.375-4.875-5.775l4.875-4.275zM7.050 17.175l15.75-0.075c-1.875 4.125-6 6.9-10.8 6.9-1.8 0-3.45-0.375-5.025-1.050l0.075-5.775z"></path>
</svg>
