<svg xmlns="http://www.w3.org/2000/svg" width="24" height="24"><path fill="#1da456" d="M12 0C5.373 0 0 5.373 0 12s5.373 12 12 12c6.628 0 12-5.373 12-12S18.628 0 12 0zM7.08 4.182h2.781c.233 0 .42.21.42.47v14.696c0 .26-.187.47-.42.47h-2.78c-.233 0-.42-.21-.42-.47V4.652c0-.26.187-.47.419-.47zm4.664 0h.002c.12 0 .232.034.327.093l-.003-.002c.355.209 7.451 4.42 8.057 4.78a.606.606 0 0 1 .003 1.037l-.003.002c-.436.264-7.558 4.495-8.074 4.789a.576.576 0 0 1-.873-.495v-.018.001-1.812c0-1.712 2.962-2.201 3.398-2.465a.605.605 0 0 0 .003-1.038l-.003-.002c-.605-.36-3.398-.746-3.398-2.452V4.79c0-.334.251-.605.564-.608z"/></svg>