<!-- Generated by IcoMoon.io -->
<svg version="1.1" xmlns="http://www.w3.org/2000/svg" width="24" height="24" viewBox="0 0 24 24">
<title>pie-chart1</title>
<path d="M14.016 10.585h9.38c0.334 0 0.603-0.27 0.603-0.603 0-5.505-4.474-9.979-9.979-9.979-0.334 0-0.603 0.27-0.603 0.599v9.38c0 0.339 0.265 0.603 0.599 0.603zM14.62 1.229c4.361 0.294 7.859 3.792 8.154 8.154h-8.154zM10.911 23.998c6.015 0 10.906-4.891 10.906-10.906 0-0.334-0.27-0.603-0.603-0.603h-9.704v-9.699c0-0.334-0.27-0.603-0.603-0.603-6.015 0-10.906 4.891-10.906 10.906s4.896 10.906 10.911 10.906zM10.307 3.407v9.684c0 0.334 0.27 0.603 0.603 0.603h9.684c-0.314 5.073-4.538 9.101-9.684 9.101-5.352 0-9.704-4.352-9.704-9.704 0-5.146 4.028-9.375 9.101-9.684z"></path>
</svg>
