<svg xmlns="http://www.w3.org/2000/svg" width="24" height="24"><path d="M14.016 10.585h9.38c.334 0 .603-.27.603-.603 0-5.505-4.474-9.979-9.979-9.979a.602.602 0 0 0-.603.599v9.38c0 .339.265.603.599.603zm.604-9.356c4.361.294 7.859 3.792 8.154 8.154H14.62zm-3.709 22.769c6.015 0 10.906-4.891 10.906-10.906a.602.602 0 0 0-.603-.603H11.51V2.79a.602.602 0 0 0-.603-.603C4.892 2.187.001 7.078.001 13.093s4.896 10.906 10.911 10.906zm-.604-20.591v9.684c0 .334.27.603.603.603h9.684c-.314 5.073-4.538 9.101-9.684 9.101-5.352 0-9.704-4.352-9.704-9.704 0-5.146 4.028-9.375 9.101-9.684z"/></svg>