<!-- Generated by IcoMoon.io -->
<svg version="1.1" xmlns="http://www.w3.org/2000/svg" width="24" height="24" viewBox="0 0 24 24">
<title>pin</title>
<path d="M23.271 7.568l-6.712-6.712c-0.875-1.021-2.48-1.021-3.501 0l-0.292 0.292c-0.438 0.438-0.729 1.167-0.729 1.751s0.292 1.313 0.729 1.751l-5.836 5.835c-2.188-1.021-4.96-0.584-6.712 1.167-0.292 0.292-0.292 0.729 0 1.021l4.96 4.96-4.377 4.377c-0.292 0.292-0.292 0.729 0 1.021 0.146 0.146 0.292 0.146 0.584 0.146s0.438 0 0.584-0.146l4.304-4.304 5.033 5.033c0.146 0 0.438 0.146 0.584 0.146s0.292 0 0.584 0c1.751-1.751 2.188-4.522 1.167-6.712l5.836-5.836c0.875 1.021 2.48 1.021 3.501 0l0.292-0.292c0.438-0.438 0.729-1.167 0.729-1.751 0.002-0.581-0.29-1.31-0.728-1.748zM22.249 9.903l-0.292 0.292c-0.292 0.438-1.021 0.438-1.459 0l-0.584-0.584c-0.292-0.292-0.729-0.292-1.021 0l-6.858 6.858c-0.292 0.292-0.292 0.584-0.146 0.875 1.021 1.459 0.875 3.355-0.146 4.814l-9.921-9.921c1.459-1.021 3.355-1.167 4.814-0.146 0.292 0.146 0.584 0.146 0.875-0.146l6.858-6.858c0.292-0.292 0.292-0.729 0-1.021l-0.584-0.584c-0.146-0.146-0.292-0.438-0.292-0.729s0.146-0.584 0.292-0.729l0.292-0.292c0.292-0.438 1.021-0.438 1.459 0l6.712 6.712c0.146 0.146 0.292 0.438 0.292 0.729s-0.146 0.584-0.292 0.729z"></path>
</svg>
