<svg xmlns="http://www.w3.org/2000/svg" width="24" height="24"><path d="M23.271 7.568L16.559.856c-.875-1.021-2.48-1.021-3.501 0l-.292.292c-.438.438-.729 1.167-.729 1.751s.292 1.313.729 1.751L6.93 10.485C4.742 9.464 1.97 9.901.218 11.652a.705.705 0 0 0 0 1.021l4.96 4.96L.801 22.01a.705.705 0 0 0 0 1.021c.146.146.292.146.584.146s.438 0 .584-.146l4.304-4.304 5.033 5.033c.146 0 .438.146.584.146h.584c1.751-1.751 2.188-4.522 1.167-6.712l5.836-5.836c.875 1.021 2.48 1.021 3.501 0l.292-.292c.438-.438.729-1.167.729-1.751.002-.581-.29-1.31-.728-1.748zm-1.022 2.335l-.292.292c-.292.438-1.021.438-1.459 0l-.584-.584a.705.705 0 0 0-1.021 0l-6.858 6.858c-.292.292-.292.584-.146.875 1.021 1.459.875 3.355-.146 4.814l-9.921-9.921c1.459-1.021 3.355-1.167 4.814-.146.292.146.584.146.875-.146l6.858-6.858a.705.705 0 0 0 0-1.021l-.584-.584c-.146-.146-.292-.438-.292-.729s.146-.584.292-.729l.292-.292c.292-.438 1.021-.438 1.459 0l6.712 6.712c.146.146.292.438.292.729s-.146.584-.292.729z"/></svg>