<!-- Generated by IcoMoon.io -->
<svg version="1.1" xmlns="http://www.w3.org/2000/svg" width="24" height="24" viewBox="0 0 24 24">
<title>pinned</title>
<path d="M18.232 13.328c-0.614-0.698-1.688-1.083-2.481-1.282v-7.771c0.784-0.266 1.45-0.598 1.977-0.987 0.45-0.331 0.676-0.888 0.591-1.44-0.087-0.552-0.471-1.011-1.005-1.189-0.729-0.246-2.399-0.659-5.313-0.659-3.083 0-4.785 0.475-5.375 0.68-0.523 0.182-0.905 0.638-0.99 1.185-0.085 0.546 0.138 1.096 0.581 1.431 0.534 0.401 1.217 0.74 2.033 1.007h0.001v7.743c-0.792 0.2-1.868 0.585-2.483 1.282-0.32 0.363-0.444 0.858-0.336 1.329 0.108 0.47 0.438 0.859 0.884 1.047 1.065 0.447 2.876 0.726 4.937 0.783l-0.003 0.012v4.5c0 0.828 0.336 3 0.75 3 0.413 0 0.75-2.172 0.75-3v-4.5l-0.001-0.012c2.061-0.056 3.872-0.34 4.937-0.784 0.446-0.185 0.777-0.576 0.884-1.045 0.108-0.472-0.017-0.968-0.337-1.329zM11.999 14.999c-2.724 0-4.412-0.39-5.106-0.68 0.27-0.306 0.897-0.612 1.725-0.822l1.131-0.285v-9.999l-1.034-0.337c-0.783-0.257-1.292-0.549-1.599-0.782 0.798-0.276 2.414-0.596 4.883-0.596 2.419 0 4.028 0.307 4.839 0.581-0.317 0.234-0.824 0.521-1.567 0.774l-1.021 0.345v10.015l1.131 0.285c0.831 0.21 1.458 0.516 1.725 0.822-0.693 0.289-2.38 0.679-5.106 0.679z"></path>
</svg>
