<svg xmlns="http://www.w3.org/2000/svg" width="24" height="24"><path d="M18.232 13.328c-.614-.698-1.688-1.083-2.481-1.282V4.275c.784-.266 1.45-.598 1.977-.987.45-.331.676-.888.591-1.44A1.495 1.495 0 0 0 17.314.659C16.585.413 14.915 0 12.001 0 8.918 0 7.216.475 6.626.68a1.5 1.5 0 0 0-.409 2.616c.534.401 1.217.74 2.033 1.007h.001v7.743c-.792.2-1.868.585-2.483 1.282a1.502 1.502 0 0 0 .548 2.376c1.065.447 2.876.726 4.937.783l-.003.012v4.5c0 .828.336 3 .75 3 .413 0 .75-2.172.75-3v-4.5l-.001-.012c2.061-.056 3.872-.34 4.937-.784a1.495 1.495 0 0 0 .547-2.374zm-6.233 1.671c-2.724 0-4.412-.39-5.106-.68.27-.306.897-.612 1.725-.822l1.131-.285V3.213l-1.034-.337c-.783-.257-1.292-.549-1.599-.782.798-.276 2.414-.596 4.883-.596 2.419 0 4.028.307 4.839.581-.317.234-.824.521-1.567.774l-1.021.345v10.015l1.131.285c.831.21 1.458.516 1.725.822-.693.289-2.38.679-5.106.679z"/></svg>