<svg xmlns="http://www.w3.org/2000/svg" width="24" height="24"><path fill="#517a9e" d="M12.002 0c-6.617 0-12 5.382-12 11.998 0 6.618 5.384 12.002 12 12.002S24 18.616 24 11.998C24 5.382 18.619 0 12.002 0zm0 2.43c5.284 0 9.568 4.284 9.568 9.568 0 5.286-4.283 9.572-9.568 9.572s-9.57-4.286-9.57-9.572c0-5.285 4.285-9.568 9.57-9.568zm-.135 1.31L8.822 5.5l2.68 4.64c.425-.113.888-.08 1.31.118l1.41-2.442zm4.17 2.256l-2.68 4.643c.325.324.52.749.557 1.195h2.816l2.356-4.076zM4.781 7.984v3.55h.002v-.03h5.36c.121-.449.39-.823.75-1.076l.006-.004-1.409-2.44zm2.487 4.182L4.912 16.24l3.049 1.762 2.682-4.645a1.92 1.92 0 0 1-.556-1.183l-.001-.008zm6.59.33a1.91 1.91 0 0 1-.75 1.074l-.006.004 1.41 2.442h4.707v-3.52zm-2.67 1.244l-1.41 2.442 2.353 4.076 3.049-1.76-2.68-4.64c-.425.114-.89.08-1.312-.118z"/></svg>