<svg xmlns="http://www.w3.org/2000/svg" width="24" height="24"><path fill="#f86001" d="M5.272 20.562H10.2l2.657 2.657c.873.874 2.114 1.039 2.782.371l7.951-7.951c.668-.668.503-1.909-.37-2.782L11.142.781C10.27-.093 9.029-.258 8.36.41L.41 8.36c-.668.668-.503 1.909.37 2.782l4.492 4.492zm2.142-2.142v-3.768l-.88-.88h.016l-2.507-2.507c-.873-.873-1.039-2.114-.371-2.782l4.811-4.811c.668-.668 1.909-.502 2.782.371l8.692 8.692c.873.873 1.039 2.114.371 2.782l-4.811 4.811c-.438.438-1.12.511-1.786.269.332-.555.552-1.485.561-2.542a8.245 8.245 0 0 0-.004-.316v.013c-.204-.428-.47-.688-.762-.691-.302-.002-.58.272-.796.727l.002-.004c-.38.049-.714.527-.929 1.243l-.002.009-.618-.617zm-2.242-7.18c.295.295.702.477 1.151.477s.856-.182 1.151-.477c.295-.295.477-.702.477-1.151s-.182-.856-.477-1.151c-.295-.295-.702-.477-1.152-.477s-.857.182-1.151.477a1.624 1.624 0 0 0 .001 2.302z"/></svg>