<!-- Generated by IcoMoon.io -->
<svg version="1.1" xmlns="http://www.w3.org/2000/svg" width="24" height="24" viewBox="0 0 24 24">
<title>play-station</title>
<path d="M21.3 18l-7.425 2.7v-2.325l6.3-2.325s0.975-0.375-0.375-0.75c-0.675-0.15-1.575 0.075-1.575 0.075l-4.35 1.575v-2.4s2.175-0.75 4.425-0.75c2.7 0.15 5.7 0.9 5.7 2.25 0.225 0.975-2.7 1.95-2.7 1.95zM14.475 12.75v-5.925s0.075-1.275-0.75-1.425c-0.825-0.3-0.75 0.9-0.75 1.425v14.25l-3.75-1.2v-17.625s4.65 0.975 6.825 2.175c2.325 1.35 2.775 3 2.775 4.8 0.075 1.725-0.6 5.1-4.35 3.525zM2.325 18.3s-2.325-0.6-2.325-1.65c0-0.825 1.8-1.575 1.8-1.575l6.225-2.25v2.325s-2.85 1.050-3.825 1.425c-0.975 0.45-0.45 0.675-0.45 0.675 1.35 0.75 4.275-0.6 4.275-0.6v2.025c-2.55 0.525-5.7-0.375-5.7-0.375z"></path>
</svg>
