<svg xmlns="http://www.w3.org/2000/svg" width="24" height="24"><path d="M21.3 18l-7.425 2.7v-2.325l6.3-2.325s.975-.375-.375-.75c-.675-.15-1.575.075-1.575.075l-4.35 1.575v-2.4s2.175-.75 4.425-.75c2.7.15 5.7.9 5.7 2.25.225.975-2.7 1.95-2.7 1.95zm-6.825-5.25V6.825s.075-1.275-.75-1.425c-.825-.3-.75.9-.75 1.425v14.25l-3.75-1.2V2.25s4.65.975 6.825 2.175c2.325 1.35 2.775 3 2.775 4.8.075 1.725-.6 5.1-4.35 3.525zM2.325 18.3S0 17.7 0 16.65c0-.825 1.8-1.575 1.8-1.575l6.225-2.25v2.325S5.175 16.2 4.2 16.575c-.975.45-.45.675-.45.675 1.35.75 4.275-.6 4.275-.6v2.025c-2.55.525-5.7-.375-5.7-.375z"/></svg>