<svg xmlns="http://www.w3.org/2000/svg" width="24" height="24"><path fill="#c8122a" d="M11.976 0c-.134.003-.255.007-.376.013l.029-.001a19.07 19.07 0 0 0-1.129.11c-3.29.448-6.096 2.1-7.993 4.56a11.89 11.89 0 0 0-1.188 1.872l-.032.068a5.32 5.32 0 0 0-.142.285l-.031.073c-.092.198-.179.4-.261.603a9.082 9.082 0 0 0-.263.703l-.025.085-.045.143A11.718 11.718 0 0 0 0 11.985v.038C.013 18.641 5.381 24 12 24c6.201 0 11.304-4.704 11.934-10.738l.004-.052.003-.024c.037-.35.058-.756.058-1.167v-.049a11.96 11.96 0 0 0-.797-4.264l.028.082a10.817 10.817 0 0 0-.382-.892l.031.072c-1.487-3.15-4.299-5.59-7.698-6.506-.76-.208-1.978-.39-2.813-.444a8.597 8.597 0 0 0-.322-.017L12.023 0zm2.321 2.88c.166.001.377.056.675.159 1.782.611 3.773 2.157 4.856 3.764.752 1.118 1.337 2.428 1.337 2.987 0 .358-.35.681-.725.681-.35 0-.708-.305-.804-.68-.13-.525-.83-1.852-1.345-2.534-.917-1.205-2.332-2.262-3.72-2.777-.979-.367-1.232-.795-.778-1.336.152-.182.29-.267.504-.264zm-3.885 1.4c.26.001.495.056.7.165 1.31.664 1.24 2.568-.122 3.092-1.686.637-2.533 1.319-3.084 2.437-1.153 2.34-.21 5.1 2.123 6.218 1.712.821 3.668.533 5.03-.725.62-.576.961-1.074 1.267-1.878.428-1.126.917-1.545 1.79-1.545 1.119 0 1.887.943 1.66 2.026-.463 2.13-2.253 4.27-4.42 5.275-1.196.55-1.851.69-3.362.69-1.485 0-2.131-.131-3.284-.655-3.144-1.424-5.075-4.83-4.673-8.21a8.143 8.143 0 0 1 5.454-6.717l.057-.017a2.72 2.72 0 0 1 .864-.156zm3.463.96c.217.004.499.105.914.306 1.686.803 3.083 2.279 3.834 4.035.28.672.14 1.109-.41 1.283-.42.123-.7-.104-1.066-.864-.681-1.441-1.65-2.437-3.013-3.11-.795-.384-.891-.471-.97-.847-.035-.2 0-.314.184-.532.157-.184.31-.276.527-.271zm-.398 2.443c.23-.001.496.108.84.334.961.629 2.044 1.983 2.044 2.55 0 .289-.28.656-.559.725-.376.097-.646-.087-1.04-.707-.427-.655-.925-1.153-1.44-1.415-.446-.227-.577-.402-.577-.769l-.001-.041a.58.58 0 0 1 .245-.473l.002-.001a.724.724 0 0 1 .486-.203h.001z"/></svg>