<svg xmlns="http://www.w3.org/2000/svg" width="24" height="24"><path fill="#52bbe6" d="M6.102 7.021v7.353h.736V7.02zm13.655.01v7.343h.735V7.032zm.735 4.633l2.479 2.71h1.019l-2.574-2.731L24 9.122h-.987zm-4.008-2.636c-.536 0-.972.125-1.31.378-.337.252-.505.609-.505 1.07 0 .26.049.474.148.642.1.168.226.306.38.415.154.108.328.198.522.267.194.07.39.134.59.19.175.049.342.1.5.152s.297.117.418.194a.94.94 0 0 1 .286.278c.07.109.104.244.104.405 0 .21-.095.388-.286.535-.19.147-.484.221-.88.221-.609 0-1.104-.245-1.485-.735l-.572.504c.286.315.59.54.913.678.322.136.693.204 1.11.204.272 0 .527-.033.766-.1a1.88 1.88 0 0 0 .626-.298l-.005.004c.176-.13.316-.288.419-.478.102-.189.153-.402.153-.64 0-.26-.051-.474-.153-.646a1.463 1.463 0 0 0-.398-.433l-.004-.003a2.253 2.253 0 0 0-.529-.284l-.016-.005a8.121 8.121 0 0 0-.502-.179l-.092-.026c-.161-.049-.317-.1-.467-.152a2.025 2.025 0 0 1-.406-.189l.009.005a.932.932 0 0 1-.273-.249l-.002-.003a.593.593 0 0 1-.104-.337v-.021.001c0-.203.075-.371.225-.504s.413-.2.787-.2c.293 0 .546.055.759.163.213.109.41.278.594.51l.011.01.54-.494c-.272-.315-.556-.535-.853-.661a2.535 2.535 0 0 0-.971-.189h-.049.002zm-14.688.041c-.588 0-1.187.095-1.796.284v7.626h.725v-2.72c.182.048.364.087.546.115a3.55 3.55 0 0 0 1.611-.116l-.025.007a2.416 2.416 0 0 0 1.534-1.308c.16-.336.241-.739.241-1.208 0-.385-.067-.742-.2-1.071a2.444 2.444 0 0 0-.571-.85l-.001-.001a2.641 2.641 0 0 0-.88-.551l-.018-.006a3.26 3.26 0 0 0-1.166-.2zm8.886 0c-.322 0-.627.055-.914.163-.287.11-.54.275-.756.5a2.4 2.4 0 0 0-.51.828l-.005.017c-.126.34-.189.74-.189 1.202 0 .35.052.683.157.998.106.315.263.596.473.84.21.246.473.44.788.583s.683.216 1.103.216c.455 0 .844-.068 1.166-.205s.605-.338.85-.604l-.44-.462a1.858 1.858 0 0 1-.683.488 2.185 2.185 0 0 1-.811.153h-.03.002c-.554 0-.992-.175-1.314-.526-.322-.35-.493-.822-.514-1.417h3.939c.013-.904-.176-1.592-.568-2.064s-.973-.71-1.743-.71zm.031.62c.26 0 .487.04.683.121.196.08.355.187.478.32.122.133.217.295.284.484s.1.392.1.609H9.074c.058-.426.235-.803.496-1.106l-.002.003c.111-.126.264-.23.456-.31.193-.08.422-.12.689-.121zM1.86 9.7c.616 0 1.094.188 1.434.563.34.374.51.866.51 1.475 0 .659-.185 1.165-.552 1.518-.368.354-.863.53-1.486.53-.168 0-.342-.018-.52-.057a4.752 4.752 0 0 1-.554-.152l.034.01V9.868a2.82 2.82 0 0 1 .557-.132A4.56 4.56 0 0 1 1.86 9.7zm2.377 6.588v.692H8.66v-.692z"/></svg>