<!-- Generated by IcoMoon.io -->
<svg version="1.1" xmlns="http://www.w3.org/2000/svg" width="24" height="24" viewBox="0 0 24 24">
<title>plugin</title>
<path d="M23.775 9.9l-5.175 5.1-2.85-2.85 5.1-5.1s0.825-0.825 2.25 0.6 0.675 2.25 0.675 2.25zM11.85 8.25l-2.925-2.925 5.1-5.1s0.825-0.825 2.25 0.6 0.6 2.25 0.6 2.25l-5.025 5.175zM17.475 20.1c-2.25 1.125-4.95 1.275-4.95 1.275h-6.45l-2.1 2.1s-1.5 1.5-3.15-0.15-0.15-3.15-0.15-3.15l2.1-2.1v-6.375s0.15-2.7 1.275-4.95l1.95-2.325 13.95 13.875-2.475 1.8z"></path>
</svg>
