<svg xmlns="http://www.w3.org/2000/svg" width="24" height="24"><path fill="#ff574d" d="M12.902 1.906h-.077a10.045 10.045 0 0 0-7.789 3.69l-.014.018a9.652 9.652 0 0 0-.265.332l-.018.025.004-.003c.232-.196.473-.345.717-.445l.058-.023c.299-.112.602-.147.9-.088 1.44.289 2.19 2.609 1.675 5.183s-2.1 4.427-3.54 4.139c-1.01-.202-1.678-1.405-1.812-2.992v-.005.052a8.89 8.89 0 0 0 0 .4v.073l.002.059a10.758 10.758 0 0 0 .043.643c.122 1.273.463 2.44.987 3.502l-.026-.059c.06.126.03.276-.078.363l-.277.226a.904.904 0 0 0-.288.976l-.002-.006c0 .006.003.01.006.017a1 1 0 0 0 .061.147l-.003-.005.05-.039.23-.174a.261.261 0 0 1 .316.416h-.001l-.282.214 1.177 1.448a.91.91 0 0 0 1.277.13l-.002.001.258-.21a.298.298 0 0 1 .375 0h-.001a9.99 9.99 0 0 0 6.541 2.181h-.014a9.998 9.998 0 0 0 5.602-1.876l-.03.021a.298.298 0 0 1 .38.025l.163.156a.903.903 0 0 0 .624.248c.21 0 .403-.071.557-.191l-.002.002-.004-.004-.21-.197a.262.262 0 0 1 .358-.381l.225.21 1.26-1.326a.906.906 0 0 0-.033-1.281l-.263-.25a.294.294 0 0 1-.053-.362l-.001.001a9.94 9.94 0 0 0 1.264-4.881c0-.633-.058-1.252-.17-1.852l.01.062c.301-.278.853-.824 1.069-1.292.231-.502.29-1.02-.323-.792-.476.177-.842.291-1.286.19-1.417-3.593-4.847-6.193-8.851-6.4a9.516 9.516 0 0 0-.472-.014h-.003zM2.265 6.247a1.229 1.229 0 0 0-1.079 1.771l-.003-.007a1.23 1.23 0 1 0 .758 2.233l-.004.003c.177-.124.306-.289.395-.47.186.342.46.627.778.823a6.032 6.032 0 0 0 .018.621l-.001-.021c.102 1.228.62 2.16 1.401 2.316 1.114.223 2.34-1.21 2.738-3.2.399-1.99-.181-3.784-1.295-4.007-.434-.087-.885.08-1.298.432-.45.383-.854.988-1.14 1.73-.01-.002-.02-.003-.03-.007-.14-.04-.215-.131-.312-.152a1.23 1.23 0 0 0-.903-2.065h-.024.001zm2.862 1.244c.054 0 .107.004.16.015.726.143 1.104 1.312.844 2.608-.259 1.298-1.058 2.23-1.783 2.085-.493-.098-.824-.67-.905-1.433.181.07.37.113.56.122.527.024.871-.154 1.14-.513.346-.465.084-1.753-.374-1.92-.356-.13-.567.027-.884.05a2.5 2.5 0 0 1 .557-.72c.219-.185.453-.292.685-.294z"/></svg>