<svg xmlns="http://www.w3.org/2000/svg" width="24" height="24"><path d="M12.902 1.906h-.077a10.045 10.045 0 0 0-7.789 3.69l-.014.018a9.652 9.652 0 0 0-.265.332l-.018.025.004-.003c.232-.196.473-.345.717-.445l.058-.023c.299-.112.602-.147.9-.088 1.44.289 2.19 2.609 1.675 5.183s-2.1 4.427-3.54 4.139c-1.01-.202-1.678-1.405-1.812-2.992v-.005.052a12.106 12.106 0 0 0 0 .41v-.01.073l.002.059a10.758 10.758 0 0 0 .043.643c.122 1.273.463 2.44.987 3.502l-.026-.059c.06.126.03.276-.078.363l-.277.226a.904.904 0 0 0-.288.976l-.002-.006c0 .006.003.01.006.017a.926.926 0 0 0 .064.152l-.002-.005-.003-.005.05-.039.23-.174a.258.258 0 0 1 .157-.053h.001a.261.261 0 0 1 .158.469h-.001l-.282.214 1.177 1.448a.91.91 0 0 0 .704.333h.001a.904.904 0 0 0 .573-.204l-.003.003.258-.21a.298.298 0 0 1 .375 0h-.001a9.99 9.99 0 0 0 6.541 2.181h-.014a9.998 9.998 0 0 0 5.602-1.876l-.03.021a.297.297 0 0 1 .174-.057h.001c.079 0 .152.031.205.082l.163.156a.9.9 0 0 0 .623.248h.002c.21 0 .404-.072.558-.192l-.002.002-.002.002-.004-.004-.21-.197a.262.262 0 0 1 .358-.381l.225.21 1.26-1.326a.9.9 0 0 0 .248-.623v-.001a.906.906 0 0 0-.281-.657l-.263-.25a.296.296 0 0 1-.053-.361l-.001.001a9.94 9.94 0 0 0 1.264-4.881c0-.633-.058-1.252-.17-1.852l.01.062c.301-.278.853-.824 1.069-1.292.231-.502.29-1.02-.323-.792-.476.177-.842.291-1.286.19-1.417-3.593-4.847-6.193-8.851-6.4a9.432 9.432 0 0 0-.47-.014h-.003zM2.265 6.247A1.229 1.229 0 0 0 1.06 7.475v.002c0 .197.047.384.13.549l-.003-.007-.003-.007a1.23 1.23 0 1 0 .758 2.233l-.004.003c.177-.124.306-.289.395-.47.186.342.46.627.778.823a5.488 5.488 0 0 0 .02.642l-.001-.021-.001-.021c.102 1.228.62 2.16 1.401 2.316 1.114.223 2.34-1.21 2.738-3.2.399-1.99-.181-3.784-1.295-4.007-.434-.087-.885.08-1.298.432-.45.383-.854.988-1.14 1.73-.01-.002-.02-.003-.03-.007-.14-.04-.215-.131-.312-.152.203-.218.327-.511.327-.833v-.002a1.23 1.23 0 0 0-1.23-1.23h-.024.001zm2.862 1.244c.054 0 .107.004.16.015.726.143 1.104 1.312.844 2.608-.259 1.298-1.058 2.23-1.783 2.085-.493-.098-.824-.67-.905-1.433.181.07.37.113.56.122.527.024.871-.154 1.14-.513.346-.465.084-1.753-.374-1.92-.356-.13-.567.027-.884.05a2.5 2.5 0 0 1 .557-.72c.219-.185.453-.292.686-.295z"/></svg>