<!-- Generated by IcoMoon.io -->
<svg version="1.1" xmlns="http://www.w3.org/2000/svg" width="24" height="24" viewBox="0 0 24 24">
<title>pocket</title>
<path d="M18.525 21.15c-5.925 3.675-10.725 1.65-13.725-0.3s-4.8-6.15-4.8-9.975v-7.050s-0.225-2.325 2.4-2.325h19.050s2.475-0.225 2.475 2.4v7.050s0.525 6.525-5.4 10.2zM18.9 8.175c-0.975-1.125-2.325-0.075-2.325-0.075l-4.575 4.425-4.575-4.425s-1.050-0.9-2.175 0.075c-1.125 1.050-0.225 2.175-0.225 2.175s4.65 4.5 5.925 5.625c1.275 1.125 2.175 0 2.175 0l5.925-5.625c-0.075 0.075 0.825-0.975-0.15-2.175z"></path>
</svg>
