<svg xmlns="http://www.w3.org/2000/svg" width="24" height="24"><path fill="#ff6c37" d="M13.527.099C6.955-.744.942 3.9.099 10.473c-.843 6.572 3.8 12.584 10.373 13.428 6.573.843 12.587-3.801 13.428-10.374C24.744 6.955 20.101.943 13.527.099zm2.471 7.485a.851.851 0 0 0-.593.25l-4.453 4.453-.95-.95c4.389-4.376 5.18-4.418 5.996-3.753zm-4.863 4.861l4.44-4.44a.62.62 0 1 1 .848.902l-.001.001-4.699 4.125zm.33.694l-1.1.238a.057.057 0 0 1-.013.001.06.06 0 0 1-.054-.033.06.06 0 0 1 .01-.073l.645-.645zm-2.803-.459l1.172-1.172.879.878-1.979.426a.11.11 0 0 1-.019.002.074.074 0 0 1-.066-.041.071.071 0 0 1-.011-.039c0-.021.009-.041.024-.054zm-3.646 6.058a.076.076 0 0 1-.069-.076v-.008a.077.077 0 0 1 .022-.046h.002l.946-.946 1.222 1.222zm2.425-1.256a.228.228 0 0 0-.116.258v-.002l.203.865a.125.125 0 0 1-.211.117h-.003l-1.228-1.229 3.762-3.758 1.82-.393.874.874c-1.255 1.102-2.971 2.201-5.1 3.268zm5.279-3.428h-.002l-.839-.839 4.699-4.125a.985.985 0 0 0 .117-.125l.002-.002c-.148 1.345-2.029 3.245-3.977 5.091zm3.657-6.46l-.003-.002a1.822 1.822 0 0 1 2.461-2.681l-.003-.002-1.61 1.613c-.022.022-.035.051-.035.084s.013.063.035.084l1.247 1.247a1.81 1.81 0 0 1-2.093-.343zm2.578 0c-.081.08-.169.151-.265.214l-.006.004h-.001l-1.207-1.207 1.533-1.533c.661.72.637 1.832-.054 2.522zm-.1-1.544a.142.142 0 0 0-.053.158v-.001a.412.412 0 0 1-.054.45l.001-.001a.139.139 0 0 0-.03.087c0 .044.021.084.053.11a.143.143 0 0 0 .084.03c.042 0 .08-.02.106-.05a.69.69 0 0 0 .085-.755l.002.004a.138.138 0 0 0-.194-.033z"/></svg>