<svg xmlns="http://www.w3.org/2000/svg" width="24" height="24"><path fill="#50fa7b" d="M2.534 9.287C2.534 15.46 7.56 24 12 24c4.18 0 9.466-8.539 9.466-14.713C21.467 3.113 17.228 0 12 0S2.534 3.113 2.534 9.287zm11.926 4.565a4.634 4.634 0 0 1 4.288-1.255l-.031-.006a4.63 4.63 0 0 1-1.262 4.256 4.634 4.634 0 0 1-3.289 1.364 4.68 4.68 0 0 1-.998-.107l.031.006a4.63 4.63 0 0 1 1.262-4.257zm-9.177-1.261a4.636 4.636 0 0 1 4.258 1.261 4.634 4.634 0 0 1 1.255 4.288l.006-.031a4.63 4.63 0 0 1-4.257-1.262 4.637 4.637 0 0 1-1.257-4.286l-.006.031z"/></svg>