<svg xmlns="http://www.w3.org/2000/svg" width="24" height="24"><path fill="#336791" d="M17.128 0c-.984.008-1.932.154-2.827.421l.072-.018-.063.02a10.607 10.607 0 0 0-1.7-.165h-.01C11.422.238 10.41.524 9.594 1 8.79.721 7.122.24 5.364.336 4.14.403 2.804.775 1.814 1.82.827 2.865.305 4.482.415 6.682c.03.607.203 1.597.49 2.879s.69 2.783 1.193 4.152c.503 1.37 1.054 2.6 1.915 3.436.43.419 1.022.771 1.72.742.49-.02.933-.235 1.315-.552.186.245.385.352.566.451.228.125.45.21.68.266.413.103 1.12.241 1.948.1.282-.047.579-.139.875-.27.011.33.024.653.037.98.041 1.036.067 1.993.378 2.832.05.137.187.843.727 1.466.54.624 1.598 1.013 2.803.755.85-.182 1.931-.51 2.649-1.532.71-1.01 1.03-2.459 1.093-4.809a4.73 4.73 0 0 1 .055-.336l.169.015h.02c.907.041 1.891-.088 2.713-.47.728-.337 1.279-.678 1.68-1.283.1-.15.21-.331.24-.643s-.149-.8-.446-1.025c-.595-.452-.969-.28-1.37-.197-.357.083-.77.135-1.194.146h-.008c1.156-1.947 1.985-4.015 2.458-5.845.28-1.08.437-2.076.45-2.947s-.058-1.642-.58-2.309C21.36.6 19.067.024 17.293.004A9.083 9.083 0 0 1 17.128 0zm-.047.64c1.678-.016 3.822.455 5.361 2.422.346.442.449 1.088.437 1.884-.013.795-.16 1.747-.429 2.79-.522 2.02-1.508 4.375-2.897 6.488a.73.73 0 0 0 .153.084l.005.002c.29.12.951.223 2.27-.048.332-.07.575-.117.827.075a.519.519 0 0 1 .184.397l-.001.03v-.001a.708.708 0 0 1-.131.338l.001-.002c-.255.383-.758.746-1.403 1.045-.571.266-1.39.405-2.116.413-.364.004-.7-.024-.985-.113l-.018-.007c-.11 1.06-.363 3.153-.528 4.108-.132.77-.363 1.382-.804 1.84-.44.458-1.063.734-1.901.914-1.038.223-1.795-.017-2.283-.428-.487-.41-.71-.954-.844-1.287-.092-.23-.14-.528-.186-.926s-.08-.885-.103-1.434a49.014 49.014 0 0 1-.034-1.873c0-.229.002-.457.004-.685v.035a3.046 3.046 0 0 1-1.534.757l-.018.003c-.689.117-1.304.002-1.671-.09a2.232 2.232 0 0 1-.532-.207l.012.006c-.17-.091-.332-.194-.44-.397a.552.552 0 0 1-.056-.384l-.001.004a.617.617 0 0 1 .217-.33l.001-.001c.198-.161.46-.251.855-.333.719-.148.97-.249 1.123-.37.13-.104.277-.314.537-.622l-.003-.038v-.003a2.937 2.937 0 0 1-1.345-.366l.015.008c-.15.158-.916.968-1.85 2.092-.393.47-.827.74-1.285.759s-.872-.211-1.224-.552c-.703-.683-1.264-1.858-1.753-3.186-.488-1.328-.885-2.807-1.167-4.067-.283-1.26-.45-2.276-.474-2.766-.105-2.082.382-3.485 1.217-4.37.836-.885 1.982-1.22 3.099-1.284 2.005-.115 3.909.584 4.294.734.742-.504 1.698-.818 2.892-.798a7.443 7.443 0 0 1 1.732.229l-.051-.011.02-.009c.193-.072.44-.145.693-.205l.046-.009a9.337 9.337 0 0 1 2.065-.253h.007zm.152.67h-.146a8.765 8.765 0 0 0-1.762.203l.058-.011c1.246.552 2.187 1.402 2.85 2.25a8.411 8.411 0 0 1 1.111 1.865l.021.055c.11.264.184.487.226.66.021.087.035.16.04.236a.44.44 0 0 1-.012.144c0 .003-.005.01-.006.013.03.876-.187 1.47-.213 2.306-.02.606.135 1.318.173 2.095.036.73-.052 1.532-.526 2.319.04.048.076.096.114.144 1.254-1.975 2.158-4.16 2.64-6.023.258-1.003.395-1.912.407-2.632.01-.72-.124-1.242-.295-1.46-1.342-1.716-3.158-2.153-4.68-2.164zm-4.79.256c-1.182.003-2.03.36-2.673.895-.663.553-1.108 1.31-1.4 2.085-.347.92-.466 1.81-.513 2.414l.013-.008c.357-.2.826-.4 1.328-.516s1.043-.151 1.533.039.895.637 1.042 1.315c.704 3.257-.219 4.468-.559 5.382a8.438 8.438 0 0 0-.315.946l-.016.067c.043-.01.086-.022.129-.026.24-.02.428.06.54.108.342.142.577.44.704.78.033.089.057.185.071.284.013.034.02.074.02.115v.013-.001a53.826 53.826 0 0 0 .016 3.841l-.003-.103c.023.538.057 1.012.1 1.386s.104.657.143.753c.128.32.315.739.653 1.024.338.284.823.474 1.709.284.768-.165 1.242-.394 1.559-.723s.505-.787.626-1.488c.181-1.05.545-4.095.589-4.668-.02-.432.044-.764.182-1.017.142-.26.362-.419.552-.505.095-.043.184-.072.257-.093a6.117 6.117 0 0 0-.252-.336l.009.011a4.45 4.45 0 0 1-.655-1.07l-.011-.029a7.849 7.849 0 0 0-.278-.522l.021.039c-.133-.24-.301-.54-.477-.877-.352-.675-.735-1.493-.934-2.29-.198-.796-.227-1.62.281-2.201.45-.516 1.24-.73 2.426-.61-.035-.105-.056-.192-.115-.332a7.877 7.877 0 0 0-1.054-1.781l.013.017c-1.005-1.285-2.632-2.559-5.146-2.6zm-6.642.052c-.127 0-.254.004-.38.011-1.01.058-1.965.351-2.648 1.075-.684.724-1.134 1.911-1.036 3.876.019.372.181 1.414.459 2.652s.67 2.695 1.142 3.982c.473 1.287 1.046 2.407 1.59 2.937.274.265.512.372.728.363.217-.01.478-.135.797-.518a43.651 43.651 0 0 1 1.83-2.069l-.02.021a3.49 3.49 0 0 1-1.164-3.17l-.002.019c.103-.739.117-1.43.105-1.976-.012-.532-.05-.886-.05-1.107v-.009-.015l-.001-.006v-.001-.005c0-1.209.217-2.368.614-3.439l-.022.068c.28-.744.697-1.5 1.322-2.112-.614-.202-1.704-.51-2.884-.568a7.292 7.292 0 0 0-.378-.01h-.001zM18.199 6.9c-.679.009-1.06.184-1.26.413-.283.325-.31.895-.134 1.597.175.703.537 1.489.877 2.142.17.327.335.621.468.86.134.24.232.41.292.555.055.134.116.252.178.362.263-.555.31-1.1.283-1.668-.035-.703-.198-1.422-.174-2.15.027-.851.195-1.405.21-2.063a5.645 5.645 0 0 0-.74-.048zm-8.234.115a2.816 2.816 0 0 0-.635.078l.019-.004a4.68 4.68 0 0 0-1.177.461l.024-.012a2.38 2.38 0 0 0-.354.232l.005-.004-.022.02c.006.146.035.5.047 1.021.012.57-.002 1.297-.112 2.084-.239 1.71 1.002 3.126 2.46 3.128.085-.351.225-.707.365-1.082.406-1.094 1.205-1.892.532-5.006-.11-.51-.328-.716-.628-.832a1.454 1.454 0 0 0-.492-.084h-.034.002zm7.917.204h.05a.878.878 0 0 1 .18.022c.054.012.1.03.138.055s.066.063.075.109v.001l-.001.008v.01c0 .046-.013.09-.036.126l.001-.001a.675.675 0 0 1-.11.15.67.67 0 0 1-.382.211l-.004.001a.589.589 0 0 1-.412-.104l.002.001a.604.604 0 0 1-.129-.117l-.001-.001a.26.26 0 0 1-.063-.125v-.002l-.001-.015c0-.043.016-.083.043-.113a.37.37 0 0 1 .115-.089l.002-.001a1.115 1.115 0 0 1 .533-.126zm-7.82.168c.053 0 .109.005.166.013.153.021.289.062.393.122a.457.457 0 0 1 .132.105l.001.001c.034.039.055.09.055.147l-.001.024v-.001a.302.302 0 0 1-.075.154.664.664 0 0 1-.141.129l-.002.001a.632.632 0 0 1-.451.113h.003a.725.725 0 0 1-.419-.227l-.001-.001a.682.682 0 0 1-.116-.16l-.002-.004a.273.273 0 0 1-.04-.178v.001c.015-.108.104-.164.191-.195a.855.855 0 0 1 .309-.044h-.002zm9.06 7.343l-.003.001c-.147.053-.268.075-.37.12a.454.454 0 0 0-.238.212l-.001.002c-.063.115-.117.319-.101.666.042.03.092.053.144.069l.004.001c.171.052.458.086.778.081.638-.007 1.423-.156 1.84-.35.361-.17.671-.375.947-.619l-.004.004h-.001c-1.393.288-2.18.211-2.663.012a1.29 1.29 0 0 1-.334-.201l.002.002zm-8.031.094h-.021c-.053.005-.13.023-.279.188-.348.39-.47.635-.757.864-.287.228-.66.35-1.405.503a1.918 1.918 0 0 0-.461.144c.029.024.026.03.07.053.109.06.249.113.362.142.32.08.846.173 1.395.08.549-.094 1.12-.357 1.607-1.04.084-.118.093-.292.024-.479-.07-.187-.223-.348-.331-.393a.639.639 0 0 0-.201-.062h-.003z"/></svg>