<!-- Generated by IcoMoon.io -->
<svg version="1.1" xmlns="http://www.w3.org/2000/svg" width="24" height="24" viewBox="0 0 24 24">
<title>power1</title>
<path d="M15.668 4.732c-0.394-0.146-0.825 0.056-0.971 0.446s0.056 0.825 0.446 0.968c3.289 1.215 5.501 4.387 5.501 7.894 0 4.639-3.78 8.415-8.426 8.415s-8.426-3.773-8.426-8.415c0-3.506 2.212-6.679 5.505-7.894 0.394-0.146 0.592-0.577 0.446-0.967s-0.581-0.593-0.971-0.446c-3.885 1.433-6.495 5.175-6.495 9.308 0 5.471 4.459 9.922 9.938 9.922s9.938-4.451 9.938-9.922c0-4.133-2.606-7.871-6.484-9.308zM12.214 14.933c0.416 0 0.754-0.338 0.754-0.754v-13.459c0-0.416-0.338-0.754-0.754-0.754s-0.758 0.338-0.758 0.754v13.455c0.004 0.42 0.341 0.758 0.758 0.758z"></path>
</svg>
