<svg xmlns="http://www.w3.org/2000/svg" width="24" height="24"><path d="M15.668 4.732a.755.755 0 0 0-.525 1.414 8.45 8.45 0 0 1 5.501 7.894c0 4.639-3.78 8.415-8.426 8.415s-8.426-3.773-8.426-8.415a8.448 8.448 0 0 1 5.505-7.894c.394-.146.592-.577.446-.967s-.581-.593-.971-.446c-3.885 1.433-6.495 5.175-6.495 9.308 0 5.471 4.459 9.922 9.938 9.922s9.938-4.451 9.938-9.922c0-4.133-2.606-7.871-6.484-9.308zm-3.454 10.201a.755.755 0 0 0 .754-.754V.72c0-.416-.338-.754-.754-.754s-.758.338-.758.754v13.455a.76.76 0 0 0 .758.758z"/></svg>