<svg xmlns="http://www.w3.org/2000/svg" width="24" height="24"><path fill="#df0067" d="M11.558 1.034C5.174 1.034 0 6.21 0 12.592c0 1.258.201 2.47.574 3.597l.002-.007c.152-.697.335-1.295.559-1.872l-.029.085.011-.03c.085-.222.179-.442.277-.66l.084-.181c.08-.171.165-.34.253-.507.036-.068.07-.136.108-.203.02-.038.044-.073.064-.11.094-.166.19-.332.29-.493l.075-.114c.125-.195.256-.386.393-.573l.035-.05c.144-.193.295-.38.451-.563l.1-.118c.155-.177.315-.35.481-.517l.099-.097c.171-.169.349-.334.532-.492l.014-.011c.74-2.48 3.005-4.285 5.686-4.285 1.079 0 2.152.31 3.071.873a6.066 6.066 0 0 1 2.195 2.373l.023.049.04.074v.003l.004.002c.59.367 1.103.763 1.572 1.203l-.005-.005c.04.037.081.071.12.109.002 0 .006.005.007.006l-.002-.006-.001-.004v-.003l.042-.084c.377-2.384 1.43-4.102 2.67-4.102.934 0 1.762.975 2.276 2.476l.005.016.001.002c.145.158.287.331.424.521l.007.01.021.067-.02-.078c-1.542-4.569-5.863-7.857-10.951-7.859zM9.927 5.477C7.586 5.52 5.34 7.132 4.574 9.365l-.012.034c.385-.311.815-.607 1.266-.869l.049-.026c2.806-1.656 6.479-1.646 9.278.016-.895-1.653-2.631-2.819-4.5-3.004a5.04 5.04 0 0 0-.638-.04l-.094.001h.005zm9.834.5c-.14.003-.274.028-.4.07l.01-.003c-1.265.562-1.719 2.073-2.031 3.303l-.016.072c.365-.62.808-1.215 1.396-1.642.835-.687 2.105-.655 2.916.053.308.326.141.008.031-.22-.342-.75-1.025-1.653-1.906-1.633zM12.35 8.315l-1.07 3.27-.002.005-.006.002-4.507 1.112 4.456 1.087c.105.11.227.205.36.28h.002c.042.024.085.045.129.065l.01.005c.041.018.083.033.126.047l.021.008c.04.013.08.023.12.032l.033.008c.095.02.205.032.317.033h.005c.638 0 1.186-.386 1.422-.938l.004-.01c.08-.186.123-.39.123-.604v-.011l-.001-.012a1.696 1.696 0 0 0-.01-.16l-.001-.002a1.413 1.413 0 0 0-.028-.163l.002.01-.001-.004a1.48 1.48 0 0 0-.1-.297l.004.009v-.003a1.533 1.533 0 0 0-.347-.489l-.001-.001v-.003zm3.148.626c.048 1.008.036 2.046-.1 3.057-.17 2.018-1.19 3.798-1.972 5.616l-.03.08-.035.086c1.51-1.522 3.17-3.04 3.969-5.082.383-.636.118-1.342-.115-1.976-.17-.877-1.069-1.278-1.717-1.781zm6.172.572l-.588 2.688a1.506 1.506 0 0 0-.045.189l-.002.011c-.002.02-.007.04-.01.06a1.85 1.85 0 0 0-.016.221v.001l-.002.031h.003c0 .628.297 1.136.663 1.137a.404.404 0 0 0 .184-.046l-.002.001.027-.015a.488.488 0 0 0 .071-.048l-.001.001c.013-.01.024-.022.036-.033a.739.739 0 0 0 .135-.165l.002-.003.03-.054c.016-.028.033-.064.049-.1l.003-.008.017-.04c.02-.053.038-.108.053-.166l.002-.002.001-.003.404-.451-.407-.456v.001l-.02-.063zm-4.381.856c.69 1.716.85 3.707.091 5.43-.49 1.368-1.587 2.463-1.874 3.905.73.115 1.468.176 2.21.186 2.166.029 4.332-.42 6.284-1.365-2.04-2.869-4.121-5.755-6.711-8.156zm-4.948.977a.583.583 0 1 1 0 1.166.583.583 0 1 1 0-1.166zm9.352.37c.138 0 .249.19.249.426s-.111.426-.249.426c-.137 0-.248-.19-.248-.426s.11-.426.248-.426zm-4.044.184a4.59 4.59 0 0 1-.05.29l-.006.023c-.01.05-.022.094-.033.128-.48 1.417-1.275 2.52-2.36 3.697a61.092 61.092 0 0 1-1.645 1.679l-.01.01c-.112.11-.259.261-.425.436-.103.287-.22.61-.318.95-.044-.016-.086-.031-.131-.049-2.108-.815-3.519-1.904-3.519-1.904s1.086 1.414 2.915 2.74c.177.129.351.24.522.339-.075 1.194.452 2.34 2.83 2.682a4.873 4.873 0 0 0 1.252.005l-.024.002-.01-.029-.004-.01s-.167-.133-.379-.377a3.807 3.807 0 0 1-.574-.874l-.01-.023a3.292 3.292 0 0 1-.263-.842l-.003-.02a3.215 3.215 0 0 1-.003-.989l-.002.018c.017-.12.04-.241.072-.366.093-.374.255-.772.507-1.192l.002-.003.241-.404c1.103-1.86 1.797-3.275 1.506-5.441a8.81 8.81 0 0 0-.086-.532l.009.056zm4.668.576l.001.008zm.013.203l.003.036v.01c0 .013-.003.025-.003.038 0-.014.003-.028.003-.043 0-.014-.002-.026-.003-.041zm-.012.275v.001l-.002.01-.002.014zm1.353 5.928c-2.553 1.138-5.44 1.44-8.192 1.007-.14 1.108.384 2.218 1.214 2.93l.012.01c2.703-.433 4.975-2.168 6.966-3.947z"/></svg>