<!-- Generated by IcoMoon.io -->
<svg version="1.1" xmlns="http://www.w3.org/2000/svg" width="24" height="24" viewBox="0 0 24 24">
<title>presentation</title>
<path d="M22.579 0.58h-21.158c-0.784 0-1.421 0.637-1.421 1.421v1.286c0 0.784 0.638 1.421 1.421 1.421h1.189v11.069c0 0.784 0.638 1.421 1.421 1.421h7.3v3.16l-6.532 1.749c-0.356 0.095-0.567 0.462-0.472 0.818 0.080 0.298 0.35 0.495 0.644 0.495 0.057 0 0.115-0.007 0.173-0.023l6.828-1.828c0.009 0 0.018 0.001 0.026 0.001s0.018-0.001 0.026-0.001l6.828 1.828c0.058 0.015 0.116 0.023 0.173 0.023 0.295 0 0.564-0.197 0.644-0.495 0.095-0.356-0.116-0.722-0.472-0.818l-6.532-1.749v-3.16h7.3c0.784 0 1.421-0.638 1.421-1.421v-11.069h1.19c0.784 0 1.421-0.638 1.421-1.422v-1.286c0-0.784-0.637-1.421-1.421-1.421zM22.665 3.287c0 0.047-0.038 0.086-0.086 0.086h-21.158c-0.047 0-0.086-0.039-0.086-0.086v-1.286c0-0.047 0.039-0.086 0.086-0.086h21.158c0.047 0 0.086 0.039 0.086 0.086zM20.054 15.777c0 0.047-0.038 0.086-0.086 0.086h-15.936c-0.047 0-0.086-0.039-0.086-0.086v-11.069h16.108zM5.644 14.955c0.157 0 0.315-0.055 0.442-0.167l4.105-3.624 1.754 1.582c0.261 0.235 0.66 0.228 0.912-0.016l4.465-4.331c0.265-0.256 0.271-0.679 0.015-0.944s-0.679-0.271-0.944-0.015l-4.017 3.896-1.733-1.563c-0.252-0.227-0.634-0.229-0.889-0.005l-4.551 4.018c-0.276 0.244-0.303 0.666-0.058 0.942 0.132 0.149 0.316 0.226 0.5 0.226zM18.356 7.107c0.176 0 0.348-0.071 0.472-0.196s0.196-0.296 0.196-0.472-0.071-0.348-0.196-0.472c-0.124-0.124-0.296-0.195-0.472-0.195s-0.348 0.071-0.472 0.195c-0.124 0.125-0.195 0.296-0.195 0.472s0.071 0.348 0.195 0.472c0.124 0.124 0.296 0.196 0.472 0.196z"></path>
</svg>
