<svg xmlns="http://www.w3.org/2000/svg" width="24" height="24"><path d="M22.579.58H1.421C.637.58 0 1.217 0 2.001v1.286c0 .784.638 1.421 1.421 1.421H2.61v11.069c0 .784.638 1.421 1.421 1.421h7.3v3.16l-6.532 1.749a.668.668 0 0 0 .345 1.29l6.828-1.828.026.001.026-.001 6.828 1.828a.668.668 0 0 0 .345-1.29l-6.532-1.749v-3.16h7.3c.784 0 1.421-.638 1.421-1.421V4.708h1.19c.784 0 1.421-.638 1.421-1.422V2c0-.784-.637-1.421-1.421-1.421zm.086 2.707a.086.086 0 0 1-.086.086H1.421a.087.087 0 0 1-.086-.086V2.001c0-.047.039-.086.086-.086h21.158c.047 0 .086.039.086.086zm-2.611 12.49a.086.086 0 0 1-.086.086H4.032a.087.087 0 0 1-.086-.086V4.708h16.108zm-14.41-.822a.666.666 0 0 0 .442-.167l4.105-3.624 1.754 1.582c.261.235.66.228.912-.016l4.465-4.331a.668.668 0 0 0-.929-.959l-4.017 3.896-1.733-1.563a.669.669 0 0 0-.889-.005l-4.551 4.018a.667.667 0 0 0 .442 1.168zm12.712-7.848a.668.668 0 1 0-.472-1.14.672.672 0 0 0 0 .944.673.673 0 0 0 .472.196z"/></svg>