<!-- Generated by IcoMoon.io -->
<svg version="1.1" xmlns="http://www.w3.org/2000/svg" width="24" height="24" viewBox="0 0 24 24">
<title>previous1</title>
<path d="M21.075 12.517c-1.737-2.115-5.011-4.633-10.783-4.849v-3.917c0-0.231-0.133-0.447-0.344-0.545s-0.461-0.069-0.638 0.079l-9.090 7.494c-0.137 0.113-0.221 0.285-0.221 0.461 0 0.182 0.079 0.348 0.216 0.461l9.090 7.524c0.182 0.147 0.427 0.182 0.638 0.079 0.211-0.098 0.344-0.309 0.344-0.545v-3.902c3.769 0.015 9.531 0.294 12.589 5.688 0.108 0.191 0.309 0.304 0.525 0.304 0.049 0 0.103-0.005 0.152-0.020 0.265-0.069 0.447-0.309 0.447-0.579 0.005-2.017-0.766-5.104-2.925-7.735zM9.688 13.655c-0.162 0-0.314 0.064-0.427 0.177s-0.177 0.265-0.177 0.427v3.225l-7.534-6.238 7.539-6.218v3.225c0 0.329 0.265 0.599 0.594 0.604 8.638 0.083 11.858 5.35 12.795 9.050-3.72-4.245-9.291-4.25-12.79-4.25z"></path>
</svg>
