<svg xmlns="http://www.w3.org/2000/svg" width="24" height="24"><path d="M21.075 12.517c-1.737-2.115-5.011-4.633-10.783-4.849V3.751a.602.602 0 0 0-.982-.466L.22 10.779a.606.606 0 0 0-.221.461c0 .182.079.348.216.461l9.09 7.524a.595.595 0 0 0 .638.079.596.596 0 0 0 .344-.545v-3.902c3.769.015 9.531.294 12.589 5.688A.6.6 0 0 0 24 20.25c.005-2.017-.766-5.104-2.925-7.735zM9.688 13.655a.601.601 0 0 0-.604.604v3.225L1.55 11.246l7.539-6.218v3.225c0 .329.265.599.594.604 8.638.083 11.858 5.35 12.795 9.05-3.72-4.245-9.291-4.25-12.79-4.25z"/></svg>