<svg xmlns="http://www.w3.org/2000/svg" width="24" height="24"><path d="M19.859 4.919h-.617V3.546a3.552 3.552 0 0 0-3.547-3.547H8.249a3.552 3.552 0 0 0-3.547 3.547v1.373H4.14A3.552 3.552 0 0 0 .593 8.466v5.72a3.552 3.552 0 0 0 3.547 3.547h.557v4.497c0 .975.796 1.771 1.771 1.771h10.998c.975 0 1.771-.796 1.771-1.771v-4.497h.622a3.552 3.552 0 0 0 3.547-3.547v-5.72a3.552 3.552 0 0 0-3.547-3.547zM6.041 3.547c0-1.214.99-2.204 2.204-2.204h7.441c1.214 0 2.204.99 2.204 2.204V4.92H6.042zm11.853 18.692a.431.431 0 0 1-.428.428H6.468a.431.431 0 0 1-.428-.428v-7.416h11.853zm4.169-8.048c0 1.214-.99 2.204-2.204 2.204h-.617v-1.572h.885c.373 0 .672-.298.672-.672s-.298-.672-.672-.672H3.712c-.373 0-.672.298-.672.672s.298.672.672.672h.99v1.572H4.14a2.208 2.208 0 0 1-2.204-2.204v-5.72c0-1.214.99-2.204 2.204-2.204h15.718c1.214 0 2.204.99 2.204 2.204zM7.668 18.126h8.55c.373 0 .672-.298.672-.672s-.298-.672-.672-.672h-8.55a.672.672 0 1 0 0 1.344zm8.605 1.402H7.718c-.373 0-.672.298-.672.672s.298.672.672.672h8.55c.373 0 .672-.298.672-.672s-.298-.672-.667-.672zm3.571-11.972h-1.363c-.373 0-.672.298-.672.672s.298.672.672.672h1.363c.373 0 .672-.298.672-.672s-.298-.672-.672-.672z"/></svg>