<!-- Generated by IcoMoon.io -->
<svg version="1.1" xmlns="http://www.w3.org/2000/svg" width="24" height="24" viewBox="0 0 24 24">
<title>print</title>
<path d="M19.859 4.919h-0.617v-1.373c0-1.955-1.592-3.547-3.547-3.547h-7.446c-1.955 0-3.547 1.592-3.547 3.547v1.373h-0.562c-1.955 0-3.547 1.592-3.547 3.547v5.72c0 1.955 1.592 3.547 3.547 3.547h0.557v4.497c0 0.975 0.796 1.771 1.771 1.771h10.998c0.975 0 1.771-0.796 1.771-1.771v-4.497h0.622c1.955 0 3.547-1.592 3.547-3.547v-5.72c0-1.955-1.592-3.547-3.547-3.547zM6.041 3.547c0-1.214 0.99-2.204 2.204-2.204h7.441c1.214 0 2.204 0.99 2.204 2.204v1.373h-11.848zM17.894 22.239c0 0.234-0.194 0.428-0.428 0.428h-10.998c-0.234 0-0.428-0.194-0.428-0.428v-7.416h11.853zM22.063 14.191c0 1.214-0.99 2.204-2.204 2.204h-0.617v-1.572h0.885c0.373 0 0.672-0.298 0.672-0.672s-0.298-0.672-0.672-0.672h-16.415c-0.373 0-0.672 0.298-0.672 0.672s0.298 0.672 0.672 0.672h0.99v1.572h-0.562c-1.214 0-2.204-0.99-2.204-2.204v-5.72c0-1.214 0.99-2.204 2.204-2.204h15.718c1.214 0 2.204 0.99 2.204 2.204zM7.668 18.126h8.55c0.373 0 0.672-0.298 0.672-0.672s-0.298-0.672-0.672-0.672h-8.55c-0.373 0-0.672 0.298-0.672 0.672s0.303 0.672 0.672 0.672zM16.273 19.528h-8.555c-0.373 0-0.672 0.298-0.672 0.672s0.298 0.672 0.672 0.672h8.55c0.373 0 0.672-0.298 0.672-0.672s-0.298-0.672-0.667-0.672zM19.844 7.556h-1.363c-0.373 0-0.672 0.298-0.672 0.672s0.298 0.672 0.672 0.672h1.363c0.373 0 0.672-0.298 0.672-0.672s-0.298-0.672-0.672-0.672z"></path>
</svg>
