<!-- Generated by IcoMoon.io -->
<svg version="1.1" xmlns="http://www.w3.org/2000/svg" width="24" height="24" viewBox="0 0 24 24">
<title>prismic</title>
<path d="M7.83 3.866h-1.050c-1.61 0-2.915 1.305-2.915 2.915v8.558c0.899 0.538 1.96 0.909 3.093 1.040l0.037 0.003c-0.125-0.243-0.202-0.529-0.21-0.832l-0-0.003v-6.884c-0.104-0.104-0.104-2.607 1.044-4.797zM20.24 7.829v-1.048c0-1.61-1.305-2.915-2.915-2.915h-8.453c-0.538 0.899-0.908 1.959-1.039 3.092l-0.003 0.037c0.21-0.209 0.522-0.209 0.835-0.209h6.78c0.104 0 2.607 0 4.797 1.043zM16.173 20.241h1.048c1.61 0 2.915-1.305 2.915-2.915v-8.455c-0.899-0.538-1.96-0.909-3.093-1.040l-0.037-0.003c0.21 0.209 0.21 0.521 0.21 0.834v6.78c0 0.104 0 2.607-1.043 4.798zM3.761 16.173v1.048c0 1.61 1.305 2.915 2.915 2.915h8.453c0.538-0.899 0.908-1.959 1.040-3.092l0.003-0.037c-0.208 0.209-0.521 0.209-0.834 0.209h-6.778c-0.104 0-2.607 0-4.797-1.043zM13.253 0.007h-7.51c-3.129 0-5.736 2.607-5.736 5.736 0 0 0.209 5.528 2.399 8.135 0.104 0.209 0.313 0.313 0.521 0.522v-7.718l-0-0.010c0-2.126 1.724-3.85 3.85-3.85l0.011 0h1.667c0.313-0.417 0.626-0.73 0.939-1.042 0.939-0.73 2.399-1.356 3.86-1.773zM23.996 13.253v-7.51c0-3.129-2.607-5.736-5.736-5.736 0 0-5.528 0.208-8.136 2.398-0.223 0.12-0.401 0.299-0.518 0.515l-0.003 0.007h7.727c2.126 0 3.85 1.724 3.85 3.85v1.678c0.417 0.313 0.73 0.626 1.043 0.939 0.73 0.938 1.356 2.398 1.773 3.859zM10.75 23.995h7.51c3.128 0 5.736-2.607 5.736-5.736 0 0-0.209-5.528-2.399-8.135-0.104-0.209-0.313-0.313-0.521-0.522v7.718l0 0.010c0 2.126-1.724 3.85-3.85 3.85l-0.011-0h-1.667c-0.313 0.417-0.626 0.73-0.939 1.042-0.939 0.73-2.399 1.356-3.86 1.773zM0.007 10.75v7.509c0 3.129 2.607 5.736 5.736 5.736 0 0 5.528-0.208 8.136-2.398 0.208-0.105 0.313-0.313 0.521-0.522h-7.623c-2.126 0-3.85-1.724-3.85-3.85v-1.678c-0.417-0.313-0.73-0.626-1.043-0.939-0.834-0.938-1.46-2.398-1.877-3.858z"></path>
</svg>
