<svg xmlns="http://www.w3.org/2000/svg" width="24" height="24"><path fill="#484a7a" d="M7.83 3.866H6.78a2.915 2.915 0 0 0-2.915 2.915V15.339c.899.538 1.96.909 3.093 1.04l.037.003a1.938 1.938 0 0 1-.21-.832V8.663c-.104-.104-.104-2.607 1.045-4.797zm12.41 3.963V6.786v-.005a2.915 2.915 0 0 0-2.915-2.915H8.872a7.787 7.787 0 0 0-1.039 3.092l-.003.037c.21-.209.522-.209.835-.209h6.78c.104 0 2.607 0 4.795 1.043zm-4.067 12.412H17.221a2.915 2.915 0 0 0 2.915-2.915V8.871a7.793 7.793 0 0 0-3.093-1.04l-.037-.003c.21.209.21.521.21.834v6.78c0 .104 0 2.607-1.043 4.799zM3.761 16.173V17.221a2.915 2.915 0 0 0 2.915 2.915H15.129a7.804 7.804 0 0 0 1.04-3.092l.003-.037c-.208.209-.521.209-.834.209H8.56c-.104 0-2.607 0-4.799-1.043zM13.253.007h-7.51C2.614.007.007 2.614.007 5.743c0 0 .209 5.528 2.399 8.135.104.209.313.313.521.522V6.682v-.01a3.85 3.85 0 0 1 3.85-3.85h1.678c.313-.417.626-.73.939-1.042.939-.73 2.399-1.356 3.859-1.773zm10.743 13.246v-7.51c0-3.129-2.607-5.736-5.736-5.736 0 0-5.528.208-8.136 2.398-.223.12-.401.299-.518.515l-.003.007h7.727a3.85 3.85 0 0 1 3.85 3.85v1.678c.417.313.73.626 1.043.939.73.938 1.356 2.398 1.773 3.859zM10.75 23.995h7.51c3.128 0 5.736-2.607 5.736-5.736 0 0-.209-5.528-2.399-8.135-.104-.209-.313-.313-.521-.522v7.728a3.85 3.85 0 0 1-3.85 3.85h-1.678c-.313.417-.626.73-.939 1.042-.939.73-2.399 1.356-3.859 1.773zM.007 10.75v7.509c0 3.129 2.607 5.736 5.736 5.736 0 0 5.528-.208 8.136-2.398.208-.105.313-.313.521-.522H6.777a3.85 3.85 0 0 1-3.85-3.85v-1.678c-.417-.313-.73-.626-1.043-.939C1.05 13.67.424 12.21.007 10.75z"/></svg>