<svg height="24" width="24" xmlns="http://www.w3.org/2000/svg"><path d="m12 .04a1.743 1.743 0 0 0 -.549 3.397l.012.004-.631 2.579h-8.376a2.457 2.457 0 0 0 -2.456 2.456v13.029c0 1.356 1.1 2.456 2.456 2.456h19.088c1.356 0 2.456-1.1 2.456-2.456v-13.029c0-1.356-1.1-2.456-2.456-2.456h-8.403l-.616-2.575a1.743 1.743 0 0 0 -.525-3.405h-.001zm-8.067 7.841h16.136c1.101 0 1.994.893 1.994 1.994v10.117a1.994 1.994 0 0 1 -1.994 1.994h-16.136a1.994 1.994 0 0 1 -1.994-1.994v-10.117c0-1.101.893-1.994 1.994-1.994zm3.254 2.312a4.575 4.575 0 1 0 0 9.15 4.575 4.575 0 0 0 0-9.15zm9.743 0a4.575 4.575 0 1 0 0 9.15 4.575 4.575 0 0 0 0-9.15zm-9.743 1.07h.059a3.506 3.506 0 0 1 0 7.012l-.062-.001h.003a3.507 3.507 0 0 1 -.003-7.011zm9.743 0h.059a3.506 3.506 0 0 1 0 7.012l-.062-.001h.003a3.507 3.507 0 0 1 -.003-7.011zm-9.743 1.663a1.843 1.843 0 1 0 0 3.686 1.843 1.843 0 0 0 0-3.686zm9.743 0a1.843 1.843 0 1 0 0 3.686 1.843 1.843 0 0 0 0-3.686zm-6.927 6.5v2.159h.706v-2.159zm1.077 0v2.159h.705v-2.159zm1.076 0v2.159h.706v-2.159zm1.077 0v2.159h.706v-2.159zm1.077.03v2.1c.479-.117.828-.542.829-1.049v-.001c0-.51-.354-.937-.829-1.05zm-4.678.028a1.08 1.08 0 0 0 -.731 1.021v.001c0 .474.306.876.731 1.021z"/></svg>