<svg height="24" width="24" xmlns="http://www.w3.org/2000/svg"><path d="m21 6.75h-1.468v-2.204l-3.032-.047.016 2.25h-9.11l.062-2.25-2.969.046v2.25l-1.5-.046a1.5 1.5 0 0 0 -1.5 1.5v10.5a1.5 1.5 0 0 0 1.5 1.5h18a1.5 1.5 0 0 0 1.5-1.5v-10.5a1.5 1.5 0 0 0 -1.5-1.5zm-3.75-1.5h1.5v3h-1.5zm-9.75 5.109c.906 0 1.641.965 1.641 2.156s-.735 2.156-1.641 2.156-1.641-.965-1.641-2.156.735-2.156 1.641-2.156zm-2.25-5.109h1.5v3h-1.5zm-1 11.961s.178-1.426.582-1.696c.403-.269 1.567-.448 1.567-.448s.755.806 1.075.806 1.075-.806 1.075-.806 1.164.178 1.568.448c.475.316.593 1.696.593 1.696h-6.461zm15.25-.711h-6.75v-.75h6.75zm0-1.5h-6.75v-.75h6.75zm0-1.5h-6.75v-.75h6.75zm0-1.5h-6.75v-.75h6.75z"/></svg>