<svg height="24" width="24" xmlns="http://www.w3.org/2000/svg"><path d="m23.775 17.925c.15.075.525.975-.15 1.95-.75 1.05-1.875.675-1.875.675s-.075.525-.675 1.425c-1.05 1.5-4.275 1.575-5.85.675-1.725-.75-2.175-4.05-2.175-4.05s.975-1.35-.975-1.425-.9 1.425-.9 1.425c-.45 1.8-.825 3.975-3.3 4.5s-3.825-.375-4.425-.75-1.05-1.8-1.05-1.8-1.125.3-1.95-.75-.075-2.1-.075-2.1l-.075-.675c.6-.225 1.65-.525 1.65-.525s-.375-1.35-1.05-3.6 1.2-3.3 1.2-3.3c-.375-.675-2.1.675-2.1.675 2.25-4.5 4.125-4.95 3.825-4.95-.225 0-1.05-.15-1.425-.6s-.75-.675-.75-.675c2.85.15 3.825-.45 3.825-.45-2.25-1.2-2.4-2.175-2.4-2.175 3.15.825 5.7-.75 9.675-.75s6.45 2.85 6.45 2.85c.975-1.35 2.025-.825 2.025-.825-1.275.3-.9 1.35-.9 1.35s1.275 1.05 2.325 2.775c1.05 1.875.825 4.2.3 5.625s-1.05 3.975-1.05 3.975c2.1.6 1.95.75 1.95.75.075.225-.075.75-.075.75zm-20.475-.675s.825.675.675 1.725c-.075 1.05-.975 1.425-.975 1.425s.6 1.725 1.725 2.025c.675.3 2.4.525 3.975-.225 1.725-1.05 1.575-3.375 1.575-3.375s.375-2.7-3.525-2.55c0 0-2.325-.075-3.3.6zm15.975-6.15s-5.1 2.4-15.45.225c0 0-.225 2.925-.225 4.575 0 0 1.2-.45 3-.45s3.375.375 4.05 1.2l.375-.225h2.175l.375.225s1.275-1.125 3.825-1.125 2.775.3 2.775.3-.675-1.875-.9-4.725zm.975 8.25c-.3-1.05.3-1.8.3-1.8l-.225-.9c-1.95-.6-4.35-.45-5.4.15s-.975 1.95-.975 1.95c-.15 2.7 1.8 3.6 1.8 3.6s3 .975 4.575-.525c.525-.525.825-1.425.825-1.425s-.525-.15-.9-1.05z"/></svg>