<!-- Generated by IcoMoon.io -->
<svg version="1.1" xmlns="http://www.w3.org/2000/svg" width="24" height="24" viewBox="0 0 24 24">
<title>programmerindia</title>
<path d="M23.775 17.925c0.15 0.075 0.525 0.975-0.15 1.95-0.75 1.050-1.875 0.675-1.875 0.675s-0.075 0.525-0.675 1.425c-1.050 1.5-4.275 1.575-5.85 0.675-1.725-0.75-2.175-4.050-2.175-4.050s0.975-1.35-0.975-1.425c-1.95-0.075-0.9 1.425-0.9 1.425-0.45 1.8-0.825 3.975-3.3 4.5s-3.825-0.375-4.425-0.75-1.050-1.8-1.050-1.8-1.125 0.3-1.95-0.75-0.075-2.1-0.075-2.1l-0.075-0.675c0.6-0.225 1.65-0.525 1.65-0.525s-0.375-1.35-1.050-3.6 1.2-3.3 1.2-3.3c-0.375-0.675-2.1 0.675-2.1 0.675 2.25-4.5 4.125-4.95 3.825-4.95-0.225 0-1.050-0.15-1.425-0.6s-0.75-0.675-0.75-0.675c2.85 0.15 3.825-0.45 3.825-0.45-2.25-1.2-2.4-2.175-2.4-2.175 3.15 0.825 5.7-0.75 9.675-0.75s6.45 2.85 6.45 2.85c0.975-1.35 2.025-0.825 2.025-0.825-1.275 0.3-0.9 1.35-0.9 1.35s1.275 1.050 2.325 2.775c1.050 1.875 0.825 4.2 0.3 5.625s-1.050 3.975-1.050 3.975c2.1 0.6 1.95 0.75 1.95 0.75 0.075 0.225-0.075 0.75-0.075 0.75zM3.3 17.25s0.825 0.675 0.675 1.725c-0.075 1.050-0.975 1.425-0.975 1.425s0.6 1.725 1.725 2.025c0.675 0.3 2.4 0.525 3.975-0.225 1.725-1.050 1.575-3.375 1.575-3.375s0.375-2.7-3.525-2.55c0 0-2.325-0.075-3.3 0.6l-0.15 0.375zM19.275 11.1s-5.1 2.4-15.45 0.225c0 0-0.225 2.925-0.225 4.575 0 0 1.2-0.45 3-0.45s3.375 0.375 4.050 1.2l0.375-0.225h2.175l0.375 0.225s1.275-1.125 3.825-1.125 2.775 0.3 2.775 0.3-0.675-1.875-0.9-4.725zM20.25 19.35c-0.3-1.050 0.3-1.8 0.3-1.8l-0.225-0.9c-1.95-0.6-4.35-0.45-5.4 0.15s-0.975 1.95-0.975 1.95c-0.15 2.7 1.8 3.6 1.8 3.6s3 0.975 4.575-0.525c0.525-0.525 0.825-1.425 0.825-1.425s-0.525-0.15-0.9-1.050z"></path>
</svg>
