<svg xmlns="http://www.w3.org/2000/svg" width="24" height="24"><path fill="#369" d="M0 0v24h24V0zm10.34 5.1c.083.014.114.096.156.158.054.354.1.71.154 1.065.157-.162.31-.328.49-.464.867-.666 2.05-.94 3.11-.63.72.21 1.315.72 1.756 1.316.187.263.348.547.45.855.198.582.225 1.206.198 1.815-.053 1.12-.433 2.244-1.169 3.103a4.026 4.026 0 0 1-2.597 1.408l-.019.002a4.404 4.404 0 0 1-2.217-.328l.029.011c.019 1.01.032 2.018.038 3.028.021.465-.021.938.087 1.396.031.14.123.292.28.308.302.036.608.013.912.02.057 0 .13.037.126.101.004.186.009.373-.004.56-.046.092-.17.07-.255.072a44.82 44.82 0 0 0-4.545.004l.108-.004-.07-.056c-.004-.22-.063-.467.034-.671.3-.035.606.02.904-.032.191-.048.268-.26.295-.434.04-.32.027-.642.042-.963V8.348c0-.156.006-.31-.008-.465a.891.891 0 0 0-.338-.655l-.002-.001c-.203-.158-.438-.265-.662-.388-.082-.052-.181-.097-.229-.187a.939.939 0 0 1 .009-.343l-.001.006c.056-.066.144-.086.219-.122.73-.315 1.456-.636 2.185-.952.17-.068.346-.144.534-.141zm1.99 1.146c-.053 0-.104 0-.156.013a2.12 2.12 0 0 0-1.489.854l-.004.006c.005 1.44 0 2.88.003 4.32.005.327.073.676.302.924.524.512 1.302.692 2.014.593.577-.096 1.037-.538 1.279-1.054.344-.736.395-1.571.335-2.371-.053-.655-.181-1.312-.449-1.915-.184-.407-.442-.793-.811-1.054a1.702 1.702 0 0 0-.993-.316h-.033.002z"/></svg>