<svg xmlns="http://www.w3.org/2000/svg" width="24" height="24"><path fill="#f60" d="M12.003.064C5.376.064 0 5.407 0 12s5.376 11.936 12.003 11.936c2.169 0 4.2-.57 5.955-1.57l.624 1.57h4.841l-1.893-4.679a11.765 11.765 0 0 0 2.47-7.24v-.018V12C24 5.407 18.63.064 12.003.064zM8.818 2.03c.398.339.324.198.86.134.61-.397.893.942 1.147.195.748.097 1.542.34 2.25.584a3.46 3.46 0 0 1 1.855 1.123l.004.005-.014.007.35.463c.045.08.082.164.12.248.142 1.205 1.48 1.19 2.377 1.625.767.272 1.69.686 1.785 1.611-.193-.042-.941-.921-1.53-1.007a3.922 3.922 0 0 1-1.12-.264l.026.009-2.068-.383v-.007a3.11 3.11 0 0 1-.329-.057l.02.004v.013l-2.927-.362c.048.033.1.077.148.12l3 .585v-.007l.209.053.839.188c.166.016.334.043.47.067.856.236 1.868.194 2.571.792-.184.352-1.21.153-1.719.108-.062-.012-.131-.023-.194-.034l-.034-.007c-.696-.113-1.411-.12-2.081.088h-.007a3.16 3.16 0 0 0-.685.31l.014-.008c-.968.563-2.164.767-2.967 1.577-.787.847-.739 2.012-.604 3.095h.033v.275c.013.095.028.19.04.282.41 2.19 1.5 4.2 1.84 6.412.065.843.203 1.932.309 2.618-.306-.091-.475-1.462-.544-1.007a38.243 38.243 0 0 0-3.62-5.32l.055.07c-.853-1.004-1.697-2.06-2.712-2.894-.685-.528-.468-1.55-.537-2.302-.23-.926-.094-1.848.06-2.773.313-.963.418-1.968.846-2.893.653-.581.669-1.63 1.303-2.135.094.058.157.085.2.1l.068.008h.007c.09-.095-.888-1.116.02-.712.035-.537.854-.128.866-.597zm3.847 2.182c-.323.009-.574.13-.645.335-.114.33.273.755.866.96.594.205 1.168.109 1.282-.221s-.272-.762-.866-.967a1.802 1.802 0 0 0-.619-.107h-.019.001z"/></svg>