<svg height="24" viewBox="0 0 24 24" width="24" xmlns="http://www.w3.org/2000/svg"><path d="m9.516 6.516v3h-3v-3zm1.5-1.5h-6v6h6zm-1.5 9.468v3h-3v-3zm1.5-1.5h-6v6h6zm6.468-6.468v3h-3v-3zm1.5-1.5h-6v6h6zm-6 7.968h1.5v1.5h-1.5zm1.5 1.5h1.5v1.5h-1.5zm1.5-1.5h1.5v1.5h-1.5zm-3 3h1.5v1.5h-1.5zm1.5 1.5h1.5v1.5h-1.5zm1.5-1.5h1.5v1.5h-1.5zm1.5-1.5h1.5v1.5h-1.5zm0 3h1.5v1.5h-1.5zm4.5-10.5h-1.969v-3h-3v-1.969h4.969zm0 15v-4.969h-1.969v3h-3v1.969zm-19.968 0h4.969v-1.969h-3v-3h-1.969zm0-19.968v4.969h1.969v-3h3v-1.969z"/></svg>