<svg xmlns="http://www.w3.org/2000/svg" width="24" height="24"><path fill="#3253dc" d="M12 0C6.229 0 1.576 4.486 1.576 10.474c0 6.004 4.653 10.474 10.424 10.474.984 0 1.935-.133 2.835-.384l1.134 2.919c.117.317.35.517.767.517h1.801c.434 0 .75-.284.55-.834l-1.468-3.819c2.885-1.818 4.803-5.037 4.803-8.889 0-5.971-4.653-10.457-10.424-10.457zm4.536 16.562l-1.318-3.419c-.117-.284-.35-.55-.851-.55h-1.718c-.434 0-.767.284-.567.834l1.734 4.486a7.15 7.15 0 0 1-1.818.217c-4.22 0-7.222-3.319-7.222-7.655S7.778 2.82 11.998 2.82s7.222 3.319 7.222 7.655c0 2.535-1.017 4.703-2.685 6.088z"/></svg>