<svg xmlns="http://www.w3.org/2000/svg" width="24" height="24"><path d="M12.565 5.647c-.847-.282-1.835 0-2.541.565s-1.129 1.412-1.129 2.4c0 .423.282.706.706.706s.706-.282.706-.706.141-.988.565-1.27.847-.423 1.412-.282c.706.141 1.129.706 1.27 1.271.141.706 0 1.271-.565 1.694a4.212 4.212 0 0 0-1.694 3.388c0 .423.282.706.706.706s.706-.282.565-.706c0-.847.565-1.694 1.27-2.259.988-.847 1.412-1.976 1.129-3.106-.282-1.27-1.27-2.118-2.4-2.4zm-1.13 11.435c-.141.141-.141.423-.141.565s0 .282.141.423.423.282.565.282.423-.141.423-.282c.141 0 .282-.282.282-.423 0-.282-.141-.423-.282-.565a.683.683 0 0 0-.988 0zM12 0C5.364 0 0 5.364 0 12s5.364 12 12 12 12-5.364 12-12S18.636 0 12 0zm0 22.588c-5.789 0-10.588-4.8-10.588-10.588S6.212 1.412 12 1.412 22.588 6.212 22.588 12 17.788 22.588 12 22.588z"/></svg>