<svg xmlns="http://www.w3.org/2000/svg" width="24" height="24"><path d="M12 0C5.381 0 0 5.381 0 12s5.381 12 12 12 12-5.381 12-12S18.619 0 12 0zm0 22.5C6.21 22.5 1.5 17.79 1.5 12S6.21 1.5 12 1.5 22.5 6.21 22.5 12 17.79 22.5 12 22.5zm.203-18.589a5.38 5.38 0 0 0-5.374 5.37c0 .413.337.75.75.75s.75-.337.75-.75a3.875 3.875 0 0 1 3.874-3.87c2.134 0 3.87 1.736 3.87 3.87s-1.736 3.87-3.87 3.87a.752.752 0 0 0-.75.75V16.8c0 .413.337.75.75.75s.75-.337.75-.75v-2.201a5.383 5.383 0 0 0 4.62-5.321 5.375 5.375 0 0 0-5.37-5.366zm.821 15.739a.82.82 0 1 1-1.642 0 .82.82 0 0 1 1.642 0z"/></svg>