<!-- Generated by IcoMoon.io -->
<svg version="1.1" xmlns="http://www.w3.org/2000/svg" width="24" height="24" viewBox="0 0 24 24">
<title>question-circle</title>
<path d="M12.565 5.647c-0.847-0.282-1.835 0-2.541 0.565s-1.129 1.412-1.129 2.4c0 0.423 0.282 0.706 0.706 0.706s0.706-0.282 0.706-0.706 0.141-0.988 0.565-1.27 0.847-0.423 1.412-0.282c0.706 0.141 1.129 0.706 1.27 1.271 0.141 0.706 0 1.271-0.565 1.694-1.129 0.847-1.694 2.118-1.694 3.388 0 0.423 0.282 0.706 0.706 0.706s0.706-0.282 0.565-0.706c0-0.847 0.565-1.694 1.27-2.259 0.988-0.847 1.412-1.976 1.129-3.106-0.282-1.27-1.27-2.118-2.4-2.4zM11.435 17.082c-0.141 0.141-0.141 0.423-0.141 0.565s0 0.282 0.141 0.423 0.423 0.282 0.565 0.282 0.423-0.141 0.423-0.282c0.141 0 0.282-0.282 0.282-0.423 0-0.282-0.141-0.423-0.282-0.565-0.282-0.282-0.706-0.282-0.988 0zM12 0c-6.636 0-12 5.364-12 12s5.364 12 12 12 12-5.364 12-12-5.364-12-12-12zM12 22.588c-5.789 0-10.588-4.8-10.588-10.588s4.8-10.588 10.588-10.588 10.588 4.8 10.588 10.588-4.8 10.588-10.588 10.588z"></path>
</svg>
