<svg xmlns="http://www.w3.org/2000/svg" width="24" height="24"><path fill="#f27557" d="M22.154 22.154H11.959a10.033 10.033 0 0 1-7.354-3.195l-.005-.006C2.66 16.89 1.69 14.19 1.868 11.35c.315-5.091 4.39-9.168 9.482-9.484.22-.014.44-.02.657-.02h.03c2.681 0 5.116 1.049 6.919 2.758l-.005-.004a10.033 10.033 0 0 1 3.202 7.36v.042V12zm-1.938-18.9C17.778.963 14.59-.186 11.236.024 5.218.399.398 5.219.024 11.237c-.207 3.353.94 6.543 3.231 8.98A12.015 12.015 0 0 0 11.999 24h11.078c.51 0 .923-.413.923-.922V12a12.019 12.019 0 0 0-3.778-8.74l-.006-.005zm-4.062 11.977H7.846a.923.923 0 1 0 0 1.846h8.308a.923.923 0 1 0 0-1.846zM7.846 8.77h8.308a.924.924 0 1 0 0-1.848H7.846a.924.924 0 1 0 0 1.848zm-2.769 2.308a.923.923 0 0 0-.002 1.844h13.848a.923.923 0 1 0 0-1.846z"/></svg>