<svg xmlns="http://www.w3.org/2000/svg" width="24" height="24"><path fill="#f5cd0e" d="M14.346 18.205c2.428-.967 4.112-3.297 4.112-6.021A6.464 6.464 0 0 0 12 5.72h-.005A6.462 6.462 0 0 0 9.61 18.19l.044.015a.69.69 0 0 0 .961-.623v-5.401a1.385 1.385 0 1 1 2.77 0v5.4a.692.692 0 0 0 .966.621l-.005.002zm.809 5.558C20.252 22.378 24 17.718 24 12.182c0-6.627-5.373-12-12-12s-12 5.373-12 12c0 5.536 3.748 10.196 8.845 11.581l.044.012.005.001.059.016.001-.002a1.385 1.385 0 0 0 .645-2.693l-.01-.002c-3.961-1.097-6.821-4.67-6.821-8.911a9.231 9.231 0 1 1 11.71 8.894l-.065.015a1.385 1.385 0 1 0 .644 2.693l-.009.002.001.002.059-.016z"/></svg>