<svg xmlns="http://www.w3.org/2000/svg" width="24" height="24"><path fill="#276dc3" d="M12 18.82c-6.627 0-12-3.598-12-8.037s5.373-8.037 12-8.037 12 3.599 12 8.037-5.373 8.037-12 8.037zm1.837-12.932c-5.038 0-9.121 2.46-9.121 5.495s4.083 5.494 9.12 5.494 8.756-1.682 8.756-5.494-3.718-5.495-8.755-5.495zm4.438 9.306a8.92 8.92 0 0 1 1.205.456l-.056-.023c.224.112.416.251.582.416.104.11.193.236.262.374l.004.009 2.863 4.826-4.627.002-2.163-4.063a5.256 5.256 0 0 0-.719-.985l.003.003a.75.75 0 0 0-.548-.25h-1.1v5.292l-4.093.001V7.737h8.221s3.744.067 3.744 3.63v.013a3.823 3.823 0 0 1-3.567 3.814l-.011.001zm-1.78-4.526l-2.479-.001v2.298h2.494c.626 0 1.134-.508 1.134-1.134l-.001-.038v.002l.002-.06a1.07 1.07 0 0 0-1.153-1.067h.004z"/></svg>