<svg xmlns="http://www.w3.org/2000/svg" width="24" height="24"><path fill="#c00" d="M20.885 15.811v1.164h1.982c.406 0 1.103-.315 1.127-1.196v-.45c0-.752-.582-1.196-1.127-1.196h-.988v-.54h1.958v-1.17h-1.879c-.485 0-1.133.424-1.133 1.215v.405c0 .791.642 1.196 1.133 1.196 1.364.006-.327 0 .933 0v.566zm-10.618-.283s1.061-.096 1.061-1.549-1.285-1.588-1.285-1.588H7.728v4.584h1.164v-1.106l1.006 1.106h1.721zm-.449-.939h-.927v-1.048h.933s.261.103.261.521-.267.527-.267.527zm4.382-2.166h-1.182c-.842 0-1.127.81-1.127 1.196v3.356h1.182v-.804h1.109v.804h1.146v-3.356c0-.977-.836-1.196-1.127-1.196zm-.018 2.449h-1.115V13.76s0-.251.37-.251h.406c.327 0 .333.251.333.251v1.112zm1.685-2.449h1.23v4.551h-1.23zm2.957 3.375v-3.375H17.6v4.551h2.879v-1.176zm-18.4 1.176h4.788s-.915-4.429 2.115-6.223c.661-.341 2.764-1.614 6.206 1.086.109-.096.212-.174.212-.174s-3.152-3.336-6.661-2.964c-1.764.167-3.933 1.871-5.206 4.121S.423 16.973.423 16.973zm0 0h4.788s-.915-4.429 2.115-6.223c.661-.341 2.764-1.614 6.206 1.086.109-.096.212-.174.212-.174s-3.152-3.336-6.661-2.964c-1.764.167-3.933 1.871-5.206 4.121S.423 16.973.423 16.973zm0 0h4.788s-.915-4.429 2.115-6.223c.661-.341 2.764-1.614 6.206 1.086.109-.096.212-.174.212-.174s-3.152-3.336-6.661-2.964c-1.77.167-3.939 1.871-5.212 4.121S.423 16.973.423 16.973zM10.4 9.061l.024-.431c-.054-.032-.206-.109-.588-.225l-.024.424c.2.071.394.148.588.231zm-.576 1.363l-.024.405c.2.006.4.032.6.077l.024-.399a4.079 4.079 0 0 0-.6-.084zM7.582 8.418h.061l-.121-.392c-.188 0-.382.013-.582.039l.115.379c.176-.019.351-.026.527-.026zm.291 2.366l.139.444c.176-.09.351-.167.527-.225l-.133-.424a4.118 4.118 0 0 0-.533.206zM5.121 9.093l-.273-.444c-.151.084-.309.174-.473.276l.279.45c.158-.103.309-.199.467-.283zm1.243 2.893l.291.463c.103-.161.224-.309.358-.456l-.273-.437a3.506 3.506 0 0 0-.376.431zm-.879 2.07l.491.411c.024-.251.067-.501.127-.752l-.436-.366a6.51 6.51 0 0 0-.182.707zM2.83 11.002l-.43-.399c-.158.161-.309.321-.449.482l.467.424c.127-.174.267-.347.412-.508zM1 13.876l-.697-.27a17.98 17.98 0 0 0-.303.771l.697.27c.079-.219.206-.534.303-.771zm4.394 1.813c.012.341.042.617.073.81l.727.276a9.395 9.395 0 0 1-.146-.836z"/></svg>