<svg xmlns="http://www.w3.org/2000/svg" width="24" height="24"><path fill="#61dafb" d="M12 9.861a2.14 2.14 0 0 0 0 4.278 2.14 2.14 0 0 0 0-4.278zm-5.992 6.394l-.472-.12C2.018 15.246 0 13.737 0 11.996s2.018-3.25 5.536-4.139l.472-.119.133.468a23.278 23.278 0 0 0 1.424 3.718l-.061-.14.101.213-.101.213a22.093 22.093 0 0 0-1.321 3.413l-.042.165zM5.317 8.95c-2.674.751-4.315 1.9-4.315 3.046 0 1.145 1.641 2.294 4.315 3.046a24.48 24.48 0 0 1 1.247-3.197l-.065.151a22.919 22.919 0 0 1-1.133-2.871l-.049-.175zm12.675 7.305l-.133-.469a23.145 23.145 0 0 0-1.425-3.715l.061.138-.101-.213.101-.213c.492-.997.956-2.183 1.322-3.412l.042-.166.133-.468.473.119c3.517.889 5.535 2.398 5.535 4.14s-2.018 3.25-5.535 4.139zm-.491-4.259c.48 1.039.877 2.06 1.182 3.046 2.675-.752 4.315-1.901 4.315-3.046s-1.641-2.294-4.315-3.046a24.326 24.326 0 0 1-1.246 3.196l.064-.15zM5.31 8.945l-.133-.467C4.188 4.992 4.488 2.494 6 1.622c1.483-.856 3.864.155 6.359 2.716l.34.349-.34.349a23.61 23.61 0 0 0-2.371 2.89l-.051.077-.135.193-.235.02a23.703 23.703 0 0 0-3.948.645l.163-.035zm1.896-6.63c-.268 0-.505.058-.705.173-.994.573-1.17 2.565-.485 5.253a23.411 23.411 0 0 1 3.135-.494l.098-.007a25.07 25.07 0 0 1 2.067-2.561l-.015.017c-1.56-1.519-3.037-2.381-4.095-2.381zm9.589 20.362c-.001 0-.001 0 0 0-1.425 0-3.255-1.073-5.154-3.023l-.34-.349.34-.349a23.613 23.613 0 0 0 2.37-2.891l.051-.077.135-.193.234-.02a23.642 23.642 0 0 0 3.95-.644l-.163.035.472-.119.134.468c.987 3.484.688 5.983-.824 6.854a2.351 2.351 0 0 1-1.171.308h-.035.002zm-4.096-3.381c1.56 1.519 3.037 2.381 4.095 2.381h.001c.267 0 .505-.058.704-.173.994-.573 1.171-2.566.485-5.254-.909.214-2.012.391-3.137.494l-.098.007a24.838 24.838 0 0 1-2.066 2.562l.015-.017zM18.69 8.945l-.472-.119a22.333 22.333 0 0 0-3.704-.605l-.083-.005-.234-.02-.135-.193a23.523 23.523 0 0 0-2.428-2.974l.007.007-.34-.349.34-.349C14.135 1.778 16.515.767 18 1.622c1.512.872 1.812 3.37.824 6.855zM14.75 7.24c1.142.104 2.227.273 3.234.501.686-2.688.509-4.68-.485-5.253-.988-.571-2.845.304-4.8 2.208a24.73 24.73 0 0 1 1.999 2.467l.052.077zM7.206 22.677h-.035c-.431 0-.835-.114-1.183-.314l.012.006c-1.512-.871-1.812-3.369-.823-6.854l.132-.468.472.119c1.155.291 2.429.496 3.785.609l.235.02.134.193a23.871 23.871 0 0 0 2.429 2.976l-.007-.008.34.349-.34.349c-1.898 1.95-3.728 3.023-5.151 3.023zm-1.19-6.427c-.686 2.688-.509 4.681.485 5.254.987.563 2.843-.305 4.8-2.208a24.92 24.92 0 0 1-2-2.468l-.052-.077a25.178 25.178 0 0 1-3.401-.533l.168.032zm5.984.628c-.823 0-1.669-.036-2.516-.106l-.235-.02-.135-.193a28.907 28.907 0 0 1-1.273-1.979l-.077-.143a26.912 26.912 0 0 1-1.087-2.046l-.079-.182-.1-.213.1-.213a29 29 0 0 1 1.243-2.371l-.077.143c.414-.716.869-1.43 1.35-2.122l.135-.193.235-.02a30.466 30.466 0 0 1 5.146.008l-.112-.008.234.02.134.193a29.31 29.31 0 0 1 2.439 4.17l.078.18.101.213-.101.213a29.416 29.416 0 0 1-2.579 4.443l.062-.093-.134.193-.234.02c-.847.07-1.694.106-2.517.106zm-2.197-1.084c1.48.111 2.914.111 4.395 0a28.106 28.106 0 0 0 2.12-3.627l.076-.171a28.333 28.333 0 0 0-2.259-3.893l.062.095a29.106 29.106 0 0 0-4.494.007l.1-.006a27.702 27.702 0 0 0-2.123 3.63l-.074.168a28.884 28.884 0 0 0 2.26 3.895l-.063-.097z"/></svg>