<svg xmlns="http://www.w3.org/2000/svg" width="24" height="24"><path fill="#39477f" d="M12.004.059a12.084 12.084 0 0 0-8.485 3.506l.001-.001v.002C1.295 5.79.004 8.887.004 12.03c0 3.142 1.285 6.244 3.516 8.465l.001.002a12.125 12.125 0 0 0 8.475 3.505h.008c3.148 0 6.255-1.283 8.482-3.508l.002-.002a12.044 12.044 0 0 0 3.516-8.454v-.007c0-3.141-1.287-6.243-3.518-8.465a12.074 12.074 0 0 0-8.48-3.507h-.002zm0 1.336c.48 0 .96.046 1.435.113-2.03.566-3.765 1.622-5.554 1.949a7.393 7.393 0 0 1-2.263.041l.038.004c1.826-1.338 4.084-2.107 6.344-2.107zm4.135 1.072c.173 0 .348.011.521.023a10.623 10.623 0 0 1 2.884 2.023l-.001-.001c.092.091.173.194.262.289a10.137 10.137 0 0 1-4.424 1.178h-.018c-2.43.06-4.958-.794-7.69-.823h-.085c-1.534 0-3.004.273-4.365.773l.088-.028c.32-.457.672-.893 1.062-1.293 1.223.322 2.5.39 3.748.164h.002c2.264-.412 4.133-1.625 6.049-2.08a8.157 8.157 0 0 1 1.921-.224h.049-.003zm4.535 3.404a10.723 10.723 0 0 1 1.41 2.748l.023.076a11.21 11.21 0 0 0-1.35-.644h-.001a11.103 11.103 0 0 0-4.111-.774c-.89 0-1.755.103-2.586.297l.076-.015h-.003c-1.489.344-2.841.967-4.154 1.523-.468.198-.933.383-1.399.553a10.06 10.06 0 0 0-1.396-.252l-.049-.004h-.002a9.538 9.538 0 0 0-4.26.571l.066-.022a8.048 8.048 0 0 1-1.287-.556l.043.021c.159-.61.34-1.129.557-1.627l-.027.07c1.671-.877 3.552-1.364 5.433-1.344 2.445.026 4.992.89 7.738.822h.004a11.58 11.58 0 0 0 5.333-1.473l-.059.03zm-4.031 2.742c1.233 0 2.463.229 3.625.682a9.91 9.91 0 0 1 2.308 1.299l-.025-.018c.036.252.064.504.082.758a10.71 10.71 0 0 0-2.648-.336c-.996 0-1.959.142-2.87.406l.073-.018c-.697.198-1.353.463-1.989.759-1.087-.371-2.166-.86-3.277-1.336a17.88 17.88 0 0 0-1.085-.456l-.239-.082c1.3-.552 2.554-1.113 3.834-1.41a9.695 9.695 0 0 1 2.21-.248h.001zM5.877 10.676c.374-.016.75-.005 1.125.031 1.475.148 2.935.704 4.393 1.33.717.309 1.453.625 2.203.928-1.1.604-2.156 1.225-3.237 1.701-1.05-.394-2.131-.758-3.302-.918-1.835-.25-3.717.06-5.387.828a10.14 10.14 0 0 1-.32-2.285v-.015c.403-.3.828-.57 1.28-.79a8.12 8.12 0 0 1 3.228-.809l.017-.001zm14.463 1.666c.775.029 1.547.16 2.29.379-.05.698-.158 1.344-.321 1.968l.017-.074c-.67.438-1.383.807-2.139 1.08-1.828.657-3.85.79-5.75.373-.78-.17-1.557-.45-2.341-.75 1.889-.973 3.598-2.119 5.457-2.646h.002a8.748 8.748 0 0 1 2.802-.33l-.018-.001zM5.508 15.006a8.13 8.13 0 0 1 1.369.066c2.354.322 4.617 1.718 7.275 2.301.357.078.717.134 1.078.178-.35.1-.698.21-1.043.332v.002h-.001c-1.283.462-2.455 1.042-3.637 1.388-2.151.625-4.443.54-6.543-.23a10.707 10.707 0 0 1-1.901-3.107l-.025-.073a8.47 8.47 0 0 1 3.411-.856l.017-.001zm16.144 1.5c-.067.145-.133.291-.207.433-.221-.017-.442-.039-.664-.048.298-.112.584-.251.871-.385zm-1.7 1.703a16.2 16.2 0 0 1 .696.016c-.333.465-.696.912-1.105 1.324h-.002v.002c-1.966 1.963-4.754 3.113-7.535 3.113a10.772 10.772 0 0 1-5.835-1.75l.042.025c1.57.189 3.173.065 4.71-.382h.003c1.332-.391 2.526-.987 3.71-1.414 1.581-.582 3.407-.923 5.311-.934h.005z"/></svg>