<!-- Generated by IcoMoon.io -->
<svg version="1.1" xmlns="http://www.w3.org/2000/svg" width="24" height="24" viewBox="0 0 24 24">
<title>reddit1</title>
<path d="M22.575 15c0.075 0.3 0.075 0.675 0.075 0.975 0 4.050-4.8 7.275-10.65 7.275s-10.65-3.225-10.65-7.275c0-0.3 0-0.675 0.075-0.975-0.825-0.45-1.425-1.35-1.425-2.325 0-1.425 1.2-2.625 2.7-2.625 0.75 0 1.35 0.3 1.875 0.75 1.8-1.2 4.275-1.95 6.9-2.1 0.225-1.35 1.050-6.675 1.2-7.35 0.15-0.825 0.975-0.525 0.975-0.525l3.975 0.9c0.375-0.6 0.975-0.975 1.725-0.975 1.125 0 2.025 0.9 2.025 1.95s-0.9 1.95-2.025 1.95c-0.975 0-1.8-0.75-1.95-1.65l-3.45-0.75-1.050 6.45c2.55 0.15 4.875 0.9 6.6 2.025 0.45-0.45 1.125-0.75 1.875-0.75 1.5 0 2.7 1.2 2.7 2.625-0.075 1.050-0.675 1.95-1.5 2.4zM8.7 12.675c-1.125 0-2.025 0.9-2.025 1.95 0 1.125 0.9 1.95 2.025 1.95s2.025-0.9 2.025-1.95c-0.075-1.050-0.975-1.95-2.025-1.95zM15.3 12.675c-1.125 0-2.025 0.9-2.025 1.95 0 1.125 0.9 1.95 2.025 1.95s2.025-0.9 2.025-1.95c0-1.050-0.9-1.95-2.025-1.95zM17.175 18.75c-0.45-0.45-0.9 0-1.050 0.15s-1.65 0.975-4.050 0.975-4.050-1.050-4.050-1.050-0.6-0.525-1.050 0c0 0-0.375 0.375 0 0.9s2.625 1.5 5.175 1.5c0 0 3.675 0.075 5.175-1.575-0.15 0.075 0.3-0.45-0.15-0.9z"></path>
</svg>
