<svg xmlns="http://www.w3.org/2000/svg" width="24" height="24"><path d="M22.575 15c.075.3.075.675.075.975 0 4.05-4.8 7.275-10.65 7.275S1.35 20.025 1.35 15.975c0-.3 0-.675.075-.975C.6 14.55 0 13.65 0 12.675c0-1.425 1.2-2.625 2.7-2.625.75 0 1.35.3 1.875.75 1.8-1.2 4.275-1.95 6.9-2.1.225-1.35 1.05-6.675 1.2-7.35.15-.825.975-.525.975-.525l3.975.9C18 1.125 18.6.75 19.35.75c1.125 0 2.025.9 2.025 1.95s-.9 1.95-2.025 1.95c-.975 0-1.8-.75-1.95-1.65l-3.45-.75L12.9 8.7c2.55.15 4.875.9 6.6 2.025.45-.45 1.125-.75 1.875-.75 1.5 0 2.7 1.2 2.7 2.625-.075 1.05-.675 1.95-1.5 2.4zM8.7 12.675c-1.125 0-2.025.9-2.025 1.95 0 1.125.9 1.95 2.025 1.95s2.025-.9 2.025-1.95c-.075-1.05-.975-1.95-2.025-1.95zm6.6 0c-1.125 0-2.025.9-2.025 1.95 0 1.125.9 1.95 2.025 1.95s2.025-.9 2.025-1.95c0-1.05-.9-1.95-2.025-1.95zm1.875 6.075c-.45-.45-.9 0-1.05.15s-1.65.975-4.05.975-4.05-1.05-4.05-1.05-.6-.525-1.05 0c0 0-.375.375 0 .9s2.625 1.5 5.175 1.5c0 0 3.675.075 5.175-1.575-.15.075.3-.45-.15-.9z"/></svg>