<svg xmlns="http://www.w3.org/2000/svg" width="24" height="24"><path fill="#e00" d="M16.009 13.386c1.577 0 3.86-.326 3.86-2.202l.001-.054c0-.134-.015-.264-.043-.389l.002.012-.94-4.08c-.216-.898-.406-1.305-1.982-2.093-1.223-.625-3.888-1.658-4.676-1.658-.733 0-.947.946-1.822.946-.842 0-1.467-.706-2.255-.706-.757 0-1.25.515-1.63 1.576 0 0-1.06 2.99-1.197 3.424a.795.795 0 0 0-.028.246v-.002c0 1.162 4.577 4.974 10.71 4.974zm4.101-1.44c.218 1.032.218 1.14.218 1.277 0 1.765-1.984 2.745-4.593 2.745-5.895.004-11.06-3.451-11.06-5.734v-.004c0-.333.07-.649.196-.936l-.006.015C2.746 9.415 0 9.794 0 12.217c0 3.969 9.405 8.861 16.851 8.861 5.71 0 7.149-2.582 7.149-4.62 0-1.605-1.387-3.425-3.887-4.512z"/></svg>