<svg xmlns="http://www.w3.org/2000/svg" width="24" height="24"><path d="M23.621 15.874l-3.439 1.995-.03.011c-.03.015-.064.026-.094.038-.034.011-.064.023-.098.03-.03.008-.06.008-.094.011a.441.441 0 0 1-.071.008c-.015 0-.026-.004-.037-.004s-.023.004-.038 0c-.019-.004-.038-.011-.052-.011a1.435 1.435 0 0 1-.109-.026l-.086-.034c-.034-.015-.064-.034-.094-.052-.026-.019-.053-.038-.075-.056a.922.922 0 0 1-.139-.15c-.008-.015-.023-.023-.03-.038-.008-.011-.008-.023-.011-.034-.011-.023-.026-.041-.038-.064l-1.369-3.371a.76.76 0 0 1 1.41-.566l.701 1.729c.469-1.56.413-3.165.413-3.21 0-5.141-4.2-9.323-9.364-9.323-5.153 0-9.356 4.181-9.356 9.323s4.2 9.322 9.364 9.322a.759.759 0 0 1 0 1.516c-6 .004-10.886-4.86-10.886-10.838S4.885 1.239 10.889 1.239s10.89 4.864 10.89 10.811c.004.094.06 1.669-.39 3.364l1.466-.851c.364-.21.829-.09 1.042.274s.086.829-.277 1.039z"/></svg>