<!-- Generated by IcoMoon.io -->
<svg version="1.1" xmlns="http://www.w3.org/2000/svg" width="24" height="24" viewBox="0 0 24 24">
<title>redo1</title>
<path d="M23.621 15.874l-3.439 1.995c-0.011 0.004-0.019 0.008-0.030 0.011-0.030 0.015-0.064 0.026-0.094 0.038-0.034 0.011-0.064 0.023-0.098 0.030-0.030 0.008-0.060 0.008-0.094 0.011-0.023 0.004-0.049 0.008-0.071 0.008-0.015 0-0.026-0.004-0.037-0.004s-0.023 0.004-0.038 0c-0.019-0.004-0.038-0.011-0.052-0.011-0.038-0.008-0.071-0.015-0.109-0.026-0.030-0.011-0.056-0.023-0.086-0.034-0.034-0.015-0.064-0.034-0.094-0.052-0.026-0.019-0.053-0.038-0.075-0.056-0.026-0.023-0.049-0.045-0.075-0.071-0.023-0.026-0.045-0.052-0.064-0.079-0.008-0.015-0.023-0.023-0.030-0.038-0.008-0.011-0.008-0.023-0.011-0.034-0.011-0.023-0.026-0.041-0.038-0.064l-1.369-3.371c-0.157-0.39 0.030-0.829 0.42-0.986s0.832 0.030 0.99 0.42l0.701 1.729c0.469-1.56 0.413-3.165 0.413-3.21 0-5.141-4.2-9.323-9.364-9.323-5.153 0-9.356 4.181-9.356 9.323s4.2 9.322 9.364 9.322c0.42 0 0.761 0.341 0.761 0.758 0 0.42-0.341 0.758-0.761 0.758-6 0.004-10.886-4.86-10.886-10.838s4.886-10.841 10.89-10.841 10.89 4.864 10.89 10.811c0.004 0.094 0.060 1.669-0.39 3.364l1.466-0.851c0.364-0.21 0.829-0.090 1.042 0.274s0.086 0.829-0.277 1.039z"></path>
</svg>
