<svg xmlns="http://www.w3.org/2000/svg" width="24" height="24"><path d="M12.518 3.787c.023 0 1.609-.056 3.165.409l-1.725.697a.755.755 0 0 0 .566 1.398l3.356-1.354c.015-.007.03-.019.045-.026s.038-.011.052-.023c.011-.007.015-.015.026-.022a.75.75 0 0 0 .311-.409c.008-.022.011-.045.015-.067.004-.026.015-.053.019-.079.004-.045-.004-.086-.004-.127-.004-.019 0-.037-.004-.056a.697.697 0 0 0-.082-.244c-.004-.007-.004-.015-.008-.023L16.262.456a.761.761 0 0 0-1.035-.274.758.758 0 0 0-.274 1.031l.848 1.455a12.362 12.362 0 0 0-3.319-.386c-5.951 0-10.793 4.841-10.793 10.789a.755.755 0 0 0 1.508 0c.004-5.119 4.17-9.281 9.319-9.285zm8.632 6.387a.754.754 0 0 0-.754.754c0 5.119-4.163 9.281-9.311 9.281-.019 0-1.609.056-3.165-.409l1.721-.697a.753.753 0 1 0-.566-1.398l-3.356 1.354c-.023.008-.041.026-.06.037-.011.004-.022.004-.037.011-.011.008-.015.015-.026.023a.73.73 0 0 0-.195.176.728.728 0 0 0-.112.233c-.008.023-.011.045-.019.067-.004.026-.015.052-.019.079a.524.524 0 0 0 .007.131c0 .019 0 .034.004.052.011.09.041.173.083.248.004.008.004.015.007.023l1.984 3.405a.755.755 0 0 0 1.305-.757l-.848-1.455c1.32.349 2.565.394 3.075.394.143 0 .225-.004.244-.004 5.947 0 10.789-4.841 10.789-10.789a.745.745 0 0 0-.75-.758z"/></svg>