<!-- Generated by IcoMoon.io -->
<svg version="1.1" xmlns="http://www.w3.org/2000/svg" width="24" height="24" viewBox="0 0 24 24">
<title>refresh</title>
<path d="M12.518 3.787c0.023 0 1.609-0.056 3.165 0.409l-1.725 0.697c-0.386 0.157-0.574 0.596-0.416 0.982s0.6 0.574 0.982 0.416l3.356-1.354c0.015-0.007 0.030-0.019 0.045-0.026s0.038-0.011 0.052-0.023c0.011-0.007 0.015-0.015 0.026-0.022 0.15-0.098 0.259-0.24 0.311-0.409 0.008-0.022 0.011-0.045 0.015-0.067 0.004-0.026 0.015-0.053 0.019-0.079 0.004-0.045-0.004-0.086-0.004-0.127-0.004-0.019 0-0.037-0.004-0.056-0.011-0.086-0.041-0.169-0.082-0.244-0.004-0.007-0.004-0.015-0.008-0.023l-1.988-3.405c-0.21-0.36-0.671-0.48-1.035-0.274-0.36 0.21-0.48 0.671-0.274 1.031l0.848 1.455c-1.684-0.446-3.244-0.39-3.319-0.386-5.951 0-10.793 4.841-10.793 10.789 0 0.416 0.338 0.754 0.754 0.754s0.754-0.338 0.754-0.754c0.004-5.119 4.17-9.281 9.319-9.285zM21.15 10.174c-0.416 0-0.754 0.337-0.754 0.754 0 5.119-4.163 9.281-9.311 9.281-0.019 0-1.609 0.056-3.165-0.409l1.721-0.697c0.386-0.157 0.574-0.596 0.416-0.982s-0.596-0.574-0.982-0.416l-3.356 1.354c-0.023 0.008-0.041 0.026-0.060 0.037-0.011 0.004-0.022 0.004-0.037 0.011-0.011 0.008-0.015 0.015-0.026 0.023-0.075 0.049-0.143 0.105-0.195 0.176-0.053 0.068-0.086 0.15-0.112 0.233-0.008 0.023-0.011 0.045-0.019 0.067-0.004 0.026-0.015 0.052-0.019 0.079-0.004 0.045 0 0.086 0.007 0.131 0 0.019 0 0.034 0.004 0.052 0.011 0.090 0.041 0.173 0.083 0.248 0.004 0.008 0.004 0.015 0.007 0.023l1.984 3.405c0.139 0.24 0.394 0.375 0.652 0.375 0.127 0 0.259-0.034 0.379-0.101 0.36-0.21 0.48-0.671 0.274-1.031l-0.848-1.455c1.32 0.349 2.565 0.394 3.075 0.394 0.143 0 0.225-0.004 0.244-0.004 5.947 0 10.789-4.841 10.789-10.789 0.008-0.42-0.33-0.758-0.75-0.758z"></path>
</svg>
