<svg xmlns="http://www.w3.org/2000/svg" width="24" height="24"><path fill="#217dc6" d="M5.661 9.601V5.303C2.429 5.865.002 8.65.002 12.001c0 1.677.607 3.211 1.614 4.396l-.008-.01c2.378-1.152 4.041-3.755 4.053-6.786zm1.132 4.114c-.423 1.752-1.687 3.249-3.262 4.244a6.679 6.679 0 0 0 3.251.833h.011-.001.008a6.738 6.738 0 0 0 3.288-.851l-.034.018c-1.575-.995-2.838-2.493-3.261-4.244zm5.184-6.102a6.784 6.784 0 0 0-4.011-2.304l-.041-.006v4.265c0 3.044 1.666 5.662 4.051 6.817a6.732 6.732 0 0 1-1.607-4.378V11.986c0-1.673.608-3.204 1.616-4.384l-.008.009zm0 0c1.003 1.183 1.655 2.714 1.655 4.387s-.652 3.202-1.655 4.387c2.378-1.151 4.087-3.755 4.099-6.786V5.303a6.91 6.91 0 0 0-4.091 2.301l-.007.009zm6.363 1.955c0 3.045 1.666 5.662 4.052 6.818A6.795 6.795 0 0 0 18.381 5.31l-.041-.006zm-1.132 4.147c-.423 1.752-1.687 3.249-3.262 4.244a6.679 6.679 0 0 0 3.251.833h.011-.001.008a6.738 6.738 0 0 0 3.288-.851l-.035.018c-1.574-.995-2.838-2.493-3.261-4.244z"/></svg>