<svg xmlns="http://www.w3.org/2000/svg" width="24" height="24"><path d="M23.779 12.292l-9.085-7.519a.595.595 0 0 0-.638-.079.596.596 0 0 0-.344.545v3.902c-3.769-.015-9.531-.294-12.589-5.688C.99 3.217.711 3.1.446 3.168s-.447.309-.447.579c0 2.017.771 5.104 2.93 7.735 1.737 2.115 5.011 4.633 10.783 4.849v3.917a.602.602 0 0 0 .982.467l9.085-7.494A.606.606 0 0 0 24 12.76a.62.62 0 0 0-.221-.466zm-8.869 6.68v-3.225a.605.605 0 0 0-.594-.604c-8.638-.083-11.858-5.35-12.795-9.05 3.725 4.245 9.291 4.25 12.79 4.25a.601.601 0 0 0 .604-.604V6.514l7.534 6.238z"/></svg>