<!-- Generated by IcoMoon.io -->
<svg version="1.1" xmlns="http://www.w3.org/2000/svg" width="24" height="24" viewBox="0 0 24 24">
<title>reply1</title>
<path d="M23.779 12.292l-9.085-7.519c-0.182-0.147-0.427-0.182-0.638-0.079-0.211 0.098-0.344 0.309-0.344 0.545v3.902c-3.769-0.015-9.531-0.294-12.589-5.688-0.133-0.236-0.412-0.353-0.677-0.285s-0.447 0.309-0.447 0.579c0 2.017 0.771 5.104 2.93 7.735 1.737 2.115 5.011 4.633 10.783 4.849v3.917c0 0.231 0.133 0.447 0.344 0.545 0.083 0.039 0.167 0.059 0.255 0.059 0.137 0 0.275-0.049 0.383-0.137l9.085-7.494c0.137-0.113 0.221-0.285 0.221-0.461-0.005-0.182-0.083-0.353-0.221-0.466zM14.91 18.972v-3.225c0-0.329-0.265-0.599-0.594-0.604-8.638-0.083-11.858-5.35-12.795-9.050 3.725 4.245 9.291 4.25 12.79 4.25 0.157 0 0.314-0.064 0.427-0.177s0.177-0.265 0.177-0.427v-3.225l7.534 6.238z"></path>
</svg>
