<svg xmlns="http://www.w3.org/2000/svg" width="24" height="24"><path fill="#667881" d="M12.265.002a12.004 12.004 0 0 0-2.512.216l.075-.012c13.876 1.704 10.27 17.94 1.717 17.819 0 0 12.453 1.625 11.673-10.215C21.524 3.284 17.279.102 12.277.002h-.012zM8.213.827c-.2.002-.402.008-.61.016C3.13 2.607.023 6.891.023 11.901c0 .602.045 1.194.132 1.772l-.008-.065c2.784-14.029 18.659-9.486 17.754-.92 0 0 2.85-12.014-9.687-11.861zm1.454 5.035C6.002 5.886.691 7.45.816 16.344a12.081 12.081 0 0 0 2.893 4.326l.004.004c.052.051.108.1.162.149.343.317.714.621 1.102.902l.035.024c.061.044.12.092.181.135.371.258.8.516 1.246.748l.066.031c.132.068.266.13.4.193.313.154.71.318 1.116.461l.083.025c.1.034.195.077.297.109a11 11 0 0 0 1.419.343l.071.01c.153.027.307.05.461.07.469.072 1.015.116 1.57.123h.008l.06.003c.4 0 .792-.021 1.18-.06-13.949-3.327-8.645-18.924-.114-17.68 0 0-1.469-.41-3.389-.398zm2.436 2.762h-.001a3.355 3.355 0 1 0 3.355 3.356v-.001a3.355 3.355 0 0 0-3.354-3.355zm-5.95 2.192S2.82 23.09 16.172 23.196c4.214-1.597 7.251-5.387 7.738-9.939l.005-.053c.033-.319.043-.644.05-.97.001-.085.013-.168.013-.255 0-.371-.023-.737-.056-1.1-3.527 13.887-19.132 8.448-17.769-.063z"/></svg>