<svg xmlns="http://www.w3.org/2000/svg" width="24" height="24"><path d="M6.422 9.797Q2.953 6.328 2.859 6.281l1.406-1.453 3.563 3.563zm6.562-7.781v4.969h-1.969V2.016h1.969zm8.157 4.265l-3.563 3.516-1.406-1.406 3.563-3.563zm2.578 10.407q.281.281.281.703t-.281.703l-2.484 2.484q-.281.281-.703.281t-.703-.281q-1.313-1.219-2.672-1.875-.563-.234-.563-.891v-3.094q-2.156-.703-4.594-.703t-4.594.703v3.094q0 .703-.563.938-1.5.703-2.672 1.828-.281.281-.703.281t-.703-.281L.281 18.094Q0 17.813 0 17.391t.281-.703Q5.203 12 12 12q2.813 0 6.234 1.383t5.484 3.305z"/></svg>