<svg xmlns="http://www.w3.org/2000/svg" width="24" height="24"><path fill="#368bd6" d="M5.905 0a3.401 3.401 0 0 0-1.953.635l.01-.007.011-.007A3.435 3.435 0 0 0 2.634 4.35l-.006-.024-.005-.024v16.266c0 1.9 1.534 3.433 3.433 3.433s3.433-1.533 3.433-3.433v-3.433h1.865l3.768 5.383a3.41 3.41 0 0 0 4.777.843l-.011.007a3.407 3.407 0 0 0 .843-4.776l.007.01-2.385-3.407a8.541 8.541 0 0 0 3.135-6.617v-.01.001c0-4.733-3.866-8.566-8.583-8.566L5.906.001zm2.314.868h4.687c4.25.067 7.666 3.567 7.599 7.816a7.694 7.694 0 0 1-2.684 5.726l-.01.009-.454-.648a6.85 6.85 0 0 0-4.451-12.053H8.914a3.229 3.229 0 0 0-.174-.275l.007.01.007.011a3.56 3.56 0 0 0-.528-.589L8.222.872zm1.044 1.7h3.643c3.316 0 6 2.683 6 6v.008a5.97 5.97 0 0 1-2.03 4.492l-.007.006-.489-.699a5.154 5.154 0 0 0-3.474-8.956H9.372a3.45 3.45 0 0 0-.12-.898l.006.024zm.004 1.717h3.639c2.367.05 4.25 2 4.2 4.383a4.292 4.292 0 0 1-1.255 2.949l-.244-.349a3.378 3.378 0 0 0-.28-.35l.003.003c.56-.592.91-1.389.927-2.267v-.003l.001-.064a3.453 3.453 0 0 0-3.362-3.452H8.923c.143-.245.262-.527.342-.826zM3.49 5.83c.243.249.523.461.832.627l.018.009v14.101c0 .95.767 1.717 1.717 1.717.933 0 1.7-.767 1.716-1.733v-5.133h2.38l.607.867H8.623v4.283a2.569 2.569 0 0 1-5.132.004v-.004zm5.133.154h4.291a2.575 2.575 0 0 1 2.575 2.575v.008c0 .719-.29 1.366-.759 1.833a3.35 3.35 0 0 0-.801-.406l-.024-.007a1.7 1.7 0 0 0 .734-1.399v-.005c0-.967-.783-1.733-1.733-1.733H9.473v3.45h1.548a3.454 3.454 0 0 0-.939.842l-.006.008H8.623zm-.867.363v5.671h1.839a3.36 3.36 0 0 0-.199.835l-.001.015H6.906V6.725c.323-.095.605-.224.864-.386zm-2.566.432c.23.055.493.086.764.086l.103-.002v6.854h3.355c.042.289.117.574.235.85h-2.74v6a.88.88 0 0 1-.848.867h-.011a.859.859 0 0 1-.858-.85zm5.133.922h2.567c.483 0 .866.383.866.866s-.367.883-.85.883l-2.583-.017z"/></svg>