<svg xmlns="http://www.w3.org/2000/svg" width="24" height="24"><path fill="#0085c0" d="M20.55 14.65c-.846-.486-1.805-.632-2.752-.666-.79-.023-1.974-.541-1.974-1.985 0-1.072.868-1.94 1.985-1.985.947-.034 1.906-.18 2.752-.666 1.509-.884 2.507-2.498 2.507-4.345a4.99 4.99 0 0 0-.681-2.525l.013.024C21.51.996 19.894.001 18.046.001c-.926 0-1.794.25-2.54.686l.024-.013a4.999 4.999 0 0 0-2.504 4.328v.015-.001c0 .97.35 1.861.79 2.696.372.699.553 1.996-.71 2.73-.948.54-2.132.202-2.719-.745-.496-.801-1.094-1.545-1.94-2.03A5.01 5.01 0 0 0 1.6 9.494a4.957 4.957 0 0 0-.667 2.5c0 1.847.998 3.461 2.484 4.332l.024.013c.719.42 1.582.668 2.504.668s1.785-.248 2.528-.681l-.024.013c.846-.485 1.444-1.23 1.94-2.03.406-.654 1.433-1.489 2.718-.744.948.541 1.241 1.737.711 2.73-.44.823-.79 1.725-.79 2.695a5.011 5.011 0 0 0 5.007 5.009 5.012 5.012 0 0 0 5.008-5.008v-.027a4.978 4.978 0 0 0-2.469-4.302l-.024-.013z"/></svg>