<svg xmlns="http://www.w3.org/2000/svg" width="24" height="24"><path fill="#ec4a3f" d="M3.42 0a.37.37 0 0 0-.369.37v19.516c.577-1.488 1.557-3.617 3.138-6.53 5.7-10.48 6.447-11.537 9.416-11.537 1.56 0 3.134.704 4.152 1.955C18.35 1.526 15.904.043 13.108 0h-.006zm12.72 2.544c-1.19.01-2.257.466-2.698 1.498-.967 2.256 1.624 4.767 2.757 4.568 1.442-.255-.255-3.563-.255-3.563 2.205 4.156 1.697 2.884-2.29 6.7S5.596 23.62 5.002 23.958a.435.435 0 0 1-.077.042l-.003.001h15.637a.373.373 0 0 0 .329-.54l.001.002-4.088-8.092a.372.372 0 0 1 .143-.487l.002-.001c2.41-1.399 4.005-3.967 4.005-6.908V7.97a7.919 7.919 0 0 0-1.03-3.92c-.927-.952-2.43-1.516-3.78-1.506z"/></svg>