<svg xmlns="http://www.w3.org/2000/svg" width="24" height="24"><path fill="#75aadb" d="M12.178.002l-.174-.001a11.967 11.967 0 0 0-8.488 3.516C1.345 5.689.002 8.689.002 12.002s1.343 6.313 3.514 8.485c2.172 2.171 5.172 3.514 8.485 3.514s6.313-1.343 8.485-3.514C22.657 18.315 24 15.315 24 12.002s-1.343-6.313-3.514-8.485A11.965 11.965 0 0 0 12.187.002h-.009zM7.77 5.995c.562.128 1.05.217 1.663.217.921 0 1.863-.217 2.786-.217 1.79 0 3.45.814 3.45 2.8 0 1.54-.921 2.517-2.35 2.93l2.788 4.107h1.301v1.01h-1.986l-3.293-4.934h-1.757v3.924h1.718v1.01H7.77v-1.01h1.483V7.134L7.77 6.951zm4.466 1.012c-.596 0-1.213.053-1.864.127v3.798l.941.02c2.298.034 3.183-.85 3.183-2.026 0-1.376-.997-1.919-2.26-1.919z"/></svg>