<!-- Generated by IcoMoon.io -->
<svg version="1.1" xmlns="http://www.w3.org/2000/svg" width="24" height="24" viewBox="0 0 24 24">
<title>rust</title>
<path d="M23.687 11.709l-0.995-0.616c-0.013-0.152-0.022-0.252-0.033-0.351l0.005 0.061 0.855-0.797c0.066-0.063 0.107-0.151 0.107-0.249 0-0 0-0 0-0v0c0-0.146-0.091-0.271-0.219-0.321l-0.002-0.001-1.093-0.409c-0.043-0.154-0.072-0.248-0.103-0.341l0.017 0.059 0.682-0.947c0.040-0.055 0.065-0.125 0.065-0.199 0-0 0-0.001 0-0.001v0c0-0.17-0.124-0.311-0.286-0.337l-0.002-0-1.152-0.187c-0.069-0.136-0.115-0.221-0.163-0.305l0.024 0.046 0.484-1.063c0.050-0.108 0.039-0.234-0.027-0.332s-0.178-0.156-0.297-0.152l-1.17 0.041c-0.071-0.090-0.134-0.166-0.199-0.24l0.014 0.016 0.269-1.139c0.006-0.023 0.009-0.050 0.009-0.078 0-0.189-0.154-0.343-0.343-0.343-0.028 0-0.055 0.003-0.080 0.009l0.002-0-1.139 0.269c-0.049-0.042-0.114-0.096-0.179-0.149l-0.020-0.016-0.026-0.020 0.041-1.17c0-0.005 0-0.010 0-0.016 0-0.188-0.152-0.34-0.34-0.34-0 0-0 0-0.001 0-0.053 0-0.103 0.012-0.148 0.034l0.002-0.001 0.002-0.001-1.063 0.485c-0.086-0.047-0.172-0.094-0.259-0.139l-0.188-1.153c-0.029-0.164-0.17-0.286-0.339-0.286-0 0-0 0-0.001 0-0.075 0-0.144 0.024-0.2 0.065l0.001-0.001 0.001-0.001-0.948 0.682c-0.034-0.014-0.128-0.043-0.223-0.070l-0.059-0.015-0.409-1.093c-0.051-0.13-0.176-0.221-0.321-0.221-0.098 0-0.187 0.041-0.249 0.107l-0 0-0.797 0.856c-0.057-0.008-0.156-0.017-0.257-0.026l-0.033-0.002-0.616-0.995c-0.061-0.098-0.169-0.162-0.291-0.162s-0.23 0.064-0.29 0.161l-0.001 0.001-0.616 0.995c-0.097 0.008-0.194 0.018-0.29 0.028l-0.798-0.856c-0.062-0.067-0.151-0.109-0.25-0.109-0 0-0 0-0 0h0c-0.146 0-0.271 0.092-0.32 0.221l-0.001 0.002-0.409 1.093c-0.095 0.027-0.188 0.056-0.282 0.085l-0.947-0.682c-0.055-0.040-0.124-0.063-0.198-0.063-0 0-0.001 0-0.001 0h0c-0.17 0-0.311 0.123-0.339 0.284l-0 0.002-0.188 1.153c-0.136 0.069-0.221 0.115-0.305 0.163l0.046-0.024-1.063-0.485c-0.042-0.020-0.091-0.031-0.142-0.031-0.189 0-0.342 0.153-0.342 0.342 0 0.005 0 0.009 0 0.014l-0-0.001 0.041 1.17c-0.090 0.071-0.163 0.132-0.236 0.194l0.011-0.009-1.139-0.269c-0.023-0.006-0.050-0.009-0.078-0.009-0.189 0-0.343 0.154-0.343 0.343 0 0.028 0.003 0.055 0.009 0.080l-0-0.002 0.268 1.139c-0.045 0.053-0.105 0.126-0.165 0.2l-0.019 0.024-1.17-0.041c-0.004-0-0.008-0-0.013-0-0.189 0-0.342 0.153-0.342 0.342 0 0.052 0.011 0.101 0.032 0.144l-0.001-0.002 0.485 1.063c-0.024 0.039-0.070 0.124-0.115 0.209l-0.024 0.050-1.152 0.187c-0.164 0.029-0.286 0.17-0.286 0.339 0 0.075 0.024 0.144 0.064 0.2l-0.001-0.001 0.682 0.947c-0.004 0.001-0.034 0.095-0.062 0.189l-0.024 0.093-1.093 0.409c-0.131 0.051-0.221 0.175-0.221 0.321 0 0.098 0.041 0.187 0.107 0.249l0 0 0.855 0.797c-0.007 0.057-0.017 0.156-0.026 0.257l-0.002 0.033-0.995 0.616c-0.099 0.061-0.164 0.168-0.164 0.291s0.065 0.23 0.163 0.29l0.001 0.001 0.995 0.616c0.008 0.097 0.018 0.194 0.028 0.29l-0.855 0.798c-0.067 0.062-0.109 0.151-0.109 0.25 0 0 0 0 0 0v-0c0 0.146 0.092 0.271 0.221 0.32l0.002 0.001 1.093 0.409c0.043 0.154 0.072 0.248 0.103 0.341l-0.017-0.059-0.682 0.947c-0.041 0.055-0.065 0.125-0.065 0.2 0 0 0 0.001 0 0.001v-0c0 0.17 0.125 0.311 0.288 0.337l0.002 0 1.152 0.187c0.069 0.136 0.115 0.221 0.163 0.305l-0.024-0.046-0.485 1.063c-0.020 0.042-0.031 0.091-0.031 0.142 0 0.189 0.153 0.342 0.342 0.342 0.005 0 0.009-0 0.014-0l1.168-0.041c0.061 0.076 0.122 0.151 0.185 0.225l-0.268 1.14c-0.006 0.023-0.009 0.050-0.009 0.077 0 0 0 0.001 0 0.001v-0c0 0.189 0.153 0.342 0.342 0.342 0.028 0 0.055-0.003 0.081-0.010l-0.002 0 1.139-0.268c0.061 0.052 0.134 0.113 0.209 0.172l0.016 0.012-0.041 1.17c-0 0.004-0 0.010-0 0.015 0 0 0 0 0 0v-0c0 0.188 0.152 0.34 0.34 0.34 0.052 0 0.102-0.012 0.146-0.033l-0.002 0.001 1.063-0.484c0.038 0.024 0.123 0.070 0.208 0.115l0.051 0.024 0.188 1.152c0.028 0.164 0.169 0.287 0.339 0.287 0.074 0 0.143-0.024 0.2-0.064l-0.001 0.001 0.947-0.682c0.094 0.030 0.187 0.059 0.282 0.086l0.409 1.093c0.049 0.132 0.174 0.224 0.32 0.224 0 0 0 0 0 0 0.099 0 0.188-0.042 0.25-0.109l0-0 0.798-0.855c0.096 0.011 0.193 0.020 0.29 0.029l0.616 0.995c0.062 0.098 0.169 0.161 0.291 0.161s0.229-0.064 0.29-0.16l0.001-0.001 0.616-0.995c0.097-0.009 0.194-0.018 0.29-0.029l0.797 0.855c0.063 0.066 0.151 0.107 0.249 0.107 0 0 0 0 0 0h-0c0.146 0 0.271-0.091 0.321-0.219l0.001-0.002 0.409-1.093c0.154-0.043 0.248-0.072 0.341-0.103l-0.059 0.017 0.947 0.682c0.055 0.041 0.125 0.065 0.2 0.065 0 0 0.001 0 0.001 0h-0c0.17 0 0.311-0.125 0.337-0.288l0-0.002 0.188-1.152c0.087-0.045 0.173-0.092 0.259-0.139l1.063 0.484c0.041 0.019 0.090 0.030 0.141 0.030 0.189 0 0.343-0.154 0.343-0.343 0-0.004-0-0.007-0-0.011l0 0.001-0.041-1.17c0.076-0.060 0.151-0.121 0.224-0.184l1.139 0.268c0.023 0.006 0.050 0.009 0.078 0.009 0.189 0 0.343-0.154 0.343-0.343 0-0.027-0.003-0.054-0.009-0.079l0 0.002-0.268-1.14c0.062-0.074 0.124-0.149 0.184-0.225l1.17 0.041c0.005 0 0.010 0 0.016 0 0.188 0 0.34-0.152 0.34-0.34 0-0 0-0 0-0.001 0-0.053-0.012-0.103-0.034-0.148l0.001 0.002 0.001 0.002-0.484-1.063c0.047-0.086 0.094-0.172 0.139-0.259l1.152-0.187c0.164-0.029 0.286-0.17 0.286-0.339 0-0.075-0.024-0.144-0.064-0.2l0.001 0.001-0.682-0.947 0.086-0.282 1.093-0.409c0.131-0.050 0.223-0.174 0.223-0.321 0-0.099-0.042-0.188-0.109-0.25l-0-0-0.855-0.798c0.010-0.096 0.020-0.193 0.028-0.29l0.995-0.616c0.099-0.061 0.164-0.168 0.164-0.291s-0.065-0.23-0.163-0.29l-0.001-0.001zM17.028 19.962c-0.321-0.070-0.558-0.352-0.558-0.69 0-0.389 0.316-0.705 0.705-0.705 0.052 0 0.103 0.006 0.152 0.016l-0.005-0.001c0.321 0.071 0.557 0.352 0.557 0.69 0 0.389-0.316 0.705-0.705 0.705-0.052 0-0.104-0.006-0.153-0.017l0.005 0.001zM16.69 17.676c-0.041-0.009-0.087-0.014-0.135-0.014-0.307 0-0.564 0.216-0.626 0.504l-0.001 0.004-0.353 1.648c-1.090 0.495-2.3 0.77-3.575 0.77h-0.013c-1.32 0-2.571-0.296-3.69-0.826l0.052 0.022-0.353-1.648c-0.063-0.292-0.32-0.508-0.626-0.508-0 0-0 0-0 0-0.050 0-0.098 0.006-0.144 0.016l0.004-0.001 0.004-0.001-1.455 0.312c-0.256-0.263-0.497-0.545-0.72-0.842l-0.016-0.022-0.016-0.023h7.080c0.080 0 0.134-0.014 0.134-0.087v-2.505c0-0.073-0.053-0.087-0.134-0.087h-2.071v-1.588h2.24c0.204 0 1.093 0.058 1.377 1.194 0.089 0.349 0.284 1.486 0.418 1.85 0.133 0.408 0.675 1.223 1.253 1.223h3.528c0.047-0.001 0.093-0.006 0.137-0.015l-0.005 0.001-0.005 0.001c-0.257 0.348-0.52 0.655-0.803 0.942l0.001-0.001-1.489-0.32zM6.897 19.928c-0.044 0.010-0.096 0.016-0.148 0.016-0.389 0-0.705-0.316-0.705-0.705 0-0.337 0.236-0.619 0.553-0.689l0.005-0.001c0.044-0.010 0.096-0.016 0.148-0.016 0.389 0 0.705 0.316 0.705 0.705 0 0.337-0.236 0.619-0.553 0.689l-0.005 0.001zM4.211 9.036c0.044 0.090 0.070 0.195 0.070 0.306 0 0.389-0.316 0.705-0.705 0.705-0.294 0-0.545-0.179-0.651-0.435l-0.002-0.005c-0.033-0.079-0.052-0.17-0.052-0.266 0-0.389 0.316-0.705 0.705-0.705 0.278 0 0.518 0.161 0.633 0.395l0.002 0.004zM3.386 10.993l1.516-0.674c0.227-0.102 0.382-0.327 0.382-0.587 0-0.095-0.020-0.184-0.057-0.265l0.002 0.004-0.312-0.706h1.228v5.534h-2.477c-0.21-0.71-0.331-1.527-0.331-2.371 0-0.33 0.018-0.655 0.054-0.975l-0.004 0.039zM10.038 10.456v-1.631h2.924c0.151 0 1.066 0.175 1.066 0.859 0 0.568-0.702 0.772-1.279 0.772h-2.711zM20.664 11.924c0 0.216-0.008 0.431-0.024 0.643h-0.889c-0.089 0-0.125 0.058-0.125 0.146v0.408c0 0.961-0.542 1.17-1.017 1.223-0.452 0.051-0.953-0.189-1.015-0.466-0.267-1.5-0.711-1.821-1.413-2.374 0.871-0.553 1.777-1.369 1.777-2.461 0-1.179-0.809-1.922-1.36-2.287-0.773-0.51-1.629-0.612-1.86-0.612h-9.193c1.241-1.383 2.907-2.361 4.792-2.727l0.055-0.009 1.084 1.137c0.117 0.123 0.281 0.199 0.464 0.199 0 0 0.001 0 0.001 0 0.172 0 0.328-0.068 0.443-0.179l-0 0 1.212-1.16c2.556 0.491 4.674 2.049 5.909 4.182l0.022 0.042-0.83 1.875c-0.035 0.077-0.055 0.166-0.055 0.26 0 0.26 0.155 0.485 0.377 0.586l0.004 0.002 1.598 0.71c0.027 0.257 0.042 0.555 0.042 0.856 0 0.002 0 0.003 0 0.005v-0zM11.477 2.442c0.126-0.12 0.297-0.195 0.485-0.195 0 0 0.001 0 0.001 0h-0c0.389 0 0.704 0.315 0.704 0.704 0 0.2-0.084 0.381-0.218 0.509l-0 0c-0.122 0.106-0.283 0.171-0.459 0.171-0 0-0.001 0-0.001 0h0c-0.389 0-0.705-0.316-0.705-0.705 0-0 0-0.001 0-0.001 0-0.188 0.074-0.359 0.194-0.485l-0 0-0 0zM19.714 9.070c0.157-0.356 0.573-0.516 0.928-0.358 0.25 0.112 0.42 0.359 0.42 0.645 0 0.389-0.316 0.705-0.705 0.705s-0.705-0.316-0.705-0.705c0-0.104 0.022-0.202 0.062-0.29l-0.002 0.004z"></path>
</svg>
