<svg xmlns="http://www.w3.org/2000/svg" width="24" height="24"><path d="M23.687 11.709l-.995-.616a13.774 13.774 0 0 0-.033-.351l.005.061.855-.797a.345.345 0 0 0-.112-.57l-.002-.001-1.093-.409a6.761 6.761 0 0 0-.103-.341l.017.059.682-.947a.34.34 0 0 0 .065-.199v-.001a.341.341 0 0 0-.286-.337h-.002l-1.152-.187a6.56 6.56 0 0 0-.163-.305l.024.046.484-1.063c.05-.108.039-.234-.027-.332s-.178-.156-.297-.152l-1.17.041a5.784 5.784 0 0 0-.199-.24l.014.016.269-1.139a.344.344 0 0 0-.414-.412h.002l-1.139.269a10.108 10.108 0 0 0-.179-.149l-.02-.016-.026-.02.041-1.17v-.016a.34.34 0 0 0-.34-.34h-.001a.335.335 0 0 0-.148.034l.002-.001.002-.001-1.063.485c-.086-.047-.172-.094-.259-.139l-.188-1.153a.345.345 0 0 0-.339-.286h-.001a.337.337 0 0 0-.2.065l.001-.001.001-.001-.948.682a2.982 2.982 0 0 0-.223-.07l-.059-.015-.409-1.093a.346.346 0 0 0-.321-.221.341.341 0 0 0-.249.107l-.797.856a6.373 6.373 0 0 0-.257-.026l-.033-.002-.616-.995a.342.342 0 0 0-.581-.001l-.001.001-.616.995c-.097.008-.194.018-.29.028l-.798-.856a.343.343 0 0 0-.57.112l-.001.002-.409 1.093c-.095.027-.188.056-.282.085l-.947-.682a.336.336 0 0 0-.198-.063h-.001a.344.344 0 0 0-.339.284v.002l-.188 1.153a6.56 6.56 0 0 0-.305.163l.046-.024-1.063-.485a.342.342 0 0 0-.484.311v.014-.001l.041 1.17a8.08 8.08 0 0 0-.236.194l.011-.009-1.139-.269a.344.344 0 0 0-.412.414v-.002l.268 1.139-.165.2-.019.024-1.17-.041h-.013a.342.342 0 0 0-.31.486l-.001-.002.485 1.063c-.024.039-.07.124-.115.209l-.024.05-1.152.187a.345.345 0 0 0-.222.539l-.001-.001.682.947a1.856 1.856 0 0 0-.062.189l-.024.093-1.093.409a.343.343 0 0 0-.114.57l.855.797a8.971 8.971 0 0 0-.026.257l-.002.033-.995.616a.34.34 0 0 0-.001.581l.001.001.995.616c.008.097.018.194.028.29l-.855.798a.343.343 0 0 0 .112.57l.002.001 1.093.409c.043.154.072.248.103.341l-.017-.059-.682.947a.335.335 0 0 0-.065.2v.001c0 .17.125.311.288.337h.002l1.152.187c.069.136.115.221.163.305l-.024-.046-.485 1.063a.342.342 0 0 0 .311.484h.014l1.168-.041c.061.076.122.151.185.225l-.268 1.14a.313.313 0 0 0-.009.077v.001a.342.342 0 0 0 .423.332H3.94l1.139-.268c.061.052.134.113.209.172l.016.012-.041 1.17v.015a.34.34 0 0 0 .486.307l-.002.001 1.063-.484c.038.024.123.07.208.115l.051.024.188 1.152a.344.344 0 0 0 .539.223l-.001.001.947-.682c.094.03.187.059.282.086l.409 1.093a.34.34 0 0 0 .57.115l.798-.855c.096.011.193.02.29.029l.616.995a.343.343 0 0 0 .581.001l.001-.001.616-.995c.097-.009.194-.018.29-.029l.797.855a.345.345 0 0 0 .57-.112l.001-.002.409-1.093c.154-.043.248-.072.341-.103l-.059.017.947.682a.335.335 0 0 0 .2.065h.001c.17 0 .311-.125.337-.288v-.002l.188-1.152c.087-.045.173-.092.259-.139l1.063.484a.344.344 0 0 0 .484-.313v-.011.001l-.041-1.17c.076-.06.151-.121.224-.184l1.139.268a.344.344 0 0 0 .412-.413v.002l-.268-1.14c.062-.074.124-.149.184-.225l1.17.041h.016a.34.34 0 0 0 .34-.34v-.001a.335.335 0 0 0-.034-.148l.001.002.001.002-.484-1.063c.047-.086.094-.172.139-.259l1.152-.187a.345.345 0 0 0 .222-.539l.001.001-.682-.947.086-.282 1.093-.409a.343.343 0 0 0 .114-.571l-.855-.798c.01-.096.02-.193.028-.29l.995-.616a.34.34 0 0 0 .001-.581l-.001-.001zm-6.659 8.253a.706.706 0 1 1 .299-1.379l-.005-.001a.706.706 0 1 1-.301 1.378l.005.001zm-.338-2.286a.64.64 0 0 0-.761.49l-.001.004-.353 1.648c-1.09.495-2.3.77-3.575.77h-.013a8.597 8.597 0 0 1-3.69-.826l.052.022-.353-1.648a.642.642 0 0 0-.626-.508.676.676 0 0 0-.144.016l.004-.001.004-.001-1.455.312a8.68 8.68 0 0 1-.72-.842l-.016-.022-.016-.023h7.08c.08 0 .134-.014.134-.087v-2.505c0-.073-.053-.087-.134-.087h-2.071V12.8h2.24c.204 0 1.093.058 1.377 1.194.089.349.284 1.486.418 1.85.133.408.675 1.223 1.253 1.223h3.528a.766.766 0 0 0 .137-.015l-.005.001-.005.001c-.257.348-.52.655-.803.942l.001-.001-1.489-.32zm-9.793 2.252a.705.705 0 0 1-.3-1.378l.005-.001a.705.705 0 0 1 .3 1.378l-.005.001zM4.211 9.036a.705.705 0 0 1-1.286.576l-.002-.005a.705.705 0 0 1 1.286-.576l.002.004zm-.825 1.957l1.516-.674a.643.643 0 0 0 .325-.852l.002.004-.312-.706h1.228v5.534H3.668a8.468 8.468 0 0 1-.331-2.371c0-.33.018-.655.054-.975l-.004.039zm6.652-.537V8.825h2.924c.151 0 1.066.175 1.066.859 0 .568-.702.772-1.279.772h-2.711zm10.626 1.468c0 .216-.008.431-.024.643h-.889c-.089 0-.125.058-.125.146v.408c0 .961-.542 1.17-1.017 1.223-.452.051-.953-.189-1.015-.466-.267-1.5-.711-1.821-1.413-2.374.871-.553 1.777-1.369 1.777-2.461 0-1.179-.809-1.922-1.36-2.287-.773-.51-1.629-.612-1.86-.612H5.545a8.652 8.652 0 0 1 4.792-2.727l.055-.009 1.084 1.137a.637.637 0 0 0 .464.199h.001a.635.635 0 0 0 .443-.179l1.212-1.16a8.698 8.698 0 0 1 5.909 4.182l.022.042-.83 1.875a.644.644 0 0 0 .322.846l.004.002 1.598.71a8.4 8.4 0 0 1 .042.856v.005zm-9.187-9.482a.702.702 0 0 1 .485-.195h.001a.704.704 0 0 1 .486 1.213.699.699 0 0 1-.459.171h-.001a.705.705 0 0 1-.705-.705v-.001c0-.188.074-.359.194-.485zm8.237 6.628a.706.706 0 1 1 .643.992.705.705 0 0 1-.643-.995l-.002.004z"/></svg>