<!-- Generated by IcoMoon.io -->
<svg version="1.1" xmlns="http://www.w3.org/2000/svg" width="24" height="24" viewBox="0 0 24 24">
<title>sad1</title>
<path d="M12 0c-6.619 0-12 5.381-12 12s5.381 12 12 12 12-5.381 12-12-5.381-12-12-12zM12 22.5c-5.79 0-10.5-4.71-10.5-10.5s4.71-10.5 10.5-10.5 10.5 4.71 10.5 10.5-4.71 10.5-10.5 10.5zM9.322 8.010c0 0.899-0.729 1.627-1.627 1.627s-1.628-0.729-1.628-1.627c0-0.899 0.729-1.627 1.628-1.627s1.627 0.729 1.627 1.627zM17.933 8.010c0 0.899-0.729 1.627-1.628 1.627s-1.627-0.729-1.627-1.627c0-0.899 0.729-1.627 1.627-1.627s1.628 0.729 1.628 1.627zM12 13.74c-3.649 0-5.381 2.572-5.79 3.93-0.12 0.398 0.105 0.81 0.499 0.93 0.071 0.023 0.146 0.034 0.217 0.034 0.319 0 0.619-0.206 0.716-0.529 0.037-0.116 0.934-2.865 4.354-2.865 3.416 0 4.312 2.738 4.354 2.865 0.098 0.322 0.398 0.532 0.716 0.532 0.071 0 0.143-0.011 0.214-0.030 0.398-0.12 0.622-0.536 0.503-0.934-0.398-1.361-2.134-3.934-5.783-3.934z"></path>
</svg>
