<svg xmlns="http://www.w3.org/2000/svg" width="24" height="24"><path d="M12 0C5.381 0 0 5.381 0 12s5.381 12 12 12 12-5.381 12-12S18.619 0 12 0zm0 22.5C6.21 22.5 1.5 17.79 1.5 12S6.21 1.5 12 1.5 22.5 6.21 22.5 12 17.79 22.5 12 22.5zM9.322 8.01a1.627 1.627 0 1 1-3.254 0 1.627 1.627 0 0 1 3.254 0zm8.611 0a1.627 1.627 0 1 1-3.255 0 1.627 1.627 0 0 1 3.255 0zM12 13.74c-3.649 0-5.381 2.572-5.79 3.93-.12.398.105.81.499.93a.748.748 0 0 0 .933-.495c.037-.116.934-2.865 4.354-2.865 3.416 0 4.312 2.738 4.354 2.865a.754.754 0 0 0 .93.502.75.75 0 0 0 .503-.934c-.398-1.361-2.134-3.934-5.783-3.934z"/></svg>