<svg height="24" width="24" xmlns="http://www.w3.org/2000/svg"><path d="m12 0c-6.628 0-12 5.372-12 12s5.372 12 12 12 12-5.372 12-12-5.372-12-12-12zm10.462 11.081-.023-.248c.005.084.014.164.023.248zm-1.64-4.781-.169-.253zm-.652-.895-.103-.127c.037.042.07.084.103.127zm-1.453-1.477-.127-.103c.047.038.084.07.127.103zm-.764-.581-.253-.169zm-4.786-1.781-.253-.023c.084.005.169.014.253.023zm-2.086-.029-.253.023c.084-.005.169-.014.253-.023zm-4.781 1.641-.253.169zm-.895.652-.122.098c.042-.033.08-.066.122-.098zm-1.477 1.453-.103.127c.038-.042.07-.084.103-.127zm-.581.764-.169.253zm-1.781 4.786-.023.253c.005-.084.014-.169.023-.253zm-.029 2.086.023.253a5.401 5.401 0 0 0 -.023-.253zm1.641 4.776.169.253a6.171 6.171 0 0 1 -.169-.253zm.197.296 1.87-1.252-.206-.314-1.87 1.252a10.426 10.426 0 0 1 -1.594-4.463l1.12-.112-.037-.375-1.12.112a10.142 10.142 0 0 1 -.033-.656h2.25v-.375h-2.25c.005-.22.014-.436.033-.656l1.12.108.037-.375-1.12-.108c.188-1.631.75-3.145 1.598-4.462l1.87 1.252.206-.314-1.875-1.242c.127-.178.253-.356.389-.525l.867.713.239-.291-.867-.713c.141-.169.291-.328.441-.487l1.589 1.589.267-.267-1.589-1.589c.159-.15.319-.3.483-.441l.712.872.291-.239-.713-.867c.173-.136.347-.267.525-.394l1.252 1.87.314-.206-1.252-1.87a10.426 10.426 0 0 1 4.463-1.594l.112 1.12.375-.037-.112-1.12c.216-.019.436-.028.656-.033v2.25h.375v-2.25c.22.005.436.014.656.033l-.108 1.12.375.037.108-1.12c1.631.188 3.145.75 4.462 1.598l-1.252 1.87.314.206 1.252-1.87c.178.127.356.253.525.389l-.713.867.291.239.712-.867c.169.141.328.291.487.441l-.6.586-8.203 5.47-5.47 8.203-.586.586c-.15-.159-.3-.319-.441-.483l.867-.712-.239-.291-.867.712c-.136-.169-.262-.347-.389-.525zm.553.726c-.033-.042-.066-.08-.098-.122zm1.355 1.355.122.098c-.042-.033-.08-.066-.122-.098zm.764.576.253.169a4.124 4.124 0 0 1 -.253-.169zm4.786 1.786.253.023a5.401 5.401 0 0 1 -.253-.023zm2.086.028.248-.023c-.084.005-.164.014-.248.023zm4.781-1.64.253-.169zm.895-.652.127-.103c-.042.037-.084.07-.127.103zm.821-.736.019-.019zm.656-.717.103-.127c-.037.042-.07.084-.103.127zm.164-.201-.867-.712-.239.291.867.712c-.141.169-.291.328-.441.488l-1.589-1.589-.267.267 1.589 1.589c-.159.15-.319.3-.483.441l-.712-.872-.291.239.712.867c-.173.136-.347.267-.525.394l-1.252-1.87-.314.206 1.252 1.87a10.426 10.426 0 0 1 -4.463 1.594l-.112-1.12-.375.038.112 1.12c-.216.019-.436.028-.656.033v-2.25h-.375v2.25c-.22-.005-.436-.014-.656-.033l.108-1.12-.375-.038-.108 1.12a10.431 10.431 0 0 1 -4.462-1.598l1.252-1.87-.314-.206-1.242 1.87c-.178-.127-.356-.253-.525-.389l.713-.867-.291-.239-.713.867a10.753 10.753 0 0 1 -.487-.441l.591-.586 8.203-5.47 5.47-8.203.586-.586c.15.159.3.319.441.483l-.867.713.239.291.867-.713c.136.173.267.347.394.525l-1.87 1.252.206.314 1.87-1.252a10.426 10.426 0 0 1 1.594 4.462l-1.12.113.037.375 1.12-.113c.019.216.028.436.033.656h-2.25v.375h2.25c-.005.22-.014.436-.033.656l-1.12-.108-.037.375 1.12.108a10.44 10.44 0 0 1 -1.598 4.463l-1.87-1.252-.206.314 1.87 1.252c-.122.169-.253.342-.389.516zm2.226-5.602c-.009.084-.014.169-.023.253zm-1.64 4.786-.169.253z"/><path d="m10.138 1.666.439 2.207-.368.073-.439-2.207zm3.729 20.669-.439-2.207.368-.073.439 2.207zm-4.735-20.439.327 1.077-.359.109-.327-1.077zm5.738 20.203-.327-1.077.359-.109.327 1.077zm-6.713-19.87.861 2.079-.346.144-.861-2.079zm7.69 19.544-.861-2.079.346-.144.861 2.079zm-8.965-18.945.331-.177.53.992-.331.177zm10.23 18.343-.331.177-.53-.992.331-.177zm-14.285-14.284.992.53-.177.331-.992-.53zm18.343 10.227-.992-.53.177-.331.992.53zm-16.862-8.099-2.079-.861.144-.346 2.079.861zm15.387 5.969 2.079.861-.144.346-2.079-.861zm-17.69-6.209 1.077.326-.109.359-1.077-.326zm19.987 6.452-1.077-.326.109-.359 1.077.326zm-20.256-5.459 2.207.439-.073.368-2.207-.439zm20.524 4.464-2.207-.439.073-.368 2.207.439zm-20.597-.368 2.207-.439.073.368-2.207.439zm20.669-3.729-2.207.439-.073-.368 2.207-.439zm-20.434 4.736 1.077-.327.109.359-1.077.327zm20.203-5.737-1.077.327-.109-.359 1.077-.327zm-19.73 7.059-.144-.346 2.079-.861.144.346zm19.257-8.383.143.346-2.079.861-.143-.346zm-18.796 9.306-.177-.331.992-.53.177.331zm18.343-10.23.177.331-.992.53-.177-.331zm-13.959 14.462-.331-.177.53-.992.331.177zm9.567-18.698.331.177-.53.992-.331-.177zm-8.972 18.978.861-2.079.346.144-.861 2.079zm8.382-19.258-.861 2.079-.346-.144.861-2.079zm-7.061 19.732-.359-.109.327-1.077.359.109zm5.736-20.206.359.109-.326 1.077-.359-.109zm-4.732 20.436-.368-.073.439-2.207.368.073zm3.728-20.669.368.073-.439 2.207-.368-.073z"/></svg>