<svg xmlns="http://www.w3.org/2000/svg" width="24" height="24"><path d="M12 24C5.373 24 0 18.627 0 12S5.373 0 12 0s12 5.373 12 12-5.373 12-12 12zm0-.75c6.213 0 11.25-5.037 11.25-11.25S18.213.75 12 .75.75 5.787.75 12 5.787 23.25 12 23.25zM12 2a.25.25 0 0 1 .25.25v1a.25.25 0 0 1-.5 0v-1A.25.25 0 0 1 12 2zm0 18.5a.25.25 0 0 1 .25.25v1a.25.25 0 0 1-.5 0v-1a.25.25 0 0 1 .25-.25zm7.071-15.571a.25.25 0 0 1 0 .354l-.707.708a.25.25 0 0 1-.354-.354l.708-.707a.25.25 0 0 1 .354 0zM5.99 18.01a.25.25 0 0 1 0 .354l-.708.707a.25.25 0 0 1-.436-.167.25.25 0 0 1 .083-.186l.707-.708a.25.25 0 0 1 .354 0zM4.929 4.93a.25.25 0 0 1 .354 0l.708.707a.25.25 0 0 1-.354.354l-.707-.708a.25.25 0 0 1 0-.354zM18.01 18.01a.25.25 0 0 1 .354 0l.707.708a.25.25 0 0 1-.167.436.25.25 0 0 1-.186-.083l-.708-.707a.25.25 0 0 1 0-.354zM2 12a.25.25 0 0 1 .25-.25h1a.25.25 0 0 1 0 .5h-1A.25.25 0 0 1 2 12zm18.5 0a.25.25 0 0 1 .25-.25h1a.25.25 0 0 1 0 .5h-1a.25.25 0 0 1-.25-.25zm-4.593-9.205a.25.25 0 0 1 .133.329l.001-.002-.391.92a.25.25 0 1 1-.46-.197l-.001.002.39-.92a.25.25 0 0 1 .329-.133l-.002-.001zM8.68 19.825a.25.25 0 0 1 .132.329l.001-.002-.39.92a.25.25 0 0 1-.459-.196l-.001.002.39-.92a.25.25 0 0 1 .33-.131l-.002-.001zM21.272 8.253a.25.25 0 0 1-.136.324l-.002.001-.927.375a.25.25 0 0 1-.189-.463l.002-.001.927-.374a.25.25 0 0 1 .325.137l.001.002zm-17.153 6.93a.25.25 0 0 1-.137.325l-.002.001-.927.374a.25.25 0 0 1-.19-.462l.002-.001.927-.375a.25.25 0 0 1 .325.137l.001.002zM8.254 2.728a.25.25 0 0 1 .324.136l.001.002.375.927a.25.25 0 0 1-.463.189L8.49 3.98l-.374-.927a.25.25 0 0 1 .137-.325l.002-.001zm6.93 17.153a.25.25 0 0 1 .325.137l.001.002.374.927a.25.25 0 0 1-.462.19l-.001-.002-.375-.927a.25.25 0 0 1 .137-.325l.002-.001zM2.795 8.093a.25.25 0 0 1 .329-.133l-.002-.001.92.391a.25.25 0 0 1-.196.459l.002.001-.92-.39a.25.25 0 0 1-.133-.329l-.001.002zm17.03 7.228a.25.25 0 0 1 .329-.132l-.002-.001.92.39a.25.25 0 1 1-.197.46l.002.001-.92-.39a.25.25 0 0 1-.131-.33l-.001.002zm-6.946-2.442L11.12 11.12l-4.141 5.9zm6.192-7.95l-5.834 8.308-8.308 5.834 5.834-8.308z"/></svg>