<svg xmlns="http://www.w3.org/2000/svg" width="24" height="24"><path d="M12 0C5.372 0 0 5.372 0 12s5.372 12 12 12 12-5.372 12-12S18.628 0 12 0zm10.462 11.081l-.023-.248c.005.084.014.164.023.248zM20.822 6.3l-.169-.253.169.253zm-.652-.895l-.103-.127c.037.042.07.084.103.127zm-1.453-1.477l-.127-.103c.047.038.084.07.127.103zm-.764-.581l-.253-.169.253.169zm-4.786-1.781l-.253-.023c.084.005.169.014.253.023zm-2.086-.029l-.253.023c.084-.005.169-.014.253-.023zM6.3 3.178l-.253.169.253-.169zm-.895.652l-.122.098c.042-.033.08-.066.122-.098zM3.928 5.283l-.103.127c.038-.042.07-.084.103-.127zm-.581.764l-.169.253.169-.253zm-1.781 4.786l-.023.253c.005-.084.014-.169.023-.253zm-.029 2.086l.023.253a5.401 5.401 0 0 0-.023-.253zm1.641 4.776l.169.253a6.171 6.171 0 0 1-.169-.253zm.197.296l1.87-1.252-.206-.314-1.87 1.252a10.426 10.426 0 0 1-1.594-4.463l1.12-.112-.037-.375-1.12.112a10.142 10.142 0 0 1-.033-.656h2.25v-.375h-2.25c.005-.22.014-.436.033-.656l1.12.108.037-.375-1.12-.108c.188-1.631.75-3.145 1.598-4.462l1.87 1.252.206-.314-1.875-1.242c.127-.178.253-.356.389-.525l.867.713.239-.291-.867-.713c.141-.169.291-.328.441-.487l1.589 1.589.267-.267L4.71 4.441c.159-.15.319-.3.483-.441l.712.872.291-.239-.713-.867c.173-.136.347-.267.525-.394l1.252 1.87.314-.206-1.252-1.87a10.426 10.426 0 0 1 4.463-1.594l.112 1.12.375-.037-.112-1.12c.216-.019.436-.028.656-.033v2.25h.375v-2.25c.22.005.436.014.656.033l-.108 1.12.375.037.108-1.12c1.631.188 3.145.75 4.462 1.598l-1.252 1.87.314.206 1.252-1.87c.178.127.356.253.525.389l-.713.867.291.239.712-.867c.169.141.328.291.487.441l-.6.586-8.203 5.47-5.47 8.203-.586.586c-.15-.159-.3-.319-.441-.483l.867-.712-.239-.291-.867.712c-.136-.169-.262-.347-.389-.525zm.553.726c-.033-.042-.066-.08-.098-.122l.098.122zm1.355 1.355l.122.098c-.042-.033-.08-.066-.122-.098zm.764.576l.253.169a4.124 4.124 0 0 1-.253-.169zm4.786 1.786l.253.023a5.401 5.401 0 0 1-.253-.023zm2.086.028l.248-.023c-.084.005-.164.014-.248.023zm4.781-1.64l.253-.169-.253.169zm.895-.652l.127-.103c-.042.037-.084.07-.127.103zm.821-.736l.019-.019-.019.019zm.656-.717l.103-.127c-.037.042-.07.084-.103.127zm.164-.201l-.867-.712-.239.291.867.712c-.141.169-.291.328-.441.488l-1.589-1.589-.267.267 1.589 1.589c-.159.15-.319.3-.483.441l-.712-.872-.291.239.712.867c-.173.136-.347.267-.525.394l-1.252-1.87-.314.206 1.252 1.87a10.426 10.426 0 0 1-4.463 1.594l-.112-1.12-.375.038.112 1.12c-.216.019-.436.028-.656.033v-2.25h-.375v2.25c-.22-.005-.436-.014-.656-.033l.108-1.12-.375-.038-.108 1.12a10.431 10.431 0 0 1-4.462-1.598l1.252-1.87-.314-.206-1.242 1.87c-.178-.127-.356-.253-.525-.389l.713-.867-.291-.239-.713.867a10.753 10.753 0 0 1-.487-.441l.591-.586 8.203-5.47 5.47-8.203.586-.586c.15.159.3.319.441.483l-.867.713.239.291.867-.713c.136.173.267.347.394.525l-1.87 1.252.206.314 1.87-1.252a10.426 10.426 0 0 1 1.594 4.462l-1.12.113.037.375 1.12-.113c.019.216.028.436.033.656h-2.25v.375h2.25c-.005.22-.014.436-.033.656l-1.12-.108-.037.375 1.12.108a10.44 10.44 0 0 1-1.598 4.463l-1.87-1.252-.206.314 1.87 1.252c-.122.169-.253.342-.389.516zm2.226-5.602c-.009.084-.014.169-.023.253l.023-.253zm-1.64 4.786l-.169.253.169-.253z"/><path d="M10.138 1.666l.439 2.207-.368.073-.439-2.207.368-.073zm3.729 20.669l-.439-2.207.368-.073.439 2.207-.368.073zM9.132 1.896l.327 1.077-.359.109-.327-1.077.359-.109zm5.738 20.203l-.327-1.077.359-.109.327 1.077-.359.109zM8.157 2.229l.861 2.079-.346.144-.861-2.079.346-.144zm7.69 19.544l-.861-2.079.346-.144.861 2.079-.346.144zM6.882 2.828l.331-.177.53.992-.331.177-.53-.992zm10.23 18.343l-.331.177-.53-.992.331-.177.53.992zM2.827 6.887l.992.53-.177.331-.992-.53.177-.331zM21.17 17.114l-.992-.53.177-.331.992.53-.177.331zM4.308 9.015l-2.079-.861.144-.346 2.079.861-.144.346zm15.387 5.969l2.079.861-.144.346-2.079-.861.144-.346zM2.005 8.775l1.077.326-.109.359-1.077-.326.109-.359zm19.987 6.452l-1.077-.326.109-.359 1.077.326-.109.359zM1.736 9.768l2.207.439-.073.368-2.207-.439.073-.368zm20.524 4.464l-2.207-.439.073-.368 2.207.439-.073.368zm-20.597-.368l2.207-.439.073.368-2.207.439-.073-.368zm20.669-3.729l-2.207.439-.073-.368 2.207-.439.073.368zM1.898 14.871l1.077-.327.109.359-1.077.327-.109-.359zm20.203-5.737l-1.077.327-.109-.359 1.077-.327.109.359zm-19.73 7.059l-.144-.346 2.079-.861.144.346-2.079.861zM21.628 7.81l.143.346-2.079.861-.143-.346 2.079-.861zM2.832 17.116l-.177-.331.992-.53.177.331-.992.53zm18.343-10.23l.177.331-.992.53-.177-.331.992-.53zM7.216 21.348l-.331-.177.53-.992.331.177-.53.992zM16.783 2.65l.331.177-.53.992-.331-.177.53-.992zM7.811 21.628l.861-2.079.346.144-.861 2.079-.346-.144zM16.193 2.37l-.861 2.079-.346-.144.861-2.079.346.144zM9.132 22.102l-.359-.109.327-1.077.359.109-.327 1.077zm5.736-20.206l.359.109-.326 1.077-.359-.109.326-1.077zm-4.732 20.436l-.368-.073.439-2.207.368.073-.439 2.207zm3.728-20.669l.368.073-.439 2.207-.368-.073.439-2.207z"/></svg>