<svg xmlns="http://www.w3.org/2000/svg" width="24" height="24"><path fill="#00eace" d="M6.396 0L1.05.002v5.346h5.347zm5.94 2.697c-1.033 0-1.959.1-2.791.291v3.783c.645-.374 1.471-.568 2.5-.568 1.001 0 1.838.17 2.514.508 1.01.512 1.555 1.375 1.629 2.59h4.056c-.073-2.147-.874-3.783-2.394-4.912-1.522-1.127-3.36-1.692-5.514-1.692zM4.496 8.51c-.01.16-.023.322-.023.488 0 1.982.679 3.438 2.04 4.371.806.558 2.281 1.072 4.43 1.547l2.186.482c1.28.274 2.215.589 2.805.946.59.365.884.882.884 1.549 0 1.142-.603 1.922-1.806 2.341-.635.22-1.458.33-2.475.33-1.697 0-2.896-.417-3.596-1.248-.382-.457-.638-1.147-.767-2.07h-4.03c0 2.102.762 3.754 2.286 4.955C7.953 23.402 10.042 24 12.7 24c2.603 0 4.619-.609 6.045-1.828s2.14-2.751 2.14-4.596c0-1.8-.601-3.173-1.804-4.125-.776-.611-1.94-1.102-3.494-1.467l-3.543-.836c-1.367-.319-2.264-.596-2.686-.835-.655-.356-.982-.894-.982-1.616 0-.065.017-.124.021-.187zM21.92 21.844a1.078 1.078 0 0 0-.003 2.152h.002a1.078 1.078 0 0 0 .003-2.152h-.002zm-.014.177h.014a.899.899 0 0 1 .002 1.793h-.002a.9.9 0 0 1-.017-1.793h.003zm-.42.258v1.272h.221v-.49h.248l.256.49h.234v-.01l-.285-.531a.394.394 0 0 0 .173-.132l.001-.001a.35.35 0 0 0 .06-.198v-.017a.418.418 0 0 0-.034-.166l.001.003a.316.316 0 0 0-.088-.121.403.403 0 0 0-.141-.073l-.003-.001a.69.69 0 0 0-.182-.024h-.014.001zm.221.178h.231a.33.33 0 0 1 .105.017l-.002-.001a.176.176 0 0 1 .117.108v.001a.27.27 0 0 1-.001.178l.001-.002a.185.185 0 0 1-.047.066.226.226 0 0 1-.071.045h-.001a.316.316 0 0 1-.099.016h-.233z"/></svg>