<svg xmlns="http://www.w3.org/2000/svg" width="24" height="24"><path fill="#1428a0" d="M19.817 10.281l.046 2.693h-.023l-.779-2.693h-1.284v3.393h.848l-.046-2.785h.023l.837 2.785h1.226v-3.393zm-16.149 0l-.642 3.427h.928l.47-3.117h.023l.459 3.117h.917l-.63-3.427zm5.18 0l-.424 2.613h-.023l-.424-2.613H6.579l-.069 3.427h.86l.023-3.083h.011l.573 3.083h.871l.573-3.083h.023l.023 3.083h.86l-.08-3.427zm-7.266 2.453c.034.08.023.195.011.252-.023.115-.103.229-.332.229-.218 0-.344-.126-.344-.309v-.332H0v.264c0 .768.607.997 1.249.997.619 0 1.135-.218 1.215-.779.046-.298.011-.493 0-.562-.16-.722-1.467-.928-1.559-1.329a.507.507 0 0 1 0-.183c.023-.115.103-.229.309-.229s.321.126.321.309v.206h.86v-.241c0-.745-.676-.86-1.158-.86-.607 0-1.112.206-1.203.756-.023.149-.034.287.011.459.138.711 1.364.917 1.536 1.352zm11.152 0c.034.08.023.183.011.252-.023.115-.103.229-.332.229-.218 0-.344-.126-.344-.309v-.332h-.917v.264c0 .756.596.986 1.238.986.619 0 1.123-.206 1.203-.779.046-.298.012-.481 0-.562-.138-.711-1.433-.928-1.524-1.318a.465.465 0 0 1 0-.183c.023-.115.103-.229.309-.229.195 0 .321.126.321.309v.206h.848v-.241c0-.745-.665-.86-1.146-.86-.607 0-1.1.195-1.192.756-.023.149-.023.287.011.459.138.711 1.341.905 1.513 1.352zm2.888.458c.241 0 .309-.16.332-.252.012-.034.012-.092.012-.126v-2.533h.871v2.464c0 .069 0 .195-.011.229-.057.642-.562.848-1.192.848s-1.135-.206-1.192-.848c0-.034-.011-.16-.011-.229v-2.464h.871v2.533c0 .046 0 .092.012.126 0 .092.069.252.309.252zm7.152-.034c.252 0 .332-.16.355-.252.012-.034.012-.092.012-.126v-.493h-.355v-.504h1.215v.917c0 .069 0 .114-.012.229-.057.63-.596.848-1.203.848s-1.146-.218-1.203-.848c-.012-.115-.012-.16-.012-.229v-1.444c0-.057.012-.172.012-.229.08-.642.596-.848 1.203-.848s1.135.206 1.203.848c.012.103.012.229.012.229v.115h-.86v-.195s0-.08-.012-.126c-.011-.08-.08-.252-.344-.252-.252 0-.321.16-.344.252-.012.046-.012.103-.012.161v1.57c0 .046 0 .092.012.126 0 .092.092.252.332.252z"/></svg>