<svg xmlns="http://www.w3.org/2000/svg" width="24" height="24"><path d="M21.177 9.177a.678.678 0 0 0-.254-.551 1.757 1.757 0 0 0-.311-.437L12.988.565a4.227 4.227 0 0 0-.384-.227A.663.663 0 0 0 12 0a.749.749 0 0 0-.223.04 1.878 1.878 0 0 0-.342-.04H6.353a3.495 3.495 0 0 0-3.53 3.529V20.47a3.495 3.495 0 0 0 3.529 3.529h11.294a3.495 3.495 0 0 0 3.529-3.529V9.741c0-.137-.01-.273-.028-.406.012-.053.029-.101.029-.158zm-2.259-.706h-4.094c-1.129 0-2.118-.988-2.118-2.118V2.258zm-1.27 14.117H6.354c-1.129 0-2.118-.988-2.118-2.118V3.528c0-1.129.988-2.118 2.118-2.118h4.941v4.941a3.495 3.495 0 0 0 3.529 3.529h4.941v10.588c.001 1.13-.987 2.118-2.117 2.118zm-2.683-9.176l-3.812 3.812c0 .141-.141.141-.282.141 0 0-.141 0-.282-.141l-1.553-1.553c-.282-.282-.706-.282-.988 0s-.282.706 0 .988l1.553 1.553c.282.423.706.565 1.271.565s.988-.282 1.271-.565l3.811-3.812c.282-.282.282-.706 0-.988s-.706-.282-.988 0z"/></svg>