<svg xmlns="http://www.w3.org/2000/svg" width="24" height="24"><path fill="#4f0599" d="M16.61 11.11v5.72a1.771 1.771 0 0 1-1.531 1.689l-.009.001h-4a1.431 1.431 0 0 1-1.309-1.212L9.76 17.3a1.217 1.217 0 0 1 0-.184v.004a1.37 1.37 0 0 1 1.37-1.36h1.74a1 1 0 0 0 1-1V11.133a1.4 1.4 0 0 1 1.172-1.382l.008-.001h.19a1.37 1.37 0 0 1 1.37 1.36v.001zm-6.46 1.74V9.26a1 1 0 0 1 1-1H13a1.37 1.37 0 0 0 1.37-1.37 1.08 1.08 0 0 0 0-.174v.004a1.452 1.452 0 0 0-1.409-1.2H9a1.814 1.814 0 0 0-1.58 1.654v5.706c0 .757.613 1.37 1.37 1.37H9a1.403 1.403 0 0 0 1.15-1.378v-.024.001zm12-4.29V20a4.537 4.537 0 0 1-4.134 3.999L18 24h-7.58a8.57 8.57 0 0 1-8.56-8.57V4.54A4.54 4.54 0 0 1 6.4 0h7.19a8.56 8.56 0 0 1 8.56 8.56zm-2.74 0a5.83 5.83 0 0 0-5.819-5.82H6.39A1.79 1.79 0 0 0 4.6 4.53v.011-.001 10.89a5.83 5.83 0 0 0 5.819 5.8h7.441a1.793 1.793 0 0 0 1.538-1.469l.002-.011z"/></svg>