<svg xmlns="http://www.w3.org/2000/svg" width="24" height="24"><path fill="#8a9296" d="M14.86 0L6.877.06a6.167 6.167 0 0 0-3.731 2.488l-.013.02a6.328 6.328 0 0 0-1.348 2.596l-.009.044-.12.553-.119.857c-.06.799-.06 1.351.12 1.471h5.275c.06 0-.186-.246-.186-.672 0-.738.252-.924.552-1.23.552-.426 2.945-.12 4.728-.246 2.448 0 4.602-.06 4.848-.12 2.7-.427 5.03-2.388 5.522-4.536.12-.547.12-1.105.06-1.165C22.396 0 21.417 0 14.86 0zM9.192 9.007c-3.758-.015-7.47 0-7.53.06-.126.126-.06.798.06 1.35a5.665 5.665 0 0 0 1.833 2.753l.01.008a7.503 7.503 0 0 0 3.263 1.581l.049.009c.366.126 1.044.126 4.597.126 4.236 0 4.915.06 5.22.24.142.107.265.23.369.367l.003.005c.18.24.181.307.181.979s-.066.732-.186 1.044a1.48 1.48 0 0 1-.419.362l-.007.004c-.186.12-.307.119-4.357.179-4.67 0-5.155 0-6.319.432a6.461 6.461 0 0 0-2.467 1.356l.007-.006c-1.164 1.039-1.842 2.203-1.962 3.428l.06.611c2.294.067 4.994.105 7.702.105s5.408-.038 8.098-.113l-.396.009.492-.12c.285-.069.531-.153.766-.256l-.029.011.367-.18a7.766 7.766 0 0 0 3.483-4.242l.016-.054a8.207 8.207 0 0 0 .397-2.55 8.355 8.355 0 0 0-.792-3.562l.022.051a8.58 8.58 0 0 0-2.311-2.867l-.017-.013a6.836 6.836 0 0 0-2.349-.976l-.045-.008c-.246-.06-4.051-.106-7.809-.121z"/></svg>