<!-- Generated by IcoMoon.io -->
<svg version="1.1" xmlns="http://www.w3.org/2000/svg" width="24" height="24" viewBox="0 0 24 24">
<title>search1</title>
<path d="M9.712 19.579c2.393 0 4.575-0.877 6.266-2.325l6.51 6.51c0.146 0.146 0.341 0.221 0.533 0.221s0.386-0.075 0.532-0.221 0.221-0.337 0.221-0.532-0.071-0.386-0.221-0.533l-6.514-6.51c1.444-1.688 2.325-3.874 2.325-6.266 0-5.321-4.331-9.652-9.653-9.652-5.325 0-9.656 4.331-9.656 9.656 0 5.321 4.331 9.653 9.656 9.653zM9.712 1.774c4.492 0 8.149 3.656 8.149 8.149s-3.656 8.149-8.149 8.149-8.149-3.656-8.149-8.149c-0.004-4.493 3.652-8.149 8.149-8.149z"></path>
</svg>
