<!-- Generated by IcoMoon.io -->
<svg version="1.1" xmlns="http://www.w3.org/2000/svg" width="24" height="24" viewBox="0 0 24 24">
<title>search11</title>
<path d="M16.050 15.075h1.125l6.9 6.9-2.1 2.025-6.9-6.9v-1.050l-0.375-0.375c-1.575 1.35-3.6 2.175-5.85 2.175-4.875 0-8.85-3.975-8.85-8.925s3.975-8.925 8.925-8.925 8.925 3.975 8.925 8.925c0 2.25-0.825 4.275-2.175 5.85 0.15 0.075 0.375 0.3 0.375 0.3zM8.925 2.775c-3.375 0-6.15 2.775-6.15 6.15s2.775 6.15 6.15 6.15 6.15-2.775 6.15-6.15-2.775-6.15-6.15-6.15z"></path>
</svg>
