<svg xmlns="http://www.w3.org/2000/svg" width="24" height="24"><path fill="#19a974" d="M21.864 5.266a.596.596 0 0 1 .609.255l.001.002s.467.76.744 1.365c.275.604.542 1.453.542 1.453a.588.588 0 0 1-.207.627l-.001.001-1.505 1.073a.756.756 0 0 0-.286.593l.002.056v-.002s.084.573.096 1.066c.01.485-.04 1.045-.04 1.045v.015a.75.75 0 0 0 .314.611l.002.002 1.561.993c.192.122.3.398.24.618 0 0-.222.862-.467 1.48-.242.62-.668 1.4-.668 1.4a.592.592 0 0 1-.598.287h.003l-1.819-.337a.76.76 0 0 0-.66.244l-.001.001s-.381.489-.754.861c-.414.415-.997.857-.997.857a.759.759 0 0 0-.254.661v-.004l.306 1.824a.592.592 0 0 1-.295.589l-.003.002s-.79.412-1.414.645c-.623.233-1.488.44-1.488.44a.592.592 0 0 1-.609-.249l-.001-.002-.967-1.576a.757.757 0 0 0-.623-.328h-.001s-.496.04-.949.025c-.466-.015-.986-.09-.986-.09a.752.752 0 0 0-.645.28l-.001.001-1.076 1.506a.592.592 0 0 1-.632.206l.004.001s-.85-.267-1.456-.543c-.605-.276-1.362-.74-1.362-.74a.592.592 0 0 1-.255-.614l-.001.004.385-1.599c.08-.331.338-.796.579-1.037l3.98-3.993a3.7 3.7 0 0 0 5.016-5.043l.01.019 3.988-3.989c.241-.24.705-.5 1.036-.579zM2.134 18.733a.596.596 0 0 1-.609-.255l-.001-.002s-.467-.758-.743-1.364c-.276-.605-.543-1.453-.543-1.453a.591.591 0 0 1 .206-.627l.001-.001 1.506-1.073a.758.758 0 0 0 .285-.592l-.002-.057v.003s-.082-.573-.095-1.066c-.01-.485.04-1.046.04-1.046v-.015a.75.75 0 0 0-.314-.611l-.002-.002-1.56-.992a.592.592 0 0 1-.24-.621l-.001.004S.285 8.1.528 7.48c.244-.617.67-1.4.67-1.4a.593.593 0 0 1 .597-.286h-.003l1.819.337a.756.756 0 0 0 .66-.244l.001-.001s.38-.489.753-.862c.414-.414.997-.855.997-.855a.76.76 0 0 0 .253-.664v.004l-.306-1.822a.592.592 0 0 1 .295-.59l.003-.002s.79-.412 1.414-.647C8.304.217 9.169.01 9.169.01a.59.59 0 0 1 .61.248L9.78.26l.966 1.578a.756.756 0 0 0 .622.326h.002s.496-.039.949-.024c.466.015.986.091.986.091a.752.752 0 0 0 .645-.282l.001-.001L15.026.443a.595.595 0 0 1 .632-.207l-.004-.001s.85.268 1.456.544c.605.275 1.362.74 1.362.74a.593.593 0 0 1 .255.613l.001-.004-.385 1.599a2.59 2.59 0 0 1-.58 1.038l.002-.002-3.981 3.994a3.7 3.7 0 0 0-5.016 5.045l-.01-.019L4.77 17.77c-.24.242-.705.5-1.036.58z"/></svg>