<svg xmlns="http://www.w3.org/2000/svg" width="24" height="24"><path d="M12 15.984q1.031 0 1.969-.516.891 1.031 1.031 1.172-1.359.844-3 .844-1.594 0-2.953-.844.563-.75.984-1.172.891.516 1.969.516zm0 4.032q3.281 0 5.648-2.367t2.367-5.648-2.367-5.648T12 3.986 6.352 6.353t-2.367 5.648 2.367 5.648T12 20.016zm0-18q4.125 0 7.055 2.93t2.93 7.055-2.93 7.055T12 21.986t-7.055-2.93-2.93-7.055 2.93-7.055T12 2.016zm-5.016 7.5q0-.609.445-1.055t1.055-.445 1.055.445.445 1.055-.445 1.055-1.055.445-1.055-.445-.445-1.055zm7.032 0q0-.609.445-1.055t1.055-.445 1.055.445.445 1.055-.445 1.055-1.055.445-1.055-.445-.445-1.055z"/></svg>