<svg xmlns="http://www.w3.org/2000/svg" width="24" height="24"><path d="M12.7 11.698V.675C12.7.3 12.4 0 12.025 0s-.675.3-.675.675v11.023c-1.564.315-2.748 1.699-2.748 3.358s1.184 3.043 2.748 3.358v4.907c0 .375.3.675.675.675s.675-.3.675-.675v-4.907a3.43 3.43 0 0 0 2.748-3.358 3.43 3.43 0 0 0-2.748-3.358zm-.675 5.431a2.075 2.075 0 0 1 0-4.148 2.075 2.075 0 0 1 0 4.148zM4.44 6.041V.674c0-.375-.3-.675-.675-.675s-.675.3-.675.675v5.367C1.526 6.356.342 7.74.342 9.399s1.184 3.043 2.748 3.358V23.32c0 .375.3.675.675.675s.675-.3.675-.675V12.752c1.564-.315 2.748-1.699 2.748-3.358S6.004 6.356 4.44 6.041zm-.675 5.432a2.075 2.075 0 0 1 0-4.148 2.075 2.075 0 0 1 0 4.148zm17.144-5.432V.674c0-.375-.3-.675-.675-.675s-.675.3-.675.675v5.367c-1.564.315-2.748 1.699-2.748 3.358s1.184 3.043 2.748 3.358v10.568c0 .375.3.675.675.675s.675-.3.675-.675V12.752c1.564-.315 2.748-1.699 2.748-3.358s-1.179-3.038-2.748-3.353zm-.674 5.432a2.075 2.075 0 0 1 0-4.148 2.075 2.075 0 0 1 0 4.148z"/></svg>