<!-- Generated by IcoMoon.io -->
<svg version="1.1" xmlns="http://www.w3.org/2000/svg" width="24" height="24" viewBox="0 0 24 24">
<title>share1</title>
<path d="M19.017 15.419c-1.38 0-2.611 0.658-3.399 1.674l-6.593-3.683c0.154-0.444 0.239-0.922 0.239-1.415 0-0.498-0.085-0.972-0.244-1.42l6.588-3.678c0.782 1.022 2.018 1.684 3.404 1.684 2.362 0 4.291-1.924 4.291-4.291s-1.924-4.291-4.291-4.291-4.291 1.924-4.291 4.291c0 0.498 0.085 0.977 0.244 1.42l-6.583 3.678c-0.782-1.027-2.018-1.684-3.404-1.684-2.362 0-4.291 1.924-4.291 4.291s1.929 4.291 4.296 4.291c1.385 0 2.621-0.663 3.409-1.689l6.588 3.683c-0.159 0.449-0.249 0.932-0.249 1.43 0 2.362 1.924 4.291 4.291 4.291s4.291-1.924 4.291-4.291-1.929-4.291-4.296-4.291zM19.017 1.35c1.625 0 2.945 1.321 2.945 2.945s-1.321 2.945-2.945 2.945-2.945-1.321-2.945-2.945 1.326-2.945 2.945-2.945zM4.983 14.94c-1.625 0-2.945-1.321-2.945-2.945s1.321-2.945 2.945-2.945 2.945 1.321 2.945 2.945-1.326 2.945-2.945 2.945zM19.017 22.65c-1.625 0-2.945-1.321-2.945-2.945s1.321-2.945 2.945-2.945 2.945 1.321 2.945 2.945-1.321 2.945-2.945 2.945z"></path>
</svg>
