<svg xmlns="http://www.w3.org/2000/svg" width="24" height="24"><path d="M19.017 15.419c-1.38 0-2.611.658-3.399 1.674L9.025 13.41a4.32 4.32 0 0 0 .239-1.415 4.22 4.22 0 0 0-.244-1.42l6.588-3.678a4.282 4.282 0 0 0 3.404 1.684c2.362 0 4.291-1.924 4.291-4.291S21.379-.001 19.012-.001s-4.291 1.924-4.291 4.291c0 .498.085.977.244 1.42L8.382 9.388a4.267 4.267 0 0 0-3.404-1.684c-2.362 0-4.291 1.924-4.291 4.291s1.929 4.291 4.296 4.291a4.295 4.295 0 0 0 3.409-1.689l6.588 3.683a4.286 4.286 0 0 0-.249 1.43c0 2.362 1.924 4.291 4.291 4.291s4.291-1.924 4.291-4.291-1.929-4.291-4.296-4.291zm0-14.069c1.625 0 2.945 1.321 2.945 2.945S20.641 7.24 19.017 7.24s-2.945-1.321-2.945-2.945 1.326-2.945 2.945-2.945zM4.983 14.94c-1.625 0-2.945-1.321-2.945-2.945S3.359 9.05 4.983 9.05s2.945 1.321 2.945 2.945-1.326 2.945-2.945 2.945zm14.034 7.71c-1.625 0-2.945-1.321-2.945-2.945s1.321-2.945 2.945-2.945 2.945 1.321 2.945 2.945-1.321 2.945-2.945 2.945z"/></svg>