<!-- Generated by IcoMoon.io -->
<svg version="1.1" xmlns="http://www.w3.org/2000/svg" width="24" height="24" viewBox="0 0 24 24">
<title>share11</title>
<path d="M19.65 7.125c-0.975 0-1.875-0.375-2.475-0.975l-8.475 4.875c0.075 0.3 0.15 0.6 0.15 0.9s-0.075 0.6-0.15 0.9l8.55 4.95c0.675-0.6 1.5-0.9 2.475-0.9 2.025 0 3.6 1.575 3.6 3.6s-1.725 3.525-3.675 3.525-3.6-1.575-3.6-3.6c0-0.375 0.075-0.675 0.15-0.975l-8.55-4.95c-0.675 0.6-1.5 0.975-2.475 0.975-2.025 0-3.6-1.575-3.6-3.6s1.65-3.6 3.6-3.6c0.975 0 1.875 0.375 2.475 0.975l8.475-4.725c-0.075-0.3-0.15-0.6-0.15-0.9 0-1.95 1.65-3.6 3.6-3.6s3.675 1.575 3.675 3.6-1.65 3.525-3.6 3.525z"></path>
</svg>
