<svg xmlns="http://www.w3.org/2000/svg" width="24" height="24"><path fill="#2d2e83" d="M24 12v-.34l-.03-.24a5.488 5.488 0 0 0-4.856-4.888l-.024-.002-.24-.01h-.05l-.27-.01h-.023a5.433 5.433 0 0 0-3.857 1.6L12.8 9.97l1.35 1.36 1.35-1.35h-.01l.5-.51a3.536 3.536 0 0 1 2.52-1.05H18.719l.16.01a3.586 3.586 0 0 1 3.199 3.174l.001.016v.73a3.59 3.59 0 0 1-1.979 2.831l-.021.009-.03.02-.1.04-.07.03-.06.03-.11.04h-.03a3.5 3.5 0 0 1-1.17.197 3.569 3.569 0 0 1-2.52-1.037l-.5-.5-3.37-3.36-5.38-5.39L-.001 12l6.74 6.74 1.34-1.35 3.37-3.37-1.34-1.35-3.37 3.37L2.699 12l4.04-4.04 7.91 7.91a5.443 5.443 0 0 0 3.862 1.601c.64 0 1.255-.11 1.826-.313l-.038.012.05-.01.16-.07.1-.04.11-.04.16-.07.05-.03c1.665-.827 2.835-2.432 3.038-4.326l.002-.024v-.01l.02-.24V12z"/></svg>