<svg xmlns="http://www.w3.org/2000/svg" width="24" height="24"><path fill="#099" d="M.086 13.761v-.722c.41.13.775.195 1.09.195.437 0 .654-.115.654-.347v-.006a.276.276 0 0 0-.096-.21c-.063-.063-.23-.148-.499-.258-.479-.198-.794-.365-.939-.507a.93.93 0 0 1-.283-.67v-.026.001c0-.36.139-.637.414-.825.27-.188.626-.28 1.062-.28.24 0 .589.043 1.045.133v.692a2.527 2.527 0 0 0-.942-.202h-.003c-.41 0-.613.112-.613.339 0 .084.04.15.124.205.067.042.257.134.565.273.446.197.742.368.891.516.163.164.265.39.265.639l-.001.036v-.002l.001.033c0 .374-.207.7-.512.869l-.005.003c-.278.17-.64.256-1.083.256-.402 0-.793-.049-1.167-.141l.033.007zm3.31-3.592h1.018v3.65H3.395zm1.953 3.65v-3.65h2.616v.66H6.332v.826h1.422v.602H6.332v.866h1.675v.697zm3.325 0v-3.65h1.322l.917 2.333.943-2.333h1.257v3.65h-.969v-2.584l-1.07 2.622h-.631l-1.05-2.622v2.585zm5.373 0v-3.65h2.615v.66H15.03v.826h1.421v.602H15.03v.866h1.676v.697zm3.33 0v-3.65h1.18l1.255 2.445V10.17h.72v3.65H19.38l-1.285-2.475v2.476zm3.878-.058v-.722c.406.13.77.195 1.09.195.436 0 .653-.115.653-.347v-.004a.292.292 0 0 0-.091-.212c-.066-.063-.234-.148-.503-.258-.48-.196-.794-.364-.94-.507a.934.934 0 0 1-.284-.672v-.027.001c0-.359.138-.634.413-.822.272-.188.626-.28 1.061-.28.249 0 .566.038.956.116l.09.017v.692a2.527 2.527 0 0 0-.942-.202h-.003c-.409 0-.613.112-.613.339 0 .084.04.15.124.204.066.042.254.133.57.274.443.196.738.368.887.516a.9.9 0 0 1 .264.638l-.001.037v-.002c0 .396-.17.698-.51.904-.283.17-.644.256-1.089.256-.381 0-.76-.046-1.132-.134z"/></svg>