<svg height="24" width="24" xmlns="http://www.w3.org/2000/svg"><path d="m7.961 17.563a.435.435 0 0 0 -.461.203 2.48 2.48 0 0 1 -2.684 1.395 2.46 2.46 0 0 1 1.397-2.681.435.435 0 0 0 -.165-.802 4.539 4.539 0 0 0 -4.252 1.469 7.56 7.56 0 0 0 -1.296 5.966.435.435 0 0 0 .359.359c.498.081 1.002.12 1.508.12a6.501 6.501 0 0 0 4.931-1.873 4.6 4.6 0 0 0 1.007-3.808.433.433 0 0 0 -.345-.375zm15.817-17.36c-.171-.169-.522-.089-.522-.089a17.032 17.032 0 0 0 -1.917-.113 15.563 15.563 0 0 0 -11.106 4.497c-.351.353-.684.724-.999 1.112l-.021.027a5.768 5.768 0 0 0 -4.455-.165c-2.287.984-3.623 3.787-4.729 6.671a.434.434 0 0 0 .674.498 5.708 5.708 0 0 1 5.44-.749l-.543 1.964a.432.432 0 0 0 .187.479 19.184 19.184 0 0 1 3.863 3.857.433.433 0 0 0 .482.188l1.963-.539a5.62 5.62 0 0 1 -.749 5.456.436.436 0 0 0 .499.674c2.883-1.109 5.686-2.443 6.665-4.722a5.767 5.767 0 0 0 -.161-4.451c.395-.326.772-.672 1.133-1.036 3.381-3.44 5-8.241 4.392-13.026 0 0 .076-.352-.096-.524zm-2.439.667c.563 0 1.127.029 1.688.088.079.771.103 1.548.07 2.322a2.743 2.743 0 0 1 -1.623-.771 2.686 2.686 0 0 1 -.777-1.623c.209-.011.422-.018.636-.018zm-10.493 4.242a14.579 14.579 0 0 1 8.982-4.172c.07.677.33 1.318.749 1.855l-2.698 2.697a3.522 3.522 0 0 0 -4.946 4.946l-3.147 3.147a19.377 19.377 0 0 0 -2.559-2.088l-.067-.043a14.497 14.497 0 0 1 3.687-6.343zm7.524 3.159a2.657 2.657 0 0 1 -2.657 2.66 2.659 2.659 0 0 1 -.003-5.317h.003a2.658 2.658 0 0 1 2.657 2.657zm-17.056 2.998c.941-2.254 2.09-4.268 3.779-4.994a4.69 4.69 0 0 1 1.667-.299 4.78 4.78 0 0 1 1.923.401l-.031-.012a15.357 15.357 0 0 0 -2.265 4.668 6.079 6.079 0 0 0 -5.074.233l.001.003zm8.891 6.19a21.538 21.538 0 0 0 -3.683-3.677l.395-1.434a18.64 18.64 0 0 1 4.722 4.718zm7.508 1.425c-.727 1.698-2.737 2.848-4.989 3.789a6.086 6.086 0 0 0 .225-5.074 15.437 15.437 0 0 0 4.679-2.278 4.8 4.8 0 0 1 .083 3.566zm-5.186-2.06a19.218 19.218 0 0 0 -2.123-2.628l3.147-3.148a3.52 3.52 0 0 0 4.945-4.946l2.698-2.698a3.645 3.645 0 0 0 1.85.75 14.562 14.562 0 0 1 -4.167 8.98l.001-.001a14.427 14.427 0 0 1 -6.241 3.659l-.102.025z"/></svg>