<svg xmlns="http://www.w3.org/2000/svg" width="24" height="24"><path d="M24 17.325C24 21 21 24 17.325 24c-1.2 0-2.325-.3-3.3-.825-.675.15-1.35.15-2.025.15C5.775 23.325.75 18.225.75 12c0-.675.075-1.275.15-1.95-.525-.975-.9-2.1-.9-3.375C0 3 3 0 6.675 0c1.2 0 2.325.3 3.3.9A9.31 9.31 0 0 1 12 .675c6.225 0 11.25 5.1 11.25 11.325 0 .675-.075 1.35-.15 1.95.6.975.9 2.175.9 3.375zM10.8 7.2c.9-.15 2.7-.15 3.675 1.2 1.05 1.35 2.325.45 2.325.45.9-.9.075-2.025.075-2.025-1.575-2.1-5.1-2.1-5.1-2.1-5.475 0-5.475 4.05-5.475 4.05-.3 3.15 3.15 3.9 3.15 3.9l3.675.975c.975.15 1.35.825 1.35.825.525 1.575-1.35 2.25-1.35 2.25-2.025.6-3.45-.3-4.05-1.275s-1.2-1.05-1.2-1.05c-1.275-.225-1.65.75-1.65.75-.525 2.025 2.25 3.375 2.25 3.375 3.975 1.575 9.225.225 9.3-3.45.15-3.75-3.525-4.275-5.625-4.65-1.65-.3-2.25-.675-2.4-.825a1.035 1.035 0 0 1-.225-.3C9 8.25 9.9 7.35 10.8 7.2zm-.825 2.775V9.9c0 .075.075.15 0 .075z"/></svg>