<!-- Generated by IcoMoon.io -->
<svg version="1.1" xmlns="http://www.w3.org/2000/svg" width="24" height="24" viewBox="0 0 24 24">
<title>skype1</title>
<path d="M24 17.325c0 3.675-3 6.675-6.675 6.675-1.2 0-2.325-0.3-3.3-0.825-0.675 0.15-1.35 0.15-2.025 0.15-6.225 0-11.25-5.1-11.25-11.325 0-0.675 0.075-1.275 0.15-1.95-0.525-0.975-0.9-2.1-0.9-3.375 0-3.675 3-6.675 6.675-6.675 1.2 0 2.325 0.3 3.3 0.9 0.675-0.15 1.35-0.225 2.025-0.225 6.225 0 11.25 5.1 11.25 11.325 0 0.675-0.075 1.35-0.15 1.95 0.6 0.975 0.9 2.175 0.9 3.375zM10.8 7.2c0.9-0.15 2.7-0.15 3.675 1.2 1.050 1.35 2.325 0.45 2.325 0.45 0.9-0.9 0.075-2.025 0.075-2.025-1.575-2.1-5.1-2.1-5.1-2.1-5.475 0-5.475 4.050-5.475 4.050-0.3 3.15 3.15 3.9 3.15 3.9l3.675 0.975c0.975 0.15 1.35 0.825 1.35 0.825 0.525 1.575-1.35 2.25-1.35 2.25-2.025 0.6-3.45-0.3-4.050-1.275s-1.2-1.050-1.2-1.050c-1.275-0.225-1.65 0.75-1.65 0.75-0.525 2.025 2.25 3.375 2.25 3.375 3.975 1.575 9.225 0.225 9.3-3.45 0.15-3.75-3.525-4.275-5.625-4.65-1.65-0.3-2.25-0.675-2.4-0.825-0.075-0.075-0.15-0.15-0.225-0.3-0.525-1.050 0.375-1.95 1.275-2.1zM9.975 9.975v-0.075c0 0.075 0.075 0.15 0 0.075z"></path>
</svg>
