<svg xmlns="http://www.w3.org/2000/svg" width="24" height="24"><path fill="#5294e2" d="M7.453 0c-.18.587-.369 1.167-.565 1.75C2.798 3.611.004 7.661 0 12.363v.001c.003 1.215.191 2.386.538 3.485l-.022-.082-.339.598L0 16.73l.279.143c.213.094.461.171.72.219l.021.003c.306.683.633 1.265 1.006 1.814L2 18.868c4.034.343 8.55.512 12.446-.056 3.192-.463 5.94-1.423 7.735-3.117.252-.233.474-.474.674-.722.019-.038.037-.053.06-.076.011 0 .026-.037.038-.052.015 0 .03-.038.041-.057.008 0 .015-.038.023-.038.33-.444.587-.892.801-1.31l.181-.365-.365-.365a6.06 6.06 0 0 0-.355-.345l-.006-.005c0-6.428-5.211-11.638-11.638-11.638-1.146.004-2.25.173-3.293.484l.082-.021C7.96.508 7.596.041 7.453 0zm.365 1.637C9.06 3.82 10.13 5.06 11.454 7.457c.132 1.524.67 9.45.727 10.181-.392-.037-2.485-.24-5.104-.515-1.43-.147-2.899-.316-4.092-.49l-1.9-.447c2.149-3.787 5.551-9.727 6.733-14.549zm4.543 6.18s4.991 3.927 7.092 8.73c-2.56 1.26-4.916 1.098-6.361 1.09 1.023-2.634 1.023-6.21-.731-9.82zm3.456 2.184c1.301.354 2.271.664 3.225 1.005l-.315-.098c1.768.629 3.417 1.49 4.365 2.364a7.018 7.018 0 0 1-2.873 2.892l-.037.018c.151-1.495-.39-2.933-1.456-4.002-.787-.787-1.822-1.453-2.909-2.179zm6.707 6.478c-2.352 1.667-5.126 2.68-7.965 3.112a38.32 38.32 0 0 1-3.623.337l-.092.003h-.323a55.278 55.278 0 0 1-3.82-.003l.094.003a86.89 86.89 0 0 1-4.486-.25l.305.02c2.555 3.255 6.993 4.893 11.092 4.102a11.355 11.355 0 0 0 4.535-1.876l-.037.024h.007a12.1 12.1 0 0 0 .903-.685l.04-.039-.002.002a11.596 11.596 0 0 0 3.346-4.671l.027-.079zM2.511 19.584l.052.088-.029-.05c-.008 0-.015-.038-.023-.038z"/></svg>