<svg xmlns="http://www.w3.org/2000/svg" width="24" height="24"><path fill="#f3702a" d="M22.406 10.9a7.117 7.117 0 0 0-3.327-2.344l-.05-.014v-.085c0-4.035-3.156-7.324-7.047-7.324-3.893 0-7.05 3.282-7.05 7.325v.1C2.081 9.492 0 12.268 0 15.542c0 4.035 3.159 7.325 7.05 7.325A6.887 6.887 0 0 0 12 20.761l.002-.002a6.865 6.865 0 0 0 4.946 2.108h.001c3.884 0 7.051-3.282 7.051-7.325a7.544 7.544 0 0 0-1.606-4.659l.013.017zM16.95 21.014c-2.903 0-5.267-2.456-5.267-5.474v-.014a.91.91 0 0 0-.889-.91h-.001a.906.906 0 0 0-.892.906v.02-.001c0 1.368.367 2.651.994 3.748a5.146 5.146 0 0 1-3.844 1.733H7.05c-2.904 0-5.27-2.457-5.27-5.474s2.366-5.473 5.27-5.473c.63 0 1.241.117 1.827.335.007 0 .013.007.02.007.203.071.489.21.578.287a.857.857 0 0 0 1.248-.098l.001-.002a.941.941 0 0 0-.096-1.299l-.001-.001c-.39-.342-.995-.575-1.144-.63a6.697 6.697 0 0 0-2.417-.443h-.009c-.113 0-.225 0-.338.007.12-2.916 2.433-5.247 5.27-5.247 2.903 0 5.267 2.456 5.267 5.474v.017c0 1.81-.864 3.419-2.201 4.436l-.014.01a.948.948 0 0 0-.208 1.286l-.002-.003c.171.25.45.39.727.39a.855.855 0 0 0 .518-.174l-.002.002a7.405 7.405 0 0 0 2.697-3.968l.012-.052c2.035.785 3.449 2.829 3.449 5.139-.007 3.01-2.371 5.466-5.283 5.466z"/></svg>