<svg height="24" width="24" xmlns="http://www.w3.org/2000/svg"><path d="M23.638 10.303h-.045v-.1h.045c.037 0 .055.019.055.051s-.018.05-.055.049zm.15-.05c0-.059-.038-.112-.127-.112h-.162v.364h.094v-.14h.035l.085.14h.11l-.104-.151a.102.102 0 0 0 .068-.096v-.005zm-.151.34a.267.267 0 1 1 0-.534.267.267 0 1 1 0 .534zm0-.574a.306.306 0 1 0 0 .614.306.306 0 1 0 0-.614zm-7.7.1l-.621 1.846-.014.04-.013-.04-.611-1.854h-.497l-.611 1.854-.014.04-.013-.04-.62-1.846h-.616l.981 2.726h.505l.615-1.778.014-.038.013.038.615 1.778h.505l.982-2.726zM1.033 11.355c-.615-.126-.732-.287-.732-.539v-.007c0-.267.254-.46.605-.46.293 0 .526.087.755.285l.021.018.006-.006v-.302a1.293 1.293 0 0 0-.733-.226l-.044.001h.002c-.49 0-.86.305-.86.708v.008c0 .408.26.627.895.755.598.12.71.277.71.525v.007c0 .287-.257.487-.626.487-.36 0-.616-.106-.91-.378l-.021-.019-.005.005v.312c.283.212.574.309.924.309.522 0 .886-.302.886-.734v-.008c0-.395-.26-.616-.873-.74zm10.083-1.229c-.4 0-.732.128-.998.387a1.278 1.278 0 0 0-.398.929v.029-.001c0 .36.11.667.329.922.261.301.618.452 1.07.452.239 0 .454-.045.647-.135.096-.044.184-.12.264-.183v-.336c-.242.273-.54.41-.894.41-.33 0-.603-.106-.82-.317a1.055 1.055 0 0 1-.324-.762v-.055c0-.401.222-.751.549-.933l.005-.003c.176-.1.367-.149.574-.149a1.118 1.118 0 0 1 .91.428v-.35c-.078-.065-.165-.143-.26-.19a1.45 1.45 0 0 0-.632-.143h-.024.001zm6.602.712l.36.927-.074-.003a8.122 8.122 0 0 0-.67.009l.02-.001zm.903.96l-.645-1.68h-.524l-.64 1.715c-.63.117-1.037.392-.836.936.278.758 1.542 1.212 1.542 1.212s-1.253-.808-.604-1.332c.29-.234.803-.41 1.29-.536l.28.725h.536l-.321-.837c.411-.084.721-.124.721-.124s-.365-.045-.8-.08zm3.569-1.679h-.517v2.714h1.547v-.493h-1.03v-2.22zm-2.095.001h-.517v2.714h1.547v-.493h-1.03zM8.728 12.847h.256v-2.73h-.256zm-1.01-.633l-1.82-2.095h-.06v2.734h.283v-2.07l1.805 2.07h.061v-2.734h-.27v2.095zm-2.986-.176c-.095.169-.228.301-.398.398s-.355.145-.554.145c-.3 0-.555-.105-.767-.316a1.049 1.049 0 0 1-.318-.753v-.023.001c0-.206.047-.394.143-.562s.232-.304.395-.398l.005-.003c.17-.1.351-.149.542-.149.194 0 .377.05.55.149.328.186.545.533.545.931v.02-.001c0 .206-.048.393-.143.561zm-.964-1.91c-.24 0-.464.06-.67.18-.207.119-.37.284-.49.495s-.18.44-.18.688c0 .371.132.687.395.949.262.26.584.392.966.392.377 0 .697-.132.959-.394s.393-.582.393-.96c0-.38-.131-.7-.394-.96a1.333 1.333 0 0 0-.944-.39h-.037z" fill="#f60"/></svg>