<svg xmlns="http://www.w3.org/2000/svg" width="24" height="24"><path fill="#f79a10" d="M19.865.718h-.26L7.64.786A12.76 12.76 0 0 0 .63 2.475l.002.002a1.211 1.211 0 0 0 .578 2.274c.35 0 .662-.148.883-.383A10.193 10.193 0 0 1 6.99 3.132c1.414 0 2.762.284 3.989.799l-.068-.025c5.275 2.165 7.805 8.22 5.64 13.495a10.352 10.352 0 0 1-2.489 3.608l-.006.005.01.013a1.21 1.21 0 1 0 1.627 1.695l.003-.005a12.665 12.665 0 0 0 3.009-4.336l.031-.083c.049-.118 4.952-12.061 4.964-12.093a3.993 3.993 0 0 0-2.152-5.197l-.026-.01c-.55-.226-1.064-.278-1.657-.28zM6.067 6.853c-2.635 0-5.342.807-5.342 3.941 0 2.16 1.946 2.849 3.893 3.277 2.422.522 3.823.878 3.823 1.899 0 1.188-1.235 1.568-2.208 1.568-1.33 0-2.564-.594-2.588-2.066H.44c.143 3.252 2.92 4.32 5.77 4.32 2.801 0 5.603-1.044 5.603-4.273 0-2.28-1.923-2.992-3.894-3.443-1.923-.451-3.823-.617-3.823-1.828 0-.997 1.116-1.14 1.877-1.14 1.21 0 2.207.357 2.302 1.662h3.205c-.26-3.015-2.73-3.917-5.413-3.917z"/></svg>