<svg xmlns="http://www.w3.org/2000/svg" width="24" height="24"><path d="M23.7 18.75c-.45.525-2.55.9-2.925.975l-.15.675c0 .15-.075.225-.075.375 0 .075 0 .075-.075.15 0 .075-.075.15-.15.225-.15.15-.375.075-.45.075-.525-.075-1.8-.525-3.6.225L15 22.275c-.525.375-1.125.675-1.725.825-.3.075-.675.15-1.05.15h-.3c-.3 0-.6-.075-.9-.15-.675-.15-1.275-.45-1.875-.825l-1.275-.825c-1.8-.825-3.075-.3-3.6-.225s-.225.075-.375 0c-.3-.075-.3-.375-.3-.375l-.3-1.05c-.225-.075-.9-.15-1.575-.375A4.954 4.954 0 0 1 .6 19.05l-.075-.075c-.075-.075-.15-.075-.15-.15-.675-.6 0-.75 0-.75H.45c.225-.075.6-.15 1.05-.3 2.325-.9 3.525-3.075 3.9-4.05.45-1.05-.375-1.5-.675-1.575s-1.125-.3-1.8-.75c-.525-.375-.525-.675-.3-.9.075-.075.15-.15.3-.225.525-.375 1.2-.075 1.2-.075.975.45 1.575.075 1.575.075-.15-.75-.075-3.825-.075-3.825 0-1.05.375-2.025.9-2.85.075-.075.075-.15.15-.225 0-.225.075-.3.15-.3V3l.15-.15s0-.075.075-.075l.225-.225c.075 0 .075-.075.15-.075l.15-.15c.075 0 .075-.075.15-.075l.225-.225h.075c.075-.075.15-.075.225-.15C9.3 1.125 10.575.75 12 .75c3.525 0 6.375 2.475 6.45 5.55v.75c0 .825 0 2.25-.075 2.925v.225h.075c.225.075.75.225 1.5-.15 0 0 .375-.15.825-.075.15 0 .3.075.375.15.15.075.3.15.375.375.15.225.075.525-.375.75-.6.375-1.35.6-1.65.675-.075 0-.075 0-.15.075-.225.075-.3.15-.45.3-.225.225-.375.45-.3.9.075.225.15.375.15.375.225.45.45.9.675 1.275.6.9 1.5 1.875 2.7 2.55.75.375 1.425.525 1.65.6.6.225-.075.75-.075.75z"/></svg>