<!-- Generated by IcoMoon.io -->
<svg version="1.1" xmlns="http://www.w3.org/2000/svg" width="24" height="24" viewBox="0 0 24 24">
<title>spanchat</title>
<path d="M23.7 18.75c-0.45 0.525-2.55 0.9-2.925 0.975l-0.15 0.675c0 0.15-0.075 0.225-0.075 0.375 0 0.075 0 0.075-0.075 0.15 0 0.075-0.075 0.15-0.15 0.225-0.15 0.15-0.375 0.075-0.45 0.075-0.525-0.075-1.8-0.525-3.6 0.225l-1.275 0.825c-0.525 0.375-1.125 0.675-1.725 0.825-0.3 0.075-0.675 0.15-1.050 0.15h-0.3c-0.3 0-0.6-0.075-0.9-0.15-0.675-0.15-1.275-0.45-1.875-0.825l-1.275-0.825c-1.8-0.825-3.075-0.3-3.6-0.225s-0.225 0.075-0.375 0c-0.3-0.075-0.3-0.375-0.3-0.375l-0.3-1.050c-0.225-0.075-0.9-0.15-1.575-0.375-0.375-0.075-0.825-0.225-1.125-0.375l-0.075-0.075c-0.075-0.075-0.15-0.075-0.15-0.15-0.675-0.6 0-0.75 0-0.75h0.075c0.225-0.075 0.6-0.15 1.050-0.3 2.325-0.9 3.525-3.075 3.9-4.050 0.45-1.050-0.375-1.5-0.675-1.575s-1.125-0.3-1.8-0.75c-0.525-0.375-0.525-0.675-0.3-0.9 0.075-0.075 0.15-0.15 0.3-0.225 0.525-0.375 1.2-0.075 1.2-0.075 0.975 0.45 1.575 0.075 1.575 0.075-0.15-0.75-0.075-3.825-0.075-3.825 0-1.050 0.375-2.025 0.9-2.85 0.075-0.075 0.075-0.15 0.15-0.225 0-0.225 0.075-0.3 0.15-0.3v-0.075l0.15-0.15s0-0.075 0.075-0.075l0.225-0.225c0.075 0 0.075-0.075 0.15-0.075l0.15-0.15c0.075 0 0.075-0.075 0.15-0.075l0.225-0.225h0.075c0.075-0.075 0.15-0.075 0.225-0.15 1.050-0.75 2.325-1.125 3.75-1.125 3.525 0 6.375 2.475 6.45 5.55v0.75c0 0.825 0 2.25-0.075 2.925v0.225h0.075c0.225 0.075 0.75 0.225 1.5-0.15 0 0 0.375-0.15 0.825-0.075 0.15 0 0.3 0.075 0.375 0.15 0.15 0.075 0.3 0.15 0.375 0.375 0.15 0.225 0.075 0.525-0.375 0.75-0.6 0.375-1.35 0.6-1.65 0.675-0.075 0-0.075 0-0.15 0.075-0.225 0.075-0.3 0.15-0.45 0.3-0.225 0.225-0.375 0.45-0.3 0.9 0.075 0.225 0.15 0.375 0.15 0.375 0.225 0.45 0.45 0.9 0.675 1.275 0.6 0.9 1.5 1.875 2.7 2.55 0.75 0.375 1.425 0.525 1.65 0.6 0.6 0.225-0.075 0.75-0.075 0.75z"></path>
</svg>
