<!-- Generated by IcoMoon.io -->
<svg version="1.1" xmlns="http://www.w3.org/2000/svg" width="24" height="24" viewBox="0 0 24 24">
<title>speaker</title>
<path d="M8.137 7.77c0.431 0 0.784-0.353 0.784-0.784s-0.349-0.784-0.784-0.784c-1.684 0-3.053 1.178-3.053 2.629v6.671c0 1.451 1.369 2.629 3.053 2.629 0.431 0 0.784-0.352 0.784-0.784s-0.349-0.784-0.784-0.784c-0.806 0-1.485-0.488-1.485-1.065v-6.668c0-0.574 0.682-1.061 1.485-1.061zM17.614 23.156c0.131 0 0.262-0.034 0.383-0.098 0.247-0.139 0.401-0.401 0.401-0.683v-20.749c0-0.285-0.157-0.547-0.409-0.686s-0.555-0.127-0.799 0.026l-7.624 4.879c-0.225 0.143-0.36 0.394-0.36 0.66v11.168c0 0.27 0.143 0.525 0.371 0.667l7.624 4.699c0.128 0.079 0.27 0.116 0.413 0.116zM16.83 20.97l-6.060-3.735v-10.301l6.060-3.877z"></path>
</svg>
