<svg xmlns="http://www.w3.org/2000/svg" width="24" height="24"><path d="M8.137 7.77a.784.784 0 1 0 0-1.568c-1.684 0-3.053 1.178-3.053 2.629v6.671c0 1.451 1.369 2.629 3.053 2.629a.783.783 0 1 0 0-1.568c-.806 0-1.485-.488-1.485-1.065V8.83c0-.574.682-1.061 1.485-1.061zm9.477 15.386a.82.82 0 0 0 .383-.098.786.786 0 0 0 .401-.683V1.626a.785.785 0 0 0-1.208-.66L9.566 5.845a.783.783 0 0 0-.36.66v11.168c0 .27.143.525.371.667l7.624 4.699a.78.78 0 0 0 .413.116zm-.784-2.186l-6.06-3.735V6.934l6.06-3.877z"/></svg>