<svg xmlns="http://www.w3.org/2000/svg" width="24" height="24"><path d="M.022 22.316a.881.881 0 0 0 .42.559.924.924 0 0 0 .446.105c.979 0 4.957-2.055 7.44-3.39 1.305.416 2.13.435 3.604.435h.086c6.607 0 11.981-4.219 11.981-9.405s-5.374-9.405-11.981-9.405C5.414 1.215.037 5.434.037 10.62c0 2.445 1.222 4.804 3.375 6.551-.33.491-.986 1.324-1.459 1.92C.254 21.24-.098 21.757.022 22.316zm3.132-2.295c1.642-2.081 2.017-2.621 1.942-3.165a.907.907 0 0 0-.33-.555C2.7 14.797 1.56 12.776 1.56 10.62c0-4.354 4.691-7.894 10.459-7.894s10.459 3.54 10.459 7.894-4.691 7.894-10.459 7.894h-.086c-1.496 0-2.152-.019-3.428-.457a.767.767 0 0 0-.615.049c-1.841.994-3.934 2.059-5.37 2.719l.634-.803z"/></svg>