<!-- Generated by IcoMoon.io -->
<svg version="1.1" xmlns="http://www.w3.org/2000/svg" width="24" height="24" viewBox="0 0 24 24">
<title>speech-bubble</title>
<path d="M0.022 22.316c0.045 0.221 0.221 0.454 0.42 0.559 0.131 0.071 0.281 0.105 0.446 0.105 0.979 0 4.957-2.055 7.44-3.39 1.305 0.416 2.13 0.435 3.604 0.435h0.086c6.607 0 11.981-4.219 11.981-9.405s-5.374-9.405-11.981-9.405c-6.604 0-11.981 4.219-11.981 9.405 0 2.445 1.222 4.804 3.375 6.551-0.33 0.491-0.986 1.324-1.459 1.92-1.699 2.149-2.051 2.666-1.931 3.225zM3.154 20.021c1.642-2.081 2.017-2.621 1.942-3.165-0.030-0.203-0.165-0.435-0.33-0.555-2.066-1.504-3.206-3.525-3.206-5.681 0-4.354 4.691-7.894 10.459-7.894s10.459 3.54 10.459 7.894-4.691 7.894-10.459 7.894h-0.086c-1.496 0-2.152-0.019-3.428-0.457-0.203-0.071-0.428-0.052-0.615 0.049-1.841 0.994-3.934 2.059-5.37 2.719 0.221-0.281 0.442-0.559 0.634-0.803z"></path>
</svg>
