<svg xmlns="http://www.w3.org/2000/svg" width="24" height="24"><path fill="#352a71" d="M15.126 6.408c.008.101.008.194 0 .295-.034.589-.295 1.027-.656 1.388a2.087 2.087 0 0 1-1.464.606l-.054.001a2.099 2.099 0 0 1-1.445-.574l.001.001a2.12 2.12 0 0 1-.683-1.561c0-.554.212-1.058.558-1.436l-.001.002.101-.101c.353-.345.757-.547 1.372-.606a2.1 2.1 0 0 1 1.583.557l-.001-.001c.396.37.64.884.689 1.431zm8.465 7.288l-.631 1.22a3.626 3.626 0 0 0-.367 1.123l-.003.021-.21 1.363a3.702 3.702 0 0 1-1.982 2.742l-.021.01-1.229.614c-.362.185-.69.421-.976.707l-.968.985a3.693 3.693 0 0 1-3.261 1.049l.022.003-1.355-.227a3.654 3.654 0 0 0-1.224.003l.022-.003-1.355.227a3.7 3.7 0 0 1-3.24-1.052l-.968-.985a3.693 3.693 0 0 0-.955-.697l-.021-.01-1.229-.614a3.721 3.721 0 0 1-2-2.731l-.003-.021-.21-1.363a3.567 3.567 0 0 0-.379-1.163l.009.019-.64-1.22c-.262-.493-.416-1.079-.416-1.7s.154-1.207.426-1.72l-.01.02.631-1.22c.174-.331.304-.716.367-1.123l.003-.021.21-1.363A3.702 3.702 0 0 1 3.61 3.827l.021-.01 1.229-.614c.362-.185.69-.421.976-.707l.968-.976A3.693 3.693 0 0 1 10.065.471l-.022-.003 1.355.227c.396.067.808.067 1.203 0l1.355-.227a3.7 3.7 0 0 1 3.24 1.052l.968.976c.286.286.614.53.976.707l1.229.614a3.721 3.721 0 0 1 2 2.731l.003.021.21 1.363c.059.404.185.791.37 1.144l.631 1.22c.263.496.418 1.084.418 1.709 0 .618-.151 1.2-.419 1.712l.01-.02zm-7.287-7.33a3.031 3.031 0 0 0-.353-1.312l.008.016a3.386 3.386 0 0 0-3.233-1.825l.01-.001c-.135.017-.252.025-.37.042a3.318 3.318 0 0 0-1.865 1.049l-.003.003a3.24 3.24 0 0 0-.84 2.451l-.001-.011c.076.926.488 1.717 1.086 2.23.438.379.993.715 1.691.816 1.338.202 2.365-.328 3.029-1.052a3.226 3.226 0 0 0 .84-2.416l.001.01zm-9.736 6.766c.244-.135.48-.278.715-.412-.084-.968-.16-2.011-.236-2.903.985-.412 1.683-1.212 1.994-2.339.252-.909.143-1.977-.32-2.575a1.541 1.541 0 0 0-.588-.484l-.009-.004c-.404-.151-.892-.034-1.229.109-.2.09-.371.192-.53.309l.008-.006c-.32.227-.614.48-.884.774.286 2.491.572 5.108.85 7.657.076-.034.151-.076.229-.126zm.126-7.153c.017-.076.202-.185.269-.236a.853.853 0 0 1 .426-.16h.003c.463-.017.572.379.597.825.017.236.017.471 0 .707-.059.783-.429 1.287-1.043 1.54-.05-.488-.084-1.077-.143-1.641-.025-.227-.059-.53-.093-.799-.008-.076-.017-.151-.016-.236zm-1.136 6.278a6.076 6.076 0 0 0-.437-1.249l.016.037a4.466 4.466 0 0 1-.367-1.212l-.003-.025c-.067-.597.05-1.119.429-1.397-.143-.463-.261-.917-.404-1.372-.825.438-1.397 1.229-1.397 2.407 0 .724.269 1.195.53 1.717.177.345.328.698.446 1.069.118.396.227.833.194 1.245-.067.791-.396 1.346-.825 1.818-.042.05-.185.168-.185.202.025.059.05.109.084.16.168.353.32.656.488 1.001.025.05.05.151.084.168s.101-.067.143-.118c.143-.151.278-.311.404-.48.698-.968 1.119-2.474.8-3.971zm2.777 1.674c.345-.976.673-1.986.926-3.012.076-.303.168-.614.227-.926.008-.034.034-.109 0-.126-.446.135-.909.252-1.346.396-.185 1.523-.64 2.878-1.153 4.148s-1.144 2.44-1.801 3.559c.808.875 1.834 1.54 2.962 2.095.202-.337.421-.665.614-1.01-.69-.421-1.405-.825-1.994-1.346a35.478 35.478 0 0 0 1.478-3.502l.088-.276zm2.625-2.684c-.286-.194-.64-.337-.951-.505-.623 2.39-1.456 4.594-2.255 6.833.278.151.547.32.833.471.539-1.043.867-2.163 1.296-3.299.21-.555.387-1.128.564-1.708s.353-1.186.513-1.792zm2.424 6.993v-.993c0-.227-.008-.48-.017-.875-.597.076-1.203.126-1.792.21-.025.328-.025.673-.042 1.018.261.017.673-.034.934-.034 0 .488 0 .909.008 1.321 0 .16.025.32-.017.454-.059.202-.269.328-.539.303-.311-.034-.555-.353-.69-.614-.463-.909-.311-2.407-.126-3.416a5.314 5.314 0 0 1 .745-1.949l-.013.022c.345-.547.816-1.001 1.489-1.195 0-.278-.017-.656-.034-.968-.008-.143 0-.32-.034-.396-.008-.008-.025.008-.034.008a3.677 3.677 0 0 0-1.134.645l.006-.005c-.492.387-.9.856-1.208 1.391l-.012.023c-.092.16-.188.353-.272.553l-.014.036c-.362.808-.53 1.742-.631 2.777-.076.791-.084 1.515.034 2.23.042.227.109.454.194.673.295.774.867 1.422 2.028 1.262.446-.059.808-.236 1.186-.396 0-.74-.017-1.515-.015-2.085zm3.559-4.477a20.484 20.484 0 0 1-.108-1.662l-.001-.029c-.025-.783 0-1.54.042-2.322 0-.008 0-.008-.008-.008-.303.236-.648.48-.976.715a.424.424 0 0 0-.125.117l-.001.001a.784.784 0 0 0 0 .206v-.004c-.008 1.128.059 2.322.084 3.332-.278.118-.555.269-.833.379a72.542 72.542 0 0 1-.25-3.165l-.011-.243c-.37.126-.707.278-1.069.412.076.555.151 1.086.202 1.599.093.816.135 1.632.143 2.449 0 .236 0 .471-.017.707-.034.496-.025 1.001-.059 1.498-.076.959-.067 1.986-.067 2.895.194-.084.379-.194.572-.286.194-.084.379-.185.564-.295 0-.362.017-.648.025-.959.034-1.186.067-2.179.025-3.231.32-.151.64-.303.976-.446.227 1.355.682 2.541 1.094 3.753.345-.261.64-.572.968-.858a19.078 19.078 0 0 1-.575-1.757l-.039-.162a12.663 12.663 0 0 1-.551-2.577l-.005-.059zm2.583-3.787c.194-.076.37-.194.555-.286s.362-.194.539-.303c-.337-.968-.757-1.851-1.338-2.609a10.174 10.174 0 0 0-1.953-1.968l-.024-.018c0-.017-.025 0-.025.008a7.25 7.25 0 0 0-.495.693l-.018.031c-.034.059-.151.21-.143.269.05.067.109.126.177.177.067.067.135.118.185.168.303.311.555.589.833.926.042.05.143.16.143.21a1.411 1.411 0 0 1-.079.278l.003-.009c-.135.48-.227.951-.311 1.456-.115.635-.18 1.365-.18 2.111 0 .299.011.597.031.891l-.002-.04c.076 1.052.278 2.003.505 2.928.109.454.244.909.412 1.346.126.328.252.656.396.951.05.101.076.219.16.295.286-.37.589-.724.867-1.094-.421-.749-.707-1.666-.926-2.617a6.619 6.619 0 0 1-.175-.981l-.002-.029c-.126-1.372-.177-2.861.194-4.157.295.429.522.892.671 1.373z"/></svg>