<!-- Generated by IcoMoon.io -->
<svg version="1.1" xmlns="http://www.w3.org/2000/svg" width="24" height="24" viewBox="0 0 24 24">
<title>stack1</title>
<path d="M1.109 6.977l10.558 5.645c0.104 0.056 0.219 0.084 0.334 0.084s0.229-0.027 0.334-0.084l10.558-5.645c0.23-0.124 0.374-0.363 0.374-0.624s-0.143-0.501-0.374-0.624l-10.558-5.645c-0.209-0.111-0.459-0.111-0.667 0l-10.558 5.645c-0.23 0.124-0.374 0.363-0.374 0.624s0.143 0.501 0.374 0.624zM12 1.51l9.057 4.842-9.057 4.842-9.057-4.841zM22.891 11.378l-3.078-1.646c-0.344-0.184-0.774-0.054-0.958 0.291s-0.054 0.774 0.291 0.958l1.91 1.021-9.057 4.842-9.057-4.842 1.933-1.033c0.344-0.184 0.475-0.613 0.291-0.958s-0.613-0.475-0.958-0.291l-3.1 1.657c-0.23 0.124-0.374 0.363-0.374 0.624s0.143 0.501 0.374 0.624l10.558 5.645c0.104 0.056 0.219 0.084 0.334 0.084s0.229-0.027 0.334-0.084l10.558-5.645c0.23-0.123 0.374-0.363 0.374-0.624s-0.143-0.499-0.374-0.623zM22.891 17.023l-2.98-1.593c-0.344-0.184-0.774-0.054-0.958 0.291s-0.054 0.774 0.291 0.958l1.813 0.969-9.057 4.842-9.057-4.842 1.793-0.959c0.344-0.184 0.475-0.613 0.291-0.958s-0.613-0.475-0.958-0.291l-2.96 1.583c-0.23 0.123-0.374 0.363-0.374 0.624s0.143 0.501 0.374 0.624l10.558 5.645c0.104 0.056 0.219 0.084 0.334 0.084s0.229-0.027 0.334-0.084l10.558-5.645c0.23-0.123 0.374-0.363 0.374-0.624s-0.143-0.501-0.374-0.624z"></path>
</svg>
