<svg xmlns="http://www.w3.org/2000/svg" width="24" height="24"><path fill="#3eb0fd" d="M21.314 13.477l-9.213 5.13-9.396-5.13a.729.729 0 0 0-.991.29l-.002.004a.729.729 0 0 0 .29.991l.004.002 9.746 5.333c.22.128.497.128.717 0l9.562-5.333a.728.728 0 0 0 .274-.997l.002.004a.72.72 0 0 0-.997-.292l.003-.002zM3.845 10.075l8.256-4.67 9.195 5.314a.75.75 0 0 0 1.01-.272l.002-.003a.75.75 0 0 0-.273-1.01l-.003-.002-9.561-5.516a.75.75 0 0 0-.738.002l.004-.002L1.99 9.431c-.497.276-.497.993 0 1.288l9.746 5.516a.748.748 0 0 0 1.009-.273l.002-.003a.75.75 0 0 0-.272-1.01l-.003-.002zM.057 13.937v-3.678a2.258 2.258 0 0 1 1.147-2.183l.011-.006 9.745-5.517c.322-.189.71-.301 1.124-.301.427 0 .826.119 1.166.325l-.01-.006 9.562 5.516a2.297 2.297 0 0 1 1.139 2.178l.001-.008v3.678a2.29 2.29 0 0 1-1.165 2.182l-.012.006-9.562 5.332c-.32.182-.704.29-1.113.29s-.792-.107-1.124-.296l.011.006-9.746-5.332c-.81-.442-1.232-1.306-1.177-2.187z"/></svg>