<svg xmlns="http://www.w3.org/2000/svg" width="24" height="24"><path d="M1.109 6.977l10.558 5.645a.704.704 0 0 0 .668 0l10.558-5.645a.71.71 0 0 0 0-1.248L12.335.084a.71.71 0 0 0-.667 0L1.11 5.729a.71.71 0 0 0 0 1.248zM12 1.51l9.057 4.842L12 11.194 2.943 6.353zm10.891 9.868l-3.078-1.646a.708.708 0 0 0-.667 1.249l1.91 1.021-9.057 4.842-9.057-4.842 1.933-1.033a.709.709 0 0 0-.667-1.249l-3.1 1.657a.71.71 0 0 0 0 1.248l10.558 5.645a.704.704 0 0 0 .668 0l10.558-5.645a.708.708 0 0 0 0-1.247zm0 5.645l-2.98-1.593a.708.708 0 0 0-.667 1.249l1.813.969L12 22.49l-9.057-4.842 1.793-.959a.709.709 0 0 0-.667-1.249l-2.96 1.583a.708.708 0 0 0 0 1.248l10.558 5.645a.704.704 0 0 0 .668 0l10.558-5.645a.708.708 0 0 0 0-1.248z"/></svg>