<svg xmlns="http://www.w3.org/2000/svg" width="24" height="24"><path fill="#cd2640" d="M.202 8.668a.484.484 0 0 0-.202.39v.006a.49.49 0 0 0 .04.19l2.298 5.204c.102.23.364.343.602.259 1.504-.536 6.713-2.233 10.083-1.318 0 0-3.381.196-6.438 2.593a.48.48 0 0 0-.141.574l-.001-.003 1.029 2.326.396.929c.094.22.395.247.528.047.713-1.074 1.916-1.611 3.072-2.08a16.94 16.94 0 0 1 3.573-1.035l.106-.015a15.587 15.587 0 0 1 2.685-.227c.487 0 .97.022 1.446.064l-.061-.004a.481.481 0 0 0 .502-.332l.001-.003 1.038-3.317a.478.478 0 0 0-.174-.53l-.001-.001c-1.158-.838-5.741-3.654-13.802-2.523 0 0 6.878-3.951 15.61.39a.48.48 0 0 0 .672-.285l.001-.003.915-2.925a.491.491 0 0 0 .022-.137v-.014a.481.481 0 0 0-.241-.409l-.002-.001C22.661 5.858 18.951 4 13.847 4 9.935 4 5.204 5.09.203 8.668z"/></svg>