<svg xmlns="http://www.w3.org/2000/svg" width="24" height="24"><path d="M5.595 14.828L4.26 22.433c-.053.304.083.611.345.776s.6.154.851-.03l6.562-4.744 6.566 4.744a.769.769 0 0 0 .851.027.764.764 0 0 0 .345-.776l-1.335-7.605 5.306-4.676a.765.765 0 0 0-.386-1.324l-8.014-1.249-2.629-6.315c-.116-.285-.394-.469-.701-.469s-.585.184-.701.469L8.691 7.576.674 8.828a.759.759 0 1 0-.386 1.324c0-.004 5.306 4.676 5.306 4.676zm3.754-5.813a.763.763 0 0 0 .585-.461l2.089-5.021 2.089 5.021a.76.76 0 0 0 .585.461l6.832 1.065-4.406 3.889a.758.758 0 0 0-.247.701l1.084 6.18-5.49-3.971c-.131-.098-.289-.143-.446-.143s-.311.049-.446.143l-5.49 3.971 1.084-6.18a.763.763 0 0 0-.248-.701l-4.41-3.889L9.35 9.015z"/></svg>