<svg xmlns="http://www.w3.org/2000/svg" width="22" height="24"><path d="M15.228 13.661l4.098-3.978-5.652-.83-2.531-5.116-2.531 5.116-5.652.83 4.098 3.978-.978 5.638 5.063-2.665 5.049 2.665zm7.058-4.782c0 .241-.174.469-.348.643l-4.862 4.741 1.152 6.696c.013.094.013.174.013.268 0 .362-.161.67-.549.67-.188 0-.375-.067-.536-.161l-6.013-3.161-6.013 3.161c-.174.094-.348.161-.536.161-.388 0-.563-.321-.563-.67 0-.094.013-.174.027-.268l1.152-6.696L.335 9.522C.174 9.348 0 9.12 0 8.879c0-.402.415-.563.75-.616l6.723-.978 3.013-6.094c.121-.254.348-.549.656-.549s.536.295.656.549l3.013 6.094 6.723.978c.321.054.75.214.75.616z"/></svg>