<!-- Generated by IcoMoon.io -->
<svg version="1.1" xmlns="http://www.w3.org/2000/svg" width="24" height="24" viewBox="0 0 24 24">
<title>star</title>
<path d="M23.704 10.019c0.264-0.232 0.362-0.598 0.251-0.93s-0.411-0.565-0.761-0.591l-6.969-0.52c-0.324-0.024-0.606-0.226-0.734-0.523l-2.767-6.417c-0.139-0.321-0.457-0.529-0.807-0.525s-0.664 0.216-0.797 0.54l-2.648 6.467c-0.122 0.3-0.402 0.507-0.725 0.537l-6.958 0.649c-0.349 0.032-0.644 0.271-0.749 0.605s0.001 0.699 0.267 0.925l5.332 4.518c0.247 0.21 0.358 0.539 0.287 0.855l-1.533 6.819c-0.077 0.342 0.058 0.696 0.344 0.9 0.286 0.203 0.665 0.216 0.963 0.031l5.943-3.676c0.275-0.17 0.623-0.174 0.902-0.008l6.010 3.565c0.301 0.178 0.68 0.16 0.961-0.049s0.411-0.566 0.327-0.906l-1.658-6.788c-0.077-0.315 0.027-0.647 0.27-0.86z"></path>
</svg>
