<!-- Generated by IcoMoon.io -->
<svg version="1.1" xmlns="http://www.w3.org/2000/svg" width="24" height="24" viewBox="0 0 24 24">
<title>star-o</title>
<path d="M5.595 14.828l-1.335 7.605c-0.053 0.304 0.083 0.611 0.345 0.776s0.6 0.154 0.851-0.030l6.562-4.744 6.566 4.744c0.131 0.094 0.289 0.143 0.446 0.143 0.139 0 0.281-0.038 0.405-0.116 0.262-0.165 0.398-0.473 0.345-0.776l-1.335-7.605 5.306-4.676c0.221-0.195 0.311-0.499 0.225-0.784-0.082-0.281-0.322-0.495-0.611-0.54l-8.014-1.249-2.629-6.315c-0.116-0.285-0.394-0.469-0.701-0.469s-0.585 0.184-0.701 0.469l-2.629 6.315-8.017 1.252c-0.292 0.045-0.529 0.255-0.615 0.54-0.083 0.285 0.007 0.589 0.229 0.784 0-0.004 5.306 4.676 5.306 4.676zM9.349 9.015c0.263-0.041 0.484-0.218 0.585-0.461l2.089-5.021 2.089 5.021c0.101 0.244 0.322 0.42 0.585 0.461l6.832 1.065-4.406 3.889c-0.199 0.176-0.293 0.439-0.247 0.701l1.084 6.18-5.49-3.971c-0.131-0.098-0.289-0.143-0.446-0.143s-0.311 0.049-0.446 0.143l-5.49 3.971 1.084-6.18c0.045-0.259-0.049-0.525-0.248-0.701l-4.41-3.889s6.836-1.065 6.836-1.065z"></path>
</svg>
