<svg xmlns="http://www.w3.org/2000/svg" width="24" height="24"><path d="M21.928 9.49v2.071h-1.503v1.503h1.503v-1.5H24V9.49zm-5.915.498v1.075h1.075V9.988zm2.326 2.572a.597.597 0 0 0-.383.145l.001-.001a.495.495 0 0 0-.155.361l.001.023v-.001l-.001.024c0 .129.056.245.145.325.09.075.203.125.327.14h.003l.103.015.112.02c.062.009.117.022.171.039l-.008-.002a.378.378 0 0 1 .102.065.34.34 0 0 1 .101.242l-.001.027v-.001.018a.351.351 0 0 1-.127.271h-.001a.525.525 0 0 1-.317.106l-.031-.001h.001-.018a.724.724 0 0 1-.272-.052l.005.002a.772.772 0 0 1-.24-.174v-.001l-.098.102a.799.799 0 0 0 .265.191l.005.002c.094.038.203.06.318.06h.027-.001a.68.68 0 0 0 .456-.145l-.001.001a.51.51 0 0 0 .175-.384v-.007a.528.528 0 0 0-.044-.211l.001.003a.433.433 0 0 0-.119-.159l-.001-.001a.485.485 0 0 0-.127-.079l-.003-.001a.827.827 0 0 0-.196-.047h-.004l-.112-.02-.088-.013a.78.78 0 0 1-.157-.047l.005.002a.46.46 0 0 1-.124-.073l.001.001a.324.324 0 0 1-.096-.229l.001-.022V13.06c0-.107.044-.203.115-.272a.439.439 0 0 1 .314-.105h-.001.02c.084 0 .163.017.236.047l-.004-.002c.075.035.139.08.195.132l.09-.092a.71.71 0 0 0-.506-.21h-.025.001l-.035-.001h-.002zm-17.664.005a.67.67 0 0 0-.433.162l.001-.001a.539.539 0 0 0-.175.399v.022-.001l-.001.029c0 .133.05.255.133.346a.6.6 0 0 0 .357.157h.002l.12.015.105.015a.278.278 0 0 1 .172.076.23.23 0 0 1 .05.144v.012-.001c0 .16-.11.237-.327.237H.666a.79.79 0 0 1-.244-.039l.006.002a.481.481 0 0 1-.195-.123l-.233.24c.08.085.179.152.29.193l.005.002c.108.037.233.058.362.058h.019-.001l.029.001a.76.76 0 0 0 .465-.158l-.002.001a.527.527 0 0 0 .193-.409v-.023.001l.001-.038a.539.539 0 0 0-.145-.368.482.482 0 0 0-.142-.092l-.003-.001a.946.946 0 0 0-.205-.051l-.005-.001-.107-.015-.113-.015a.293.293 0 0 1-.167-.078.193.193 0 0 1-.058-.135v-.006a.22.22 0 0 1 .075-.166.301.301 0 0 1 .214-.068H.704h.003c.072 0 .141.01.207.028l-.005-.001a.399.399 0 0 1 .172.105l.228-.232a.709.709 0 0 0-.255-.168l-.005-.002a.951.951 0 0 0-.318-.053H.71h.001l-.037-.001zm12.091.003a.61.61 0 0 0-.242.052l.004-.002a.643.643 0 0 0-.21.146.52.52 0 0 0-.096.131l-.001.003a.567.567 0 0 0-.049.149l-.001.004c-.01.055-.017.121-.02.188v.003a9.032 9.032 0 0 0 .001.609v-.015c.002.069.009.134.021.198l-.001-.008a.596.596 0 0 0 .052.156l-.002-.004a.495.495 0 0 0 .097.135c.058.06.128.109.206.143l.004.002c.074.032.16.05.251.05h.009a.593.593 0 0 0 .246-.052l-.004.002a.656.656 0 0 0 .21-.145.545.545 0 0 0 .096-.132l.001-.003a.572.572 0 0 0 .049-.148l.001-.004c.01-.055.017-.121.02-.188v-.003a9.032 9.032 0 0 0-.001-.609v.015a1.264 1.264 0 0 0-.021-.198l.001.008a.591.591 0 0 0-.052-.157l.002.004a.633.633 0 0 0-.303-.278l-.004-.002a.652.652 0 0 0-.25-.05h-.014zm-10.949.015v.333H2.3v1.575h.36v-1.575h.482v-.333zm1.878 0v1.908h1.218v-.33h-.855v-.464h.727v-.333h-.727v-.448h.855v-.333zm2.298 0l-.673 1.908h.375l.113-.337h.655l.11.337h.377l-.675-1.908zm1.442 0v1.908h.36v-1.11l.355.722h.245l.352-.722v1.11h.36v-1.908h-.354l-.48 1.03-.483-1.03zm2.198 0l.46 1.908h.144l.437-1.66.435 1.66h.143l.46-1.908h-.147l-.39 1.658-.43-1.658H10.6l-.43 1.658-.39-1.658zm4.452 0v1.908h.14v-.882h.508l.44.882h.162l-.445-.882a.49.49 0 0 0 .429-.486l-.001-.031v.001l.001-.024a.489.489 0 0 0-.148-.35.544.544 0 0 0-.362-.136h-.021.001zm1.93 0v1.908h.14v-.515l.44-.553.593 1.068v-.002h.167l-.667-1.177.57-.728h-.168l-.935 1.192v-1.192zm3.188.033v.19h.026v-.128l.045.093h.024l.042-.093v.128h.028v-.19h-.028l-.055.118-.055-.118zm-.165.002v.025h.052v.163h.028v-.163h.052v-.025zm-6.26.08h.002c.137 0 .262.057.35.148a.44.44 0 0 1 .076.105l.001.002a.502.502 0 0 1 .043.129v.003c.01.052.016.112.018.174v.001a7.87 7.87 0 0 1-.001.57v-.014a1.193 1.193 0 0 1-.019.182l.001-.007a.51.51 0 0 1-.044.135l.001-.003a.488.488 0 0 1-.777.107.474.474 0 0 1-.077-.105l-.001-.002a.549.549 0 0 1-.041-.128l-.001-.004a1.135 1.135 0 0 1-.018-.174v-.001a7.87 7.87 0 0 1 .001-.57v.014c.002-.063.008-.123.019-.182l-.001.007a.485.485 0 0 1 .043-.135l-.001.003a.488.488 0 0 1 .426-.255zm2.007.015h.006c.104 0 .2.037.275.099l-.001-.001a.348.348 0 0 1 .112.256l-.002.034V13.1l.001.024a.36.36 0 0 1-.114.262.429.429 0 0 1-.273.099l-.022-.001h.001-.543v-.77h.545l.014-.001h.001zm-8.643.433l.228.692h-.46z"/></svg>