<svg xmlns="http://www.w3.org/2000/svg" width="24" height="24"><path d="M20.982 7.246a9.663 9.663 0 0 0-3.334-2.179l-.066-.023c.721-2.12 3.277-2.892 3.277-2.892C18.135.823 14.933.046 11.549.046c-1.143 0-2.266.089-3.361.26L8.31.29a10.165 10.165 0 0 0-5.829 3.462l-.013.016A9.105 9.105 0 0 0 .225 9.771a9.13 9.13 0 0 0 3.222 6.971l.013.011c.598.512 1.934 1.308 1.958 1.349-.876 2.226-3.678 2.835-3.678 2.835 2.499 1.463 5.431 2.493 8.558 2.904l.118.013a18.415 18.415 0 0 0 4.249.043l-.08.007a10.596 10.596 0 0 0 6.338-3.118l.002-.002a9.499 9.499 0 0 0 2.853-6.798 9.493 9.493 0 0 0-2.795-6.74zm-1.704 12.058a8.845 8.845 0 0 1-5.096 2.377l-.041.004c-.511.057-1.104.09-1.705.09h-.003c-.678 0-1.346-.041-2.002-.121l.079.008.077.007a16.87 16.87 0 0 1-4.33-1.196l.11.042a6.295 6.295 0 0 0 1.484-2.104l.016-.041a1.647 1.647 0 0 0-.055-1.318l.004.01a6.889 6.889 0 0 1-.702-3.053c0-1.97.815-3.751 2.126-5.022l.002-.002a7.235 7.235 0 0 1 5.05-2.045 7.24 7.24 0 0 1 5.109 2.102l-.001-.001a7.294 7.294 0 0 1 2.037 5.068 7.3 7.3 0 0 1-2.16 5.193z"/></svg>