<svg xmlns="http://www.w3.org/2000/svg" width="24" height="24"><path fill="#ff4785" d="M16.34.24l-.12 2.71v.008a.18.18 0 0 0 .291.142l1.06-.8.9.7a.18.18 0 0 0 .28-.14l-.1-2.76 1.33-.1a1.2 1.2 0 0 1 1.28 1.197v21.605A1.2 1.2 0 0 1 19.998 24h.003l-16.1-.72a1.2 1.2 0 0 1-1.15-1.158v-.002l-.75-19.8a1.2 1.2 0 0 1 1.127-1.27h.003l13.2-.83zM13.27 9.3c0 .47 3.16.24 3.59-.08 0-3.2-1.72-4.89-4.86-4.89-3.15 0-4.9 1.72-4.9 4.29 0 4.45 6 4.53 6 6.96 0 .7-.32 1.1-1.05 1.1-.96 0-1.35-.49-1.3-2.16 0-.36-3.65-.48-3.77 0-.27 4.03 2.23 5.2 5.1 5.2 2.79 0 4.97-1.49 4.97-4.18 0-4.77-6.1-4.64-6.1-7 0-.97.72-1.1 1.13-1.1.45 0 1.25.07 1.19 1.86z"/></svg>