<svg xmlns="http://www.w3.org/2000/svg" width="24" height="24"><path fill="#e00033" d="M19.565 5.106a5.1 5.1 0 0 0-.248.006h.012c-.074 0-.148 0-.221.007-.506.111-1.072.246-1.438.634-.552.631-.442 1.69.202 2.222.885.79 1.72 1.657 2.29 2.708.624.965.731 2.259.16 3.274-.63 1.283-1.887 2.18-3.26 2.515.38.998.437 2.3.437 2.3s1.157-.32 1.64-.537c.545-.263 1.117-.507 1.55-.943.434-.295.75-.724 1.035-1.163.32-.512.612-1.048.862-1.595.157-.492.347-.98.374-1.505a6.194 6.194 0 0 0-.179-2.327l.01.043c-.378-1.016-1.09-1.875-1.93-2.545.772-.008 1.547.03 2.317-.019.432 0 1.253-.42.544-.754-.385-.12-.782.09-1.16.109-.315-.139-.973-.324-.725-.776.288-.598-.153-1.082-.69-1.277-.484-.278-1.032-.379-1.582-.378zm-6.419.66c-1.18.034-2.404.178-3.425.823-1.054.695-1.908 1.677-2.554 2.757.032-.004.06-.005.07.002.017.01.112.027.213.037.201.024 1.527.4 1.591.451.08.064.656.343.71.343.094 0 .057-.057-.07-.114-.267-.114-.499-.256-.428-.256.131 0 .36.101.542.24.198.154.733.383.979.42.269.037.962.303 1.14.43.088.068.22.152.286.189a.583.583 0 0 1 .145.1c.037.058.078.038.06-.03-.01-.033-.067-.09-.13-.124-.064-.034-.108-.08-.101-.1s-.135-.129-.32-.236c-.182-.108-.34-.226-.35-.26-.014-.03-.034-.057-.047-.057a.465.465 0 0 1-.131-.1c-.061-.058-.101-.102-.091-.102.023 0 .296.175.32.206.036.043.238.134.265.117.017-.01.054.01.088.048.08.087.097.084.148-.02l.04-.088.07.09c.055.068.078.081.098.044a.165.165 0 0 0 .03-.079v-.001c0-.034-.17-.121-.42-.212a.97.97 0 0 1-.188-.107l.003.002c-.128-.1-.01-.087.242.03.118.051.303.122.414.152s.25.078.303.101c.296.135.384.178.511.263.06.045.131.078.209.093l.003.001c.037 0 .078.023.088.05.013.027.034.044.047.034.014-.01.08.02.148.067.067.044.121.071.121.057 0-.01.024.014.054.054.04.057.064.068.094.044.03-.027.06-.017.105.03.033.037.08.064.107.061.04-.01.347.296.347.347 0 .01.064.064.144.117a.942.942 0 0 1 .165.132c.014.016.04.033.058.033a.98.98 0 0 1 .195.118 1.8 1.8 0 0 0 .178.118c.044.003.33.222.42.323.125.134.058.097-.188-.101-.333-.273-.535-.36-.535-.232 0 .033-.023.07-.05.084-.047.017-.047.027.003.08.067.075.141.088.08.014-.05-.06-.003-.064.071-.007.03.024.047.057.04.08-.01.024.01.034.051.021.067-.017.242.118.242.185 0 .017.209.168.465.33.454.29.67.45.535.404a.486.486 0 0 0-.106-.02h-.002c-.024 0-.091-.038-.145-.085-.094-.077-.235-.087-.188-.013.01.017-.01.03-.044.03-.04.003-.024.02.05.06.081.044.098.071.071.098s-.017.047.04.081c.044.02.095.06.108.084.014.027.05.047.078.047.027 0 .064.037.087.084.02.044.047.074.064.068.014-.01.034.01.047.047.01.033.148.192.303.35.158.158.286.306.286.323 0 .03-.222.094-.276.077-.017-.003-.027.007-.027.027s-.03.02-.074.003-.077-.04-.074-.057c.003-.047-.06-.101-.145-.121-.11-.03-.094.016.054.151.125.111.128.121.06.138a.078.078 0 0 1-.022.003c.032.037.063.073.093.111.755-.6 1.66-1.235 1.777-2.276.154-1.283-.886-2.277-1.854-2.94-.592-.432-1-1.091-1.279-1.759-.287-.61-.007-1.883-.007-1.883s-1.418-.112-2.085-.124zm-10.75 2.81c-.08.008-.178.014-.277.017h-.005c-.233.014-.24.014-.223.094.01.054.06.105.155.148.135.068.976.303 1.397.394.12.027.232.06.252.077.064.05.249.071.262.03.01-.026.064-.016.165.031.121.057.441.145.586.158.02.003.043.03.057.064.013.03.07.067.128.08.057.01.097.038.09.058-.016.047-.198.027-.232-.024-.02-.03-.033-.03-.054.003-.023.034-.063.034-.201.003-.098-.023-.175-.053-.175-.07 0-.054-.064-.024-.084.04-.014.037-.037.06-.054.047-.017-.01-.024-.03-.014-.043.007-.017-.107-.091-.262-.165-.219-.111-.407-.165-.912-.276a6.197 6.197 0 0 0-.61-.116l-.04-.005c-.01.01.041.047.115.087.108.06.114.067.037.05-.148-.03-.111.01.094.102.131.057.185.097.172.13-.02.051.047.129.097.119.071-.014.111.007.121.06.017.094-.11.145-.265.108a2.94 2.94 0 0 0-.194-.041l-.036-.006c-.056-.007-.208-.037-.336-.06a2.798 2.798 0 0 0-.358-.054l-.012-.001c-.103-.006-.2-.02-.293-.042l.011.002c-.115-.027-.155-.024-.175.01-.017.027-.088.04-.182.037-.084-.003-.151.01-.151.023 0 .017.127.03.286.03.279 0 .353.014.353.068 0 .05-.121.064-.222.02-.078-.03-.111-.03-.172.007-.064.044-.084.04-.158-.007-.077-.05-.09-.05-.108-.007-.02.057-.13.054-.235-.003-.057-.03-.047-.04.08-.06.172-.027.169-.04-.013-.064-.09-.01-.158 0-.202.033-.06.044-.06.048-.003.051.094 0 .03.067-.064.067a.433.433 0 0 1-.154-.034l.003.001C.33 9.72.317 9.72.324 9.754c.01.047-.111.053-.226.01-.037-.017-.057-.017-.043 0 .013.013 0 .043-.03.067-.044.034-.034.04.077.04.074 0 .188.01.259.024.074.013.124.01.124-.01 0-.044.236-.024.367.033.074.034.104.064.09.105-.01.047-.002.054.041.03.04-.023.074-.017.115.02.05.044.074.047.158.01.057-.023.117-.026.144-.01.024.014.152.03.28.034.272.007.373.027.44.08.027.02.081.045.125.048.131.017.239.044.34.08.128.051.7.179.716.162.007-.007-.057-.034-.14-.057-.085-.024-.152-.057-.152-.078 0-.033.097-.02.346.058.142.043.165.047.182.003.01-.027.037-.05.064-.05s.047-.024.047-.055c0-.027-.013-.04-.034-.03-.016.01-.033.003-.033-.013 0-.02.023-.037.05-.037.03 0 .05.03.05.08 0 .068.02.081.139.101.077.014.148.014.158.003s-.007-.017-.037-.017-.057-.016-.057-.033c0-.044-.007-.044.296.03.141.037.35.074.46.088.327.03.435.063.892.265.225.103.468.203.678.283.003-.035.008-.07.013-.106-.124-.046-.24-.106-.247-.136-.01-.04.007-.044.091-.017l.176.052c-.017-.116.406.02.454-.112.028-.076-.691-.282-.664-.372.026-.09.387.062.465-.026.06-.067-.181-.212-.12-.291.04-.053.413.237.468.185.07-.068-.413-.337-.36-.432.041-.072.285.115.372.057.136-.09-.04-.044.066-.17.02-.024.051-.032.09-.032.007-.016.016-.031.024-.047l.058.002c.071-.003.088-.01.051-.03a.312.312 0 0 0-.078-.027h-.002a.1.1 0 0 0 .011-.02l.002-.003a16.338 16.338 0 0 0-.576-.381L6.4 9.05l-.043-.013a2.568 2.568 0 0 0-.668-.115h-.005c-.333-.017-.333-.017-.152.027.438.101.976.28.976.32 0 .027-.023.037-.057.027-.4-.122-1.38-.39-1.42-.39a.149.149 0 0 1-.09-.034c-.02-.02-.139-.047-.27-.064a3.115 3.115 0 0 1-.399-.075l.022.005c-.077-.025-.148-.038-.158-.028-.037.034.024.121.094.142.058.013.064.026.034.057-.03.03-.054.03-.098-.007-.03-.027-.063-.044-.07-.037-.03.027-.209-.037-.226-.081-.013-.037-.043-.044-.09-.03-.04.013-.081.007-.095-.014-.03-.047-.508-.138-.508-.097 0 .043-.212-.003-.242-.054-.03-.04-.094.03-.094.104 0 .064-.067.054-.242-.04a.568.568 0 0 0-.199-.076l-.004-.001zm4.004.475c.322.097.377.105.377.057 0-.028-.35-.146-.632-.214.082.049.168.102.255.157zm-.255-.157c-.223-.134-.411-.236-.478-.244a.955.955 0 0 1-.219-.039l.007.002c-.034-.02-.226.024-.226.054 0 .02.199.067.841.209zm.935.6c.077.051.136.092.148.101.013.01.043.031.083.055l.155.007c.243.01.431.044.673.115.364.11.42.12.42.07 0-.03-.416-.168-.706-.232a22.566 22.566 0 0 1-.742-.17zm.23.156c-.16-.007-.14 0 .005.035l.095.023zm.1.058l.04.02c-.047.027-.29-.109-.437-.109l-.033.062c.304.079.947.257 1.254.35.033.01.057 0 .057-.027 0-.037-.464-.193-.881-.296zm-2.31-.95h-.038a.165.165 0 0 0-.065.013c-.047.027.148.068.316.068.07-.003.088-.01.05-.03a.736.736 0 0 0-.262-.051H5.1zm-3.104.148c-.02 0-.024.014-.014.034.01.017.037.033.054.033.02 0 .024-.016.014-.033a.07.07 0 0 0-.054-.034zm.21.07H2.18c-.037 0-.047.01-.02.021.023.01.053.007.063-.003.01-.008.001-.015-.017-.018zm5.434.136c.005 0 .009 0 .013.003l-.096.045-.01-.005c-.058.042-.118.1-.148.1-.033 0 .067-.133.148-.1.033-.025.066-.044.093-.043zm-1.852.702c.027 0 .04.014.03.034-.01.017-.034.034-.054.034-.017 0-.03-.017-.03-.034 0-.02.023-.034.054-.034zm-4.962.34H.8c-.037 0-.047.01-.02.02.024.01.054.008.064-.002.01-.008.001-.015-.018-.018zm.214.088l.064.07c.034.04.094.081.135.091.037.014.151.054.245.091.145.057.195.06.283.03.084-.03.121-.026.161.007a.654.654 0 0 0 .296.125h.004c.047 0 .04-.014-.024-.064l-.08-.06.14.01c.071 0 .137.019.195.051l-.002-.001c.027.02.047.027.047.014s.02-.01.043.007c.068.053.189.074.202.033.007-.023.078-.007.195.05.202.095.475.162.663.162.068 0 .232.024.36.054.39.088.693.145.963.182.144.02.346.067.454.104.252.088.323.101.3.06-.014-.016.002-.03.03-.03.03 0 .053.024.053.05 0 .031.02.041.058.028.037-.014.047-.01.03.017-.02.037.017.057.09.043.014 0 .024.01.024.027s.037.037.084.044a.146.146 0 0 0 .038.005l.023-.002h-.001l-.024-.003.104-.213a1.43 1.43 0 0 0-.305-.12 2.332 2.332 0 0 1-.343-.138l.013.006c-.093-.047-.164-.067-.178-.047a.07.07 0 0 1-.057.034c-.023 0-.02-.017.003-.047.057-.067-.249-.165-.552-.172a4.046 4.046 0 0 1-1.001-.148l.029.007c-.212-.057-.34-.074-.353-.05-.014.02-.148.007-.39-.044-.202-.04-.438-.084-.522-.094a1.318 1.318 0 0 1-.211-.039l.009.002a2.276 2.276 0 0 0-.33-.037H2a7.779 7.779 0 0 1-.832-.073l.041.005zm5.153.981l.003.002c-.002.064 0 .128.003.192h-.003a.064.064 0 0 1-.028-.007c-.017-.01-.03-.003-.03.014 0 .008-.01.014-.024.017.142.019.283.03.444.035.303.007.609.104.552.171-.024.03-.027.047-.003.047s.045-.014.057-.033c.013-.02.084 0 .178.047.088.043.236.104.33.13.212.061.383.149.383.193 0 .016.024.023.051.013.027-.013.05-.003.05.017 0 .047-.161.114-.205.084-.017-.01-.03-.003-.03.013s-.037.024-.084.014c-.047-.007-.084-.027-.084-.044s-.01-.027-.024-.027c-.074.014-.11-.007-.09-.044.016-.026.006-.03-.03-.016-.038.013-.058.003-.058-.027 0-.027-.024-.05-.054-.05-.027 0-.044.013-.03.03.023.04-.047.027-.3-.061a2.77 2.77 0 0 0-.438-.102l-.016-.002a10.67 10.67 0 0 1-.746-.135c-.3.636-.585 1.279-.848 1.932-1.36 2.488-3.238 2.791-3.238 2.791v2.477c1.517-.004 3.034-.009 4.55-.016-.24-2.505 1.376-5.035 3.753-5.863a1.408 1.408 0 0 1-.182-.106l.005.003c-.064-.044-.145-.07-.178-.06-.04.01-.165-.048-.323-.145a6.09 6.09 0 0 0-.27-.163l-.036-.019a5.924 5.924 0 0 1-.522-.338l.017.012c.08 0 .501.151.69.249.13.067.269.12.31.12a.483.483 0 0 1 .193.076l-.002-.001c.067.044.219.138.336.212.056.034.107.067.146.094.14-.047.283-.09.426-.125-.08-.036-.244-.116-.417-.198a6.145 6.145 0 0 0-.609-.261l-.047-.015a2.999 2.999 0 0 1-.504-.22l.016.008a5.521 5.521 0 0 0-.282-.153l-.061-.029a2.21 2.21 0 0 1-.27-.151 2.206 2.206 0 0 0-.222-.132l-.013-.006c-.067-.027-.087-.054-.07-.094.017-.044.01-.05-.027-.027-.07.044-.121.044-.232.01l-.206-.06c-.084-.027-.1-.024-.09.016.01.047.289.169.447.195.067.01.209.085.42.222.065.04.088.064.051.051a3.283 3.283 0 0 0-.235-.072l-.034-.008a9.59 9.59 0 0 1-1.154-.453l.06.025c-.457-.202-.565-.236-.891-.266a3.597 3.597 0 0 1-.227-.035l.021.003zm.421-.842l-.043.084c.065.03.182.034.196-.003.007-.02-.034-.047-.091-.057a.237.237 0 0 1-.063-.025l.001.001zm1.529 1.754c.03 0 .092.024.249.076.212.074.366.155.992.529.057.033.145.1.199.148l.097.084h-.09c-.145 0-.811-.367-.811-.448 0-.02-.027-.043-.064-.05-.04-.01-.054 0-.037.027.02.03.007.03-.047.003-.081-.044-.098-.088-.02-.057.026.01.05.003.05-.014 0-.02-.03-.034-.067-.034s-.068-.016-.068-.033c0-.02-.02-.034-.04-.034a.827.827 0 0 1-.183-.069l.005.002a.865.865 0 0 0-.173-.067l-.006-.001c-.023 0-.033-.016-.023-.033.012-.02.014-.03.037-.029z"/></svg>