<svg xmlns="http://www.w3.org/2000/svg" width="24" height="24"><path d="M14.752 7.22h-.009a2.04 2.04 0 0 0-2.04 2.04v.008c0 .455.146.89.414 1.241l2.628 3.662c.31.537.124 1.242-.414 1.572-.538.311-1.241.125-1.572-.414a1.154 1.154 0 0 1 .367-1.548l.004-.003.042-.021c.206-.145.269-.414.124-.621a.466.466 0 0 0-.372-.207h-.001a.396.396 0 0 0-.209.064l.002-.001-.041.021c-.951.6-1.262 1.861-.662 2.813.601.953 1.862 1.264 2.813.662.952-.6 1.263-1.861.662-2.813-.041-.063-.082-.104-.104-.166l-2.627-3.683a1.08 1.08 0 0 1-.145-.581v.002c0-.641.517-1.138 1.138-1.138.62 0 1.138.517 1.138 1.138 0 .394-.207.745-.538.973-.021 0-.021.021-.041.021-.207.145-.27.414-.124.621.082.124.228.186.372.207a.395.395 0 0 0 .209-.063l-.002.001.041-.021c.952-.6 1.263-1.862.662-2.814a2.03 2.03 0 0 0-1.716-.951zm0 8.091h.001a.578.578 0 0 0 .578-.578v-.002a.579.579 0 1 0-1.158 0c0 .332.268.58.579.58zm0-6.622h-.001a.578.578 0 0 0-.578.578v.002a.579.579 0 1 0 1.158 0c-.02-.331-.268-.58-.579-.58zM12 0C5.379 0 0 5.379 0 12c0 6.622 5.379 12 12 12s12-5.379 12-12S18.621 0 12 0zM9.269 17.357h-.014a2.613 2.613 0 0 1-2.613-2.605v-.011c0-1.076.649-2 1.576-2.404l.017-.007-1.097-1.531c-.848-1.18-.579-2.814.579-3.642s2.814-.58 3.641.579c.828 1.159.58 2.814-.579 3.642a2.585 2.585 0 0 1-.5.284l-.017.006 1.138 1.615a2.595 2.595 0 0 1-.694 3.613l-.009.006a2.47 2.47 0 0 1-1.428.454zm7.655-4.074c.808 1.199.497 2.813-.703 3.619s-2.814.498-3.621-.703a2.6 2.6 0 0 1 .695-3.615l.009-.006c.145-.104.289-.165.435-.248l-1.117-1.531a2.63 2.63 0 0 1 .571-3.657l.007-.005c.427-.31.961-.496 1.538-.496.869 0 1.639.42 2.119 1.069l.005.007a2.63 2.63 0 0 1-.572 3.657l-.007.005c-.15.11-.32.207-.501.284l-.017.006zM8.255 9.827a1.09 1.09 0 0 1-.145-.546l.001-.034v.002c0-.641.517-1.138 1.138-1.138.642 0 1.138.517 1.138 1.138 0 .394-.207.766-.538.973l-.041.021c-.207.145-.269.414-.125.621.083.124.228.186.373.207a.404.404 0 0 0 .209-.063l-.002.001.041-.021a2.058 2.058 0 0 0 .678-2.823l.005.009a2.057 2.057 0 0 0-2.823-.679l.009-.005a2.071 2.071 0 0 0-.676 2.823l-.005-.009c.042.063.083.125.124.166l2.627 3.663c.104.166.145.373.145.578 0 .643-.497 1.139-1.138 1.16h-.005a1.153 1.153 0 0 1-1.153-1.138v-.001c0-.393.207-.766.538-.973l.042-.02c.207-.146.269-.414.124-.621a.466.466 0 0 0-.372-.207h-.001a.393.393 0 0 0-.209.064l.002-.001-.042.021c-.952.599-1.262 1.863-.662 2.814s1.862 1.262 2.814.662c.6-.373.972-1.035.972-1.738 0-.455-.145-.889-.414-1.242zm1.014 5.484c.31 0 .579-.248.579-.58a.58.58 0 0 0-1.158-.001v.001c0 .332.249.58.58.58zm0-6.622h-.005a.575.575 0 0 0-.575.558v.001c0 .311.249.58.559.58s.58-.249.58-.559v-.018c0-.309-.25-.56-.559-.562z"/></svg>