<svg xmlns="http://www.w3.org/2000/svg" width="24" height="24"><path fill="#db7093" d="M16.214 6.762l-.075.391c-.116.741-.074.953.244 1.228l.307.254-.318 1.418c-.19.846-.423 1.555-.571 1.788-.127.201-.275.497-.307.656-.053.19-.233.381-.508.55-.243.138-.72.508-1.058.805-.27.243-.456.392-.557.456l-.33.261a1.4 1.4 0 0 0-.189.411c-.023.107-.01.178.024.23.033.05.09.085.168.107.065.016.14.025.218.025l.067-.002h-.003a3.01 3.01 0 0 0 .653-.117l-.021.005c.07-.019.125-.037.173-.053.074-.091.245-.263.548-.562.804-.793 1.111-1.227.794-1.11-.117.042-.064-.064.137-.276.424-.413.667-1.037 1.175-2.994.402-1.545.402-1.567.698-1.567.139 0 .532.024.532.024V6.762h-.902zm3.839 3.165c-.064 0-.17.096-.233.202-.116.19.021.306 1.767 1.396 1.037.657 1.873 1.217 1.852 1.26-.021.031-.868.582-1.883 1.217-1.842 1.142-1.852 1.153-1.683 1.386.212.275 0 .37 2.391-1.122L24 13.155v-.836l-1.937-1.196c-1.047-.656-1.957-1.185-2.01-1.196zm-16.085.117c-.053 0-.963.54-2.01 1.185L0 12.425v.836l1.947 1.217c1.08.666 1.99 1.217 2.032 1.217s.127-.096.212-.212c.127-.201.02-.286-1.768-1.418C.72 12.996.54 12.848.71 12.732c.106-.074.91-.572 1.778-1.111 1.979-1.217 1.873-1.133 1.714-1.387-.063-.105-.17-.2-.234-.19zm8.684.023c-.292-.002-.92.443-2.8 1.978-.081.193-.088.326-.051.412.024.059.068.1.129.13.06.03.138.048.224.055.171.015.373-.012.536-.044l.11-.025a.392.392 0 0 1 .142-.117l.002-.001c.116-.064.603-.508 1.09-.984.857-.868 1.058-1.26.709-1.387a.231.231 0 0 0-.089-.017h-.002zm2.196.603c-.257.007-.72.305-1.513.938-.398.323-.65.497-.785.533l-.524.414c-.197.36-.226.583-.174.706a.253.253 0 0 0 .136.133l.002.001c.07.028.151.045.237.045h.004c.207-.002.407-.033.595-.089l-.015.004c.123-.033.22-.064.315-.1l-.024.008.029-.012.053-.028c.1-.129.33-.372.618-.652.91-.878 1.375-1.502 1.28-1.735-.043-.113-.117-.17-.233-.166zm-2.424 1.08c-.074.008-.24.136-.539.398-.432.382-.903.602-1.066.504-.011.004-.05.012-.089.02l-.025.004c-.166.033-.373.06-.558.045a.7.7 0 0 1-.256-.065l.004.002a.337.337 0 0 1-.167-.168l-.001-.002c-.037-.09-.037-.202.005-.345l-.65.534-1.471 1.217v1.973l4.82-3.797v-.009c0-.041.006-.08.017-.117l-.001.003c.037-.134.035-.202-.023-.197zm2.074.639c-.073 0-.195.103-.39.31-.265.283-.682.557-.903.613l-.034.018c-.021.01-.058.024-.095.037l-.015.005c-.06.02-.138.044-.228.068-.18.049-.404.094-.604.089a.725.725 0 0 1-.28-.056l.005.002a.343.343 0 0 1-.183-.178l-.001-.002c-.058-.139-.035-.334.092-.611L7.61 16.033v1.205h1.868l3.962-3.112c.103-.114.258-.27.467-.465.56-.519.687-.698.687-.963 0-.206-.023-.31-.096-.309zm.943 1.95l-.339.338c-.19.18-.529.402-.761.497l-.046.02-.003.005-.01.01c-.009.007-.013.008-.02.011a2.749 2.749 0 0 1-.258.087l-.024.006a2.88 2.88 0 0 1-.64.114l-.01.001-.066.002c-.087 0-.171-.011-.251-.031l.007.002a.363.363 0 0 1-.217-.143l-.001-.001c-.048-.074-.062-.173-.035-.295.024-.095.056-.178.098-.256l-.003.006-3.197 2.526h4.252l.508-.582c.698-.814 1.016-1.396 1.016-1.894z"/></svg>