<svg xmlns="http://www.w3.org/2000/svg" width="24" height="24"><path d="M11.985 6.442c-3.049 0-5.527 2.479-5.527 5.528s2.479 5.528 5.527 5.528 5.528-2.479 5.528-5.528c.004-3.049-2.479-5.528-5.528-5.528zm0 9.548a4.029 4.029 0 0 1-4.024-4.02c0-2.22 1.804-4.024 4.024-4.024s4.024 1.804 4.024 4.024a4.026 4.026 0 0 1-4.024 4.02zm0-10.684a.755.755 0 0 0 .754-.754V.727a.754.754 0 1 0-1.508 0v3.825c0 .416.338.754.754.754zm0 13.335a.754.754 0 0 0-.754.754v3.825a.755.755 0 0 0 1.508 0v-3.829a.75.75 0 0 0-.754-.75zm11.235-7.417h-3.825a.755.755 0 0 0 0 1.508h3.825a.755.755 0 0 0 0-1.508zm-17.914.754a.755.755 0 0 0-.754-.754H.727a.755.755 0 0 0 0 1.508h3.825a.757.757 0 0 0 .754-.754zM17.73 6.982a.76.76 0 0 0 .533-.221l1.957-1.957c.293-.292.293-.772 0-1.065s-.773-.292-1.065 0l-1.958 1.958a.757.757 0 0 0 0 1.065c.15.146.341.221.533.221zM5.708 17.186l-1.961 1.961a.757.757 0 0 0 0 1.065.756.756 0 0 0 1.065 0l1.961-1.961c.293-.292.293-.773 0-1.065s-.769-.293-1.065 0zM5.704 6.761a.756.756 0 0 0 1.066 0 .755.755 0 0 0 0-1.065L4.813 3.738c-.292-.292-.772-.292-1.065 0s-.292.773 0 1.065zM18.259 17.19c-.293-.293-.773-.293-1.065 0s-.293.773 0 1.065l1.961 1.961c.146.146.341.221.532.221s.386-.075.532-.221a.755.755 0 0 0 0-1.065c0-.004-1.961-1.961-1.961-1.961z"/></svg>