<!-- Generated by IcoMoon.io -->
<svg version="1.1" xmlns="http://www.w3.org/2000/svg" width="24" height="24" viewBox="0 0 24 24">
<title>sun1</title>
<path d="M11.985 6.442c-3.049 0-5.527 2.479-5.527 5.528s2.479 5.528 5.527 5.528 5.528-2.479 5.528-5.528c0.004-3.049-2.479-5.528-5.528-5.528zM11.985 15.99c-2.216 0-4.024-1.804-4.024-4.020 0-2.22 1.804-4.024 4.024-4.024s4.024 1.804 4.024 4.024c0 2.216-1.804 4.020-4.024 4.020zM11.985 5.306c0.416 0 0.754-0.338 0.754-0.754v-3.825c0-0.416-0.337-0.754-0.754-0.754s-0.754 0.338-0.754 0.754v3.825c0 0.416 0.338 0.754 0.754 0.754zM11.985 18.641c-0.416 0-0.754 0.337-0.754 0.754v3.825c0 0.416 0.338 0.754 0.754 0.754s0.754-0.337 0.754-0.754v-3.829c0-0.416-0.337-0.75-0.754-0.75zM23.22 11.224h-3.825c-0.416 0-0.754 0.338-0.754 0.754s0.337 0.754 0.754 0.754h3.825c0.416 0 0.754-0.338 0.754-0.754s-0.337-0.754-0.754-0.754zM5.306 11.978c0-0.416-0.338-0.754-0.754-0.754h-3.825c-0.416 0-0.754 0.338-0.754 0.754s0.338 0.754 0.754 0.754h3.825c0.416-0.004 0.754-0.338 0.754-0.754zM17.73 6.982c0.191 0 0.386-0.075 0.533-0.221l1.957-1.957c0.293-0.292 0.293-0.772 0-1.065s-0.773-0.292-1.065 0l-1.958 1.958c-0.292 0.292-0.292 0.772 0 1.065 0.15 0.146 0.341 0.221 0.533 0.221zM5.708 17.186l-1.961 1.961c-0.292 0.293-0.292 0.773 0 1.065 0.146 0.146 0.341 0.221 0.533 0.221s0.386-0.075 0.532-0.221l1.961-1.961c0.293-0.292 0.293-0.773 0-1.065s-0.769-0.293-1.065 0zM5.704 6.761c0.146 0.146 0.341 0.221 0.533 0.221s0.386-0.075 0.533-0.221c0.293-0.293 0.293-0.772 0-1.065l-1.957-1.958c-0.292-0.292-0.772-0.292-1.065 0s-0.292 0.773 0 1.065zM18.259 17.19c-0.293-0.293-0.773-0.293-1.065 0s-0.293 0.773 0 1.065l1.961 1.961c0.146 0.146 0.341 0.221 0.532 0.221s0.386-0.075 0.532-0.221c0.293-0.292 0.293-0.773 0-1.065 0-0.004-1.961-1.961-1.961-1.961z"></path>
</svg>
