<svg xmlns="http://www.w3.org/2000/svg" width="24" height="24"><path d="M21.195 11.221s0-3.429-3.117-5.922c-3.74-3.117-9.351-2.494-11.844 0-3.74 2.182-3.117 7.792-3.117 7.792.623-2.182 3.429-1.558 3.429-1.558 5.61 0 9.351-4.987 9.351-4.987-1.247 3.74 5.299 4.675 5.299 4.675zM8.416 15.273c.935 0 1.87-.935 1.87-1.87s-.623-1.558-1.87-1.558-1.558.623-1.558 1.558.623 1.87 1.558 1.87zm.935 2.493s.312 2.494 2.805 2.494 2.494-2.494 2.494-2.494c-2.494 1.558-5.299 0-5.299 0zM22.13 9.039s-1.558-7.481-10.597-7.792c-7.792 0-9.974 7.481-9.974 7.481S.001 9.351.001 12.157c0 2.805 1.87 3.74 1.87 3.74 1.87 4.987 6.857 6.545 8.104 6.545.312.312.623.623.935.623.623 0 .935-.623.935-.935 0-.623-.623-.935-.935-.935s-.623 0-.935.312c-1.87-.312-9.039-2.494-7.481-11.532C5.611.624 15.273 1.559 19.013 5.923c4.364 4.364 1.87 9.662 1.87 9.662.312.312 2.805.312 3.117-2.805.312-2.805-1.87-3.74-1.87-3.74zm-6.857 2.805c-.935 0-1.558.623-1.558 1.558s.935 1.87 1.87 1.87 1.87-.935 1.87-1.87-1.247-1.558-2.182-1.558z"/></svg>