<!-- Generated by IcoMoon.io -->
<svg version="1.1" xmlns="http://www.w3.org/2000/svg" width="24" height="24" viewBox="0 0 24 24">
<title>support</title>
<path d="M21.195 11.221s0-3.429-3.117-5.922c-3.74-3.117-9.351-2.494-11.844 0-3.74 2.182-3.117 7.792-3.117 7.792 0.623-2.182 3.429-1.558 3.429-1.558 5.61 0 9.351-4.987 9.351-4.987-1.247 3.74 5.299 4.675 5.299 4.675zM8.416 15.273c0.935 0 1.87-0.935 1.87-1.87s-0.623-1.558-1.87-1.558-1.558 0.623-1.558 1.558 0.623 1.87 1.558 1.87zM9.351 17.766s0.312 2.494 2.805 2.494 2.494-2.494 2.494-2.494c-2.494 1.558-5.299 0-5.299 0zM22.13 9.039s-1.558-7.481-10.597-7.792c-7.792 0-9.974 7.481-9.974 7.481s-1.558 0.623-1.558 3.429c0 2.805 1.87 3.74 1.87 3.74 1.87 4.987 6.857 6.545 8.104 6.545 0.312 0.312 0.623 0.623 0.935 0.623 0.623 0 0.935-0.623 0.935-0.935 0-0.623-0.623-0.935-0.935-0.935s-0.623 0-0.935 0.312c-1.87-0.312-9.039-2.494-7.481-11.532 3.117-9.351 12.779-8.416 16.519-4.052 4.364 4.364 1.87 9.662 1.87 9.662 0.312 0.312 2.805 0.312 3.117-2.805 0.312-2.805-1.87-3.74-1.87-3.74zM15.273 11.844c-0.935 0-1.558 0.623-1.558 1.558s0.935 1.87 1.87 1.87 1.87-0.935 1.87-1.87-1.247-1.558-2.182-1.558z"></path>
</svg>
