<svg height="24" width="24" xmlns="http://www.w3.org/2000/svg"><path d="M12.104 21.581a.315.315 0 0 0 .013.067c.008.019 0-.016-.013-.067zm7.288-17.682C16.411.035 11.227.136 11.227.136c-5.467-1.077-7.536 4.6-7.536 4.6-4.013 7.48-.523 11.736-.523 11.736-.016-.075.069-.288.077-.208s.104.315.104.315l.027-.288.235.445.131-.235-.053.235.288-.104.077.392.104-.208.131.339.131-.131.077.419.184-.157.131.392.131-.288.027.469.211-.235.184.469.104-.208.131.288.603.392.077-.184.053.339.184-.288.104.419.184-.261.211.261.104-.288.027.208.104-.131v.157l.077-.131.027.208.157-.157.077.419.131-.315.104.315.077-.157.157.445.053-.315.077.419.261-.339-.053.339.288-.235.053.235.184-.208-.027.339.211-.104.131.261.131-.077V20l.184-.157v.184l.211-.077.077.235.235.131v.104l.235-.027.077.235.157-.053h.077l.211.315.053-.131.104.208.027-.208.261.184.027.288.053-.235h.027l.027.365.392.104-.027-.235.261.131s.04.133.064.221c-.011-.08-.011-.195-.011-.195.187.088.629.235.629.235.621.131.92.253 1.387-.027s.387-1.229.392-1.28.027-.027.027-.027c.451.216.629.157.629.157l.027-.261.077.288.184-.104v.184l.261-.027v.315l.211-.131v.288l.235.104v.261l.288.027-.341.419.445-.131c-.384.464-.68.68-.68.68.448.093.941-.315.941-.315-.203.283-.733.576-.733.576.355.045.968-.496.968-.496-.107.579-.747.715-.629.707s.629-.131.629-.131-.544.435-.445.419c.101-.019.603-.208.603-.208l-.053.235.288-.131v.208l.184-.053-.077.392.523-.365-.235.6c3.512-3.592 3.848-8.861 3.848-8.861.045 4.923-2.88 9.069-2.88 9.069.336-.2 3.363-5.189 3.429-9.488.067-4.301.155-6.749-2.827-10.616zM11.227 20.68a1.775 1.775 0 0 1-.184-.157l.077-.68c.003 0 .181.885.107.837zm.549.315l-.027-.837.211.915-.184-.077zm6.152-7.79c-1.123.677-.563 3.12-.523 3.685.037.565-.261.627-.261.627s-.248.064-.392.131-.576.104-.576.104c-.211.496-.211.837-.211.837-.184.317-.523.261-.523.261-.061-.053-.277-.253-.917-.261-.637-.008-.547-.397-.707-.235-.16.16.365.235.365.235.733.205 1.229.419 1.229.419-.032.349-.037.501-.445.653s-.533.072-.549 1.045-.68.888-.68.888c-.611 0-1.701-.469-1.701-.469l-.077-.523.341.419c-1.816-5.776-.131-7.867-.131-7.867-1.304 4.027.419 6.299.419 6.299-1.632-3.923-.133-7.128 1.805-8.781s2.093-3.136 2.093-3.136c3.64 2.549 2.563 4.992 1.44 5.669z"/></svg>