<!-- Generated by IcoMoon.io -->
<svg version="1.1" xmlns="http://www.w3.org/2000/svg" width="24" height="24" viewBox="0 0 24 24">
<title>suru</title>
<path d="M12.104 21.581c0.003 0.029 0.008 0.053 0.013 0.067 0.008 0.019 0-0.016-0.013-0.067zM19.392 3.899c-2.981-3.864-8.165-3.763-8.165-3.763-5.467-1.077-7.536 4.6-7.536 4.6-4.013 7.48-0.523 11.736-0.523 11.736-0.016-0.075 0.069-0.288 0.077-0.208s0.104 0.315 0.104 0.315l0.027-0.288 0.235 0.445 0.131-0.235-0.053 0.235 0.288-0.104 0.077 0.392 0.104-0.208 0.131 0.339 0.131-0.131 0.077 0.419 0.184-0.157 0.131 0.392 0.131-0.288 0.027 0.469 0.211-0.235 0.184 0.469 0.104-0.208 0.131 0.288 0.603 0.392 0.077-0.184 0.053 0.339 0.184-0.288 0.104 0.419 0.184-0.261 0.211 0.261 0.104-0.288 0.027 0.208 0.104-0.131v0.157l0.077-0.131 0.027 0.208 0.157-0.157 0.077 0.419 0.131-0.315 0.104 0.315 0.077-0.157 0.157 0.445 0.053-0.315 0.077 0.419 0.261-0.339-0.053 0.339 0.288-0.235 0.053 0.235 0.184-0.208-0.027 0.339 0.211-0.104 0.131 0.261 0.131-0.077v0.261l0.184-0.157v0.184l0.211-0.077 0.077 0.235 0.235 0.131v0.104l0.235-0.027 0.077 0.235 0.157-0.053h0.077l0.211 0.315 0.053-0.131 0.104 0.208 0.027-0.208 0.261 0.184 0.027 0.288 0.053-0.235h0.027l0.027 0.365 0.392 0.104-0.027-0.235 0.261 0.131s0.040 0.133 0.064 0.221c-0.011-0.080-0.011-0.195-0.011-0.195 0.187 0.088 0.629 0.235 0.629 0.235 0.621 0.131 0.92 0.253 1.387-0.027s0.387-1.229 0.392-1.28c0.005-0.051 0.027-0.027 0.027-0.027 0.451 0.216 0.629 0.157 0.629 0.157l0.027-0.261 0.077 0.288 0.184-0.104v0.184l0.261-0.027v0.315l0.211-0.131v0.288l0.235 0.104v0.261l0.288 0.027-0.341 0.419 0.445-0.131c-0.384 0.464-0.68 0.68-0.68 0.68 0.448 0.093 0.941-0.315 0.941-0.315-0.203 0.283-0.733 0.576-0.733 0.576 0.355 0.045 0.968-0.496 0.968-0.496-0.107 0.579-0.747 0.715-0.629 0.707s0.629-0.131 0.629-0.131-0.544 0.435-0.445 0.419c0.101-0.019 0.603-0.208 0.603-0.208l-0.053 0.235 0.288-0.131v0.208l0.184-0.053-0.077 0.392 0.523-0.365-0.235 0.6c3.512-3.592 3.848-8.861 3.848-8.861 0.045 4.923-2.88 9.069-2.88 9.069 0.336-0.2 3.363-5.189 3.429-9.488 0.067-4.301 0.155-6.749-2.827-10.616zM11.227 20.68c-0.072-0.048-0.184-0.157-0.184-0.157l0.077-0.68c0.003 0 0.181 0.885 0.107 0.837zM11.776 20.995l-0.027-0.837 0.211 0.915-0.184-0.077zM17.928 13.205c-1.123 0.677-0.563 3.12-0.523 3.685 0.037 0.565-0.261 0.627-0.261 0.627s-0.248 0.064-0.392 0.131c-0.144 0.067-0.576 0.104-0.576 0.104-0.211 0.496-0.211 0.837-0.211 0.837-0.184 0.317-0.523 0.261-0.523 0.261-0.061-0.053-0.277-0.253-0.917-0.261-0.637-0.008-0.547-0.397-0.707-0.235-0.16 0.16 0.365 0.235 0.365 0.235 0.733 0.205 1.229 0.419 1.229 0.419-0.032 0.349-0.037 0.501-0.445 0.653s-0.533 0.072-0.549 1.045c-0.016 0.973-0.68 0.888-0.68 0.888-0.611 0-1.701-0.469-1.701-0.469l-0.077-0.523 0.341 0.419c-1.816-5.776-0.131-7.867-0.131-7.867-1.304 4.027 0.419 6.299 0.419 6.299-1.632-3.923-0.133-7.128 1.805-8.781s2.093-3.136 2.093-3.136c3.64 2.549 2.563 4.992 1.44 5.669z"></path>
</svg>
