<svg xmlns="http://www.w3.org/2000/svg" width="24" height="24"><path fill="#ff3e00" d="M20.68 3.17C19.346 1.251 17.152.01 14.668.01a7.26 7.26 0 0 0-3.819 1.078l.032-.018-5.6 3.56a6.375 6.375 0 0 0-2.884 4.261l-.006.039a6.637 6.637 0 0 0 .687 4.365l-.017-.035a6.07 6.07 0 0 0-.945 2.364l-.005.036c-.067.36-.105.774-.105 1.196 0 1.486.474 2.862 1.279 3.984l-.014-.02c1.34 1.922 3.541 3.163 6.031 3.163a7.296 7.296 0 0 0 3.802-1.062l-.032.018 5.6-3.56a6.377 6.377 0 0 0 2.874-4.262l.006-.038c.069-.36.108-.773.108-1.196a6.624 6.624 0 0 0-.796-3.159l.017.035a6.726 6.726 0 0 0 1.062-3.647 6.759 6.759 0 0 0-1.276-3.963l.014.02zM10.32 21.13a4.427 4.427 0 0 1-4.751-1.755l-.01-.014c-.65-.9-.89-2.01-.7-3.11l.11-.53.1-.33.3.2c.66.5 1.4.86 2.19 1.1l.2.07-.02.2c-.02.28.06.59.22.83.33.47.9.7 1.45.55.12-.04.24-.08.34-.14l5.58-3.56c.28-.18.46-.45.53-.77.06-.33-.02-.67-.2-.94-.33-.46-.9-.67-1.45-.53-.12.04-.25.09-.35.15l-2.11 1.34a4.388 4.388 0 0 1-2.263.621c-1.5 0-2.827-.746-3.628-1.887l-.009-.014a4.07 4.07 0 0 1-.765-2.384c0-.256.024-.507.069-.751l-.004.025A3.866 3.866 0 0 1 6.903 6.91l.016-.009 5.57-3.56c.35-.22.73-.38 1.14-.5 1.8-.47 3.7.24 4.76 1.76a4.131 4.131 0 0 1 .562 3.669l.008-.029-.1.33-.29-.2a7.331 7.331 0 0 0-2.147-1.086l-.053-.014-.2-.06.02-.2c.02-.29-.06-.6-.22-.84-.33-.47-.9-.67-1.45-.53-.12.04-.24.08-.34.14l-5.59 3.59c-.28.19-.46.45-.52.78-.06.32.02.67.2.93.32.47.9.67 1.44.53.13-.04.25-.08.35-.14l2.13-1.36c.35-.23.74-.4 1.14-.51 1.81-.47 3.7.24 4.76 1.77.65.9.9 2.01.72 3.1a3.867 3.867 0 0 1-1.734 2.591l-.016.009-5.58 3.55a4.809 4.809 0 0 1-1.125.501l-.035.009z"/></svg>