<svg xmlns="http://www.w3.org/2000/svg" width="24" height="24"><path fill="#ffb13b" d="M12 0c-1.497 0-2.749.965-3.248 2.17a3.38 3.38 0 0 0-.238 1.423v-.007a3.48 3.48 0 0 0-1.146-.825l-.022-.009a3.443 3.443 0 0 0-1.47-.256h.007a3.507 3.507 0 0 0-2.367 1.02c-1.06 1.058-1.263 2.625-.764 3.83.179.432.47.82.82 1.154l-.097-.001c-.47 0-.919.093-1.329.262l.023-.008c-1.205.499-2.17 1.75-2.17 3.248s.965 2.749 2.17 3.248c.437.181.924.25 1.414.236-.357.338-.65.732-.832 1.17-.499 1.205-.295 2.772.764 3.83 1.058 1.06 2.625 1.263 3.83.764.437-.181.83-.476 1.168-.832-.014.49.057.977.238 1.414.499 1.205 1.75 2.17 3.248 2.17s2.749-.965 3.248-2.17a3.38 3.38 0 0 0 .238-1.423v.007c.338.356.73.653 1.168.834 1.205.499 2.772.295 3.83-.764 1.06-1.058 1.263-2.625.764-3.83a3.503 3.503 0 0 0-.831-1.166l-.003-.002a3.454 3.454 0 0 0 1.439-.246l-.023.008c1.205-.499 2.17-1.75 2.17-3.248s-.965-2.749-2.17-3.248a3.402 3.402 0 0 0-1.421-.235h.007c.357-.338.65-.732.832-1.17.499-1.205.295-2.772-.764-3.83a3.505 3.505 0 0 0-2.361-1.02h-.006a3.505 3.505 0 0 0-1.487.264l.023-.009c-.437.181-.83.475-1.168.832a3.454 3.454 0 0 0-.246-1.437l.008.023c-.499-1.205-1.75-2.17-3.248-2.17zm-.041 1.613h.042a1.903 1.903 0 0 1 1.345 3.246v3.893L16.098 6A1.903 1.903 0 1 1 18 7.902l-2.752 2.752h3.893a1.903 1.903 0 1 1 0 2.692h-3.893L18 16.098A1.903 1.903 0 1 1 16.098 18l-2.752-2.752v3.893a1.903 1.903 0 1 1-2.692 0v-3.893L7.902 18A1.903 1.903 0 1 1 6 16.098l2.752-2.752H4.859a1.903 1.903 0 1 1 0-2.692h3.893L6 7.902A1.903 1.903 0 1 1 7.902 6l2.752 2.752V4.859a1.903 1.903 0 0 1 1.302-3.246h.002z"/></svg>