<svg xmlns="http://www.w3.org/2000/svg" width="24" height="24"><path fill="#14b9ff" d="M11.152 0l-.27 1.48c-.644.068-1.271.194-1.876.373L8.192.589l-1.568.65.318 1.469c-.563.307-1.094.664-1.59 1.064l-1.237-.857-1.2 1.2.857 1.238c-.4.495-.757 1.026-1.064 1.589l-1.47-.318-.65 1.567 1.265.815a10.008 10.008 0 0 0-.368 1.829l-.004.047-1.481.27v1.696l1.48.27c.069.644.194 1.271.373 1.876l-1.264.814.65 1.568 1.469-.318c.307.563.664 1.094 1.064 1.59l-.857 1.237 1.2 1.2 1.238-.857c.495.4 1.026.757 1.589 1.064l-.318 1.47 1.568.65.814-1.264a10.57 10.57 0 0 0 1.877.371L11.152 24h1.696l.27-1.48a10.563 10.563 0 0 0 1.951-.391l-.075.019.814 1.263 1.568-.65-.318-1.469a10.539 10.539 0 0 0 1.609-1.079l-.019.015 1.237.857 1.2-1.2-.857-1.238c.4-.495.757-1.026 1.064-1.589l1.47.318.65-1.568-1.264-.814c.178-.605.304-1.232.371-1.877L24 12.848v-1.696l-1.48-.27a10.562 10.562 0 0 0-.392-1.951l.019.075 1.264-.815-.65-1.567-1.469.318a10.539 10.539 0 0 0-1.079-1.609l.015.019.857-1.237-1.2-1.2-1.238.857c-.495-.4-1.026-.757-1.589-1.064l.318-1.47-1.568-.65-.814 1.264a10.039 10.039 0 0 0-1.83-.367l-.047-.004L12.848 0zM12 2.805c5.079 0 9.196 4.117 9.196 9.196S17.079 21.197 12 21.197s-9.196-4.117-9.196-9.196S6.921 2.805 12 2.805zm0 .968c-4.544 0-8.227 3.683-8.227 8.227S7.456 20.227 12 20.227c4.544 0 8.227-3.683 8.227-8.227S16.544 3.773 12 3.773zm-.475 1.982a.643.643 0 1 1 .499 1.049l.001-.001 1.364 1.376a.803.803 0 0 1 .75-.151l-.006-.002.383-.968a.645.645 0 0 1 .301-1.212.644.644 0 0 1 0 1.287.633.633 0 0 1-.175-.025l.005.001-.384.97a.804.804 0 0 1-.36 1.523.8.8 0 0 1-.57-.238l-1.214 1.013a1.605 1.605 0 0 1-.155 2.127l.875.98a1.127 1.127 0 0 1 1.825.883 1.158 1.158 0 0 1-.035.272l.002-.008 1.556.523a.806.806 0 0 1 1.533.34.806.806 0 0 1-1.609 0c0-.074.01-.146.029-.214l-.001.006-1.55-.52a1.122 1.122 0 0 1-1.583.594l.006.003-.696 1.288a.806.806 0 0 1 .362.67v.001a.804.804 0 1 1-1.609 0 .804.804 0 0 1 1.129-.737l-.005-.002.7-1.294a1.121 1.121 0 0 1-.159-1.711l-.876-.981a1.604 1.604 0 0 1-1.906.095l.006.004-.78 1.082a1.128 1.128 0 0 1-.714 1.997 1.127 1.127 0 0 1 0-2.253c.223 0 .43.065.605.177l-.005-.003.78-1.083a1.609 1.609 0 0 1-.613-1.261c.001-.131.017-.258.047-.379l-.002.011-1.68-.473a.806.806 0 0 1-.75.52.806.806 0 0 1-.001-1.609c.445 0 .805.36.805.805v.001a.791.791 0 0 1-.015.155l.001-.005 1.677.471a1.613 1.613 0 0 1 1.528-1.106c.47.001.893.204 1.187.526l.001.001 1.214-1.013a.798.798 0 0 1-.145-.459v-.001c0-.199.072-.38.191-.521l-.001.001-1.362-1.375a.644.644 0 0 1-1.045-.504.645.645 0 0 1 .644-.643z"/></svg>