<svg xmlns="http://www.w3.org/2000/svg" width="24" height="24"><path d="M12.075 24s7.05-7.95 7.725-12.9c.525-2.25-3.15-1.875-3.15-1.875h-3.6s-.375 0-.375-.525V5.1s-.075-.6.45-.6c.45 0 .375.675.375.675v2.4s-.15.45.525.525 3.975.15 5.625-.45c.45-.15.45-.225.45-.225s.3-.075 0-1.125c-.3-.975-1.875-6.3-8.175-6.3S3.75 6 3.75 7.65s.45 4.35 1.875 6.6c.525.975 1.35.825 1.35.825H12.3s.45.075.45.45v2.85s.075.45-.45.45-.45-.525-.45-.525v-1.425s.075-.45-.525-.6-2.55-.3-3.975.15c-.525.15-.15.675-.15.675S9 20.325 12.075 24z"/></svg>