<!-- Generated by IcoMoon.io -->
<svg version="1.1" xmlns="http://www.w3.org/2000/svg" width="24" height="24" viewBox="0 0 24 24">
<title>swiggy</title>
<path d="M12.075 24s7.050-7.95 7.725-12.9c0.525-2.25-3.15-1.875-3.15-1.875h-3.6s-0.375 0-0.375-0.525v-3.6s-0.075-0.6 0.45-0.6c0.45 0 0.375 0.675 0.375 0.675v2.4s-0.15 0.45 0.525 0.525 3.975 0.15 5.625-0.45c0.45-0.15 0.45-0.225 0.45-0.225s0.3-0.075 0-1.125c-0.3-0.975-1.875-6.3-8.175-6.3s-8.175 6-8.175 7.65 0.45 4.35 1.875 6.6c0.525 0.975 1.35 0.825 1.35 0.825h5.325s0.45 0.075 0.45 0.45v2.85s0.075 0.45-0.45 0.45-0.45-0.525-0.45-0.525v-1.425s0.075-0.45-0.525-0.6-2.55-0.3-3.975 0.15c-0.525 0.15-0.15 0.675-0.15 0.675s1.8 3.225 4.875 6.9z"></path>
</svg>
