<!-- Generated by IcoMoon.io -->
<svg version="1.1" xmlns="http://www.w3.org/2000/svg" width="24" height="24" viewBox="0 0 24 24">
<title>switch-on</title>
<path d="M17.023 6.214h-10.047c-3.181 0-5.786 2.586-5.786 5.786s2.586 5.786 5.786 5.786h10.047c3.181 0 5.786-2.586 5.786-5.786s-2.605-5.786-5.786-5.786zM17.023 16.26h-10.047c-2.344 0-4.26-1.916-4.26-4.26s1.916-4.26 4.26-4.26h10.047c2.344 0 4.26 1.916 4.26 4.26s-1.916 4.26-4.26 4.26zM17.023 8.781c-1.767 0-3.219 1.451-3.219 3.219s1.451 3.219 3.219 3.219 3.219-1.451 3.219-3.219-1.451-3.219-3.219-3.219zM17.023 13.693c-0.93 0-1.693-0.763-1.693-1.693s0.763-1.693 1.693-1.693 1.693 0.763 1.693 1.693-0.763 1.693-1.693 1.693z"></path>
</svg>
