<svg xmlns="http://www.w3.org/2000/svg" width="24" height="24"><path d="M17.023 6.214H6.976C3.795 6.214 1.19 8.8 1.19 12s2.586 5.786 5.786 5.786h10.047c3.181 0 5.786-2.586 5.786-5.786s-2.605-5.786-5.786-5.786zm0 10.046H6.976c-2.344 0-4.26-1.916-4.26-4.26s1.916-4.26 4.26-4.26h10.047c2.344 0 4.26 1.916 4.26 4.26s-1.916 4.26-4.26 4.26zm0-7.479c-1.767 0-3.219 1.451-3.219 3.219s1.451 3.219 3.219 3.219 3.219-1.451 3.219-3.219-1.451-3.219-3.219-3.219zm0 4.912c-.93 0-1.693-.763-1.693-1.693s.763-1.693 1.693-1.693 1.693.763 1.693 1.693-.763 1.693-1.693 1.693z"/></svg>