<svg xmlns="http://www.w3.org/2000/svg" width="24" height="24"><path fill="#b6b5b6" d="M17.895 11.927a3.18 3.18 0 0 1 .402-1.546l-.008.016-.008.017c.247-.47.614-.848 1.062-1.101l.013-.007.014-.007a3.137 3.137 0 0 1 1.511-.382H20.939q1.346 0 2.2.871t.86 2.203c0 .895-.29 1.635-.867 2.226s-1.306.886-2.183.886c-.566 0-1.1-.137-1.571-.379l.019.009a2.55 2.55 0 0 1-1.108-1.054l-.007-.013-.007-.013q-.38-.708-.381-1.726zm1.593.083c0 .591.138 1.043.42 1.349a1.362 1.362 0 0 0 2.065.004l.001-.002.001-.002c.275-.307.413-.764.413-1.357s-.138-1.033-.413-1.342a1.368 1.368 0 0 0-2.064-.002l-.001.002-.001.002c-.281.306-.42.758-.42 1.349zm-1.602 2.941H16.33v-3.015c0-.635-.032-1.044-.101-1.234a.881.881 0 0 0-.325-.433l-.006-.004a.928.928 0 0 0-.518-.156h-.041c-.27 0-.521.084-.727.228l.004-.003a1.125 1.125 0 0 0-.442.568l-.002.008-.002.008c-.083.248-.121.696-.121 1.359v2.673H12.5V9.027h1.439v.867c.518-.656 1.167-.98 1.952-.98h.021c.335 0 .655.067.946.189l-.016-.006c.261.105.48.268.648.475l.002.003c.141.185.247.404.304.643l.002.012c.057.278.089.597.089.924l-.002.135v-.007zM6.413 9.028h1.654l1.412 4.204 1.376-4.204h1.611l-2.067 5.693-.38 1.038a4.131 4.131 0 0 1-.41.823l.01-.016.01-.017a1.652 1.652 0 0 1-.417.44l-.005.003-.005.003c-.17.113-.367.203-.578.26l-.014.003c-.232.064-.499.1-.774.1h-.024a4.084 4.084 0 0 1-.939-.111l.028.006.028.005-.129-1.229c.198.046.426.074.659.077h.002c.36 0 .628-.106.8-.318a2.23 2.23 0 0 0 .391-.791l.004-.016.004-.016zM0 12.29l1.592-.149q.147.802.586 1.181t1.192.375c.528 0 .927-.113 1.197-.335s.4-.486.4-.782v-.024-.002a.75.75 0 0 0-.168-.474l.001.001.001.001c-.113-.132-.309-.252-.59-.347-.193-.074-.631-.191-1.312-.365-.882-.216-1.496-.486-1.85-.804A2.143 2.143 0 0 1 .3 8.937v-.03c0-.431.132-.831.358-1.163l-.005.007c.245-.366.587-.651.988-.821l.015-.005.015-.005c.442-.184.973-.281 1.602-.281q1.529 0 2.304.676c.516.457.785 1.057.811 1.809l-1.649.055c-.073-.413-.219-.714-.452-.899s-.579-.276-1.034-.276c-.476 0-.85.098-1.118.298a.591.591 0 0 0-.261.49v.012c0 .201.095.379.242.493l.001.001c.205.179.709.36 1.507.546s1.388.387 1.769.59c.374.196.678.48.893.825l.006.01c.214.345.326.786.326 1.305 0 .489-.146.944-.396 1.325l.006-.009c-.264.408-.64.724-1.084.908l-.016.006c-.475.194-1.065.298-1.772.298-1.029 0-1.819-.241-2.373-.722S.104 13.203 0 12.289z"/></svg>