<!-- Generated by IcoMoon.io -->
<svg version="1.1" xmlns="http://www.w3.org/2000/svg" width="24" height="24" viewBox="0 0 24 24">
<title>tag-o</title>
<path d="M23.565 10.59l-4.108-5.603c-0.541-0.738-1.638-1.294-2.548-1.294h-14.98c-1.063 0-1.928 0.866-1.928 1.928v12.756c0 1.063 0.866 1.928 1.928 1.928h14.98c0.915 0 2.012-0.556 2.548-1.294l4.108-5.603c0.581-0.787 0.581-2.026 0-2.819zM22.492 12.632l-4.108 5.603c-0.285 0.394-0.994 0.748-1.481 0.748h-14.975c-0.33 0-0.6-0.271-0.6-0.6v-12.761c0-0.33 0.271-0.6 0.6-0.6h14.98c0.487 0 1.191 0.359 1.481 0.748l4.108 5.603c0.236 0.33 0.236 0.93-0.005 1.259z"></path>
</svg>
