<!-- Generated by IcoMoon.io -->
<svg version="1.1" xmlns="http://www.w3.org/2000/svg" width="24" height="24" viewBox="0 0 24 24">
<title>tag</title>
<path d="M24 9.675c0.075 0.6-0.15 1.2-0.6 1.65l-12.075 12.075c-0.825 0.825-2.175 0.825-3.075 0l-7.65-7.65c-0.825-0.825-0.825-2.175 0-3.075l12.075-12.075c0.45-0.45 1.125-0.675 1.725-0.6h7.5c1.125 0 2.1 0.975 2.1 2.1v7.575zM18.15 2.7c-1.8 0-3.225 1.425-3.225 3.225s1.425 3.225 3.225 3.225 3.225-1.425 3.225-3.225-1.5-3.225-3.225-3.225zM18.15 7.125c-0.675 0-1.275-0.6-1.275-1.275s0.6-1.275 1.275-1.275 1.275 0.6 1.275 1.275c0 0.75-0.6 1.275-1.275 1.275z"></path>
</svg>
