<svg xmlns="http://www.w3.org/2000/svg" width="24" height="24"><path d="M16.35 4.125c-.6 0-1.125.525-1.125 1.125s.525 1.125 1.125 1.125 1.125-.525 1.125-1.125-.525-1.125-1.125-1.125zm7.5 4.2v-.15L22.5 3.15v5.1c0 2.925-.75 3-.75 3l-11.4 10.725 3.075 1.725c.9.525 2.1.225 2.625-.675L23.7 9.9c.3-.525.375-1.125.15-1.575zm-2.25.3v-6.75C21.6.825 20.775 0 19.65 0h-6.675c-.525-.075-1.125.15-1.5.525L.6 11.325c-.75.75-.75 1.95 0 2.7l6.9 6.825c.75.75 2.025.75 2.775 0L21.15 10.125c.3-.45.525-.975.45-1.5zM16.35 8.1c-1.575 0-2.85-1.275-2.85-2.85s1.275-2.85 2.85-2.85 2.85 1.275 2.85 2.85-1.275 2.85-2.85 2.85z"/></svg>