<!-- Generated by IcoMoon.io -->
<svg version="1.1" xmlns="http://www.w3.org/2000/svg" width="24" height="24" viewBox="0 0 24 24">
<title>tags</title>
<path d="M16.35 4.125c-0.6 0-1.125 0.525-1.125 1.125s0.525 1.125 1.125 1.125 1.125-0.525 1.125-1.125-0.525-1.125-1.125-1.125zM23.85 8.325v-0.15l-1.35-5.025v5.1c0 2.925-0.75 3-0.75 3l-11.4 10.725 3.075 1.725c0.9 0.525 2.1 0.225 2.625-0.675l7.65-13.125c0.3-0.525 0.375-1.125 0.15-1.575zM21.6 8.625v-6.75c0-1.050-0.825-1.875-1.95-1.875h-6.675c-0.525-0.075-1.125 0.15-1.5 0.525l-10.875 10.8c-0.75 0.75-0.75 1.95 0 2.7l6.9 6.825c0.75 0.75 2.025 0.75 2.775 0l10.875-10.725c0.3-0.45 0.525-0.975 0.45-1.5zM16.35 8.1c-1.575 0-2.85-1.275-2.85-2.85s1.275-2.85 2.85-2.85 2.85 1.275 2.85 2.85-1.275 2.85-2.85 2.85z"></path>
</svg>
