<svg xmlns="http://www.w3.org/2000/svg" width="24" height="24"><path fill="#56347c" d="M21.356 11.162v3.98c0 .122-.081.154-.181.071l-2.032-1.682a.549.549 0 0 1-.181-.368v-.503l-.635-.516c-.68-.554-1.226-1.677-1.226-2.5 0-.822.549-1.036 1.226-.478l.635.516V9.18c0-.122.081-.154.181-.071l2.032 1.682c.1.082.181.248.181.371zm-2.993-1.265c-.358-.296-.648-.182-.648.253s.29 1.027.648 1.323l.599.486v-1.576zm2.839 10.037l.013-.01a.315.315 0 0 0 .037-.036l.004-.004a.437.437 0 0 0 .031-.044l.001-.002.007-.013a.243.243 0 0 0 .018-.04l.001-.002.004-.01a.374.374 0 0 0 .013-.053v-.016l.003-.027.003-.152-5.223-4.28.022-12.91-.151-.114-.034-.02c-.007-.004-.014-.01-.022-.013l-.03-.01c-.01-.004-.02-.009-.03-.011l-.026-.004c-.013-.002-.026-.005-.039-.005H15.8l-.023.001a.222.222 0 0 0-.037.003l-.03.007c-.01.003-.021.005-.031.01-.01.003-.02.008-.029.012l-.029.015-.014.01c-.012.004-.024.007-.035.013l-3.444 1.726.72.57.027 10.067-5.246-4.32-.003-5.241L7.623.328l-.001-.01a.42.42 0 0 0-.004-.037v.002c-.001-.01-.002-.02-.005-.03l-.008-.03C7.6.213 7.597.201 7.59.19L7.588.181l-.01-.015c-.006-.01-.012-.021-.02-.031L7.54.112a.329.329 0 0 0-.073-.061L7.466.05a.188.188 0 0 0-.024-.014L7.44.035c-.01-.004-.02-.01-.03-.013a.418.418 0 0 0-.059-.016h-.002L7.314.002 7.294 0l-.009.001-.038.004h.002c-.01.001-.02.002-.03.005-.01.002-.019.006-.029.009a.284.284 0 0 0-.035.013l.002-.001-.009.004L2.809 2.21a.329.329 0 0 0-.077.061.285.285 0 0 0-.052.076l-.001.002a.423.423 0 0 0-.022.057l-.001.003a.26.26 0 0 0-.01.064v.001c-.001.006-.003.013-.002.02l.006 10.108v.02l.002.008c0 .015.003.03.006.044l.002.009.004.011a.364.364 0 0 0 .021.056l-.001-.002v.001h.001a.42.42 0 0 0 .031.05l.007.01.006.006c.01.012.02.022.031.032l.006.006c.004.003.008.005.01.008.002 0 .003.003.005.004l4.7 3.909-.107 2.673v.038l.004.025.002.015c0 .005.002.01.004.015 0 .004.002.007.003.011l.001.005.003.01a.24.24 0 0 0 .017.04v.002c.01.019.02.035.032.05l-.001-.001.006.008.005.005a.459.459 0 0 0 .037.039l.005.003.003.002.003.004 5.317 4.212a.33.33 0 0 0 .35.035l7.992-4.002a.304.304 0 0 0 .046-.03l-.001.001zM5.475 10.985L3.819 9.706v1.1l.844.585-1.392.698-.006-9.376 2.176-1.09.023 2.392-1.546-1.236v1.1l1.554 1.235.024 1.182L3.901 5.02v1.1l1.603 1.275-.006 1.283-1.573-1.257v1.1l1.58 1.256.01 1.187zm3.433 6.038l-5.309-4.365 3.668-1.837 5.309 4.365zM6.123 1.282l.733-.367.079 9.34-.733.366zm2.494 7.114l-.001-1.59L9.925 7.83l.001 1.591zm1.309-1.828l-1.31-1.025V3.952l1.309 1.025zm1.092-.752c.507.646 1.026 1.907 1.026 3.073 0 1.165-.519 1.562-1.026 1.362z"/></svg>