<!-- Generated by IcoMoon.io -->
<svg version="1.1" xmlns="http://www.w3.org/2000/svg" width="24" height="24" viewBox="0 0 24 24">
<title>ted</title>
<path d="M2.431 9.886h-2.431v-2.221h7.53v2.221h-2.43v6.45h-2.669v-6.45zM7.945 7.665h7.31v2.221h-4.638v1.083h4.638v2.063h-4.638v1.080h4.638v2.225h-7.31v-8.672zM18.375 14.116h1.046c1.664 0 1.907-1.352 1.907-2.166 0-0.545-0.179-2.063-2.115-2.063h-0.854v4.23l0.016-0.001zM15.705 7.665h4.384c2.891 0 3.911 2.135 3.911 4.32 0 2.66-1.409 4.351-4.434 4.351h-3.861v-8.671z"></path>
</svg>
