<svg xmlns="http://www.w3.org/2000/svg" width="24" height="24"><path fill="#20b8e5" d="M4.252 23.936a.975.975 0 0 1-.471-.46l-.003-.006c-.08-.167-.086-.222-.086-.653 0-.93.15-2.428.362-3.587.698-3.827 2.373-7.127 4.915-9.671l.574-.58-.074-.293c-.14-.561-.079-1.306.149-1.826.25-.564.784-1.142 1.3-1.416.134-.071.25-.127.253-.123a1.2 1.2 0 0 0 .137-.049 1.3 1.3 0 0 1 .189-.068c.034-.006.095-.023.14-.034a2.903 2.903 0 0 1 1.361.004l-.02-.004c.038.007.11.031.165.052.05.02.091.027.091.02 0-.01.172.072.375.177.61.315 1.03.75 1.317 1.362.222.465.273.704.271 1.248-.004.398-.017.506-.095.764-.182.605-.45 1.004-.965 1.456-.117.1-.25.202-.295.23a6.46 6.46 0 0 1-.495.25l-.045.018c-.011.005-.04.019-.068.03a.786.786 0 0 1-.144.036.586.586 0 0 0-.131.036l.004-.001c-.014.01-.119.026-.23.038-.111.01-.255.023-.32.033-.148.021-.609-.031-.872-.096a3 3 0 0 1-.638-.27l.015.008-.26-.137-.11.08c-.146.114-.835.85-1.186 1.27-2.335 2.805-3.652 6.45-3.827 10.62-.027.628-.052.913-.088 1.023-.072.193-.28.419-.472.512a.984.984 0 0 1-.729.005l.007.002zm7.853-7.88a1.65 1.65 0 0 0-.304-.038h-.003a5.194 5.194 0 0 1-.873-.111l.034.006c-.038-.007-.126-.021-.2-.035a.75.75 0 0 1-.171-.039l.005.002a.573.573 0 0 0-.119-.034h-.003a1.833 1.833 0 0 1-.242-.073l.012.004a.542.542 0 0 0-.144-.048h-.003a2.458 2.458 0 0 1-.298-.092l.018.006a1.645 1.645 0 0 0-.269-.08l-.011-.002c-.025.017-.34-.208-.418-.3-.212-.253-.29-.643-.182-.903.148-.343.504-.6.849-.609.116-.003.23.01.256.034.028.02.05.031.05.017 0-.013.036.004.083.035s.086.044.086.031c0-.014.022-.012.045.007.044.037.335.136.462.163.04.007.089.022.106.031s.08.029.143.037c.065.006.246.042.407.073.315.058 1.33.089 1.54.044.064-.014.197-.035.289-.044.096-.007.195-.024.223-.035s.1-.024.154-.034a2.52 2.52 0 0 0 .393-.095c.027-.011.12-.038.203-.063.084-.02.191-.057.238-.077.049-.019.11-.038.139-.045.023-.005.23-.1.46-.213a6.29 6.29 0 0 0 2.278-1.903l.012-.017c.275-.394.699-1.232.843-1.677.721-2.254.147-4.733-1.478-6.372a6.53 6.53 0 0 0-2.283-1.442l-.045-.015a3.646 3.646 0 0 0-.384-.117l-.028-.006a2.916 2.916 0 0 1-.268-.062l.022.005a2.525 2.525 0 0 0-.165-.044l-.023-.004a3.62 3.62 0 0 0-.465-.065l-.014-.001a2.078 2.078 0 0 1-.286-.039l.013.002c-.055-.02-.855-.013-1.06.007-.243.02-.396.044-.564.077a3.921 3.921 0 0 1-.233.049l-.024.003-.171.038-.137.034a.577.577 0 0 0-.104.034l.004-.002a.093.093 0 0 0-.057.027c-.015.016-.059.027-.099.027a.189.189 0 0 0-.114.041c-.023.024-.04.028-.04.013 0-.017-.024-.01-.05.015-.03.023-.052.03-.052.02 0-.014-.036-.005-.076.02-.045.02-.093.045-.113.048-.071.014-.729.348-.93.48-.462.29-.627.423-1.054.85-.533.53-.818.924-1.145 1.575a6.189 6.189 0 0 0-.677 2.836c0 .387.035.766.102 1.133l-.006-.038c.06.359.143.65.304 1.088.061.163.068.23.044.367-.098.55-.707.957-1.152.772-.065-.026-.12-.045-.12-.033 0 .037-.287-.2-.376-.312-.08-.121-.15-.26-.201-.407l-.004-.013c-.469-1.301-.55-2.946-.216-4.368a8.32 8.32 0 0 1 1.599-3.238l-.012.016c.315-.39.991-1.053 1.358-1.337.274-.21.899-.622.944-.622.007 0 .13-.069.273-.155.073-.045.158-.091.246-.131L8.89.728c0 .01.065-.018.147-.058.079-.042.16-.08.178-.082.02-.004.096-.035.171-.065.075-.036.136-.055.14-.048 0 .005.027-.007.058-.035.034-.024.06-.034.06-.02s.023.008.05-.017c.027-.024.05-.03.05-.018 0 .014.025.007.052-.017s.051-.03.051-.016.025.006.052-.018c.027-.023.05-.033.05-.02 0 .01.043.003.096-.018.052-.02.12-.043.156-.05.054-.015.163-.04.246-.061a.795.795 0 0 0 .107-.034l-.006.002c.038-.01.124-.03.189-.04s.263-.042.437-.068c.237-.038.537-.05 1.215-.043.492.007.945.021.998.031.058.012.172.031.254.041.086.015.214.038.29.059.079.016.192.04.257.052a.61.61 0 0 1 .158.038l-.004-.001a.218.218 0 0 0 .081.034h.002c.1.024.16.04.17.045.006.007.017.01.035.012l.264.09c.134.044.246.084.255.084s.05.022.086.043c.037.02.08.037.096.04a.66.66 0 0 1 .127.056c.057.03.102.046.102.037 0-.024.742.379.949.516.105.072.22.148.252.164.347.212.861.643 1.283 1.077a8.153 8.153 0 0 1 2.145 4.017l.009.053c.082.414.096.555.108 1.334.015.998-.024 1.392-.215 2.14-.402 1.574-1.23 2.908-2.541 4.098a9.85 9.85 0 0 1-1.178.857l-.042.025c-.18.108-1.044.537-1.044.52 0-.01-.033.004-.074.028-.045.024-.086.045-.096.045s-.125.04-.258.084a4.579 4.579 0 0 1-.255.086l-.069.028a.55.55 0 0 1-.134.037h-.003c-.167.035-.24.052-.269.069a.52.52 0 0 1-.142.037h-.003a3.381 3.381 0 0 0-.298.054l.025-.005c-.205.042-.45.073-.7.088l-.015.001c-.575.045-.875.057-.889.04z"/></svg>