<svg xmlns="http://www.w3.org/2000/svg" width="24" height="24"><path d="M4.714 18a.863.863 0 0 0-.857-.857A.854.854 0 0 0 3 18c0 .482.375.857.857.857A.854.854 0 0 0 4.714 18zm2.143-6.857v8.571a.863.863 0 0 1-.857.857H2.143a.863.863 0 0 1-.857-.857v-8.571c0-.469.388-.857.857-.857H6c.469 0 .857.388.857.857zm15.857 0c0 .71-.281 1.473-.736 1.995.147.429.201.831.201 1.018a2.83 2.83 0 0 1-.576 1.835 2.838 2.838 0 0 1 0 1.567 2.74 2.74 0 0 1-.723 1.259c.081 1.005-.147 1.821-.657 2.424-.576.683-1.46 1.031-2.638 1.045h-1.728c-1.915 0-3.723-.629-5.169-1.125-.843-.295-1.647-.576-2.116-.59-.455-.014-.857-.388-.857-.857v-8.585c0-.442.375-.817.817-.857.495-.04 1.781-1.634 2.371-2.41.482-.616.938-1.192 1.353-1.607.522-.522.669-1.326.831-2.103.147-.79.308-1.621.884-2.183a.854.854 0 0 1 .603-.255c3 0 3 2.397 3 3.429 0 1.098-.388 1.875-.75 2.571-.147.295-.281.429-.388.857h3.71c1.393 0 2.571 1.179 2.571 2.571z"/></svg>