<!-- Generated by IcoMoon.io -->
<svg version="1.1" xmlns="http://www.w3.org/2000/svg" width="24" height="24" viewBox="0 0 24 24">
<title>thumbs-down</title>
<path d="M4.714 7.714c0 0.469-0.388 0.857-0.857 0.857-0.482 0-0.857-0.388-0.857-0.857 0-0.482 0.375-0.857 0.857-0.857 0.469 0 0.857 0.375 0.857 0.857zM6.857 14.571v-8.571c0-0.469-0.388-0.857-0.857-0.857h-3.857c-0.469 0-0.857 0.388-0.857 0.857v8.571c0 0.469 0.388 0.857 0.857 0.857h3.857c0.469 0 0.857-0.388 0.857-0.857zM21.978 12.576c0.455 0.509 0.736 1.286 0.736 1.995-0.014 1.393-1.179 2.571-2.571 2.571h-3.71c0.107 0.429 0.241 0.562 0.388 0.857 0.348 0.696 0.75 1.473 0.75 2.571 0 1.031 0 3.429-3 3.429-0.228 0-0.442-0.093-0.603-0.255-0.576-0.562-0.736-1.393-0.884-2.183-0.16-0.777-0.308-1.581-0.831-2.103-0.415-0.415-0.871-0.991-1.353-1.607-0.59-0.777-1.875-2.371-2.371-2.41-0.442-0.040-0.817-0.415-0.817-0.857v-8.585c0-0.469 0.402-0.843 0.857-0.857 0.469-0.014 1.272-0.295 2.116-0.59 1.446-0.495 3.255-1.125 5.169-1.125h1.728c1.179 0.014 2.062 0.362 2.638 1.045 0.509 0.603 0.736 1.419 0.657 2.424 0.335 0.321 0.59 0.764 0.723 1.259 0.147 0.536 0.147 1.071 0 1.567 0.402 0.536 0.603 1.165 0.576 1.835 0 0.188-0.054 0.59-0.201 1.018z"></path>
</svg>
