<!-- Generated by IcoMoon.io -->
<svg version="1.1" xmlns="http://www.w3.org/2000/svg" width="24" height="24" viewBox="0 0 24 24">
<title>thumbs-up</title>
<path d="M4.714 18c0-0.469-0.388-0.857-0.857-0.857-0.482 0-0.857 0.388-0.857 0.857 0 0.482 0.375 0.857 0.857 0.857 0.469 0 0.857-0.375 0.857-0.857zM6.857 11.143v8.571c0 0.469-0.388 0.857-0.857 0.857h-3.857c-0.469 0-0.857-0.388-0.857-0.857v-8.571c0-0.469 0.388-0.857 0.857-0.857h3.857c0.469 0 0.857 0.388 0.857 0.857zM22.714 11.143c0 0.71-0.281 1.473-0.736 1.995 0.147 0.429 0.201 0.831 0.201 1.018 0.027 0.669-0.174 1.299-0.576 1.835 0.147 0.495 0.147 1.031 0 1.567-0.134 0.495-0.388 0.938-0.723 1.259 0.081 1.005-0.147 1.821-0.657 2.424-0.576 0.683-1.46 1.031-2.638 1.045h-1.728c-1.915 0-3.723-0.629-5.169-1.125-0.843-0.295-1.647-0.576-2.116-0.59-0.455-0.014-0.857-0.388-0.857-0.857v-8.585c0-0.442 0.375-0.817 0.817-0.857 0.495-0.040 1.781-1.634 2.371-2.41 0.482-0.616 0.938-1.192 1.353-1.607 0.522-0.522 0.669-1.326 0.831-2.103 0.147-0.79 0.308-1.621 0.884-2.183 0.16-0.16 0.375-0.255 0.603-0.255 3 0 3 2.397 3 3.429 0 1.098-0.388 1.875-0.75 2.571-0.147 0.295-0.281 0.429-0.388 0.857h3.71c1.393 0 2.571 1.179 2.571 2.571z"></path>
</svg>
