<svg xmlns="http://www.w3.org/2000/svg" width="24" height="24"><path d="M4.714 7.714a.863.863 0 0 1-.857.857A.854.854 0 0 1 3 7.714c0-.482.375-.857.857-.857.469 0 .857.375.857.857zm2.143 6.857V6A.863.863 0 0 0 6 5.143H2.143A.863.863 0 0 0 1.286 6v8.571c0 .469.388.857.857.857H6a.863.863 0 0 0 .857-.857zm15.121-1.995c.455.509.736 1.286.736 1.995-.014 1.393-1.179 2.571-2.571 2.571h-3.71c.107.429.241.562.388.857.348.696.75 1.473.75 2.571 0 1.031 0 3.429-3 3.429a.848.848 0 0 1-.603-.255c-.576-.562-.736-1.393-.884-2.183-.16-.777-.308-1.581-.831-2.103-.415-.415-.871-.991-1.353-1.607-.59-.777-1.875-2.371-2.371-2.41-.442-.04-.817-.415-.817-.857V5.999c0-.469.402-.843.857-.857.469-.014 1.272-.295 2.116-.59 1.446-.495 3.255-1.125 5.169-1.125h1.728c1.179.014 2.062.362 2.638 1.045.509.603.736 1.419.657 2.424.335.321.59.764.723 1.259a2.838 2.838 0 0 1 0 1.567c.402.536.603 1.165.576 1.835 0 .188-.054.59-.201 1.018z"/></svg>