<svg xmlns="http://www.w3.org/2000/svg" width="24" height="24"><path d="M23.79 19.335c-.251 2.218-1.485 3.164-4.432 3.298s-3.821-1.447-4.204-2.957-.56-7.245 3.523-8.984c4.083-1.74 3.75 1.024 3.75 1.024 2.012 1.275 1.614 5.402 1.363 7.62zm-2.726-.341l-.114-4.89c-.842.346-1.591-.455-1.591-.455-1.747 1.221-1.602 4.543-1.477 5.459s1.526.679 2.386.569c.86-.11.795-.682.795-.682zM8.022 12.221c1.149 1.416 2.171 3.072 2.789 4.937 0 0 .287.904-.705 1.234s-1.324-.344-1.498-.881c-.103-.317-.336-1.514-2.083-3.586-1.649 1.887-3.113 3.604-3.999 4.732 0 0-.8.594-1.498-.176s.088-1.587.088-1.587 1.651-1.993 3.879-4.605c-1.161-1.135-2.703-2.45-4.76-3.947-.529-.88 0-1.322 0-1.322s.417-.674 1.146-.441c0 0 2.575 1.415 5.118 3.956 2.787-3.233 6.032-6.893 8.102-8.893.603-.639 1.41 0 1.41 0s.851.765.176 1.499a785.86 785.86 0 0 0-8.165 9.079z"/></svg>