<!-- Generated by IcoMoon.io -->
<svg version="1.1" xmlns="http://www.w3.org/2000/svg" width="24" height="24" viewBox="0 0 24 24">
<title>tic-tac-toe</title>
<path d="M23.79 19.335c-0.251 2.218-1.485 3.164-4.432 3.298s-3.821-1.447-4.204-2.957-0.56-7.245 3.523-8.984c4.083-1.74 3.75 1.024 3.75 1.024 2.012 1.275 1.614 5.402 1.363 7.62zM21.064 18.994l-0.114-4.89c-0.842 0.346-1.591-0.455-1.591-0.455-1.747 1.221-1.602 4.543-1.477 5.459s1.526 0.679 2.386 0.569c0.86-0.11 0.795-0.682 0.795-0.682zM8.022 12.221c1.149 1.416 2.171 3.072 2.789 4.937 0 0 0.287 0.904-0.705 1.234s-1.324-0.344-1.498-0.881c-0.103-0.317-0.336-1.514-2.083-3.586-1.649 1.887-3.113 3.604-3.999 4.732 0 0-0.8 0.594-1.498-0.176s0.088-1.587 0.088-1.587 1.651-1.993 3.879-4.605c-1.161-1.135-2.703-2.45-4.76-3.947-0.529-0.88 0-1.322 0-1.322s0.417-0.674 1.146-0.441c0 0 2.575 1.415 5.118 3.956 2.787-3.233 6.032-6.893 8.102-8.893 0.603-0.639 1.41 0 1.41 0s0.851 0.765 0.176 1.499c-0.422 0.458-4.453 4.877-8.165 9.079z"></path>
</svg>
