<svg xmlns="http://www.w3.org/2000/svg" width="24" height="24"><path d="M12 0C5.381 0 0 5.381 0 12s5.381 12 12 12 12-5.381 12-12S18.619 0 12 0zm0 22.5C6.21 22.5 1.5 17.79 1.5 12S6.21 1.5 12 1.5 22.5 6.21 22.5 12 17.79 22.5 12 22.5zm4.365-13.286l-4.2 1.89L7.181 6.12c-.293-.292-.769-.292-1.061 0s-.292.769 0 1.061l5.351 5.351c.011.011.026.015.038.026a.8.8 0 0 0 .176.116c.022.011.045.023.067.03a.769.769 0 0 0 .248.045h.004a.71.71 0 0 0 .289-.064c.004-.004.008 0 .011-.004l4.672-2.1a.749.749 0 0 0 .375-.994c-.165-.375-.607-.544-.986-.375z"/></svg>