<!-- Generated by IcoMoon.io -->
<svg version="1.1" xmlns="http://www.w3.org/2000/svg" width="24" height="24" viewBox="0 0 24 24">
<title>time1</title>
<path d="M11.25 7.5c0-0.414 0.336-0.75 0.75-0.75s0.75 0.336 0.75 0.75c0 0.414-0.336 0.75-0.75 0.75s-0.75-0.336-0.75-0.75zM11.25 16.5c0-0.414 0.336-0.75 0.75-0.75s0.75 0.336 0.75 0.75c0 0.414-0.336 0.75-0.75 0.75s-0.75-0.336-0.75-0.75zM6.75 12c0-0.414 0.336-0.75 0.75-0.75s0.75 0.336 0.75 0.75c0 0.414-0.336 0.75-0.75 0.75s-0.75-0.336-0.75-0.75zM15.75 12c0-0.414 0.336-0.75 0.75-0.75s0.75 0.336 0.75 0.75c0 0.414-0.336 0.75-0.75 0.75s-0.75-0.336-0.75-0.75zM8.068 15.181c0-0.414 0.336-0.75 0.75-0.75s0.75 0.336 0.75 0.75c0 0.414-0.336 0.75-0.75 0.75s-0.75-0.336-0.75-0.75zM8.068 8.818c0-0.414 0.336-0.75 0.75-0.75s0.75 0.336 0.75 0.75c0 0.414-0.336 0.75-0.75 0.75s-0.75-0.336-0.75-0.75zM14.431 15.181c0-0.414 0.336-0.75 0.75-0.75s0.75 0.336 0.75 0.75c0 0.414-0.336 0.75-0.75 0.75s-0.75-0.336-0.75-0.75zM19.5 10.5c-0.053 0-0.097 0.025-0.148 0.030-0.261-1.309-0.878-2.479-1.723-3.446l-1.077-5.859c-0.131-0.71-0.752-1.225-1.475-1.225h-6c-0.723 0-1.342 0.516-1.475 1.226l-1.050 5.662c-1.26 1.34-2.053 3.126-2.053 5.112 0 1.937 0.761 3.679 1.966 5.009l1.059 5.766c0.132 0.71 0.752 1.226 1.475 1.226h6c0.722 0 1.342-0.516 1.475-1.226l1.068-5.762c0.892-0.983 1.54-2.19 1.809-3.544 0.051 0.007 0.095 0.032 0.148 0.032 0.828 0 1.5-0.672 1.5-1.5s-0.672-1.5-1.5-1.5zM9.078 1.5h6l0.75 4.040c-1.108-0.644-2.376-1.040-3.75-1.040s-2.642 0.396-3.75 1.040l0.75-4.040zM15 22.5h-6l-0.75-4.040c1.107 0.643 2.376 1.040 3.75 1.040s2.643-0.397 3.75-1.040l-0.75 4.040zM12 18c-3.308 0-6-2.692-6-6s2.692-6 6-6 6 2.692 6 6c0 3.308-2.692 6-6 6zM15.706 8.27c0.091 0.091 0.1 0.237 0.021 0.337l-1.819 2.266-1.386 1.669c-0.142 0.136-0.337 0.206-0.524 0.208-0.202-0.001-0.39-0.079-0.53-0.219s-0.217-0.326-0.217-0.523c0-0.204 0.079-0.395 0.222-0.539l3.894-3.214c0.103-0.082 0.249-0.075 0.34 0.016z"></path>
</svg>
