<svg xmlns="http://www.w3.org/2000/svg" width="24" height="24"><path fill="#fdb515" d="M5.537.763c-1.167.7-2.21 1.582-3.08 2.61L3.79 4.836a10.501 10.501 0 0 1 3.565-2.854l.062-.027zm13.028.085l-1.991 1.12a10.46 10.46 0 0 1 3.744 3.045l.018.025 1.18-1.654A12.477 12.477 0 0 0 18.617.878l-.052-.03zm-6.564.752h-.01a9.747 9.747 0 0 0-4.181.935l.06-.025.59 1.011a8.414 8.414 0 0 1 3.527-.762h.015-.001c1.261 0 2.457.274 3.534.76l.59-1.012a9.657 9.657 0 0 0-4.12-.907h-.004zM11.4 3.535l-.55 6.626h.003l-.002.04c.003.111.013.216.033.318.01.112.043.227.097.342.114.289.298.505.516.607.05.04.105.075.158.111l.037.022-.004-.002v.004l6.68 3.596.348-.476-6.058-4.6c-.007 0-.01-.005-.014-.008L12 3.535zm1.423.052c.19.234.361.523.502.855 3.155.604 5.54 3.325 5.54 6.596 0 .877-.176 1.712-.484 2.48.197.221.37.471.51.74l.01.02a7.203 7.203 0 0 0 .754-3.234v-.006c0-3.868-2.99-7.05-6.832-7.451zm-2.284.095c-3.527.667-6.19 3.708-6.19 7.356 0 2.584 1.335 4.863 3.367 6.21.111-.319.211-.564.32-.805l-.025.062c-1.74-1.219-2.874-3.214-2.874-5.467 0-3.054 2.082-5.632 4.932-6.45a3.72 3.72 0 0 1 .47-.906zm9.15 1.675l-.801.893a8.041 8.041 0 0 1 1.551 4.767v.011-.001c0 2.916-1.542 5.481-3.872 6.952.104.388.188.792.251 1.209 2.87-1.632 4.802-4.677 4.802-8.16v-.023a9.188 9.188 0 0 0-1.946-5.668l.015.021zm-15.38.007a9.187 9.187 0 0 0-1.93 5.655v.01-.001c0 3.507 1.954 6.567 4.858 8.19.063-.418.144-.822.248-1.206-2.36-1.468-3.923-4.045-3.923-6.984 0-1.777.573-3.422 1.549-4.772zm9.314.043c.044.203.08.416.107.64a5.361 5.361 0 0 1 3.199 2.878l.014.034.577-.148a5.973 5.973 0 0 0-3.855-3.394l-.042-.01zm-3.816.187a5.976 5.976 0 0 0-3.304 3.16l-.015.038.58.148a5.355 5.355 0 0 1 2.629-2.669l.033-.014c.017-.227.04-.45.077-.663zM6.733 9.672l-.62.63.315.614 1.727.618.942-.618-.312-.923zm10.615 0l-2.048.321-.315.923.942.618 1.73-.618.315-.614zM6.1 11.869a5.837 5.837 0 0 0 2.304 3.82l.016.011c.1-.17.204-.335.315-.493a5.26 5.26 0 0 1-2.034-3.309l-.004-.031zm11.206 0c-.03.18-.071.355-.118.529.174.138.338.272.493.41.097-.302.174-.617.22-.94zm-15.679.217L0 14.158c.966 3.661 3.638 6.65 7.132 8.111a9.086 9.086 0 0 1-.05-.97v-.064.003c0-.375.017-.747.05-1.111-3.024-1.563-5.166-4.544-5.505-8.041zm20.707.055c-.352 3.45-2.464 6.394-5.441 7.957.033.374.05.755.053 1.136 0 .377-.017.71-.05 1.005 3.506-1.488 6.175-4.522 7.104-8.223zm-6.544 2.617a5.33 5.33 0 0 1-.474.411l-.012.009c.11.158.218.322.318.493.265-.2.513-.42.74-.66a8.898 8.898 0 0 1-.635-.281l.063.028zm1.502.559a6.915 6.915 0 0 1-1.23 1.142l-.02.014c.106.236.207.485.294.741a7.73 7.73 0 0 0 1.843-1.752l.014-.02a3.564 3.564 0 0 1-.926-.131l.025.006zm-2.988.63l-2.303.913-2.307-.91-.587 1.435 2.448.946c-.134.46-.568.798-1.08.798-.034 0-.07-.004-.104-.007l-.5.686a1.92 1.92 0 0 0 2.12-.642 1.921 1.921 0 0 0 2.196.615l-.013.004-.49-.67a1.121 1.121 0 0 1-1.258-.798l-.002-.008 2.47-.926zm1.156 4.775c-1.09.377-2.256.58-3.476.58-1.17 0-2.29-.186-3.34-.534.231.88.59 1.654 1.05 2.262a12.683 12.683 0 0 0 4.731-.029c.453-.61.807-1.39 1.035-2.279z"/></svg>