<svg xmlns="http://www.w3.org/2000/svg" width="24" height="24"><path d="M11.25 7.5a.75.75 0 1 1 1.5 0 .75.75 0 0 1-1.5 0zm0 9a.75.75 0 1 1 1.5 0 .75.75 0 0 1-1.5 0zM6.75 12a.75.75 0 1 1 1.5 0 .75.75 0 0 1-1.5 0zm9 0a.75.75 0 1 1 1.5 0 .75.75 0 0 1-1.5 0zm-7.682 3.181a.75.75 0 1 1 1.5 0 .75.75 0 0 1-1.5 0zm0-6.363a.75.75 0 1 1 1.5 0 .75.75 0 0 1-1.5 0zm6.363 6.363a.75.75 0 1 1 1.5 0 .75.75 0 0 1-1.5 0zM19.5 10.5c-.053 0-.097.025-.148.03a7.453 7.453 0 0 0-1.723-3.446l-1.077-5.859A1.499 1.499 0 0 0 15.077 0h-6c-.723 0-1.342.516-1.475 1.226l-1.05 5.662C5.292 8.228 4.499 10.014 4.499 12c0 1.937.761 3.679 1.966 5.009l1.059 5.766a1.5 1.5 0 0 0 1.475 1.226h6c.722 0 1.342-.516 1.475-1.226l1.068-5.762a7.429 7.429 0 0 0 1.809-3.544c.051.007.095.032.148.032a1.5 1.5 0 0 0 0-3zm-10.422-9h6l.75 4.04c-1.108-.644-2.376-1.04-3.75-1.04s-2.642.396-3.75 1.04l.75-4.04zM15 22.5H9l-.75-4.04c1.107.643 2.376 1.04 3.75 1.04s2.643-.397 3.75-1.04L15 22.5zM12 18c-3.308 0-6-2.692-6-6s2.692-6 6-6 6 2.692 6 6-2.692 6-6 6zm3.706-9.73c.091.091.1.237.021.337l-1.819 2.266-1.386 1.669a.777.777 0 0 1-.524.208c-.202-.001-.39-.079-.53-.219s-.217-.326-.217-.523a.76.76 0 0 1 .222-.539l3.894-3.214a.255.255 0 0 1 .34.016z"/></svg>