<!-- Generated by IcoMoon.io -->
<svg version="1.1" xmlns="http://www.w3.org/2000/svg" width="18" height="24" viewBox="0 0 18 24">
<title>tinder-icon</title>
<path d="M9.717 0.004c0.211 0.162 0.395 0.361 0.597 0.535 1.825 1.723 3.499 3.626 4.845 5.75 1.303 2.056 2.304 4.329 2.749 6.73 0.246 1.315 0.327 2.665 0.183 3.996-0.065 0.557-0.162 1.113-0.339 1.645-0.249 0.771-0.575 1.521-1.023 2.199-0.386 0.585-0.868 1.107-1.424 1.53-0.613 0.463-1.312 0.802-2.040 1.036-0.905 0.289-1.854 0.432-2.799 0.51-1.129 0.084-2.264 0.099-3.39-0.044-1.275-0.159-2.541-0.498-3.676-1.11-1.051-0.566-1.975-1.396-2.569-2.441-0.687-1.194-0.914-2.609-0.805-3.974 0.112-1.446 0.572-2.849 1.182-4.158 0.529-1.126 1.176-2.192 1.894-3.206 0.613-0.858 1.272-1.682 1.993-2.454 0.012-0.009 0.037-0.031 0.053-0.040-0.012 0.65 0.050 1.303 0.236 1.928 0.19 0.638 0.51 1.238 0.936 1.751 0.025 0.031 0.044 0.075 0.090 0.081 0.924-0.694 1.798-1.471 2.479-2.407 0.706-0.967 1.179-2.099 1.359-3.284 0.239-1.533 0.034-3.129-0.532-4.572z"></path>
</svg>
