<svg xmlns="http://www.w3.org/2000/svg" width="18" height="24"><path d="M9.717.004c.211.162.395.361.597.535 1.825 1.723 3.499 3.626 4.845 5.75 1.303 2.056 2.304 4.329 2.749 6.73.246 1.315.327 2.665.183 3.996a8.217 8.217 0 0 1-.339 1.645c-.249.771-.575 1.521-1.023 2.199a6.246 6.246 0 0 1-1.424 1.53 6.858 6.858 0 0 1-2.04 1.036c-.905.289-1.854.432-2.799.51-1.129.084-2.264.099-3.39-.044-1.275-.159-2.541-.498-3.676-1.11-1.051-.566-1.975-1.396-2.569-2.441-.687-1.194-.914-2.609-.805-3.974.112-1.446.572-2.849 1.182-4.158a21.08 21.08 0 0 1 1.894-3.206 24.157 24.157 0 0 1 1.993-2.454c.012-.009.037-.031.053-.04-.012.65.05 1.303.236 1.928.19.638.51 1.238.936 1.751.025.031.044.075.09.081.924-.694 1.798-1.471 2.479-2.407a7.502 7.502 0 0 0 1.359-3.284c.239-1.533.034-3.129-.532-4.572z"/></svg>