<!-- Generated by IcoMoon.io -->
<svg version="1.1" xmlns="http://www.w3.org/2000/svg" width="24" height="24" viewBox="0 0 24 24">
<title>to-do</title>
<path d="M19.38 10.835s-0.12-1.050-1.050-1.050c-0.928 0-1.188 0.642-1.188 0.98v1.891s0.023 0.349-0.279 0.349-0.279-0.279-0.279-0.279v-3.22s0.012-0.98-1.118-0.98-1.188 0.909-1.188 0.909v2.871s0.028 0.279-0.211 0.279-0.279-0.279-0.279-0.279v-3.291s0.002-0.98-1.118-0.98-1.188 0.98-1.188 0.98v3.012s0.049 0.211-0.211 0.211-0.279-0.279-0.279-0.279v-7.005h-2.309v11.341s-0.012 0.415-0.42 0-0.865-0.42-0.49-2.381c0.375-1.962 0.694-2.784-0.279-3.291s-1.256-0.225-1.47 0.701c-0.211 0.926-0.982 2.541-1.188 2.871-0.209 0.33 0.272 2.273 1.259 4.552s1.936 3.274 2.517 3.921c0.581 0.647 1.357 1.050 2.869 1.050h4.896s2.489-0.035 2.864-2.871c0.373-2.834 0.138-10.012 0.138-10.012zM4.624 6.635c-0.016 0.42 0.715 2.184 2.309 1.191 1.591-0.994 1.748-3.291 1.748-3.291h2.447c1.704-0.255 1.181 0.86 2.238 2.381 1.055 1.521 3.007 0.56 3.007 0.56l-0.349-0.63s-1.955 0.712-2.379-0.98-1.399-1.959-1.399-1.959c1.758-0.030 1.575 2.030 3.637 2.030s2.238-1.959 2.238-1.959l-0.698-0.070c-0.338 1.151-1.188 1.261-1.188 1.261-1.605 0.41-1.877-1.535-3.218-1.959s-2.098 0.63-2.098 0.63h-2.238v-0.070c-0.628-3.305-2.461-3.858-3.359-3.295s-0.769 1.261-0.769 1.261c0.291 2.067 2.728 2.452 2.728 2.452-2.287 0.607-2.641 2.030-2.658 2.449zM5.534 1.245c1.664-0.991 2.379 2.381 2.379 2.381-3.476-0.905-2.379-2.381-2.379-2.381zM7.91 4.744c-0.586 2.093-1.076 2.177-1.399 2.452s-1.559 0.183-1.118-0.909c0.438-1.095 2.517-1.542 2.517-1.542zM10.988 2.503s-0.033-1.050-1.118-1.050-1.188 0.68-1.188 0.98v1.050h2.309v-0.98z"></path>
</svg>
