<svg xmlns="http://www.w3.org/2000/svg" width="24" height="24"><path d="M19.38 10.835s-.12-1.05-1.05-1.05c-.928 0-1.188.642-1.188.98v1.891s.023.349-.279.349-.279-.279-.279-.279v-3.22s.012-.98-1.118-.98-1.188.909-1.188.909v2.871s.028.279-.211.279-.279-.279-.279-.279V9.015s.002-.98-1.118-.98-1.188.98-1.188.98v3.012s.049.211-.211.211-.279-.279-.279-.279V4.954H8.683v11.341s-.012.415-.42 0-.865-.42-.49-2.381c.375-1.962.694-2.784-.279-3.291s-1.256-.225-1.47.701c-.211.926-.982 2.541-1.188 2.871-.209.33.272 2.273 1.259 4.552s1.936 3.274 2.517 3.921c.581.647 1.357 1.05 2.869 1.05h4.896s2.489-.035 2.864-2.871c.373-2.834.138-10.012.138-10.012zm-14.756-4.2c-.016.42.715 2.184 2.309 1.191 1.591-.994 1.748-3.291 1.748-3.291h2.447c1.704-.255 1.181.86 2.238 2.381 1.055 1.521 3.007.56 3.007.56l-.349-.63s-1.955.712-2.379-.98-1.399-1.959-1.399-1.959c1.758-.03 1.575 2.03 3.637 2.03s2.238-1.959 2.238-1.959l-.698-.07c-.338 1.151-1.188 1.261-1.188 1.261-1.605.41-1.877-1.535-3.218-1.959s-2.098.63-2.098.63H8.681v-.07C8.053.465 6.22-.088 5.322.475s-.769 1.261-.769 1.261c.291 2.067 2.728 2.452 2.728 2.452-2.287.607-2.641 2.03-2.658 2.449zm.91-5.39C7.198.254 7.913 3.626 7.913 3.626c-3.476-.905-2.379-2.381-2.379-2.381zM7.91 4.744c-.586 2.093-1.076 2.177-1.399 2.452s-1.559.183-1.118-.909C5.831 5.192 7.91 4.745 7.91 4.745zm3.078-2.241s-.033-1.05-1.118-1.05-1.188.68-1.188.98v1.05h2.309v-.98z"/></svg>