<!-- Generated by IcoMoon.io -->
<svg version="1.1" xmlns="http://www.w3.org/2000/svg" width="24" height="24" viewBox="0 0 24 24">
<title>toggl1</title>
<path fill="#e01b22" d="M12 0c-6.627 0-12 5.37-12 12s5.373 12 12 12c6.63 0 12-5.37 12-12s-5.37-12-12-12zM11.16 4.67h1.68v8.36h-1.68zM12 18.155c-3.24-0.002-5.865-2.63-5.864-5.868 0-2.64 1.767-4.956 4.314-5.655v1.71c-1.628 0.64-2.698 2.21-2.695 3.96 0 2.345 1.903 4.244 4.248 4.243 2.344-0.002 4.244-1.903 4.243-4.248 0-1.745-1.070-3.312-2.694-3.95v-1.717c2.55 0.7 4.314 3.018 4.314 5.66 0 3.24-2.626 5.864-5.866 5.865z"></path>
</svg>
