<svg height="24" width="24" xmlns="http://www.w3.org/2000/svg"><path d="m19.734 14.016q.094-.281.188-1.031h-6.938v1.031zm-1.5 3q.563-.797.703-1.031h-5.953v1.031zm-5.25 2.906q1.5-.188 2.906-.938h-2.906zm0-9.938v1.031h6.938q-.094-.75-.188-1.031zm0-3v1.031h5.953q-.141-.234-.703-1.031zm0-2.906v.938h2.906q-1.406-.75-2.906-.938zm-1.968 15.844v-15.844q-2.953.375-4.992 2.625t-2.039 5.297 2.039 5.297 4.992 2.625zm.984-17.906q4.125 0 7.055 2.93t2.93 7.055-2.93 7.055-7.055 2.93-7.055-2.93-2.93-7.055 2.93-7.055 7.055-2.93z"/></svg>