<svg height="24" width="24" xmlns="http://www.w3.org/2000/svg"><path d="M12.468 21.506s-3.74 4.364-7.481-3.74C1.558 9.35 2.493 4.363 3.429 3.117S4.987.935 8.728 2.494c3.429 1.247 6.234.935 8.727 0 0 0-2.805.312-5.299-.312 0 0 2.494-1.247 4.987-1.247s4.987 1.247 3.74 7.792-5.922 10.597-12.468 4.364c0 0 0-.312.623-.623s.312-.623 0-.935-1.87 0-1.87 4.052l.935-1.87s3.429 3.74 7.169 3.74 7.481-3.74 8.104-11.844c0-8.416-9.662-5.299-11.844-3.429 0 0-1.558-.623-3.429-1.558S2.804-.623 1.246 2.182c-1.558 4.987.623 11.532.623 11.532s3.429 13.714 10.597 9.351c0 0 5.299 4.364 7.792-5.922 0 0-3.117 8.416-7.792 4.364z"/></svg>