<!-- Generated by IcoMoon.io -->
<svg version="1.1" xmlns="http://www.w3.org/2000/svg" width="24" height="24" viewBox="0 0 24 24">
<title>tooth</title>
<path d="M12.468 21.506s-3.74 4.364-7.481-3.74c-3.429-8.416-2.494-13.403-1.558-14.649s1.558-2.182 5.299-0.623c3.429 1.247 6.234 0.935 8.727 0 0 0-2.805 0.312-5.299-0.312 0 0 2.494-1.247 4.987-1.247s4.987 1.247 3.74 7.792c-1.247 6.545-5.922 10.597-12.468 4.364 0 0 0-0.312 0.623-0.623s0.312-0.623 0-0.935-1.87 0-1.87 4.052l0.935-1.87s3.429 3.74 7.169 3.74 7.481-3.74 8.104-11.844c0-8.416-9.662-5.299-11.844-3.429 0 0-1.558-0.623-3.429-1.558s-5.299-1.247-6.857 1.558c-1.558 4.987 0.623 11.532 0.623 11.532s3.429 13.714 10.597 9.351c0 0 5.299 4.364 7.792-5.922 0 0-3.117 8.416-7.792 4.364z"></path>
</svg>
