<svg xmlns="http://www.w3.org/2000/svg" width="24" height="24"><path d="M22.007 3.454h-4.993V2.64A2.643 2.643 0 0 0 14.374 0H9.627a2.643 2.643 0 0 0-2.64 2.64v.814H1.994c-.37 0-.666.296-.666.666s.296.666.666.666h1.204v15.651A3.568 3.568 0 0 0 6.761 24h10.48a3.568 3.568 0 0 0 3.563-3.563V4.786h1.204c.37 0 .666-.296.666-.666s-.296-.666-.666-.666zM8.319 2.64c0-.72.587-1.308 1.308-1.308h4.747c.72 0 1.308.587 1.308 1.308v.814H8.32zM19.47 20.438a2.234 2.234 0 0 1-2.23 2.23H6.76a2.234 2.234 0 0 1-2.23-2.23V4.787h14.946v15.651zM12 20.28c.37 0 .666-.296.666-.666V7.841c0-.37-.296-.666-.666-.666s-.666.296-.666.666v11.768c0 .37.296.671.666.671zm-4.347-.736c.37 0 .666-.296.666-.666V8.57c0-.37-.296-.666-.666-.666s-.666.296-.666.666v10.308c0 .37.301.666.666.666zm8.694 0c.37 0 .666-.296.666-.666V8.57c0-.37-.296-.666-.666-.666s-.666.296-.666.666v10.308c0 .37.296.666.666.666z"/></svg>