<svg xmlns="http://www.w3.org/2000/svg" width="24" height="24"><path d="M4.067 8.536l1.321 13.09c.073.553 2.744 2.372 6.612 2.375 3.87-.002 6.541-1.822 6.613-2.375l1.322-13.09c-2.021 1.13-5.041 1.664-7.936 1.664-2.892 0-5.914-.534-7.933-1.664zm11.735-6.724L14.771.671C14.373.103 13.941 0 13.099 0h-2.197c-.84 0-1.273.103-1.67.671L8.201 1.812C5.117 2.351 2.88 3.78 2.88 4.835v.204C2.88 6.895 6.964 8.4 12 8.4c5.038 0 9.121-1.505 9.121-3.361v-.204c0-1.055-2.236-2.484-5.32-3.023zm-1.318 3.396L13.2 3.6h-2.4L9.518 5.208h-2.04s2.234-2.665 2.533-3.026c.228-.276.461-.382.763-.382h2.452c.304 0 .536.106.764.382.298.361 2.533 3.026 2.533 3.026h-2.04z"/></svg>