<!-- Generated by IcoMoon.io -->
<svg version="1.1" xmlns="http://www.w3.org/2000/svg" width="24" height="24" viewBox="0 0 24 24">
<title>trash1</title>
<path d="M4.067 8.536l1.321 13.090c0.073 0.553 2.744 2.372 6.612 2.375 3.87-0.002 6.541-1.822 6.613-2.375l1.322-13.090c-2.021 1.13-5.041 1.664-7.936 1.664-2.892 0-5.914-0.534-7.933-1.664zM15.802 1.812l-1.031-1.141c-0.398-0.568-0.83-0.671-1.672-0.671h-2.197c-0.84 0-1.273 0.103-1.67 0.671l-1.031 1.141c-3.084 0.539-5.321 1.968-5.321 3.023v0.204c0 1.856 4.084 3.361 9.12 3.361 5.038 0 9.121-1.505 9.121-3.361v-0.204c0-1.055-2.236-2.484-5.32-3.023zM14.484 5.208l-1.284-1.608h-2.4l-1.282 1.608h-2.040s2.234-2.665 2.533-3.026c0.228-0.276 0.461-0.382 0.763-0.382h2.452c0.304 0 0.536 0.106 0.764 0.382 0.298 0.361 2.533 3.026 2.533 3.026h-2.040z"></path>
</svg>
