<svg xmlns="http://www.w3.org/2000/svg" width="24" height="24"><path fill="#3eaaaf" d="M20.07 9.29v-.02c.01-.04.14-.95-.08-2.24a.161.161 0 0 0-.109-.13h-.001l-.35-.1c-.08-2.71-1.2-4-1.23-4.03 1 1.6.99 3.51.97 3.96L17.1 6.1h-.04l-.02-.001-.021.001h.001-.03l-.01.01-.03.02-.01.01-.15.14a8.946 8.946 0 0 0-1.024-4.519l.024.049c.03.06.8 2.33.53 4.87-.076.065-.161.13-.248.192l-.012.008a.17.17 0 0 0-.07.13 3.898 3.898 0 0 1-.41 1.572l.01-.022a39.897 39.897 0 0 0-5.474.007l.124-.007-.01-.04a3.82 3.82 0 0 1-.38-1.491V7.02c0-.06-.02-.1-.07-.14a3.768 3.768 0 0 1-.277-.206l.007.006c-.26-2.54.51-4.81.53-4.87a8.884 8.884 0 0 0-.99 4.487l-.001-.018-.15-.14-.01-.01-.03-.02-.03-.01h-.08l-2.18.62a7.421 7.421 0 0 1 .989-3.996l-.019.036c-.03.04-1.15 1.32-1.23 4.03l-.35.1a.16.16 0 0 0-.11.129v.001c-.22 1.3-.1 2.2-.09 2.24v.02l-.08.02a4.957 4.957 0 0 0-.986.413l.026-.013c.16-.06.32-.1.5-.15a15.23 15.23 0 0 1 2.499-.377l.051-.003 1.02-.08c1.38-.08 2.75-.1 4.13-.1h.22c1.738 0 3.461.065 5.167.194l-.227-.014c.972.088 1.842.222 2.694.406l-.144-.026c.17.04.33.09.5.15a4.762 4.762 0 0 0-.935-.391l-.035-.009zM8.76 8.7a22.518 22.518 0 0 0-2.836.534L6.08 9.2c-.02-.15-.1-.94.07-2.02l2.46-.7a7.313 7.313 0 0 0 .231 2.271L8.83 8.7zm.37-.04v-.08a6.809 6.809 0 0 1-.199-1.974v.014c.16.15.38.34.6.5.02.22.08.87.37 1.47zm7.58-.08v.08a17.771 17.771 0 0 0-.667-.063l-.103-.007c.3-.6.35-1.25.37-1.48.22-.15.44-.34.6-.5.02.44 0 1.23-.2 1.97zm3.05.62a15.264 15.264 0 0 0-2.6-.494l-.07-.006H17l.02-.03a7.02 7.02 0 0 0 .199-2.211l.001.021 2.46.7a8.222 8.222 0 0 1 .078 2.051l.002-.031zm-2.96 6.04c.7-.02 1.07-.23 1.42-.06 0-.02-.11-.35-.6-.29a.975.975 0 0 0 .07-.505v.005c-.07-.81-.53-1.45-1.05-1.44-.51.02-.84.7-.82 1.5.03.81.47.8.98.79zm-.2-1.77a.265.265 0 0 1 0 .53.265.265 0 0 1 0-.53zm-7.84 1.91h.32c.52 0 .94.04.94-.77-.01-.8-.37-1.46-.88-1.46-.52 0-1.02.67-.99 1.48.01.21.04.36.1.47-.46.12-.58.4-.59.41.28-.15.6-.13 1.1-.13zm.45-1.72h.005a.265.265 0 0 1 .005.53h-.005a.265.265 0 0 1-.005-.53zm14.73-5.2a4.9 4.9 0 0 0-.044-.288l.004.028-.06-.27-.02-.06-.05-.04a4.655 4.655 0 0 0-.842-.518L22.9 7.3c-.25-.11-.5-.22-.76-.31a10.85 10.85 0 0 0-3.537-4.942l-.023-.018C17.029.829 15.057.105 12.915.105s-4.114.724-5.686 1.94l.021-.016a10.881 10.881 0 0 0-3.527 4.894l-.023.076-.75.31c-.3.15-.6.31-.88.53l-.05.04-.02.06c-.045.152-.08.332-.099.517l-.001.013a6.193 6.193 0 0 0-.017 1.599l-.003-.029c.082.661.247 1.262.487 1.824l-.017-.044.06.13.04.06.04.07.03.05.06.03c.03.017.083.044.136.07l.024.01.16.07.08.04c-.7.65-1.47 1.5-2.14 2.55L0 16.209l1.18-1.03c.02-.02 1-.87 2.66-1.84l.02.19c-.1.05-.63.32-.78.45-.26.21-.27.54-.2 1.16.03.31.15.92.31 1.48.28.97.48 1.14.65 1.18.08.02.19.03.3.03.32 0 .72-.07.99-.14.3.96.75 1.83 1.28 2.6-.03 0-.05 0-.08.02l-1.82-.85-.8-.35.47.73c.04.05.84 1.3 1.5 2.15a3.6 3.6 0 0 0 2.994 1.6h.059-.003c.2 0 .4 0 .6-.03l1.1-.13c.78.302 1.682.477 2.625.477a7.422 7.422 0 0 0 4.005-1.165l-.03.018c.66-.15 1.4-.33 1.76-.43l.2-.05c.51-.12 1.36-.32 1.81-1.22l1.2-2.33.36-.65-.68.3c-.04.01-.9.39-1.34.62-.02 0-.03.02-.05.03.36-.74.54-1.33.6-1.56.26.06.63.05.9.05.13 0 .27-.02.36-.04.17-.05.31-.17.57-1.16.15-.58.26-1.21.28-1.53.06-.64.04-.97-.21-1.19-.13-.1-.5-.3-.7-.4l.01-.07.15.03.18-.65c.122-.059.29-.13.462-.194l.048-.016.16-.07.22-.11.03-.05.05-.07.03-.06.06-.13a3.9 3.9 0 0 0 .273-.721l.007-.029a6.278 6.278 0 0 0 .166-2.634l.004.034zM3.68 11.27c.106-.03.393-.089.682-.144l.168-.026c-.26.17-.5.36-.75.55zm5.9-.28c-.36.25-.76.57-1.15.96-.87.09-1.73.2-2.59.34 1.1-.51 2.37-.98 3.74-1.3zm-1.61 1.46c-.13.15-.24.3-.36.47l-.68.97 1-.66s.64-.43 1.67-.93a44.588 44.588 0 0 1 4.304-.12l-.044-.001c-.2.16-.41.32-.63.45l-.73.44c-.46.06-.86.17-.88.18a.112.112 0 0 0-.041.01h.001a.173.173 0 0 0-.07.099v.001l-.75 2.45-3.98.89-1.26-.88-.36-2.96c.71-.13 1.66-.28 2.81-.41zm5.4.6c.07-.01 1.45-.18 3.08-.74 1.82.14 3.3.36 4.31.54l-.36 2.52-1.26.88-3.98-.45-.74-2.44a.165.165 0 0 0-.109-.11h-.001c-.03-.01-.52-.15-1.04-.2zm1.92-2.34c-.23.3-.55.67-.94 1.03a47.568 47.568 0 0 0-3.702.044l.113-.005a17.109 17.109 0 0 1 4.563-1.221l.087-.009zM3.97 17.36c-.2-.2-.56-1.55-.64-2.27-.06-.58-.02-.71.04-.76.07-.06.33-.2.55-.33l.3 2.46c0 .04.03.09.07.11l.62.44.08.25c-.26.07-.78.15-1.02.1zm10.04 4.66l-.38.05h-.27l.23-.51zm-.71 1.5a5.974 5.974 0 0 1-2.022-.23l.042.011.14-.02c.06 0 1.23-.16 1.76-.94h.18l.25-.01c.2-.02.39-.05.58-.09l.06.06c.4.4.9.62 1.43.66-.77.31-1.6.5-2.42.56zm7.29-6.38c-.23.75-.5 1.4-.81 2h-.22c-.24 0-.48-.02-.75-.04l-1.43-.15-1.46-1.16-.06-.05a.6.6 0 0 0-.429-.18h-.022.001c-.2 0-.51.08-1.26.3.39-.29.4-.66.4-.66s-.56.51-1.44.62c-.89.12-1.58-.42-1.58-.42.03.09.07.3.27.48a6.412 6.412 0 0 0-1.063-.04h.014c-.54.03-1.3.86-1.85 1.69l-2.04.62c-.9-1.23-1.34-2.5-1.38-2.63l-.05-.15.23.16.56.4.2.13c.02.02.05.03.09.03h.04l5.2-1.17c.07 0 .11-.05.13-.1l.74-2.46a2.386 2.386 0 0 1 .693.001l-.013-.002.76 2.53c.02.06.08.1.15.11l5.24.6c.04 0 .08 0 .12-.03l.49-.34.45-.32.17-.12zm-1.16.12l-5.08-.58-.76-2.51a.171.171 0 0 0-.129-.12h-.001a3.354 3.354 0 0 0-.496-.05h-.004c-.14 0-.3.02-.5.05a.17.17 0 0 0-.12.119v.001l-.75 2.45-5.04 1.12-2-1.4-.4-3.18.26-.15.42-.08.37 3c0 .05.03.1.07.12l1.38.96c.02.02.06.03.09.03h.04l4.15-.92.04-.02a.162.162 0 0 0 .08-.099V16l.75-2.46c.2-.05.7-.17 1.16-.17.45 0 .96.12 1.17.17l.74 2.46c.02.07.08.11.14.12l4.15.47c.04 0 .08 0 .12-.03l1.37-.96a.172.172 0 0 0 .07-.109v-.001l.37-2.58.69.15-.41 2.84zm3.07-3.3c.06.05.1.18.05.79a6.91 6.91 0 0 1-.588 2.294L21.98 17c-.21.04-.66 0-.93-.07l.1-.47.47-.33a.162.162 0 0 0 .07-.109v-.001l.34-2.34zm-.57-1.33c-.73-.16-2.33-.48-4.52-.7.72-.3 1.45-.68 2.1-1.15 1.3.18 2.26.38 2.78.5zm1.53-2.66a7.032 7.032 0 0 1-.447 1.677l.017-.047-.07.14-.07.04-.15.06-.15.07.26-.97a19.253 19.253 0 0 0-1.435-.316l-.155-.024.1-.02c.329-.085.615-.194.884-.331l-.024.011a.912.912 0 0 0 .239-.189l.001-.001c-.96.32-2.96.17-4.73 0a46.265 46.265 0 0 0-4.848-.29h-.022c-1.64 0-3.26.12-4.88.28-1.77.19-3.76.33-4.73.01.07.08.16.14.25.19l.27.14c.226.092.494.172.772.225l.028.005c-.87.16-1.38.3-1.44.31l.27 1.02-.02.02-.43-.2-.07-.04-.07-.14a5.174 5.174 0 0 1-.428-1.608L2.38 9.97a7.172 7.172 0 0 1 .015-1.908l-.004.038c.22-.18.46-.34.71-.5.611-.341 1.34-.678 2.094-.962l.116-.038.47-.16c-.606.097-1.138.229-1.652.401l.072-.021C5.53 3.193 8.916.635 12.911.55h.01c3.8 0 7.27 2.47 8.72 6.27a11.289 11.289 0 0 0-1.496-.369l-.074-.011c.768.271 1.366.518 1.951.788l-.141-.059c.29.13.58.28.85.44.26.14.5.3.72.49l.03.17.02.24a7.278 7.278 0 0 1-.044 1.497l.004-.037zm-11.6-5.55h-1.44V2.38h5.1v2.04h-1.45v-.6h-.33v2.76h.5v1.54H11.7V6.58h.5V3.82h-.33z"/></svg>