<svg xmlns="http://www.w3.org/2000/svg" width="24" height="24"><path fill="#5fcf80" d="M20.537 4.118c-.806-.453-2.092.278-2.871 1.635L16.25 8.215a3.06 3.06 0 0 0-.341 1.414c0 .66.206 1.272.558 1.776l-.007-.01.041.062c.653.94 1.535 1.808 1.823 2.118a1.613 1.613 0 0 1-.728 2.651l-.011.003a1.603 1.603 0 0 1-2.024-1.755l-.001.008c.045-.35-.067-.927-.574-1.489-.506-.563-1.54.5-1.874 1.61l-.016.061c-.334 1.094-.546 2.05-.482 2.143.037.06.072.12.105.182A1.81 1.81 0 0 1 9.528 18.7l-.005-.01a1.805 1.805 0 0 1 .737-2.442l.01-.005.121-.061c.065-.03.26-.486.423-1.032l.301-.987a.97.97 0 0 0 .045-.168l.897-3.19-.957 1.96c-.112-.363-.3-.38-.709-.091-.243.183-.653.531-.85.669-.365.273-.685.788-.851 1.109-.096.202-.235.37-.407.498l-.004.002a1.58 1.58 0 1 1-2.584-1.222c0-.762.536-1.399 1.251-1.555l.01-.002c.409-.092 1.777-.927 2.596-1.52.152-.106.274-.197.38-.304l2.203-1.67-1.914 1.032s-.196-.016-.426.017c-.698.075-1.428.182-1.564.35a1.02 1.02 0 0 1-.286.27l-.004.002a1.43 1.43 0 0 1-1.989-.317 1.434 1.434 0 0 1 .332-1.991l.004-.003c.259-.183.577-.274.865-.274.518.016 1.87.29 2.993.092l.288-.045c1.14-.196 2.476-1.186 3.024-2.187l1.184-2.067c.653-1.139.608-2.384-.105-2.795l-1.323-.76c-.653-.363-1.715-.363-2.354 0L2.002 4.969C1.335 5.318.803 6.229.803 6.974v9.744c0 .744.532 1.656 1.178 2.02l8.85 4.983c.652.365 1.716.365 2.354 0l8.826-4.983c.653-.368 1.184-1.276 1.184-2.02v-9.76c0-.744-.531-1.653-1.169-2.02l-1.46-.823z"/></svg>