<!-- Generated by IcoMoon.io -->
<svg version="1.1" xmlns="http://www.w3.org/2000/svg" width="24" height="24" viewBox="0 0 24 24">
<title>trello1</title>
<path d="M21.525 24h-19.050c-1.35 0-2.475-1.125-2.475-2.475v-19.050c0-1.35 1.125-2.475 2.475-2.475h18.975c1.425 0 2.55 1.125 2.55 2.475v18.975c0 1.425-1.125 2.55-2.475 2.55zM10.5 6c0-0.825-0.675-1.5-1.5-1.5h-3c-0.825 0-1.5 0.675-1.5 1.5v12c0 0.825 0.675 1.5 1.5 1.5h3c0.825 0 1.5-0.675 1.5-1.5v-12zM19.5 6c0-0.825-0.675-1.5-1.5-1.5h-3c-0.825 0-1.5 0.675-1.5 1.5v7.5c0 0.825 0.675 1.5 1.5 1.5h3c0.825 0 1.5-0.675 1.5-1.5v-7.5z"></path>
</svg>
