<!-- Generated by IcoMoon.io -->
<svg version="1.1" xmlns="http://www.w3.org/2000/svg" width="24" height="24" viewBox="0 0 24 24">
<title>turn-left</title>
<path d="M0.229 6.071c0-0.004-0.004-0.004-0.004-0.004-0.064-0.071-0.112-0.161-0.15-0.255-0.011-0.030-0.019-0.056-0.030-0.086-0.022-0.071-0.034-0.146-0.041-0.225-0.004-0.030-0.007-0.056-0.007-0.086 0-0.015-0.004-0.030-0.004-0.041 0.004-0.090 0.022-0.176 0.053-0.259 0.004-0.008 0.007-0.015 0.011-0.022 0.034-0.090 0.079-0.169 0.135-0.244 0.008-0.011 0.011-0.022 0.019-0.034l3.874-4.549c0.296-0.349 0.78-0.356 1.084-0.015s0.308 0.9 0.011 1.249l-2.085 2.456c3.045-0.405 6.038 0.236 6.18 0.27 9.244 1.676 15.784 10.211 14.58 19.028-0.056 0.435-0.383 0.746-0.754 0.746-0.041 0-0.079-0.004-0.12-0.011-0.42-0.075-0.705-0.529-0.637-1.012 1.072-7.853-4.898-15.48-13.328-17.010-0.038-0.008-3.131-0.671-6.045-0.214l3.218 1.909c0.379 0.225 0.525 0.758 0.33 1.192s-0.656 0.604-1.035 0.383l-5.070-3.011c-0.068-0.041-0.128-0.094-0.184-0.154z"></path>
</svg>
