<svg xmlns="http://www.w3.org/2000/svg" width="24" height="24"><path d="M.229 6.071c0-.004-.004-.004-.004-.004a.862.862 0 0 1-.15-.255l-.03-.086a1.08 1.08 0 0 1-.041-.225.623.623 0 0 1-.007-.086c0-.015-.004-.03-.004-.041a.842.842 0 0 1 .053-.259l.011-.022a.983.983 0 0 1 .135-.244c.008-.011.011-.022.019-.034L4.085.266c.296-.349.78-.356 1.084-.015s.308.9.011 1.249L3.095 3.956c3.045-.405 6.038.236 6.18.27 9.244 1.676 15.784 10.211 14.58 19.028-.056.435-.383.746-.754.746a.696.696 0 0 1-.12-.011c-.42-.075-.705-.529-.637-1.012 1.072-7.853-4.898-15.48-13.328-17.01-.038-.008-3.131-.671-6.045-.214l3.218 1.909c.379.225.525.758.33 1.192s-.656.604-1.035.383L.414 6.226a.866.866 0 0 1-.184-.154z"/></svg>