<svg xmlns="http://www.w3.org/2000/svg" width="24" height="24"><path d="M23.771 6.071c0-.004.004-.004.004-.004a.842.842 0 0 0 .15-.255l.03-.086c.023-.071.034-.146.041-.225.004-.03.008-.056.008-.086 0-.015.004-.03.004-.041a.872.872 0 0 0-.053-.259l-.011-.022a.983.983 0 0 0-.135-.244c-.008-.011-.011-.022-.019-.034L19.916.266c-.296-.349-.78-.356-1.084-.015s-.308.9-.011 1.249l2.085 2.456c-3.045-.405-6.038.236-6.18.27C5.478 5.902-1.062 14.437.142 23.254c.06.435.386.746.758.746a.696.696 0 0 0 .12-.011c.42-.075.705-.529.638-1.012C.589 15.128 6.556 7.497 14.985 5.971c.037-.007 3.131-.671 6.045-.214l-3.218 1.909c-.379.225-.525.758-.33 1.193s.656.604 1.035.383l5.07-3.011c.067-.045.127-.098.184-.158z"/></svg>