<!-- Generated by IcoMoon.io -->
<svg version="1.1" xmlns="http://www.w3.org/2000/svg" width="24" height="24" viewBox="0 0 24 24">
<title>turn-right</title>
<path d="M23.771 6.071c0-0.004 0.004-0.004 0.004-0.004 0.064-0.071 0.113-0.161 0.15-0.255 0.011-0.030 0.019-0.056 0.030-0.086 0.023-0.071 0.034-0.146 0.041-0.225 0.004-0.030 0.008-0.056 0.008-0.086 0-0.015 0.004-0.030 0.004-0.041-0.004-0.090-0.023-0.176-0.053-0.259-0.004-0.008-0.008-0.015-0.011-0.022-0.034-0.090-0.079-0.169-0.135-0.244-0.008-0.011-0.011-0.022-0.019-0.034l-3.874-4.549c-0.296-0.349-0.78-0.356-1.084-0.015s-0.308 0.9-0.011 1.249l2.085 2.456c-3.045-0.405-6.038 0.236-6.18 0.27-9.248 1.676-15.788 10.211-14.584 19.028 0.060 0.435 0.386 0.746 0.758 0.746 0.041 0 0.079-0.004 0.12-0.011 0.42-0.075 0.705-0.529 0.638-1.012-1.069-7.849 4.898-15.48 13.327-17.006 0.037-0.007 3.131-0.671 6.045-0.214l-3.218 1.909c-0.379 0.225-0.525 0.758-0.33 1.193s0.656 0.604 1.035 0.383l5.070-3.011c0.067-0.045 0.127-0.098 0.184-0.158z"></path>
</svg>
