<!-- Generated by IcoMoon.io -->
<svg version="1.1" xmlns="http://www.w3.org/2000/svg" width="24" height="24" viewBox="0 0 24 24">
<title>twitter1</title>
<path d="M11.775 8.325s-6.075-0.075-10.2-5.175c0 0-2.25 3.675 1.5 6.525 0 0-0.75 0.15-2.25-0.6 0 0-0.15 3.825 3.975 4.875 0 0-0.9 0.375-2.175 0.075 0 0 0.75 3.15 4.575 3.45 0 0-2.85 2.625-7.2 2.025 0 0 7.275 5.25 15.825-0.375 0 0 6.075-4.575 5.7-12.075 0 0 1.5-1.050 2.475-2.55 0 0-1.35 0.675-2.85 0.825 0 0 1.95-1.425 2.1-2.775 0 0-1.275 0.9-3.15 1.275 0 0-2.4-2.85-6.15-0.9 0.075 0-2.775 1.65-2.175 5.4z"></path>
</svg>
