<!-- Generated by IcoMoon.io -->
<svg version="1.1" xmlns="http://www.w3.org/2000/svg" width="24" height="24" viewBox="0 0 24 24">
<title>uber-driver</title>
<path d="M21.825 18.375c-0.825 0.45-9.15 5.325-9.15 5.325s-0.675 0.675-1.725 0c-0.15-0.15-0.525-0.375-1.050-0.6v-7.725h4.725c0.375 0 0.675-0.3 0.675-0.675v-12.9c2.625 1.575 6.45 3.9 6.45 3.9s0.75 0.3 0.75 0.975v10.35s0.15 0.825-0.675 1.35zM8.325 9v13.050c-2.625-1.575-6.075-3.675-6.075-3.675s-0.75-0.375-0.75-1.35v-10.35s-0.15-0.525 0.675-1.050 8.775-5.325 8.775-5.325 0.975-0.675 2.025 0c0.15 0.075 0.375 0.225 0.675 0.45v7.575h-4.65c-0.375 0-0.675 0.3-0.675 0.675z"></path>
</svg>
