<!-- Generated by IcoMoon.io -->
<svg version="1.1" xmlns="http://www.w3.org/2000/svg" width="24" height="24" viewBox="0 0 24 24">
<title>uber</title>
<path d="M12 24c-5.925 0-10.8-4.875-11.25-11.1 0.075 0 0.15 0.075 0.3 0.075h7.050c0.15 0 0.225 0 0.3-0.075v1.65c0 0.525 0.45 0.975 0.975 0.975h5.175c0.525 0 0.975-0.45 0.975-0.975v-5.55c0-0.525-0.45-0.975-0.975-0.975h-5.175c-0.525 0-0.975 0.45-0.975 0.975v1.65c-0.075 0-0.225-0.075-0.3-0.075h-7.050c-0.075 0-0.15 0-0.225 0.075 0.525-5.925 5.325-10.65 11.175-10.65 6.225 0 11.25 5.4 11.25 12s-5.025 12-11.25 12z"></path>
</svg>
