<svg xmlns="http://www.w3.org/2000/svg" width="24" height="24"><path d="M0 7.97v4.96c0 1.87 1.3 3.1 3 3.1.83 0 1.56-.32 2.09-.87v.74h1.18V7.97H5.08v4.89c0 1.26-.85 2.11-1.94 2.11-1.11 0-1.95-.83-1.95-2.11V7.97H0zm7.44 0v7.93h1.13v-.73c.523.531 1.249.86 2.053.86h.038a3 3 0 0 0 3-3v-.032V13a3 3 0 0 0-3-3h-.032.002-.006c-.801 0-1.525.329-2.044.859v-2.89h-1.14zM17.31 10c-1.69 0-2.97 1.38-2.97 3 0 1.73 1.34 3 3.07 3 1.06 0 1.92-.44 2.49-1.21l-.82-.62c-.43.58-1 .83-1.67.83-.97 0-1.75-.68-1.91-1.62h4.7V13c0-1.71-1.23-3-2.89-3zm6.29.08c-.63 0-1.1.29-1.38.75v-.71h-1.13v5.78h1.14v-3.29c0-.89.55-1.47 1.3-1.47H24v-1.07h-.4zm-6.31.92c.85 0 1.56.59 1.75 1.47H15.5c.23-.88.94-1.47 1.79-1.47zm-6.74 0c1.09 0 1.98.9 1.98 2 0 1.13-.89 2-1.98 2a2 2 0 0 1-.001-4h.001z"/></svg>