<svg xmlns="http://www.w3.org/2000/svg" width="24" height="24"><path fill="maroon" d="M12 0C7.502 3 6.002 3 1.5 3c0 15.002 0 15.002 10.5 21 10.5-5.998 10.5-5.998 10.5-21-4.498 0-5.998 0-10.5-3zM5.956 7.472h1.512v4.536c0 1.322.19 1.508 1.512 1.508 1.323 0 1.512-.19 1.512-1.512V7.472H12v.767a3.722 3.722 0 0 1 2.268-.767 3.79 3.79 0 0 1 3.776 3.779v.001a3.79 3.79 0 0 1-3.779 3.775h-.001a3.753 3.753 0 0 1-2.683-1.132l-.001-.001c-.464.77-1.315 1.133-2.6 1.133-2.079 0-3.024-.944-3.024-3.023zm8.308 1.512h-.01A2.254 2.254 0 0 0 12 11.238v.015-.001.01a2.254 2.254 0 0 0 2.254 2.254h.015-.001.01a2.254 2.254 0 0 0 2.254-2.254v-.024a2.254 2.254 0 0 0-2.254-2.254h-.015.001z"/></svg>