<svg xmlns="http://www.w3.org/2000/svg" width="24" height="24"><path d="M13.5 6.225c-.75 0-1.5.15-2.175.45l-1.95-3.45c1.275-.6 2.625-.9 4.125-.9.75 0 1.5.075 2.175.225.15 1.8 1.65 3.225 3.45 3.225.525 0 1.05-.15 1.5-.375 1.425 1.5 2.4 3.525 2.55 5.7H19.2c-.375-2.775-2.775-4.875-5.7-4.875zm5.625-1.65c-1.275 0-2.325-1.05-2.325-2.325s1.05-2.325 2.325-2.325A2.337 2.337 0 0 1 21.45 2.25c0 1.35-1.05 2.325-2.325 2.325zM9.9 7.5C8.55 8.55 7.725 10.2 7.725 12s.825 3.45 2.175 4.5l-2.025 3.45c-1.725-1.2-3-3-3.675-5.1.975-.6 1.575-1.65 1.575-2.925 0-1.2-.6-2.25-1.575-2.925.675-2.025 1.95-3.825 3.675-5.025L9.9 7.5zm-7.575 6.825C1.05 14.325 0 13.275 0 12s1.05-2.325 2.325-2.325C3.6 9.675 4.65 10.725 4.65 12s-1.05 2.325-2.325 2.325zM13.5 17.85c2.925 0 5.4-2.175 5.775-5.025h3.975c-.15 2.175-1.125 4.2-2.55 5.775a3.462 3.462 0 0 0-5.025 2.925c-.675.15-1.425.3-2.175.3-1.5 0-2.85-.3-4.125-.9l1.95-3.45a6.968 6.968 0 0 0 2.175.375zm5.625 1.575c1.275 0 2.325 1.05 2.325 2.325s-1.05 2.325-2.325 2.325A2.337 2.337 0 0 1 16.8 21.75c.075-1.35 1.05-2.325 2.325-2.325z"/></svg>