<!-- Generated by IcoMoon.io -->
<svg version="1.1" xmlns="http://www.w3.org/2000/svg" width="24" height="24" viewBox="0 0 24 24">
<title>ubuntu</title>
<path d="M13.5 6.225c-0.75 0-1.5 0.15-2.175 0.45l-1.95-3.45c1.275-0.6 2.625-0.9 4.125-0.9 0.75 0 1.5 0.075 2.175 0.225 0.15 1.8 1.65 3.225 3.45 3.225 0.525 0 1.050-0.15 1.5-0.375 1.425 1.5 2.4 3.525 2.55 5.7h-3.975c-0.375-2.775-2.775-4.875-5.7-4.875zM19.125 4.575c-1.275 0-2.325-1.050-2.325-2.325s1.050-2.325 2.325-2.325c1.275 0 2.325 1.050 2.325 2.325 0 1.35-1.050 2.325-2.325 2.325zM9.9 7.5c-1.35 1.050-2.175 2.7-2.175 4.5s0.825 3.45 2.175 4.5l-2.025 3.45c-1.725-1.2-3-3-3.675-5.1 0.975-0.6 1.575-1.65 1.575-2.925 0-1.2-0.6-2.25-1.575-2.925 0.675-2.025 1.95-3.825 3.675-5.025l2.025 3.525zM2.325 14.325c-1.275 0-2.325-1.050-2.325-2.325s1.050-2.325 2.325-2.325c1.275 0 2.325 1.050 2.325 2.325s-1.050 2.325-2.325 2.325zM13.5 17.85c2.925 0 5.4-2.175 5.775-5.025h3.975c-0.15 2.175-1.125 4.2-2.55 5.775-0.45-0.225-0.975-0.375-1.575-0.375-1.875 0-3.375 1.5-3.45 3.3-0.675 0.15-1.425 0.3-2.175 0.3-1.5 0-2.85-0.3-4.125-0.9l1.95-3.45c0.675 0.225 1.425 0.375 2.175 0.375zM19.125 19.425c1.275 0 2.325 1.050 2.325 2.325s-1.050 2.325-2.325 2.325c-1.275 0-2.325-1.050-2.325-2.325 0.075-1.35 1.050-2.325 2.325-2.325z"></path>
</svg>
