<svg xmlns="http://www.w3.org/2000/svg" width="24" height="24"><path d="M.469 15.874l3.424 1.995a.172.172 0 0 0 .03.011c.03.015.06.026.094.038s.064.023.098.03c.03.008.06.008.094.011a.385.385 0 0 0 .071.008c.015 0 .026-.004.037-.004s.022.004.037 0c.019-.004.037-.011.053-.011.037-.008.071-.015.109-.026l.086-.034c.034-.015.064-.034.094-.052.026-.019.053-.038.075-.056.026-.023.049-.045.075-.071.023-.026.041-.052.064-.079.007-.015.022-.023.03-.038.008-.011.008-.023.011-.034.011-.023.026-.041.037-.064l1.361-3.371a.755.755 0 0 0-.42-.986.756.756 0 0 0-.986.42l-.697 1.729c-.465-1.56-.413-3.165-.413-3.21 0-5.141 4.181-9.323 9.323-9.323s9.322 4.181 9.322 9.323-4.181 9.322-9.322 9.322a.758.758 0 0 0 0 1.516c5.978 0 10.841-4.864 10.841-10.841S19.126 1.24 13.148 1.24 2.307 6.104 2.307 12.051c-.004.094-.06 1.669.39 3.364l-1.463-.851a.76.76 0 0 0-.765 1.313z"/></svg>