<!-- Generated by IcoMoon.io -->
<svg version="1.1" xmlns="http://www.w3.org/2000/svg" width="24" height="24" viewBox="0 0 24 24">
<title>undo1</title>
<path d="M0.469 15.874l3.424 1.995c0.008 0.004 0.019 0.008 0.030 0.011 0.030 0.015 0.060 0.026 0.094 0.038s0.064 0.023 0.098 0.030c0.030 0.008 0.060 0.008 0.094 0.011 0.022 0.004 0.045 0.008 0.071 0.008 0.015 0 0.026-0.004 0.037-0.004s0.022 0.004 0.037 0c0.019-0.004 0.037-0.011 0.053-0.011 0.037-0.008 0.071-0.015 0.109-0.026 0.030-0.011 0.056-0.023 0.086-0.034 0.034-0.015 0.064-0.034 0.094-0.052 0.026-0.019 0.053-0.038 0.075-0.056 0.026-0.023 0.049-0.045 0.075-0.071 0.023-0.026 0.041-0.052 0.064-0.079 0.007-0.015 0.022-0.023 0.030-0.038 0.008-0.011 0.008-0.023 0.011-0.034 0.011-0.023 0.026-0.041 0.037-0.064l1.361-3.371c0.158-0.39-0.030-0.829-0.42-0.986-0.386-0.158-0.829 0.030-0.986 0.42l-0.697 1.729c-0.465-1.56-0.413-3.165-0.413-3.21 0-5.141 4.181-9.323 9.323-9.323s9.322 4.181 9.322 9.323-4.181 9.322-9.322 9.322c-0.42 0-0.758 0.341-0.758 0.758 0 0.42 0.341 0.758 0.758 0.758 5.978 0 10.841-4.864 10.841-10.841s-4.871-10.837-10.849-10.837-10.841 4.864-10.841 10.811c-0.004 0.094-0.060 1.669 0.39 3.364l-1.463-0.851c-0.36-0.21-0.825-0.090-1.039 0.274s-0.086 0.829 0.274 1.039z"></path>
</svg>
