<svg xmlns="http://www.w3.org/2000/svg" width="24" height="24"><path fill="#ffc000" d="M11 13.299l-5.824 8.133c-.298.416-.8.635-1.308.572-.578-.072-1.374-.289-2.195-.879S.392 19.849.139 19.323a1.395 1.395 0 0 1 .125-1.429l-.003.004 5.824-8.133a3.082 3.082 0 0 1 1.046-.919l.016-.008 1.146-.604c.23-.121.436-.283.608-.478.556-.631 2.049-2.284 4.696-4.957l.046-.212a.134.134 0 0 1 .095-.1h.001l.146-.037a.134.134 0 0 0 .101-.131v-.011l-.015-.18-.001-.012a.13.13 0 0 1 .125-.13c.176-.005.518.046 1.001.393s.64.656.692.824a.129.129 0 0 1-.095.163h-.001l-.175.044a.134.134 0 0 0-.101.141V3.55l.012.15v.011a.131.131 0 0 1-.063.112h-.001l-.186.112c-1.679 3.369-2.764 5.316-3.183 6.046-.122.21-.212.456-.255.718l-.002.012-.205 1.281a3.07 3.07 0 0 1-.542 1.313l.006-.009zm12.739 4.598l-5.824-8.133a3.082 3.082 0 0 0-1.046-.919l-.016-.008-1.146-.605a2.146 2.146 0 0 1-.606-.476l-.002-.002a47.343 47.343 0 0 0-.621-.692l.034.038a.088.088 0 0 0-.141.017 78.454 78.454 0 0 1-1.996 3.696l.251-.473c-.082.14-.142.303-.17.477l-.001.008a3.59 3.59 0 0 0 .003 1.124l-.003-.02.01.064c.075.471.259.918.536 1.305l5.824 8.133c.296.413.79.635 1.294.574a4.754 4.754 0 0 0 2.222-.89l-.013.009a4.797 4.797 0 0 0 1.521-1.774l.012-.028a1.392 1.392 0 0 0-.124-1.429l.003.004zM8.306 3.366l.175.044a.134.134 0 0 1 .101.13v.012l-.012.15v.011c0 .047.025.089.063.111h.001l.186.112c.311.623.599 1.194.869 1.721.026.051.091.06.129.019.437-.469.964-1.025 1.585-1.668a.139.139 0 0 0 .003-.191c-.315-.322-.645-.659-1.002-1.02l-.046-.212a.131.131 0 0 0-.095-.099h-.001l-.146-.037a.134.134 0 0 1-.101-.131v-.011l.015-.18.001-.012a.13.13 0 0 0-.123-.13c-.175-.005-.518.045-1.002.393-.483.347-.64.656-.692.824a.13.13 0 0 0 .093.162h.001z"/></svg>