<!-- Generated by IcoMoon.io -->
<svg version="1.1" xmlns="http://www.w3.org/2000/svg" width="24" height="24" viewBox="0 0 24 24">
<title>upload1</title>
<path d="M23.312 11.722c-0.382 0-0.688 0.306-0.688 0.688v6.255c0 1.701-1.385 3.081-3.081 3.081h-15.087c-1.701 0-3.081-1.385-3.081-3.081v-6.357c0-0.382-0.306-0.688-0.688-0.688s-0.688 0.306-0.688 0.688v6.357c0 2.46 2.002 4.457 4.457 4.457h15.087c2.46 0 4.457-2.002 4.457-4.457v-6.255c0-0.377-0.306-0.688-0.688-0.688zM8.114 6.425l3.199-3.199v13.951c0 0.382 0.306 0.688 0.688 0.688s0.688-0.306 0.688-0.688v-13.951l3.199 3.199c0.132 0.132 0.311 0.204 0.484 0.204 0.178 0 0.351-0.066 0.484-0.204 0.27-0.27 0.27-0.703 0-0.973l-4.37-4.37c-0.127-0.127-0.306-0.204-0.484-0.204-0.183 0-0.357 0.071-0.484 0.204l-4.37 4.37c-0.27 0.27-0.27 0.703 0 0.973 0.265 0.265 0.703 0.265 0.968 0z"></path>
</svg>
