<svg xmlns="http://www.w3.org/2000/svg" width="24" height="24"><path d="M23.312 11.722a.685.685 0 0 0-.688.688v6.255a3.085 3.085 0 0 1-3.081 3.081H4.456a3.085 3.085 0 0 1-3.081-3.081v-6.357c0-.382-.306-.688-.688-.688s-.688.306-.688.688v6.357a4.462 4.462 0 0 0 4.457 4.457h15.087A4.462 4.462 0 0 0 24 18.665V12.41a.689.689 0 0 0-.688-.688zM8.114 6.425l3.199-3.199v13.951c0 .382.306.688.688.688s.688-.306.688-.688V3.226l3.199 3.199a.694.694 0 0 0 .484.204.663.663 0 0 0 .484-.204.686.686 0 0 0 0-.973l-4.37-4.37a.698.698 0 0 0-.484-.204.664.664 0 0 0-.484.204l-4.37 4.37a.686.686 0 1 0 .968.973z"/></svg>