<svg xmlns="http://www.w3.org/2000/svg" width="24" height="24"><path d="M19.519 6.702a6.93 6.93 0 0 0-2.167-3.973A6.93 6.93 0 0 0 12.664.908c-1.342 0-2.65.385-3.771 1.11a6.905 6.905 0 0 0-2.255 2.374 3.81 3.81 0 0 0-4.535 3.736c0 .271.03.533.079.79a5.295 5.295 0 0 0-2.181 4.269 5.66 5.66 0 0 0 1.436 3.746c.952 1.076 2.211 1.713 3.553 1.787h4.284c.37 0 .666-.296.666-.666s-.296-.666-.666-.666H5.049c-2.019-.123-3.716-2.043-3.716-4.205 0-1.397.75-2.7 1.959-3.405a.671.671 0 0 0 .291-.809 2.477 2.477 0 0 1 3.169-3.174.67.67 0 0 0 .834-.341 5.64 5.64 0 0 1 5.083-3.223 5.59 5.59 0 0 1 5.592 5.073c.03.301.257.543.553.592 2.196.375 3.854 2.403 3.854 4.718 0 2.453-1.93 4.585-4.308 4.767h-3.637c-.37 0-.666.296-.666.666s.296.666.666.666h3.711c1.505-.109 2.912-.799 3.958-1.954a6.149 6.149 0 0 0 1.609-4.146c-.005-2.769-1.895-5.231-4.481-5.912zM16 13.819a.664.664 0 0 0 0-.943l-3.529-3.529a.655.655 0 0 0-.938 0l-3.529 3.529a.664.664 0 0 0 0 .943c.128.128.301.197.469.197s.341-.064.469-.197l2.394-2.394v11.001c0 .37.296.666.666.666s.666-.296.666-.666V11.425l2.394 2.394a.658.658 0 0 0 .938 0z"/></svg>