<!-- Generated by IcoMoon.io -->
<svg version="1.1" xmlns="http://www.w3.org/2000/svg" width="24" height="24" viewBox="0 0 24 24">
<title>users1</title>
<path d="M20.014 8.348c0.9-0.54 1.508-1.515 1.508-2.644 0-1.702-1.373-3.086-3.060-3.086s-3.060 1.384-3.060 3.086c0 1.14 0.626 2.13 1.545 2.663-0.296 0.101-0.581 0.225-0.851 0.383-0.409-1.909-2.092-3.345-4.106-3.345-1.991 0-3.656 1.402-4.088 3.277-0.251-0.135-0.514-0.248-0.788-0.337 0.9-0.536 1.511-1.515 1.511-2.644 0-1.702-1.373-3.086-3.060-3.086s-3.060 1.384-3.060 3.086c0 1.147 0.63 2.134 1.553 2.666-2.677 0.911-3.814 4.046-4.042 5.835-0.026 0.217 0.038 0.431 0.18 0.596s0.349 0.259 0.563 0.259h6.66c-2.723 1.999-3.338 5.385-3.345 5.434-0.038 0.221 0.022 0.446 0.165 0.615s0.352 0.27 0.574 0.27h14.355c0.416 0 0.75-0.338 0.75-0.758 0-0.101-0.019-0.195-0.056-0.281-0.142-0.727-0.836-3.529-3.169-5.276h6.559c0.214 0 0.416-0.090 0.559-0.251s0.21-0.371 0.188-0.585c-0.184-1.815-1.271-4.999-3.982-5.876zM18.461 4.133c0.859 0 1.56 0.705 1.56 1.571s-0.701 1.567-1.56 1.567-1.556-0.705-1.556-1.567c-0.004-0.866 0.698-1.571 1.556-1.571zM11.985 6.919c1.489 0 2.7 1.223 2.7 2.723s-1.211 2.723-2.7 2.723-2.7-1.223-2.7-2.723 1.211-2.722 2.7-2.722zM5.561 4.133c0.859 0 1.56 0.705 1.56 1.571s-0.697 1.567-1.56 1.567c-0.859 0-1.556-0.705-1.556-1.567-0.004-0.866 0.694-1.571 1.556-1.571zM5.617 9.626c0.84 0 1.545 0.255 2.149 0.784 0.030 0.026 0.064 0.034 0.098 0.056 0.274 1.384 1.219 2.531 2.475 3.071h-8.651c0.368-1.369 1.391-3.911 3.93-3.911zM18.21 19.852h-12.424c0.517-1.582 2.070-4.725 6.289-4.725 4.196 0 5.662 3.154 6.135 4.725zM13.234 13.688c0.004 0 0.011-0.004 0.015-0.004-0.004 0.004-0.008 0.004-0.008 0.008-0.004-0.004-0.004-0.004-0.008-0.004zM13.661 13.538c-0.023 0-0.041 0.011-0.067 0.015 1.26-0.529 2.209-1.654 2.497-3.026 0.101-0.026 0.203-0.071 0.289-0.146 0.611-0.51 1.313-0.757 2.138-0.757 2.561 0 3.514 2.546 3.84 3.911 0 0.004-8.696 0.004-8.696 0.004z"></path>
</svg>
