<svg xmlns="http://www.w3.org/2000/svg" width="24" height="24"><path d="M23.936 22.95c-.289-1.275-2.46-9.203-11.944-9.203-10.264 0-11.966 9.281-11.981 9.375a.748.748 0 0 0 .739.877h22.496c.413 0 .75-.337.75-.754a.654.654 0 0 0-.06-.296zm-22.218-.454c.653-2.111 2.992-7.245 10.275-7.245s9.623 5.134 10.275 7.245zm10.274-10.159c3.398 0 6.165-2.767 6.165-6.169-.004-3.401-2.767-6.169-6.165-6.169S5.831 2.767 5.831 6.168s2.764 6.169 6.161 6.169zm0-10.833c2.569 0 4.661 2.093 4.661 4.665s-2.089 4.665-4.661 4.665a4.666 4.666 0 0 1 0-9.33z"/></svg>