<svg xmlns="http://www.w3.org/2000/svg" width="24" height="24"><path d="M20.014 8.348a3.077 3.077 0 0 0 1.508-2.644c0-1.702-1.373-3.086-3.06-3.086s-3.06 1.384-3.06 3.086c0 1.14.626 2.13 1.545 2.663a4.645 4.645 0 0 0-.851.383c-.409-1.909-2.092-3.345-4.106-3.345-1.991 0-3.656 1.402-4.088 3.277a4.779 4.779 0 0 0-.788-.337 3.075 3.075 0 0 0 1.511-2.644c0-1.702-1.373-3.086-3.06-3.086s-3.06 1.384-3.06 3.086c0 1.147.63 2.134 1.553 2.666-2.677.911-3.814 4.046-4.042 5.835-.026.217.038.431.18.596s.349.259.563.259h6.66c-2.723 1.999-3.338 5.385-3.345 5.434a.753.753 0 0 0 .739.885h14.355a.752.752 0 0 0 .694-1.039c-.142-.727-.836-3.529-3.169-5.276h6.559c.214 0 .416-.09.559-.251s.21-.371.188-.585c-.184-1.815-1.271-4.999-3.982-5.876zm-1.553-4.215c.859 0 1.56.705 1.56 1.571s-.701 1.567-1.56 1.567-1.556-.705-1.556-1.567a1.563 1.563 0 0 1 1.556-1.571zm-6.476 2.786c1.489 0 2.7 1.223 2.7 2.723s-1.211 2.723-2.7 2.723-2.7-1.223-2.7-2.723 1.211-2.722 2.7-2.722zM5.561 4.133c.859 0 1.56.705 1.56 1.571s-.697 1.567-1.56 1.567a1.564 1.564 0 0 1-1.556-1.567 1.56 1.56 0 0 1 1.556-1.571zm.056 5.493c.84 0 1.545.255 2.149.784.03.026.064.034.098.056a4.25 4.25 0 0 0 2.475 3.071H1.688c.368-1.369 1.391-3.911 3.93-3.911zM18.21 19.852H5.786c.517-1.582 2.07-4.725 6.289-4.725 4.196 0 5.662 3.154 6.135 4.725zm-4.976-6.164c.004 0 .011-.004.015-.004-.004.004-.008.004-.008.008-.004-.004-.004-.004-.008-.004zm.427-.15c-.023 0-.041.011-.067.015a4.23 4.23 0 0 0 2.497-3.026.701.701 0 0 0 .289-.146c.611-.51 1.313-.757 2.138-.757 2.561 0 3.514 2.546 3.84 3.911 0 .004-8.696.004-8.696.004z"/></svg>