<svg xmlns="http://www.w3.org/2000/svg" width="24" height="24"><path d="M16 17.388v-1.1c1.469-.828 2.667-2.891 2.667-4.955 0-3.314 0-6-4-6s-4 2.686-4 6c0 2.064 1.198 4.127 2.667 4.955v1.1c-4.523.37-8 2.592-8 5.279h18.667c0-2.687-3.477-4.909-8-5.279zm-9.183.515c1.152-.753 2.585-1.326 4.162-1.675a7.505 7.505 0 0 1-.844-1.23c-.634-1.151-.969-2.418-.969-3.664 0-1.793 0-3.486.637-4.87.619-1.344 1.732-2.177 3.317-2.489-.352-1.593-1.29-2.641-3.788-2.641-4 0-4 2.686-4 6 0 2.064 1.198 4.127 2.667 4.955v1.1c-4.523.37-8 2.592-8 5.279h5.813a8.506 8.506 0 0 1 1.004-.764z"/></svg>