<!-- Generated by IcoMoon.io -->
<svg version="1.1" xmlns="http://www.w3.org/2000/svg" width="24" height="24" viewBox="0 0 24 24">
<title>user1</title>
<path d="M23.936 22.95c-0.289-1.275-2.46-9.203-11.944-9.203-10.264 0-11.966 9.281-11.981 9.375-0.038 0.217 0.022 0.442 0.165 0.611s0.352 0.266 0.574 0.266h22.496c0.413 0 0.75-0.337 0.75-0.754 0.004-0.105-0.019-0.206-0.060-0.296zM1.718 22.496c0.653-2.111 2.992-7.245 10.275-7.245s9.623 5.134 10.275 7.245zM11.992 12.337c3.398 0 6.165-2.767 6.165-6.169-0.004-3.401-2.767-6.169-6.165-6.169s-6.161 2.768-6.161 6.169 2.764 6.169 6.161 6.169zM11.992 1.504c2.569 0 4.661 2.093 4.661 4.665s-2.089 4.665-4.661 4.665c-2.569 0-4.658-2.092-4.658-4.665-0.004-2.572 2.089-4.665 4.658-4.665z"></path>
</svg>
