<!-- Generated by IcoMoon.io -->
<svg version="1.1" xmlns="http://www.w3.org/2000/svg" width="24" height="24" viewBox="0 0 24 24">
<title>users11</title>
<path d="M16 17.388v-1.1c1.469-0.828 2.667-2.891 2.667-4.955 0-3.314 0-6-4-6s-4 2.686-4 6c0 2.064 1.198 4.127 2.667 4.955v1.1c-4.523 0.37-8 2.592-8 5.279h18.667c0-2.687-3.477-4.909-8-5.279zM6.817 17.903c1.152-0.753 2.585-1.326 4.162-1.675-0.314-0.37-0.598-0.784-0.844-1.23-0.634-1.151-0.969-2.418-0.969-3.664 0-1.793 0-3.486 0.637-4.87 0.619-1.344 1.732-2.177 3.317-2.489-0.352-1.593-1.29-2.641-3.788-2.641-4 0-4 2.686-4 6 0 2.064 1.198 4.127 2.667 4.955v1.1c-4.523 0.37-8 2.592-8 5.279h5.813c0.302-0.269 0.637-0.524 1.004-0.764z"></path>
</svg>
