<svg xmlns="http://www.w3.org/2000/svg" width="24" height="24"><path fill="#4b8bf5" d="M6.832 6c0-.161.008-.322.023-.479.019-.207.07-.401.112-.599l-.694-1.377H0l2.182 3.818h1.527l2.097 3.98A6.56 6.56 0 0 1 7.53 8.601l.003-.003a5.062 5.062 0 0 1-.701-2.587v-.012V6zm3.533 13.663L12 22.637l1.637-2.975c-.535.138-1.079.234-1.637.234s-1.101-.096-1.635-.233zm7.363-16.118l-.717 1.258c.056.238.112.476.134.726a5.135 5.135 0 0 1-.69 3.094l.013-.024a6.572 6.572 0 0 1 1.714 2.7l.013.046 2.097-3.981h1.527L24 3.545zm.118 8.462a6.017 6.017 0 0 0-2.062-3.301l-.011-.009A4.64 4.64 0 0 0 12 1.363h-.002a4.635 4.635 0 0 0-4.635 4.635v.007c0 1.01.324 1.945.874 2.705l-.009-.014A5.983 5.983 0 0 0 6 13.356v.006a6.013 6.013 0 0 0 3.774 5.578l.04.014c.647.259 1.398.41 2.184.41.789 0 1.542-.152 2.232-.427l-.041.014c2.251-.901 3.812-3.064 3.812-5.591 0-.48-.056-.947-.163-1.395l.008.041zM12 4.227a2.046 2.046 0 1 1-2.046 2.045c0-1.128.918-2.045 2.046-2.045zm0 11.456a2.32 2.32 0 1 1-.005-4.637h.004c1.282 0 2.318 1.037 2.318 2.318s-1.036 2.319-2.318 2.319z"/></svg>