<svg xmlns="http://www.w3.org/2000/svg" width="24" height="24"><path d="M3 0h18a3 3 0 0 1 3 3v18a3 3 0 0 1-3 3H3a3 3 0 0 1-3-3V3a3 3 0 0 1 3-3zm16.777 16.193c-.572-.46-1.183-.873-1.784-1.296-1.2-.842-2.297-.908-3.192.447-.503.761-1.206.794-1.942.46-2.028-.92-3.595-2.337-4.512-4.398-.406-.912-.4-1.73.549-2.375.503-.341 1.009-.745.969-1.49-.053-.972-2.413-4.22-3.345-4.563a1.694 1.694 0 0 0-1.162-.001c-2.185.735-3.09 2.532-2.224 4.66 2.586 6.349 7.137 10.769 13.402 13.466.357.154.754.215.955.27 1.426.014 3.097-1.36 3.58-2.724.465-1.312-.517-1.833-1.294-2.458zM12.753 3.63c4.58.704 6.692 2.882 7.275 7.495.054.426-.105 1.067.503 1.079.635.012.482-.62.488-1.046.054-4.345-3.734-8.372-8.134-8.521-.332.048-1.019-.229-1.062.515-.029.502.55.419.929.478zm.896 1.265c-.441-.053-1.022-.261-1.125.351-.107.642.541.576.957.67 2.829.632 3.814 1.662 4.279 4.468.068.409-.067 1.046.628.94.515-.078.329-.624.372-.943.023-2.694-2.286-5.146-5.112-5.485zm.259 2.203c-.294.007-.583.039-.691.353-.162.47.179.582.527.638 1.16.186 1.771.871 1.887 2.028.031.314.231.569.534.533.42-.05.458-.424.446-.78.021-1.3-1.449-2.803-2.703-2.772z"/></svg>