<!-- Generated by IcoMoon.io -->
<svg version="1.1" xmlns="http://www.w3.org/2000/svg" width="24" height="24" viewBox="0 0 24 24">
<title>viber-icon</title>
<path d="M3 0h18c1.657 0 3 1.343 3 3v18c0 1.657-1.343 3-3 3h-18c-1.657 0-3-1.343-3-3v-18c0-1.657 1.343-3 3-3zM19.777 16.193c-0.572-0.46-1.183-0.873-1.784-1.296-1.2-0.842-2.297-0.908-3.192 0.447-0.503 0.761-1.206 0.794-1.942 0.46-2.028-0.92-3.595-2.337-4.512-4.398-0.406-0.912-0.4-1.73 0.549-2.375 0.503-0.341 1.009-0.745 0.969-1.49-0.053-0.972-2.413-4.22-3.345-4.563-0.386-0.142-0.77-0.133-1.162-0.001-2.185 0.735-3.090 2.532-2.224 4.66 2.586 6.349 7.137 10.769 13.402 13.466 0.357 0.154 0.754 0.215 0.955 0.27 1.426 0.014 3.097-1.36 3.58-2.724 0.465-1.312-0.517-1.833-1.294-2.458zM12.753 3.63c4.58 0.704 6.692 2.882 7.275 7.495 0.054 0.426-0.105 1.067 0.503 1.079 0.635 0.012 0.482-0.62 0.488-1.046 0.054-4.345-3.734-8.372-8.134-8.521-0.332 0.048-1.019-0.229-1.062 0.515-0.029 0.502 0.55 0.419 0.929 0.478zM13.649 4.895c-0.441-0.053-1.022-0.261-1.125 0.351-0.107 0.642 0.541 0.576 0.957 0.67 2.829 0.632 3.814 1.662 4.279 4.468 0.068 0.409-0.067 1.046 0.628 0.94 0.515-0.078 0.329-0.624 0.372-0.943 0.023-2.694-2.286-5.146-5.112-5.485zM13.908 7.098c-0.294 0.007-0.583 0.039-0.691 0.353-0.162 0.47 0.179 0.582 0.527 0.638 1.16 0.186 1.771 0.871 1.887 2.028 0.031 0.314 0.231 0.569 0.534 0.533 0.42-0.050 0.458-0.424 0.446-0.78 0.021-1.3-1.449-2.803-2.703-2.772z"></path>
</svg>
