<svg xmlns="http://www.w3.org/2000/svg" width="24" height="24"><path d="M22.5 4.5h-.668c-.39 0-.773.157-1.05.435L18.75 6.937v-.938a2.247 2.247 0 0 0-2.25-2.25H2.25A2.252 2.252 0 0 0 0 5.999v12a2.247 2.247 0 0 0 2.25 2.25H16.5a2.247 2.247 0 0 0 2.25-2.25v-.915l2.032 2.003c.285.277.66.435 1.05.435h.668c.825 0 1.5-.675 1.5-1.5V5.999a1.5 1.5 0 0 0-1.5-1.5zM2.25 18.75A.752.752 0 0 1 1.5 18V6c0-.412.338-.75.75-.75H16.5c.413 0 .75.338.75.75v12c0 .413-.337.75-.75.75zm20.25-.727h-.75l-3-3V15l-.75-.75v-4.5L21.75 6h.75z"/></svg>