<svg height="24" viewBox="0 0 24 24" width="24" xmlns="http://www.w3.org/2000/svg"><path d="m17.016 21.984v-1.969h3v-3h1.969v3.469q0 .609-.445 1.055t-1.055.445zm-10.032 0h-3.469q-.609 0-1.055-.445t-.445-1.055v-3.469h1.969v3h3zm10.032-19.968h3.469q.609 0 1.055.445t.445 1.055v3.469h-1.969v-3h-3zm-10.032 0v1.969h-3v3h-1.969v-3.469q0-.609.445-1.055t1.055-.445zm6 15.234 4.031-2.297v-4.594l-4.031 2.297zm-.984-6.328 3.984-2.297-3.984-2.344-3.984 2.344zm-5.016 4.031 4.031 2.297v-4.594l-4.031-2.297zm11.25-7.359q.75.469.75 1.313v6.328q0 .844-.75 1.313l-5.484 3.188q-.75.469-1.5 0l-5.484-3.188q-.75-.469-.75-1.313v-6.328q0-.844.75-1.313l5.484-3.188q.375-.188.75-.188t.75.188z"/></svg>