<!-- Generated by IcoMoon.io -->
<svg version="1.1" xmlns="http://www.w3.org/2000/svg" width="24" height="24" viewBox="0 0 24 24">
<title>visa</title>
<path d="M22.2 15.525l-0.225-0.975h-2.475l-0.375 0.975h-1.95l3.225-7.125h2.025l1.575 7.125h-1.8zM21.15 10.5l-1.050 2.7h1.65l-0.6-2.7zM15.675 9.75c-1.2 0.075-1.2 0.45-1.2 0.75-0.075 0.3 0.45 0.525 0.675 0.6 0.15 0.075 1.050 0.6 1.050 0.6s1.050 0.6 0.975 1.575c-0.075 1.575-1.95 2.55-3.375 2.55s-2.1-0.45-2.1-0.45l0.3-1.5c0.975 0.525 2.1 0.45 2.55 0.375s1.125-0.675 0.225-1.275c-0.9-0.525-0.15 0-1.275-0.675-1.125-0.6-0.975-1.725-0.975-1.725s0-1.050 0.75-1.575c1.725-1.35 4.275-0.375 4.275-0.375l-0.3 1.575c-0.075 0-0.825-0.525-1.575-0.45zM8.55 15.525l1.2-7.125h2.025l-1.275 7.125h-1.95zM3.75 15.525l-1.575-5.775c1.95 1.050 2.7 3.075 2.7 3.075l0.15 0.675 1.8-5.1h2.1l-3 7.125h-2.175zM0 8.4h3c1.050 0 1.2 0.9 1.2 0.9l0.6 3c-0.975-2.775-4.8-3.9-4.8-3.9z"></path>
</svg>
