<svg xmlns="http://www.w3.org/2000/svg" width="24" height="24"><path fill="#5c2d91" d="M17.58.07h-.021c-.39 0-.746.149-1.012.393l.001-.001h-.001l-.05.045-7.967 8.81-4.65-3.813-.407-.35a.992.992 0 0 0-1.03-.152L2.45 5l-.018.007.006-.003-1.816.75a.832.832 0 0 0-.083.038l.006-.003c-.021.011-.036.021-.051.03l.004-.002-.042.024.004-.002a.598.598 0 0 0-.05.036l.002-.002-.033.025.002-.001-.044.037.001-.001a.588.588 0 0 0-.036.033L.271 6l-.001.001-.032.036-.001.002-.033.041-.002.003a.699.699 0 0 0-.022.031l-.002.003a.764.764 0 0 0-.029.046l-.003.005-.017.029-.003.005a.468.468 0 0 0-.021.044l-.003.006-.018.038-.002.007-.014.037-.002.007a.431.431 0 0 0-.014.04l-.002.007-.014.048-.001.007-.009.033-.001.007a.955.955 0 0 0-.007.049v.005a1.102 1.102 0 0 0-.006.046v.004a1.027 1.027 0 0 0-.004.083v10.659c.003.411.253.763.608.915l.007.002 1.816.763a.996.996 0 0 0 1.035-.164l-.001.001.408-.35 4.65-3.813 7.968 8.81c.022.022.046.043.07.063l.002.002.055.048.002.002.053.039.005.003.058.041.005.003.057.034.008.004a.65.65 0 0 0 .057.032l.008.004.058.027.01.004a.81.81 0 0 0 .06.026l.01.004a.976.976 0 0 0 .062.022l.011.003a.809.809 0 0 0 .055.017l.011.003a.971.971 0 0 0 .07.018l.01.002.059.013.009.001a.716.716 0 0 0 .068.009l.007.001.07.007h.005c.021.001.046.003.072.003h.04l.04-.001h-.002l.084-.005h-.006c.029-.002.052-.005.075-.008l-.008.001c.038-.005.067-.01.097-.016l-.01.002a.857.857 0 0 0 .07-.014l-.01.002c.037-.009.064-.017.091-.025l-.011.003.079-.023-.011.003a1.1 1.1 0 0 0 .08-.032l-.01.004c.04-.015.069-.027.098-.041l-.009.004 4.942-2.376a1.52 1.52 0 0 0 .474-.36l.001-.002c.03-.033.059-.07.087-.108l.003-.004c-.003.005-.001.003 0 0l.004-.007c.025-.035.052-.076.076-.118l.004-.007c.018-.031.039-.07.058-.111l.004-.009a.053.053 0 0 0 .005-.009l.004-.008c.011-.025.025-.06.038-.096l.003-.011a.578.578 0 0 0 .011-.027l.003-.01c.009-.025.019-.06.028-.097l.002-.01a.286.286 0 0 0 .007-.027l.002-.01.016-.092.001-.008a.399.399 0 0 0 .007-.042l.001-.008c.003-.025.005-.057.006-.088v-.003l.004-.077V3.944v-.001-.001-.016-.017.001a1.59 1.59 0 0 0-.011-.157l.001.007a1.504 1.504 0 0 0-.831-1.166l-.009-.004-4.94-2.375a1.483 1.483 0 0 0-.622-.147h-.001zm.417 6.852v10.157l-6.195-5.078zM3.005 8.576l3.097 3.425-3.097 3.424z"/></svg>