<!-- Generated by IcoMoon.io -->
<svg version="1.1" xmlns="http://www.w3.org/2000/svg" width="24" height="24" viewBox="0 0 24 24">
<title>vk1</title>
<path d="M11.701 18.771h1.437s0.433-0.047 0.654-0.284c0.21-0.221 0.21-0.63 0.21-0.63s-0.031-1.927 0.869-2.21c0.887-0.281 2.012 1.86 3.211 2.683 0.916 0.629 1.605 0.494 1.605 0.494l3.211-0.044s1.682-0.105 0.887-1.426c-0.061-0.105-0.451-0.975-2.371-2.76-2.012-1.861-1.742-1.561 0.676-4.787 1.469-1.965 2.070-3.166 1.875-3.676-0.166-0.48-1.26-0.361-1.26-0.361l-3.602 0.031s-0.27-0.031-0.465 0.090c-0.195 0.119-0.314 0.391-0.314 0.391s-0.572 1.529-1.336 2.82c-1.623 2.729-2.268 2.879-2.523 2.699-0.604-0.391-0.449-1.58-0.449-2.432 0-2.641 0.404-3.75-0.781-4.035-0.39-0.091-0.681-0.15-1.685-0.166-1.29-0.014-2.378 0.010-2.995 0.311-0.405 0.203-0.72 0.652-0.539 0.675 0.24 0.030 0.779 0.146 1.064 0.537 0.375 0.506 0.359 1.636 0.359 1.636s0.211 3.116-0.494 3.503c-0.495 0.262-1.155-0.28-2.595-2.756-0.735-1.26-1.291-2.67-1.291-2.67s-0.105-0.256-0.299-0.406c-0.227-0.165-0.557-0.225-0.557-0.225l-3.435 0.030s-0.51 0.016-0.689 0.24c-0.166 0.195-0.016 0.615-0.016 0.615s2.686 6.287 5.732 9.453c2.79 2.902 5.956 2.715 5.956 2.715l-0.050-0.055z"></path>
</svg>
