<svg xmlns="http://www.w3.org/2000/svg" width="24" height="24"><path fill="#f80" d="M11.891 13.463c3.757 0 4.854-1.347 5.065-1.674l-1.36-4.334c-.36.34-1.327.937-3.68.937-2.292 0-3.188-.567-3.52-.91l-1.39 4.422c.228.361 1.255 1.56 4.885 1.559zm.026-9.656a6.142 6.142 0 0 0 2.415-.522l-.039.015-.858-2.734a.786.786 0 0 0-.401-.435l-.005-.002S12.914 0 12.032 0s-1.055.136-1.055.136a.736.736 0 0 0-.408.425l-.002.005-.884 2.815c.662.255 1.428.41 2.227.426h.007zM22.59 23.319a.403.403 0 0 0-.017-.163l.001.003-2.334-7.632a.65.65 0 0 0-.582-.431h-1.664l.2.64c-.24.485-1.488 2.38-6.303 2.38-4.6 0-5.828-1.73-6.11-2.308l.223-.712H4.343a.65.65 0 0 0-.582.426l-.001.005-2.334 7.633a.38.38 0 0 0-.017.151v-.001l-.002.02c.004.083.012.161.026.237l-.002-.011c.041.25.252.439.509.445h20.12a.529.529 0 0 0 .51-.442v-.003a1.84 1.84 0 0 0 .02-.235v-.002z"/></svg>