<svg xmlns="http://www.w3.org/2000/svg" width="24" height="24"><path d="M3.056 7.77a.784.784 0 1 0 0-1.568C1.372 6.202.003 7.38.003 8.831v6.671c0 1.451 1.369 2.629 3.053 2.629a.783.783 0 1 0 0-1.568c-.803 0-1.485-.488-1.485-1.061V8.831c0-.574.679-1.061 1.485-1.061zm9.477 15.386a.817.817 0 0 0 .383-.098.786.786 0 0 0 .401-.683V1.626a.784.784 0 0 0-1.204-.66L4.489 5.841a.783.783 0 0 0-.36.66v11.168c0 .27.143.525.371.668l7.624 4.699c.124.079.266.12.409.12zm-.784-2.186l-6.06-3.735V6.934l6.06-3.877zm9.266-18.998a.785.785 0 0 0-.352 1.05c.041.079 3.911 8.055-.019 17.351a.784.784 0 0 0 .72 1.091.78.78 0 0 0 .72-.48c4.223-9.99.154-18.315-.019-18.664a.782.782 0 0 0-1.05-.349zm-2.479 16.981a.78.78 0 0 0 1.005-.465c2.554-6.96.09-12.769-.019-13.016a.783.783 0 0 0-1.436.623c.023.056 2.314 5.505-.015 11.854a.787.787 0 0 0 .465 1.005zm-2.329-3.469a.78.78 0 0 0 .926-.604c.652-3.09.019-5.681-.008-5.79a.782.782 0 1 0-1.519.379c.008.022.57 2.362-.004 5.085-.09.428.18.84.604.93z"/></svg>