<svg xmlns="http://www.w3.org/2000/svg" width="24" height="24"><path d="M6.337 7.939a.784.784 0 1 0 0-1.568C4.653 6.371 3.284 7.549 3.284 9v6.671c0 1.451 1.369 2.629 3.053 2.629a.783.783 0 1 0 0-1.568c-.806 0-1.485-.487-1.485-1.061V9c0-.574.683-1.061 1.485-1.061zm9.477 15.386a.817.817 0 0 0 .383-.098.786.786 0 0 0 .401-.683V1.795a.784.784 0 0 0-1.204-.66L7.77 6.01a.782.782 0 0 0-.36.66v11.168c0 .27.143.525.371.667l7.624 4.699c.124.079.266.12.409.12zm-.784-2.186l-6.06-3.735V7.103l6.06-3.877zm4.459-5.487a.78.78 0 0 0 .926-.604c.652-3.09.019-5.681-.008-5.79a.782.782 0 1 0-1.519.379c.008.022.57 2.363-.004 5.085-.09.428.18.84.604.93z"/></svg>