<!-- Generated by IcoMoon.io -->
<svg version="1.1" xmlns="http://www.w3.org/2000/svg" width="24" height="24" viewBox="0 0 24 24">
<title>volume-up</title>
<path d="M3.056 7.77c0.431 0 0.784-0.349 0.784-0.784 0-0.431-0.349-0.784-0.784-0.784-1.684 0-3.053 1.178-3.053 2.629v6.671c0 1.451 1.369 2.629 3.053 2.629 0.431 0 0.784-0.352 0.784-0.784s-0.349-0.784-0.784-0.784c-0.803 0-1.485-0.488-1.485-1.061v-6.671c0-0.574 0.679-1.061 1.485-1.061zM12.533 23.156c0.131 0 0.263-0.034 0.383-0.098 0.247-0.139 0.401-0.401 0.401-0.683v-20.749c0-0.285-0.158-0.551-0.405-0.686-0.251-0.139-0.555-0.127-0.799 0.026l-7.624 4.875c-0.225 0.143-0.36 0.394-0.36 0.66v11.168c0 0.27 0.143 0.525 0.371 0.668l7.624 4.699c0.124 0.079 0.266 0.12 0.409 0.12zM11.749 20.97l-6.060-3.735v-10.301l6.060-3.877zM21.015 1.972c-0.386 0.191-0.544 0.664-0.352 1.050 0.041 0.079 3.911 8.055-0.019 17.351-0.169 0.398 0.019 0.859 0.416 1.027 0.097 0.041 0.203 0.064 0.304 0.064 0.304 0 0.596-0.18 0.72-0.48 4.223-9.99 0.154-18.315-0.019-18.664-0.195-0.386-0.664-0.544-1.050-0.349zM18.536 18.953c0.090 0.034 0.18 0.049 0.27 0.049 0.319 0 0.619-0.195 0.735-0.514 2.554-6.96 0.090-12.769-0.019-13.016-0.172-0.397-0.634-0.574-1.027-0.405-0.398 0.173-0.578 0.634-0.409 1.028 0.023 0.056 2.314 5.505-0.015 11.854-0.146 0.405 0.060 0.855 0.465 1.005zM16.207 15.484c0.056 0.011 0.109 0.015 0.161 0.015 0.364 0 0.686-0.251 0.765-0.619 0.652-3.090 0.019-5.681-0.008-5.79-0.105-0.42-0.529-0.671-0.949-0.57-0.42 0.105-0.675 0.529-0.57 0.949 0.008 0.022 0.57 2.362-0.004 5.085-0.090 0.428 0.18 0.84 0.604 0.93z"></path>
</svg>
