<!-- Generated by IcoMoon.io -->
<svg version="1.1" xmlns="http://www.w3.org/2000/svg" width="24" height="24" viewBox="0 0 24 24">
<title>wallet</title>
<path d="M2.182 11.844h0.935l-1.558-3.429s2.805-1.87 7.481-3.117 7.792-3.117 7.792-3.117l2.494 6.234 0.623-0.312-2.182-6.545s0-0.312-0.623 0-4.364 2.182-7.481 2.805c-3.117 0.935-6.857 2.182-8.727 3.429-0.312 0.312 0 0.623 0 0.623l1.247 3.429zM17.766 8.727h0.312l0.623-0.623c0.312 0 0-0.312 0-0.312l-1.247-3.117s0-0.312-0.312 0c-0.312 0-0.935 0-1.247-0.623 0-0.312-0.312 0-0.312 0l-4.675 1.558s-0.312 0-0.312 0.312l0.312 0.312s2.494 0.312 2.494 3.117h0.312s0-2.494-2.182-3.429c0 0 2.182-0.935 4.052-1.558 0 0 0.623 0.935 1.558 0.623l1.247 3.117c0-0.312-0.623 0-0.623 0.623zM11.221 9.351h1.87s0-0.935-1.558-0.935-1.247 0-1.247-0.312 0.623-0.623 0.935-0.623 0.312 0.312 0.312 0.312h0.312c0.312 0 0.623-0.312 0.623-0.312s0.312 0 0-0.312c-0.623 0-1.247-0.623-1.87-0.312l-0.312-0.312h-0.623v0.312s-1.247 0.623-0.623 1.87c0.312 0.935 2.182 0.623 2.182 0.623zM15.273 7.169c0 0.312 0.312 0.623 0.623 0.623s0.623-0.312 0.623-0.623c0-0.312-0.312-0.623-0.623-0.623s-0.623 0.312-0.623 0.623zM8.727 6.234c-3.117 0.623-4.987 1.558-4.987 1.558s-0.312 0 0 0.312c0.312 1.247-0.623 1.558-0.935 1.87l0.623 1.87v-0.312l-0.312-1.558c1.247-0.623 0.623-1.87 0.623-1.87 2.182-0.935 4.364-1.558 4.364-1.558-0.935 1.558-0.312 3.117-0.312 3.117h0.312c-0.623-1.558 0-2.805 0.312-3.117 0.623-0.312 0.312-0.312 0.312-0.312zM5.299 10.597l0.935-0.312s-0.623-0.623-0.935 0.312zM13.091 11.532c0-0.312-0.312 0 0 0-1.87 0-4.364 0.312-4.364 0.312h3.74v0.312l0.623-0.623zM24 17.143s-1.247-7.792-1.247-8.416c-0.312-0.312-0.935 0-0.935 0s-3.429 1.247-8.104 1.247c-4.675 0-8.104 1.247-8.727 1.247s-0.312 0.623-0.312 0.623h1.247c0.935-0.312 4.052-0.935 7.169-1.247 4.364 0 8.727-0.935 8.727-0.935 0.312 1.558 1.247 7.792 1.247 7.792-2.182 0.312-4.675 0.623-4.675 0.623v0.623c2.182 0 4.987-0.935 4.987-0.935s0.312 0 0.623-0.312v-0.312zM19.948 14.026c0-0.312-0.312-0.623-0.623-0.623s-0.623 0.312-0.623 0.623c0 0.312 0.312 0.623 0.623 0.623 0.312-0.312 0.623-0.312 0.623-0.623zM18.39 17.455s2.494-0.312 2.494-0.623c0 0 0.312 0 0-0.312 0-0.312 0-0.935 0.935-1.247 0.312 0 0.312-0.312 0.312-0.312l-0.623-3.117v-0.312s-1.247 0.312-1.558-0.935h-0.312c-0.312 0-3.429 0.623-4.675 0.623h-0.312l0.623 0.623h0.312v-0.312s2.494-0.312 4.364-0.623c0 0 0.312 0.935 1.558 0.935l0.312 3.429s-1.247 0.312-0.935 1.558c0 0-1.87 0.312-2.494 0.312v0.312zM16.208 12.468h-13.714s-1.247 0-1.558-0.623c0 0 0-0.312 0.312-0.623l-0.312-0.623s-0.935 0.623-0.623 1.87 1.247 9.039 1.247 9.039 0 1.558 2.805 1.558h13.714s0.623 0 0.623-0.623c0-0.935-1.558-9.351-1.558-9.351s-0.312-0.623-0.935-0.623zM3.117 14.649c-0.312 0-0.312-0.312 0 0-0.312-0.623-0.312-0.623 0-0.623 0 0 0.312 0 0 0.623 0.312-0.312 0 0 0 0zM4.052 21.506s-0.312 0 0 0c-0.312-0.312-0.312-0.623 0-0.623s0.312 0.312 0 0.623c0.312 0 0.312 0 0 0zM4.675 14.649c-0.312 0-0.312-0.312 0 0-0.312-0.312-0.312-0.623 0-0.623h0.623c0.312 0 0.312 0 0.312 0.312s0 0.312-0.312 0.312h-0.623zM6.545 21.506h-0.623c-0.312 0-0.312 0-0.312-0.312s0-0.312 0.312-0.312h0.623v0.623zM6.545 14.338c0-0.312 0.312-0.312 0 0l1.247-0.312c0.312 0 0.312 0 0.312 0.312s0 0.312-0.312 0.312l-1.247-0.312c0.312 0.312 0 0 0 0zM9.039 21.506h-0.935c-0.312 0-0.312 0-0.312-0.312s0-0.312 0.312-0.312h0.935s0.312 0.312 0 0.623c0.312 0 0 0 0 0zM9.351 14.338c0-0.312 0-0.312 0 0l1.558-0.312h4.675c0.312 0 0.312 0 0.312 0.312s-0.312 0.312-0.312 0.312h-4.675l-1.558-0.312c0 0.312 0 0 0 0zM14.649 19.013c-0.623 0.312-1.247-0.312-1.247-0.935-0.312-0.623 0-1.247 0.623-1.558 0.623 0 0.935 0.312 1.247 0.935 0 0.935-0.312 1.558-0.623 1.558zM16.519 21.506h-5.922c-0.312 0-0.312 0-0.312-0.312s0-0.312 0.312-0.312h5.922c0.312 0 0.312 0.312 0 0.623 0.312 0 0.312 0 0 0z"></path>
</svg>
