<svg height="24" viewBox="0 0 24 24" width="24" xmlns="http://www.w3.org/2000/svg"><path d="m2.182 11.844h.935l-1.558-3.429s2.805-1.87 7.481-3.117 7.792-3.117 7.792-3.117l2.494 6.234.623-.312-2.182-6.545s0-.312-.623 0-4.364 2.182-7.481 2.805c-3.117.935-6.857 2.182-8.727 3.429-.312.312 0 .623 0 .623l1.247 3.429zm15.584-3.117h.312l.623-.623c.312 0 0-.312 0-.312l-1.247-3.117s0-.312-.312 0c-.312 0-.935 0-1.247-.623 0-.312-.312 0-.312 0l-4.675 1.558s-.312 0-.312.312l.312.312s2.494.312 2.494 3.117h.312s0-2.494-2.182-3.429c0 0 2.182-.935 4.052-1.558 0 0 .623.935 1.558.623l1.247 3.117c0-.312-.623 0-.623.623zm-6.545.624h1.87s0-.935-1.558-.935-1.247 0-1.247-.312.623-.623.935-.623.312.312.312.312h.312c.312 0 .623-.312.623-.312s.312 0 0-.312c-.623 0-1.247-.623-1.87-.312l-.312-.312h-.623v.312s-1.247.623-.623 1.87c.312.935 2.182.623 2.182.623zm4.052-2.182c0 .312.312.623.623.623s.623-.312.623-.623c0-.312-.312-.623-.623-.623s-.623.312-.623.623zm-6.546-.935c-3.117.623-4.987 1.558-4.987 1.558s-.312 0 0 .312c.312 1.247-.623 1.558-.935 1.87l.623 1.87v-.312l-.312-1.558c1.247-.623.623-1.87.623-1.87 2.182-.935 4.364-1.558 4.364-1.558-.935 1.558-.312 3.117-.312 3.117h.312c-.623-1.558 0-2.805.312-3.117.623-.312.312-.312.312-.312zm-3.428 4.363.935-.312s-.623-.623-.935.312zm7.792.935c0-.312-.312 0 0 0-1.87 0-4.364.312-4.364.312h3.74v.312l.623-.623zm10.909 5.611s-1.247-7.792-1.247-8.416c-.312-.312-.935 0-.935 0s-3.429 1.247-8.104 1.247-8.104 1.247-8.727 1.247-.312.623-.312.623h1.247c.935-.312 4.052-.935 7.169-1.247 4.364 0 8.727-.935 8.727-.935.312 1.558 1.247 7.792 1.247 7.792-2.182.312-4.675.623-4.675.623v.623c2.182 0 4.987-.935 4.987-.935s.312 0 .623-.312v-.312zm-4.052-3.117c0-.312-.312-.623-.623-.623s-.623.312-.623.623c0 .312.312.623.623.623.312-.312.623-.312.623-.623zm-1.558 3.429s2.494-.312 2.494-.623c0 0 .312 0 0-.312 0-.312 0-.935.935-1.247.312 0 .312-.312.312-.312l-.623-3.117v-.312s-1.247.312-1.558-.935h-.312c-.312 0-3.429.623-4.675.623h-.312l.623.623h.312v-.312s2.494-.312 4.364-.623c0 0 .312.935 1.558.935l.312 3.429s-1.247.312-.935 1.558c0 0-1.87.312-2.494.312v.312zm-2.182-4.987h-13.714s-1.247 0-1.558-.623c0 0 0-.312.312-.623l-.312-.623s-.935.623-.623 1.87 1.247 9.039 1.247 9.039 0 1.558 2.805 1.558h13.714s.623 0 .623-.623c0-.935-1.558-9.351-1.558-9.351s-.312-.623-.935-.623zm-13.091 2.181c-.312 0-.312-.312 0 0-.312-.623-.312-.623 0-.623 0 0 .312 0 0 .623.312-.312 0 0 0 0zm.935 6.857s-.312 0 0 0c-.312-.312-.312-.623 0-.623s.312.312 0 .623c.312 0 .312 0 0 0zm.623-6.857c-.312 0-.312-.312 0 0-.312-.312-.312-.623 0-.623h.623c.312 0 .312 0 .312.312s0 .312-.312.312h-.623zm1.87 6.857h-.623c-.312 0-.312 0-.312-.312s0-.312.312-.312h.623v.623zm0-7.168c0-.312.312-.312 0 0l1.247-.312c.312 0 .312 0 .312.312s0 .312-.312.312l-1.247-.312c.312.312 0 0 0 0zm2.494 7.168h-.935c-.312 0-.312 0-.312-.312s0-.312.312-.312h.935s.312.312 0 .623zm.312-7.168c0-.312 0-.312 0 0l1.558-.312h4.675c.312 0 .312 0 .312.312s-.312.312-.312.312h-4.675zm5.298 4.675c-.623.312-1.247-.312-1.247-.935-.312-.623 0-1.247.623-1.558.623 0 .935.312 1.247.935 0 .935-.312 1.558-.623 1.558zm1.87 2.493h-5.922c-.312 0-.312 0-.312-.312s0-.312.312-.312h5.922c.312 0 .312.312 0 .623.312 0 .312 0 0 0z"/></svg>