<!-- Generated by IcoMoon.io -->
<svg version="1.1" xmlns="http://www.w3.org/2000/svg" width="24" height="24" viewBox="0 0 24 24">
<title>warning-o</title>
<path d="M12 8.389c-0.425 0-0.708 0.283-0.708 0.708v5.097c0 0.425 0.283 0.708 0.708 0.708s0.708-0.283 0.708-0.708v-5.097c0-0.425-0.283-0.708-0.708-0.708zM12.425 17.31c-0.283-0.283-0.708-0.283-0.991 0-0.142 0.142-0.142 0.425-0.142 0.566 0 0.283 0 0.425 0.142 0.566s0.425 0.142 0.566 0.142 0.425 0 0.283-0.142c0.142-0.142 0.283-0.425 0.283-0.566 0-0.283 0-0.425-0.142-0.566zM23.469 17.451l-8.353-14.584c-0.566-1.133-1.841-1.841-3.115-1.841s-2.407 0.708-3.115 1.841l-8.355 14.584c-0.708 1.133-0.708 2.549 0 3.681 0.566 1.133 1.841 1.841 3.115 1.841h16.708c1.416 0 2.549-0.708 3.115-1.841 0.71-1.133 0.71-2.549 0.001-3.681zM22.336 20.566c-0.283 0.708-0.991 1.133-1.841 1.133h-16.849c-0.708 0-1.416-0.425-1.841-1.133s-0.425-1.557 0-2.265l8.353-14.584c0.283-0.708 0.991-1.133 1.841-1.133s1.557 0.425 1.982 1.133l8.354 14.584c0.426 0.708 0.426 1.557 0 2.265z"></path>
</svg>
