<svg xmlns="http://www.w3.org/2000/svg" width="24" height="24"><path d="M23.52 17.487L15.112 2.923c-1.373-2.406-4.846-2.406-6.215 0L.484 17.487c-1.373 2.406.336 5.395 3.107 5.395h16.792c2.771 0 4.51-3.018 3.137-5.395zM12 19.651c-.731 0-1.339-.608-1.339-1.339s.608-1.339 1.339-1.339 1.339.608 1.309 1.373c.035.697-.608 1.304-1.309 1.304zm1.22-8.656c-.059 1.037-.124 2.07-.183 3.107-.03.336-.03.642-.03.973-.03.548-.459.973-1.008.973s-.973-.395-1.008-.944c-.089-1.615-.183-3.201-.272-4.817-.03-.425-.059-.855-.094-1.28 0-.702.395-1.28 1.037-1.462a1.343 1.343 0 0 1 1.556.761c.094.212.124.425.124.672-.03.677-.094 1.349-.124 2.016z"/></svg>