<!-- Generated by IcoMoon.io -->
<svg version="1.1" xmlns="http://www.w3.org/2000/svg" width="24" height="24" viewBox="0 0 24 24">
<title>warning1</title>
<path d="M23.52 17.487l-8.408-14.564c-1.373-2.406-4.846-2.406-6.215 0l-8.413 14.564c-1.373 2.406 0.336 5.395 3.107 5.395h16.792c2.771 0 4.51-3.018 3.137-5.395zM12 19.651c-0.731 0-1.339-0.608-1.339-1.339s0.608-1.339 1.339-1.339 1.339 0.608 1.309 1.373c0.035 0.697-0.608 1.304-1.309 1.304zM13.22 10.995c-0.059 1.037-0.124 2.070-0.183 3.107-0.030 0.336-0.030 0.642-0.030 0.973-0.030 0.548-0.459 0.973-1.008 0.973s-0.973-0.395-1.008-0.944c-0.089-1.615-0.183-3.201-0.272-4.817-0.030-0.425-0.059-0.855-0.094-1.28 0-0.702 0.395-1.28 1.037-1.462 0.642-0.153 1.28 0.153 1.556 0.761 0.094 0.212 0.124 0.425 0.124 0.672-0.030 0.677-0.094 1.349-0.124 2.016z"></path>
</svg>
