<svg xmlns="http://www.w3.org/2000/svg" width="24" height="24"><path d="M12 8.389c-.425 0-.708.283-.708.708v5.097c0 .425.283.708.708.708s.708-.283.708-.708V9.097c0-.425-.283-.708-.708-.708zm.425 8.921a.685.685 0 0 0-.991 0c-.142.142-.142.425-.142.566 0 .283 0 .425.142.566s.425.142.566.142.425 0 .283-.142c.142-.142.283-.425.283-.566 0-.283 0-.425-.142-.566zm11.044.141L15.116 2.867c-.566-1.133-1.841-1.841-3.115-1.841s-2.407.708-3.115 1.841L.531 17.451a3.455 3.455 0 0 0 0 3.681c.566 1.133 1.841 1.841 3.115 1.841h16.708c1.416 0 2.549-.708 3.115-1.841.71-1.133.71-2.549.001-3.681zm-1.133 3.115c-.283.708-.991 1.133-1.841 1.133H3.646c-.708 0-1.416-.425-1.841-1.133s-.425-1.557 0-2.265l8.353-14.584c.283-.708.991-1.133 1.841-1.133s1.557.425 1.982 1.133l8.354 14.584a2.167 2.167 0 0 1 0 2.265z"/></svg>