<svg xmlns="http://www.w3.org/2000/svg" width="24" height="24"><path d="M3 9.75V21c0 .415.335.75.75.75H19.5a.75.75 0 0 0 .75-.75V9.75s-4.232-1.546-8.633-1.546C7.396 8.204 3 9.75 3 9.75zm13.125 5.344a4.312 4.312 0 1 1-8.626 0 4.312 4.312 0 1 1 8.626 0zM19.5 3H3.75a.749.749 0 0 0-.75.75V9s4.359-1.5 8.617-1.5C15.984 7.5 20.25 9 20.25 9V3.75A.75.75 0 0 0 19.5 3zM8.25 6H4.5V4.5h3.75V6zm5.624 0a.75.75 0 1 1 0-1.499.75.75 0 0 1 0 1.499zm2.251 0a.75.75 0 1 1 0-1.5.75.75 0 0 1 0 1.5zm2.203 0a.75.75 0 1 1 0-1.5.75.75 0 0 1 0 1.5zM8.296 15.094a3.516 3.516 0 1 0 7.032 0c0-.005-1.203 1.235-3.516-.141s-3.516.136-3.516.141z"/></svg>