<!-- Generated by IcoMoon.io -->
<svg version="1.1" xmlns="http://www.w3.org/2000/svg" width="24" height="24" viewBox="0 0 24 24">
<title>washing-machine</title>
<path d="M3 9.75v11.25c0 0.415 0.335 0.75 0.75 0.75h15.75c0.414 0 0.75-0.335 0.75-0.75v-11.25s-4.232-1.546-8.633-1.546c-4.221 0-8.617 1.546-8.617 1.546zM16.125 15.094c0 2.382-1.93 4.313-4.313 4.313s-4.313-1.93-4.313-4.313 1.931-4.313 4.313-4.313 4.313 1.93 4.313 4.313zM19.5 3h-15.75c-0.415 0-0.75 0.335-0.75 0.75v5.25s4.359-1.5 8.617-1.5c4.367 0 8.633 1.5 8.633 1.5v-5.25c0-0.415-0.336-0.75-0.75-0.75zM8.25 6h-3.75v-1.5h3.75v1.5zM13.874 6c-0.414 0-0.749-0.336-0.749-0.75s0.335-0.75 0.749-0.75c0.415 0 0.751 0.336 0.751 0.75s-0.336 0.75-0.751 0.75zM16.125 6c-0.415 0-0.75-0.336-0.75-0.75s0.335-0.75 0.75-0.75c0.414 0 0.75 0.336 0.75 0.75s-0.336 0.75-0.75 0.75zM18.328 6c-0.415 0-0.75-0.336-0.75-0.75s0.335-0.75 0.75-0.75c0.414 0 0.75 0.336 0.75 0.75s-0.337 0.75-0.75 0.75zM8.296 15.094c0 1.942 1.574 3.516 3.516 3.516s3.516-1.574 3.516-3.516c0-0.005-1.203 1.235-3.516-0.141s-3.516 0.136-3.516 0.141z"></path>
</svg>
