<svg height="24" width="24" xmlns="http://www.w3.org/2000/svg"><path d="M15.287 3.63a8.411 8.411 0 0 0-8.048 7.558l-.003.035h.55a7.801 7.801 0 0 1 2.24-4.713c.273.252.576.482.899.681l.025.014c-.608 1.177-.98 2.556-1.082 4.018h.135c.105-1.467.485-2.819 1.065-3.947.745.434 1.623.754 2.577.94a27.02 27.02 0 0 0-.25 3.722v.043-.002h-.847v.135h.847c.003 1.334.09 2.617.25 3.764-.954.185-1.832.506-2.577.94a9.774 9.774 0 0 1-.972-3.084l-.006-.053h-.137c.164 1.16.502 2.25.997 3.208a5.85 5.85 0 0 0-.928.699l.004-.004a7.782 7.782 0 0 1-2.253-4.846l-.002-.029H7.22c.398 4.308 3.995 7.656 8.373 7.656A8.408 8.408 0 0 0 24 12.039v-.008a8.368 8.368 0 0 0-.709-3.383l.021.054c-1.323-3.012-4.28-5.077-7.719-5.077-.108 0-.215.002-.321.006h.015zm.315.546c.155 0 .31.005.464.014.365.34.708 1.07.983 2.114.131.478.256 1.083.346 1.7l.011.09a9.87 9.87 0 0 1-1.797.16h-.015c-.635 0-1.257-.058-1.86-.17l.063.01c.101-.707.226-1.312.383-1.905l-.026.115c.275-1.045.618-1.775.983-2.114a7.39 7.39 0 0 1 .465-.014zm-.665.028c-.345.392-.658 1.093-.913 2.065-.132.48-.258 1.089-.349 1.709l-.011.091c-.939-.183-1.802-.498-2.533-.926.686-1.283 1.635-2.264 2.73-2.775.305-.072.672-.13 1.047-.162zm1.33 0c.407.035.777.094 1.137.178l-.053-.01c1.092.513 2.037 1.492 2.721 2.771-.73.428-1.594.743-2.533.927a16.397 16.397 0 0 0-.386-1.916l.026.116c-.255-.972-.568-1.673-.912-2.066zm-2.972.314c-.655.407-1.257.989-1.776 1.73a7.998 7.998 0 0 0-.485.782l-.021.043a5.692 5.692 0 0 1-.895-.674l.004.004a7.804 7.804 0 0 1 3.118-1.87zm4.624.006a7.888 7.888 0 0 1 3.166 1.879l-.002-.002a5.692 5.692 0 0 1-.868.658l-.025.014a8.177 8.177 0 0 0-.523-.851l.017.026c-.516-.738-1.115-1.318-1.765-1.724zm3.26 1.985a7.869 7.869 0 0 1 1.618 2.369l.02.05c.399.899.635 1.946.642 3.048v.003h-2.095c-.01-1.74-.398-3.396-1.11-4.774.349-.213.651-.443.929-.7zm-1.044.767c.679 1.32 1.084 2.945 1.094 4.703h-3.42v-.031c0-1.316-.091-2.611-.268-3.878l.017.146c.954-.186 1.833-.506 2.577-.94zm-6.357.965c.544.102 1.169.16 1.808.16h.016-.001.015c.639 0 1.265-.058 1.872-.17l-.063.01c.16 1.138.246 2.413.249 3.738h-1.178c-.03.051-.061.095-.094.137l.001-.002h1.27v.04c0 1.305-.09 2.588-.265 3.845l.017-.145a10.47 10.47 0 0 0-3.711.01l.064-.01a26.887 26.887 0 0 1-.248-3.701v-.04.002h1.294a.92.92 0 0 1-.087-.13l-.003-.005H13.53c.003-1.325.088-2.6.248-3.738zM2.558 9.37a2.585 2.585 0 0 0-2.546 2.34l-.001.01c-.142 1.541 1.064 2.842 2.566 2.842 1.26 0 2.312-.917 2.533-2.124h4.44v.972h.946v-.972h.837v1.431h.945v-2.376H5.11A2.59 2.59 0 0 0 2.566 9.37zm-.058.965l.068-.001c.905 0 1.639.733 1.639 1.638a1.64 1.64 0 0 1-1.639 1.638 1.64 1.64 0 0 1-.073-3.275zm13.09.388a.75.75 0 0 0-.348 1.402l.004.002-.383 1.958h1.5l-.383-1.958a.75.75 0 0 0-.366-1.404h-.024.001zm2.218 1.391h3.421c-.01 1.758-.415 3.384-1.094 4.704-.744-.434-1.623-.755-2.577-.94.159-1.118.25-2.409.25-3.721v-.046.002zm3.556 0h2.095a7.781 7.781 0 0 1-2.281 5.47 5.809 5.809 0 0 0-.899-.682l-.025-.014c.712-1.378 1.1-3.033 1.11-4.774zm-5.52 3.703c.562.013 1.1.07 1.625.166l-.063-.01a16.275 16.275 0 0 1-.383 1.906l.026-.115c-.275 1.045-.618 1.774-.982 2.114a7.39 7.39 0 0 1-.952-.001l.022.001c-.365-.34-.708-1.07-.983-2.114a14.743 14.743 0 0 1-.346-1.7l-.011-.09a9.97 9.97 0 0 1 2.059-.157zm1.695.181c.94.184 1.803.5 2.533.926-.686 1.284-1.635 2.265-2.73 2.776a7.45 7.45 0 0 1-1.046.162l-.029.002c.344-.393.657-1.094.913-2.065.132-.48.257-1.09.348-1.711zm-3.874 0c.102.711.227 1.32.385 1.916l-.026-.116c.255.973.568 1.674.913 2.066a8.002 8.002 0 0 1-1.128-.174l.053.01c-1.096-.511-2.045-1.492-2.731-2.775.73-.428 1.594-.743 2.534-.927zm-2.652.997c.173.322.341.592.523.851l-.017-.026c.52.741 1.121 1.323 1.776 1.73a7.846 7.846 0 0 1-3.175-1.885l.001.001c.264-.243.556-.465.867-.657zm9.178 0c.336.206.627.427.895.674l-.004-.004a7.804 7.804 0 0 1-3.118 1.87l-.055.015c.654-.407 1.256-.989 1.775-1.73a8 8 0 0 0 .486-.782z" fill="#3423a6"/></svg>