<!-- Generated by IcoMoon.io -->
<svg version="1.1" xmlns="http://www.w3.org/2000/svg" width="24" height="24" viewBox="0 0 24 24">
<title>webstorm</title>
<path d="M4.65 19.351h14.7v-14.701h-14.7v14.701zM11.551 17.625h-5.625v-0.945h5.625v0.945zM15.676 6.33c0.824 0 1.648 0.3 2.279 0.795l-0.705 1.050c-0.449-0.359-1.005-0.57-1.574-0.6-0.496 0-0.796 0.225-0.796 0.57 0 0.404 0.271 0.555 1.319 0.81 1.231 0.345 1.951 0.795 1.951 1.875 0 1.245-0.945 1.95-2.25 1.95-0.961-0.030-1.891-0.391-2.625-1.005l0.779-0.976c0.57 0.45 1.125 0.75 1.846 0.75 0.555 0 0.9-0.225 0.9-0.6 0-0.346-0.227-0.525-1.23-0.795-1.246-0.33-2.040-0.676-2.040-1.905v-0.044c0-1.125 0.9-1.875 2.146-1.875zM7.051 6.45l0.944 3.6 1.050-3.6h1.050l1.051 3.6 0.929-3.6h1.471l-1.8 6.225h-1.171l-1.004-3.6-1.020 3.6h-1.155l-1.801-6.225h1.456zM24 8.13l-1.919-4.755-1.201-2.88-5.579-0.495-0.871 0.84-1.11-0.42-3.525 1.875-3.795-2.25-6 2.46 3.225 19.171 13.275 2.324 0.84-4.26 0.15-0.091h-13.14v-15.299h15.3v14.025l4.35-2.58-2.625-4.92z"></path>
</svg>
