<svg xmlns="http://www.w3.org/2000/svg" width="24" height="24"><path d="M12.975 5.475V0C18.825.45 23.55 5.175 24 11.025h-5.475c-.375-2.85-2.7-5.175-5.55-5.55zm1.65-3.525v2.1L16.2 2.625c.075 0-.525-.6-1.575-.675zM17.7 3.375L16.275 4.8c.6.3.9.825.9.825L18.75 4.2c-.15-.225-1.05-.825-1.05-.825zm4.35 6s-.075-.825-.525-1.575L19.95 9.375h2.1zM20.7 6.3s-.525-.825-.9-1.05l-1.425 1.425s.75.975.825 1.2L20.7 6.3zM12 18.6a6.734 6.734 0 0 0 4.575-1.8l4.05 3.6A12.006 12.006 0 0 1 12 24.075C5.4 24 0 18.6 0 12 0 5.625 4.875.45 11.1 0v5.475C7.875 5.925 5.4 8.7 5.4 12c0 3.6 3 6.6 6.6 6.6zm6.525-5.7H24c-.15 2.25-.975 4.275-2.175 6L17.7 15.3c.45-.75.75-1.5.825-2.4zm3 3.6c.15-.225.675-1.875.675-1.875l-2.25-.15c0 .225-.15.525-.15.525l1.725 1.5z"/></svg>