<!-- Generated by IcoMoon.io -->
<svg version="1.1" xmlns="http://www.w3.org/2000/svg" width="24" height="24" viewBox="0 0 24 24">
<title>wholensole</title>
<path d="M12.975 5.475v-5.475c5.85 0.45 10.575 5.175 11.025 11.025h-5.475c-0.375-2.85-2.7-5.175-5.55-5.55zM14.625 1.95v2.1l1.575-1.425c0.075 0-0.525-0.6-1.575-0.675zM17.7 3.375l-1.425 1.425c0.6 0.3 0.9 0.825 0.9 0.825l1.575-1.425c-0.15-0.225-1.050-0.825-1.050-0.825zM22.050 9.375s-0.075-0.825-0.525-1.575l-1.575 1.575h2.1zM20.7 6.3s-0.525-0.825-0.9-1.050l-1.425 1.425s0.75 0.975 0.825 1.2l1.5-1.575zM12 18.6c1.725 0 3.375-0.675 4.575-1.8l4.050 3.6c-2.175 2.25-5.25 3.675-8.625 3.675-6.6-0.075-12-5.475-12-12.075 0-6.375 4.875-11.55 11.1-12v5.475c-3.225 0.45-5.7 3.225-5.7 6.525 0 3.6 3 6.6 6.6 6.6zM18.525 12.9h5.475c-0.15 2.25-0.975 4.275-2.175 6l-4.125-3.6c0.45-0.75 0.75-1.5 0.825-2.4zM21.525 16.5c0.15-0.225 0.675-1.875 0.675-1.875l-2.25-0.15c0 0.225-0.15 0.525-0.15 0.525l1.725 1.5z"></path>
</svg>
