<svg xmlns="http://www.w3.org/2000/svg" width="24" height="24"><path fill="#88171a" d="M23.98 11.645S24.533 0 11.735 0C.418 0 .064 11.17.064 11.17S-1.6 24 11.997 24C25.04 24 23.98 11.645 23.98 11.645zM8.155 7.576c2.4-1.47 5.469-.571 6.618 1.638.218.419.246 1.063.108 1.503-.477 1.516-1.601 2.366-3.145 2.728.455-.39.817-.832.933-1.442a2.105 2.105 0 0 0-.368-1.683l.004.006a2.141 2.141 0 0 0-2.48-.745l.015-.005c-.95.36-1.47 1.228-1.377 2.294.087.99.839 1.632 2.245 1.876-.21.111-.372.193-.53.281a5.168 5.168 0 0 0-1.635 1.417l-.009.013c-.143.192-.24.208-.458.075-2.827-1.729-3.009-6.067.079-7.956zM6.04 18.258c-.455.116-.895.286-1.359.438.227-1.532 2.021-2.943 3.539-2.782a3.876 3.876 0 0 0-.739 2.061l-.001.011c-.504.093-.98.155-1.44.272zM15.703 3.3c.448.017.898.01 1.347.02.124.009.238.025.349.05l-.015-.003a3.231 3.231 0 0 1-.342.436l.002-.002c-.16.15-.341.296-.573.069-.055-.055-.187-.042-.283-.044-.447-.005-.894-.02-1.34-.003a8.458 8.458 0 0 0-1.204.125l.05-.007c-.072.013-.178.25-.146.338.078.207.191.435.359.567.619.49 1.277.928 1.9 1.413.604.472 1.167.99 1.51 1.7.446.928.46 1.9.267 2.877-.322 1.63-1.147 2.98-2.483 3.962-.538.395-1.205.62-1.821.903-.543.25-1.1.465-1.644.712-.98.446-1.53 1.51-1.369 2.615.149 1.015 1.04 1.862 2.059 2.037 1.223.21 2.486-.586 2.785-1.83.336-1.397-.423-2.646-1.845-3.024l-.256-.066c.38-.17.708-.291 1.012-.458q.793-.437 1.558-.925c.15-.096.231-.096.36.014.977.846 1.56 1.898 1.724 3.187.27 2.135-.74 4.096-2.646 5.101-2.948 1.555-6.557-.215-7.208-3.484-.558-2.8 1.418-5.34 3.797-5.83 1.023-.211 1.958-.637 2.685-1.425.47-.508.697-.944.775-1.141.137-.341.217-.737.217-1.152v-.007a2.697 2.697 0 0 0-.244-1.009l.007.017c-.248-.566-1.2-1.466-1.435-1.656l-2.24-1.754c-.079-.065-.168-.06-.36-.047-.23.016-.815.048-1.067-.018.204-.155.76-.38 1-.56-.726-.49-1.554-.314-2.315-.46.176-.328 1.046-.831 1.541-.888a7.286 7.286 0 0 0-.145-.871l.01.049c-.03-.111-.154-.22-.263-.283-.262-.154-.541-.281-.843-.434.256-.168.568-.271.904-.28h.002a3.41 3.41 0 0 1 .931.092l-.023-.005c.54.123.97.042 1.399-.324-.338-.136-.676-.26-1.003-.407a9.414 9.414 0 0 1-.986-.518l.044.025c.85.118 1.671.437 2.54.32l.022-.118-2.018-.47c1.203-.11 2.323-.128 3.384.388.299.146.61.266.897.432.14.08.233.24.348.365.09.098.164.23.276.29.424.225.89.234 1.366.223l.01-.16c.479.15 1.017.702 1.017 1.105-.776 0-1.55-.003-2.325.004-.083 0-.165.061-.247.094.078.046.155.128.235.131zm-1-1.147a.117.117 0 0 0-.016.19.18.18 0 0 0 .247.065h-.001c.075-.038.148-.078.238-.125-.072-.062-.13-.114-.19-.163-.106-.087-.193-.032-.278.033z"/></svg>