<svg xmlns="http://www.w3.org/2000/svg" width="24" height="24"><path fill="#d10" d="M14.335 12.432c-.552.149-.615.18-1.164.337-.589-.337-1.107-.526-1.595-.463.057-.306.151-.525.245-.8 1.036-.151 1.805.4 2.514.926zm5.308 7.201a10.839 10.839 0 0 1-1.863 1.495l-.044.026h-.006l-3.702-4.614 3.07.336s1.471.151 1.807 0c.308-.117 1.963-2.449 1.963-2.449s-4.759-3.009-6.384-4.666c.188-2.794-.213-6.509-.213-6.479-1.193 1.195-1.35 1.383-2.544 2.489-.52-1.688-.769-2.269-1.289-3.958-1.568 1.289-2.763 3.464-3.62 6.016-.178.197-.358.41-.531.63l-.02.026c-.112.157-.23.313-.344.475-.231.326-.45.675-.663 1.032-.15.257-.299.52-.438.788-.063.112-.125.231-.188.35-.913 1.788-1.676 3.789-2.339 5.604A10.667 10.667 0 0 1 1.204 12c0-2.863 1.138-5.614 3.164-7.64S9.137 1.201 12 1.201h.011c2.98 0 5.678 1.207 7.632 3.158a10.797 10.797 0 0 1 3.156 7.64c0 2.98-1.205 5.678-3.155 7.634zM12 6.691c.832-.801.951-.92 1.751-1.689.063 1.532.031 2.333-.063 4.203-.463-.458-1.381-1.044-1.381-1.044s-.181-1.07-.307-1.47zm3.834 15.464c-6.616 2.393-11.398-2.014-12.417-3.552.006-.014.006-.027.006-.039.92-3.889 2.058-8.535 3.884-9.91.955-1.656 1.231-4.114 2.943-5.402.432 1.288 1.107 3.958 1.57 5.246 2.025 2.026 5.087 4.546 7.146 5.59.212.12.489.981.489.981l-.825 1.038-8.835-.887c-.2-.02-.394-.028-.594-.028-.569 0-1.15.073-1.833.18.432-1.071 1.35-1.936 1.35-1.936s-.855-.519-1.505-.605c.187-.432.681-.989.799-1.138-.243.087-2.025.888-2.207 1.563.857.214 1.469.487 1.469.487s-.949.957-1.131 2.612c0 0 2.82-.431 4.939-.153.063.03.094.03.125.03l1.102.031 3.536 5.886a.011.011 0 0 1-.01.006h-.001zm4.652-18.64A11.981 11.981 0 0 0 12 0C8.818 0 5.768 1.27 3.516 3.515 1.272 5.766.002 8.817.002 12s1.27 6.235 3.513 8.478c2.169 2.177 5.17 3.523 8.485 3.523s6.316-1.347 8.485-3.523c2.251-2.243 3.512-5.296 3.512-8.478s-1.261-6.234-3.512-8.485z"/></svg>