<svg xmlns="http://www.w3.org/2000/svg" width="24" height="24"><path d="M12.725 0a11.81 11.81 0 0 0-4.647.943 11.97 11.97 0 0 0-3.792 2.572l-.001.001a11.947 11.947 0 0 0-3.495 8.46v.026-.001.023a11.95 11.95 0 0 0 3.496 8.461 11.925 11.925 0 0 0 3.716 2.543l.077.03c1.472.626 3.042.943 4.652.943.867 0 1.718-.094 2.565-.28v-2.534a9.287 9.287 0 0 1-2.565.353h-.019a9.378 9.378 0 0 1-6.69-2.794l-.001-.001a9.473 9.473 0 0 1-2.781-6.717v-.059a9.473 9.473 0 0 1 2.778-6.713 9.37 9.37 0 0 1 6.688-2.795h.021-.001c4.439 0 8.037 3.618 8.037 8.082a8.08 8.08 0 0 1-1.332 4.459l-2.09-5.166c-.306-.755-.67-1.895-2.059-1.895-1.387 0-1.75 1.14-2.054 1.895l-1.922 4.771-2.578-6.544h-2.71l3.213 7.95c.326.807.68 1.897 2.077 1.897 1.395 0 1.747-1.09 2.072-1.896l1.904-4.727 1.914 4.727c.387.973.797 1.894 2.07 1.894.903 0 1.475-.583 1.788-.959a10.47 10.47 0 0 0 2.156-6.388v-.019.001C23.211 4.72 18.517 0 12.726 0z"/></svg>