<svg xmlns="http://www.w3.org/2000/svg" width="24" height="24"><path fill="#f59812" d="M14.547 6.502a.193.193 0 0 0-.131.183v2.404h-3.617c-.783 0-1.421.208-1.887.64-.468.436-.701 1.066-.701 1.852v3.416c-.01.089-.024.184-.024.285 0 .482.142.933.417 1.328.277.4.659.673 1.115.795.254.07.606.096 1.092.096h1.779c.86 0 1.529-.198 1.992-.617.463-.42.687-1.043.688-1.828V6.694a.194.194 0 0 0-.19-.19h-.475a.166.166 0 0 0-.032-.003l-.027.002h.001zM.2 9.086l-.021.002H.18a.193.193 0 0 0-.095.308l3.049 3.915-3.096 3.878a.193.193 0 0 0 .154.309h.646c.06 0 .113-.027.149-.07l2.692-3.416 2.68 3.416c.036.043.089.07.149.07h.634a.194.194 0 0 0 .154-.309L4.238 13.3l3-3.903a.194.194 0 0 0-.154-.308h-.646a.193.193 0 0 0-.149.07l-2.61 3.428-2.644-3.428a.193.193 0 0 0-.149-.07H.24a.18.18 0 0 0-.034-.003H.2zm16.986 0a.123.123 0 0 0-.02.002h.001a.193.193 0 0 0-.13.182v.494a.193.193 0 0 0 .189.19h4.4c.541 0 .913.125 1.15.357.238.23.37.59.37 1.115v.332h-3.844c-.686 0-1.26.21-1.672.629s-.617.985-.617 1.672v1.197c0 .569.17 1.07.51 1.459.003.004.008.007.011.012.432.512 1.06.771 1.815.771h2.408c.706 0 1.281-.21 1.672-.64.386-.426.57-1.01.57-1.721V11.52c0-.784-.211-1.41-.664-1.827-.453-.416-1.118-.605-1.957-.605h-4.152a.266.266 0 0 0-.03-.002h-.011zm-6.402.879h3.631v5.066c0 .495-.143.846-.404 1.104-.257.254-.655.433-1.221.498H12.609h.001a1.002 1.002 0 0 1-.141.012h-1.673c-.683 0-1.13-.153-1.363-.381-.233-.23-.381-.659-.381-1.34v-3.309c0-.649.234-1.102.713-1.424v.012c.217-.142.556-.238 1.019-.238zm8.483 2.644v.002h3.867v2.645c0 .495-.12.828-.332 1.045s-.538.344-1.022.344h-2.467a1.258 1.258 0 0 1-.232-.025l.008.001c-.43-.075-.732-.238-.926-.463s-.297-.525-.297-.937v-1.176c0-.43.108-.747.297-.973.187-.223.47-.37.877-.437h.012c.112-.017.187-.026.215-.026z"/></svg>