<svg xmlns="http://www.w3.org/2000/svg" width="24" height="24"><path fill="#fa6709" d="M19.96 20a.32.32 0 0 1-.32-.32V4.32a.32.32 0 0 1 .32-.32h3.72a.32.32 0 0 1 .32.32v15.36a.32.32 0 0 1-.32.32h-.011.001zm-6.22 0s-.3-.09-.3-.32v-9.43l.001-.07A2.18 2.18 0 0 0 11.261 8H4.3c-.4 0-.3.3-.3.3v11.38c0 .27-.3.32-.3.32H.32a.32.32 0 0 1-.32-.32V4.32A.32.32 0 0 1 .32 4h.011H.33h12.86a4.28 4.28 0 0 1 4.25 4.269v.001l.01 11.41a.32.32 0 0 1-.32.32zm-6.9 0a.3.3 0 0 1-.3-.3v-9a.3.3 0 0 1 .3-.3h3.77a.3.3 0 0 1 .29.3v9a.3.3 0 0 1-.3.3z"/></svg>