<svg xmlns="http://www.w3.org/2000/svg" width="24" height="24"><path fill="#002b5c" d="M23.996 3.178c-.337.131-.84.325-1.452.559-1.158.443-1.746.668-2.193.82-.46.156-.965.307-1.976.61-.683.204-1.254.371-1.659.488-.023.656 0 1.633-.219 2.726a16.396 16.396 0 0 1-1.512 4.324c-1.122 2.208-2.427 3.613-2.91 4.107l-.126-.134a17.035 17.035 0 0 1-2.861-4.262 16.723 16.723 0 0 1-1.204-3.438 13.76 13.76 0 0 1-.32-3.088c0-.056-.027-.097-.076-.112-.541-.167-1.324-.389-2.165-.64-.953-.284-1.645-.558-2.556-.9-.37-.139-1.057-.41-1.663-.644C.542 3.375.085 3.178.031 3.178c-.004 0-.011 0-.017.009A.1.1 0 0 0 0 3.244c.007.445.06 1.021.192 1.774.461 2.627 2.016 5.296 3.27 6.933 0 0 2.788 3.776 6.846 6.108l.227.132-.021.016c-1.288.987-2.401 1.483-2.684 1.605-.661.287-1.24.466-1.664.579v.305a18.991 18.991 0 0 0 2.04-.365 20.009 20.009 0 0 0 3.8-1.341l.006-.003c.102.05.207.102.315.153 1.145.544 2.678 1.22 4.555 1.536.46.077.852.124 1.13.146a.081.081 0 0 0 .086-.068.41.41 0 0 0 .003-.163.081.081 0 0 0-.047-.055c-.379-.157-.901-.3-1.487-.539-.701-.286-1.681-.8-2.736-1.596a11.258 11.258 0 0 1-.275-.215c3.48-1.992 5.992-4.941 5.992-4.941 1.301-1.527 3.331-4.217 4.073-7.346.262-1.105.404-2.056.375-2.721z"/></svg>