<svg xmlns="http://www.w3.org/2000/svg" width="24" height="24"><path fill="#25a768" d="M5.52 2.955h-.003a3.52 3.52 0 0 0-3.521 3.521v2.565a2.12 2.12 0 0 1-1.99 2.116H0l.03.562-.03.561a2.121 2.121 0 0 1 1.996 2.116V17.355a3.69 3.69 0 0 0 3.679 3.69h.001v-1.123a2.56 2.56 0 0 1-2.557-2.558v-2.963-.002c0-1.11-.558-2.089-1.409-2.673l-.011-.007a3.26 3.26 0 0 0 1.42-2.682V6.48a2.412 2.412 0 0 1 2.4-2.402h.438V2.955zm12.538 0v1.123h.437a2.39 2.39 0 0 1 2.386 2.39v.012-.001 2.558a3.256 3.256 0 0 0 1.409 2.675l.011.007a3.24 3.24 0 0 0-1.42 2.68v2.965a2.56 2.56 0 0 1-2.557 2.558v1.123a3.69 3.69 0 0 0 3.68-3.69V14.4v-.003a2.12 2.12 0 0 1 1.99-2.116H24l-.03-.562.03-.561a2.121 2.121 0 0 1-1.996-2.116V6.478v-.006c0-1.94-1.57-3.513-3.509-3.518zM6.253 7.478l3.478 3.259c.599.544 1.399.877 2.277.877s1.677-.333 2.279-.88l-.003.003 3.478-3.26h-1.669l-2.65 2.464c-.378.349-.886.562-1.443.562s-1.065-.214-1.444-.564l.002.001-2.635-2.463zm5.606 4.884a3.354 3.354 0 0 0-2.13.888l.002-.002-3.493 3.274h1.668l2.667-2.495c.378-.348.886-.562 1.443-.562s1.064.213 1.444.563l-.001-.001 2.65 2.495h1.67l-3.494-3.274a3.347 3.347 0 0 0-2.432-.885h.007z"/></svg>