<svg xmlns="http://www.w3.org/2000/svg" width="24" height="24"><path fill="#e60012" d="M12 0C5.373 0 0 5.373 0 12s5.373 12 12 12 12-5.373 12-12S18.627 0 12 0zm0 .57C18.315.57 23.43 5.685 23.43 12c0 6.31-5.115 11.43-11.43 11.43C5.69 23.43.57 18.314.57 12 .57 5.69 5.69.57 12 .57zm0 .234c-.1 0-.183.06-.218.147l-.492 1.551c-4.946.38-8.815 4.486-8.815 9.497V12c0 1.48.337 2.885.94 4.136l-1.1 1.206a.24.24 0 0 0-.015.264l-.001-.001a.245.245 0 0 0 .239.115h-.001l1.592-.353c1.737 2.525 4.612 4.16 7.868 4.16h.002c3.27 0 6.16-1.652 7.874-4.16l1.592.353.022.001c.089 0 .167-.05.207-.123l.001-.001a.23.23 0 0 0-.016-.262v.001l-1.1-1.198a9.296 9.296 0 0 0 .946-4.117v-.02 0c0-5.01-3.869-9.117-8.783-9.495l-.032-.002-.493-1.555a.237.237 0 0 0-.218-.143zm-.003.25c.024 0 .048.02.056.043l1.02 3.354a1.19 1.19 0 0 0 0 1.909h-.004c.436.326.718.846.718 1.429v1.12l4.326-2.497.476.825-4.802 2.77v.965l.834.48 4.802-2.774.476.825-4.326 2.5.972.56c.508.294.818.798.882 1.338v-.004a1.195 1.195 0 0 0 1.662.95l-.008.003 2.393 2.56c.02.02.02.047.008.07-.016.025-.04.033-.068.029l-3.413-.794a1.195 1.195 0 0 0-1.658-.955l.008-.003.003-.004c-.5.215-1.091.199-1.6-.095l-.968-.56v4.994h-.952v-5.545l-.834-.48-.833.48v5.545h-.953v-4.993l-.972.555c-.508.294-1.1.31-1.6.096l.004.004a1.193 1.193 0 0 0-1.65.951l-.001.006-3.413.793a.053.053 0 0 1-.063-.028c-.016-.02-.012-.047.008-.067l2.397-2.56c.333.143.73.135 1.067-.064.338-.194.544-.528.588-.889v.004a1.78 1.78 0 0 1 .88-1.337l.97-.56-4.327-2.496.477-.826 4.802 2.774.833-.484v-.964l-4.802-2.77.476-.826 4.326 2.496V7.789c0-.583.282-1.103.719-1.429h-.004c.29-.214.476-.56.476-.952s-.19-.738-.48-.957l1.02-3.353c.008-.028.031-.044.051-.045zm.004 5.902a.833.833 0 0 0-.833.833v1.67L12 9.94l.833-.48V7.789a.833.833 0 0 0-.832-.833zm0 4.084l-.833.48v.964l.833.476.833-.48v-.96zm-2.62 1.516l-1.444.833a.832.832 0 0 0-.304 1.143l-.002-.004a.823.823 0 0 0 .712.412h.011-.001.001a.826.826 0 0 0 .419-.113l-.004.002 1.445-.834v-.96zm5.243 0l-.833.48V14l1.445.834a.833.833 0 0 0 .837-1.443l-.004-.002z"/></svg>