<svg xmlns="http://www.w3.org/2000/svg" width="24" height="24"><path fill="#4b1e78" d="M12 0C5.373 0 0 5.373 0 12s5.373 12 12 12 12-5.373 12-12S18.627 0 12 0zm-.412 1.377c.128-.005.277-.009.428-.009 5.875 0 10.639 4.758 10.648 10.631v.017c0 5.881-4.767 10.648-10.648 10.648h-.017H12C6.13 22.65 1.377 17.888 1.377 12.016c0-5.727 4.521-10.398 10.189-10.638l.022-.001zM12 1.9a.185.185 0 0 0-.172.13v.001l-.883 2.526a.364.364 0 0 0 0 .098v-.002.001a.3.3 0 0 0 .132.249l.001.001a.926.926 0 0 1 .075 1.464l-.001.001a2.343 2.343 0 0 0-.82 1.781v.912L5.865 6.498l-.547.953 4.987 2.877v.692l-.602.347-4.978-2.88-.551.954L8.602 12l-.782.45a2.356 2.356 0 0 0-1.125 1.602l-.002.014a.932.932 0 0 1-1.318.666l.006.002a.288.288 0 0 0-.278.001l.002-.001a.322.322 0 0 0-.079.063l-1.742 2.037a.188.188 0 0 0 .177.305H3.46l2.633-.493a.34.34 0 0 0 .092-.036l-.002.001a.302.302 0 0 0 .152-.237v-.001a.927.927 0 0 1 1.238-.779l-.006-.002a2.339 2.339 0 0 0 1.965-.19l-.011.006.78-.451v5.104h1.098v-5.756l.598-.344.598.344v5.756h1.1v-5.123l.78.45a2.345 2.345 0 0 0 1.971.179l-.016.005a.926.926 0 0 1 1.233.778v.004a.284.284 0 0 0 .148.237l.001.001a.31.31 0 0 0 .088.034l.002.001 2.634.492a.184.184 0 0 0 .176-.305l.004.02-1.744-2.037a.387.387 0 0 0-.073-.062l-.002-.001a.296.296 0 0 0-.282 0l.002-.001a.936.936 0 0 1-.868-.037l.005.002a.932.932 0 0 1-.433-.627l-.001-.006a2.378 2.378 0 0 0-1.129-1.603l-.011-.006-.782-.45 4.436-2.558-.549-.955-4.98 2.873-.602-.347v-.692l4.985-2.877-.547-.953-4.439 2.564v-.926c0-.704-.31-1.335-.8-1.764l-.003-.002a.922.922 0 0 1 .076-1.463l.003-.002a.308.308 0 0 0 .128-.25.245.245 0 0 0-.001-.098v.002l-.924-2.527a.185.185 0 0 0-.176-.13h-.004zm.021 5.512c.322.01.58.274.58.598V9.7l-.597.347-.598-.348V8.01c0-.33.268-.598.598-.598h.018-.001zm-.017 3.818l.687.391v.781l-.687.391-.688-.39v-.782zm2.299 1.403l1.46.847a.598.598 0 0 1 .221.82l.002-.003v.004a.602.602 0 0 1-.823.217l.003.002-1.465-.844v-.696zm-4.596.004l.602.347v.692l-1.465.844a.598.598 0 0 1-.601-1.034l.003-.002z"/></svg>