<svg xmlns="http://www.w3.org/2000/svg" width="24" height="24"><path d="M12 0C5.375 0 0 5.375 0 12s5.375 12 12 12 12-5.375 12-12S18.625 0 12 0zm.768 4.105c.183 0 .363.053.525.157.125.083.287.185.755 1.154.31-.088.468-.042.551-.019.204.056.366.19.463.375.477.917.542 2.553.334 3.605-.241 1.232-.755 2.029-1.131 2.576.324.329.778.899 1.117 1.825.278.774.31 1.478.273 2.015.237-.112.435-.221.624-.342l-.022.013c.593-.366 1.487-.917 2.553-.931.714-.009 1.269.445 1.353 1.103a1.23 1.23 0 0 1-.937 1.36l-.008.002c-.649.158-.95.278-1.821.843-1.232.797-2.539 1.242-3.012 1.39-.193.16-.426.279-.681.339l-.011.002-.011.002c-.737.181-3.266.315-3.466.315h-.046c-.783 0-1.214-.241-1.45-.491-.658.329-1.51.19-2.122-.134a1.08 1.08 0 0 1-.597-.965c0-.069.006-.136.019-.201l-.001.007-.001.007a1.312 1.312 0 0 1-.147-.185l-.003-.005-.003-.005c-.162-.25-.528-.936-.454-1.946.056-.723.556-1.367.88-1.71a4.137 4.137 0 0 1-.003-.164v-.003c0-.753.151-1.471.424-2.126l-.014.036c.306-.727.885-1.348 1.32-1.737-.32-.537-.644-1.367-.329-2.21.227-.602.412-.936.82-1.08h-.005c.199-.074.389-.153.486-.259a3.41 3.41 0 0 1 2.288-1.102l.01-.001c.037-.093.079-.185.125-.283.31-.658.639-1.029 1.024-1.168a.907.907 0 0 1 .328-.06zm.006.7c-.507.016-1.001 1.519-1.001 1.519s-1.27-.204-2.266.871c-.199.218-.468.334-.746.44-.079.028-.176.023-.417.672-.371.991.625 2.094.625 2.094s-1.186.839-1.626 1.881c-.486 1.144-.338 2.261-.338 2.261s-.843.732-.899 1.487c-.051.663.139 1.2.343 1.515.227.343.51.176.51.176s-.561.653-.037.931c.477.25 1.283.394 1.71-.037.31-.31.371-1.001.486-1.283.028-.065.12.111.209.199.097.093.264.195.264.195s-.755.324-.445 1.066c.102.246.468.403 1.066.398.222-.005 2.664-.139 3.313-.296.375-.088.505-.283.505-.283s1.566-.431 2.998-1.357c.917-.598 1.293-.76 2.034-.936.612-.148.57-1.098-.241-1.084-.839.009-1.575.44-2.196.825-1.163.718-1.742.672-1.742.672l-.018-.032c-.079-.13.371-1.293-.134-2.678-.547-1.515-1.413-1.881-1.344-1.997.297-.5 1.038-1.297 1.334-2.78.176-.899.13-2.377-.269-3.151-.074-.144-.732.241-.732.241s-.616-1.371-.788-1.483a.264.264 0 0 0-.15-.046h-.007.001z"/></svg>