<svg xmlns="http://www.w3.org/2000/svg" width="24" height="24"><path d="M21.75 1.65c-.45-.525-1.125-.15-1.125-.15-1.95 1.5-6.075 2.1-6.75 2.25s0 .45 0 .45 1.575.75.975 3.75c-.6 2.925-4.5 6.075-4.5 6.075l1.425-3.45S13.05 7.05 10.8 6c-1.2-.525-2.1.975-2.1.975-.825-1.575-1.95-2.55-1.95-2.55 1.8.675 4.2 1.275 4.2 1.275s2.55.525 2.55-.975-2.55-1.275-2.55-1.275-1.05.075-3.9-.3S3.9 2.025 3.9 1.35s.3-.825.675-.975c.375-.15.45.225.3.45S4.65.9 4.65 1.5s.525.975.975.975 1.125-.225 1.125-1.2S5.925 0 5.925 0H2.25v24H13.2c.675-.45 1.8-1.05 1.8-2.625s-1.425-1.95-1.425-1.95.225 2.775-2.25 2.775c-1.2 0-2.55-.525-2.625-2.925-.3-2.325 3.075-5.1 5.775-6.9C17.1 10.5 18.75 8.4 18.75 6.225c0-2.1-.825-2.625-.825-2.625 1.275-.225 2.55-.675 2.55-.675s1.5-.675 1.275-1.275z"/></svg>