<!-- Generated by IcoMoon.io -->
<svg version="1.1" xmlns="http://www.w3.org/2000/svg" width="24" height="24" viewBox="0 0 24 24">
<title>yash-raj</title>
<path d="M21.75 1.65c-0.45-0.525-1.125-0.15-1.125-0.15-1.95 1.5-6.075 2.1-6.75 2.25s0 0.45 0 0.45 1.575 0.75 0.975 3.75c-0.6 2.925-4.5 6.075-4.5 6.075l1.425-3.45s1.275-3.525-0.975-4.575c-1.2-0.525-2.1 0.975-2.1 0.975-0.825-1.575-1.95-2.55-1.95-2.55 1.8 0.675 4.2 1.275 4.2 1.275s2.55 0.525 2.55-0.975-2.55-1.275-2.55-1.275-1.050 0.075-3.9-0.3-3.15-1.125-3.15-1.8 0.3-0.825 0.675-0.975c0.375-0.15 0.45 0.225 0.3 0.45s-0.225 0.075-0.225 0.675 0.525 0.975 0.975 0.975 1.125-0.225 1.125-1.2-0.825-1.275-0.825-1.275h-3.675v24h10.95c0.675-0.45 1.8-1.050 1.8-2.625s-1.425-1.95-1.425-1.95 0.225 2.775-2.25 2.775c-1.2 0-2.55-0.525-2.625-2.925-0.3-2.325 3.075-5.1 5.775-6.9 2.625-1.875 4.275-3.975 4.275-6.15 0-2.1-0.825-2.625-0.825-2.625 1.275-0.225 2.55-0.675 2.55-0.675s1.5-0.675 1.275-1.275z"></path>
</svg>
