<svg height="24" width="24" xmlns="http://www.w3.org/2000/svg"><path d="m23.761 7.2s-.234-1.655-.956-2.381c-.914-.956-1.936-.961-2.405-1.017-3.356-.244-8.395-.244-8.395-.244h-.009s-5.039 0-8.395.244c-.469.056-1.491.061-2.405 1.017-.722.727-.952 2.381-.952 2.381s-.239 1.941-.239 3.886v1.819c0 1.941.239 3.886.239 3.886s.234 1.655.952 2.381c.914.956 2.114.923 2.648 1.027 1.922.183 8.161.239 8.161.239s5.044-.009 8.4-.248c.469-.056 1.491-.061 2.405-1.017.722-.727.956-2.381.956-2.381s.239-1.941.239-3.886v-1.819c-.005-1.941-.244-3.886-.244-3.886zm-14.241 7.912v-6.745l6.483 3.384z"/></svg>