<svg xmlns="http://www.w3.org/2000/svg" width="24" height="24"><path d="M24 12.225v1.2c0 .45 0 1.05-.075 1.65-.15 1.8-.375 2.7-.75 3.375-.075.15-.15.3-.3.45 0 .075-.075.075-.075.15-.525.525-1.2.825-2.475.975-.225 0-.45.075-.675.075-1.575.15-3.9.15-7.575.15-3.675-.075-6-.075-7.575-.15-.225 0-.45 0-.675-.075-1.275-.15-1.95-.45-2.475-.975 0-.075-.075-.075-.075-.15-.075-.15-.225-.3-.3-.45-.375-.675-.6-1.575-.75-3.3C0 14.475 0 13.875 0 13.425v-2.85c0-.45 0-1.05.075-1.65.15-1.8.375-2.7.75-3.375.075-.15.15-.3.3-.45 0-.075.075-.075.075-.15.525-.525 1.2-.825 2.55-.975.225 0 .45-.075.675-.075C6 3.825 8.325 3.825 12 3.75c3.675.075 6 .075 7.575.15.225 0 .45 0 .675.075 1.275.15 1.95.45 2.475.975 0 .075.075.075.075.15.075.15.225.3.3.45.375.675.6 1.575.75 3.375.075.6.075 1.2.075 1.65V12c.075.075.075.15.075.225zM9.525 8.475V15l6.45-3.3-6.45-3.225z"/></svg>