<!-- Generated by IcoMoon.io -->
<svg version="1.1" xmlns="http://www.w3.org/2000/svg" width="24" height="24" viewBox="0 0 24 24">
<title>youtube-play</title>
<path d="M24 12.225v1.2c0 0.45 0 1.050-0.075 1.65-0.15 1.8-0.375 2.7-0.75 3.375-0.075 0.15-0.15 0.3-0.3 0.45 0 0.075-0.075 0.075-0.075 0.15-0.525 0.525-1.2 0.825-2.475 0.975-0.225 0-0.45 0.075-0.675 0.075-1.575 0.15-3.9 0.15-7.575 0.15-3.675-0.075-6-0.075-7.575-0.15-0.225 0-0.45 0-0.675-0.075-1.275-0.15-1.95-0.45-2.475-0.975 0-0.075-0.075-0.075-0.075-0.15-0.075-0.15-0.225-0.3-0.3-0.45-0.375-0.675-0.6-1.575-0.75-3.3-0.225-0.675-0.225-1.275-0.225-1.725v-2.85c0-0.45 0-1.050 0.075-1.65 0.15-1.8 0.375-2.7 0.75-3.375 0.075-0.15 0.15-0.3 0.3-0.45 0-0.075 0.075-0.075 0.075-0.15 0.525-0.525 1.2-0.825 2.55-0.975 0.225 0 0.45-0.075 0.675-0.075 1.575-0.075 3.9-0.075 7.575-0.15 3.675 0.075 6 0.075 7.575 0.15 0.225 0 0.45 0 0.675 0.075 1.275 0.15 1.95 0.45 2.475 0.975 0 0.075 0.075 0.075 0.075 0.15 0.075 0.15 0.225 0.3 0.3 0.45 0.375 0.675 0.6 1.575 0.75 3.375 0.075 0.6 0.075 1.2 0.075 1.65v1.425c0.075 0.075 0.075 0.15 0.075 0.225zM9.525 8.475v6.525l6.45-3.3-6.45-3.225z"></path>
</svg>
