<svg xmlns="http://www.w3.org/2000/svg" width="24" height="24"><path fill="#ff6900" d="M4.78 24c-.88 0-1.36-.2-1.62-.36-.36-.21-1.02-.75-1.62-2.33-.977-2.681-1.542-5.776-1.542-9.003L0 11.984V12c.02-3.66.59-6.76 1.54-9.3C2.14 1.1 2.8.56 3.16.35 3.42.21 3.9 0 4.78 0c.33 0 .72.03 1.18.1 3.279.62 6.198 1.769 8.815 3.365L14.66 3.4h.01c2.791 1.617 5.159 3.619 7.126 5.969l.034.041c1.06 1.32 1.19 2.17 1.19 2.59s-.13 1.27-1.19 2.59a26.568 26.568 0 0 1-7.034 5.932l-.126.068h-.01c-2.501 1.532-5.421 2.681-8.538 3.274l-.162.026c-.46.08-.85.11-1.18.11z"/></svg>