<!-- Generated by IcoMoon.io -->
<svg version="1.1" xmlns="http://www.w3.org/2000/svg" width="24" height="24" viewBox="0 0 24 24">
<title>zendframework</title>
<path fill="#68b604" d="M0.932 6.242v2.535h5.652l-6.584 8.98h10.219v-2.534h-5.18l6.553-8.98zM14.469 6.404c-3.178 0-3.178 3.178-3.178 3.178h9.531c3.178 0 3.178-3.178 3.178-3.178zM14.463 10.471c-3.173 0-3.172 3.172-3.172 3.172l4.762 0.005c3.178 0 3.177-3.177 3.177-3.177zM14.463 14.52c-3.173 0-3.172 3.183-3.172 3.183l1.584-0.006c3.178 0 3.178-3.177 3.178-3.177z"></path>
</svg>
