<svg xmlns="http://www.w3.org/2000/svg" width="24" height="24"><path fill="#009cfb" d="M12.271.006a8.61 8.61 0 0 0-2.424.256l.059-.013a8.74 8.74 0 0 0-4.817 3.042l-.013.017a8.321 8.321 0 0 0-1.848 4.523l-.002.033a6.235 6.235 0 0 0 .168 2.212l-.01-.043a14.899 14.899 0 0 0 1.092 2.833l-.039-.085a38.16 38.16 0 0 0 2.586 4.474l-.088-.138a82.206 82.206 0 0 0 5.172 7.026L11.993 24l.067-.074c.456-.574.923-1.14 1.363-1.725.789-1.048 1.562-2.11 2.34-3.168a.994.994 0 0 0 .21-.761l.001.005a.974.974 0 0 0-1.201-.8l.007-.001c-.307.077-.5.286-.675.527a498.45 498.45 0 0 1-1.647 2.256c-.147.2-.301.393-.488.553a62.974 62.974 0 0 1-4.22-6.075l-.16-.281c-.763-1.28-1.47-2.589-2.007-3.98a7.415 7.415 0 0 1-.321-.95l-.013-.056c-.105-.44-.096-.892-.068-1.344a5.147 5.147 0 0 1 .34-1.678l-.012.035c.244-.604.507-1.195.9-1.712a6.989 6.989 0 0 1 2.608-2.147l.042-.018c.788-.36 1.596-.62 2.47-.62l.277-.002c.377 0 .751.012 1.123.035l-.051-.003c.345.023.667.083.974.175l-.031-.008c1.486.448 2.742 1.256 3.696 2.494.37.492.682 1.056.91 1.662l.015.047c.097.24.192.535.266.838l.01.047c.041.195.072.427.085.664l.001.013c.044.494.063.99-.047 1.477-.079.324-.18.641-.305.951-.133.359-.281.71-.437 1.059V9.794l.001-.036a.831.831 0 0 0-.186-.525l.001.002a2.609 2.609 0 0 0-.387-.349l-.007-.005c-1.62-1.23-3.238-2.46-4.858-3.688a.957.957 0 0 0-.58-.194.957.957 0 0 0-.59.202l.002-.002c-.212.161-.422.325-.633.487l-1.273.972v-.916a1.1 1.1 0 0 0-.035-.261.983.983 0 1 0-1.931.267l-.002-.007v2.333a.17.17 0 0 1-.074.14h-.001c-.194.14-.379.284-.563.428l-.025.02a.978.978 0 0 0-.147 1.378l-.001-.002a.981.981 0 0 0 1.378.152l3.831-2.925a.1.1 0 0 1 .069-.027c.03 0 .056.013.075.033l2.268 1.734c.52.397 1.039.8 1.564 1.19a.295.295 0 0 1 .136.248l-.001.029v-.001 4.83c0 .02.003.039.004.058a.883.883 0 0 0 .011.128l-.001-.005v.002a.995.995 0 0 0 .018.099l-.001-.007a.88.88 0 0 0 .03.101l-.002-.007a.9.9 0 0 0 .04.096l-.003-.006a.982.982 0 0 0 1.797-.038l.002-.007.03-.043c.314-.54.635-1.076.937-1.627.597-1.084 1.132-2.196 1.518-3.375a6.504 6.504 0 0 0 .374-1.836l.001-.019a7.998 7.998 0 0 0-.353-2.617l.015.057a8.538 8.538 0 0 0-2.924-4.324l-.019-.014C15.984.704 14.225.08 12.269.01zM11.178 10.21a1.022 1.022 0 0 0-.996 1.022v.027-.001 1.615a1.024 1.024 0 0 0 1.024 1.002h1.625a1.02 1.02 0 0 0 1.019-1.02v-1.621a1.024 1.024 0 0 0-1.018-1.021h-.81v-.002zm.072.957h1.54c.074 0 .1.03.1.103v.778l.003.006c0 .248-.009.497 0 .74 0 .084-.026.115-.112.115h-1.529c-.08 0-.107-.027-.107-.107v-1.526c0-.077.023-.109.105-.109z"/></svg>