<!-- Generated by IcoMoon.io -->
<svg version="1.1" xmlns="http://www.w3.org/2000/svg" width="24" height="24" viewBox="0 0 24 24">
<title>zomato</title>
<path d="M14.925 6c-4.8-0.375-7.2 2.85-7.2 2.85s-1.275 1.5-2.475 1.875c-1.125 0.375-5.25 0.075-5.25 0.075v1.65c0.9-0.075 4.35-0.15 5.325 0 0.975 0.225 2.25 1.575 2.25 1.575s1.8 2.85 6.15 3.15c5.925 0 10.125-2.925 10.275-5.625-0.225-2.7-4.2-5.1-9.075-5.55zM11.4 8.625c-0.45 0.225-0.525 0-0.525 0s-0.225-0.375 0.3-0.525c2.625-1.5 6.675 0 6.675 0-4.575-0.75-6.075 0.3-6.45 0.525z"></path>
</svg>
