<svg xmlns="http://www.w3.org/2000/svg" width="24" height="24"><path d="M9.712 19.579a9.593 9.593 0 0 0 6.266-2.325l6.51 6.51a.756.756 0 0 0 1.065 0c.146-.146.221-.337.221-.532s-.071-.386-.221-.533l-6.514-6.51a9.61 9.61 0 0 0 2.325-6.266c0-5.321-4.331-9.652-9.653-9.652C4.386.271.055 4.602.055 9.927c0 5.321 4.331 9.653 9.656 9.653zm0-17.805c4.492 0 8.149 3.656 8.149 8.149s-3.656 8.149-8.149 8.149-8.149-3.656-8.149-8.149C1.559 5.43 5.215 1.774 9.712 1.774zm-2.906 8.902h1.89v1.89a.754.754 0 1 0 1.508 0v-1.89h1.89c.416 0 .75-.337.75-.754s-.337-.754-.75-.754H10.2v-1.89a.755.755 0 0 0-1.508 0v1.89h-1.89a.755.755 0 1 0 .004 1.508z"/></svg>