<svg xmlns="http://www.w3.org/2000/svg" width="24" height="24"><path fill="#2d8cff" d="M4.587 13.63l-.27-.012H1.89l3.235-3.235-.013-.27a.815.815 0 0 0-.794-.795h-.001l-.27-.013H.004l.014.27c.034.438.353.77.794.795l.27.013H3.51L.273 13.618l.014.269c.015.433.362.78.795.796l.27.013h4.044l-.014-.27c-.036-.443-.35-.767-.795-.796zm3.237-4.325H7.82a2.694 2.694 0 1 0 .004 0zm1.141 3.839a1.617 1.617 0 1 1-2.288-2.286l.001-.001a1.617 1.617 0 0 1 2.288 2.288l.001-.001zm12.872-3.838c-.642 0-1.218.281-1.613.727l-.002.002a2.148 2.148 0 0 0-1.616-.731h-.005c-.45 0-.867.138-1.212.375l.007-.005c-.21-.233-.68-.37-.948-.37v5.392l.27-.013c.45-.03.777-.349.795-.796l.013-.27V11.73l.014-.27c.01-.202.04-.382.132-.54a1.079 1.079 0 0 1 1.478-.39l-.005-.003c.164.096.296.228.389.387l.003.005c.093.16.12.339.132.54l.014.271v1.887l.013.269c.027.44.35.768.795.796l.27.013V11.73l.012-.27c.01-.2.04-.384.134-.543a1.077 1.077 0 0 1 1.862-.002l.003.005c.092.16.12.343.131.54l.014.27v1.887l.013.269c.028.443.35.77.796.796l.27.013V11.46a2.157 2.157 0 0 0-2.157-2.154h-.002zm-10.26.788a2.696 2.696 0 1 0 3.809 3.814l.001-.001a2.696 2.696 0 0 0-3.811-3.812l.001-.001zm3.049 3.05a1.617 1.617 0 1 1-2.288-2.288 1.617 1.617 0 0 1 2.288 2.288z"/></svg>