<!-- Generated by IcoMoon.io -->
<svg version="1.1" xmlns="http://www.w3.org/2000/svg" width="24" height="24" viewBox="0 0 24 24">
<title>zoom-out1</title>
<path d="M9.9 19.556c2.4 0 4.598-0.881 6.293-2.332l6.54 6.54c0.146 0.146 0.341 0.221 0.532 0.221s0.386-0.075 0.536-0.221c0.146-0.15 0.221-0.341 0.221-0.532 0-0.195-0.075-0.386-0.221-0.533l-6.54-6.544c1.451-1.695 2.336-3.893 2.336-6.296 0-5.348-4.35-9.698-9.698-9.698s-9.697 4.35-9.697 9.698 4.35 9.697 9.697 9.697zM9.9 1.672c4.515 0 8.186 3.671 8.186 8.186s-3.675 8.186-8.186 8.186c-4.515 0-8.186-3.671-8.186-8.186s3.671-8.186 8.186-8.186zM7.211 10.616h5.31c0.416 0 0.758-0.337 0.758-0.754s-0.338-0.754-0.758-0.754h-5.31c-0.416 0-0.757 0.337-0.757 0.754s0.341 0.754 0.757 0.754z"></path>
</svg>
