<svg xmlns="http://www.w3.org/2000/svg" width="24" height="24"><path d="M9.9 19.556a9.65 9.65 0 0 0 6.293-2.332l6.54 6.54a.756.756 0 0 0 1.289-.532.753.753 0 0 0-.221-.533l-6.54-6.544a9.655 9.655 0 0 0 2.336-6.296c0-5.348-4.35-9.698-9.698-9.698S.202 4.511.202 9.859s4.35 9.697 9.697 9.697zm0-17.884c4.515 0 8.186 3.671 8.186 8.186s-3.675 8.186-8.186 8.186c-4.515 0-8.186-3.671-8.186-8.186S5.385 1.672 9.9 1.672zm-2.689 8.944h5.31a.755.755 0 0 0 0-1.508h-5.31c-.416 0-.757.337-.757.754s.341.754.757.754z"/></svg>