<!-- Generated by IcoMoon.io -->
<svg version="1.1" xmlns="http://www.w3.org/2000/svg" width="24" height="24" viewBox="0 0 24 24">
<title>zoom-out11</title>
<path d="M17.1 15.075h-1.125l-0.375-0.375c1.35-1.575 2.175-3.6 2.175-5.85 0.075-4.875-3.9-8.85-8.85-8.85s-8.925 3.975-8.925 8.925c0 4.95 3.975 8.925 8.925 8.925 2.25 0 4.275-0.825 5.85-2.175l0.375 0.375v1.050l6.9 6.9 2.025-2.025-6.975-6.9zM9 16.5c-4.125 0-7.5-3.375-7.5-7.5s3.375-7.5 7.5-7.5 7.5 3.375 7.5 7.5-3.375 7.5-7.5 7.5zM4.5 9.75h9v-1.5h-9v1.5z"></path>
</svg>
